<svg width="76" height="76" viewBox="0 0 76 76" fill="none" xmlns="http://www.w3.org/2000/svg">
<path fill-rule="evenodd" clip-rule="evenodd" d="M50.6685 0H54.4254C66.3216 0 76 9.67842 76 21.5748C76 25.0209 75.2114 28.3146 73.6556 31.3644C72.2858 34.0496 70.334 36.4533 67.9844 38.3561V46.9441C67.9844 47.5444 67.6228 48.0856 67.0682 48.3154C66.8846 48.3915 66.6916 48.4285 66.5003 48.4285C66.1141 48.4285 65.7347 48.2777 65.4507 47.994L59.9011 42.4475C58.1198 42.9136 56.282 43.1494 54.4252 43.1494H50.6684C38.7722 43.1494 29.0938 33.4712 29.0938 21.5748C29.0938 9.67842 38.7722 0 50.6685 0ZM59.2293 16.2421C59.0151 13.1346 56.5101 10.6296 53.4024 10.4154C51.6407 10.2944 49.9595 10.8886 48.6727 12.0899C47.4036 13.2746 46.6758 14.9493 46.6758 16.6846C46.6758 17.5045 47.3405 18.169 48.1602 18.169C48.9798 18.169 49.6445 17.5045 49.6445 16.6846C49.6445 15.7556 50.0189 14.8945 50.6984 14.2602C51.3774 13.6265 52.2647 13.3129 53.1984 13.3773C54.8354 13.4901 56.1549 14.8096 56.2677 16.4464C56.3817 18.0995 55.297 19.5605 53.6889 19.9203C52.3859 20.2118 51.476 21.3441 51.476 22.6736V26.2399C51.476 27.0597 52.1407 27.7242 52.9603 27.7242C53.7801 27.7242 54.4447 27.0597 54.4446 26.2399V22.7922C57.4356 22.0697 59.4423 19.3328 59.2293 16.2421ZM54.0104 31.0621C53.7343 30.786 53.3513 30.6271 52.9609 30.6271C52.5705 30.6271 52.1876 30.786 51.9115 31.0621C51.6354 31.3382 51.4766 31.7211 51.4766 32.1115C51.4766 32.5034 51.6355 32.8864 51.9115 33.1624C52.1876 33.4385 52.5705 33.5959 52.9609 33.5959C53.3513 33.5959 53.7343 33.4385 54.0104 33.1624C54.2865 32.8849 54.4453 32.5034 54.4453 32.1115C54.4453 31.7211 54.2863 31.3382 54.0104 31.0621Z" fill="#D33234"/>
<path fill-rule="evenodd" clip-rule="evenodd" d="M51.5 47C50.8123 47 50.8386 47.7153 50.8649 48.4298C50.87 48.5669 50.875 48.704 50.875 48.8359V59.0781C50.875 63.1705 46.5455 67.5 42.4531 67.5H27.4266C27.2258 67.5 27.0342 67.4798 26.8595 67.4614C26.3214 67.4047 25.9427 67.3648 25.9422 67.9833L25.9402 72.9346L21.3973 68.3918C21.1679 67.8653 20.6431 67.5 20.0359 67.5H10.3906C6.2982 67.5 1.96875 63.1705 1.96875 59.0781V36.2188C1.96875 32.1263 6.2982 27.7969 10.3906 27.7969H25.3828L25.448 27.7969C26.2443 27.7975 27 27.7981 27 27C27 26.1802 26.2025 25.8281 25.3828 25.8281H10.3906C4.66123 25.8281 0 30.4894 0 36.2188V59.0781C0 64.8075 4.66123 69.4688 10.3906 69.4688H19.2758L25.3723 75.5652C25.6562 75.8492 26.0358 76 26.4222 76C26.6132 76 26.806 75.963 26.9894 75.8872C27.5441 75.6577 27.9058 75.1168 27.9062 74.5167L27.9098 69.4688H42.4531C48.1825 69.4688 52.8438 64.8075 52.8438 59.0781V48.8359C52.8438 48.0161 52.3197 47 51.5 47ZM37.8312 47H13.1688C12.5234 47 12 47.4477 12 48C12 48.5523 12.5234 49 13.1688 49H37.8312C38.4767 49 39 48.5523 39 48C39 47.4477 38.4766 47 37.8312 47ZM40 55C40.263 55 40.521 55.107 40.7069 55.293C40.8929 55.479 41 55.737 41 56C41 56.264 40.893 56.521 40.7069 56.707C40.521 56.893 40.263 57 40 57C39.737 57 39.479 56.893 39.293 56.707C39.107 56.521 39 56.263 39 56C39 55.737 39.1069 55.479 39.293 55.293C39.479 55.107 39.737 55 40 55ZM32.8522 55H13.1478C12.514 55 12 55.4477 12 56C12 56.5523 12.514 57 13.1478 57H32.8522C33.4861 57 34 56.5523 34 56C34 55.4477 33.486 55 32.8522 55ZM13.2048 38H30.7952C31.4605 38 32 38.4477 32 39C32 39.5523 31.4606 40 30.7952 40H13.2048C12.5395 40 12 39.5523 12 39C12 38.4477 12.5395 38 13.2048 38Z" fill="#333333"/>
</svg>
