<svg width="49" height="58" viewBox="0 0 49 58" fill="none" xmlns="http://www.w3.org/2000/svg">
<path d="M36.25 41.0835C42.2561 41.0835 47.125 36.2146 47.125 30.2085C47.125 24.2024 42.2561 19.3335 36.25 19.3335C30.2439 19.3335 25.375 24.2024 25.375 30.2085C25.375 36.2146 30.2439 41.0835 36.25 41.0835Z" stroke="#333333" stroke-width="2" stroke-miterlimit="10"/>
<path d="M31.4167 30.2085L35.0417 33.8335L41.0834 26.5835" stroke="#D33234" stroke-width="2" stroke-miterlimit="10" stroke-linecap="round" stroke-linejoin="round"/>
<path d="M41.0834 39.9521V56.7918L36.2501 53.1668L31.4167 56.7918V39.9521" stroke="#333333" stroke-width="2" stroke-miterlimit="10" stroke-linecap="round" stroke-linejoin="round"/>
<path d="M27.7917 48.3335H1.20837V1.2085H37.4584V15.7085" stroke="#333333" stroke-width="2" stroke-miterlimit="10" stroke-linecap="round" stroke-linejoin="round"/>
<path d="M9.66675 10.875H29.0001" stroke="#333333" stroke-width="2" stroke-miterlimit="10" stroke-linecap="round" stroke-linejoin="round"/>
<path d="M9.66675 15.7085H29.0001" stroke="#333333" stroke-width="2" stroke-miterlimit="10" stroke-linecap="round" stroke-linejoin="round"/>
<path d="M9.66675 20.542H24.1667" stroke="#333333" stroke-width="2" stroke-miterlimit="10" stroke-linecap="round" stroke-linejoin="round"/>
<path d="M9.66675 25.375H21.7501" stroke="#333333" stroke-width="2" stroke-miterlimit="10" stroke-linecap="round" stroke-linejoin="round"/>
<path d="M9.66675 30.2085H20.5417" stroke="#333333" stroke-width="2" stroke-miterlimit="10" stroke-linecap="round" stroke-linejoin="round"/>
<path d="M9.66675 39.875H15.7084" stroke="#333333" stroke-width="2" stroke-miterlimit="10" stroke-linecap="round" stroke-linejoin="round"/>
</svg>
