<svg width="46" height="58" viewBox="0 0 46 58" fill="none" xmlns="http://www.w3.org/2000/svg">
<path d="M37.4584 7.25H42.2917C43.6269 7.25 44.7084 8.33146 44.7084 9.66667V54.375C44.7084 55.7102 43.6269 56.7917 42.2917 56.7917H3.62504C2.28983 56.7917 1.20837 55.7102 1.20837 54.375V9.66667C1.20837 8.33146 2.28983 7.25 3.62504 7.25H8.45837" stroke="#333333" stroke-width="2" stroke-miterlimit="10"/>
<path d="M37.4584 12.0835H39.8751V51.9585H6.04175V12.0835H8.45841" stroke="#333333" stroke-width="2" stroke-miterlimit="10"/>
<path d="M31.4167 6.04183H27.7917C27.7917 3.37292 25.6272 1.2085 22.9583 1.2085C20.2894 1.2085 18.125 3.37292 18.125 6.04183H14.5C12.4972 6.04183 10.875 7.66402 10.875 9.66683V13.2918H35.0417V9.66683C35.0417 7.66402 33.4195 6.04183 31.4167 6.04183Z" stroke="#333333" stroke-width="2" stroke-miterlimit="10"/>
<path d="M22.9584 4.8335V7.25016" stroke="#333333" stroke-width="2" stroke-miterlimit="10"/>
<path d="M12.0834 22.9587L15.1586 25.5943L19.3334 20.542" stroke="#D33234" stroke-width="2" stroke-miterlimit="10" stroke-linecap="round" stroke-linejoin="round"/>
<path d="M12.0834 32.6252L15.1586 35.2608L19.3334 30.2085" stroke="#D33234" stroke-width="2" stroke-miterlimit="10" stroke-linecap="round" stroke-linejoin="round"/>
<path d="M12.0834 42.2917L15.1586 44.9273L19.3334 39.875" stroke="#D33234" stroke-width="2" stroke-miterlimit="10" stroke-linecap="round" stroke-linejoin="round"/>
<path d="M33.8333 22.9585H25.375H33.8333Z" stroke="#333333" stroke-width="2" stroke-miterlimit="10" stroke-linecap="round" stroke-linejoin="round"/>
<path d="M33.8333 32.625H25.375H33.8333Z" stroke="#333333" stroke-width="2" stroke-miterlimit="10" stroke-linecap="round" stroke-linejoin="round"/>
<path d="M33.8333 42.292H25.375H33.8333Z" stroke="#333333" stroke-width="2" stroke-miterlimit="10" stroke-linecap="round" stroke-linejoin="round"/>
</svg>
