<svg width="50" height="58" viewBox="0 0 50 58" fill="none" xmlns="http://www.w3.org/2000/svg">
<path d="M17.6524 45.3914C20.5918 45.3914 22.6959 43.3315 22.6959 40.3479V37.8262C22.6959 34.8427 20.5918 32.7827 17.6524 32.7827C14.713 32.7827 12.6089 34.8427 12.6089 37.8262V40.3479C12.6089 43.3315 14.713 45.3914 17.6524 45.3914Z" stroke="#333333" stroke-width="2" stroke-miterlimit="10" stroke-linejoin="round"/>
<path d="M29.0001 56.7389V51.6955C29.0001 47.5299 21.5941 45.3911 17.6523 45.3911C13.7105 45.3911 6.30444 47.5299 6.30444 51.6955V56.7389" stroke="#333333" stroke-width="2" stroke-miterlimit="10" stroke-linecap="round" stroke-linejoin="round"/>
<path d="M7.56533 36.5651H5.0436C2.95528 36.5651 1.26099 34.8708 1.26099 32.7825V5.04335C1.26099 2.95504 2.95528 1.26074 5.0436 1.26074H44.1306C46.2189 1.26074 47.9132 2.95504 47.9132 5.04335V32.7825C47.9132 34.8708 46.2189 36.5651 44.1306 36.5651H40.3479L33.7772 45.0129C33.0396 45.9601 31.5219 45.44 31.5219 44.2391V36.5651H27.7392" stroke="#333333" stroke-width="2" stroke-linecap="round" stroke-linejoin="round"/>
<path d="M31.5219 10.0869L22.6958 18.913L18.9132 15.1304L15.1306 18.913L22.6958 26.4782L35.3045 13.8695L31.5219 10.0869Z" stroke="#D33234" stroke-width="2" stroke-miterlimit="10" stroke-linejoin="round"/>
</svg>
