<svg width="57" height="58" viewBox="0 0 57 58" fill="none" xmlns="http://www.w3.org/2000/svg">
<path d="M3.85303 6.90479V13.8095H10.7578" stroke="#333333" stroke-width="2" stroke-miterlimit="10"/>
<path d="M32.8529 34.5236L27.3291 28.9998V17.9521" stroke="#D33234" stroke-width="2" stroke-miterlimit="10"/>
<path d="M43.9412 35.8202C47.7059 26.648 43.3222 16.1606 34.15 12.3959C24.9778 8.63128 14.4904 13.015 10.7257 22.1872C6.96104 31.3594 11.3447 41.8468 20.5169 45.6114C29.6891 49.3761 40.1765 44.9924 43.9412 35.8202Z" stroke="#333333" stroke-width="2" stroke-miterlimit="10"/>
<path d="M15.0249 53.7328C18.7259 55.5832 22.9102 56.619 27.3292 56.619C42.5887 56.619 54.9483 44.2594 54.9483 28.9999C54.9483 13.7404 42.5887 1.38086 27.3292 1.38086C18.933 1.38086 11.683 5.12324 6.61493 11.0475L3.85303 13.8094" stroke="#333333" stroke-width="2" stroke-miterlimit="10"/>
<path d="M9.37671 49.9902C10.2467 50.7359 11.1719 51.4402 12.1386 52.0755" stroke="#333333" stroke-width="2" stroke-miterlimit="10"/>
<path d="M4.32251 44.2734C4.98537 45.2677 5.70346 46.2206 6.4906 47.1182" stroke="#333333" stroke-width="2" stroke-miterlimit="10"/>
<path d="M1.28442 38.4043C1.62966 39.3157 2.2649 40.6553 2.693 41.5114" stroke="#333333" stroke-width="2" stroke-miterlimit="10"/>
</svg>
