<svg width="60" height="58" viewBox="0 0 60 58" fill="none" xmlns="http://www.w3.org/2000/svg">
<path d="M35.8809 43.5003C35.2614 43.5003 18.7445 43.5003 18.7445 43.5003C18.6127 43.2498 8.845 27.4053 8.845 27.4053C6.26136 23.108 4.53455 21.948 2.21455 23.7671C1.05455 24.6767 0.935909 26.3112 2.32 28.3939L14.6055 47.758C15.3041 48.7467 16.1082 50.0912 18.7445 50.0912C24.0173 50.0912 42.4718 50.0912 42.4718 50.0912C42.4718 50.0912 42.4718 49.643 42.4718 47.4548C42.4718 45.2667 41.1536 43.5003 35.8809 43.5003Z" stroke="#D33234" stroke-width="2" stroke-miterlimit="10"/>
<path d="M37.199 58.0001V56.6819L27.9717 36.9092H8.19897V56.6819V58.0001" stroke="#333333" stroke-width="2" stroke-miterlimit="10"/>
<path d="M42.4718 29.0002C44.7918 29.0002 47.2568 29.0002 49.0627 29.0002C54.164 29.0002 58.29 24.8743 58.29 19.7729C58.29 14.6715 54.164 10.5456 49.0627 10.5456C48.6672 10.5456 48.285 10.572 47.9027 10.6247C47.9027 10.5984 47.9027 10.572 47.9027 10.5456C47.9027 5.44427 43.7768 1.31836 38.6754 1.31836C33.574 1.31836 29.4481 5.44427 29.4481 10.5456C29.4481 10.572 29.4481 10.5984 29.4481 10.6247C24.9004 11.1915 21.3677 15.067 21.3677 19.7729C21.3677 24.8743 25.4936 29.0002 30.5949 29.0002C32.5327 29.0002 32.0449 29.0002 34.5495 29.0002" stroke="#333333" stroke-width="2" stroke-miterlimit="10"/>
<path d="M38.5173 9.22754V40.8639" stroke="#333333" stroke-width="2" stroke-miterlimit="10"/>
<path d="M45.1082 19.7729L38.5173 26.3639" stroke="#333333" stroke-width="2" stroke-miterlimit="10"/>
<path d="M31.9263 14.5L38.5172 21.0909" stroke="#333333" stroke-width="2" stroke-miterlimit="10"/>
<path d="M27.9719 36.9092H34.5628" stroke="#333333" stroke-width="2" stroke-miterlimit="10"/>
</svg>
