<svg width="64" height="58" viewBox="0 0 64 58" fill="none" xmlns="http://www.w3.org/2000/svg">
<path d="M21.5815 48.5577C22.0975 48.0418 22.6286 47.2089 24.2792 47.2089C25.9299 47.2089 42.4784 47.2089 44.129 47.2089C45.6279 47.2089 53.871 38.9422 54.9197 37.767C55.928 36.6374 60.4179 29.8898 61.6639 26.9763C60.8816 25.9226 58.7673 25.0475 56.2686 25.6275C53.8845 26.1805 52.4817 27.8935 50.8732 31.0228L44.6888 34.2331" stroke="#333333" stroke-width="2" stroke-miterlimit="10" stroke-linejoin="round"/>
<path d="M29.2916 39.1162C29.2916 39.1162 40.0823 39.1162 41.4312 39.1162C46.8265 39.1162 46.8265 32.372 41.4312 32.372C40.0823 32.372 37.0896 32.372 33.3381 32.372C32.2135 32.372 30.1077 29.6743 28.3255 29.6743C27.5348 29.6743 23.4039 29.6743 21.5813 29.6743C19.7587 29.6743 17.4943 31.153 16.186 32.372C14.1644 34.3936 10.6001 37.7673 10.6001 37.7673" stroke="#333333" stroke-width="2" stroke-miterlimit="10" stroke-linecap="round" stroke-linejoin="round"/>
<path d="M8.09293 35.0682L1.34863 41.8125L16.1856 56.6495L22.9299 49.9052L8.09293 35.0682Z" stroke="#333333" stroke-width="2" stroke-miterlimit="10" stroke-linejoin="round"/>
<path d="M8.09302 41.814L10.7907 44.5116" stroke="#333333" stroke-width="2" stroke-miterlimit="10" stroke-linejoin="round"/>
<path d="M50.8733 1.34863L37.3849 14.837L31.9896 9.44166L26.5942 14.837L37.3849 25.6277L56.2687 6.74398L50.8733 1.34863Z" stroke="#D33234" stroke-width="2" stroke-miterlimit="10" stroke-linejoin="round"/>
</svg>
