<svg width="52" height="44" viewBox="0 0 52 44" fill="none" xmlns="http://www.w3.org/2000/svg">
<path d="M0.866669 38.9998C0.388058 38.9998 1.52588e-05 38.6118 1.52588e-05 38.1331V7.80025C1.52588e-05 7.32164 0.388058 6.9336 0.866669 6.9336H35.5328C35.5848 6.93349 35.6368 6.93804 35.688 6.94746L45.2212 8.68077C45.6333 8.75574 45.9328 9.11475 45.9327 9.53356V16.4668C45.9327 16.9454 45.5446 17.3334 45.066 17.3334H36.3995V19.0668H46.7993C47.1482 19.0666 47.4631 19.2756 47.5984 19.5971L51.9317 29.8887C51.9761 29.9953 51.9991 30.1094 51.9993 30.2249V38.1331C51.9993 38.6118 51.6112 38.9998 51.1326 38.9998H48.4547C48.2906 39.9681 47.8548 40.8697 47.198 41.5998H51.9993V43.3331H1.52588e-05V41.5998H6.53459C5.87777 40.8697 5.44195 39.9681 5.27794 38.9998H0.866669ZM47.6833 24.2667H46.7993V28.5999H49.5076L47.6833 24.2667ZM43.3327 41.5998C45.2473 41.5998 46.7993 40.0477 46.7993 38.1331C46.7993 36.2186 45.2473 34.6665 43.3327 34.6665C41.4182 34.6665 39.8661 36.2186 39.8661 38.1331C39.8661 40.0477 41.4182 41.5998 43.3327 41.5998ZM44.1942 33.006C46.3772 33.3732 48.0875 35.0835 48.4547 37.2665H50.266V33.7999H48.5327V32.0666H50.266V30.4L50.2382 30.3333H38.9995C38.5208 30.3333 38.1328 29.9452 38.1328 29.4666V23.4C38.1328 22.9214 38.5208 22.5334 38.9995 22.5334H46.9536L46.2239 20.8001H36.3995V37.2665H38.2108C38.6866 34.4377 41.3654 32.5302 44.1942 33.006ZM45.066 28.5999V24.2667H39.8661V28.5999H45.066ZM39.4674 41.5998C38.8106 40.8697 38.3748 39.9681 38.2108 38.9998H15.5218C15.3578 39.9681 14.922 40.8697 14.2651 41.5998H39.4674ZM34.6662 37.2665V35.5332H14.8961C15.2068 36.0688 15.4187 36.6559 15.5218 37.2665H34.6662ZM10.3999 41.5998C12.3144 41.5998 13.8665 40.0477 13.8665 38.1331C13.8665 36.2186 12.3144 34.6665 10.3999 34.6665C8.48532 34.6665 6.93325 36.2186 6.93325 38.1331C6.93325 40.0477 8.48532 41.5998 10.3999 41.5998ZM7.53124 33.7999C9.2691 32.6443 11.5306 32.6443 13.2685 33.7999H34.6662V16.4668C34.6662 15.9882 35.0542 15.6001 35.5328 15.6001H44.1994V10.2563L35.4548 8.6669H1.73332V33.7999H7.53124ZM1.73332 35.5332V37.2665H5.27794C5.38107 36.6559 5.59297 36.0688 5.90366 35.5332H1.73332Z" fill="#333333"/>
<path d="M38.1307 31.1992H39.864V32.0659H38.1307V31.1992Z" fill="#333333"/>
<path d="M19.9351 0H20.8018V1.73331H19.9351V0Z" fill="#D33234"/>
<path d="M22.5315 0H32.0647V1.73331H22.5315V0Z" fill="#D33234"/>
<path d="M7.79952 3.4668H16.4661V5.20011H7.79952V3.4668Z" fill="#D33234"/>
<path d="M5.20024 3.4668H6.06689V5.20011H5.20024V3.4668Z" fill="#D33234"/>
<path d="M18.199 0H19.0657V1.73331H18.199V0Z" fill="#D33234"/>
<path d="M3.46831 3.4668H4.33496V5.20011H3.46831V3.4668Z" fill="#D33234"/>
</svg>
