<svg width="49" height="48" viewBox="0 0 49 48" fill="none" xmlns="http://www.w3.org/2000/svg">
<path d="M47.6985 33.1521L31.9624 20.9109C29.8465 19.269 26.989 18.9508 24.5639 20.0876L22.5788 18.102C22.4303 17.9536 22.229 17.8701 22.0191 17.8701C21.8111 17.8717 21.6121 17.9552 21.4648 18.102L3.59041 0.231914C3.28158 -0.0773046 2.78026 -0.0773046 2.47104 0.231914L0.231914 2.47066C-0.0773046 2.77949 -0.0773046 3.28081 0.231914 3.58964L18.102 21.4609C17.7948 21.7698 17.7948 22.2691 18.102 22.578L20.0876 24.5639C18.9516 26.989 19.2693 29.8462 20.9109 31.9624L33.1521 47.697C33.2916 47.8759 33.5011 47.9861 33.7276 48H33.7767C33.987 48.0004 34.1884 47.9169 34.3372 47.7681L37.1352 44.9708C37.4093 44.6972 37.4452 44.2654 37.2199 43.9504L34.3828 39.9789L38.3574 42.8167C38.6724 43.0413 39.1038 43.0057 39.3771 42.7321L42.7352 39.374C43.0088 39.1007 43.0444 38.6693 42.8198 38.3543L39.9804 34.3824L43.9527 37.2203C44.2673 37.4448 44.6987 37.4089 44.9724 37.1352L47.7704 34.3356C47.932 34.1748 48.0166 33.9526 48.0023 33.7253C47.9884 33.4977 47.8771 33.2874 47.697 33.1482L47.6985 33.1521ZM3.03073 2.08491L20.3408 19.3942L19.2206 20.5143L1.91136 3.20428L3.03073 2.08491ZM19.7857 22.1965L22.0229 19.9593L23.1802 21.1158C22.9618 21.2885 21.115 23.1353 20.943 23.3537L19.7857 22.1965ZM44.3253 35.7151L37.0347 30.5083C36.7201 30.2841 36.2895 30.32 36.0162 30.5929C35.743 30.8662 35.7066 31.2968 35.9304 31.6118L41.1377 38.9024L38.7273 41.3128L31.4367 36.1055C31.1217 35.8817 30.6911 35.9181 30.4182 36.1913C30.1449 36.4646 30.109 36.8952 30.3332 37.2098L35.5404 44.5004L33.8494 46.1907L22.1605 31.1634C20.4471 28.9564 20.6423 25.8194 22.6159 23.8411L23.668 22.7894C25.6458 20.815 28.7832 20.6202 30.9903 22.3341L46.0171 34.0245L44.3253 35.7151Z" fill="#333333"/>
<path d="M24.0308 5.20468C25.3423 5.20468 26.4056 4.14174 26.4056 2.82988C26.4056 1.5184 25.3423 0.455078 24.0308 0.455078C22.7189 0.455078 21.656 1.5184 21.656 2.82988C21.656 4.14174 22.7189 5.20468 24.0308 5.20468ZM24.0308 2.03828C24.468 2.03828 24.8224 2.39272 24.8224 2.82988C24.8224 3.26703 24.468 3.62148 24.0308 3.62148C23.5936 3.62148 23.2392 3.26703 23.2392 2.82988C23.2392 2.39272 23.5936 2.03828 24.0308 2.03828Z" fill="#D33234"/>
<path d="M43.028 21.0369C44.7766 21.0369 46.1944 19.6195 46.1944 17.8705C46.1944 16.1219 44.7766 14.7041 43.028 14.7041C41.279 14.7041 39.8616 16.1219 39.8616 17.8705C39.8616 19.6195 41.279 21.0369 43.028 21.0369ZM43.028 16.2873C43.9023 16.2873 44.6112 16.9962 44.6112 17.8705C44.6112 18.7448 43.9023 19.4537 43.028 19.4537C42.1533 19.4537 41.4448 18.7448 41.4448 17.8705C41.4448 16.9962 42.1533 16.2873 43.028 16.2873Z" fill="#D33234"/>
<path d="M3.44985 21.0361C1.70083 21.0361 0.283447 22.4539 0.283447 24.2025C0.283447 25.9515 1.70083 27.3689 3.44985 27.3689C5.19848 27.3689 6.61624 25.9515 6.61624 24.2025C6.61624 22.4539 5.19848 21.0361 3.44985 21.0361ZM3.44985 25.7857C2.57514 25.7857 1.86665 25.0768 1.86665 24.2025C1.86665 23.3282 2.57514 22.6193 3.44985 22.6193C4.32416 22.6193 5.03304 23.3282 5.03304 24.2025C5.03304 25.0768 4.32416 25.7857 3.44985 25.7857Z" fill="#D33234"/>
<path d="M17.6968 40.8262C16.385 40.8262 15.322 41.8895 15.322 43.201C15.322 44.5128 16.385 45.5758 17.6968 45.5758C19.0083 45.5758 20.0716 44.5128 20.0716 43.201C20.0716 41.8895 19.0083 40.8262 17.6968 40.8262ZM17.6968 43.9926C17.2597 43.9926 16.9052 43.6381 16.9052 43.201C16.9052 42.7638 17.2597 42.4094 17.6968 42.4094C18.134 42.4094 18.4884 42.7638 18.4884 43.201C18.4884 43.6381 18.134 43.9926 17.6968 43.9926Z" fill="#D33234"/>
</svg>
