<svg width="49" height="49" viewBox="0 0 49 49" fill="none" xmlns="http://www.w3.org/2000/svg">
<path d="M31.4453 17.5533C27.6149 13.723 21.3826 13.7232 17.5522 17.5533C13.7219 21.3836 13.7219 27.616 17.5522 31.4464C19.4674 33.3615 21.983 34.319 24.4988 34.319C27.0144 34.319 29.5301 33.3615 31.4453 31.4464C35.2756 27.616 35.2756 21.3836 31.4453 17.5533ZM30.094 30.0952C27.0087 33.1804 21.9886 33.1805 18.9033 30.0952C15.818 27.0099 15.818 21.9898 18.9033 18.9046C20.446 17.3619 22.4723 16.5906 24.4986 16.5906C26.5249 16.5906 28.5513 17.3619 30.0939 18.9046C33.1792 21.9898 33.1792 27.01 30.094 30.0952Z" fill="#333333"/>
<path d="M42.8933 6.05518C42.5201 5.68213 41.9153 5.68213 41.542 6.05518L37.0151 10.582L34.5881 8.15509C34.3149 7.88186 33.9038 7.80023 33.5468 7.94799C33.1899 8.09585 32.957 8.44421 32.957 8.83075V15.0359C32.9571 15.5637 33.385 15.9914 33.9125 15.9914H40.1178C40.5043 15.9914 40.8526 15.7586 41.0006 15.4016C41.1483 15.0446 41.0666 14.6336 40.7935 14.3604L38.3664 11.9333L42.8933 7.4065C43.2664 7.03345 43.2664 6.42842 42.8933 6.05518ZM34.8681 14.0806V11.1375L37.8113 14.0806H34.8681Z" fill="#D33234"/>
<path d="M15.0848 32.9131H8.87956C8.49321 32.9131 8.14475 33.1459 7.9968 33.5029C7.84893 33.86 7.93067 34.2709 8.2038 34.5442L10.6308 36.9712L6.10408 41.498C5.73093 41.8712 5.73093 42.4761 6.10408 42.8494C6.2907 43.0359 6.53522 43.1292 6.77965 43.1292C7.02417 43.1292 7.26878 43.0359 7.45521 42.8494L11.9821 38.3225L14.4091 40.7495C14.592 40.9323 14.8363 41.0294 15.0849 41.0294C15.208 41.0294 15.3321 41.0055 15.4503 40.9566C15.8074 40.8088 16.0402 40.4604 16.0402 40.0739V33.8685C16.0402 33.3408 15.6125 32.9131 15.0848 32.9131ZM14.1293 37.767L11.1862 34.824H14.1293V37.767Z" fill="#D33234"/>
<path d="M42.8931 41.4979L38.3664 36.9712L40.7934 34.5442C41.0665 34.2709 41.1484 33.86 41.0005 33.5029C40.8526 33.1459 40.5043 32.9131 40.1177 32.9131H33.9124C33.3848 32.9131 32.957 33.341 32.957 33.8685V40.0738C32.957 40.4602 33.1899 40.8086 33.5468 40.9565C33.665 41.0054 33.7893 41.0293 33.9123 41.0293C34.1611 41.0293 34.4053 40.9322 34.5881 40.7494L37.0151 38.3224L41.5419 42.8493C41.7285 43.0358 41.973 43.1291 42.2175 43.1291C42.462 43.1291 42.7065 43.0358 42.893 42.8493C43.2663 42.4761 43.2663 41.8711 42.8931 41.4979ZM34.8679 37.7671V34.824H37.8111L34.8679 37.7671Z" fill="#D33234"/>
<path d="M15.4506 7.94796C15.0937 7.80038 14.6827 7.88182 14.4094 8.15506L11.9823 10.582L7.4554 6.05514C7.08226 5.68219 6.47742 5.68209 6.10408 6.05514C5.73093 6.42829 5.73093 7.03323 6.10408 7.40647L10.6309 11.9333L8.20399 14.3602C7.93076 14.6335 7.84903 15.0444 7.99699 15.4015C8.14485 15.7585 8.49321 15.9913 8.87975 15.9913H15.085C15.6127 15.9913 16.0405 15.5634 16.0405 15.0358V8.83072C16.0404 8.44417 15.8076 8.09582 15.4506 7.94796ZM14.1294 14.0804H11.1863L14.1294 11.1373V14.0804Z" fill="#D33234"/>
<path d="M29.3757 25.1328C28.8754 24.9648 28.3339 25.2344 28.166 25.7347C27.9753 26.3028 27.6619 26.8075 27.2342 27.2352C25.726 28.7434 23.2719 28.7434 21.7637 27.2352C20.2554 25.7271 20.2554 23.273 21.7637 21.7648C23.2719 20.2566 25.726 20.2566 27.2342 21.7648C27.6074 22.1378 28.2122 22.1378 28.5855 21.7648C28.9587 21.3916 28.9587 20.7867 28.5855 20.4134C26.3322 18.1603 22.6659 18.1604 20.4126 20.4134C18.1593 22.6668 18.1593 26.3331 20.4126 28.5864C21.5393 29.713 23.0191 30.2764 24.499 30.2764C25.9789 30.2764 27.4588 29.7131 28.5854 28.5864C29.2238 27.948 29.692 27.1931 29.9775 26.3426C30.1455 25.8425 29.876 25.3007 29.3757 25.1328Z" fill="#333333"/>
<path d="M48.0444 0H0.955498C0.427792 0 0 0.427888 0 0.955498V48.0445C0 48.572 0.427792 48.9999 0.955498 48.9999H48.0445C48.5721 48.9999 49 48.572 49 48.0444V0.955498C48.9999 0.427888 48.5721 0 48.0444 0ZM47.089 47.089H1.9109V1.9109H47.089V47.089Z" fill="#333333"/>
<path d="M29.1624 22.4141H29.1235C28.5958 22.4141 28.168 22.842 28.168 23.3696C28.168 23.8972 28.5959 24.3251 29.1235 24.3251H29.1624C29.69 24.3251 30.1179 23.8972 30.1179 23.3696C30.1179 22.842 29.69 22.4141 29.1624 22.4141Z" fill="#333333"/>
</svg>
