<svg width="47" height="54" viewBox="0 0 47 54" fill="none" xmlns="http://www.w3.org/2000/svg">
<path d="M4.43362 30.1084C3.94392 30.1084 3.54688 30.5054 3.54688 30.9951V34.5421C3.54688 35.0319 3.94392 35.4289 4.43362 35.4289C4.92333 35.4289 5.32037 35.0319 5.32037 34.5421V30.9951C5.32037 30.5054 4.92333 30.1084 4.43362 30.1084Z" fill="#333333"/>
<path d="M7.9805 31.8818C7.49079 31.8818 7.09375 32.2789 7.09375 32.7686V36.3156C7.09375 36.8053 7.49079 37.2023 7.9805 37.2023C8.47021 37.2023 8.86725 36.8053 8.86725 36.3156V32.7686C8.86725 32.2789 8.47021 31.8818 7.9805 31.8818Z" fill="#333333"/>
<path d="M40.3217 36.6409C39.9084 36.3782 39.3604 36.5005 39.0977 36.9138C38.8456 37.3105 38.9468 37.835 39.3285 38.1094C41.766 39.7505 42.4114 43.0569 40.7704 45.4942C39.1292 47.9317 35.8229 48.5772 33.3855 46.9361C30.9481 45.2949 30.3025 41.9886 31.9437 39.5512C32.9319 38.0835 34.5851 37.2031 36.3544 37.2022C36.8441 37.2022 37.2411 36.8052 37.2411 36.3155C37.2411 35.8258 36.8441 35.4287 36.3544 35.4287C32.4365 35.4295 29.2609 38.6062 29.2617 42.524C29.2625 46.4419 32.4392 49.6175 36.357 49.6167C40.2749 49.6159 43.4505 46.4393 43.4497 42.5214C43.4493 40.1632 42.277 37.9593 40.3217 36.6409Z" fill="#D33234"/>
<path d="M46.58 39.5778C45.7208 36.6015 43.6068 34.1477 40.7905 32.8576V13.2604C40.7906 12.9468 40.625 12.6565 40.3551 12.4969L20.8466 0.969155C20.5682 0.804552 20.2222 0.804552 19.9439 0.969155L0.435394 12.4969C0.416772 12.5075 0.403471 12.5235 0.385736 12.5359C0.368001 12.5483 0.351153 12.5625 0.333418 12.5767C0.256381 12.6373 0.190208 12.7105 0.137446 12.7931C0.137446 12.7993 0.126805 12.8028 0.123258 12.809V12.8152C0.0732677 12.9054 0.0393496 13.0035 0.0230556 13.1052C0.0230556 13.1318 0.0150747 13.1566 0.0124145 13.1832C0.00975425 13.2098 5.56095e-08 13.2338 5.56095e-08 13.2604V36.3159C-0.000110788 36.6295 0.16549 36.9198 0.435394 37.0794L19.9439 48.6071C19.9673 48.6184 19.9912 48.6285 20.0157 48.6373C20.0399 48.6493 20.0648 48.66 20.0902 48.6692C20.2854 48.7508 20.5051 48.7508 20.7003 48.6692C20.726 48.66 20.7512 48.6493 20.7757 48.6373C20.7987 48.6266 20.8235 48.6204 20.8466 48.6071L26.1414 45.4778C27.7707 51.1217 33.6667 54.3763 39.3107 52.747C44.9547 51.1178 48.2093 45.2217 46.58 39.5778ZM20.3952 2.76216L25.0063 5.48714L18.1695 9.52718C17.7476 9.77646 17.6076 10.3206 17.8569 10.7425C18.1062 11.1643 18.6503 11.3043 19.0722 11.055L26.7506 6.52109L31.3617 9.24608L13.5965 19.7408L8.98543 17.0158L16.4137 12.6264C16.8356 12.3771 16.9756 11.8329 16.7263 11.4111C16.477 10.9892 15.9329 10.8492 15.511 11.0985L7.24208 15.9854L2.6301 13.2604L20.3952 2.76216ZM12.7098 21.2775V27.1983L8.12883 24.4911V18.5702L12.7098 21.2775ZM26.0661 39.782C25.8302 40.6765 25.7124 41.598 25.7157 42.5231C25.716 42.8942 25.7355 43.2651 25.7743 43.6342L21.282 46.29V43.4099C21.282 42.9202 20.8849 42.5231 20.3952 42.5231C19.9055 42.5231 19.5085 42.9202 19.5085 43.4099V46.29L1.7735 35.8104V14.8149L6.35533 17.5221V24.9965C6.355 25.3104 6.52049 25.6012 6.79073 25.7609L13.1452 29.5163C13.282 29.5968 13.4378 29.6393 13.5965 29.6395C14.0862 29.6395 14.4833 29.2425 14.4833 28.7528V22.3247L19.5085 25.2945V39.8629C19.5085 40.3526 19.9055 40.7496 20.3952 40.7496C20.8849 40.7496 21.282 40.3526 21.282 39.8629V25.2945L37.3534 15.7974C37.7751 15.5481 37.9149 15.0042 37.6656 14.5825C37.4163 14.1609 36.8724 14.0211 36.4507 14.2704L20.3952 23.7586L15.3408 20.7712L33.1059 10.2729L39.017 13.7658V32.2368C33.3572 30.7441 27.5588 34.1221 26.0661 39.782ZM36.3567 51.3906C31.4593 51.3906 27.4892 47.4205 27.4892 42.5231C27.4892 37.6257 31.4593 33.6556 36.3567 33.6556C41.2541 33.6556 45.2242 37.6257 45.2242 42.5231C45.2189 47.4183 41.2519 51.3852 36.3567 51.3906Z" fill="#333333"/>
<path d="M39.6219 40.123C39.2783 39.791 38.7334 39.791 38.3898 40.123L35.0264 43.4864L34.3232 42.7833C33.9709 42.443 33.4096 42.4527 33.0693 42.805C32.7373 43.1486 32.7373 43.6935 33.0693 44.0371L34.3994 45.3672C34.7457 45.7134 35.307 45.7134 35.6533 45.3672L39.6437 41.3769C39.9839 41.0246 39.9742 40.4632 39.6219 40.123Z" fill="#D33234"/>
</svg>
