<svg width="52" height="53" viewBox="0 0 52 53" fill="none" xmlns="http://www.w3.org/2000/svg">
<path d="M38.796 32.322L35.3187 31.0457C34.8311 30.8665 34.2795 30.9966 33.9138 31.377L33.517 31.7897L31.2186 30.5184L31.2184 28.3656C33.4632 26.8029 35.2597 24.1187 35.7459 21.4565C35.7505 21.4316 35.7545 21.4068 35.7589 21.382C35.7734 21.2982 35.7875 21.2143 35.7994 21.1305C35.8126 21.0386 35.8243 20.947 35.8343 20.8557C35.8381 20.8201 35.841 20.7845 35.8443 20.749C35.8525 20.662 35.8592 20.5752 35.8644 20.4887C35.8659 20.4624 35.8677 20.4362 35.8689 20.4099C35.8702 20.3836 35.8723 20.3572 35.8734 20.331C36.993 20.3292 37.9033 19.3827 37.9033 18.2196V15.616C37.9017 15.0587 37.6051 14.5725 37.1684 14.3146L37.2124 14.2323C37.2132 14.2307 37.2138 14.229 37.2146 14.2275C37.227 14.204 37.2383 14.1796 37.2484 14.1548C37.2511 14.1481 37.253 14.1413 37.2555 14.1346C37.2627 14.1153 37.2695 14.0959 37.2752 14.0759C37.2779 14.0665 37.2799 14.057 37.2822 14.0476C37.2865 14.0302 37.2906 14.0128 37.2937 13.995C37.2956 13.9841 37.2971 13.9733 37.2985 13.9624C37.3007 13.9458 37.3026 13.9293 37.3039 13.9124C37.3047 13.9007 37.3052 13.8891 37.3056 13.8774C37.3059 13.8688 37.3068 13.8605 37.3068 13.852V9.89318C37.3068 4.43802 33.0331 0 27.78 0H24.2177C18.9646 0 14.691 4.43813 14.691 9.89318V13.8368C14.6909 13.8439 14.6921 13.8513 14.6922 13.8585C14.6924 13.8838 14.6937 13.9091 14.6963 13.9343C14.6974 13.9451 14.6982 13.9557 14.6997 13.9666C14.7048 14.0021 14.7116 14.0375 14.7213 14.0721C14.7215 14.0726 14.7216 14.0731 14.7217 14.0736C14.7223 14.0758 14.7233 14.0775 14.7239 14.0796C14.7339 14.1139 14.7467 14.1475 14.7615 14.1804C14.7658 14.1901 14.7702 14.1997 14.7749 14.2093C14.7786 14.2169 14.7816 14.2248 14.7855 14.2323L14.8295 14.3147C14.3928 14.5728 14.0962 15.0595 14.0946 15.6183V18.2196C14.0946 19.3824 15.0045 20.3287 16.1237 20.331C16.1248 20.3627 16.1274 20.3948 16.1289 20.4267C16.1301 20.4518 16.1315 20.4769 16.133 20.502C16.1383 20.5943 16.1456 20.687 16.1545 20.7799C16.157 20.807 16.1591 20.8341 16.1619 20.8613C16.173 20.9653 16.1862 21.0695 16.2015 21.174C16.2101 21.2331 16.2204 21.292 16.2304 21.3512C16.2378 21.3953 16.2452 21.4394 16.2534 21.4835C16.2671 21.5581 16.2819 21.6328 16.2976 21.7075C16.3002 21.7197 16.3031 21.7319 16.3057 21.7442C16.8601 24.3161 18.6112 26.8763 20.7792 28.3868L20.779 30.5185L18.4813 31.7902L18.0842 31.3772C17.7186 30.997 17.1672 30.867 16.6793 31.0459L5.97632 34.9739C2.84139 36.1244 0.679224 39.0972 0.467974 42.5474C0.441568 42.979 0.757122 43.3513 1.17282 43.3788C1.18917 43.3798 1.20532 43.3804 1.22147 43.3804C1.61614 43.3804 1.94804 43.0616 1.97343 42.6468C2.14629 39.8239 3.9148 37.3919 6.47895 36.451L17.0872 32.5576L17.7558 33.2529C17.7747 33.2725 17.794 33.2915 17.813 33.3109C17.813 33.3109 17.8131 33.311 17.8132 33.3111C17.8138 33.3118 17.8145 33.3124 17.8151 33.313C20.0018 35.5556 22.9043 36.7901 25.9988 36.7901C28.9946 36.7901 31.8106 35.633 33.9711 33.5245C33.9712 33.5244 33.9713 33.5243 33.9715 33.5242C34.0419 33.4555 34.1116 33.3858 34.1805 33.3152C34.182 33.3137 34.1836 33.3121 34.1851 33.3106C34.1853 33.3104 34.1854 33.3102 34.1856 33.3101C34.2043 33.2909 34.2234 33.2722 34.2421 33.2528L34.9106 32.5575L38.2934 33.7989C38.6861 33.9432 39.1171 33.7293 39.2559 33.3215C39.3947 32.9136 39.1889 32.4661 38.796 32.322ZM35.8777 16.6084H35.8778C36.0176 16.4258 36.1455 16.2316 36.2564 16.0238L36.3727 15.8058L36.3946 15.7647V18.2195C36.3946 18.5171 36.1634 18.759 35.8777 18.7635V16.6084ZM16.1199 18.7635C15.8343 18.7591 15.603 18.5171 15.603 18.2195V15.7647L15.7412 16.0238C15.8521 16.2316 15.9801 16.4258 16.1199 16.6084V18.7635ZM16.1994 12.8293V9.89318C16.1994 5.30181 19.7964 1.56653 24.2176 1.56653H27.7799C32.2013 1.56653 35.7982 5.30191 35.7982 9.89318V12.8293C29.3659 11.1016 22.6317 11.1016 16.1994 12.8293ZM17.4275 15.7877C17.4266 15.7868 17.4256 15.7859 17.4246 15.785C17.4025 15.7602 17.3798 15.7359 17.3586 15.7101C17.2464 15.5739 17.1464 15.4249 17.0608 15.2646L16.5708 14.3461C22.7591 12.6828 29.2387 12.6828 35.427 14.3461L34.937 15.2646C34.8352 15.4553 34.712 15.6289 34.5731 15.7851C34.5722 15.786 34.5712 15.7868 34.5703 15.7877C34.2955 16.0958 33.9567 16.3302 33.5854 16.4763C33.5843 16.4768 33.5834 16.4771 33.5824 16.4775C33.5436 16.4927 33.5044 16.5069 33.4649 16.5201C33.4582 16.5223 33.4514 16.5244 33.4447 16.5266C33.3406 16.5607 33.2343 16.5874 33.1266 16.6076C33.1013 16.6123 33.076 16.6171 33.0504 16.6211C33.0274 16.6247 33.0041 16.6277 32.981 16.6306C32.9488 16.6346 32.9164 16.6381 32.8839 16.6409C32.8653 16.6424 32.8467 16.6442 32.8281 16.6455C32.7761 16.6488 32.7239 16.651 32.6713 16.651H19.3266C19.2741 16.651 19.2219 16.6488 19.1698 16.6455C19.1511 16.6443 19.1326 16.6425 19.114 16.6409C19.0815 16.6381 19.0491 16.6346 19.0169 16.6306C18.9938 16.6277 18.9705 16.6247 18.9475 16.6211C18.922 16.6172 18.8967 16.6124 18.8713 16.6076C18.7635 16.5874 18.6572 16.5607 18.5531 16.5266C18.5464 16.5244 18.5397 16.5223 18.533 16.5201C18.4935 16.5068 18.4543 16.4927 18.4154 16.4774C18.4145 16.4771 18.4134 16.4766 18.4125 16.4762C18.0411 16.33 17.7023 16.0958 17.4275 15.7877ZM17.6645 20.7142C17.6633 20.7029 17.6621 20.6915 17.6609 20.6802C17.6514 20.5913 17.6442 20.5026 17.6389 20.4144C17.6382 20.4027 17.6372 20.391 17.6366 20.3793C17.6313 20.281 17.6283 20.1831 17.6283 20.086V17.8327C17.631 17.8339 17.6338 17.835 17.6365 17.8362C17.6961 17.8643 17.7562 17.8909 17.8172 17.916C17.8281 17.9205 17.8391 17.9247 17.8501 17.9292C18.0267 18.0001 18.2084 18.0585 18.3942 18.1036C18.4175 18.1093 18.4407 18.1157 18.464 18.121C18.5074 18.1307 18.5512 18.1388 18.595 18.1471C18.6354 18.1548 18.6758 18.1621 18.7164 18.1685C18.7544 18.1744 18.7924 18.1799 18.8306 18.1847C18.8815 18.1913 18.9327 18.1964 18.984 18.201C19.0145 18.2036 19.045 18.2068 19.0755 18.2088C19.1589 18.2141 19.2425 18.2176 19.3265 18.2176H32.6711C32.755 18.2176 32.8387 18.2141 32.9221 18.2088C32.9527 18.2068 32.9831 18.2036 33.0136 18.201C33.0648 18.1964 33.116 18.1913 33.167 18.1847C33.2052 18.1799 33.2432 18.1745 33.2812 18.1685C33.3218 18.162 33.3622 18.1547 33.4025 18.1471C33.4463 18.1388 33.4901 18.1307 33.5335 18.121C33.5569 18.1157 33.5801 18.1093 33.6034 18.1036C33.7892 18.0585 33.9708 18.0001 34.1473 17.9293C34.1583 17.9248 34.1693 17.9205 34.1804 17.9161C34.2412 17.891 34.3015 17.8644 34.361 17.8365C34.3637 17.8352 34.3665 17.8341 34.3692 17.8329V20.0655C34.3692 20.1627 34.3662 20.2604 34.3609 20.3587C34.3602 20.3715 34.3592 20.3844 34.3583 20.3972C34.3532 20.4836 34.346 20.5703 34.3368 20.6573C34.3354 20.6713 34.3339 20.6854 34.3323 20.6994C33.9848 23.7969 31.1991 27.2958 28.3637 28.028L28.264 28.0538C26.2027 28.5861 25.6809 28.5849 23.6117 28.0431C20.7858 27.3028 18.009 23.8035 17.6645 20.7142ZM19.652 32.9171L21.4451 31.9249C21.9523 31.7244 22.2874 31.2243 22.2874 30.6538L22.2875 29.2309C22.6024 29.3652 22.9214 29.4776 23.2432 29.5618C24.4092 29.8672 25.1794 30.0193 25.9514 30.0193C26.7146 30.0193 27.4793 29.8704 28.6285 29.5736L28.7282 29.5478C29.0588 29.4625 29.3866 29.3479 29.7098 29.2099L29.7099 30.6535C29.7099 31.224 30.045 31.7243 30.5523 31.9248L32.3459 32.9169C28.6606 35.9872 23.3374 35.9876 19.652 32.9171Z" fill="#333333"/>
<path d="M51.9952 50.0811L51.5309 42.5474C51.3195 39.0972 49.1575 36.1245 46.0225 34.9739L43.4835 34.042C43.0906 33.898 42.6597 34.1116 42.521 34.5196C42.3821 34.9274 42.588 35.3749 42.9807 35.5191L45.5198 36.451C48.0839 37.3921 49.8524 39.8241 50.0253 42.6472L50.4897 50.1808C50.5055 50.439 50.4204 50.6849 50.2502 50.8732C50.0806 51.0609 49.851 51.1641 49.6036 51.1641H43.4801V41.3664C43.4801 40.9338 43.1424 40.5831 42.7258 40.5831C42.3092 40.5831 41.9715 40.9338 41.9715 41.3664V51.1641H10.0284V41.3664C10.0284 40.9338 9.6907 40.5831 9.27409 40.5831C8.85748 40.5831 8.51978 40.9338 8.51978 41.3664V51.1641H2.39628C2.14887 51.1641 1.91934 51.0608 1.74973 50.8732C1.57951 50.6848 1.49441 50.4389 1.51025 50.181L1.65487 47.8338C1.68148 47.4022 1.36603 47.0297 0.950336 47.0021C0.534336 46.9755 0.176023 47.3021 0.149414 47.7338L0.00478921 50.0813C-0.0371561 50.7659 0.197961 51.4452 0.649711 51.9451C1.10075 52.4443 1.73744 52.7306 2.39628 52.7306H49.6037C50.2626 52.7306 50.8992 52.4444 51.3503 51.9451C51.802 51.4453 52.0372 50.766 51.9952 50.0811Z" fill="#D33234"/>
<path d="M38.2508 41.0645H33.124C32.1992 41.0645 31.4468 41.8458 31.4468 42.8062V44.2786C31.4468 45.239 32.1992 46.0203 33.124 46.0203H38.2508C39.1756 46.0203 39.928 45.239 39.928 44.2786V42.8062C39.928 41.8458 39.1756 41.0645 38.2508 41.0645ZM38.4194 44.2786C38.4194 44.3752 38.3438 44.4538 38.2508 44.4538H33.124C33.0309 44.4538 32.9553 44.3752 32.9553 44.2786V42.8062C32.9553 42.7096 33.0309 42.631 33.124 42.631H38.2508C38.3438 42.631 38.4194 42.7096 38.4194 42.8062V44.2786Z" fill="#D33234"/>
</svg>
