<svg width="47" height="56" viewBox="0 0 47 56" fill="none" xmlns="http://www.w3.org/2000/svg">
<path d="M40.0533 32.1327H36.5292C36.0249 32.1327 35.6161 32.5415 35.6161 33.0457C35.6161 33.55 36.0249 33.9588 36.5292 33.9588H40.0546C39.8364 37.985 38.1658 41.8824 35.2103 44.838C32.1925 47.8557 28.2932 49.4681 24.3311 49.6775V46.1379C24.3311 45.6337 23.9223 45.2249 23.418 45.2249C22.9138 45.2249 22.505 45.6337 22.505 46.1379V49.6747C18.5513 49.4536 14.6597 47.836 11.6439 44.82C8.62814 41.8039 7.01026 37.9126 6.78922 33.9589H10.307C10.8113 33.9589 11.2201 33.5501 11.2201 33.0458C11.2201 32.5416 10.8113 32.1328 10.307 32.1328H6.78637C6.99572 28.1706 8.60823 24.2713 11.626 21.2536C14.6438 18.2358 18.543 16.6235 22.5052 16.4139V20.3178C22.5052 20.822 22.914 21.2308 23.4183 21.2308C23.9225 21.2308 24.3313 20.822 24.3313 20.3178V16.4169C28.285 16.6379 32.1766 18.2558 35.1925 21.2716C35.549 21.6282 36.1272 21.6282 36.4837 21.2716C36.8402 20.9151 36.8402 20.3369 36.4837 19.9804C29.2695 12.7663 17.5391 12.758 10.3348 19.9624C6.78101 23.5162 4.98355 28.1713 4.93903 32.8423C4.92405 32.9078 4.91541 32.9757 4.91541 33.0458C4.91541 33.1168 4.92426 33.1855 4.93958 33.2518C4.99744 37.9136 6.80125 42.5597 10.3529 46.1112C13.9636 49.7219 18.7044 51.5275 23.444 51.5272C28.1742 51.5269 32.9033 49.7278 36.5018 46.1293C39.9866 42.6445 41.8621 37.9803 41.9044 33.2184C41.9151 33.1624 41.9212 33.1048 41.9212 33.0458C41.9212 32.9894 41.9154 32.9342 41.9055 32.8805C41.8851 30.7111 41.4847 28.5267 40.6797 26.4295C40.499 25.9588 39.971 25.7238 39.5001 25.9043C39.0294 26.085 38.7943 26.6132 38.9749 27.0839C39.6053 28.7277 39.959 30.4307 40.0533 32.1327Z" fill="#D33234"/>
<path d="M43.3266 16.4906C43.505 16.6694 43.739 16.7589 43.973 16.7589C44.2059 16.7589 44.4387 16.6704 44.6169 16.4932L46.5819 14.5389C46.7539 14.3679 46.8508 14.1357 46.8511 13.8934C46.8516 13.651 46.7556 13.4183 46.5845 13.2467L44.1545 10.8104C43.7985 10.4535 43.2204 10.4526 42.8633 10.8087C42.5062 11.1648 42.5055 11.7429 42.8615 12.0998L44.6459 13.8888L43.9756 14.5554L39.884 10.4533L40.5542 9.78666L40.7146 9.94744C41.0706 10.3043 41.6487 10.3052 42.0058 9.94919C42.3629 9.59306 42.3636 9.01491 42.0075 8.65802L41.2032 7.85159C40.8475 7.49492 40.2701 7.49383 39.9129 7.84908L37.9478 9.80328C37.7758 9.97423 37.6789 10.2064 37.6786 10.4488C37.6782 10.6912 37.7741 10.9238 37.9453 11.0954L39.0116 12.1646L36.7835 14.3805C34.2001 12.5308 31.219 11.2019 27.995 10.549V5.86119H30.9966C31.5008 5.86119 31.9096 5.45234 31.9096 4.94813V0.913062C31.9096 0.408844 31.5008 0 30.9966 0H15.8431C15.3389 0 14.93 0.408844 14.93 0.913062V4.94823C14.93 5.45245 15.3389 5.8613 15.8431 5.8613H18.8448V7.4702C18.8448 7.97442 19.2536 8.38327 19.7578 8.38327C20.262 8.38327 20.6709 7.97442 20.6709 7.4702V5.8613H26.1692V10.2565C25.2675 10.1487 24.3504 10.0917 23.42 10.0917C18.4426 10.0917 13.83 11.6804 10.0628 14.3757L7.83945 12.1646L8.90575 11.0954C9.07692 10.9238 9.17284 10.6913 9.17241 10.4488C9.17197 10.2064 9.07517 9.97423 8.90324 9.80328L6.9382 7.84908C6.5811 7.49394 6.0037 7.49492 5.64791 7.85159L4.84356 8.65802C4.48744 9.01512 4.4882 9.59306 4.84531 9.94919C5.2022 10.3053 5.78036 10.3045 6.13649 9.94744L6.29694 9.78666L6.96708 10.4533L2.87547 14.5554L2.20522 13.8888L3.98956 12.0998C4.34569 11.7427 4.34492 11.1648 3.98781 10.8087C3.6307 10.4524 3.05266 10.4532 2.69664 10.8104L0.266658 13.2467C0.0954858 13.4183 -0.00043601 13.6509 1.49003e-06 13.8934C0.00043899 14.1357 0.0972357 14.3679 0.269173 14.5389L2.2342 16.4932C2.41227 16.6704 2.64513 16.7589 2.8781 16.7589C3.11205 16.7589 3.34622 16.6694 3.5245 16.4906L4.59266 15.4197L6.60122 17.4174C2.77714 21.5184 0.433673 27.0137 0.433673 33.046C0.433783 45.7028 10.7453 56 23.4199 56C36.0945 56 46.4061 45.7028 46.4061 33.0458C46.4061 27.0163 44.0648 21.5235 40.2439 17.423L42.2583 15.4196L43.3266 16.4906ZM19.7578 4.03517H16.7561V1.82612H30.0838V4.03517H27.0822H19.7578ZM5.8951 14.1393L6.56261 13.47L8.60989 15.5062C8.36839 15.7099 8.13072 15.9179 7.89786 16.1312L5.8951 14.1393ZM44.58 33.0458C44.58 44.6959 35.0877 54.1739 23.4199 54.1739C11.7521 54.1739 2.25991 44.6959 2.25991 33.0458C2.25991 21.3957 11.7522 11.9177 23.42 11.9177C35.0878 11.9177 44.58 21.3958 44.58 33.0458ZM38.9478 16.1367C38.715 15.9235 38.4775 15.7153 38.2361 15.5115L40.2885 13.4701L40.956 14.1395L38.9478 16.1367Z" fill="#333333"/>
<path d="M23.4186 23.832C22.9143 23.832 22.5055 24.2409 22.5055 24.7451V33.0456C22.5055 33.4148 22.7277 33.7476 23.0688 33.889C23.1819 33.9359 23.3005 33.9586 23.4183 33.9586C23.6557 33.9586 23.8891 33.866 24.0636 33.6916L27.9728 29.7881C28.3296 29.4317 28.3302 28.8537 27.9738 28.4969C27.6175 28.14 27.0393 28.1395 26.6826 28.4959L24.3316 30.8435V24.7451C24.3316 24.2409 23.9229 23.832 23.4186 23.832Z" fill="#333333"/>
</svg>
