<svg width="29" height="58" viewBox="0 0 29 58" fill="none" xmlns="http://www.w3.org/2000/svg">
<path d="M18.125 38.6665V44.7082C18.125 45.3728 17.5813 45.9165 16.9167 45.9165H12.0833C11.4188 45.9165 10.875 45.3728 10.875 44.7082V38.6665" stroke="#333333" stroke-width="2" stroke-miterlimit="10"/>
<path d="M14.5 45.9165V57.9998" stroke="#333333" stroke-width="2" stroke-miterlimit="10"/>
<path d="M3.625 58V55.5833C3.625 54.9188 4.16875 54.375 4.83333 54.375H24.1667C24.8313 54.375 25.375 54.9188 25.375 55.5833V58" stroke="#333333" stroke-width="2" stroke-miterlimit="10"/>
<path d="M26.5833 38.6667H2.41667C1.75209 38.6667 1.20834 38.1229 1.20834 37.4583V36.25C1.20834 34.2442 2.8275 32.625 4.83334 32.625H24.1667C26.1725 32.625 27.7917 34.2442 27.7917 36.25V37.4583C27.7917 38.1229 27.2479 38.6667 26.5833 38.6667Z" stroke="#D33234" stroke-width="2" stroke-miterlimit="10"/>
<path d="M14.5 1.20825C21.8467 1.20825 27.7917 2.58575 27.7917 8.10783C27.7917 13.6299 26.5833 21.7499 24.8433 25.7253C22.62 30.7762 20.2154 32.6249 14.5 32.6249C8.78459 32.6249 6.38 30.7762 4.15667 25.7253C2.41667 21.7499 1.20834 13.642 1.20834 8.10783C1.20834 2.57367 7.15334 1.20825 14.5 1.20825Z" stroke="#D33234" stroke-width="2" stroke-miterlimit="10"/>
</svg>
