<svg width="67" height="58" viewBox="0 0 67 58" fill="none" xmlns="http://www.w3.org/2000/svg">
<path d="M31.0001 6.90479H62.1429C63.662 6.90479 64.9048 8.14764 64.9048 9.66669V45.5714C64.9048 47.0905 63.662 48.3334 62.1429 48.3334H11.0477C9.52862 48.3334 8.28577 47.0905 8.28577 45.5714V9.66669C8.28577 8.14764 9.52862 6.90479 11.0477 6.90479H14.5001" stroke="#333333" stroke-width="2" stroke-miterlimit="10" stroke-linejoin="round"/>
<path d="M27.6191 42.8094H17.9525C16.4334 42.8094 15.1906 41.5666 15.1906 40.0475V4.14276C15.1906 2.62372 16.4334 1.38086 17.9525 1.38086H27.6191C29.1382 1.38086 30.381 2.62372 30.381 4.14276V40.0475C30.381 41.5666 29.1382 42.8094 27.6191 42.8094Z" stroke="#D33234" stroke-width="2" stroke-miterlimit="10" stroke-linejoin="round"/>
<path d="M22.0953 42.8097V52.4763C22.0953 54.7687 20.2448 56.6192 17.9524 56.6192H5.52384C3.23146 56.6192 1.38098 54.7687 1.38098 52.4763V45.5716C1.38098 43.2792 3.23146 41.4287 5.52384 41.4287H7.50012" stroke="#D33234" stroke-width="2" stroke-miterlimit="10" stroke-linejoin="round"/>
<path d="M37.2858 17.9521H58.0001" stroke="#333333" stroke-width="2" stroke-miterlimit="10" stroke-linejoin="round"/>
<path d="M38.6667 24.8569H42.8096" stroke="#333333" stroke-width="2" stroke-miterlimit="10" stroke-linejoin="round"/>
<path d="M45.5714 24.8569H49.7143" stroke="#333333" stroke-width="2" stroke-miterlimit="10" stroke-linejoin="round"/>
<path d="M52.4762 24.8569H56.6191" stroke="#333333" stroke-width="2" stroke-miterlimit="10" stroke-linejoin="round"/>
<path d="M38.6667 30.3809H42.8096" stroke="#333333" stroke-width="2" stroke-miterlimit="10" stroke-linejoin="round"/>
<path d="M45.5714 30.3809H49.7143" stroke="#333333" stroke-width="2" stroke-miterlimit="10" stroke-linejoin="round"/>
<path d="M52.4762 30.3809H56.6191" stroke="#333333" stroke-width="2" stroke-miterlimit="10" stroke-linejoin="round"/>
<path d="M38.6667 35.9048H42.8096" stroke="#333333" stroke-width="2" stroke-miterlimit="10" stroke-linejoin="round"/>
<path d="M45.5714 35.9048H49.7143" stroke="#333333" stroke-width="2" stroke-miterlimit="10" stroke-linejoin="round"/>
<path d="M52.4762 35.9048H56.6191" stroke="#333333" stroke-width="2" stroke-miterlimit="10" stroke-linejoin="round"/>
</svg>
