<svg width="45" height="58" viewBox="0 0 45 58" fill="none" xmlns="http://www.w3.org/2000/svg">
<path d="M24.1667 10.875L15.7084 19.3333L12.0834 15.7083L8.45837 19.3333L15.7084 26.5833L27.7917 14.5L24.1667 10.875Z" stroke="#D33234" stroke-width="2" stroke-miterlimit="10" stroke-linejoin="round"/>
<path d="M20.5462 34.8696C19.7563 34.9829 18.9467 35.0418 18.125 35.0418C8.7816 35.0418 1.20837 27.4686 1.20837 18.1252C1.20837 8.78173 8.7816 1.2085 18.125 1.2085C27.4685 1.2085 35.0417 8.78173 35.0417 18.1252C35.0417 21.2064 34.2185 24.0958 32.7776 26.5835" stroke="#333333" stroke-width="2" stroke-miterlimit="10" stroke-linecap="round" stroke-linejoin="round"/>
<path d="M29 33.8335H31.4167C32.1779 33.8335 33.3711 34.3168 33.8333 35.0418H36.25C37.3828 35.0418 38.6667 36.0991 38.6667 37.4585H41.0833C42.2161 37.4585 43.5 38.5158 43.5 39.8752V51.9585C43.5 54.4039 41.0833 56.3719 41.0833 58.0002" stroke="#333333" stroke-width="2" stroke-miterlimit="10"/>
<path d="M33.8334 35.042V41.0837" stroke="#333333" stroke-width="2" stroke-miterlimit="10"/>
<path d="M38.6667 37.4585V42.2918" stroke="#333333" stroke-width="2" stroke-miterlimit="10"/>
<path d="M29.0001 41.0838V26.5838C29.0122 25.2486 27.9186 24.1792 26.5834 24.1671C25.2482 24.155 24.1773 25.2093 24.1652 26.5445C24.1652 26.5445 24.1667 41.0656 24.1667 45.0048C24.1667 45.3356 23.7544 45.4881 23.5354 45.2404C22.6684 44.2572 20.7472 42.0671 19.3334 41.0838C18.4347 40.4585 17.2022 40.4101 16.2068 40.8799C14.8052 41.5414 14.5152 43.4007 15.5528 44.5517C18.6749 48.0151 19.7805 52.6581 22.9584 55.5838C24.2302 56.8555 24.1667 57.3208 24.1667 58.0004" stroke="#333333" stroke-width="2" stroke-miterlimit="10"/>
</svg>
