<svg width="65" height="58" viewBox="0 0 65 58" fill="none" xmlns="http://www.w3.org/2000/svg">
<path d="M17.5349 40.4649C14.3466 40.4649 12.1396 37.8769 12.1396 34.6852V32.758C12.1396 29.5646 14.3466 26.9766 17.5349 26.9766C20.7232 26.9766 22.9303 29.5646 22.9303 32.7563V34.6835C22.9303 37.8769 20.7232 40.4649 17.5349 40.4649Z" stroke="#333333" stroke-width="2" stroke-miterlimit="10"/>
<path d="M5.39536 56.6509L8.09303 45.8602C8.90739 42.4881 10.5209 40.4648 13.4884 40.4648H14.9603C15.7393 40.4648 16.4811 40.8021 16.9937 41.3888L25.6026 51.2555H33.6956C33.6956 51.2555 34.2993 56.6509 29.6491 56.6509C26.938 56.6509 21.5814 56.6509 21.5814 56.6509L14.8372 49.9067" stroke="#333333" stroke-width="2" stroke-miterlimit="10" stroke-linecap="round"/>
<path d="M26.9767 47.209L32.3721 37.7671H56.6512L48.5581 52.6043H36.4186" stroke="#333333" stroke-width="2" stroke-miterlimit="10" stroke-linejoin="round"/>
<path d="M16.1861 56.6509H56.6512" stroke="#333333" stroke-width="2" stroke-miterlimit="10" stroke-linecap="round" stroke-linejoin="round"/>
<path d="M3.87792 45.8603H1.34885V1.34863H63.3954V45.8603H57.7471" stroke="#333333" stroke-width="2" stroke-miterlimit="10" stroke-linecap="round" stroke-linejoin="round"/>
<path d="M33.8627 13.4067V23.1728" stroke="#D33234" stroke-width="2" stroke-miterlimit="10" stroke-linejoin="round"/>
<path d="M31.828 15.8482L33.8626 13.4067L35.8972 15.8482" stroke="#D33234" stroke-width="2" stroke-miterlimit="10" stroke-linejoin="round"/>
<path d="M25.4069 28.0559L33.8627 23.1729" stroke="#D33234" stroke-width="2" stroke-miterlimit="10" stroke-linejoin="round"/>
<path d="M28.5402 28.5971L25.4069 28.0559L26.5056 25.0732" stroke="#D33234" stroke-width="2" stroke-miterlimit="10" stroke-linejoin="round"/>
<path d="M42.3225 28.0559L33.8627 23.1729" stroke="#D33234" stroke-width="2" stroke-miterlimit="10" stroke-linejoin="round"/>
<path d="M39.1892 28.5971L42.3225 28.0559L41.2238 25.0732" stroke="#D33234" stroke-width="2" stroke-miterlimit="10" stroke-linejoin="round"/>
</svg>
