<svg width="62" height="58" viewBox="0 0 62 58" fill="none" xmlns="http://www.w3.org/2000/svg">
<path d="M19.3334 18.0444C12.889 18.0444 7.7334 21.5196 7.7334 25.7778V39.9556" stroke="#333333" stroke-width="2" stroke-miterlimit="10" stroke-linecap="round" stroke-linejoin="round"/>
<path d="M19.3334 14.178C22.3381 14.178 24.489 12.0722 24.489 9.0224V6.44462C24.489 3.39478 22.3381 1.28906 19.3334 1.28906C16.3287 1.28906 14.1779 3.39478 14.1779 6.44462V9.0224C14.1779 12.0722 16.3287 14.178 19.3334 14.178Z" stroke="#333333" stroke-width="2" stroke-miterlimit="10" stroke-linejoin="round"/>
<path d="M12.8889 27.0669V39.9558" stroke="#333333" stroke-width="2" stroke-miterlimit="10" stroke-linecap="round" stroke-linejoin="round"/>
<path d="M19.3334 18.0444C25.7778 18.0444 30.9334 21.5196 30.9334 25.7778V34.8C30.9334 37.6468 28.6247 39.9556 25.7778 39.9556" stroke="#333333" stroke-width="2" stroke-miterlimit="10" stroke-linecap="round" stroke-linejoin="round"/>
<path d="M25.7778 27.0669V56.7113" stroke="#333333" stroke-width="2" stroke-miterlimit="10" stroke-linecap="round" stroke-linejoin="round"/>
<path d="M12.8889 51.5557V56.7112" stroke="#333333" stroke-width="2" stroke-miterlimit="10" stroke-linecap="round" stroke-linejoin="round"/>
<path d="M20.6223 39.9556V56.7111" stroke="#333333" stroke-width="2" stroke-miterlimit="10" stroke-linecap="round" stroke-linejoin="round"/>
<path d="M15.4667 39.9556H1.28894V51.5556H15.4667V39.9556Z" stroke="#333333" stroke-width="2" stroke-miterlimit="10" stroke-linejoin="round"/>
<path d="M50.2667 19.3335L42.5334 27.0668L38.6667 23.2002L34.8 27.0668L42.5334 34.8002L54.1334 23.2002L50.2667 19.3335Z" stroke="#D33234" stroke-width="2" stroke-miterlimit="10" stroke-linejoin="round"/>
<path d="M28.6989 16.7703C31.818 12.0997 37.1395 9.02246 43.1779 9.02246C52.7882 9.02246 60.5779 16.8122 60.5779 26.4225C60.5779 36.0327 52.7882 43.8225 43.1779 43.8225C39.2081 43.8225 35.5493 42.4933 32.6219 40.2555" stroke="#333333" stroke-width="2" stroke-miterlimit="10" stroke-linejoin="round"/>
</svg>
