<svg width="48" height="52" viewBox="0 0 48 52" fill="none" xmlns="http://www.w3.org/2000/svg">
<path d="M35.9644 51.6848C35.636 51.6848 35.3349 51.4736 35.2248 51.164C35.1164 50.8601 35.2079 50.5087 35.4556 50.3003C35.7146 50.0824 36.0906 50.055 36.3788 50.2324C36.6461 50.3973 36.7898 50.718 36.7391 51.0277C36.6777 51.4021 36.3432 51.6848 35.9644 51.6848V51.6848Z" fill="#333333"/>
<path d="M24.1422 45.714C23.7082 45.714 23.3564 45.3622 23.3564 44.9282V28.4166C23.3564 27.9826 23.7082 27.6309 24.1422 27.6309C24.5761 27.6309 24.9279 27.9826 24.9279 28.4166V44.9282C24.9279 45.3622 24.5761 45.714 24.1422 45.714Z" fill="#333333"/>
<path d="M46.8751 27.5925H33.4364V20.1888C33.4364 19.7548 33.0847 19.4031 32.6507 19.4031H15.0102C14.5762 19.4031 14.2244 19.7548 14.2244 20.1888V33.9314H0.785727C0.351736 33.9314 0 34.2831 0 34.7171V50.8994C0 51.3334 0.351736 51.6851 0.785727 51.6851H37.7339C38.1679 51.6851 38.5197 51.3334 38.5197 50.8994C38.5197 50.4654 38.1679 50.1137 37.7339 50.1137H33.4364V29.1639H46.0894V50.8994C46.0894 51.3334 46.4411 51.6851 46.8751 51.6851C47.3091 51.6851 47.6608 51.3334 47.6608 50.8994V28.3782C47.6608 27.9442 47.3091 27.5925 46.8751 27.5925ZM1.57145 35.5028H14.2244V50.1137H1.57145V35.5028ZM15.7959 20.9745H31.8649V50.1134H15.7959V20.9745Z" fill="#333333"/>
<path d="M8.10354 29.3604C7.93504 29.3604 7.76531 29.3273 7.60325 29.2601L6.31509 28.7263L5.02662 29.2601C4.60552 29.4347 4.13347 29.3788 3.76455 29.1109C3.39532 28.8426 3.19643 28.4111 3.23234 27.9565L3.34222 26.5662L2.43618 25.5058C2.13969 25.1589 2.047 24.693 2.18788 24.2593C2.32906 23.8253 2.67773 23.5028 3.12154 23.3966L4.47753 23.0712L5.20617 21.8819C5.44435 21.493 5.859 21.261 6.31509 21.261C6.77118 21.261 7.18584 21.493 7.42401 21.8819L8.15234 23.0712L9.50864 23.3966C9.95215 23.5028 10.3011 23.8253 10.442 24.2593C10.5829 24.693 10.4902 25.1589 10.194 25.5058L9.28827 26.5662L9.39784 27.9565C9.43375 28.4111 9.23487 28.8426 8.86564 29.1109C8.63851 29.2757 8.37241 29.3604 8.10354 29.3604ZM3.91832 24.8213L4.74824 25.793C4.88359 25.9514 4.9505 26.1574 4.93424 26.3651L4.83357 27.6389L6.014 27.1496C6.20675 27.0698 6.42313 27.0698 6.61557 27.1496L7.796 27.6389L7.69564 26.3651C7.67937 26.1574 7.74628 25.9514 7.88163 25.793L8.71156 24.8213L7.46913 24.5233C7.26625 24.4748 7.0913 24.3474 6.98235 24.1697L6.31478 23.0801L5.64753 24.1697C5.53857 24.3474 5.36332 24.4748 5.16075 24.5233L3.91832 24.8213ZM9.14187 24.9247H9.14248H9.14187Z" fill="#D33234"/>
<path d="M38.4995 22.9905C38.2304 22.9905 37.9643 22.9058 37.7371 22.741C37.3682 22.4728 37.1693 22.0412 37.2052 21.5867L37.3148 20.1963L36.4091 19.1362C36.1126 18.7891 36.0199 18.3231 36.1611 17.8895C36.302 17.4555 36.6509 17.1329 37.0944 17.0267L38.4504 16.7014L39.1791 15.512C39.4172 15.1231 39.8319 14.8911 40.2877 14.8911C40.7441 14.8908 41.1584 15.1231 41.3969 15.512V15.5123L42.1255 16.7014L43.4815 17.0267C43.925 17.1332 44.274 17.4558 44.4149 17.8895C44.5561 18.3235 44.4631 18.7894 44.1669 19.1362L43.2612 20.1963L43.3707 21.5867C43.4066 22.0415 43.2078 22.4731 42.8388 22.741C42.4696 23.009 41.9979 23.0648 41.5765 22.8902L40.288 22.3564L38.9998 22.8902C38.8375 22.9574 38.6677 22.9905 38.4995 22.9905ZM40.2877 20.7199C40.3902 20.7199 40.4924 20.7399 40.5885 20.7798L41.7692 21.269L41.6685 19.9953C41.6523 19.7875 41.7192 19.5815 41.8545 19.4232L42.6844 18.4514L41.442 18.1534C41.2391 18.1049 41.0642 17.9775 40.9552 17.7998L40.2877 16.7099L39.6204 17.7998C39.5115 17.9775 39.3365 18.1049 39.1336 18.1534L37.8909 18.4514L38.7211 19.4229C38.8565 19.5815 38.9234 19.7872 38.9071 19.9953L38.8065 21.269L39.9869 20.7798C40.0833 20.7399 40.1855 20.7199 40.2877 20.7199V20.7199Z" fill="#D33234"/>
<path d="M20.6074 13.0396C20.2581 13.0396 19.9128 12.9297 19.6181 12.7158C19.1393 12.3677 18.8812 11.8076 18.9276 11.2174L19.139 8.5367L17.3923 6.49228C17.0077 6.04202 16.8874 5.43738 17.0704 4.87417C17.2533 4.31127 17.706 3.89263 18.2818 3.75451L20.8968 3.12716L22.3013 0.834123C22.6107 0.329232 23.1487 0.027832 23.7408 0.027832C24.3325 0.027832 24.8708 0.329232 25.1799 0.834123L26.5844 3.12716L29.1994 3.75451C29.7752 3.89263 30.2282 4.31127 30.4111 4.87417C30.5941 5.43738 30.4735 6.04202 30.0889 6.49228L28.3422 8.5367L28.5536 11.2174C28.6003 11.8076 28.3422 12.3677 27.8631 12.7155C27.3843 13.0635 26.7716 13.136 26.2247 12.9095L23.7408 11.88L21.2565 12.9095C21.046 12.9966 20.8259 13.0396 20.6074 13.0396V13.0396ZM23.7408 1.59929C23.6757 1.59929 23.6499 1.64103 23.6413 1.65484L22.0668 4.22564C21.9578 4.40335 21.7829 4.53072 21.58 4.57922L18.6486 5.28269C18.6326 5.28637 18.585 5.29773 18.5648 5.35973C18.5448 5.42173 18.5764 5.45917 18.5872 5.47145L20.5454 7.76325C20.681 7.92193 20.7476 8.12788 20.7314 8.33567L20.4941 11.3411C20.4929 11.357 20.4892 11.4061 20.542 11.4445C20.5948 11.4829 20.6399 11.4638 20.6549 11.4577L23.44 10.3034C23.6327 10.2236 23.8488 10.2236 24.0415 10.3034L26.8266 11.4577C26.8416 11.4638 26.8867 11.4829 26.9395 11.4445C26.9923 11.4061 26.9886 11.357 26.9871 11.3411L26.7501 8.33567C26.7336 8.12788 26.8005 7.92193 26.9358 7.76325L28.8943 5.47145C28.9048 5.45917 28.9367 5.42173 28.9164 5.35973C28.8965 5.29773 28.8486 5.28637 28.8329 5.28269L25.9012 4.57922C25.6986 4.53072 25.5234 4.40335 25.4147 4.22564L23.8399 1.65484C23.8316 1.64103 23.8058 1.59929 23.7408 1.59929V1.59929Z" fill="#D33234"/>
</svg>
