<svg width="58" height="59" viewBox="0 0 58 59" fill="none" xmlns="http://www.w3.org/2000/svg">
<path d="M35.3942 11.276L35.2518 11.1824C34.8863 10.9433 34.7675 10.4227 34.9861 10.0189C35.135 9.74314 35.4025 9.59316 35.6738 9.60135C35.7997 9.60515 35.9271 9.64308 36.0433 9.71875L36.1858 9.8128C36.5508 10.0514 36.6701 10.5725 36.4515 10.9763C36.2328 11.3805 35.7593 11.5145 35.3942 11.276Z" fill="#D33234"/>
<path d="M42.4873 15.621L38.7386 13.3993C38.3731 13.1608 38.2539 12.6396 38.4729 12.2354C38.6218 11.9601 38.8893 11.8102 39.1606 11.8183C39.2866 11.8221 39.4139 11.8601 39.5297 11.9357L43.2788 14.1578C43.6439 14.3964 43.7631 14.9171 43.5445 15.3213C43.3259 15.7255 42.8524 15.8595 42.4873 15.621Z" fill="#D33234"/>
<path d="M22.5061 47.5956L22.6486 47.6892C23.0141 47.9282 23.1329 48.4489 22.9143 48.8527C22.7654 49.1284 22.4979 49.2784 22.2266 49.2702C22.1006 49.2664 21.9733 49.2285 21.8571 49.1528L21.7146 49.0588C21.3495 48.8202 21.2303 48.2991 21.4489 47.8953C21.6675 47.4911 22.1411 47.357 22.5061 47.5956Z" fill="#D33234"/>
<path d="M15.4131 43.2506L19.1618 45.4722C19.5273 45.7108 19.6465 46.2319 19.4275 46.6362C19.2786 46.9115 19.011 47.0614 18.7398 47.0532C18.6138 47.0494 18.4865 47.0115 18.3707 46.9359L14.6216 44.7138C14.2565 44.4752 14.1373 43.9545 14.3559 43.5503C14.5745 43.1461 15.048 43.012 15.4131 43.2506Z" fill="#D33234"/>
<path fill-rule="evenodd" clip-rule="evenodd" d="M54 16.3063C54 16.1501 53.9587 15.9939 53.8848 15.8611C53.8166 15.739 53.7166 15.6324 53.6026 15.5629L43.4371 9.35454C43.3187 9.28241 43.1903 9.24789 43.0642 9.24789C42.7929 9.24789 42.5299 9.40587 42.3895 9.68597C42.1831 10.0966 42.3176 10.6135 42.6901 10.8409L51.504 16.224L44.3134 19.7592L29.7705 10.8776V2.95105L39.6353 8.97575C40.0079 9.2032 40.4771 9.05452 40.683 8.64432C40.8894 8.23367 40.7549 7.71683 40.3824 7.48938L29.3735 0.765518C29.1447 0.625687 28.8553 0.625687 28.6265 0.765518L18.1295 7.17609C17.7574 7.40353 17.6225 7.92082 17.8288 8.33102C18.0352 8.74167 18.5044 8.88991 18.8765 8.66246L28.2291 2.95105V10.8776L13.6862 19.7592L6.49565 16.224L15.8197 10.5294C16.1918 10.3024 16.3267 9.7851 16.1204 9.37445C15.9141 8.96425 15.4452 8.81601 15.0727 9.04301L4.39745 15.5629C4.1562 15.7102 4.00005 16.0027 4.00005 16.3063V43.0053C3.99684 43.3132 4.15259 43.6093 4.39745 43.7584L28.6265 58.5558C28.8565 58.6956 29.1435 58.6956 29.3735 58.5558L53.6026 43.7584C53.8434 43.6115 54 43.3186 54 43.0154V27.4804C54 27.0109 53.6548 26.6308 53.2289 26.6308C52.8034 26.6308 52.4582 27.0109 52.4582 27.4804V41.5733L45.0468 37.0469V21.2592L52.4582 17.6152V23.7806C52.4582 24.2501 52.8034 24.6302 53.2289 24.6302C53.6548 24.6302 54 24.2501 54 23.7806V16.3063ZM42.6857 37.5474L28.9998 45.9059L15.3144 37.5474L14.4947 36.1053V21.2084L28.2291 12.8202H29.7705L43.5054 21.2084V36.1053L42.6857 37.5474ZM29.7705 47.3777L44.2761 38.5187L51.6385 43.0154L29.7705 56.3707V47.3777ZM13.7239 38.5187L28.2291 47.3777V56.3707L6.36118 43.0154L13.7239 38.5187ZM12.9528 37.0469L5.54149 41.5733V17.6152L12.9528 21.2592V37.0469Z" fill="#333333"/>
<path d="M23.3076 28.6089C23.3076 28.2464 23.6014 27.9526 23.9639 27.9526H24.3193C24.8298 27.9481 25.2331 27.8159 25.5293 27.5562C25.8301 27.2964 25.9805 26.9204 25.9805 26.4282C25.9805 25.9543 25.8551 25.5874 25.6045 25.3276C25.3584 25.0633 24.9801 24.9312 24.4697 24.9312C24.0231 24.9312 23.6562 25.061 23.3691 25.3208C23.2926 25.3889 23.2262 25.4626 23.17 25.5421C22.9052 25.9166 22.5666 26.3257 22.1079 26.3257C21.6492 26.3257 21.2613 25.9442 21.4047 25.5085C21.4709 25.3073 21.5629 25.1148 21.6807 24.9312C21.9541 24.5119 22.3324 24.186 22.8154 23.9536C23.3031 23.7166 23.8477 23.5981 24.4492 23.5981C25.4427 23.5981 26.222 23.8488 26.7871 24.3501C27.3568 24.8468 27.6416 25.5396 27.6416 26.4282C27.6416 26.8748 27.498 27.2964 27.2109 27.6929C26.9284 28.0848 26.5615 28.381 26.1104 28.5815C26.6572 28.7684 27.0719 29.0623 27.3545 29.4634C27.6416 29.8644 27.7852 30.3429 27.7852 30.8989C27.7852 31.7922 27.4775 32.5031 26.8623 33.0317C26.2516 33.5604 25.4473 33.8247 24.4492 33.8247C23.4922 33.8247 22.7083 33.5695 22.0977 33.0591C21.6986 32.7255 21.4299 32.32 21.2916 31.8425C21.1641 31.4019 21.5535 31.022 22.0122 31.022C22.4709 31.022 22.8102 31.4251 23.0533 31.814C23.1153 31.9132 23.1909 32.0046 23.2803 32.0884C23.5765 32.3618 23.973 32.4985 24.4697 32.4985C24.9847 32.4985 25.3903 32.3618 25.6865 32.0884C25.9827 31.8149 26.1309 31.4185 26.1309 30.8989C26.1309 30.3748 25.9759 29.9715 25.666 29.689C25.3561 29.4064 24.8958 29.2651 24.2852 29.2651H23.9639C23.6014 29.2651 23.3076 28.9713 23.3076 28.6089Z" fill="#D33234"/>
<path d="M30.6104 33.688C30.0581 33.688 29.6104 33.2403 29.6104 32.688V24.7349C29.6104 24.1826 30.0581 23.7349 30.6104 23.7349H32.5498C33.4294 23.7349 34.2087 23.9308 34.8877 24.3228C35.5713 24.7147 36.0999 25.2707 36.4736 25.9907C36.8473 26.7108 37.0342 27.5356 37.0342 28.4653V28.9644C37.0342 29.9077 36.8451 30.7371 36.4668 31.4526C36.0931 32.1681 35.5576 32.7196 34.8604 33.1069C34.1676 33.4943 33.3724 33.688 32.4746 33.688H30.6104ZM31.3398 25.1294V32.3071H32.4678C33.3747 32.3071 34.0697 32.0246 34.5527 31.4595C35.0404 30.8898 35.2887 30.0741 35.2979 29.0122V28.4585C35.2979 27.3784 35.0632 26.5535 34.5938 25.9839C34.1243 25.4142 33.443 25.1294 32.5498 25.1294H31.3398Z" fill="#D33234"/>
</svg>
