<svg width="22" height="23" viewBox="0 0 22 23" fill="none" xmlns="http://www.w3.org/2000/svg">
<path d="M20.9935 6.02778C21.0246 6.08042 21.042 6.14236 21.042 6.20431V9.16827C21.042 9.35445 20.8967 9.50519 20.7174 9.50519C20.5384 9.50519 20.3931 9.35445 20.3931 9.16827V6.72337L17.2741 8.16841V14.429L20.3931 16.224V10.6354C20.3931 10.4492 20.5384 10.2985 20.7174 10.2985C20.8967 10.2985 21.042 10.4492 21.042 10.6354V16.7959C21.042 16.9161 20.9761 17.0322 20.8747 17.0905L10.6782 22.9584C10.5814 23.0139 10.4606 23.0139 10.3638 22.9584L0.167263 17.0905C0.0642145 17.0314 -0.00133094 16.914 2.05069e-05 16.7918V6.20431C2.05069e-05 6.08393 0.0657348 5.96794 0.167263 5.90951L4.65983 3.32404C4.81659 3.23402 5.01391 3.29281 5.10074 3.45547C5.18757 3.61832 5.13081 3.82345 4.97421 3.91347L1.05027 6.17167L4.07634 7.57355L10.1966 4.05157V0.908264L6.26062 3.17313C6.10402 3.26333 5.90654 3.20454 5.81971 3.0417C5.73288 2.87904 5.78964 2.6739 5.94624 2.58371L10.3638 0.0415878C10.4601 -0.0138626 10.5819 -0.0138626 10.6782 0.0415878L15.3111 2.70795C15.4679 2.79814 15.5245 3.0031 15.4377 3.16594C15.351 3.32861 15.1535 3.38757 14.9967 3.29737L10.8453 0.908264V4.05157L16.9655 7.57355L19.9915 6.17167L16.2823 4.037C16.1255 3.94681 16.0689 3.74185 16.1558 3.57901C16.2149 3.46793 16.3256 3.40529 16.4398 3.40529C16.4928 3.40529 16.5469 3.41898 16.5967 3.44758L20.8747 5.90951C20.9227 5.93706 20.9648 5.97935 20.9935 6.02778ZM10.5209 17.9421L16.2805 14.6275L10.5209 11.3131L4.76152 14.6275L10.5209 17.9421ZM16.9498 15.0127L10.8453 18.5257V22.0919L20.0481 16.7959L16.9498 15.0127ZM10.1966 18.5257L4.09222 15.0127L0.993675 16.7959L10.1966 22.0919V18.5257ZM0.648717 16.224L3.7677 14.429V8.16841L0.648717 6.72337V16.224ZM4.41656 14.0556L6.77096 12.7008L10.1966 10.7293V4.82191L4.41656 8.14823V14.0556ZM10.8453 10.7293L16.6254 14.0556V8.14823L10.8453 4.82191V10.7293Z" fill="#333333"/>
</svg>
