<svg width="57" height="58" viewBox="0 0 57 58" fill="none" xmlns="http://www.w3.org/2000/svg">
<path d="M42.2234 22.9685L40.1814 21.861C39.762 21.6331 39.6106 21.1162 39.8429 20.706C40.0011 20.4259 40.297 20.2679 40.6025 20.2679C40.7444 20.2679 40.889 20.302 41.0223 20.3741L43.0643 21.4822C43.4832 21.7096 43.635 22.2269 43.4027 22.6371C43.1705 23.0477 42.6422 23.196 42.2234 22.9685Z" fill="#D33234"/>
<path d="M42.2233 25.3794L40.1813 24.2718C39.762 24.0444 39.6101 23.5271 39.8428 23.1165C40.001 22.8368 40.297 22.6788 40.6024 22.6788C40.7443 22.6788 40.8889 22.7129 41.0218 22.785L43.0642 23.8931C43.4831 24.1205 43.6349 24.6374 43.4027 25.048C43.1704 25.4586 42.6422 25.6069 42.2233 25.3794Z" fill="#D33234"/>
<path d="M56.6204 15.2005C56.7035 15.3332 56.7501 15.4894 56.7501 15.6456V23.12C56.7501 23.5895 56.3614 23.9696 55.882 23.9696C55.403 23.9696 55.0144 23.5895 55.0144 23.12V16.9546L46.6715 20.5986V36.3863L55.0144 40.9127V26.8198C55.0144 26.3503 55.403 25.9702 55.882 25.9702C56.3614 25.9702 56.7501 26.3503 56.7501 26.8198V42.3548C56.7501 42.6579 56.5738 42.9509 56.3027 43.0978L29.0283 57.8951C28.7694 58.035 28.4463 58.035 28.1873 57.8951L0.912921 43.0978C0.637281 42.9486 0.461955 42.6526 0.46557 42.3446V15.6456C0.46557 15.3421 0.641347 15.0496 0.912921 14.9022L12.93 8.38237C13.3493 8.15536 13.8771 8.3036 14.1093 8.71381C14.3416 9.12445 14.1898 9.64174 13.7709 9.86874L3.27485 15.5633L11.3692 19.0985L27.74 10.217V2.29041L17.2119 8.00182C16.793 8.22926 16.2648 8.08102 16.0325 7.67038C15.8002 7.26018 15.9521 6.74289 16.3709 6.51544L28.1873 0.104874C28.4449 -0.0349579 28.7707 -0.0349579 29.0283 0.104874L41.4208 6.82874C41.8401 7.05618 41.9915 7.57303 41.7593 7.98367C41.5275 8.39388 40.9992 8.54256 40.5799 8.31511L29.4752 2.29041V10.217L45.846 19.0985L53.9403 15.5633L44.0186 10.1803C43.5993 9.95282 43.4479 9.43597 43.6802 9.02533C43.8383 8.74522 44.1343 8.58725 44.4398 8.58725C44.5816 8.58725 44.7262 8.62177 44.8595 8.69389L56.3027 14.9022C56.431 14.9717 56.5435 15.0784 56.6204 15.2005ZM28.6076 45.2452L44.0136 36.8868L28.6076 28.5287L13.202 36.8868L28.6076 45.2452ZM45.804 37.8581L29.4752 46.717V55.71L54.0917 42.3548L45.804 37.8581ZM27.74 46.717L11.4117 37.8581L3.12347 42.3548L27.74 55.71V46.717ZM2.20075 40.9127L10.5436 36.3863V20.5986L2.20075 16.9546V40.9127ZM12.2793 35.4446L18.577 32.0281L27.74 27.0565V12.1596L12.2793 20.5477V35.4446ZM29.4752 27.0565L44.9364 35.4446V20.5477L29.4752 12.1596V27.0565Z" fill="#333333"/>
</svg>
