<svg width="72" height="72" viewBox="0 0 72 72" fill="none" xmlns="http://www.w3.org/2000/svg">
<path d="M63 13.0781C63.7767 13.0781 64.4062 12.4485 64.4062 11.6719V4.21875C64.4062 1.89253 62.5137 0 60.1875 0H4.21875C1.89253 0 0 1.89253 0 4.21875V67.7812C0 70.1075 1.89253 72 4.21875 72H60.1875C62.5137 72 64.4062 70.1075 64.4062 67.7812V63.8438C64.4062 63.0671 63.7767 62.4375 63 62.4375C62.2233 62.4375 61.5938 63.0671 61.5938 63.8438V67.7812C61.5938 68.5567 60.9629 69.1875 60.1875 69.1875H4.21875C3.44334 69.1875 2.8125 68.5567 2.8125 67.7812V4.21875C2.8125 3.44334 3.44334 2.8125 4.21875 2.8125H60.1875C60.9629 2.8125 61.5938 3.44334 61.5938 4.21875V11.6719C61.5938 12.4485 62.2233 13.0781 63 13.0781Z" fill="#333333"/>
<path d="M56.2517 6.75H8.15625C7.37958 6.75 6.75 7.37958 6.75 8.15625V37.5469C6.75 38.3235 7.37958 38.9531 8.15625 38.9531C8.93292 38.9531 9.5625 38.3235 9.5625 37.5469V9.5625H54.8454V11.8125C54.8454 12.5892 55.4752 13.2188 56.2517 13.2188C57.0284 13.2188 57.6579 12.5892 57.6579 11.8125V8.15625C57.6579 7.37958 57.0284 6.75 56.2517 6.75Z" fill="#333333"/>
<path d="M9.15047 41.7558C8.88891 41.4942 8.5275 41.3438 8.15625 41.3438C7.78641 41.3438 7.42359 41.4942 7.16203 41.7558C6.90047 42.0173 6.75 42.3802 6.75 42.75C6.75 43.1198 6.90047 43.4827 7.16203 43.7442C7.42359 44.0058 7.78641 44.1562 8.15625 44.1562C8.5275 44.1562 8.88891 44.0058 9.15047 43.7442C9.41344 43.4827 9.5625 43.1198 9.5625 42.75C9.5625 42.3802 9.41344 42.0173 9.15047 41.7558Z" fill="#333333"/>
<path d="M56.2517 59.3438C55.475 59.3438 54.8454 59.9733 54.8454 60.75V62.4375H9.5625V48.1641C9.5625 47.3874 8.93292 46.7578 8.15625 46.7578C7.37958 46.7578 6.75 47.3874 6.75 48.1641V63.8438C6.75 64.6204 7.37958 65.25 8.15625 65.25H56.2517C57.0284 65.25 57.6579 64.6204 57.6579 63.8438V60.75C57.6579 59.9733 57.0284 59.3438 56.2517 59.3438Z" fill="#333333"/>
<path d="M43.5816 49.6874C43.0324 49.1381 42.1421 49.1381 41.5929 49.6872L38.8135 52.4667L37.086 50.739C35.9951 49.6483 34.2206 49.6483 33.1298 50.739L32.0056 51.8631C31.4565 52.4123 31.4565 53.3027 32.0056 53.852C32.5547 54.4011 33.4452 54.4011 33.9945 53.852L35.1079 52.7385L36.8355 54.4662C37.3809 55.0116 38.0972 55.2843 38.8135 55.2843C39.5299 55.2843 40.2462 55.0116 40.7916 54.4662L43.5816 51.6762C44.1307 51.1271 44.1307 50.2367 43.5816 49.6874Z" fill="#D33234"/>
<path d="M71.3531 29.501C71.9728 28.5342 72.1579 27.3434 71.8606 26.2342C71.5633 25.1249 70.8079 24.1863 69.7877 23.6589C69.3452 23.4303 69.0744 22.9611 69.0976 22.4637C69.1509 21.3165 68.7158 20.1929 67.9038 19.3808C67.0919 18.5689 65.9686 18.1331 64.8209 18.1871C64.3211 18.2112 63.8544 17.9393 63.6257 17.497C63.0984 16.4769 62.1597 15.7213 61.0505 15.4241C59.9408 15.1266 58.7504 15.3118 57.7838 15.9316C57.3646 16.2005 56.8229 16.2003 56.4038 15.9316C55.437 15.3117 54.2465 15.1268 53.1371 15.4241C52.0278 15.7213 51.0892 16.4769 50.5618 17.497C50.3332 17.9394 49.8628 18.2096 49.3667 18.1871C48.219 18.1335 47.0958 18.5689 46.2839 19.3808C45.4718 20.1929 45.0367 21.3165 45.09 22.4636C45.1132 22.9611 44.8422 23.4303 44.3999 23.6589C43.3798 24.1863 42.6242 25.1248 42.327 26.2342C42.1851 26.7634 42.1543 27.3111 42.227 27.8442H17.6879C16.9112 27.8442 16.2817 28.4738 16.2817 29.2505C16.2817 30.0271 16.9112 30.6567 17.6879 30.6567H42.9454C42.9152 30.7339 42.8802 30.8097 42.8343 30.8811C42.2146 31.8479 42.0295 33.0387 42.3268 34.148C42.3676 34.3003 42.4178 34.4491 42.4755 34.5942H17.6875C16.9108 34.5942 16.2812 35.2238 16.2812 36.0005C16.2812 36.7771 16.9108 37.4067 17.6875 37.4067H45.006C45.0672 37.5674 45.0978 37.7408 45.0895 37.9184C45.0362 39.0657 45.4713 40.1892 46.2835 41.0014C47.0954 41.8133 48.2186 42.2493 49.3662 42.1951C49.8631 42.1708 50.3327 42.4428 50.5614 42.8852C50.7303 43.212 50.9419 43.5111 51.1873 43.7773V56.9107C51.1873 57.4788 51.5292 57.9911 52.0537 58.2092C52.5781 58.4273 53.1825 58.3084 53.5854 57.9076L57.0936 54.4177L60.6017 57.9076C60.8706 58.175 61.2291 58.3169 61.5939 58.3169C61.7755 58.3169 61.9589 58.2816 62.1334 58.2091C62.658 57.991 62.9998 57.4787 62.9998 56.9105V43.7772C63.2452 43.5111 63.4569 43.2118 63.6257 42.885C63.8544 42.4426 64.3241 42.1723 64.8209 42.195C65.9693 42.2493 67.0917 41.8133 67.9037 41.0012C68.7158 40.1891 69.1509 39.0655 69.0976 37.9183C69.0744 37.4209 69.3454 36.9518 69.7877 36.7231C70.8077 36.1958 71.5633 35.2572 71.8606 34.1479C72.1579 33.0385 71.9728 31.8478 71.3531 30.8809C71.0842 30.4619 71.0842 29.9202 71.3531 29.501ZM60.1873 53.5282L58.0853 51.4371C57.5367 50.8914 56.6503 50.8914 56.1017 51.4371L53.9998 53.5282V45.0919C54.8412 45.1315 55.6844 44.9116 56.4037 44.4506C56.8229 44.1817 57.3646 44.1819 57.7836 44.4506C58.4478 44.8764 59.2176 45.0971 59.9942 45.0971C60.0587 45.0971 60.1229 45.0938 60.1873 45.0907V53.5282ZM69.1439 33.4201C69.0496 33.7718 68.8194 34.0577 68.496 34.2249C67.0808 34.9566 66.2139 36.4576 66.2881 38.0492C66.3051 38.413 66.1725 38.7552 65.915 39.0128C65.6575 39.2703 65.3153 39.4025 64.9516 39.3859C63.3591 39.3122 61.8589 40.1784 61.1273 41.5938C60.9601 41.9174 60.6742 42.1474 60.3223 42.2417C59.9708 42.3357 59.6079 42.2796 59.3015 42.083C58.6307 41.653 57.8622 41.4381 57.0934 41.4381C56.3249 41.4381 55.5561 41.6532 54.8855 42.083C54.5789 42.2795 54.2162 42.3357 53.8645 42.2417C53.5127 42.1474 53.2269 41.9172 53.0596 41.5938C52.3279 40.1786 50.828 39.3115 49.2353 39.3859C48.8724 39.4026 48.5294 39.2703 48.2719 39.0128C48.0143 38.7552 47.8818 38.413 47.8988 38.0491C47.951 36.9258 47.5329 35.8489 46.7858 35.0545C46.7638 35.0304 46.7415 35.0068 46.7178 34.9843C46.4211 34.6835 46.0773 34.4247 45.6909 34.2249C45.3674 34.0577 45.1374 33.772 45.0431 33.4201C44.9489 33.0683 45.0052 32.7056 45.2018 32.3992C46.0617 31.0579 46.0617 29.3246 45.2018 27.9833C45.0053 27.6767 44.9489 27.314 45.0431 26.9622C45.1374 26.6105 45.3676 26.3246 45.691 26.1574C47.1062 25.4257 47.9729 23.9247 47.8989 22.3331C47.8819 21.9693 48.0145 21.6272 48.272 21.3695C48.5295 21.1119 48.8724 20.9797 49.2354 20.9965C50.828 21.0703 52.3282 20.2039 53.0597 18.7885C53.227 18.4649 53.5128 18.2349 53.8647 18.1407C54.2164 18.0466 54.5791 18.1027 54.8855 18.2993C56.2269 19.1593 57.9604 19.1593 59.3014 18.2993C59.608 18.1028 59.9705 18.0463 60.3223 18.1407C60.6742 18.2349 60.9599 18.4651 61.1273 18.7885C61.8589 20.2038 63.3598 21.0707 64.9516 20.9965C65.3155 20.9799 65.6575 21.1119 65.915 21.3695C66.1726 21.6272 66.3051 21.9693 66.2881 22.3331C66.2141 23.9246 67.0806 25.4257 68.4962 26.1574C68.8196 26.3246 69.0496 26.6104 69.1439 26.9622C69.2381 27.314 69.1818 27.6767 68.9852 27.9831C68.1253 29.3244 68.1253 31.0578 68.9852 32.399C69.1818 32.7056 69.2382 33.0683 69.1439 33.4201Z" fill="#D33234"/>
<path d="M62.915 26.4119C62.3659 25.8627 61.4754 25.8627 60.9263 26.4119L56.2588 31.0795L54.4007 29.2214C53.8516 28.6723 52.9611 28.6723 52.4119 29.2214C51.8627 29.7705 51.8627 30.661 52.4119 31.2103L55.2643 34.0627C55.5389 34.3373 55.8988 34.4746 56.2586 34.4746C56.6185 34.4746 56.9785 34.3373 57.253 34.0627L62.915 28.4007C63.4641 27.8516 63.4641 26.9611 62.915 26.4119Z" fill="#D33234"/>
<path d="M17.1661 17.0058C16.9045 16.7442 16.5417 16.5938 16.1719 16.5938C15.802 16.5938 15.4392 16.7442 15.1777 17.0058C14.9161 17.2673 14.7656 17.6302 14.7656 18C14.7656 18.3698 14.9161 18.7327 15.1777 18.9942C15.4392 19.2558 15.802 19.4062 16.1719 19.4062C16.5417 19.4062 16.9045 19.2558 17.1661 18.9942C17.4277 18.7327 17.5781 18.3698 17.5781 18C17.5781 17.6302 17.4277 17.2673 17.1661 17.0058Z" fill="#333333"/>
<path d="M28.2657 16.5938H21.4219C20.6452 16.5938 20.0156 17.2233 20.0156 18C20.0156 18.7767 20.6452 19.4062 21.4219 19.4062H28.2657C29.0423 19.4062 29.6719 18.7767 29.6719 18C29.6719 17.2233 29.0423 16.5938 28.2657 16.5938Z" fill="#333333"/>
<path d="M42.5883 41.3438H26.5117C25.735 41.3438 25.1055 41.9733 25.1055 42.75C25.1055 43.5267 25.735 44.1562 26.5117 44.1562H42.5881C43.3648 44.1562 43.9944 43.5267 43.9944 42.75C43.9944 41.9733 43.3649 41.3438 42.5883 41.3438Z" fill="#333333"/>
</svg>
