<svg width="58" height="59" viewBox="0 0 58 59" fill="none" xmlns="http://www.w3.org/2000/svg">
<path d="M6.08982 3.54617L3.5279 0.946865C3.34744 0.763712 3.10263 0.660767 2.84734 0.660675C2.59204 0.660584 2.34716 0.763353 2.16658 0.946377C1.98599 1.1294 1.88449 1.37768 1.8844 1.63661C1.88431 1.89554 1.98564 2.14389 2.1661 2.32705L22.1639 22.6081L7.19177 37.793L1.631 32.1532C1.44949 31.9754 1.20638 31.877 0.954042 31.8792C0.701702 31.8815 0.460319 31.9841 0.281882 32.1651C0.103444 32.3461 0.00222914 32.5909 3.63814e-05 32.8468C-0.00215638 33.1027 0.0948486 33.3493 0.270158 33.5334L4.10534 37.4231C4.10534 39.4351 4.10534 54.3025 4.10534 54.3025H22.109L25.567 57.8095C25.8276 58.0771 26.1377 58.2901 26.4796 58.4361C26.8214 58.5821 27.1882 58.6585 27.5591 58.6607H27.6342C28.01 58.6617 28.3822 58.5868 28.7291 58.4405C29.0761 58.2942 29.3909 58.0794 29.6553 57.8085C29.9126 57.5481 30.1187 57.2404 30.2625 56.9018C30.6957 57.1515 31.1857 57.2821 31.684 57.2805C32.2489 57.2855 32.8027 57.1215 33.2762 56.809C33.7497 56.4965 34.1218 56.0494 34.346 55.5235C34.7779 55.7747 35.2677 55.9051 35.7656 55.9013C36.5332 55.8964 37.2695 55.5915 37.8213 55.0501C38.0553 54.8128 38.2474 54.5365 38.3891 54.2332C38.8971 54.6658 39.5361 54.9087 40.1993 54.9213C40.8626 54.9339 41.51 54.7155 42.0337 54.3025C47.2417 54.3025 58 54.3578 58 54.3578V3.54617C58 3.54617 11.0552 3.54617 6.08982 3.54617ZM34.9023 5.49834V16.2592H27.2031V5.49834H34.9023ZM6.03015 52.3503V39.3752L6.51135 39.8633C6.69183 40.0463 6.93658 40.1491 7.19177 40.1491C7.44697 40.1491 7.69171 40.0463 7.87219 39.8633L9.23303 38.4831L9.48614 38.7398C10.0892 39.3534 10.5209 40.1184 10.7373 40.9565L10.9067 41.6192C11.2098 42.7939 11.8156 43.8655 12.6621 44.7242L20.1842 52.3503H6.03015ZM40.2407 52.9711C39.9922 52.9657 39.7546 52.8661 39.5748 52.6919L37.8155 50.9067C37.635 50.7235 37.3902 50.6206 37.1349 50.6205C36.8796 50.6204 36.6348 50.7232 36.4542 50.9062C36.2736 51.0892 36.1721 51.3375 36.172 51.5964C36.1719 51.8553 36.2732 52.1037 36.4537 52.2868C36.6341 52.4699 36.7355 52.7181 36.7355 52.9769C36.7355 53.2358 36.6341 53.484 36.4537 53.667C36.3635 53.7603 36.2551 53.8333 36.1354 53.8816C36.0158 53.9298 35.8875 53.9522 35.7588 53.9472C35.5096 53.9435 35.2711 53.8436 35.0919 53.668L33.731 52.2878C33.5487 52.1144 33.307 52.0198 33.0571 52.0239C32.8072 52.028 32.5686 52.1306 32.392 52.3099C32.2153 52.4892 32.1143 52.7312 32.1104 52.9847C32.1066 53.2381 32.2001 53.4832 32.3712 53.668C32.5507 53.8509 32.6515 54.0985 32.6515 54.3566C32.6515 54.6147 32.5507 54.8623 32.3712 55.0453C32.1841 55.2252 31.9361 55.3255 31.6782 55.3254C31.5533 55.333 31.4282 55.3118 31.3125 55.2633C31.1968 55.2147 31.0935 55.1402 31.0103 55.0453L29.6495 53.668C29.5601 53.5773 29.454 53.5054 29.3373 53.4563C29.2205 53.4072 29.0953 53.3819 28.9689 53.3818C28.8425 53.3818 28.7173 53.407 28.6005 53.456C28.4837 53.505 28.3776 53.5769 28.2882 53.6675C28.1987 53.7581 28.1278 53.8657 28.0794 53.9842C28.031 54.1026 28.006 54.2295 28.006 54.3578C28.0059 54.486 28.0308 54.6129 28.0791 54.7314C28.1275 54.8498 28.1983 54.9575 28.2877 55.0482C28.4681 55.2312 28.5695 55.4795 28.5695 55.7383C28.5695 55.9971 28.4681 56.2453 28.2877 56.4284C28.1991 56.5232 28.0913 56.5974 27.9716 56.6458C27.852 56.6942 27.7234 56.7156 27.5948 56.7085C27.3444 56.708 27.1044 56.6074 26.9268 56.4284L14.0306 43.343C13.427 42.7299 12.9951 41.9648 12.7795 41.1263L12.6091 40.4636C12.306 39.2895 11.7005 38.2182 10.8547 37.3596L10.6016 37.1029L20.8021 26.7496L21.7722 27.7325C22.1555 28.1205 22.6388 28.3912 23.1667 28.5134L27.9788 29.6339C31.292 30.4101 34.2296 32.3454 36.2756 35.1L41.1935 41.7237L41.104 41.8145C40.926 41.9964 40.7141 42.1407 40.4807 42.2389C40.2472 42.3371 39.9969 42.3872 39.7441 42.3864C39.4913 42.3867 39.2408 42.3363 39.0073 42.2379C38.7737 42.1396 38.5616 41.9953 38.3833 41.8135L35.9773 39.3733C35.7585 39.1492 35.4979 38.9715 35.2107 38.8505C34.9236 38.7296 34.6156 38.6677 34.3046 38.6685C33.8274 38.6716 33.3617 38.8177 32.9661 39.0884C32.5704 39.359 32.2625 39.7422 32.0809 40.1898C31.8993 40.6375 31.8521 41.1295 31.9454 41.6042C32.0387 42.0789 32.2681 42.5151 32.605 42.8579L40.8653 51.2356C41.0514 51.4109 41.168 51.6491 41.1931 51.9054C41.2183 52.1616 41.1503 52.4184 41.002 52.6275C40.9063 52.7362 40.789 52.823 40.6578 52.8822C40.5265 52.9415 40.3844 52.9717 40.2407 52.9711ZM56.0752 52.3503H43.1001C43.1453 51.8938 43.0898 51.4329 42.9377 51.0009C42.7856 50.5689 42.5405 50.1766 42.2204 49.8525L33.9601 41.4748C33.8691 41.3819 33.8179 41.2563 33.8177 41.1253C33.8193 41.0543 33.8351 40.9843 33.8641 40.9196C33.893 40.8548 33.9345 40.7967 33.9861 40.7486C34.0689 40.6646 34.1813 40.6174 34.2984 40.6174C34.4155 40.6174 34.5278 40.6646 34.6107 40.7486L37.0167 43.1888C37.3733 43.5525 37.7974 43.8409 38.2646 44.0375C38.7317 44.234 39.2326 44.3347 39.7384 44.3337C40.2439 44.3352 40.7448 44.2348 41.2118 44.0384C41.6789 43.842 42.1028 43.5536 42.4591 43.1898L43.1395 42.4997C43.3037 42.3333 43.403 42.1124 43.4193 41.8776C43.4356 41.6428 43.3677 41.41 43.2281 41.222L37.8068 33.9209C35.4878 30.8001 32.1586 28.608 28.4041 27.7296L23.5921 26.61C23.4153 26.5686 23.2536 26.4776 23.1253 26.3475L22.1552 25.3636L24.1975 23.2923C24.3779 23.1093 24.4792 22.8611 24.4792 22.6022C24.4792 22.3434 24.3779 22.0952 24.1975 21.9121L8.01463 5.49834H25.2782V17.2352C25.2782 17.4941 25.3796 17.7424 25.5601 17.9254C25.7406 18.1085 25.9854 18.2113 26.2406 18.2113H35.8647C36.1199 18.2113 36.3647 18.1085 36.5452 17.9254C36.7257 17.7424 36.8271 17.4941 36.8271 17.2352V5.49834H56.0752V52.3503Z" fill="#333333"/>
<path d="M44.7629 15.8608H48.4041C48.6479 15.8608 48.8817 15.9557 49.0541 16.1244C49.2265 16.2932 49.3234 16.5221 49.3234 16.7608C49.3234 16.9994 49.2265 17.2283 49.0541 17.3971C48.8817 17.5659 48.6479 17.6607 48.4041 17.6607H44.7629C44.5191 17.6607 44.2853 17.5659 44.1129 17.3971C43.9405 17.2283 43.8437 16.9994 43.8437 16.7608C43.8437 16.5221 43.9405 16.2932 44.1129 16.1244C44.2853 15.9557 44.5191 15.8608 44.7629 15.8608Z" fill="#D33234"/>
<path d="M48.4041 12.2612H44.7629C44.5191 12.2612 44.2853 12.356 44.1129 12.5248C43.9405 12.6936 43.8437 12.9225 43.8437 13.1611C43.8437 13.3998 43.9405 13.6287 44.1129 13.7975C44.2853 13.9662 44.5191 14.061 44.7629 14.061H48.4041C48.6479 14.061 48.8817 13.9662 49.0541 13.7975C49.2265 13.6287 49.3234 13.3998 49.3234 13.1611C49.3234 12.9225 49.2265 12.6936 49.0541 12.5248C48.8817 12.356 48.6479 12.2612 48.4041 12.2612Z" fill="#D33234"/>
<path d="M52.0807 12.2612H52.1166C51.8728 12.2612 51.639 12.356 51.4666 12.5248C51.2942 12.6936 51.1974 12.9225 51.1974 13.1611C51.1974 13.3998 51.2942 13.6287 51.4666 13.7975C51.639 13.9662 51.8728 14.061 52.1166 14.061H52.0807C52.3245 14.061 52.5584 13.9662 52.7308 13.7975C52.9031 13.6287 53 13.3998 53 13.1611C53 12.9225 52.9031 12.6936 52.7308 12.5248C52.5584 12.356 52.3245 12.2612 52.0807 12.2612Z" fill="#D33234"/>
<path d="M52.0807 15.8608H52.1166C51.8728 15.8608 51.639 15.9557 51.4666 16.1244C51.2942 16.2932 51.1974 16.5221 51.1974 16.7608C51.1974 16.9994 51.2942 17.2283 51.4666 17.3971C51.639 17.5659 51.8728 17.6607 52.1166 17.6607H52.0807C52.3245 17.6607 52.5584 17.5659 52.7308 17.3971C52.9031 17.2283 53 16.9994 53 16.7608C53 16.5221 52.9031 16.2932 52.7308 16.1244C52.5584 15.9557 52.3245 15.8608 52.0807 15.8608Z" fill="#D33234"/>
<path d="M48.399 10.4605H42.9193C42.6755 10.4605 42.4416 10.3657 42.2692 10.1969C42.0969 10.0282 42 9.79926 42 9.56059C42 9.32192 42.0969 9.09302 42.2692 8.92425C42.4416 8.75549 42.6755 8.66068 42.9193 8.66068H48.399C48.6428 8.66068 48.8766 8.75549 49.049 8.92425C49.2214 9.09302 49.3183 9.32192 49.3183 9.56059C49.3183 9.79926 49.2214 10.0282 49.049 10.1969C48.8766 10.3657 48.6428 10.4605 48.399 10.4605Z" fill="#D33234"/>
<path d="M52.0807 8.66068H52.1166C51.8728 8.66068 51.639 8.75549 51.4666 8.92425C51.2942 9.09302 51.1974 9.32192 51.1974 9.56059C51.1974 9.79926 51.2942 10.0282 51.4666 10.1969C51.639 10.3657 51.8728 10.4605 52.1166 10.4605H52.0807C52.3245 10.4605 52.5584 10.3657 52.7308 10.1969C52.9031 10.0282 53 9.79926 53 9.56059C53 9.32192 52.9031 9.09302 52.7308 8.92425C52.5584 8.75549 52.3245 8.66068 52.0807 8.66068Z" fill="#D33234"/>
</svg>
