<svg width="58" height="58" viewBox="0 0 58 58" fill="none" xmlns="http://www.w3.org/2000/svg">
<path d="M51.9964 3.60335H48.9938V2.99365C48.9938 1.34295 47.6468 0 45.9911 0H11.0051C9.3495 0 8.00252 1.34295 8.00252 2.99365V11.5316H7.00165C5.3427 11.5316 3.99902 12.8711 3.99902 14.5252C3.99902 16.1759 5.346 17.5189 7.00165 17.5189H8.00252V21.5104H7.00165C5.3427 21.5104 3.99902 22.8499 3.99902 24.504C3.99902 26.1547 5.346 27.4977 7.00165 27.4977H8.00252V31.4892H7.00165C5.3427 31.4892 3.99902 32.8288 3.99902 34.4829C3.99902 36.1336 5.346 37.4765 7.00165 37.4765H8.00252V41.4681H7.00165C5.3427 41.4681 3.99902 42.8076 3.99902 44.4617C3.99902 46.1124 5.346 47.4554 7.00165 47.4554H8.00252V55.0064C8.00252 56.6571 9.3495 58 11.0051 58H45.9911C47.6468 58 48.9938 56.6571 48.9938 55.0064V29.7239H51.9964C53.6521 29.7239 54.999 28.3809 54.999 26.7302V6.597C54.999 4.9463 53.6521 3.60335 51.9964 3.60335ZM8.00252 45.4596H7.00165C6.44977 45.4596 6.00077 45.0119 6.00077 44.4617C6.00077 43.9108 6.44896 43.4638 7.00165 43.4638H8.00252V45.4596ZM8.00252 35.4808H7.00165C6.10697 35.4808 5.66918 34.4007 6.29413 33.7775C6.48329 33.5889 6.73461 33.485 7.00165 33.485H8.00252V35.4808ZM8.00252 25.5019H7.00165C6.44977 25.5019 6.00077 25.0543 6.00077 24.504C6.00077 23.9531 6.44896 23.5062 7.00165 23.5062H8.00252V25.5019ZM8.00252 15.5231H7.00165C6.44977 15.5231 6.00077 15.0754 6.00077 14.5252C6.00077 13.9743 6.44896 13.5273 7.00165 13.5273H8.00252V15.5231ZM46.992 55.0064C46.992 55.5566 46.543 56.0042 45.9911 56.0042H11.0051C10.4533 56.0042 10.0043 55.5566 10.0043 55.0064V47.4554H11.0051C12.6608 47.4554 14.0078 46.1124 14.0078 44.4617C14.0078 43.9106 13.5596 43.4638 13.0069 43.4638C12.4542 43.4638 12.006 43.9106 12.006 44.4617C12.006 45.0119 11.557 45.4596 11.0051 45.4596H10.0043V37.4765H11.0051C12.6608 37.4765 14.0078 36.1336 14.0078 34.4829C14.0078 33.9317 13.5596 33.485 13.0069 33.485C12.4542 33.485 12.006 33.9317 12.006 34.4829C12.006 35.0331 11.557 35.4808 11.0051 35.4808H10.0043V27.4977H11.0051C12.6608 27.4977 14.0078 26.1547 14.0078 24.504C14.0078 23.9529 13.5596 23.5062 13.0069 23.5062C12.4542 23.5062 12.006 23.9529 12.006 24.504C12.006 25.0543 11.557 25.5019 11.0051 25.5019H10.0043V17.5189H11.0051C12.6608 17.5189 14.0078 16.1759 14.0078 14.5252C14.0078 13.9741 13.5596 13.5273 13.0069 13.5273C12.4542 13.5273 12.006 13.9741 12.006 14.5252C12.006 15.0754 11.557 15.5231 11.0051 15.5231H10.0043V2.99365C10.0043 2.44342 10.4533 1.99577 11.0051 1.99577H45.9911C46.543 1.99577 46.992 2.44342 46.992 2.99365V55.0064ZM52.9973 26.7302C52.9973 27.2805 52.5483 27.7281 51.9964 27.7281H48.9938V23.6927H52.9973V26.7302ZM52.9973 21.6969H48.9938V17.6615H52.9973V21.6969ZM52.9973 15.6657H48.9938V11.6303H52.9973V15.6657ZM52.9973 9.63454H48.9938V5.59912H51.9964C52.5483 5.59912 52.9973 6.04677 52.9973 6.597V9.63454Z" fill="#333333"/>
<path d="M17.999 38.0111C17.999 37.453 18.4511 37 19.008 37C19.565 37 20.017 37.453 20.017 38.0111C20.017 38.5693 19.565 39.0222 19.008 39.0222C18.4511 39.0222 17.999 38.5693 17.999 38.0111Z" fill="#D33234"/>
<path d="M23.0437 37H38.1516C38.7088 37 39.1606 37.4527 39.1606 38.0111C39.1606 38.5696 38.7088 39.0222 38.1516 39.0222H23.0437C22.4865 39.0222 22.0347 38.5696 22.0347 38.0111C22.0347 37.4527 22.4865 37 23.0437 37Z" fill="#D33234"/>
<path d="M17.999 43.0336C17.999 42.4754 18.4511 42.0225 19.008 42.0225C19.565 42.0225 20.017 42.4754 20.017 43.0336C20.017 43.5917 19.565 44.0447 19.008 44.0447C18.4511 44.0447 17.999 43.5917 17.999 43.0336Z" fill="#D33234"/>
<path d="M23.0437 42.0449H38.1516C38.7088 42.0449 39.1606 42.4976 39.1606 43.056C39.1606 43.6145 38.7088 44.0672 38.1516 44.0672H23.0437C22.4865 44.0672 22.0347 43.6145 22.0347 43.056C22.0347 42.4976 22.4865 42.0449 23.0437 42.0449Z" fill="#D33234"/>
<path d="M19.008 47.0674C18.4511 47.0674 17.999 47.5204 17.999 48.0785C17.999 48.6366 18.4511 49.0896 19.008 49.0896C19.565 49.0896 20.017 48.6366 20.017 48.0785C20.017 47.5204 19.565 47.0674 19.008 47.0674Z" fill="#D33234"/>
<path d="M38.1516 47.1123H23.0437C22.4865 47.1123 22.0347 47.565 22.0347 48.1234C22.0347 48.6819 22.4865 49.1345 23.0437 49.1345H38.1516C38.7088 49.1345 39.1606 48.6819 39.1606 48.1234C39.1606 47.565 38.7088 47.1123 38.1516 47.1123Z" fill="#D33234"/>
<path d="M29.098 9C22.978 9 17.999 13.9895 17.999 20.1223C17.999 26.4073 23.0954 31.2446 29.098 31.2446C35.1018 31.2446 40.1969 26.4054 40.1969 20.1223C40.1969 13.9895 35.2179 9 29.098 9ZM29.098 29.2224C27.2901 29.2224 25.566 28.6982 24.0783 27.7047C24.3328 25.1539 26.4868 23.1556 29.098 23.1556C31.7092 23.1556 33.8632 25.1539 34.1176 27.7047C32.63 28.6982 30.9059 29.2224 29.098 29.2224ZM26.071 18.1001C26.071 16.4275 27.4289 15.0667 29.098 15.0667C30.7671 15.0667 32.125 16.4275 32.125 18.1001C32.125 19.7727 30.7671 21.1334 29.098 21.1334C27.4289 21.1334 26.071 19.7727 26.071 18.1001ZM35.8667 26.1929C35.3187 24.3508 34.0413 22.8217 32.3713 21.9424C33.4544 21.0144 34.143 19.6367 34.143 18.1001C34.143 15.3124 31.8798 13.0445 29.098 13.0445C26.3162 13.0445 24.053 15.3124 24.053 18.1001C24.053 19.6367 24.7415 21.0144 25.8247 21.9424C24.1545 22.8218 22.8771 24.3509 22.3291 26.193C20.8439 24.5408 20.017 22.4057 20.017 20.1223C20.017 15.1045 24.0907 11.0222 29.098 11.0222C34.1052 11.0222 38.1789 15.1045 38.1789 20.1223C38.1789 22.4055 37.3522 24.5405 35.8667 26.1929Z" fill="#D33234"/>
</svg>
