<svg width="58" height="59" viewBox="0 0 58 59" fill="none" xmlns="http://www.w3.org/2000/svg">
<path d="M8.69994 13.5756C8.69994 14.1094 8.26714 14.5422 7.73327 14.5422C7.19939 14.5422 6.7666 14.1094 6.7666 13.5756C6.7666 13.0417 7.19939 12.6089 7.73327 12.6089C8.26714 12.6089 8.69994 13.0417 8.69994 13.5756Z" fill="#D33234"/>
<path d="M11.599 14.5422C12.1329 14.5422 12.5657 14.1094 12.5657 13.5756C12.5657 13.0417 12.1329 12.6089 11.599 12.6089C11.0651 12.6089 10.6323 13.0417 10.6323 13.5756C10.6323 14.1094 11.0651 14.5422 11.599 14.5422Z" fill="#D33234"/>
<path d="M16.4333 13.5756C16.4333 14.1094 16.0005 14.5422 15.4667 14.5422C14.9328 14.5422 14.5 14.1094 14.5 13.5756C14.5 13.0417 14.9328 12.6089 15.4667 12.6089C16.0005 12.6089 16.4333 13.0417 16.4333 13.5756Z" fill="#D33234"/>
<path d="M20.301 13.5756C20.301 14.1094 19.8682 14.5422 19.3343 14.5422C18.8005 14.5422 18.3677 14.1094 18.3677 13.5756C18.3677 13.0417 18.8005 12.6089 19.3343 12.6089C19.8682 12.6089 20.301 13.0417 20.301 13.5756Z" fill="#D33234"/>
<path d="M38.6664 14.5422C39.2002 14.5422 39.633 14.1094 39.633 13.5756C39.633 13.0417 39.2002 12.6089 38.6664 12.6089C38.1325 12.6089 37.6997 13.0417 37.6997 13.5756C37.6997 14.1094 38.1325 14.5422 38.6664 14.5422Z" fill="#D33234"/>
<path d="M42.534 22.1206C43.0676 22.1206 43.5007 22.5527 43.5007 23.0873C43.5007 23.6218 43.0676 24.0539 42.534 24.0539H28.034C27.5005 24.0539 27.0674 23.6218 27.0674 23.0873C27.0674 22.5527 27.5005 22.1206 28.034 22.1206H42.534Z" fill="#D33234"/>
<path d="M32.8661 28.8882H47.3661C47.8997 28.8882 48.3327 29.3203 48.3327 29.8549C48.3327 30.3894 47.8997 30.8215 47.3661 30.8215H32.8661C32.3325 30.8215 31.8994 30.3894 31.8994 29.8549C31.8994 29.3203 32.3325 28.8882 32.8661 28.8882Z" fill="#D33234"/>
<path d="M37.7001 35.6548H47.3667C47.9003 35.6548 48.3334 36.0869 48.3334 36.6215C48.3334 37.156 47.9003 37.5881 47.3667 37.5881H37.7001C37.1665 37.5881 36.7334 37.156 36.7334 36.6215C36.7334 36.0869 37.1665 35.6548 37.7001 35.6548Z" fill="#D33234"/>
<path d="M27.0674 36.6215C27.0674 37.156 27.5005 37.5881 28.034 37.5881H29.9674C30.501 37.5881 30.9341 37.156 30.9341 36.6215C30.9341 36.0869 30.501 35.6548 29.9674 35.6548H28.034C27.5005 35.6548 27.0674 36.0869 27.0674 36.6215Z" fill="#D33234"/>
<path d="M35.7673 13.5756C35.7673 14.1094 35.3345 14.5422 34.8007 14.5422C34.2668 14.5422 33.834 14.1094 33.834 13.5756C33.834 13.0417 34.2668 12.6089 34.8007 12.6089C35.3345 12.6089 35.7673 13.0417 35.7673 13.5756Z" fill="#D33234"/>
<path d="M42.534 14.5422C43.0679 14.5422 43.5007 14.1094 43.5007 13.5756C43.5007 13.0417 43.0679 12.6089 42.534 12.6089C42.0002 12.6089 41.5674 13.0417 41.5674 13.5756C41.5674 14.1094 42.0002 14.5422 42.534 14.5422Z" fill="#D33234"/>
<path d="M31.8996 13.5756C31.8996 14.1094 31.4669 14.5422 30.933 14.5422C30.3991 14.5422 29.9663 14.1094 29.9663 13.5756C29.9663 13.0417 30.3991 12.6089 30.933 12.6089C31.4669 12.6089 31.8996 13.0417 31.8996 13.5756Z" fill="#D33234"/>
<path d="M46.3993 14.5422C46.9332 14.5422 47.3659 14.1094 47.3659 13.5756C47.3659 13.0417 46.9332 12.6089 46.3993 12.6089C45.8654 12.6089 45.4326 13.0417 45.4326 13.5756C45.4326 14.1094 45.8654 14.5422 46.3993 14.5422Z" fill="#D33234"/>
<path d="M23.2001 14.5422C23.7339 14.5422 24.1667 14.1094 24.1667 13.5756C24.1667 13.0417 23.7339 12.6089 23.2001 12.6089C22.6662 12.6089 22.2334 13.0417 22.2334 13.5756C22.2334 14.1094 22.6662 14.5422 23.2001 14.5422Z" fill="#D33234"/>
<path d="M28.0339 13.5756C28.0339 14.1094 27.6011 14.5422 27.0673 14.5422C26.5334 14.5422 26.1006 14.1094 26.1006 13.5756C26.1006 13.0417 26.5334 12.6089 27.0673 12.6089C27.6011 12.6089 28.0339 13.0417 28.0339 13.5756Z" fill="#D33234"/>
<path d="M50.267 14.5422C50.8008 14.5422 51.2336 14.1094 51.2336 13.5756C51.2336 13.0417 50.8008 12.6089 50.267 12.6089C49.7331 12.6089 49.3003 13.0417 49.3003 13.5756C49.3003 14.1094 49.7331 14.5422 50.267 14.5422Z" fill="#D33234"/>
<path d="M46.6797 22.4016C46.5057 22.5843 46.3994 22.8259 46.3994 23.0879C46.3994 23.3392 46.5057 23.5906 46.6797 23.7742C46.8634 23.9482 47.1147 24.0546 47.3661 24.0546C47.6271 24.0546 47.8687 23.9482 48.0524 23.7742C48.2264 23.5906 48.3327 23.3392 48.3327 23.0879C48.3327 22.8365 48.2264 22.5843 48.0524 22.4016C47.6947 22.0439 47.0374 22.0439 46.6797 22.4016Z" fill="#333333"/>
<path d="M29.967 29.8545C29.967 30.1155 29.8607 30.3572 29.6867 30.5408C29.503 30.7148 29.2517 30.8212 29.0004 30.8212C28.749 30.8212 28.4977 30.7148 28.314 30.5408C28.14 30.3572 28.0337 30.1155 28.0337 29.8545C28.0337 29.5925 28.14 29.3509 28.314 29.1682C28.6814 28.8105 29.329 28.8105 29.6867 29.1682C29.8607 29.3509 29.967 29.5925 29.967 29.8545Z" fill="#333333"/>
<path d="M34.5207 37.3074C34.6947 37.1238 34.801 36.8821 34.801 36.6211C34.801 36.3591 34.6947 36.1088 34.5207 35.9348C34.163 35.5771 33.5153 35.5771 33.148 35.9348C32.974 36.1175 32.8677 36.3698 32.8677 36.6211C32.8677 36.8724 32.974 37.1238 33.148 37.3074C33.3317 37.4814 33.583 37.5878 33.8343 37.5878C34.0857 37.5878 34.337 37.4814 34.5207 37.3074Z" fill="#333333"/>
<path fill-rule="evenodd" clip-rule="evenodd" d="M12.8178 35.506H16.4579V33.7892H12.8178V32.3006H16.61C18.3631 32.2933 19.7141 31.8732 20.663 31.0401C21.6192 30.1998 22.0973 29.0082 22.0973 27.4652C22.0973 25.9947 21.6011 24.8284 20.6087 23.9664C19.6163 23.1044 18.2725 22.6733 16.5774 22.6733H10.7424V30.5946H8.49316V32.3006H10.7424V33.7892H8.49316V35.506H10.7424V38.4942H12.8178V35.506ZM16.5774 30.5946H12.8178V24.3902H16.6426C17.6785 24.3974 18.5007 24.6872 19.1092 25.2594C19.7177 25.8245 20.0219 26.567 20.0219 27.487C20.0219 28.5011 19.7286 29.2726 19.1418 29.8014C18.555 30.3302 17.7002 30.5946 16.5774 30.5946Z" fill="#333333"/>
<path fill-rule="evenodd" clip-rule="evenodd" d="M58 9.52731C58 7.39484 56.2658 5.66064 54.1333 5.66064H3.86667C1.7342 5.66064 0 7.39484 0 9.52731C0 11.3243 1.23733 12.8246 2.9 13.2567V49.9442L5.8 47.0442L11.6 52.8442L17.4 47.0442L23.2 52.8442L29 47.0442L34.8 52.8442L40.6 47.0442L46.4 52.8442L52.2 47.0442L55.1 49.9442V13.2567C56.7627 12.8246 58 11.3243 58 9.52731ZM53.1667 45.2771L52.2 44.3104L46.4 50.1104L40.6 44.3104L34.8 50.1104L29 44.3104L23.2 50.1104L17.4 44.3104L11.6 50.1104L5.8 44.3104L4.83333 45.2771V10.494H53.1667V45.2771ZM55.1 11.2006V8.56064H2.9V11.2006C2.3229 10.8671 1.93333 10.2417 1.93333 9.52731C1.93333 8.46108 2.80043 7.59398 3.86667 7.59398H54.1333C55.1996 7.59398 56.0667 8.46108 56.0667 9.52731C56.0667 10.2417 55.6771 10.8671 55.1 11.2006Z" fill="#333333"/>
</svg>
