<svg width="58" height="59" viewBox="0 0 58 59" fill="none" xmlns="http://www.w3.org/2000/svg">
<path d="M10.6112 31.205C10.4825 31.426 10.2715 31.5871 10.0244 31.6529C9.8993 31.6844 9.76915 31.6906 9.64162 31.671C9.5141 31.6515 9.39178 31.6066 9.28187 31.539C9.17196 31.4715 9.07669 31.3826 9.00167 31.2776C8.92665 31.1727 8.87341 31.0537 8.84506 30.9279C8.11239 28.1449 7.7388 25.2797 7.7334 22.4019V13.2862C7.74463 13.0318 7.85579 12.7921 8.04273 12.6192C8.24569 12.4432 8.50916 12.3531 8.7774 12.3679C12.2021 12.6458 15.6429 12.0871 18.8037 10.7399C21.9645 9.39272 24.7505 7.29746 26.9217 4.63454L28.2557 3.01054C28.3464 2.90107 28.4602 2.81296 28.5888 2.75248C28.7175 2.692 28.8579 2.66064 29.0001 2.66064C29.1422 2.66064 29.2826 2.692 29.4113 2.75248C29.54 2.81296 29.6537 2.90107 29.7444 3.01054L31.0784 4.63454C33.2514 7.2925 36.0391 9.38126 39.2005 10.7202C42.3618 12.0592 45.8017 12.6081 49.2227 12.3195C49.491 12.3047 49.7544 12.3949 49.9574 12.5709C50.0558 12.6621 50.1341 12.7728 50.1873 12.896C50.2406 13.0191 50.2676 13.152 50.2667 13.2862V22.4019C50.274 25.278 49.9134 28.1432 49.1937 30.9279C49.1389 31.1406 49.0133 31.3282 48.8376 31.46C48.6619 31.5918 48.4466 31.6598 48.2271 31.6529C48.1436 31.6624 48.0592 31.6624 47.9757 31.6529C47.8502 31.6205 47.7324 31.5632 47.6295 31.4844C47.5265 31.4056 47.4404 31.3069 47.3764 31.1942C47.3124 31.0815 47.2717 30.957 47.2567 30.8282C47.2418 30.6994 47.2529 30.5689 47.2894 30.4445C47.9794 27.8192 48.3303 25.1163 48.3334 22.4019V14.3109C44.767 14.4425 41.2184 13.7475 37.9652 12.2802C34.7119 10.8128 31.8421 8.61297 29.5801 5.85254L29.0001 5.14687L28.4201 5.85254C26.158 8.61297 23.2882 10.8128 20.035 12.2802C16.7817 13.7475 13.2332 14.4425 9.66673 14.3109V22.4019C9.66739 25.126 10.0183 27.8388 10.7107 30.4735C10.7756 30.7209 10.7398 30.9839 10.6112 31.205Z" fill="#333333"/>
<path d="M28.9999 54.4853L38.4345 45.505L39.1499 46.1527L39.8072 46.8487L29.6669 56.5154C29.4871 56.6867 29.2483 56.7823 28.9999 56.7823C28.7515 56.7823 28.5127 56.6867 28.3329 56.5154L18.2312 46.897C18.1353 46.8109 18.0575 46.7065 18.0025 46.5899C17.9475 46.4733 17.9164 46.3469 17.911 46.2181C17.9056 46.0893 17.926 45.9607 17.971 45.8399C18.0161 45.7191 18.0848 45.6085 18.1732 45.5147C18.3445 45.3311 18.5806 45.2214 18.8313 45.2087C19.0821 45.1961 19.328 45.2816 19.5169 45.447L19.5846 45.5147L28.9999 54.4853Z" fill="#333333"/>
<path d="M43.2169 31.3696C43.0356 31.5509 42.7897 31.6527 42.5333 31.6527C42.277 31.6527 42.0311 31.5509 41.8498 31.3696C41.6685 31.1883 41.5667 30.9424 41.5667 30.686V26.8194H39.2853C39.0684 26.8274 38.855 26.7622 38.6797 26.6341C38.5043 26.5061 38.3771 26.3228 38.3187 26.1137C38.1193 25.3925 37.8337 24.6979 37.468 24.045C37.3634 23.8614 37.3219 23.6485 37.3499 23.439C37.3778 23.2295 37.4736 23.0349 37.6227 22.885L39.2853 21.232L36.5497 18.4964L34.8967 20.1591C34.7468 20.3081 34.5522 20.4039 34.3427 20.4319C34.1332 20.4598 33.9203 20.4183 33.7367 20.3137C33.0838 19.948 32.3892 19.6624 31.668 19.463C31.4589 19.4046 31.2756 19.2774 31.1476 19.1021C31.0196 18.9267 30.9543 18.7133 30.9623 18.4964V16.7564H27.0957V18.4964C27.1037 18.7133 27.0384 18.9267 26.9104 19.1021C26.7824 19.2774 26.5991 19.4046 26.39 19.463C25.6688 19.6624 24.9742 19.948 24.3213 20.3137C24.1377 20.4183 23.9248 20.4598 23.7153 20.4319C23.5058 20.4039 23.3112 20.3081 23.1613 20.1591L21.5083 18.4964L18.7727 21.232L20.4353 22.885C20.5844 23.0349 20.6802 23.2295 20.7081 23.439C20.7361 23.6485 20.6946 23.8614 20.59 24.045C20.2243 24.6979 19.9387 25.3925 19.7393 26.1137C19.6809 26.3228 19.5537 26.5061 19.3783 26.6341C19.203 26.7622 18.9896 26.8274 18.7727 26.8194H16.4333V30.686C16.4333 30.9424 16.3315 31.1883 16.1502 31.3696C15.9689 31.5509 15.723 31.6527 15.4667 31.6527C15.2103 31.6527 14.9644 31.5509 14.7831 31.3696C14.6018 31.1883 14.5 30.9424 14.5 30.686V25.8527C14.5 25.5963 14.6018 25.3505 14.7831 25.1692C14.9644 24.9879 15.2103 24.886 15.4667 24.886H18.067C18.2023 24.4994 18.3667 24.1224 18.531 23.755L16.6943 21.9184C16.6037 21.8285 16.5318 21.7216 16.4827 21.6038C16.4337 21.486 16.4084 21.3597 16.4084 21.232C16.4084 21.1044 16.4337 20.9781 16.4827 20.8603C16.5318 20.7425 16.6037 20.6356 16.6943 20.5457L20.793 16.4471C20.8829 16.3564 20.9898 16.2845 21.1076 16.2355C21.2254 16.1864 21.3517 16.1611 21.4793 16.1611C21.6069 16.1611 21.7333 16.1864 21.8511 16.2355C21.9689 16.2845 22.0758 16.3564 22.1657 16.4471L24.0023 18.2837C24.3697 18.1194 24.7467 17.9551 25.1333 17.8197V15.8187C25.1333 15.5623 25.2352 15.3165 25.4165 15.1352C25.5977 14.9539 25.8436 14.8521 26.1 14.8521H31.9C32.1564 14.8521 32.4023 14.9539 32.5835 15.1352C32.7648 15.3165 32.8667 15.5623 32.8667 15.8187V17.8197C33.2533 17.9551 33.6303 18.1194 33.9977 18.2837L35.8343 16.4471C35.9242 16.3564 36.0311 16.2845 36.1489 16.2355C36.2667 16.1864 36.3931 16.1611 36.5207 16.1611C36.6483 16.1611 36.7746 16.1864 36.8924 16.2355C37.0102 16.2845 37.1171 16.3564 37.207 16.4471L41.3057 20.5457C41.3963 20.6356 41.4682 20.7425 41.5173 20.8603C41.5663 20.9781 41.5916 21.1044 41.5916 21.232C41.5916 21.3597 41.5663 21.486 41.5173 21.6038C41.4682 21.7216 41.3963 21.8285 41.3057 21.9184L39.469 23.755C39.6333 24.1224 39.7977 24.4994 39.933 24.886H42.5333C42.7897 24.886 43.0356 24.9879 43.2169 25.1692C43.3982 25.3505 43.5 25.5963 43.5 25.8527V30.686C43.5 30.9424 43.3982 31.1883 43.2169 31.3696Z" fill="#D33234"/>
<path d="M33.0409 31.5753C33.1638 31.625 33.2949 31.6512 33.4275 31.6526C33.6145 31.6514 33.7972 31.596 33.9533 31.493C34.1095 31.3901 34.2324 31.244 34.3072 31.0726C34.6328 30.3426 34.8008 29.552 34.8002 28.7526C34.8002 27.2144 34.1891 25.7391 33.1014 24.6514C32.0137 23.5637 30.5385 22.9526 29.0002 22.9526C27.4619 22.9526 25.9867 23.5637 24.899 24.6514C23.8113 25.7391 23.2002 27.2144 23.2002 28.7526C23.1996 29.552 23.3675 30.3426 23.6932 31.0726C23.7952 31.3066 23.9855 31.4908 24.2228 31.585C24.46 31.6792 24.7248 31.6757 24.9595 31.5753C25.0766 31.5249 25.1825 31.4518 25.2712 31.3602C25.3599 31.2687 25.4296 31.1605 25.4763 31.0419C25.523 30.9233 25.5459 30.7966 25.5434 30.6692C25.541 30.5417 25.5134 30.416 25.4622 30.2993C25.2437 29.8131 25.1316 29.2857 25.1335 28.7526C25.1335 27.7271 25.5409 26.7436 26.2661 26.0185C26.9912 25.2934 27.9747 24.886 29.0002 24.886C30.0257 24.886 31.0092 25.2934 31.7343 26.0185C32.4595 26.7436 32.8669 27.7271 32.8669 28.7526C32.8688 29.2857 32.7567 29.8131 32.5382 30.2993C32.487 30.416 32.4594 30.5417 32.457 30.6692C32.4545 30.7966 32.4773 30.9233 32.5241 31.0419C32.5708 31.1605 32.6405 31.2687 32.7292 31.3602C32.8179 31.4518 32.9238 31.5249 33.0409 31.5753Z" fill="#D33234"/>
<path fill-rule="evenodd" clip-rule="evenodd" d="M55.3417 43.2531L57.8067 39.9664C57.9144 39.8228 57.98 39.652 57.9961 39.4732C58.0122 39.2944 57.9782 39.1147 57.8979 38.9541C57.8177 38.7936 57.6942 38.6585 57.5415 38.5641C57.3888 38.4697 57.2129 38.4198 57.0333 38.4198H51.2333V34.5531C51.2333 34.2967 51.1315 34.0508 50.9502 33.8696C50.7689 33.6883 50.523 33.5864 50.2667 33.5864H7.73333C7.47696 33.5864 7.23108 33.6883 7.0498 33.8696C6.86851 34.0508 6.76667 34.2967 6.76667 34.5531V38.4198H0.966667C0.710291 38.4198 0.464416 38.5216 0.28313 38.7029C0.101845 38.8842 0 39.1301 0 39.3864C0 39.6428 0.101845 39.8887 0.28313 40.07C0.464416 40.2512 0.710291 40.3531 0.966667 40.3531H6.76667V42.2864C6.77 42.439 6.80939 42.5886 6.88164 42.723C6.95389 42.8574 7.05693 42.9728 7.18233 43.0598L11.484 46.1531H2.9L4.64 43.8331C4.71617 43.7315 4.77158 43.616 4.80309 43.493C4.8346 43.37 4.84157 43.2421 4.82362 43.1164C4.80567 42.9907 4.76314 42.8698 4.69846 42.7606C4.63378 42.6513 4.54822 42.5559 4.44667 42.4798C4.34511 42.4036 4.22955 42.3482 4.10658 42.3167C3.9836 42.2852 3.85563 42.2782 3.72996 42.2961C3.60429 42.3141 3.48339 42.3566 3.37416 42.4213C3.26492 42.486 3.1695 42.5715 3.09333 42.6731L0.193334 46.5398C0.0856209 46.6834 0.0200285 46.8541 0.00390646 47.0329C-0.0122156 47.2117 0.0217696 47.3915 0.102054 47.5521C0.182339 47.7126 0.30575 47.8477 0.45846 47.9421C0.611171 48.0364 0.787146 48.0864 0.966667 48.0864H14.5C14.7564 48.0864 15.0023 47.9846 15.1835 47.8033C15.3648 47.622 15.4667 47.3761 15.4667 47.1198V43.2531H32.8667C33.123 43.2531 33.3689 43.1512 33.5502 42.97C33.7315 42.7887 33.8333 42.5428 33.8333 42.2864C33.8333 42.03 33.7315 41.7842 33.5502 41.6029C33.3689 41.4216 33.123 41.3198 32.8667 41.3198H8.7V35.5198H49.3V41.3198H36.7333C36.477 41.3198 36.2311 41.4216 36.0498 41.6029C35.8685 41.7842 35.7667 42.03 35.7667 42.2864C35.7667 42.5428 35.8685 42.7887 36.0498 42.97C36.2311 43.1512 36.477 43.2531 36.7333 43.2531H42.5333V47.1198C42.5333 47.3761 42.6352 47.622 42.8165 47.8033C42.9977 47.9846 43.2436 48.0864 43.5 48.0864H57.0333C57.2129 48.0864 57.3888 48.0364 57.5415 47.9421C57.6942 47.8477 57.8177 47.7126 57.8979 47.5521C57.9782 47.3915 58.0122 47.2117 57.9961 47.0329C57.98 46.8541 57.9144 46.6834 57.8067 46.5398L55.3417 43.2531ZM13.5333 45.2444L10.7493 43.2531H13.5333V45.2444ZM47.2507 43.2531L44.4667 45.2444V43.2531H47.2507ZM53.36 43.8331L55.1 46.1531H46.516L50.8273 43.0694C50.9523 42.9805 51.0542 42.8631 51.1248 42.7269C51.1954 42.5908 51.2326 42.4398 51.2333 42.2864V40.3531H55.1L53.36 42.6731C53.2345 42.8404 53.1667 43.0439 53.1667 43.2531C53.1667 43.4622 53.2345 43.6658 53.36 43.8331Z" fill="#D33234"/>
</svg>
