<svg width="247" height="213" viewBox="0 0 247 213" fill="none" xmlns="http://www.w3.org/2000/svg">
<path d="M144.774 17.843L144.774 17.8426C155.83 6.96365 169.785 1 184.06 1C218.054 1 246 34.1084 246 75.1898C246 100.517 233.167 126.93 207.607 153.702C187.191 175.085 163.144 192.013 146.551 202.454C145.958 202.827 145.32 203 144.696 203C143.499 203 142.29 202.361 141.544 201.126L127.654 178.137C126.782 176.693 126.782 174.805 127.653 173.362C127.653 173.362 127.653 173.362 127.653 173.362L143.349 147.384C144.608 145.302 144.608 142.624 143.349 140.541L127.654 114.568C127.654 114.568 127.654 114.568 127.654 114.568C126.783 113.124 126.783 111.236 127.654 109.793C127.654 109.793 127.654 109.793 127.654 109.793L143.35 83.8188C144.608 81.7366 144.608 79.0585 143.349 76.9759L127.654 51.0029C126.783 49.5597 126.783 47.6712 127.654 46.2286C129.378 43.3767 131.051 40.0823 132.753 36.7313C133.67 34.9259 134.595 33.1041 135.541 31.3262C138.276 26.1864 141.218 21.339 144.774 17.843Z" stroke="#4F4F4F" stroke-width="2"/>
<path d="M180.903 11C184.353 11 187.728 11.3848 191 12.12M201.763 142.688C223.817 119.764 235 97.0357 235 75.1325C235 48.53 221.266 25.6586 201.763 15.9595" stroke="#4F4F4F" stroke-width="2"/>
<path d="M60.3857 166.371L61.0692 165.641C86.0503 189.03 113.061 205.528 123.513 211.535C124.063 211.851 124.65 212 125.226 212C126.242 212 127.269 211.536 128.021 210.612L128.021 210.611C129.214 209.146 129.368 206.941 128.373 205.278L113.654 180.701C112.399 178.605 112.399 175.911 113.654 173.816L129.345 147.614C129.345 147.614 129.345 147.614 129.345 147.614C130.218 146.155 130.218 144.244 129.344 142.784L60.3857 166.371ZM60.3857 166.371L61.0691 165.641C28.3955 135.051 12 104.836 12 75.8367C12 34.3902 39.9442 1.00099 73.9191 1C92.1415 1 109.397 10.6443 121.231 27.578C122.259 29.0493 122.33 31.1057 121.396 32.664L113.655 45.5896C112.399 47.6854 112.399 50.3798 113.655 52.4755L129.344 78.672C130.218 80.132 130.218 82.0435 129.344 83.5028L113.654 109.701C112.399 111.796 112.399 114.491 113.654 116.587C113.654 116.587 113.654 116.587 113.654 116.587L129.344 142.784L60.3857 166.371Z" stroke="#4F4F4F" stroke-width="2"/>
<path d="M1 79C1 112.879 22.0465 147.989 63.5552 183.351M93 206C91.0172 204.614 89.0151 203.19 87 201.73" stroke="#4F4F4F" stroke-width="2"/>
</svg>
