<svg width="58" height="59" viewBox="0 0 58 59" fill="none" xmlns="http://www.w3.org/2000/svg">
<path d="M26.3 14.6606H24.5V16.4606H26.3V14.6606Z" fill="#D33234"/>
<path d="M28.0986 18.2603H29.8986V20.0603H28.0986V18.2603Z" fill="#D33234"/>
<path d="M26.3 25.4604H24.5V27.2604H26.3V25.4604Z" fill="#D33234"/>
<path d="M26.3 29.0601H24.5V30.8601H26.3V29.0601Z" fill="#D33234"/>
<path d="M29.8986 21.8599H28.0986V23.6599H29.8986V21.8599Z" fill="#D33234"/>
<path d="M28.0986 25.4604H29.8986V27.2604H28.0986V25.4604Z" fill="#D33234"/>
<path d="M29.8986 29.0601H28.0986V30.8601H29.8986V29.0601Z" fill="#D33234"/>
<path d="M31.7007 18.2603H33.5007V20.0603H31.7007V18.2603Z" fill="#D33234"/>
<path d="M28.0986 14.6606H29.8986V16.4606H28.0986V14.6606Z" fill="#D33234"/>
<path d="M33.5007 14.6606H31.7007V16.4606H33.5007V14.6606Z" fill="#D33234"/>
<path d="M31.7007 21.8599H33.5007V23.6599H31.7007V21.8599Z" fill="#D33234"/>
<path d="M33.5007 25.4604H31.7007V27.2604H33.5007V25.4604Z" fill="#D33234"/>
<path d="M31.7007 29.0601H33.5007V30.8601H31.7007V29.0601Z" fill="#D33234"/>
<path d="M37.0993 18.2603H35.2993V20.0603H37.0993V18.2603Z" fill="#D33234"/>
<path d="M35.2993 21.8599H37.0993V23.6599H35.2993V21.8599Z" fill="#D33234"/>
<path d="M37.0993 25.4604H35.2993V27.2604H37.0993V25.4604Z" fill="#D33234"/>
<path d="M35.2993 29.0601H37.0993V30.8601H35.2993V29.0601Z" fill="#D33234"/>
<path d="M22.7014 32.6606H20.9014V34.4606H22.7014V32.6606Z" fill="#D33234"/>
<path d="M24.5 32.6606H26.3V34.4606H24.5V32.6606Z" fill="#D33234"/>
<path d="M29.8986 32.6606H28.0986V34.4606H29.8986V32.6606Z" fill="#D33234"/>
<path d="M31.7007 32.6606H33.5007V34.4606H31.7007V32.6606Z" fill="#D33234"/>
<path d="M37.0993 32.6606H35.2993V34.4606H37.0993V32.6606Z" fill="#D33234"/>
<path d="M22.7014 18.2603H20.9014V20.0603H22.7014V18.2603Z" fill="#D33234"/>
<path d="M22.7014 21.8599H20.9014V23.6599H22.7014V21.8599Z" fill="#D33234"/>
<path d="M20.9014 25.4604H22.7014V27.2604H20.9014V25.4604Z" fill="#D33234"/>
<path d="M22.7014 29.0601H20.9014V30.8601H22.7014V29.0601Z" fill="#D33234"/>
<path d="M24.5 18.2603H26.3V20.0603H24.5V18.2603Z" fill="#D33234"/>
<path d="M26.3 21.8599H24.5V23.6599H26.3V21.8599Z" fill="#D33234"/>
<path d="M46.0993 38.8608V26.2608C46.0993 25.7638 45.6964 25.3608 45.1993 25.3608C44.7023 25.3608 44.2993 25.7638 44.2993 26.2608V38.8608C44.2993 39.3579 44.7023 39.7608 45.1993 39.7608C45.6964 39.7608 46.0993 39.3579 46.0993 38.8608Z" fill="#D33234"/>
<path d="M51.5007 26.2608V38.8608C51.5007 39.3579 51.0977 39.7608 50.6007 39.7608C50.1036 39.7608 49.7007 39.3579 49.7007 38.8608V26.2608C49.7007 25.7638 50.1036 25.3608 50.6007 25.3608C51.0977 25.3608 51.5007 25.7638 51.5007 26.2608Z" fill="#D33234"/>
<path d="M8.3 38.8608V26.2608C8.3 25.7638 7.89706 25.3608 7.4 25.3608C6.90294 25.3608 6.5 25.7638 6.5 26.2608V38.8608C6.5 39.3579 6.90294 39.7608 7.4 39.7608C7.89706 39.7608 8.3 39.3579 8.3 38.8608Z" fill="#D33234"/>
<path d="M13.6979 26.2608V38.8608C13.6979 39.3579 13.295 39.7608 12.7979 39.7608C12.3009 39.7608 11.8979 39.3579 11.8979 38.8608V26.2608C11.8979 25.7638 12.3009 25.3608 12.7979 25.3608C13.295 25.3608 13.6979 25.7638 13.6979 26.2608Z" fill="#D33234"/>
<path fill-rule="evenodd" clip-rule="evenodd" d="M36.4017 4.66064C36.8985 4.66098 37.301 5.06384 37.3007 5.56064V10.7617C37.3003 11.2585 36.8975 11.661 36.4007 11.6606H21.5997C21.1029 11.6603 20.7003 11.2574 20.7007 10.7606V5.55963C20.701 5.06283 21.1039 4.66031 21.6007 4.66064H36.4017ZM22.5007 9.86064H35.5007V6.46064H22.5007V9.86064Z" fill="#333333"/>
<path fill-rule="evenodd" clip-rule="evenodd" d="M57.101 14.1606C57.5978 14.161 58.0003 14.5638 58 15.0606V51.4617C57.9997 51.9585 57.5968 52.361 57.1 52.3606H53.2187C53.271 52.6579 53.2982 52.9589 53.3 53.2606V57.7617C53.2997 58.2585 52.8968 58.661 52.4 58.6606H5.59899C5.10219 58.6603 4.69966 58.2574 4.7 57.7606V53.2606C4.70191 52.9589 4.72914 52.6579 4.78134 52.3606H0.898988C0.402188 52.3603 -0.000336865 51.9574 2.11547e-07 51.4606V15.0596C0.000338135 14.5628 0.403201 14.1603 0.900001 14.1606H16.4V1.55963C16.4003 1.06283 16.8032 0.660307 17.3 0.660645H40.701C41.1978 0.660982 41.6003 1.06384 41.6 1.56064V14.1606H57.101ZM38.9 45.1606C39.8942 45.1606 40.7 44.3548 40.7 43.3606C40.6988 42.367 39.8936 41.5619 38.9 41.5606C37.9058 41.5606 37.1 42.3665 37.1 43.3606C37.1 44.3548 37.9058 45.1606 38.9 45.1606ZM20.9 43.3606C20.9 42.3665 20.0942 41.5606 19.1 41.5606C18.1064 41.5619 17.3012 42.367 17.3 43.3606C17.3 44.3548 18.1058 45.1606 19.1 45.1606C20.0942 45.1606 20.9 44.3548 20.9 43.3606ZM6.5 56.8606H13.7V53.2606C13.7 51.2724 12.0882 49.6606 10.1 49.6606C8.11179 49.6606 6.5 51.2724 6.5 53.2606V56.8606ZM10.1 44.2606C9.10584 44.2606 8.3 45.0665 8.3 46.0606C8.30124 47.0542 9.1064 47.8594 10.1 47.8606C11.0942 47.8606 11.9 47.0548 11.9 46.0606C11.9 45.0665 11.0942 44.2606 10.1 44.2606ZM12.7042 48.5329C13.1164 48.7619 13.4969 49.0436 13.8363 49.371C14.1785 47.8666 15.1459 46.5796 16.4958 45.8329C15.2058 44.4963 15.1641 42.3912 16.4 41.0044V15.9606H1.8V50.5605H5.43057C5.9231 49.7104 6.6368 49.0096 7.49585 48.5328C6.16801 47.1418 6.16801 44.9526 7.49585 43.5616C8.86869 42.1234 11.1475 42.0703 12.5857 43.4431C14.0239 44.8159 14.0769 47.0947 12.7042 48.5329ZM15.5 56.8606H22.7V50.5606C22.7 48.5724 21.0882 46.9606 19.1 46.9606C17.1118 46.9606 15.5 48.5724 15.5 50.5606V56.8606ZM24.5 50.5606V56.8606H33.5V50.5606C33.5 48.0754 31.4852 46.0606 29 46.0606C26.5148 46.0606 24.5 48.0754 24.5 50.5606ZM29 38.8606C27.5088 38.8606 26.3 40.0695 26.3 41.5606C26.3016 43.0512 27.5095 44.2591 29 44.2606C30.4912 44.2606 31.7 43.0518 31.7 41.5606C31.7 40.0695 30.4912 38.8606 29 38.8606ZM31.899 44.9733C32.9819 45.5382 33.8786 46.4039 34.4812 47.4663C34.9544 46.7913 35.5749 46.2328 36.2958 45.8329C35.6545 45.1624 35.2975 44.2695 35.3 43.3416C35.3053 41.3586 36.9171 39.7554 38.9 39.7606C39.2042 39.7646 39.5067 39.8076 39.8 39.8884V2.46064H18.2V39.8884C19.4255 39.5513 20.7378 39.8901 21.6467 40.7787C23.0583 42.1585 23.084 44.4214 21.7041 45.8329C22.425 46.2328 23.0456 46.7913 23.5188 47.4663C24.1214 46.4039 25.0181 45.5382 26.101 44.9733C25.9048 44.8081 25.7232 44.6265 25.5581 44.4304C23.9571 42.5295 24.2001 39.6906 26.101 38.0895C28.0019 36.4885 30.8408 36.7315 32.4419 38.6324C34.0429 40.5333 33.7999 43.3722 31.899 44.9733ZM42.5 56.8606V50.5606C42.5 48.5724 40.8882 46.9606 38.9 46.9606C36.9118 46.9606 35.3 48.5724 35.3 50.5606V56.8606H42.5ZM44.3 56.8606H51.5V53.2606C51.5 51.2724 49.8882 49.6606 47.9 49.6606C45.9118 49.6606 44.3 51.2724 44.3 53.2606V56.8606ZM47.9 44.2606C46.9058 44.2606 46.1 45.0665 46.1 46.0606C46.1012 47.0542 46.9064 47.8594 47.9 47.8606C48.8942 47.8606 49.7 47.0548 49.7 46.0606C49.7 45.0665 48.8942 44.2606 47.9 44.2606ZM52.5694 50.5606H56.2L56.2001 15.9606H41.6001V41.0043C42.836 42.3911 42.7942 44.4962 41.5042 45.8328C42.8541 46.5795 43.8216 47.8665 44.1636 49.3708C44.5029 49.0435 44.8836 48.7618 45.2958 48.5328C43.968 47.1418 43.968 44.9526 45.2958 43.5616C46.6687 42.1234 48.9475 42.0704 50.3857 43.4431C51.8239 44.8159 51.8769 47.0947 50.5042 48.5329C51.3632 49.0097 52.0769 49.7105 52.5694 50.5606Z" fill="#333333"/>
</svg>
