<svg width="58" height="58" viewBox="0 0 58 58" fill="none" xmlns="http://www.w3.org/2000/svg">
<path fill-rule="evenodd" clip-rule="evenodd" d="M16.2136 37.4898L20.3359 38.394C22.9933 38.9769 24.9219 41.3746 24.9219 44.0951V45.5017C24.9219 46.1272 24.4146 46.6345 23.7891 46.6345C23.1635 46.6345 22.6562 46.1272 22.6562 45.5017V44.0951C22.6562 42.4306 21.4762 40.9635 19.8504 40.6069L14.838 39.5074C14.3184 39.3934 13.948 38.933 13.948 38.4009V37.7487C13.4715 37.8675 12.9736 37.9317 12.4609 37.9317C11.9585 37.9317 11.4704 37.8696 11.0027 37.7553V38.4008C11.0027 38.9333 10.632 39.3938 10.1118 39.5075L5.07387 40.6091C3.4467 40.9648 2.26562 42.432 2.26562 44.0977V55.7347H22.6562V54.7718C22.6562 54.1463 23.1635 53.639 23.7891 53.639C24.4146 53.639 24.9219 54.1463 24.9219 54.7718V56.8675C24.9219 57.4931 24.4146 58.0003 23.7891 58.0003H1.13281C0.507273 58.0003 0 57.4931 0 56.8675V44.0977C0 41.3752 1.93031 38.9771 4.59016 38.3957L8.73716 37.489V36.6698C7.26801 35.5463 6.31781 33.7766 6.31781 31.7884V27.78C6.31781 24.3926 9.07372 21.6367 12.4611 21.6367C15.8484 21.6367 18.6043 24.3926 18.6043 27.78V31.7884C18.6043 33.7635 17.6663 35.5227 16.2136 36.6473V37.4898ZM8.58332 27.78V31.7884C8.58332 33.9266 10.3228 35.666 12.4609 35.666C14.5991 35.666 16.3386 33.9266 16.3386 31.7884V27.78C16.3386 25.6418 14.5991 23.9023 12.4609 23.9023C10.3228 23.9023 8.58332 25.6418 8.58332 27.78Z" fill="#D33234"/>
<path d="M22.9882 49.4393C23.1989 49.2285 23.4911 49.1074 23.7891 49.1074C24.087 49.1074 24.3793 49.2285 24.5898 49.4393C24.8007 49.65 24.9219 49.9423 24.9219 50.2402C24.9219 50.5382 24.8006 50.8304 24.5898 51.041C24.3793 51.2518 24.087 51.373 23.7891 51.373C23.4911 51.373 23.1989 51.2517 22.9882 51.041C22.7773 50.8304 22.6562 50.5382 22.6562 50.2402C22.6562 49.9423 22.7775 49.6502 22.9882 49.4393Z" fill="#D33234"/>
<path d="M6.28711 10.9512H23.2793C23.9048 10.9512 24.4121 11.4584 24.4121 12.084C24.4121 12.7095 23.9048 13.2168 23.2793 13.2168H6.28711C5.66157 13.2168 5.1543 12.7095 5.1543 12.084C5.1543 11.4584 5.66157 10.9512 6.28711 10.9512Z" fill="#333333"/>
<path d="M6.28711 7.74023H27.499C28.1246 7.74023 28.6318 7.23296 28.6318 6.60742C28.6318 5.98188 28.1246 5.47461 27.499 5.47461H6.28711C5.66157 5.47461 5.1543 5.98188 5.1543 6.60742C5.1543 7.23296 5.66157 7.74023 6.28711 7.74023Z" fill="#333333"/>
<path d="M32.8311 7.40821C32.6205 7.62004 32.3282 7.74023 32.0303 7.74023C31.7323 7.74023 31.4401 7.62016 31.2294 7.40821C31.0186 7.19762 30.8975 6.90535 30.8975 6.60742C30.8975 6.30949 31.0187 6.01836 31.2294 5.80652C31.4401 5.59571 31.7323 5.47461 32.0303 5.47461C32.3282 5.47461 32.6205 5.59582 32.8311 5.80652C33.0419 6.01836 33.1631 6.30949 33.1631 6.60742C33.1631 6.90535 33.0418 7.19762 32.8311 7.40821Z" fill="#333333"/>
<path fill-rule="evenodd" clip-rule="evenodd" d="M51.6823 31.7881V30.1328H54.6016C56.4755 30.1328 58 28.6083 58 26.7344V15.8594C58 13.9855 56.4755 12.4609 54.6016 12.4609H49.6981C49.0725 12.4609 48.5653 12.9682 48.5653 13.5938C48.5653 14.2193 49.0725 14.7266 49.6981 14.7266H54.6016C55.2262 14.7266 55.7344 15.2347 55.7344 15.8594V26.7344C55.7344 27.359 55.2262 27.8672 54.6016 27.8672H51.6823V27.7797C51.6823 24.3924 48.9264 21.6365 45.5391 21.6365C42.1517 21.6365 39.3958 24.3924 39.3958 27.7797V27.8672H35.5703C34.9448 27.8672 34.4375 28.3745 34.4375 29V30.7963L31.8401 28.1989C31.6276 27.9866 31.3395 27.8672 31.0391 27.8672H29.2266C28.6019 27.8672 28.0938 27.359 28.0938 26.7344V15.8594C28.0938 15.2347 28.6019 14.7266 29.2266 14.7266H40.5286C41.1542 14.7266 41.6614 14.2193 41.6614 13.5938C41.6614 12.9682 41.1542 12.4609 40.5286 12.4609H38.4779V3.39844C38.4779 1.52454 36.9534 0 35.0795 0H3.39844C1.52454 0 0 1.52454 0 3.39844V15.293C0 17.1669 1.52454 18.6914 3.39844 18.6914H18.1061V21.108C18.1061 21.5663 18.3821 21.9793 18.8054 22.1545C18.9455 22.2126 19.0926 22.2408 19.2387 22.2408C19.5334 22.2408 19.8232 22.1258 20.0399 21.909L23.2577 18.6914H25.8281V26.7344C25.8281 28.6083 27.3527 30.1328 29.2266 30.1328H30.5697L34.7692 34.3323C34.9859 34.549 35.2757 34.6641 35.5704 34.6641C35.7163 34.6641 35.8636 34.6359 36.0037 34.5779C36.4269 34.4025 36.703 33.9895 36.703 33.5312V30.1328H39.3957V31.7881C39.3957 33.7763 40.3459 35.546 41.8151 36.6695V37.4886L37.6681 38.3953C35.0084 38.9768 33.0781 41.3748 33.0781 44.0973V56.8672C33.0781 57.4927 33.5854 58 34.2109 58H56.8672C57.4927 58 58 57.4927 58 56.8672V44.0947C58 41.3743 56.0714 38.9766 53.414 38.3936L49.2917 37.4894V36.6469C50.7445 35.5223 51.6823 33.7631 51.6823 31.7881ZM22.7885 16.4258C22.488 16.4258 22.2 16.5452 21.9874 16.7576L20.3717 18.3733V17.5586C20.3717 16.9331 19.8644 16.4258 19.2389 16.4258H3.39844C2.7738 16.4258 2.26562 15.9176 2.26562 15.293V3.39844C2.26562 2.7738 2.7738 2.26562 3.39844 2.26562H35.0795C35.7041 2.26562 36.2123 2.7738 36.2123 3.39844V12.4609H29.2266C27.3527 12.4609 25.8281 13.9855 25.8281 15.8594V16.4258H22.7885ZM44.0808 37.7551C44.5485 37.8694 45.0367 37.9314 45.5391 37.9314C46.0518 37.9314 46.5496 37.8673 47.0261 37.7485V38.1995L45.5535 42.2128L44.0808 38.1995V37.7551ZM45.5391 23.902C47.6772 23.902 49.4167 25.6414 49.4167 27.7796V28.6392H47.7459C45.5702 28.6392 43.5184 27.8378 41.9253 26.3761C42.4891 24.9299 43.8958 23.902 45.5391 23.902ZM41.6614 29.0488C43.4444 30.2557 45.5452 30.9048 47.746 30.9048H49.4168V31.7881C49.4168 33.9263 47.6774 35.6657 45.5392 35.6657C43.401 35.6657 41.6616 33.9263 41.6616 31.7881L41.6614 29.0488ZM52.9285 40.6066C54.5543 40.9632 55.7344 42.4303 55.7344 44.0947V55.7344H35.3438V44.0973C35.3438 42.4316 36.5248 40.9644 38.152 40.6087L42.2249 39.7182L44.4901 45.8915C44.6537 46.3376 45.0783 46.6342 45.5536 46.6342C46.0288 46.6342 46.4534 46.3377 46.617 45.8915L48.882 39.7188L52.9285 40.6066Z" fill="#333333"/>
<path d="M45.1676 14.7266C45.4656 14.7266 45.7567 14.6054 45.9674 14.3945C46.1792 14.1839 46.2994 13.8917 46.2994 13.5938C46.2994 13.2958 46.1792 13.0036 45.9674 12.7929C45.7568 12.5821 45.4656 12.4609 45.1676 12.4609C44.8686 12.4609 44.5763 12.582 44.3656 12.7929C44.1549 13.0037 44.0337 13.2958 44.0337 13.5938C44.0337 13.8917 44.1548 14.1839 44.3656 14.3945C44.5763 14.6054 44.8686 14.7266 45.1676 14.7266Z" fill="#333333"/>
</svg>
