<svg width="58" height="59" viewBox="0 0 58 59" fill="none" xmlns="http://www.w3.org/2000/svg">
<path fill-rule="evenodd" clip-rule="evenodd" d="M40.361 0.660645H55.4283C56.8462 0.660645 58 1.81006 58 3.22248V13.1085C58 14.521 56.8462 15.6704 55.4283 15.6704H50.0365L41.7643 20.8205L42.6507 15.6704H40.361C38.9432 15.6704 37.7894 14.521 37.7894 13.1085V3.22248C37.7894 1.81006 38.9432 0.660645 40.361 0.660645ZM55.3294 13.9625C55.8018 13.9625 56.1866 13.5791 56.1866 13.1085V3.22248C56.1866 2.75196 55.8018 2.36854 55.3294 2.36854H40.361C39.8887 2.36854 39.5038 2.75196 39.5038 3.22248V13.1085C39.5038 13.5791 39.8887 13.9625 40.361 13.9625H44.684L44.1002 17.3518L49.5444 13.9625H55.3294Z" fill="#333333"/>
<path fill-rule="evenodd" clip-rule="evenodd" d="M41.0849 45.8976L43.0693 51.8291H24.6751L25.9772 53.1237L21.8017 56.9348C20.695 58.0381 19.1889 58.6606 17.5859 58.6606C15.9829 58.6606 14.4759 58.0381 13.3426 56.9092L1.7573 45.3681C0.624056 44.2392 0 42.7388 0 41.142C0 39.5451 0.624056 38.0438 1.7573 36.9149L5.58393 33.1029L11.9394 39.4341L8.55335 42.8063C8.21903 43.1393 8.21903 43.6816 8.55335 44.0146L11.473 46.9232L11.8159 45.8976C12.5086 43.8268 14.2787 42.2982 16.4346 41.9071L22.1643 40.8687V40.4263C20.0607 39.2103 18.5211 37.1335 18.0402 34.6793C16.4818 34.3582 15.3065 32.9808 15.3065 31.3344V25.3568C15.3065 19.2357 20.3058 14.2555 26.4504 14.2555C32.595 14.2555 37.5943 19.2357 37.5943 25.3568V35.6041C37.5943 37.0165 36.4404 38.166 35.0226 38.166H33.2919C32.601 39.0788 31.7334 39.8499 30.7365 40.4263V40.8687L36.4653 41.9071C38.6221 42.2982 40.3914 43.8268 41.0849 45.8976ZM35.0226 36.4581C35.4949 36.4581 35.8798 36.0755 35.8798 35.6041V34.2754C35.5652 34.4581 35.2275 34.6033 34.8606 34.6793C34.7389 35.2984 34.5503 35.8936 34.3017 36.4581H35.0226ZM35.0226 29.8639V32.8049C35.5326 32.5086 35.8798 31.9638 35.8798 31.3344C35.8798 30.705 35.5326 30.1602 35.0226 29.8639ZM17.021 31.3344C17.021 31.9638 17.3681 32.5086 17.8782 32.8049V29.8639C17.3681 30.1602 17.021 30.705 17.021 31.3344ZM17.8782 28.0399V27.0647H18.7354C21.2702 27.0647 23.6533 26.0809 25.4466 24.2953L26.4504 23.2954L27.4542 24.2953C29.2475 26.0809 31.6306 27.0647 34.1654 27.0647H35.0226V28.0399C35.3278 28.1184 35.6141 28.2388 35.8798 28.3934V25.3568C35.8798 20.1776 31.6494 15.9634 26.4504 15.9634C21.2514 15.9634 17.021 20.1776 17.021 25.3568V28.3934C17.2867 28.2388 17.573 28.1193 17.8782 28.0399ZM19.5926 28.7401V33.0423C19.5926 36.809 22.6692 39.8738 26.4504 39.8738C28.1828 39.8738 29.7627 39.2257 30.9714 38.166H26.4504V36.4581H32.3806C32.967 35.4521 33.3082 34.2873 33.3082 33.0423V28.7401C30.7339 28.548 28.3337 27.4891 26.4504 25.7052C24.5671 27.4891 22.1669 28.5471 19.5926 28.7401ZM29.0221 41.2282V41.1881C28.2094 41.4425 27.3462 41.5817 26.4504 41.5817C25.5546 41.5817 24.6914 41.4425 23.8787 41.1881V41.2282L26.4504 43.79L29.0221 41.2282ZM16.7407 43.5859C15.2002 43.866 13.9358 44.9582 13.4412 46.4373L12.8274 48.2733L14.6996 50.1383C15.0236 50.4619 15.5886 50.4619 15.9117 50.1383L19.6218 46.7951L22.9606 50.1212H40.6914L39.4579 46.4381C38.9632 44.9582 37.6988 43.8669 36.1584 43.5868L30.1673 42.5023L26.4504 46.205L22.7326 42.5014L16.7407 43.5859ZM9.51429 39.4341L5.58308 35.5179L4.65214 36.4453L8.58335 40.3615L9.51429 39.4341ZM17.5842 56.9528C18.7286 56.9528 19.8052 56.5078 20.6144 55.7034L21.1065 55.2543L17.1573 51.3201L17.093 51.3773C16.6387 51.8316 15.9932 52.0981 15.3057 52.0981C14.6182 52.0981 13.9727 51.8308 13.4866 51.3475L7.33952 45.2238C6.33743 44.2247 6.33743 42.5996 7.33952 41.6005L7.37038 41.5698L3.43917 37.6536L2.9677 38.1233C2.15848 38.9294 1.71273 40.0019 1.71273 41.1428C1.71273 42.2828 2.15848 43.3554 2.9677 44.1615L14.553 55.7017C15.3631 56.5079 16.4398 56.9528 17.5842 56.9528ZM18.4311 50.1724L22.3717 54.098L23.4973 53.0716L19.5635 49.1528L18.4311 50.1724Z" fill="#333333"/>
<path d="M26.4513 4.73364C15.2508 4.73364 5.60279 12.4516 3.09457 23.2173L1.47013 20.5197L0 21.3984L3.01313 26.3999L8.03387 23.3983L7.15179 21.9338L4.82872 23.3223C7.25809 13.4738 16.1483 6.44153 26.4513 6.44153C28.7032 6.44153 30.9251 6.77457 33.0553 7.43211L33.5628 5.80107C31.268 5.0923 28.8755 4.73364 26.4513 4.73364Z" fill="#D33234"/>
<path d="M55.8426 24.6244L50.8218 21.6228L47.8096 26.6252L49.2797 27.5039L50.7798 25.0129C51.5693 27.3143 51.9731 29.7216 51.9731 32.1886C51.9731 37.267 50.2072 42.2319 47.0021 46.1677L48.3333 47.2437C51.7862 43.0047 53.6875 37.6573 53.6875 32.1886C53.6875 29.5764 53.2649 27.0257 52.4411 24.5834L54.9605 26.0889L55.8426 24.6244Z" fill="#D33234"/>
<path d="M42.8958 4.73364H52.1022C52.6646 4.73364 53.1204 5.18949 53.1204 5.75181C53.1204 6.31413 52.6646 6.76997 52.1022 6.76997H42.8958C42.3335 6.76997 41.8776 6.31413 41.8776 5.75181C41.8776 5.18949 42.3335 4.73364 42.8958 4.73364Z" fill="#D33234"/>
<path d="M42.8958 8.80572H48.014C48.5763 8.80572 49.0321 9.26157 49.0321 9.82389C49.0321 10.3862 48.5763 10.8421 48.014 10.8421H42.8958C42.3335 10.8421 41.8776 10.3862 41.8776 9.82389C41.8776 9.26157 42.3335 8.80572 42.8958 8.80572Z" fill="#D33234"/>
<path d="M51.0761 9.82389C51.0761 10.3862 51.5359 10.8421 52.0982 10.8421C52.6605 10.8421 53.1203 10.3862 53.1203 9.82389C53.1203 9.26157 52.6605 8.80572 52.0982 8.80572C51.5359 8.80572 51.0761 9.26157 51.0761 9.82389Z" fill="#D33234"/>
</svg>
