<svg width="52" height="49" viewBox="0 0 52 49" fill="none" xmlns="http://www.w3.org/2000/svg">
<path d="M48.5611 29.4589C46.6223 29.4589 47.0618 29.4589 45.0877 29.4589C44.7636 29.4589 44.5006 29.189 44.5006 28.8574C44.4982 24.4977 41.0098 20.9522 36.7239 20.9522H32.8673C33.276 18.5598 33.266 18.6522 33.266 18.5485C33.266 17.6621 32.5575 16.9424 31.6867 16.9424H19.6226C19.9586 15.4484 19.9602 13.8383 19.5817 12.2862C19.4806 11.8694 19.0668 11.6153 18.6558 11.7181C18.246 11.8206 17.996 12.2426 18.0968 12.6598C19.913 20.1522 11.7317 25.982 5.45349 21.8233C-1.54319 17.2115 1.7675 6.2139 9.99245 6.2139C12.8191 6.2139 15.4324 7.65219 16.9836 10.0608C17.2141 10.4206 17.6882 10.5215 18.042 10.2859C18.3947 10.0507 18.4947 9.56857 18.263 9.2095C16.5694 6.57862 13.8038 4.9273 10.7573 4.68927V1.55529H12.4399C12.862 1.55529 13.2043 1.20712 13.2043 0.777847C13.2043 0.348175 12.862 0 12.4399 0H7.54504C7.12292 0 6.78015 0.348175 6.78015 0.777847C6.78015 1.20712 7.12292 1.55529 7.54504 1.55529H9.22756V4.68806C4.13715 5.08626 0.115527 9.42575 0.115527 14.7024C0.115527 17.832 1.52986 20.6311 3.74161 22.4749C-0.0257078 39.4652 0.916916 35.0648 0.0429261 39.5415C-0.126476 40.4053 0.214312 41.2723 0.909775 41.7504C1.60643 42.2268 1.82899 42.1183 5.79706 42.1183C6.32074 45.9595 10.4566 48.1345 13.849 46.3295C14.2231 46.1294 14.3668 45.6598 14.1712 45.2789C13.9744 44.8985 13.5122 44.7524 13.1381 44.9513C10.1932 46.5256 6.70794 43.9241 7.34707 40.563C7.70492 38.687 9.33269 37.2673 11.2802 37.2673C14.2172 37.2673 16.1739 40.4016 14.8932 43.1043C14.7103 43.4912 14.8706 43.956 15.2511 44.1424C15.6311 44.328 16.0882 44.1654 16.2718 43.7785C16.5214 43.2496 16.6868 42.694 16.7642 42.1183C29.6404 42.1183 20.8251 42.1195 32.0445 42.1195C32.4178 44.8569 34.7347 46.9706 37.5277 46.9706C40.3195 46.9706 42.6375 44.8569 43.0105 42.1195H47.8359C49.0125 42.1195 50.0373 41.3086 50.3269 40.1491C50.3273 40.1475 51.8904 33.8936 51.8904 33.892C52.4466 31.6622 50.8169 29.4589 48.5611 29.4589ZM5.79706 40.563H2.09678C1.70482 40.563 1.47075 40.214 1.54295 39.8441L2.04679 37.2673H7.46331C6.5794 38.1238 5.97241 39.2748 5.79706 40.563ZM27.9515 40.563C26.2138 40.563 18.1555 40.563 16.763 40.563C16.5876 39.2748 15.981 38.1238 15.0971 37.2673H28.5295L27.9515 40.563ZM2.37489 35.712L5.09882 23.4258C10.2543 26.4286 16.8713 24.1278 19.137 18.4977C19.1814 18.4977 31.7065 18.4839 31.7295 18.5227C31.0757 22.3591 31.2614 21.2706 28.7989 35.712C27.3794 35.712 3.46232 35.712 2.37489 35.712ZM41.4604 42.1195C41.1026 43.9951 39.474 45.4149 37.5277 45.4149C35.3112 45.4149 33.5211 43.5792 33.5211 41.3405C33.5211 39.1005 35.314 37.2673 37.5277 37.2673C40.0386 37.2673 41.9393 39.602 41.4604 42.1195ZM48.8443 39.7666C48.7269 40.2362 48.3119 40.5638 47.8359 40.5638H43.0105C42.6383 37.826 40.3207 35.712 37.5277 35.712C34.7335 35.712 32.4167 37.826 32.0445 40.5638H29.5055C30.4485 35.1778 29.6658 39.7307 32.6023 22.5079H36.7239C40.1667 22.5079 42.9688 25.3567 42.9708 28.8574C42.9708 30.0468 43.9202 31.0142 45.0877 31.0142H46.2414C47.0785 32.6627 48.4424 33.9933 50.0909 34.7768C50.0901 34.7796 48.8451 39.7638 48.8443 39.7666ZM50.4578 33.2267C49.4807 32.7043 48.6408 31.9409 48.0191 31.0142C48.5345 31.0142 49.4228 30.898 50.0762 31.7981C50.3785 32.2149 50.511 32.7232 50.4578 33.2267Z" fill="#333333"/>
<path d="M37.5275 38.2173C35.8359 38.2173 34.4561 39.616 34.4561 41.3404C34.4561 43.0595 35.8299 44.4639 37.5275 44.4639C38.9569 44.4639 40.1614 43.4661 40.5018 42.1194C41.0009 40.155 39.5381 38.2173 37.5275 38.2173ZM38.8653 42.1194C38.2714 43.17 36.784 43.1708 36.1894 42.1194C35.6006 41.0769 36.3473 39.7726 37.5275 39.7726C38.711 39.7726 39.4524 41.0798 38.8653 42.1194Z" fill="#333333"/>
<path d="M39.8714 25.2733C39.5456 25.5472 39.5004 26.0374 39.7694 26.3686C40.1372 26.8201 40.3395 27.3897 40.3395 27.9723C40.3395 28.0449 40.355 28.1398 40.2843 28.1398H34.2001C34.1799 28.1398 34.1609 28.126 34.1513 28.1079C34.5695 25.4826 34.5564 25.6057 34.5564 25.5032C34.5564 25.4116 34.4786 25.4471 37.6576 25.4471C38.0797 25.4471 38.4225 25.099 38.4225 24.6693C38.4225 24.24 38.0797 23.8918 37.6576 23.8918H34.6115C33.7618 23.8918 33.0659 24.5757 33.0286 25.4306L32.6255 27.9594C32.5045 28.7143 33.1679 29.695 34.2001 29.695H40.2843C41.0929 29.695 41.8693 29.0762 41.8693 27.9723C41.8693 27.0287 41.542 26.1068 40.9481 25.3769C40.6787 25.0457 40.1967 24.9997 39.8714 25.2733Z" fill="#333333"/>
<path d="M36.2396 31.8174H34.2004C33.7783 31.8174 33.4355 32.1656 33.4355 32.5952C33.4355 33.0245 33.7783 33.3731 34.2004 33.3731H36.2396C36.6621 33.3731 37.0045 33.0245 37.0045 32.5952C37.0045 32.1656 36.6621 31.8174 36.2396 31.8174Z" fill="#333333"/>
<path d="M11.2795 38.2173C9.84972 38.2173 8.64565 39.2158 8.30486 40.5629C7.80856 42.5176 9.26177 44.4639 11.2795 44.4639C12.7093 44.4639 13.9134 43.4653 14.2542 42.1182C14.7549 40.1462 13.2802 38.2173 11.2795 38.2173ZM11.2795 42.9086C10.0981 42.9086 9.35064 41.6002 9.94176 40.5629C10.7285 39.1674 12.8212 39.7447 12.8212 41.3404C12.8212 42.209 12.1269 42.9086 11.2795 42.9086Z" fill="#333333"/>
<path d="M5.14186 44.7163C5.14186 44.2867 4.79949 43.9385 4.37697 43.9385H1.41977C0.997649 43.9385 0.655273 44.2867 0.655273 44.7163C0.655273 45.1456 0.997649 45.4938 1.41977 45.4938H4.37697C4.79949 45.4938 5.14186 45.146 5.14186 44.7163Z" fill="#D33234"/>
<path d="M9.00084 26.7932C9.00084 26.3636 8.65847 26.0154 8.23595 26.0154H6.23169C5.80917 26.0154 5.4668 26.3636 5.4668 26.7932C5.4668 27.2229 5.80917 27.5711 6.23169 27.5711H8.23595C8.65847 27.5711 9.00084 27.2229 9.00084 26.7932Z" fill="#333333"/>
<path d="M18.9498 32.376H16.9456C16.523 32.376 16.1807 32.7242 16.1807 33.1538C16.1807 33.5831 16.523 33.9313 16.9456 33.9313H18.9498C19.3719 33.9313 19.7147 33.5831 19.7147 33.1538C19.7147 32.7242 19.3719 32.376 18.9498 32.376Z" fill="#333333"/>
<path d="M10.1741 29.406H17.6278C18.0503 29.406 18.3927 29.0575 18.3927 28.6282C18.3927 28.1985 18.0503 27.8503 17.6278 27.8503H10.1741C9.75156 27.8503 9.40918 28.1985 9.40918 28.6282C9.40918 29.0575 9.75156 29.406 10.1741 29.406Z" fill="#D33234"/>
<path d="M12.1128 30.8633H7.23462C6.8121 30.8633 6.46973 31.2119 6.46973 31.6411C6.46973 32.0708 6.8121 32.419 7.23462 32.419H12.1128C12.5353 32.419 12.8777 32.0708 12.8777 31.6411C12.8777 31.2119 12.5353 30.8633 12.1128 30.8633Z" fill="#D33234"/>
<path d="M6.50823 46.6345H3.55102C3.12851 46.6345 2.78613 46.9827 2.78613 47.412C2.78613 47.8416 3.12851 48.1898 3.55102 48.1898H6.50823C6.93035 48.1898 7.27272 47.8416 7.27272 47.412C7.27272 46.9827 6.93035 46.6345 6.50823 46.6345Z" fill="#D33234"/>
<path d="M13.8311 9.55386C13.4947 9.29445 13.0151 9.36182 12.7596 9.70395L10.6851 12.4869C9.20926 12.0088 7.70605 13.1373 7.70605 14.7031C7.70605 15.9856 8.7316 17.0285 9.99279 17.0285C11.8074 17.0285 12.9012 14.9681 11.9034 13.4274L13.9787 10.6436C14.2338 10.3015 14.1676 9.81328 13.8311 9.55386ZM9.99279 15.4732C9.57504 15.4732 9.23544 15.1279 9.23544 14.7031C9.23544 14.2786 9.57504 13.9329 9.99279 13.9329C10.4102 13.9329 10.7497 14.2786 10.7497 14.7031C10.7497 15.1279 10.4102 15.4732 9.99279 15.4732Z" fill="#333333"/>
</svg>