<svg width="66" height="58" viewBox="0 0 66 58" fill="none" xmlns="http://www.w3.org/2000/svg">
<path d="M61.679 35.456C59.2558 35.456 59.8052 35.456 57.3378 35.456C56.9327 35.456 56.604 35.1312 56.604 34.732C56.601 29.4849 52.2409 25.2176 46.8842 25.2176H42.064C42.5747 22.3381 42.5623 22.4493 42.5623 22.3245C42.5623 21.2577 41.6767 20.3914 40.5883 20.3914H25.5098C25.9298 18.5933 25.9318 16.6554 25.4587 14.7874C25.3323 14.2857 24.8151 13.9798 24.3014 14.1037C23.7892 14.227 23.4768 14.7349 23.6028 15.237C25.8728 24.2547 15.6472 31.2713 7.80032 26.266C-0.944597 20.7153 3.19332 7.4789 13.4734 7.4789C17.0064 7.4789 20.2726 9.20999 22.2114 12.1089C22.4995 12.542 23.092 12.6634 23.5343 12.3798C23.9751 12.0968 24.1001 11.5165 23.8105 11.0843C21.6937 7.91786 18.2371 5.93038 14.4294 5.64389V1.87191H16.5323C17.0599 1.87191 17.4879 1.45285 17.4879 0.936197C17.4879 0.419055 17.0599 0 16.5323 0H10.4145C9.88688 0 9.45846 0.419055 9.45846 0.936197C9.45846 1.45285 9.88688 1.87191 10.4145 1.87191H12.5174V5.64243C6.15507 6.1217 1.12858 11.3446 1.12858 17.6955C1.12858 21.4621 2.8963 24.8311 5.6607 27.0502C0.952053 47.4994 2.13021 42.2032 1.03784 47.5912C0.826106 48.6308 1.25205 49.6743 2.12128 50.2497C2.992 50.8232 3.27018 50.6926 8.22973 50.6926C8.88426 55.3158 14.0536 57.9335 18.2936 55.761C18.7612 55.5202 18.9407 54.955 18.6963 54.4966C18.4503 54.0387 17.8726 53.8629 17.4051 54.1023C13.7243 55.997 9.36822 52.866 10.167 48.8206C10.6143 46.5627 12.6488 44.8539 15.083 44.8539C18.7538 44.8539 21.1993 48.6264 19.5987 51.8793C19.3701 52.345 19.5705 52.9044 20.046 53.1287C20.521 53.3521 21.0922 53.1564 21.3218 52.6907C21.6337 52.0541 21.8405 51.3855 21.9372 50.6926C38.0307 50.6926 27.0128 50.694 41.0356 50.694C41.5022 53.9887 44.398 56.5326 47.8888 56.5326C51.3781 56.5326 54.2754 53.9887 54.7415 50.694H60.7726C62.2433 50.694 63.5241 49.718 63.8861 48.3224C63.8866 48.3205 65.8403 40.7935 65.8403 40.7916C66.5355 38.1078 64.4985 35.456 61.679 35.456ZM8.22973 48.8206H3.60488C3.11498 48.8206 2.82242 48.4006 2.91267 47.9553L3.5424 44.8539H10.3123C9.20756 45.8848 8.4489 47.2702 8.22973 48.8206ZM35.9198 48.8206C33.748 48.8206 23.6761 48.8206 21.9357 48.8206C21.7165 47.2702 20.9584 45.8848 19.8536 44.8539H36.6423L35.9198 48.8206ZM3.95248 42.982L7.35703 28.1947C13.8007 31.8089 22.0711 29.0396 24.9029 22.2633C24.9584 22.2633 40.6131 22.2468 40.6419 22.2934C39.8247 26.9108 40.0568 25.6007 36.979 42.982C35.2048 42.982 5.31162 42.982 3.95248 42.982ZM52.8042 50.694C52.357 52.9515 50.3215 54.6602 47.8888 54.6602C45.1184 54.6602 42.8811 52.4508 42.8811 49.7564C42.8811 47.0604 45.1219 44.8539 47.8888 44.8539C51.0271 44.8539 53.4027 47.664 52.8042 50.694ZM62.0331 47.8621C61.8863 48.4273 61.3676 48.8216 60.7726 48.8216H54.7415C54.2764 45.5265 51.3796 42.982 47.8888 42.982C44.3965 42.982 41.5007 45.5265 41.0356 48.8216H37.8621C39.0407 42.3391 38.0624 47.8189 41.7327 27.09H46.8842C51.1872 27.09 54.6895 30.5187 54.6919 34.732C54.6919 36.1635 55.8785 37.328 57.3378 37.328H58.7798C59.826 39.312 61.5308 40.9135 63.5911 41.8565C63.5901 41.8599 62.0341 47.8587 62.0331 47.8621ZM64.0497 39.9909C62.8284 39.362 61.7787 38.4433 61.0017 37.328C61.6458 37.328 62.756 37.1881 63.5727 38.2714C63.9506 38.773 64.1162 39.3849 64.0497 39.9909Z" fill="#333333"/>
<path d="M47.8888 45.9976C45.7744 45.9976 44.0498 47.6811 44.0498 49.7564C44.0498 51.8255 45.767 53.5158 47.8888 53.5158C49.6753 53.5158 51.1807 52.315 51.6062 50.6941C52.23 48.3298 50.4017 45.9976 47.8888 45.9976ZM49.5608 50.6941C48.8185 51.9585 46.9595 51.9595 46.2162 50.6941C45.4804 49.4394 46.4136 47.8695 47.8888 47.8695C49.3679 47.8695 50.2946 49.4428 49.5608 50.6941Z" fill="#333333"/>
<path d="M50.819 30.4182C50.4119 30.748 50.3554 31.3379 50.6916 31.7366C51.1513 32.28 51.4042 32.9656 51.4042 33.6668C51.4042 33.7542 51.4235 33.8683 51.3352 33.8683H43.7308C43.7055 33.8683 43.6817 33.8518 43.6698 33.8299C44.1924 30.6703 44.1761 30.8184 44.1761 30.695C44.1761 30.5848 44.0789 30.6275 48.0522 30.6275C48.5798 30.6275 49.0082 30.2085 49.0082 29.6913C49.0082 29.1747 48.5798 28.7556 48.0522 28.7556H44.245C43.1829 28.7556 42.3131 29.5787 42.2665 30.6076L41.7627 33.6512C41.6115 34.5598 42.4406 35.7402 43.7308 35.7402H51.3352C52.3458 35.7402 53.3162 34.9953 53.3162 33.6668C53.3162 32.531 52.9071 31.4215 52.1648 30.543C51.8281 30.1444 51.2256 30.089 50.819 30.4182Z" fill="#333333"/>
<path d="M46.2796 38.2947H43.7309C43.2033 38.2947 42.7749 38.7137 42.7749 39.2309C42.7749 39.7475 43.2033 40.1671 43.7309 40.1671H46.2796C46.8077 40.1671 47.2356 39.7475 47.2356 39.2309C47.2356 38.7137 46.8077 38.2947 46.2796 38.2947Z" fill="#333333"/>
<path d="M15.0829 45.9976C13.2958 45.9976 11.7909 47.1994 11.365 48.8207C10.7447 51.1734 12.561 53.5158 15.0829 53.5158C16.87 53.5158 18.3749 52.314 18.8008 50.6926C19.4266 48.3191 17.5835 45.9976 15.0829 45.9976ZM15.0829 51.6439C13.6062 51.6439 12.672 50.0692 13.4109 48.8207C14.3942 47.1411 17.0098 47.836 17.0098 49.7564C17.0098 50.8019 16.142 51.6439 15.0829 51.6439Z" fill="#333333"/>
<path d="M7.40905 53.8193C7.40905 53.3021 6.98113 52.8831 6.45304 52.8831H2.75693C2.22934 52.8831 1.80141 53.3021 1.80141 53.8193C1.80141 54.3359 2.22934 54.755 2.75693 54.755H6.45304C6.98113 54.755 7.40905 54.3364 7.40905 53.8193Z" fill="#D33234"/>
<path d="M12.2343 32.2477C12.2343 31.7306 11.8064 31.3115 11.2783 31.3115H8.77321C8.24512 31.3115 7.8172 31.7306 7.8172 32.2477C7.8172 32.7649 8.24512 33.1839 8.77321 33.1839H11.2783C11.8064 33.1839 12.2343 32.7649 12.2343 32.2477Z" fill="#333333"/>
<path d="M24.6691 38.9668H22.164C21.6359 38.9668 21.208 39.3859 21.208 39.903C21.208 40.4197 21.6359 40.8387 22.164 40.8387H24.6691C25.1967 40.8387 25.6251 40.4197 25.6251 39.903C25.6251 39.3859 25.1967 38.9668 24.6691 38.9668Z" fill="#333333"/>
<path d="M13.7015 35.3924H23.0177C23.5458 35.3924 23.9737 34.9729 23.9737 34.4562C23.9737 33.9391 23.5458 33.52 23.0177 33.52H13.7015C13.1734 33.52 12.7455 33.9391 12.7455 34.4562C12.7455 34.9729 13.1734 35.3924 13.7015 35.3924Z" fill="#D33234"/>
<path d="M16.1225 37.1462H10.0255C9.4974 37.1462 9.06947 37.5658 9.06947 38.0824C9.06947 38.5996 9.4974 39.0186 10.0255 39.0186H16.1225C16.6506 39.0186 17.0785 38.5996 17.0785 38.0824C17.0785 37.5658 16.6506 37.1462 16.1225 37.1462Z" fill="#D33234"/>
<path d="M9.11963 56.1282H5.42352C4.89543 56.1282 4.46751 56.5472 4.46751 57.0639C4.46751 57.581 4.89543 58.0001 5.42352 58.0001H9.11963C9.64722 58.0001 10.0751 57.581 10.0751 57.0639C10.0751 56.5472 9.64722 56.1282 9.11963 56.1282Z" fill="#D33234"/>
<path d="M18.2707 11.4986C17.8502 11.1864 17.2507 11.2675 16.9314 11.6792L14.3386 15.0288C12.494 14.4534 10.6152 15.8115 10.6152 17.6961C10.6152 19.2397 11.897 20.4949 13.4733 20.4949C15.7413 20.4949 17.1084 18.0151 15.8613 16.1606L18.4552 12.8102C18.774 12.3984 18.6912 11.8108 18.2707 11.4986ZM13.4733 18.623C12.9512 18.623 12.5267 18.2074 12.5267 17.6961C12.5267 17.1852 12.9512 16.7691 13.4733 16.7691C13.9949 16.7691 14.4194 17.1852 14.4194 17.6961C14.4194 18.2074 13.9949 18.623 13.4733 18.623Z" fill="#333333"/>
</svg>
