<svg width="58" height="59" viewBox="0 0 58 59" fill="none" xmlns="http://www.w3.org/2000/svg">
<path d="M5.16406 1.63626C5.16406 1.09744 5.60094 0.660645 6.13985 0.660645H43.1174C43.6563 0.660645 44.0932 1.09744 44.0932 1.63626V2.26802C44.0932 2.80684 43.6563 3.24363 43.1174 3.24363C42.5785 3.24363 42.1416 2.80684 42.1416 2.26802V2.61187H7.11565V48.6353H7.01104C7.54996 48.6353 7.98683 49.0721 7.98683 49.6109C7.98683 50.1497 7.54996 50.5865 7.01104 50.5865H6.13985C5.60094 50.5865 5.16406 50.1497 5.16406 49.6109V1.63626Z" fill="#333333"/>
<path fill-rule="evenodd" clip-rule="evenodd" d="M14.2105 8.73473C13.6716 8.73473 13.2347 9.17153 13.2347 9.71035V57.685C13.2347 58.0975 13.4908 58.4502 13.8527 58.5929C13.9044 58.6133 13.9583 58.6294 14.0139 58.6408C14.0775 58.6538 14.1433 58.6606 14.2107 58.6606L51.1883 58.6606C51.7272 58.6606 52.1641 58.2238 52.1641 57.685L52.1641 9.71041C52.1641 9.261 51.8601 8.88257 51.4466 8.76935C51.3642 8.74678 51.2776 8.73473 51.188 8.73473H14.2105ZM50.2123 10.686V16.3977L50.2125 16.4187L50.2125 56.7094H26.1967L26.1856 56.7094H15.1865L15.1865 50.9977L15.1863 50.9769V10.686H39.202L39.2131 10.686L50.2123 10.686Z" fill="#333333"/>
<path fill-rule="evenodd" clip-rule="evenodd" d="M18.779 13.2095C18.2401 13.2095 17.8032 13.6463 17.8032 14.1851L17.8032 28.6111C17.8032 29.0237 18.0593 29.3764 18.4212 29.5191C18.4729 29.5395 18.5268 29.5556 18.5824 29.5669C18.646 29.58 18.7118 29.5868 18.7792 29.5868L45.9535 29.5868C46.4924 29.5868 46.9293 29.15 46.9293 28.6112L46.9293 14.1851C46.9293 13.7357 46.6254 13.3573 46.2118 13.2441C46.1295 13.2215 46.0428 13.2095 45.9533 13.2095H18.779ZM44.9775 15.1608V18.8724L44.9777 18.8935L44.9777 27.6356H30.962L30.9509 27.6355H19.755L19.755 17.4724L19.7548 17.4516V15.1607H36.9673L36.9784 15.1608L44.9775 15.1608Z" fill="#D33234"/>
<path fill-rule="evenodd" clip-rule="evenodd" d="M18.8532 32.6606C18.3143 32.6606 17.8774 33.0974 17.8774 33.6363L17.8774 40.0623C17.8774 40.4749 18.1335 40.8276 18.4954 40.9703C18.5471 40.9906 18.601 41.0067 18.6566 41.0181C18.7202 41.0311 18.786 41.038 18.8535 41.038L24.831 41.038C25.3699 41.038 25.8068 40.6012 25.8068 40.0624L25.8068 33.6363C25.8068 33.1869 25.5028 32.8085 25.0893 32.6953C25.0069 32.6727 24.9202 32.6606 24.8307 32.6606H18.8532ZM23.855 34.6119V37.3236L23.8552 37.3446L23.8552 39.0868H22.8394L22.8284 39.0867H19.8293L19.8292 36.9236L19.829 36.9028V34.6119H22.8447L22.8558 34.6119L23.855 34.6119Z" fill="#333333"/>
<path fill-rule="evenodd" clip-rule="evenodd" d="M39.9758 32.6606C39.4369 32.6606 39 33.0974 39 33.6363L39 40.0623C39 40.4749 39.2561 40.8276 39.618 40.9703C39.6697 40.9906 39.7236 41.0067 39.7791 41.0181C39.8427 41.0311 39.9086 41.038 39.976 41.038L45.9535 41.038C46.4924 41.038 46.9293 40.6012 46.9293 40.0624L46.9293 33.6363C46.9293 33.1869 46.6254 32.8085 46.2119 32.6953C46.1295 32.6727 46.0428 32.6606 45.9533 32.6606H39.9758ZM44.9775 34.6119V37.3236L44.9777 37.3446L44.9777 39.0868H43.962L43.9509 39.0867H40.9518L40.9518 36.9236L40.9516 36.9028V34.6119H43.9673L43.9784 34.6119L44.9775 34.6119Z" fill="#333333"/>
<path fill-rule="evenodd" clip-rule="evenodd" d="M28.9758 32.6606C28.4369 32.6606 28 33.0974 28 33.6363L28 40.0623C28 40.4749 28.2561 40.8276 28.618 40.9703C28.6697 40.9906 28.7236 41.0067 28.7791 41.0181C28.8427 41.0311 28.9086 41.038 28.976 41.038L34.9535 41.038C35.4924 41.038 35.9293 40.6012 35.9293 40.0624L35.9293 33.6363C35.9293 33.1869 35.6254 32.8085 35.2119 32.6953C35.1295 32.6727 35.0428 32.6606 34.9533 32.6606H28.9758ZM33.9775 34.6119V37.3236L33.9777 37.3446L33.9777 39.0868H32.962L32.9509 39.0867H29.9518L29.9518 36.9236L29.9516 36.9028V34.6119H32.9673L32.9784 34.6119L33.9775 34.6119Z" fill="#333333"/>
<path fill-rule="evenodd" clip-rule="evenodd" d="M18.8532 44.5386C18.3143 44.5386 17.8774 44.9754 17.8774 45.5142L17.8774 51.9403C17.8774 52.3528 18.1335 52.7055 18.4954 52.8482C18.5471 52.8686 18.601 52.8847 18.6566 52.896C18.7202 52.9091 18.786 52.9159 18.8535 52.9159L24.831 52.9159C25.3699 52.9159 25.8068 52.4791 25.8068 51.9403L25.8068 45.5142C25.8068 45.0648 25.5028 44.6864 25.0893 44.5732C25.0069 44.5506 24.9202 44.5386 24.8307 44.5386H18.8532ZM23.855 46.4899V49.2015L23.8552 49.2226L23.8552 50.9647H22.8394L22.8284 50.9646H19.8293L19.8292 48.8015L19.829 48.7807V46.4898H22.8447L22.8558 46.4899L23.855 46.4899Z" fill="#333333"/>
<path fill-rule="evenodd" clip-rule="evenodd" d="M39.9758 44.5386C39.4369 44.5386 39 44.9754 39 45.5142L39 51.9403C39 52.3528 39.2561 52.7055 39.618 52.8482C39.6697 52.8686 39.7236 52.8847 39.7791 52.896C39.8427 52.9091 39.9086 52.9159 39.976 52.9159L45.9535 52.9159C46.4924 52.9159 46.9293 52.4791 46.9293 51.9403L46.9293 45.5142C46.9293 45.0648 46.6254 44.6864 46.2119 44.5732C46.1295 44.5506 46.0428 44.5386 45.9533 44.5386H39.9758ZM44.9775 46.4899V49.2015L44.9777 49.2226L44.9777 50.9647H43.962L43.9509 50.9646H40.9518L40.9518 48.8015L40.9516 48.7807V46.4898H43.9673L43.9784 46.4899L44.9775 46.4899Z" fill="#333333"/>
<path fill-rule="evenodd" clip-rule="evenodd" d="M28.9758 44.5386C28.4369 44.5386 28 44.9754 28 45.5142L28 51.9403C28 52.3528 28.2561 52.7055 28.618 52.8482C28.6697 52.8686 28.7236 52.8847 28.7791 52.896C28.8427 52.9091 28.9086 52.9159 28.976 52.9159L34.9535 52.9159C35.4924 52.9159 35.9293 52.4791 35.9293 51.9403L35.9293 45.5142C35.9293 45.0648 35.6254 44.6864 35.2119 44.5732C35.1295 44.5506 35.0428 44.5386 34.9533 44.5386H28.9758ZM33.9775 46.4899V49.2015L33.9777 49.2226L33.9777 50.9647H32.962L32.9509 50.9646H29.9518L29.9518 48.8015L29.9516 48.7807V46.4898H32.9673L32.9784 46.4899L33.9775 46.4899Z" fill="#333333"/>
<path d="M10.1416 4.66064C9.60174 4.66064 9.16406 5.09809 9.16406 5.6377V53.6836C9.16406 54.2232 9.60174 54.6606 10.1416 54.6606H11.0144C11.5543 54.6606 11.992 54.2232 11.992 53.6836C11.992 53.144 11.5543 52.7065 11.0144 52.7065H11.1192V6.61477H46.2089V6.27041C46.2089 6.81002 46.6466 7.24747 47.1865 7.24747C47.7264 7.24747 48.1641 6.81002 48.1641 6.27041V5.6377C48.1641 5.09809 47.7264 4.66064 47.1865 4.66064H10.1416Z" fill="#D33234"/>
</svg>
