<svg width="58" height="59" viewBox="0 0 58 59" fill="none" xmlns="http://www.w3.org/2000/svg">
<path d="M24.2461 19.4097V18.6606H22.7442V19.4097H21.9951V20.9116H22.7442V21.6606H24.2461V20.9116H24.9951V19.4097H24.2461Z" fill="#D33234"/>
<path d="M34.246 19.4097V18.6606H32.7442V19.4097H31.9951V20.9116H32.7442V21.6606H34.246V20.9116H34.9951V19.4097H34.246Z" fill="#D33234"/>
<path d="M24.2461 10.4097V9.66064H22.7442V10.4097H21.9951V11.9116H22.7442V12.6606H24.2461V11.9116H24.9951V10.4097H24.2461Z" fill="#D33234"/>
<path d="M34.246 10.4097V9.66064H32.7442V10.4097H31.9951V11.9116H32.7442V12.6606H34.246V11.9116H34.9951V10.4097H34.246Z" fill="#D33234"/>
<path d="M45.7057 19.7212V32.5852C45.0134 31.968 44.0997 31.5917 43.0991 31.5917H31.7232V30.3251H38.0512C39.6718 30.3251 41.2269 29.6415 42.318 28.4497C43.409 27.2579 43.9478 25.6539 43.7961 24.0491L42.0529 6.61218C41.7322 3.21924 38.9065 0.660645 35.4799 0.660645H22.3133C18.8867 0.660645 16.0609 3.21924 15.7401 6.61218L13.9974 24.0493C13.8458 25.654 14.3845 27.2579 15.4754 28.4497C16.5665 29.6415 18.1217 30.3251 19.7421 30.3251H26.2484V31.5919H14.8723C13.8806 31.5919 12.9745 31.9617 12.2847 32.5691V19.7212H6.71762C5.21402 19.7212 3.99512 20.9401 3.99512 22.4437C3.99512 23.9473 5.21402 25.1662 6.71762 25.1662H6.80964V32.4266C6.80964 34.8828 8.78039 36.8885 11.2317 36.9652C11.8019 38.4116 13.2182 39.4389 14.8721 39.4389H26.2623V42.5762H23.8992C21.0399 42.5762 18.3411 43.6781 16.2998 45.6791C14.3289 47.6112 13.1943 49.1649 13.0807 51.8961C12.1914 52.5896 11.6183 53.6668 11.6183 54.8754C11.6183 56.9627 13.3256 58.6606 15.4243 58.6606C17.523 58.6606 19.2303 56.9627 19.2303 54.8754C19.2303 54.0525 18.9641 53.2908 18.5142 52.6691V52.3484C18.5142 49.3952 20.93 47.9926 23.8992 47.9926H26.2623V52.2341C25.5926 52.9167 25.1789 53.8486 25.1789 54.8754C25.1789 56.9627 26.8862 58.6606 28.9849 58.6606C31.0836 58.6606 32.791 56.9627 32.791 54.8754C32.791 53.8491 32.3776 52.9175 31.7086 52.235V47.9926H34.0709C37.0028 47.9926 39.3934 49.3354 39.4533 52.2373C38.7854 52.9197 38.373 53.8502 38.373 54.8754C38.373 56.9627 40.0803 58.6606 42.179 58.6606C44.2777 58.6606 45.9851 56.9627 45.9851 54.8754C45.9851 53.8481 45.571 52.9157 44.9008 52.233C44.8382 46.3461 40.0046 42.5762 34.071 42.5762H31.7088V39.4389H43.0991C44.753 39.4389 46.1691 38.4116 46.7394 36.9657C49.1996 36.8988 51.1805 34.8893 51.1805 32.4266V25.1662H51.2726C52.7762 25.1662 53.9951 23.9473 53.9951 22.4437C53.9951 20.9401 52.7762 19.7212 51.2726 19.7212H45.7057ZM10.4693 35.0105C9.39647 34.6367 8.62515 33.6195 8.62515 32.4267V23.3607H6.72755C6.22108 23.3607 5.81051 22.9501 5.81051 22.4437C5.81051 21.9372 6.22108 21.5266 6.72755 21.5266H10.4693V35.0105ZM26.248 28.5196H19.742C18.6149 28.5196 17.5764 28.0632 16.8175 27.2342C16.0589 26.4052 15.6991 25.3342 15.8045 24.2182L17.5475 6.78123C17.7799 4.3212 19.8288 2.46616 22.3131 2.46616H35.4799C37.9642 2.46616 40.013 4.3212 40.2455 6.78123L41.9884 24.2182C42.0938 25.3342 41.734 26.4053 40.9752 27.2342C40.2167 28.0631 39.1779 28.5196 38.0509 28.5196H31.7228H26.248ZM29.9078 30.3251V31.5919H28.0637V30.3251H29.9078ZM15.4244 56.8554C14.3268 56.8554 13.4338 55.9673 13.4338 54.8756C13.4338 53.7838 14.3268 52.8958 15.4244 52.8958C16.522 52.8958 17.415 53.7839 17.415 54.8756C17.415 55.9673 16.5221 56.8554 15.4244 56.8554ZM28.985 56.8554H28.9835C27.8859 56.8554 26.993 55.9673 26.993 54.8756C26.993 54.8494 26.9959 54.8241 26.997 54.7982C26.9979 54.7752 26.9988 54.7522 27.0005 54.7293C27.0029 54.6967 27.0057 54.6643 27.0098 54.6322C27.0126 54.6102 27.0165 54.5886 27.0197 54.5668C27.028 54.5147 27.038 54.4633 27.0502 54.4127C27.0546 54.3949 27.0592 54.3772 27.0639 54.3596C27.0798 54.3015 27.0982 54.2447 27.119 54.1888C27.1232 54.1776 27.127 54.1661 27.1314 54.1551C27.1445 54.1215 27.1588 54.0886 27.1736 54.056C27.177 54.0488 27.1807 54.0419 27.184 54.0346C27.2131 53.9733 27.2451 53.914 27.2801 53.8565C27.2844 53.8492 27.2888 53.8421 27.2933 53.8348C27.3535 53.7384 27.4217 53.6477 27.497 53.5634C27.4985 53.5619 27.4999 53.5603 27.5014 53.5587C27.5525 53.5018 27.6069 53.448 27.6642 53.3973L27.6653 53.3962C28.0169 53.0861 28.4778 52.896 28.9834 52.896C29.4053 52.896 29.7963 53.0281 30.1186 53.2515H30.12C30.1595 53.2789 30.1973 53.3079 30.2346 53.3379C30.2453 53.3467 30.2559 53.3556 30.2665 53.3646C30.3545 53.4385 30.436 53.5196 30.5099 53.6074C30.5148 53.6132 30.5198 53.6188 30.5245 53.6247C30.5626 53.671 30.5988 53.7188 30.6327 53.7684L30.6352 53.7721C30.8496 54.0875 30.9757 54.467 30.9757 54.8758C30.9758 55.9673 30.0828 56.8554 28.985 56.8554ZM28.0778 51.1998V47.9927H29.8933V51.2C29.6021 51.1289 29.2982 51.0903 28.9851 51.0903C28.6725 51.0902 28.3688 51.1287 28.0778 51.1998ZM44.1696 54.8755C44.1696 55.9671 43.2765 56.8553 42.1789 56.8553C41.0814 56.8553 40.1883 55.9671 40.1883 54.8755C40.1883 53.7838 41.0814 52.8957 42.1789 52.8957C43.2765 52.8957 44.1696 53.7839 44.1696 54.8755ZM34.0709 44.3817C38.6444 44.3817 42.4308 46.7871 43.0079 51.1816C42.7408 51.1224 42.4637 51.0902 42.1789 51.0902C41.8338 51.0902 41.4997 51.1369 41.1817 51.2229C40.6371 47.8072 37.6563 46.1872 34.0709 46.1872H23.8995C20.2747 46.1872 17.2685 47.8652 16.7722 51.3361C16.353 51.1777 15.8989 51.0902 15.4245 51.0902C15.2712 51.0902 15.1204 51.1002 14.9717 51.1179C15.5815 46.764 19.3756 44.3818 23.8994 44.3818L34.0709 44.3817ZM28.0778 42.5763V39.439H29.8933V42.5763H28.0778ZM45.1931 35.5509C45.193 36.6994 44.2536 37.6335 43.0989 37.6335H31.7086H26.2624H14.8722C13.7176 37.6335 12.7783 36.6992 12.7783 35.5509V35.4799C12.7783 34.3316 13.7176 33.3974 14.8722 33.3974H26.2483H31.7232H43.0991C44.2539 33.3974 45.1932 34.3316 45.1932 35.4799L45.1931 35.5509ZM52.1797 22.4437C52.1797 22.9501 51.7692 23.3607 51.2627 23.3607H49.3651V32.4266C49.3651 33.6193 48.5936 34.6365 47.5211 35.0103V21.5266H51.2627C51.7692 21.5266 52.1797 21.9372 52.1797 22.4437Z" fill="#333333"/>
</svg>
