<svg width="58" height="59" viewBox="0 0 58 59" fill="none" xmlns="http://www.w3.org/2000/svg">
<path fill-rule="evenodd" clip-rule="evenodd" d="M36.4532 38.8166L34.2187 41.0484C34.0102 41.4514 33.8395 41.8146 33.6907 42.1444C33.5181 42.5268 33.1139 42.7394 32.6961 42.7014C31.9673 42.6351 31.4159 41.842 31.7522 41.1919L32.0502 40.6156L18.0446 26.6089L15.5721 27.8897L29.3248 41.6435C29.8284 42.1472 29.5643 43.0385 28.9158 43.3328C28.5496 43.4991 28.1185 43.4417 27.8342 43.1574L13.5929 28.915L11.392 30.055L25.844 44.508C26.1901 44.854 26.2002 45.4055 25.916 45.8039C25.5479 46.32 24.7854 46.4538 24.3372 46.0055L9.4129 31.0801L3.38718 34.2013C2.63939 34.5882 2.18167 34.9978 2.13078 35.3252C2.08286 35.6338 2.37207 36.1277 2.92435 36.6799L5.34674 39.1033L9.82281 36.7829C10.3435 36.5127 10.9851 36.7161 11.2552 37.2367C11.5254 37.7574 11.3221 38.3984 10.8012 38.6684L6.9221 40.6792L11.7016 45.4607L15.0617 42.0905C15.4758 41.675 16.1486 41.6739 16.5642 42.0879C16.9799 42.5018 16.9811 43.1743 16.5669 43.5898L13.2038 46.963L17.9808 51.7389L19.9909 47.8605C20.2608 47.3396 20.9019 47.1363 21.423 47.406C21.9441 47.6758 22.1477 48.3167 21.8777 48.8375L19.5571 53.3148L21.9806 55.7379C22.5327 56.29 23.0257 56.5797 23.3341 56.5314C23.8603 56.4499 24.2933 55.8046 24.6423 55.1088C24.9663 54.463 25.8458 54.42 26.3146 54.9698C26.5676 55.2666 26.6402 55.6857 26.4578 56.0304C25.8344 57.208 25.0703 58.4114 23.6597 58.6302C23.5287 58.6505 23.3969 58.6607 23.2645 58.6607C22.3577 58.6607 21.4222 58.1841 20.4775 57.2394L17.5311 54.2937C17.5203 54.2836 17.5097 54.2733 17.4994 54.2628C17.493 54.2563 17.4867 54.2497 17.4805 54.2431L4.39761 41.1593L4.38663 41.1485C4.37888 41.1409 4.37101 41.1332 4.36361 41.1252L1.42082 38.1812C0.33856 37.099 -0.129257 36.0284 0.0305425 34.9994C0.19576 33.936 0.973825 33.0581 2.40947 32.3152L9.09628 28.8515C9.11413 28.8416 9.13209 28.8324 9.15036 28.8236L13.2946 26.677L13.3082 26.67L17.6108 24.4414L19.842 22.207C20.6678 21.3812 21.769 20.9267 22.9434 20.9267C24.1177 20.9267 25.219 21.3812 26.0442 22.2065L28.4307 24.5931L31.1543 21.8693C31.5691 21.4544 32.2418 21.4543 32.657 21.8689C33.072 22.2836 33.0722 22.956 32.6574 23.3709L29.933 26.0955L32.5636 28.7263L47.6146 13.6764L44.9839 11.0457L39.3998 16.628C38.985 17.0428 38.3122 17.0429 37.8972 16.6284C37.4822 16.2137 37.4821 15.5413 37.8969 15.1264L44.2025 8.82259L44.2121 8.81174L44.2135 8.81021L44.2239 8.79842L44.2314 8.79063C44.2373 8.78475 44.2436 8.7793 44.2498 8.77387L44.2557 8.76873L44.2627 8.76238L51.1994 1.82533C51.9473 1.07535 52.947 0.661388 54.0134 0.660645H54.0162C55.0832 0.660645 56.084 1.07418 56.8351 1.82533C58.3889 3.38328 58.3881 5.91093 56.834 7.4608L49.8986 14.3969C49.8946 14.4012 49.8908 14.4056 49.8869 14.41C49.8813 14.4165 49.8756 14.4229 49.8695 14.4291C49.8635 14.435 49.8572 14.4405 49.851 14.4459C49.8466 14.4497 49.8422 14.4536 49.8379 14.4575L34.0659 30.2286L36.4532 32.6161C38.1625 34.3256 38.1625 37.1071 36.4532 38.8166ZM54.0148 2.78463H54.0161C54.5151 2.78463 54.9825 2.97717 55.3311 3.32582C56.0571 4.05382 56.0581 5.23433 55.3321 5.9584L53.8682 7.42236L51.2376 4.79159L52.7033 3.32572C53.051 2.97717 53.5167 2.78495 54.0148 2.78463ZM46.4863 9.54326L49.7354 6.29388L52.366 8.92465L49.1168 12.174L46.4863 9.54326ZM21.3457 23.7081C21.7695 23.2842 22.337 23.0508 22.9436 23.0508C23.55 23.0508 24.1175 23.2842 24.5415 23.7081L34.9502 34.1175C35.8317 34.9991 35.8317 36.4336 34.9507 37.3146L33.3513 38.9121L19.7481 25.3079L21.3457 23.7081Z" fill="#333333"/>
<path d="M36.0285 19.9984C35.8207 20.2061 35.5478 20.3102 35.275 20.3102C35.0031 20.3102 34.7316 20.2069 34.5244 19.9998C34.1095 19.5851 34.108 18.9141 34.5229 18.4994L34.5259 18.4964C34.9409 18.0817 35.6136 18.0817 36.0285 18.4964C36.4434 18.9112 36.4434 19.5837 36.0285 19.9984Z" fill="#333333"/>
<path fill-rule="evenodd" clip-rule="evenodd" d="M46.1047 41.0758C46.1047 39.1927 44.5715 37.6606 42.6869 37.6606C40.8036 37.6606 39.2715 39.1927 39.2715 41.0758C39.2715 42.9589 40.8037 44.491 42.6869 44.491C44.5715 44.491 46.1047 42.9589 46.1047 41.0758ZM42.6869 42.9261C41.6675 42.9261 40.8382 42.0961 40.8382 41.0758C40.8382 40.0556 41.6675 39.2256 42.6869 39.2256C43.7075 39.2256 44.5379 40.0556 44.5379 41.0758C44.5379 42.0961 43.7076 42.9261 42.6869 42.9261Z" fill="#D33234"/>
<path fill-rule="evenodd" clip-rule="evenodd" d="M46.277 50.2163C44.7742 50.2163 43.5517 51.437 43.5517 52.9373C43.5517 54.4388 44.7742 55.6604 46.277 55.6604C47.7785 55.6604 49 54.4388 49 52.9373C49 51.437 47.7785 50.2163 46.277 50.2163ZM46.277 54.0955C45.6381 54.0955 45.1184 53.5759 45.1184 52.9373C45.1184 52.2999 45.6381 51.7813 46.277 51.7813C46.9146 51.7813 47.4332 52.2998 47.4332 52.9373C47.4332 53.5759 46.9145 54.0955 46.277 54.0955Z" fill="#D33234"/>
<path fill-rule="evenodd" clip-rule="evenodd" d="M41.9427 52.1257C41.9427 50.1766 40.3546 48.5908 38.4024 48.5908C38.1963 48.5908 37.9941 48.6085 37.7975 48.6424C37.1375 46.3445 35.0179 44.663 32.5052 44.663C29.4648 44.663 27 47.1249 27 50.1618C27 53.1987 29.4648 55.6606 32.5052 55.6606C33.753 55.6606 34.9039 55.246 35.8272 54.5471C36.4728 55.2322 37.3885 55.6606 38.4024 55.6606C40.3546 55.6606 41.9427 54.0748 41.9427 52.1257ZM34.8646 52.1257C34.8646 52.3904 34.8938 52.6484 34.9493 52.8966C34.3003 53.4757 33.4439 53.8277 32.5052 53.8277C30.4782 53.8277 28.8351 52.1864 28.8351 50.1618C28.8351 48.1372 30.4782 46.496 32.5052 46.496C34.2848 46.496 35.7687 47.7612 36.1042 49.4402C35.3459 50.0891 34.8646 51.0523 34.8646 52.1257ZM38.4024 54.0408C37.3465 54.0408 36.4875 53.1817 36.4875 52.1257C36.4875 51.0697 37.3465 50.2106 38.4024 50.2106C39.4596 50.2106 40.3197 51.0697 40.3197 52.1257C40.3197 53.1817 39.4597 54.0408 38.4024 54.0408Z" fill="#D33234"/>
<path fill-rule="evenodd" clip-rule="evenodd" d="M51.501 42.6606C50.1219 42.6606 49 43.7817 49 45.1596C49 46.5387 50.1219 47.6606 51.501 47.6606C52.879 47.6606 54 46.5387 54 45.1596C54 43.7817 52.879 42.6606 51.501 42.6606ZM51.501 46.2234C50.9148 46.2234 50.4378 45.7462 50.4378 45.1596C50.4378 44.5742 50.9148 44.0979 51.501 44.0979C52.0862 44.0979 52.5622 44.5742 52.5622 45.1596C52.5622 45.7462 52.0861 46.2234 51.501 46.2234Z" fill="#D33234"/>
<path fill-rule="evenodd" clip-rule="evenodd" d="M12.5 4.66064L13.9855 8.67515L18 10.1606L13.9855 11.6461L12.5 15.6606L11.0145 11.6461L7 10.1606L11.0145 8.67515L12.5 4.66064ZM10.677 10.1606L12.0076 10.653L12.5 11.9836L12.9924 10.653L14.323 10.1606L12.9924 9.66828L12.5 8.33769L12.0076 9.66828L10.677 10.1606Z" fill="#D33234"/>
</svg>
