<svg width="59" height="59" viewBox="0 0 59 59" fill="none" xmlns="http://www.w3.org/2000/svg">
<path fill-rule="evenodd" clip-rule="evenodd" d="M17.8655 21.3927L19.2135 19.1298C18.9502 18.616 18.7269 18.079 18.5474 17.5244L15.9873 16.8733V11.4134L18.5465 10.7624C18.7269 10.2078 18.9493 9.67077 19.2125 9.15604L17.8646 6.89308L21.7382 3.0312L24.008 4.37507C24.5234 4.1126 25.062 3.89001 25.6193 3.71102L26.2723 1.15869H31.7488L32.4018 3.71009C32.9581 3.89001 33.4967 4.11167 34.013 4.37414L36.2829 3.03027L40.1565 6.89215L38.8086 9.15511C39.0718 9.66892 39.2951 10.2059 39.4746 10.7614L42.0347 11.4125V16.8724L39.4756 17.5234C39.2951 18.0781 39.0728 18.615 38.8095 19.1298L40.1574 21.3927L36.2838 25.2546L34.014 23.9107C33.4986 24.1732 32.96 24.3958 32.4028 24.5748L31.7497 27.1271H26.2732L25.6202 24.5748C25.0639 24.3949 24.5253 24.1732 24.009 23.9107L21.7391 25.2546L17.8655 21.3927ZM20.0461 12.2954L17.8478 12.8538V15.4321L20.0461 15.9904L20.1875 16.5135C20.3949 17.2814 20.6982 18.0122 21.0889 18.6874L21.3614 19.1585L20.2042 21.1015L22.0322 22.9239L23.9811 21.7702L24.4527 22.041C25.1299 22.4305 25.863 22.7329 26.6333 22.9397L27.1579 23.0807L27.7179 25.2722H30.3041L30.8641 23.0807L31.3888 22.9397C32.159 22.7329 32.8921 22.4305 33.5693 22.041L34.0419 21.7684L35.9908 22.9221L37.8188 21.0997L36.6615 19.1567L36.9331 18.6865C37.3239 18.0113 37.6271 17.2805 37.8346 16.5125L37.976 15.9894L40.1742 15.4311V12.8538L37.9741 12.2945L37.8327 11.7714C37.6253 11.0035 37.322 10.2727 36.9313 9.5975L36.6596 9.12729L37.8169 7.1843L35.9889 5.36187L34.04 6.51561L33.5684 6.24479C32.8911 5.85527 32.1581 5.55292 31.3878 5.3461L30.8632 5.20513L30.3031 3.01358H27.7179L27.1579 5.20513L26.6333 5.3461C25.863 5.55292 25.1299 5.85527 24.4527 6.24479L23.9801 6.51654L22.0312 5.36279L20.2033 7.18522L21.3605 9.12822L21.0889 9.59843C20.6982 10.2736 20.3949 11.0044 20.1875 11.7724L20.0461 12.2954Z" fill="#333333"/>
<path d="M44.8254 34.5464H42.9648V36.4013H44.8254V34.5464Z" fill="#333333"/>
<path d="M46.686 34.5464H48.5466V36.4013H46.686V34.5464Z" fill="#333333"/>
<path d="M42.9648 38.2563H44.8254V40.1112H42.9648V38.2563Z" fill="#333333"/>
<path d="M46.686 38.2563H48.5466V40.1112H46.686V38.2563Z" fill="#333333"/>
<path d="M42.9648 41.9653H44.8254V43.8202H42.9648V41.9653Z" fill="#333333"/>
<path d="M46.686 41.9653H48.5466V43.8202H46.686V41.9653Z" fill="#333333"/>
<path d="M42.9648 45.6763H44.8254V47.5312H42.9648V45.6763Z" fill="#333333"/>
<path d="M46.686 45.6763H48.5466V47.5312H46.686V45.6763Z" fill="#333333"/>
<path d="M22.4992 32.6919H20.6387V34.5468H22.4992V32.6919Z" fill="#333333"/>
<path d="M26.2204 32.6919H24.3599V34.5468H26.2204V32.6919Z" fill="#333333"/>
<path d="M29.9411 32.6919H28.0806V34.5468H29.9411V32.6919Z" fill="#333333"/>
<path d="M33.6618 32.6919H31.8013V34.5468H33.6618V32.6919Z" fill="#333333"/>
<path d="M37.383 32.6919H35.5225V34.5468H37.383V32.6919Z" fill="#333333"/>
<path d="M22.4992 36.4019H20.6387V38.2567H22.4992V36.4019Z" fill="#333333"/>
<path d="M26.2204 36.4019H24.3599V38.2567H26.2204V36.4019Z" fill="#333333"/>
<path d="M29.9411 36.4019H28.0806V38.2567H29.9411V36.4019Z" fill="#333333"/>
<path d="M33.6618 36.4019H31.8013V38.2567H33.6618V36.4019Z" fill="#333333"/>
<path d="M37.383 36.4019H35.5225V38.2567H37.383V36.4019Z" fill="#333333"/>
<path d="M22.4992 40.1118H20.6387V41.9667H22.4992V40.1118Z" fill="#333333"/>
<path d="M26.2204 40.1118H24.3599V41.9667H26.2204V40.1118Z" fill="#333333"/>
<path d="M29.9411 40.1118H28.0806V41.9667H29.9411V40.1118Z" fill="#333333"/>
<path d="M33.6618 40.1118H31.8013V41.9667H33.6618V40.1118Z" fill="#333333"/>
<path d="M37.383 40.1118H35.5225V41.9667H37.383V40.1118Z" fill="#333333"/>
<path d="M15.0568 34.5464H13.1963V36.4013H15.0568V34.5464Z" fill="#333333"/>
<path d="M11.3356 34.5464H9.4751V36.4013H11.3356V34.5464Z" fill="#333333"/>
<path d="M15.0568 38.2563H13.1963V40.1112H15.0568V38.2563Z" fill="#333333"/>
<path d="M11.3356 38.2563H9.4751V40.1112H11.3356V38.2563Z" fill="#333333"/>
<path d="M15.0568 41.9653H13.1963V43.8202H15.0568V41.9653Z" fill="#333333"/>
<path d="M11.3356 41.9653H9.4751V43.8202H11.3356V41.9653Z" fill="#333333"/>
<path d="M15.0568 45.6763H13.1963V47.5312H15.0568V45.6763Z" fill="#333333"/>
<path d="M11.3356 45.6763H9.4751V47.5312H11.3356V45.6763Z" fill="#333333"/>
<path fill-rule="evenodd" clip-rule="evenodd" d="M52.2678 30.8368H41.1046V28.9819H16.9177V30.8368H5.75457V56.8053H4.82149C4.30927 56.8053 3.89404 57.2205 3.89404 57.7327C3.89404 58.2449 4.30927 58.6601 4.82149 58.6601H53.2009C53.7131 58.6601 54.1283 58.2449 54.1283 57.7327C54.1283 57.2205 53.7131 56.8053 53.2009 56.8053H52.2678V30.8368ZM50.4073 56.8053H41.1046V51.2406H50.4073V56.8053ZM50.4073 32.6917V49.3857H41.1046V32.6917H50.4073ZM39.2441 56.8053H36.4533V46.6034C36.4533 45.0694 35.2012 43.821 33.6625 43.821H24.3599C22.8212 43.821 21.5691 45.0694 21.5691 46.6034V56.8053H18.7783V30.8368H39.2441V56.8053ZM29.9415 45.6759H33.6625C34.1751 45.6759 34.5928 46.0914 34.5928 46.6034V56.8053H29.9415V45.6759ZM28.0809 56.8053H23.4296V46.6034C23.4296 46.0914 23.8473 45.6759 24.3599 45.6759H28.0809V56.8053ZM16.9177 32.6917V49.3857H7.6151V32.6917H16.9177ZM7.6151 51.2406H16.9177V56.8053H7.6151V51.2406Z" fill="#333333"/>
<path d="M0.172363 57.7336C0.172363 57.2214 0.590415 56.8062 1.10263 56.8062C1.61484 56.8062 2.03289 57.2214 2.03289 57.7336C2.03289 58.2458 1.61484 58.661 1.10263 58.661C0.590415 58.661 0.172363 58.2458 0.172363 57.7336Z" fill="#333333"/>
<path d="M55.9888 57.7336C55.9888 57.2214 56.4068 56.8062 56.919 56.8062C57.4312 56.8062 57.8493 57.2214 57.8493 57.7336C57.8493 58.2458 57.4312 58.661 56.919 58.661C56.4068 58.661 55.9888 58.2458 55.9888 57.7336Z" fill="#333333"/>
<path fill-rule="evenodd" clip-rule="evenodd" d="M50.4067 0.660645L42.8027 9.50568H46.6857V24.342C46.6857 24.8557 47.1022 25.2722 47.6159 25.2722C48.1297 25.2722 48.5462 24.8557 48.5462 24.342V7.65079H46.8475L50.4067 3.51161L53.9659 7.65079H52.2673V28.0517C52.2673 28.5655 52.6837 28.982 53.1975 28.982C53.7113 28.982 54.1278 28.5655 54.1278 28.0517V9.50568H58.0107L50.4067 0.660645ZM47.6163 27.1274C48.1285 27.1274 48.5466 27.5427 48.5466 28.0549C48.5466 28.5671 48.1285 28.9823 47.6163 28.9823C47.1041 28.9823 46.686 28.5671 46.686 28.0549C46.686 27.5427 47.1041 27.1274 47.6163 27.1274ZM9.4751 28.0549C9.4751 27.5427 9.89315 27.1274 10.4054 27.1274C10.9176 27.1274 11.3356 27.5427 11.3356 28.0549C11.3356 28.5671 10.9176 28.9823 10.4054 28.9823C9.89315 28.9823 9.4751 28.5671 9.4751 28.0549ZM4.82393 28.983C5.3377 28.983 5.7542 28.5665 5.7542 28.0527V7.65177H4.05553L7.61473 3.51258L11.1739 7.65177H9.47526V24.3429C9.47526 24.8567 9.89175 25.2732 10.4055 25.2732C10.9193 25.2732 11.3358 24.8567 11.3358 24.3429V9.50665H15.2187L7.61473 0.661621L0.0107422 9.50665H3.89367V28.0527C3.89367 28.5665 4.31016 28.983 4.82393 28.983ZM34.5924 14.1423C34.5924 17.2112 32.089 19.707 29.0108 19.707C25.9325 19.707 23.4292 17.2112 23.4292 14.1423C23.4292 11.0734 25.9325 8.57764 29.0108 8.57764C32.089 8.57764 34.5924 11.0734 34.5924 14.1423ZM32.7318 14.1423C32.7318 12.0964 31.063 10.4325 29.0108 10.4325C26.9586 10.4325 25.2897 12.0964 25.2897 14.1423C25.2897 16.1882 26.9586 17.8521 29.0108 17.8521C31.063 17.8521 32.7318 16.1882 32.7318 14.1423Z" fill="#D33234"/>
</svg>
