<svg width="18" height="24" viewBox="0 0 18 24" fill="none" xmlns="http://www.w3.org/2000/svg">
<path d="M17.6087 20.9397C17.3927 20.9397 17.2175 21.1146 17.2175 21.3304V23.003C17.2175 23.1219 17.1206 23.2186 17.0016 23.2186H14.8987V18.1928C14.8987 17.977 14.7236 17.8021 14.5075 17.8021C14.2915 17.8021 14.1164 17.977 14.1164 18.1928V23.2187H9.88196L11.1099 21.8697C11.244 21.7223 11.3073 21.5124 11.2791 21.3079C11.2786 21.304 11.2779 21.3 11.2773 21.296L10.1077 17.0634L10.4228 16.5897C10.597 16.7133 10.7312 16.8322 10.9829 16.8322C11.2389 16.8322 11.4782 16.6892 11.596 16.4536L12.8295 13.9848L15.6396 15.0716C15.7412 15.1151 17.2174 15.779 17.2174 17.5319V19.5074C17.2174 19.7231 17.3925 19.898 17.6086 19.898C17.8246 19.898 17.9998 19.7231 17.9998 19.5074V17.5319C17.9998 15.2223 16.0194 14.3828 15.9351 14.3481C15.9327 14.3471 15.9302 14.3461 15.9277 14.3452L11.2508 12.5365V11.4412C11.9937 10.8643 12.5087 10.0092 12.638 9.03354C13.0084 9.0075 13.352 8.86937 13.6327 8.62839C13.9992 8.31365 14.2095 7.85557 14.2095 7.37182C14.2095 6.97037 14.0645 6.58703 13.806 6.28833V4.8413C13.8059 2.17182 11.6311 0 8.95778 0C6.2845 0 4.10964 2.17182 4.10964 4.8413V6.32625C3.84838 6.62193 3.70631 6.98589 3.70631 7.37177C3.70631 7.85568 3.9165 8.3137 4.28312 8.62849C4.56357 8.86938 4.90702 9.00734 5.27729 9.03344C5.40763 10.0273 5.93771 10.9144 6.7438 11.499V12.5365L2.07201 14.3451C2.06955 14.346 2.0671 14.347 2.06465 14.348C1.98031 14.3827 0 15.2222 0 17.5318V23.0029C0 23.5526 0.447876 23.9998 0.998398 23.9998H4.72541C4.94145 23.9998 5.11659 23.8249 5.11659 23.6092C5.11659 23.3935 4.94145 23.2186 4.72541 23.2186H3.88375V18.1928C3.88375 17.977 3.7086 17.8021 3.49257 17.8021C3.27653 17.8021 3.10139 17.977 3.10139 18.1928V23.2187H0.99845C0.879374 23.2187 0.782466 23.1219 0.782466 23.003V17.5318C0.782466 15.773 2.26859 15.1107 2.35986 15.0717L5.16771 13.9847L6.40133 16.4536C6.51937 16.6897 6.75903 16.8322 7.0145 16.8322C7.2649 16.8322 7.3978 16.7151 7.57456 16.5897L7.88965 17.0634L6.72022 21.2961C6.71955 21.3 6.71897 21.3039 6.7184 21.3079C6.69013 21.5122 6.7534 21.7223 6.8876 21.8698L8.11554 23.2188H6.55108C6.33504 23.2188 6.1599 23.3936 6.1599 23.6094C6.1599 23.8251 6.33504 24 6.55108 24H17.0016C17.5521 24 18 23.5527 18 23.003V21.3304C17.9999 21.1146 17.8248 20.9397 17.6087 20.9397ZM12.0968 13.7015L10.9467 16.0031C10.9182 15.9828 10.3087 15.5504 9.56369 15.0221C9.88696 14.6236 9.50877 15.0898 10.9842 13.2713L12.0968 13.7015ZM9.78453 16.1371L9.48629 16.5854H8.51079L8.21255 16.1371L8.99857 15.5797L9.78453 16.1371ZM7.52611 12.6626V11.9315C8.00137 12.1228 8.50928 12.2115 9.00529 12.2115C9.51816 12.2115 10.0211 12.1023 10.4684 11.907V12.6657L8.99857 14.4774L7.52611 12.6626ZM13.4271 7.37182C13.427 7.62771 13.3161 7.86984 13.1226 8.03604C12.9946 8.14594 12.8401 8.2162 12.6708 8.2437V6.5001C13.1204 6.57302 13.4271 6.94542 13.4271 7.37182ZM5.24495 8.2437C4.79024 8.17 4.48867 7.79458 4.48867 7.37177C4.48867 6.95417 4.83536 6.61427 5.24495 6.51974V8.2437ZM5.26597 5.72375C5.14137 5.73802 4.99856 5.77172 4.89211 5.80786V4.8413C4.89211 2.6026 6.71595 0.781302 8.95783 0.781302C11.1997 0.781302 13.0236 2.6026 13.0236 4.8413V5.78104C12.9099 5.74651 12.7919 5.7237 12.6709 5.71297C12.6709 5.33604 12.6742 5.40875 11.4393 4.08307C11.2122 3.83943 10.8366 3.78839 10.5507 3.9749C9.18785 4.86391 7.52533 5.31052 5.99138 5.20052C5.65491 5.17536 5.34843 5.39667 5.26597 5.72375ZM6.02736 8.55125V6.11417V5.98578C7.71596 6.08453 9.48634 5.58359 10.9166 4.66896C11.4829 5.27615 11.7896 5.59464 11.8885 5.71578C11.8885 6.02224 11.8885 8.20042 11.8885 8.5512C11.8885 10.137 10.5936 11.4302 9.00535 11.4302C7.22188 11.4302 6.02736 10.0486 6.02736 8.55125ZM7.05043 16.0031L5.90041 13.7015L7.011 13.272L8.43182 15.0233C7.70929 15.5356 7.11599 15.9566 7.05043 16.0031ZM7.49925 21.3803L8.63153 17.3666H9.36544L10.4977 21.3803L8.99851 23.0273L7.49925 21.3803Z" fill="#333333"/>
</svg>
