<svg width="58" height="59" viewBox="0 0 58 59" fill="none" xmlns="http://www.w3.org/2000/svg">
<path d="M55.5643 19.4953H55.0003V17.7095H55.5642C56.9073 17.7095 58 18.8023 58.0003 20.1454V49.6393C58.0003 50.9825 56.9074 52.0752 55.5643 52.0752H53.9391C53.4459 52.0752 53.0464 51.6756 53.0464 51.1825C53.0464 50.6893 53.4459 50.2898 53.9391 50.2898H55.5643C55.923 50.2898 56.2147 49.998 56.2147 49.6394V20.1456C56.2147 19.787 55.923 19.4953 55.5643 19.4953Z" fill="#D33234"/>
<path d="M5.25195 49.6395V44.6604H7.03728V49.6396C7.03728 49.9983 7.3289 50.29 7.68754 50.29H49.7731C50.2662 50.29 50.6658 50.6896 50.6658 51.1827C50.6658 51.6759 50.2662 52.0754 49.7731 52.0754H7.68777C6.34464 52.0754 5.25195 50.9826 5.25195 49.6395Z" fill="#D33234"/>
<path fill-rule="evenodd" clip-rule="evenodd" d="M39.8307 26.73C42.7988 25.3682 46.1933 26.8675 47.2719 29.8308C48.5691 33.395 45.9192 37.1838 42.1292 37.1838C41.3287 37.1838 40.5457 37.0062 39.8325 36.6775C35.1716 38.8249 30.4353 33.9684 32.571 29.3893C33.8482 26.6502 37.0921 25.4664 39.8307 26.73ZM38.0426 28.0457C36.4529 27.8239 34.8812 28.6599 34.1894 30.1437C32.9541 32.7924 35.1519 35.765 38.0456 35.3621C36.1717 33.2777 36.1837 30.1247 38.0426 28.0457ZM39.832 34.5987C37.9524 33.1158 37.9782 30.273 39.83 28.8091C41.7164 30.2975 41.671 33.1433 39.832 34.5987ZM41.6145 35.361C43.1807 35.5819 44.7672 34.7744 45.4708 33.2654C46.7223 30.582 44.4642 27.6454 41.6167 28.0456C43.4684 30.1111 43.4911 33.2611 41.6145 35.361Z" fill="#D33234"/>
<path fill-rule="evenodd" clip-rule="evenodd" d="M0.00011903 39.5907C0.00011903 40.9338 1.09269 42.2725 2.43594 42.2725H50.3125C51.6556 42.2725 52.7484 41.1798 52.7484 39.8366L52.7483 10.0965C52.7483 8.75346 51.6556 7.66064 50.3124 7.66064H2.43594C1.09269 7.66076 0 8.75346 0 10.0966V31.704C0 32.1972 0.399701 32.5967 0.892722 32.5967C1.38574 32.5967 1.78544 32.1972 1.78544 31.704V22.8137H50.9627V39.5907C50.9627 39.9493 50.671 40.2411 50.3124 40.2411H2.43594C2.0773 40.2411 1.78556 39.9493 1.78556 39.5907V35.8702C1.78556 35.377 1.38586 34.9775 0.892841 34.9775C0.39982 34.9775 0.00011903 35.377 0.00011903 35.8702V39.5907ZM50.9627 14.3915H44.2069C43.7137 14.3915 43.3141 14.7911 43.3141 15.2842C43.3141 15.7774 43.7137 16.177 44.2069 16.177H50.9629V21.028H1.78544V16.177H40.0407C40.5338 16.177 40.9334 15.7774 40.9334 15.2842C40.9334 14.7911 40.5338 14.3915 40.0407 14.3915H1.78544V10.0966C1.78544 9.73795 2.07718 9.44633 2.43582 9.44633H50.3124C50.671 9.44633 50.9627 9.73795 50.9627 10.0966V14.3915Z" fill="#333333"/>
<path d="M16.4757 26.5015H6.14419C5.65117 26.5015 5.25146 26.901 5.25146 27.3942C5.25146 27.8872 5.65117 28.2869 6.14419 28.2869H16.4756C16.9686 28.2869 17.3683 27.8873 17.3683 27.3942C17.3684 26.901 16.9687 26.5015 16.4757 26.5015Z" fill="#333333"/>
<path d="M20.4489 26.5015H21.0086C21.5016 26.5015 21.9013 26.901 21.9013 27.3942C21.9013 27.8873 21.5016 28.2869 21.0086 28.2869H20.4489C19.9559 28.2869 19.5562 27.8873 19.5562 27.3942C19.5562 26.901 19.9559 26.5015 20.4489 26.5015Z" fill="#333333"/>
<path d="M14.9969 45.4214H13.1535C12.6604 45.4214 12.2607 45.821 12.2607 46.3141C12.2607 46.8072 12.6604 47.2068 13.1535 47.2068H14.9969C15.4899 47.2068 15.8896 46.8072 15.8896 46.3141C15.8896 45.821 15.49 45.4214 14.9969 45.4214Z" fill="#333333"/>
<path d="M20.867 45.4214H19.0236C18.5306 45.4214 18.1309 45.821 18.1309 46.3141C18.1309 46.8072 18.5306 47.2068 19.0236 47.2068H20.867C21.36 47.2068 21.7597 46.8072 21.7597 46.3141C21.7597 45.821 21.36 45.4214 20.867 45.4214Z" fill="#333333"/>
<path d="M24.8952 45.4214H26.7387C27.2317 45.4214 27.6314 45.821 27.6314 46.3141C27.6314 46.8072 27.2317 47.2068 26.7387 47.2068H24.8952C24.4021 47.2068 24.0024 46.8072 24.0024 46.3141C24.0024 45.821 24.4021 45.4214 24.8952 45.4214Z" fill="#333333"/>
<path d="M32.6092 45.4214H30.7658C30.2727 45.4214 29.873 45.821 29.873 46.3141C29.873 46.8072 30.2727 47.2068 30.7658 47.2068H32.6092C33.1023 47.2068 33.5019 46.8072 33.5019 46.3141C33.5019 45.821 33.1023 45.4214 32.6092 45.4214Z" fill="#333333"/>
<path d="M24.7473 26.5015H24.1876C23.6946 26.5015 23.2949 26.901 23.2949 27.3942C23.2949 27.8873 23.6946 28.2869 24.1876 28.2869H24.7473C25.2403 28.2869 25.64 27.8873 25.64 27.3942C25.64 26.901 25.2403 26.5015 24.7473 26.5015Z" fill="#333333"/>
<path d="M27.9274 26.5015H28.4871C28.9801 26.5015 29.3798 26.901 29.3798 27.3942C29.3798 27.8873 28.9801 28.2869 28.4871 28.2869H27.9274C27.4344 28.2869 27.0347 27.8873 27.0347 27.3942C27.0347 26.901 27.4344 26.5015 27.9274 26.5015Z" fill="#333333"/>
<path d="M6.14419 30.6802H28.4864C28.9794 30.6802 29.3791 31.0799 29.379 31.5729C29.379 32.0659 28.9793 32.4656 28.4863 32.4656H6.14419C5.65117 32.4656 5.25146 32.066 5.25146 31.5729C5.25146 31.0798 5.65117 30.6802 6.14419 30.6802Z" fill="#333333"/>
<path d="M28.4864 34.8608H6.14419C5.65117 34.8608 5.25146 35.2604 5.25146 35.7536C5.25146 36.2467 5.65117 36.6463 6.14419 36.6463H28.4863C28.9793 36.6463 29.379 36.2467 29.379 35.7536C29.3791 35.2605 28.9794 34.8608 28.4864 34.8608Z" fill="#333333"/>
</svg>
