<svg width="59" height="59" viewBox="0 0 59 59" fill="none" xmlns="http://www.w3.org/2000/svg">
<path fill-rule="evenodd" clip-rule="evenodd" d="M36.5043 26.0582C37.0523 25.7385 37.6803 25.5444 38.3653 25.5444C40.4319 25.5444 42.1102 27.2228 42.1102 29.2893C42.1102 31.3559 40.4319 33.0343 38.3653 33.0343C37.6803 33.0343 37.0523 32.8402 36.5043 32.5205C35.9334 32.8516 35.294 33.0343 34.6204 33.0343C32.5539 33.0343 30.8755 31.3559 30.8755 29.2893C30.8755 27.2228 32.5539 25.5444 34.6204 25.5444C35.294 25.5444 35.9334 25.7271 36.5043 26.0582ZM34.6204 31.1618C34.7802 31.1618 34.9401 31.139 35.0999 31.0933C34.8031 30.5567 34.6204 29.9516 34.6204 29.2893C34.6204 28.6271 34.8031 28.022 35.0999 27.4854C34.9515 27.4511 34.7802 27.4169 34.6204 27.4169C33.5928 27.4169 32.7479 28.2618 32.7479 29.2893C32.7479 30.3169 33.5928 31.1618 34.6204 31.1618ZM36.4929 29.2893C36.4929 30.3169 37.3377 31.1618 38.3653 31.1618C39.3929 31.1618 40.2378 30.3169 40.2378 29.2893C40.2378 28.2618 39.3929 27.4169 38.3653 27.4169C37.3377 27.4169 36.4929 28.2618 36.4929 29.2893Z" fill="#D33234"/>
<path d="M14.0367 26.481H6.5583C6.04123 26.481 5.62207 26.9001 5.62207 27.4172C5.62207 27.9342 6.04123 28.3534 6.5583 28.3534H14.0367C14.5538 28.3534 14.9729 27.9342 14.9729 27.4172C14.9729 26.9001 14.5538 26.481 14.0367 26.481Z" fill="#D33234"/>
<path d="M18.7178 32.0972H6.5583C6.04123 32.0972 5.62207 32.5163 5.62207 33.0334C5.62207 33.5505 6.04124 33.9696 6.5583 33.9696H18.7178C19.2349 33.9696 19.6541 33.5505 19.6541 33.0334C19.6541 32.5163 19.2349 32.0972 18.7178 32.0972Z" fill="#D33234"/>
<path d="M6.5583 37.7153H38.3672C38.8843 37.7153 39.3034 38.1345 39.3034 38.6516C39.3034 39.1686 38.8843 39.5878 38.3672 39.5878H6.55829C6.04123 39.5878 5.62207 39.1686 5.62207 38.6516C5.62207 38.1345 6.04123 37.7153 6.5583 37.7153Z" fill="#D33234"/>
<path d="M10.3032 43.3208H6.5583C6.04123 43.3208 5.62207 43.74 5.62207 44.257C5.62207 44.7741 6.04123 45.1933 6.5583 45.1933H10.3032C10.8203 45.1933 11.2394 44.7741 11.2394 44.257C11.2394 43.74 10.8203 43.3208 10.3032 43.3208Z" fill="#D33234"/>
<path d="M15.9069 43.3208H19.6518C20.1689 43.3208 20.5881 43.74 20.5881 44.257C20.5881 44.7741 20.1689 45.1933 19.6518 45.1933H15.9069C15.3899 45.1933 14.9707 44.7741 14.9707 44.257C14.9707 43.74 15.3899 43.3208 15.9069 43.3208Z" fill="#D33234"/>
<path d="M29.0171 43.3208H25.2722C24.7551 43.3208 24.3359 43.74 24.3359 44.257C24.3359 44.7741 24.7551 45.1933 25.2722 45.1933H29.0171C29.5341 45.1933 29.9533 44.7741 29.9533 44.257C29.9533 43.74 29.5341 43.3208 29.0171 43.3208Z" fill="#D33234"/>
<path d="M56.052 21.2175L16.7989 8.81819C16.5249 8.72686 14.3328 8.00756 13.2824 10.645L10.0512 20.8636H2.81259C1.25982 20.875 0.00390625 22.1309 0.00390625 23.6722V48.0027C0.00390625 49.5555 1.25982 50.8114 2.81259 50.8114H43.9838C44.9657 50.8114 45.822 50.3091 46.3243 49.5441C46.3243 49.5441 47.5917 49.898 47.8771 49.898C49.1102 49.898 50.1834 49.1102 50.5488 47.9342L57.8787 24.7341C58.1071 24.0262 58.2669 21.8112 56.052 21.2175ZM13.9331 14.7781L33.2171 20.8636H20.7836L12.8028 18.3403L13.9331 14.7781ZM12.2434 20.1328L14.5839 20.875H12.015L12.2434 20.1328ZM44.92 48.0027H44.9086C44.9086 48.5165 44.4861 48.939 43.9723 48.939H2.81259C2.29881 48.939 1.87636 48.5165 1.87636 48.0027V23.6722C1.87636 23.1585 2.29881 22.736 2.81259 22.736H43.9838C44.4975 22.736 44.92 23.1585 44.92 23.6722V48.0027ZM48.7677 47.3748C48.6192 47.8543 48.0712 48.1397 47.5917 47.9799L46.781 47.7287V31.0479L53.2775 33.103L48.7677 47.3748ZM53.837 31.3105L46.781 29.0841V25.1565L54.9673 27.7368L53.837 31.3105ZM56.0976 24.1746L55.5382 25.9557L46.7354 23.1813C46.4956 21.8683 45.3539 20.875 43.9838 20.875H39.4282L14.4926 12.997L15.052 11.2159C15.2005 10.7363 15.7371 10.4509 16.228 10.6107L55.4811 22.9986C56.2689 23.2041 56.1661 23.9348 56.0976 24.1746Z" fill="#333333"/>
</svg>
