<svg width="58" height="58" viewBox="0 0 58 58" fill="none" xmlns="http://www.w3.org/2000/svg">
<path d="M44.0977 38.5158C44.3604 38.1037 44.9084 37.9818 45.3217 38.2437C47.277 39.5582 48.4493 41.7556 48.4497 44.1068C48.4505 48.013 45.2749 51.1803 41.357 51.181C37.4392 51.1818 34.2625 48.0157 34.2617 44.1094C34.2609 40.2032 37.4365 37.0359 41.3544 37.0352C41.8441 37.0352 42.2411 37.431 42.2411 37.9193C42.2411 38.4075 41.8441 38.8034 41.3544 38.8034C39.5851 38.8043 37.9319 39.6821 36.9437 41.1454C35.3025 43.5755 35.9481 46.8721 38.3855 48.5084C40.8229 50.1446 44.1292 49.501 45.7704 47.0708C47.4114 44.6407 46.766 41.3441 44.3285 39.7078C43.9468 39.4343 43.8456 38.9114 44.0977 38.5158Z" fill="#D33234"/>
<path d="M43.3898 41.7155C43.7334 41.3845 44.2783 41.3845 44.6219 41.7155C44.9742 42.0547 44.9839 42.6144 44.6437 42.9657L40.6533 46.9442C40.307 47.2893 39.7457 47.2893 39.3994 46.9442L38.0693 45.618C37.7373 45.2754 37.7373 44.7321 38.0693 44.3895C38.4096 44.0383 38.9709 44.0286 39.3232 44.3679L40.0264 45.069L43.3898 41.7155Z" fill="#D33234"/>
<path d="M9.43362 31.7312C8.94392 31.7312 8.54688 32.1271 8.54688 32.6154V36.1518C8.54688 36.6401 8.94392 37.0359 9.43362 37.0359C9.92333 37.0359 10.3204 36.6401 10.3204 36.1518V32.6154C10.3204 32.1271 9.92333 31.7312 9.43362 31.7312Z" fill="#333333"/>
<path d="M12.9805 33.4994C12.4908 33.4994 12.0938 33.8953 12.0938 34.3835V37.92C12.0938 38.4083 12.4908 38.8041 12.9805 38.8041C13.4702 38.8041 13.8672 38.4083 13.8672 37.92V34.3835C13.8672 33.8953 13.4702 33.4994 12.9805 33.4994Z" fill="#333333"/>
<path fill-rule="evenodd" clip-rule="evenodd" d="M45.3551 14.172C45.625 14.3311 45.7906 14.6206 45.7905 14.9332V34.4722C48.6068 35.7585 50.7208 38.2051 51.58 41.1725C53.2093 46.7997 49.9547 52.6783 44.3107 54.3027C38.6667 55.9271 32.7707 52.6822 31.1414 47.055L25.8466 50.1751C25.8327 50.1831 25.8182 50.1885 25.8038 50.1938L25.7917 50.1984C25.7863 50.2005 25.7809 50.2027 25.7757 50.2051C25.7512 50.2172 25.726 50.2278 25.7003 50.237C25.5051 50.3183 25.2854 50.3183 25.0902 50.237C25.0648 50.2278 25.0399 50.2172 25.0157 50.2051C24.9912 50.1964 24.9673 50.1863 24.9439 50.1751L5.43539 38.6815C5.16549 38.5224 4.99989 38.233 5 37.9203V14.9332C5 14.918 5.00321 14.9037 5.00645 14.8892C5.00886 14.8784 5.01128 14.8676 5.01241 14.8563C5.01349 14.8456 5.01544 14.8351 5.01738 14.8247C5.02023 14.8095 5.02306 14.7943 5.02306 14.7785C5.03935 14.6771 5.07327 14.5792 5.12326 14.4894V14.4832C5.12478 14.4806 5.12759 14.4784 5.13032 14.4763C5.13396 14.4735 5.13745 14.4708 5.13745 14.4673C5.19021 14.385 5.25638 14.312 5.33342 14.2516L5.34518 14.2421C5.35872 14.2312 5.37196 14.2205 5.38574 14.2109C5.3933 14.2056 5.40006 14.1997 5.40677 14.1938C5.41578 14.1859 5.42473 14.1781 5.43539 14.172C12.0011 10.1834 18.2848 6.97084 24.9576 3.11826C24.9708 3.11065 24.9848 3.10626 24.999 3.10183C25.0095 3.09854 25.0201 3.09523 25.0304 3.09056C25.0403 3.08612 25.0503 3.08258 25.0603 3.07906C25.0749 3.07389 25.0895 3.06876 25.1031 3.06087C25.1991 3.02425 25.3008 3.00473 25.4036 3.00309L25.409 3C25.412 2.99999 25.4153 3.00135 25.4185 3.00266C25.4227 3.00442 25.4268 3.0061 25.4299 3.00433C25.5275 3.00886 25.6238 3.02969 25.7147 3.06618L25.7287 3.07165C25.745 3.07791 25.7608 3.08404 25.776 3.09116C25.7844 3.09507 25.7929 3.09796 25.8014 3.10083C25.8127 3.10469 25.824 3.10851 25.8346 3.11471C32.5501 6.79466 38.8462 10.2184 45.3551 14.172ZM26.2727 5.396C25.5604 5.17678 25.3216 4.89888 24.5022 5.42909L7.651 14.9455L12.2421 17.6501L20.511 12.7777C20.9329 12.5292 21.477 12.6688 21.7263 13.0894C21.9756 13.51 21.8356 14.0525 21.4137 14.3011L13.9854 18.6775L18.5965 21.3944L36.3617 10.9308C33.1851 8.83553 29.6087 7.22043 26.2727 5.396ZM17.7098 28.8298V22.9265L13.1288 20.2273V26.1306L17.7098 28.8298ZM30.7157 44.1091C30.7124 43.1868 30.8302 42.268 31.0661 41.3761C32.5588 35.733 38.3572 32.3651 44.017 33.8534V15.4372L38.1059 11.9546L20.3408 22.4217L25.3952 25.4003L41.4507 15.9402C41.8724 15.6917 42.4163 15.831 42.6656 16.2514C42.9149 16.6718 42.7751 17.2141 42.3534 17.4627L26.282 26.9316V41.4568C26.282 41.945 25.8849 42.3409 25.3952 42.3409C24.9055 42.3409 24.5085 41.945 24.5085 41.4568V26.9316L19.4833 23.9707V30.3797C19.4833 30.8679 19.0862 31.2638 18.5965 31.2638C18.4378 31.2636 18.282 31.2211 18.1452 31.1409L11.7907 27.3966C11.5205 27.2374 11.355 26.9475 11.3553 26.6345V19.1823L6.7735 16.4831V37.4164L24.5085 47.8649V44.9933C24.5085 44.505 24.9055 44.1091 25.3952 44.1091C25.8849 44.1091 26.282 44.505 26.282 44.9933V47.8649L30.7743 45.2169C30.7355 44.8489 30.716 44.4791 30.7157 44.1091ZM32.4892 44.1091C32.4892 48.992 36.4593 52.9503 41.3567 52.9503C46.2519 52.9449 50.2189 48.9898 50.2242 44.1091C50.2242 39.2263 46.2541 35.268 41.3567 35.268C36.4593 35.268 32.4892 39.2263 32.4892 44.1091Z" fill="#333333"/>
</svg>
