<svg width="59" height="59" viewBox="0 0 59 59" fill="none" xmlns="http://www.w3.org/2000/svg">
<path d="M0.989038 0.660645C0.445504 0.660645 0.00488281 1.09829 0.00488281 1.63815V43.1619C0.00488281 43.7017 0.445504 44.1394 0.989038 44.1394H4.47803C5.02157 44.1394 5.46219 43.7017 5.46219 43.1619C5.46219 42.622 5.02157 42.1844 4.47803 42.1844H1.97319V2.61565H56.0366V42.1844H53.4937C52.9501 42.1844 52.5095 42.622 52.5095 43.1619C52.5095 43.7017 52.9501 44.1394 53.4937 44.1394H57.0207C57.5643 44.1394 58.0049 43.7017 58.0049 43.1619V1.63815C58.0049 1.09829 57.5643 0.660645 57.0207 0.660645H0.989038Z" fill="#333333"/>
<path fill-rule="evenodd" clip-rule="evenodd" d="M11.6244 34.3274C11.6244 30.7565 14.1502 27.6985 17.9184 27.6985C21.6865 27.6985 24.2125 30.7563 24.2125 34.3257V36.2095C24.2125 39.522 22.0389 42.3933 18.7163 42.7913L26.306 51.4312H34.7036L34.8015 52.3C34.8015 52.3 34.8015 52.3 33.8234 52.4087L34.8015 52.3L34.8017 52.3019L34.8026 52.3104L34.8044 52.3285C34.8059 52.3431 34.8077 52.3627 34.8097 52.3869C34.8138 52.4354 34.8187 52.5027 34.8229 52.5862C34.8313 52.7528 34.8373 52.9859 34.8284 53.2638C34.8108 53.8133 34.7345 54.5692 34.486 55.3428C34.3418 55.7916 34.1343 56.2626 33.835 56.7056H50.4153C50.9588 56.7056 51.3994 57.1433 51.3994 57.6831C51.3994 58.223 50.9588 58.6606 50.4153 58.6606H16.5913C16.0478 58.6606 15.6072 58.223 15.6072 57.6831C15.6072 57.1433 16.0478 56.7056 16.5913 56.7056H19.5256L14.5679 51.7814C14.1836 51.3997 14.1836 50.7808 14.5679 50.399C14.9522 50.0173 15.5754 50.0173 15.9597 50.399L22.3088 56.7052H29.841C30.7806 56.7052 31.3683 56.4403 31.758 56.1126C32.1631 55.7719 32.4358 55.2934 32.6108 54.7486C32.7622 54.2773 32.8284 53.7928 32.8526 53.3862H25.4112L16.6449 43.407L11.2022 43.933C10.5055 44.6654 9.96386 45.7983 9.58313 47.3642L9.58127 47.3718L6.92631 57.9197C6.79449 58.4435 6.26015 58.7619 5.73285 58.631C5.20554 58.5 4.88495 57.9693 5.01677 57.4456L7.67076 46.9014C8.09151 45.1727 8.74435 43.6701 9.77141 42.5904C10.7173 41.596 11.9276 41.0166 13.3956 40.9037C12.2701 39.6897 11.6244 38.0158 11.6244 36.2111V34.3274ZM17.9184 29.6535C15.4111 29.6535 13.5927 31.6551 13.5927 34.3274V36.2111C13.5927 38.8815 15.4109 40.8834 17.9184 40.8834C20.4258 40.8834 22.2442 38.8817 22.2442 36.2095V34.3257C22.2442 31.6553 20.426 29.6535 17.9184 29.6535Z" fill="#333333"/>
<path d="M32.5208 38.2467C32.1677 38.2467 31.8416 38.4347 31.6663 38.7392L26.3565 47.9687L28.0655 48.9386L33.092 40.2017H48.7573L41.8662 52.7501H36.5032V54.7051H42.4504C42.8106 54.7051 43.1419 54.5097 43.3144 54.1957L51.2792 39.6923C51.4455 39.3894 51.4388 39.0219 51.2615 38.7252C51.0842 38.4286 50.7625 38.2467 50.4152 38.2467H32.5208Z" fill="#333333"/>
<path d="M15.8289 18.3795C15.8745 18.4808 15.9412 18.573 16.0252 18.6508L18.7394 21.1479C19.0943 21.4629 19.6583 21.4588 20.0074 21.1376C20.3565 20.8164 20.3615 20.2975 20.0186 19.9709L18.8479 18.8938L38.3827 18.8938L37.2128 19.9698C36.8699 20.2967 36.8749 20.8156 37.224 21.1368C37.5727 21.4576 38.1371 21.4622 38.492 21.1467L41.2062 18.65C41.2828 18.578 41.3441 18.493 41.3872 18.4001C41.3992 18.373 41.4099 18.3452 41.4186 18.317C41.4426 18.2503 41.4576 18.181 41.4629 18.1105C41.4629 18.1007 41.4636 18.0912 41.4642 18.0818C41.4654 18.0634 41.4665 18.0456 41.4629 18.0274C41.46 17.9375 41.441 17.8488 41.407 17.7642C41.407 17.7569 41.407 17.7493 41.4016 17.7428C41.3573 17.6518 41.296 17.5691 41.2207 17.4979C41.2171 17.4944 41.2147 17.4903 41.2122 17.4862C41.2095 17.4817 41.2068 17.4771 41.2025 17.4731L38.4883 14.976C38.1334 14.6605 37.5694 14.6651 37.2203 14.9863C36.8712 15.3075 36.8666 15.8264 37.2091 16.1529L38.3827 17.2292L18.8479 17.2292L20.0178 16.1529C20.2526 15.9441 20.347 15.6347 20.2642 15.3437C20.1813 15.0526 19.9345 14.8251 19.6181 14.7493C19.3017 14.6731 18.9655 14.7596 18.7385 14.976L16.0244 17.4731C15.7656 17.7112 15.6881 18.069 15.8281 18.3802L15.8289 18.3795Z" fill="#D33234"/>
<path d="M47.2122 8.65803L49.2157 8.65803L49.2157 18.8938C49.2157 19.4457 49.6647 19.8929 50.2177 19.8929C50.7708 19.8929 51.2197 19.4457 51.2197 18.8938L51.2197 7.65942C51.2197 7.10752 50.7708 6.66034 50.2177 6.66034L47.2122 6.66034C46.6591 6.66034 46.2106 7.10752 46.2106 7.65942C46.2106 8.21085 46.6591 8.65803 47.2122 8.65803Z" fill="#D33234"/>
<path d="M8.00862 10.6557C8.00862 11.2076 7.56012 11.6548 7.00707 11.6548C6.45357 11.6548 6.00507 11.2076 6.00507 10.6557L6.00507 7.65941C6.00507 7.10752 6.45357 6.66034 7.00707 6.66034L13.5049 6.66034C14.0584 6.66034 14.5069 7.10752 14.5069 7.65941C14.5069 8.21084 14.0584 8.65802 13.5049 8.65802L8.00862 8.65802L8.00862 10.6557Z" fill="#D33234"/>
<path d="M49.1523 23.1171C48.8686 22.6713 49.0066 22.084 49.4606 21.8054C49.9146 21.5268 50.5125 21.6624 50.7963 22.1081L50.8574 22.2042C51.1411 22.65 51.0031 23.2372 50.5492 23.5159C50.0952 23.7944 49.4972 23.6589 49.2135 23.2132L49.1523 23.1171Z" fill="#D33234"/>
</svg>
