<svg width="59" height="59" viewBox="0 0 59 59" fill="none" xmlns="http://www.w3.org/2000/svg">
<path d="M6 1.63626C6 1.09744 6.43688 0.660645 6.97579 0.660645H43.9533C44.4922 0.660645 44.9291 1.09744 44.9291 1.63626V2.26802C44.9291 2.80684 44.4922 3.24363 43.9533 3.24363C43.4144 3.24363 42.9775 2.80684 42.9775 2.26802V2.61187H7.95158V48.6353H7.84698C8.3859 48.6353 8.82277 49.0721 8.82277 49.6109C8.82277 50.1497 8.3859 50.5865 7.84698 50.5865H6.97579C6.43688 50.5865 6 50.1497 6 49.6109V1.63626Z" fill="#333333"/>
<path d="M20.9027 16.7752C20.9027 16.2364 21.3396 15.7996 21.8785 15.7996H44.407C44.9459 15.7996 45.3828 16.2364 45.3828 16.7752C45.3828 17.314 44.9459 17.7508 44.407 17.7508H21.8785C21.3396 17.7508 20.9027 17.314 20.9027 16.7752Z" fill="#333333"/>
<path d="M20.9027 21.7545C20.9027 21.2156 21.3396 20.7788 21.8785 20.7788H44.407C44.9459 20.7788 45.3828 21.2156 45.3828 21.7545C45.3828 22.2933 44.9459 22.7301 44.407 22.7301H21.8785C21.3396 22.7301 20.9027 22.2933 20.9027 21.7545Z" fill="#333333"/>
<path d="M21.8785 25.7581C21.3396 25.7581 20.9027 26.1949 20.9027 26.7337C20.9027 27.2726 21.3396 27.7094 21.8785 27.7094H44.407C44.9459 27.7094 45.3828 27.2726 45.3828 26.7337C45.3828 26.1949 44.9459 25.7581 44.407 25.7581H21.8785Z" fill="#333333"/>
<path d="M20.9027 31.713C20.9027 31.1742 21.3396 30.7374 21.8785 30.7374H44.407C44.9459 30.7374 45.3828 31.1742 45.3828 31.713C45.3828 32.2518 44.9459 32.6886 44.407 32.6886H21.8785C21.3396 32.6886 20.9027 32.2518 20.9027 31.713Z" fill="#333333"/>
<path d="M21.8785 35.7167C21.3396 35.7167 20.9027 36.1535 20.9027 36.6923C20.9027 37.2311 21.3396 37.6679 21.8785 37.6679H44.407C44.9459 37.6679 45.3828 37.2311 45.3828 36.6923C45.3828 36.1535 44.9459 35.7167 44.407 35.7167H21.8785Z" fill="#333333"/>
<path d="M20.9027 41.6716C20.9027 41.1328 21.3396 40.696 21.8785 40.696H44.407C44.9459 40.696 45.3828 41.1328 45.3828 41.6716C45.3828 42.2104 44.9459 42.6472 44.407 42.6472H21.8785C21.3396 42.6472 20.9027 42.2104 20.9027 41.6716Z" fill="#333333"/>
<path fill-rule="evenodd" clip-rule="evenodd" d="M15.0465 8.73473C14.5075 8.73473 14.0707 9.17153 14.0707 9.71035V57.685C14.0707 58.0975 14.3268 58.4502 14.6887 58.5929C14.7404 58.6133 14.7942 58.6294 14.8498 58.6408C14.9134 58.6538 14.9792 58.6606 15.0467 58.6606L52.0242 58.6606C52.5631 58.6606 53 58.2238 53 57.685L53 9.71041C53 9.261 52.6961 8.88257 52.2825 8.76935C52.2002 8.74678 52.1135 8.73473 52.024 8.73473H15.0465ZM51.0482 10.686V16.3977L51.0484 16.4187L51.0484 56.7094H27.0327L27.0216 56.7094H16.0225L16.0225 50.9977L16.0222 50.9769V10.686H40.038L40.0491 10.686L51.0482 10.686Z" fill="#333333"/>
<path d="M10.9776 4.66064C10.4377 4.66064 10 5.09809 10 5.6377V53.6836C10 54.2232 10.4377 54.6606 10.9776 54.6606H11.8503C12.3902 54.6606 12.8279 54.2232 12.8279 53.6836C12.8279 53.144 12.3902 52.7065 11.8503 52.7065H11.9551V6.61477H47.0449V6.27041C47.0449 6.81002 47.4825 7.24747 48.0224 7.24747C48.5623 7.24747 49 6.81002 49 6.27041V5.6377C49 5.09809 48.5623 4.66064 48.0224 4.66064H10.9776Z" fill="#D33234"/>
<path d="M21.8647 49.7421C21.3248 49.7421 20.8871 50.1796 20.8871 50.7192C20.8871 51.2588 21.3248 51.6963 21.8647 51.6963H30.2762C30.8161 51.6963 31.2538 51.2588 31.2538 50.7192C31.2538 50.1796 30.8161 49.7421 30.2762 49.7421H21.8647Z" fill="#D33234"/>
</svg>
