<svg width="12" height="12" viewBox="0 0 12 12" fill="none" xmlns="http://www.w3.org/2000/svg">
<path d="M11.916 5.28911C11.8754 5.04533 11.6364 4.87926 11.3821 4.91815C11.1279 4.95705 10.9546 5.18621 10.9952 5.42999C10.9956 5.43266 10.9961 5.43531 10.9966 5.43795C11.4714 8.1175 9.59051 10.6587 6.79554 11.1139C4.00057 11.5691 1.34992 9.76586 0.875123 7.08631C0.400329 4.40676 2.28123 1.86558 5.07617 1.41039C6.79502 1.13047 8.54457 1.70608 9.72191 2.93888L7.6565 3.59861C7.41217 3.67655 7.28003 3.9296 7.3613 4.16385C7.36133 4.1639 7.36136 4.16398 7.36138 4.16403C7.44268 4.39828 7.70663 4.52496 7.95097 4.44704C7.95105 4.44702 7.95111 4.44699 7.95116 4.44699L10.7486 3.55304C10.939 3.49223 11.0675 3.32134 11.0675 3.12887V0.446988C11.0675 0.200119 10.8587 0 10.6012 0C10.3437 0 10.135 0.200119 10.135 0.446988V2.07979C7.73392 -0.109606 3.93615 -0.0183854 1.65244 2.28352C-0.631268 4.58543 -0.536146 8.22637 1.86495 10.4158C4.26605 12.6052 8.06379 12.514 10.3475 10.2121C11.6498 8.89941 12.2309 7.07534 11.916 5.28911Z" fill="#4F4F4F"/>
</svg>
