<svg width="58" height="59" viewBox="0 0 58 59" fill="none" xmlns="http://www.w3.org/2000/svg">
<path d="M15.4212 39.7577C14.9819 39.3184 14.2698 39.3184 13.8303 39.7577L3.32945 50.2586C2.89018 50.6978 2.89018 51.4101 3.32945 51.8495C3.54925 52.0691 3.8371 52.1788 4.12495 52.1788C4.41281 52.1788 4.70066 52.0691 4.92035 51.8494L15.4212 41.3485C15.8605 40.9093 15.8605 40.197 15.4212 39.7577Z" fill="#D33234"/>
<path d="M28.0148 54.153C27.5754 53.714 26.8633 53.714 26.424 54.1531L23.8368 56.7403C23.3975 57.1796 23.3975 57.8918 23.8368 58.3312C24.0565 58.5508 24.3443 58.6606 24.6322 58.6606C24.92 58.6606 25.2079 58.5507 25.4276 58.3311L28.0148 55.7439C28.454 55.3046 28.454 54.5924 28.0148 54.153Z" fill="#D33234"/>
<path d="M12.1761 55.938C12.472 55.938 12.7622 56.0583 12.9713 56.2676C13.1807 56.4768 13.301 56.7659 13.301 57.0629C13.301 57.3587 13.1805 57.6489 12.9713 57.8581C12.7622 58.0674 12.472 58.1877 12.1761 58.1877C11.8803 58.1877 11.5901 58.0674 11.3809 57.8581C11.1715 57.6489 11.0513 57.3587 11.0513 57.0629C11.0513 56.7659 11.1716 56.4768 11.3809 56.2676C11.5901 56.0583 11.8791 55.938 12.1761 55.938Z" fill="#D33234"/>
<path d="M21.3392 47.8983C20.9002 47.459 20.1881 47.459 19.7484 47.8983L14.1864 53.4602C13.7471 53.8995 13.7471 54.6118 14.1864 55.051C14.4061 55.2707 14.6939 55.3805 14.9818 55.3805C15.2696 55.3805 15.5575 55.2706 15.7772 55.051L21.3392 49.4891C21.7785 49.0498 21.7785 48.3376 21.3392 47.8983Z" fill="#D33234"/>
<path d="M38.9471 47.4715C39.3864 47.0323 40.0985 47.0323 40.5379 47.4715C40.9771 47.9108 40.9771 48.6231 40.5379 49.0624L34.9608 54.6395C34.7411 54.859 34.4532 54.9689 34.1654 54.9689C33.8775 54.9689 33.5897 54.859 33.37 54.6395C32.9307 54.2001 32.9307 53.4878 33.37 53.0486L38.9471 47.4715Z" fill="#D33234"/>
<path fill-rule="evenodd" clip-rule="evenodd" d="M52.8218 0.817261C53.1693 0.611634 53.6008 0.60826 53.9517 0.808487C54.3025 1.0086 54.5192 1.38161 54.5192 1.78555V45.993C54.5192 46.3496 54.35 46.6851 54.0633 46.8973C53.8673 47.0423 53.6322 47.1179 53.3942 47.1179C53.284 47.1179 53.1732 47.1016 53.0652 47.0686L37.4513 42.2917L29.1504 50.4043C28.9361 50.6138 28.6523 50.7248 28.364 50.7248C28.2169 50.7248 28.0687 50.6959 27.9278 50.6366C27.7026 50.5419 27.522 50.3777 27.4016 50.1768C27.3936 50.1666 27.3858 50.1551 27.3783 50.1415L20.1592 37.0016L3.79579 31.9954C3.36969 31.8651 3.06069 31.4954 3.00793 31.0528C2.95518 30.6102 3.16879 30.1783 3.55237 29.9514L23.629 18.0796C24.1637 17.7633 24.7474 17.8613 25.0635 18.3959C25.3797 18.9307 25.2282 19.4301 24.6935 19.7464L5.85494 30.5269L20.5943 34.782L50.1485 4.83175L33.353 14.9433C32.8182 15.2594 32.1284 15.0822 31.8123 14.5476C31.4961 14.0128 31.6733 13.323 32.208 13.0068L52.8218 0.817261ZM27.2395 38.3353C27.2395 38.1064 27.3093 37.883 27.4396 37.6948L44.1236 13.6102L21.9953 36.0271L27.2395 45.9453V38.3353ZM28.7664 39.3967V47.8208L35.3785 41.7173L28.7664 39.3967ZM29.4892 38.035L52.877 45.1902L52.8218 4.83175L29.4892 38.035Z" fill="#333333"/>
<path d="M28.0199 15.6646C28.3157 15.6646 28.6059 15.7849 28.8152 15.9941C29.0244 16.2034 29.1448 16.4936 29.1448 16.7905C29.1448 17.0864 29.0243 17.3755 28.8152 17.5847C28.6059 17.7951 28.3157 17.9143 28.0199 17.9143C27.724 17.9143 27.4338 17.7951 27.2246 17.5847C27.0154 17.3755 26.895 17.0864 26.895 16.7905C26.895 16.4936 27.0155 16.2034 27.2246 15.9941C27.4338 15.7849 27.724 15.6646 28.0199 15.6646Z" fill="#333333"/>
</svg>
