<svg width="59" height="58" viewBox="0 0 59 58" fill="none" xmlns="http://www.w3.org/2000/svg">
<path d="M45.278 0C44.8083 0 44.4276 0.380773 44.4276 0.85048C44.4276 1.32019 44.8083 1.70096 45.278 1.70096H54.8815C55.6637 1.70096 56.3003 2.33683 56.3003 3.11828V17.8587C56.3003 18.6406 55.6637 19.2765 54.8815 19.2765H16.2332V25.2887L7.70654 19.2765H3.12339C2.34115 19.2765 1.70463 18.6406 1.70463 17.8587V11.3027C1.70463 10.8325 1.32348 10.4513 0.853293 10.4513C0.383111 10.4513 0.00195312 10.8325 0.00195312 11.3027V17.8587C0.00195312 19.5783 1.4021 20.977 3.12339 20.977H7.16659L17.9359 28.5716V20.977H54.8815C56.6028 20.977 58.0029 19.5783 58.0029 17.8587V3.11828C58.0029 1.39873 56.6028 0 54.8815 0H45.278Z" fill="#333333"/>
<path d="M1.70463 3.11828C1.70463 2.33683 2.34115 1.70096 3.12339 1.70096H41.8748C42.3445 1.70096 42.7253 1.32019 42.7253 0.85048C42.7253 0.380773 42.3445 0 41.8748 0H3.12339C1.4021 0 0.00195312 1.39873 0.00195312 3.11828V4.89904C0.00195312 5.36922 0.383111 5.75038 0.853293 5.75038C1.32348 5.75038 1.70463 5.36922 1.70463 4.89904V3.11828Z" fill="#333333"/>
<path d="M0.00244141 8.2806C0.00244141 7.81119 0.384154 7.43066 0.85356 7.43066C1.32297 7.43066 1.70468 7.81119 1.70468 8.2806C1.70468 8.75001 1.32297 9.13054 0.85356 9.13054C0.384154 9.13054 0.00244141 8.75001 0.00244141 8.2806Z" fill="#333333"/>
<path d="M53.4838 3.40234C54.0364 3.40234 54.4843 3.85027 54.4843 4.4028V6.80296C54.4843 7.27314 54.1031 7.6543 53.6329 7.6543C53.1628 7.6543 52.7816 7.27314 52.7816 6.80296V5.7032C52.7816 5.37164 52.5128 5.10286 52.1813 5.10286H51.0783C50.6087 5.10286 50.228 4.72219 50.228 4.2526C50.228 3.78302 50.6087 3.40234 51.0783 3.40234H53.4838Z" fill="#333333"/>
<path d="M4.40828 17.4614C3.85568 17.4614 3.40771 17.0134 3.40771 16.4608V14.0601C3.40771 13.59 3.78877 13.209 4.25883 13.209C4.72889 13.209 5.10995 13.59 5.10995 14.0601V15.1601C5.10995 15.4916 5.37873 15.7604 5.71029 15.7604H6.81349C7.2832 15.7604 7.66397 16.1412 7.66397 16.6109C7.66397 17.0806 7.2832 17.4614 6.81349 17.4614H4.40828Z" fill="#333333"/>
<path fill-rule="evenodd" clip-rule="evenodd" d="M38.2691 44.3886C37.8886 44.3244 37.4988 44.2921 37.1104 44.2921H33.4011V41.9283C35.5375 40.5039 36.9478 38.0751 36.9478 35.3223V31.0703C36.9478 29.6057 36.5452 28.1742 35.7833 26.9312L34.3313 27.8193C34.9293 28.795 35.2456 29.9194 35.2456 31.0703V31.962L35.0219 31.5491C34.3411 30.292 33.0295 29.511 31.5988 29.511H26.4061C24.9754 29.511 23.6639 30.292 22.9831 31.5491L22.7598 31.962V31.0703C22.7598 27.6312 25.5601 24.8338 29.0027 24.8338C30.6633 24.8338 32.2264 25.478 33.4038 26.6476L34.6042 25.4413C33.1057 23.9528 31.1164 23.1328 29.0027 23.1328C24.6215 23.1328 21.0571 26.6936 21.0571 31.0703V35.3223C21.0571 38.0751 22.4679 40.5044 24.6042 41.9283V44.2921H20.895C17.0729 44.2921 13.9634 47.3985 13.9634 51.2172V58.0003H15.6661V51.2172C15.6661 48.3366 18.0115 45.9931 20.895 45.9931H24.6698C25.0268 48.06 26.8331 49.638 29.0027 49.638C31.1722 49.638 32.9786 48.06 33.3356 45.9931H37.1104C37.4045 45.9931 37.699 46.0174 37.9865 46.0661L38.2691 44.3886ZM31.6985 45.244C31.6985 46.729 30.4892 47.937 29.0027 47.937C27.5162 47.937 26.3069 46.729 26.3069 45.244V42.7885C27.149 43.093 28.0566 43.2594 29.0027 43.2594C29.9488 43.2594 30.8564 43.093 31.6985 42.7885V45.244ZM29.0027 41.5588C25.6292 41.5588 22.8741 38.8716 22.7651 35.528L24.4811 32.3584C24.8638 31.6513 25.6018 31.2119 26.4061 31.2119H31.5988C32.4036 31.2119 33.1416 31.6513 33.5243 32.3584L35.2402 35.5276C35.1308 38.8716 32.3757 41.5588 29.0027 41.5588Z" fill="#333333"/>
<path d="M40.1134 44.9736L39.375 46.506C41.176 47.372 42.3392 49.2212 42.3392 51.2164V57.9994H44.0419V51.2164C44.0419 48.5716 42.5 46.1215 40.1134 44.9736Z" fill="#333333"/>
<path d="M38.9341 53.918H37.2314V58H38.9341V53.918Z" fill="#333333"/>
<path d="M19.0708 53.918H20.7735V58H19.0708V53.918Z" fill="#333333"/>
<path d="M19.0704 51.2175H17.3677C17.3677 49.2749 18.9499 47.6943 20.8944 47.6943V49.3949C19.8885 49.3949 19.0704 50.2126 19.0704 51.2175Z" fill="#333333"/>
<path fill-rule="evenodd" clip-rule="evenodd" d="M15.0802 8.01603L13.1117 4.03223L11.1433 8.01603L6.74219 8.655L9.92696 11.7565L9.17528 16.1354L13.1117 14.0681L17.0482 16.1354L16.2965 11.7565L19.4813 8.655L15.0802 8.01603ZM11.4365 13.0264L11.7563 11.1626L10.4009 9.84266L12.2741 9.57097L13.1117 7.87532L13.9493 9.57097L15.8226 9.84266L14.4671 11.1626L14.787 13.0264L13.1117 12.1463L11.4365 13.0264Z" fill="#D33234"/>
<path fill-rule="evenodd" clip-rule="evenodd" d="M31.5387 8.01647L29.5702 4.03223L27.6022 8.01647L23.2007 8.65544L26.3855 11.7569L25.6338 16.1359L29.5702 14.0685L33.5071 16.1359L32.755 11.7565L35.9398 8.65544L31.5387 8.01647ZM31.2459 13.0269L29.5702 12.1467L27.895 13.0269L28.2148 11.1631L26.8594 9.8431L28.7326 9.57141L29.5702 7.87576L30.4078 9.57141L32.2811 9.8431L30.9256 11.1631L31.2459 13.0269Z" fill="#D33234"/>
<path fill-rule="evenodd" clip-rule="evenodd" d="M44.893 4.03223L42.9245 8.01647L38.5234 8.65544L41.7082 11.7565L40.9565 16.1359L44.893 14.0685L48.8299 16.1359L48.0778 11.7565L51.2625 8.65544L46.8614 8.01647L44.893 4.03223ZM44.893 12.1467L43.2173 13.0269L43.5376 11.1631L42.1822 9.8431L44.0554 9.57141L44.893 7.87576L45.7306 9.57141L47.6038 9.8431L46.2484 11.1631L46.5682 13.0269L44.893 12.1467Z" fill="#D33234"/>
<path d="M25.5972 54.2012C25.1278 54.2012 24.7461 54.5817 24.7461 55.0511C24.7461 55.5205 25.1278 55.901 25.5972 55.901C26.0666 55.901 26.4483 55.5205 26.4483 55.0511C26.4483 54.5817 26.0666 54.2012 25.5972 54.2012Z" fill="#D33234"/>
<path d="M29.0022 54.2012C28.5328 54.2012 28.1509 54.5817 28.1509 55.0511C28.1509 55.5205 28.5328 55.901 29.0022 55.901C29.4716 55.901 29.8536 55.5205 29.8536 55.0511C29.8536 54.5817 29.4716 54.2012 29.0022 54.2012Z" fill="#D33234"/>
<path d="M31.5566 55.0511C31.5566 54.5817 31.9384 54.2012 32.4078 54.2012C32.8772 54.2012 33.2589 54.5817 33.2589 55.0511C33.2589 55.5205 32.8772 55.901 32.4078 55.901C31.9384 55.901 31.5566 55.5205 31.5566 55.0511Z" fill="#D33234"/>
</svg>
