<svg width="60" height="58" viewBox="0 0 60 58" fill="none" xmlns="http://www.w3.org/2000/svg">
<path d="M27.4952 25.9924C24.2247 27.0797 22.0011 30.04 21.9962 33.3951V33.3953V40.3144C21.9962 40.8278 22.4282 41.2335 22.948 41.2335H37.385C37.9049 41.2335 38.3369 40.8278 38.3369 40.3144V33.3953V33.395C38.3317 30.04 36.1081 27.0797 32.8381 25.9924C35.1068 24.8552 36.3412 22.3968 35.8085 19.956L35.6619 19.988L35.8085 19.956C35.2482 17.3892 32.8903 15.5585 30.1665 15.5585C27.4427 15.5585 25.0851 17.3892 24.5246 19.956L24.6712 19.988L24.5246 19.956C23.9918 22.3968 25.2263 24.8552 27.4952 25.9924ZM36.433 33.3953V39.3955H23.9002V33.3953C23.9002 30.0867 26.6996 27.3943 30.1665 27.3943C33.6329 27.3943 36.433 30.0867 36.433 33.3953ZM30.1666 17.3995C32.3044 17.3996 34.0267 19.0594 34.0267 21.0937C34.0267 23.128 32.3043 24.7877 30.1665 24.7877C28.0283 24.7877 26.3063 23.128 26.3063 21.0937C26.3093 19.0602 28.0299 17.4021 30.1666 17.3995Z" fill="#D33234" stroke="#D33234" stroke-width="0.3"/>
<path d="M9.79236 14.166L9.75814 14.2445L10.1555 14.4091C10.449 14.5798 10.765 14.7103 11.0954 14.7968L11.5155 14.97L11.5499 14.8897C11.7302 14.92 11.9121 14.9376 12.0947 14.9423C12.7734 14.939 13.4394 14.7573 14.022 14.4147L17.4015 17.7244L18.7503 16.4037L15.3704 13.0942C15.7199 12.5239 15.9059 11.8723 15.9092 11.2069C15.9048 11.028 15.8864 10.8498 15.8555 10.674L15.9375 10.6397L15.7599 10.2281C15.6723 9.90477 15.539 9.59508 15.3644 9.3071L15.1968 8.91876L15.1166 8.95246C15.0168 8.81634 14.9084 8.68714 14.792 8.56562C13.2826 7.15326 10.9065 7.15326 9.39753 8.56562C7.90843 10.0242 7.90843 12.3891 9.39753 13.8477C9.52181 13.9623 9.65374 14.0685 9.79236 14.166ZM10.7463 9.88624C11.2247 9.40072 11.934 9.20561 12.6008 9.37694C13.2675 9.54789 13.7883 10.0574 13.9635 10.7107C14.1379 11.3641 13.9386 12.0577 13.443 12.5273C12.6882 13.2334 11.5002 13.2334 10.7463 12.5273C10.0013 11.7976 10.0013 10.6157 10.7463 9.88624Z" fill="#333333"/>
<path d="M50.6332 43.7393L50.6689 43.6566L50.1357 43.4364C49.9483 43.3394 49.7523 43.2579 49.5506 43.1939L48.912 42.9308L48.8642 43.0417C48.0185 42.9292 47.1588 43.0876 46.4129 43.4941L43.0259 40.1765L41.6772 41.4971L45.0571 44.807C44.7074 45.3771 44.5213 46.0291 44.5181 46.6942C44.5234 46.8732 44.5407 47.0515 44.5718 47.2275L44.4894 47.2614L44.6672 47.6725C44.7556 47.9963 44.8883 48.3056 45.0626 48.5932L45.2307 48.9823L45.311 48.9488C45.4106 49.0847 45.5189 49.2135 45.6363 49.3354C46.594 50.3065 48.0122 50.6954 49.3458 50.3544C50.6795 50.0119 51.7215 48.992 52.0697 47.6864C52.4192 46.3802 52.0213 44.9911 51.0301 44.053C50.9058 43.9393 50.7733 43.8343 50.6332 43.7393ZM49.6795 48.015C48.9252 48.7207 47.737 48.7207 46.9825 48.015C46.2374 47.2853 46.2374 46.1027 46.9821 45.3734C47.7275 44.6437 48.9349 44.6437 49.6795 45.3734C50.425 46.1027 50.425 47.2853 49.6795 48.015Z" fill="#333333"/>
<path d="M55.9627 25.215C55.7795 25.2195 55.5967 25.238 55.4161 25.2689L55.3646 25.1497L54.5321 25.4951C54.496 25.5099 54.4595 25.5238 54.4241 25.5401L53.6031 25.879L53.6547 25.9975C52.9807 26.5014 52.4981 27.2123 52.2836 28.0165H47.3801V29.8845H52.2836C52.4981 30.6902 52.9818 31.4022 53.6587 31.9072L53.6067 32.0259L54.4285 32.3647C54.4631 32.3806 54.4996 32.3946 54.5359 32.4098L55.3646 32.7515L55.4161 32.6317C56.8279 32.8339 58.2361 32.2463 59.0652 31.1092C59.8939 29.9717 60.0044 28.4766 59.3505 27.2346C58.6969 25.9926 57.3897 25.2135 55.9627 25.215ZM55.9627 30.818C54.9094 30.818 54.0554 29.982 54.0554 28.9505C54.0554 27.9192 54.9094 27.0826 55.9627 27.0826C57.016 27.0826 57.8698 27.9192 57.8698 28.9505C57.8698 29.982 57.016 30.818 55.9627 30.818Z" fill="#333333"/>
<path d="M44.4894 10.6397L44.5718 10.674C44.5407 10.8498 44.5235 11.028 44.5181 11.2069C44.5213 11.8723 44.7074 12.5239 45.0571 13.0942L41.6772 16.4037L43.0259 17.7244L46.4055 14.4147C46.9875 14.7573 47.6537 14.939 48.3328 14.9423C48.5156 14.9376 48.6974 14.92 48.8774 14.8897L48.912 14.97L49.3326 14.7968C49.6621 14.7103 49.9783 14.5798 50.2718 14.4091L50.6689 14.2445L50.6351 14.166C50.7735 14.0685 50.9059 13.9623 51.0301 13.8477C52.519 12.3891 52.519 10.0242 51.0301 8.56562C49.5208 7.15326 47.1447 7.15326 45.6363 8.56562C45.5189 8.68714 45.4106 8.81634 45.311 8.95246L45.2307 8.91876L45.0626 9.30785C44.8883 9.59545 44.7556 9.90477 44.6672 10.2281L44.4894 10.6397ZM46.9844 9.88624C47.4628 9.40072 48.172 9.20561 48.8391 9.37694C49.5057 9.54789 50.0271 10.0574 50.2016 10.7107C50.3764 11.3641 50.1768 12.0577 49.6814 12.5273C48.9267 13.2334 47.7391 13.2334 46.9844 12.5273C46.2399 11.7976 46.2399 10.6157 46.9844 9.88624Z" fill="#333333"/>
<path d="M38.1069 8.02732L38.8468 6.30713L40.4369 6.96322L39.6965 8.6836L38.1069 8.02732Z" fill="#333333"/>
<path d="M34.9454 6.69848L35.6869 4.97754L37.2781 5.63476L36.5368 7.35533L34.9454 6.69848Z" fill="#333333"/>
<path d="M41.2858 9.34164L42.0258 7.62183L43.6153 8.27755L42.8755 9.99698L41.2858 9.34164Z" fill="#333333"/>
<path d="M52.2653 35.1416L52.9364 33.584L54.6934 34.3105L54.0228 35.8676L52.2653 35.1416Z" fill="#333333"/>
<path d="M49.5833 41.3728L50.2542 39.8142L52.0115 40.5403L51.3402 42.0982L49.5833 41.3728Z" fill="#333333"/>
<path d="M50.9235 38.2569L51.5946 36.7L53.3518 37.4257L52.6811 38.9832L50.9235 38.2569Z" fill="#333333"/>
<path d="M19.9361 50.9397L20.6757 49.2195L22.2656 49.8754L21.5258 51.5954L19.9361 50.9397Z" fill="#333333"/>
<path d="M23.1145 52.2549L23.8545 50.5339L25.4438 51.1906L24.7044 52.9108L23.1145 52.2549Z" fill="#333333"/>
<path d="M16.7866 49.6393L17.5281 47.9182L19.1197 48.5754L18.3784 50.2963L16.7866 49.6393Z" fill="#333333"/>
<path d="M15.9376 47.2614L15.8556 47.2275C15.8866 47.0515 15.9049 46.8732 15.9093 46.6942C15.9061 46.0291 15.72 45.3771 15.3705 44.807L18.7504 41.4971L17.4017 40.1765L14.0143 43.4941C13.2686 43.0876 12.4091 42.9292 11.5634 43.0417L11.5156 42.9308L10.877 43.1948C10.6753 43.2579 10.4791 43.3394 10.2919 43.4364L9.75827 43.6566L9.79422 43.7393C9.65406 43.8343 9.52194 43.9393 9.39766 44.053C8.40626 44.9911 8.00779 46.3802 8.3575 47.6864C8.70683 48.992 9.74833 50.0119 11.082 50.3544C12.4152 50.6954 13.834 50.3065 14.7921 49.3354C14.9086 49.2135 15.017 49.0847 15.1168 48.9488L15.1969 48.9823L15.3646 48.5938C15.5392 48.3058 15.6724 47.9963 15.76 47.6725L15.9376 47.2614ZM13.4432 48.015C12.6883 48.7207 11.5003 48.7207 10.7464 48.015C10.0013 47.2853 10.0013 46.1027 10.7456 45.3734C11.4908 44.6437 12.6988 44.6437 13.4432 45.3734C14.1883 46.1027 14.1883 47.2853 13.4432 48.015Z" fill="#333333"/>
<path d="M7.0748 20.4751L7.74573 18.918L9.50347 19.6443L8.83235 21.2016L7.0748 20.4751Z" fill="#333333"/>
<path d="M5.73376 23.5915L6.40489 22.0334L8.16264 22.7594L7.49113 24.3176L5.73376 23.5915Z" fill="#333333"/>
<path d="M8.41656 17.3608L9.08712 15.8037L10.8449 16.5295L10.1736 18.0867L8.41656 17.3608Z" fill="#333333"/>
<path d="M5.73328 34.309L7.49045 33.583L8.16215 35.1411L6.4046 35.8672L5.73328 34.309Z" fill="#333333"/>
<path d="M8.41656 40.5407L10.1736 39.8149L10.8449 41.3718L9.08712 42.0978L8.41656 40.5407Z" fill="#333333"/>
<path d="M7.07605 37.4249L8.83303 36.699L9.50378 38.2565L7.74641 38.9824L7.07605 37.4249Z" fill="#333333"/>
<path d="M5.89585 32.406C5.93237 32.3911 5.96812 32.3768 6.00369 32.3609L6.8251 32.022L6.7731 31.9037C7.44747 31.3994 7.93065 30.6885 8.14461 29.8845H13.0486V28.0165H8.14461C7.92969 27.2108 7.44594 26.4984 6.76927 25.9937L6.8209 25.8752L6.00006 25.5363C5.96449 25.5202 5.92816 25.5064 5.89241 25.4916L5.06315 25.1497L5.01153 25.2689C4.83122 25.238 4.64824 25.2195 4.46545 25.215C2.35857 25.215 0.650726 26.8878 0.650726 28.9505C0.650726 31.0135 2.35857 32.686 4.46545 32.686C4.64824 32.6811 4.83122 32.6626 5.01153 32.6317L5.06315 32.7515L5.89585 32.406ZM2.55837 28.9505C2.55837 27.9192 3.4121 27.0826 4.46545 27.0826C5.51879 27.0826 6.3729 27.9192 6.3729 28.9505C6.3729 29.982 5.51879 30.818 4.46545 30.818C3.4121 30.818 2.55837 29.982 2.55837 28.9505Z" fill="#333333"/>
<path d="M41.3085 48.5741L42.8991 47.9175L43.6406 49.638L42.0498 50.2952L41.3085 48.5741Z" fill="#333333"/>
<path d="M34.9449 51.2028L36.5359 50.5454L37.2771 52.2663L35.686 52.9241L34.9449 51.2028Z" fill="#333333"/>
<path d="M38.1263 49.8883L39.7167 49.2314L40.4584 50.9528L38.8676 51.6093L38.1263 49.8883Z" fill="#333333"/>
<path d="M33.7422 52.7646C33.7273 52.7288 33.7129 52.6934 33.6963 52.6592L33.3506 51.8548L33.2296 51.9053C32.7147 51.2449 31.9887 50.7723 31.1678 50.5626V45.7603H29.26V50.5626C28.4374 50.7729 27.7101 51.2466 27.1946 51.9091L27.0734 51.8583L26.7271 52.6629C26.7116 52.6972 26.6971 52.7324 26.6818 52.7683L26.3321 53.5798L26.4548 53.63C26.1969 55.0963 26.8518 56.572 28.1219 57.388C29.3921 58.2038 31.0355 58.2038 32.3057 57.388C33.5759 56.572 34.2311 55.0963 33.9732 53.63L34.0952 53.5798L33.7422 52.7646ZM30.2139 56.0333C29.1607 56.0333 28.307 55.1971 28.307 54.1655C28.307 53.1338 29.1607 52.2978 30.2139 52.2978C31.2671 52.2978 32.1214 53.1338 32.1214 54.1655C32.1214 55.1971 31.2671 56.0333 30.2139 56.0333Z" fill="#333333"/>
<path d="M49.5822 16.5281L51.3392 15.8018L52.0107 17.3606L50.2532 18.0863L49.5822 16.5281Z" fill="#333333"/>
<path d="M52.2646 22.7594L54.0223 22.0334L54.693 23.5907L52.9355 24.3167L52.2646 22.7594Z" fill="#333333"/>
<path d="M50.924 19.6432L52.6817 18.9175L53.3517 20.4746L51.5946 21.2005L50.924 19.6432Z" fill="#333333"/>
<path d="M26.6854 5.13623C26.7007 5.1718 26.7152 5.20757 26.7311 5.24146L27.0772 6.04604L27.1986 5.99548C27.7133 6.65569 28.4393 7.12829 29.26 7.33819V12.1404H31.1678V7.33819C31.9906 7.12811 32.7179 6.65457 33.233 5.99174L33.3544 6.04248L33.7005 5.23771C33.7168 5.20364 33.7307 5.16825 33.7464 5.13267L34.0952 4.32098L33.9732 4.2708C34.0049 4.09385 34.0229 3.91504 34.0284 3.73547C34.0284 1.67244 32.3206 0 30.2139 0C28.1076 0 26.3992 1.67244 26.3992 3.73547C26.4047 3.91504 26.4231 4.09385 26.4548 4.2708L26.3321 4.32098L26.6854 5.13623ZM30.2139 1.86792C31.2671 1.86792 32.1214 2.70396 32.1214 3.73547C32.1214 4.7668 31.2671 5.60358 30.2139 5.60358C29.1607 5.60358 28.307 4.7668 28.307 3.73547C28.307 2.70396 29.1607 1.86792 30.2139 1.86792Z" fill="#333333"/>
<path d="M16.7873 8.26147L18.3776 7.60425L19.1187 9.32537L17.5286 9.98203L16.7873 8.26147Z" fill="#333333"/>
<path d="M23.1507 5.63548L24.7407 4.979L25.4822 6.69957L23.8918 7.35679L23.1507 5.63548Z" fill="#333333"/>
<path d="M19.9695 6.94871L21.5599 6.29224L22.3012 8.01261L20.7108 8.66983L19.9695 6.94871Z" fill="#333333"/>
</svg>
