<svg width="58" height="59" viewBox="0 0 58 59" fill="none" xmlns="http://www.w3.org/2000/svg">
<path d="M0.966667 49.1607C0.432827 49.1607 0 48.7279 0 48.194V14.3607C0 13.8269 0.432827 13.394 0.966667 13.394H39.6333C39.6913 13.3939 39.7493 13.399 39.8064 13.4095L50.4397 15.3428C50.8994 15.4265 51.2335 15.8269 51.2333 16.294V24.0274C51.2333 24.5612 50.8005 24.994 50.2667 24.994H40.6V26.9274H52.2C52.5891 26.9273 52.9403 27.1603 53.0913 27.519L57.9246 38.9981C57.9741 39.117 57.9998 39.2444 58 39.3732V48.194C58 48.7279 57.5672 49.1607 57.0333 49.1607H54.0463C53.8634 50.2407 53.3773 51.2464 52.6447 52.0607H57.0333C57.5672 52.0607 58 52.4935 58 53.0274C58 53.5613 57.5672 53.994 57.0333 53.994H0.966667C0.432789 53.994 0 53.5613 0 53.0274C0 52.4935 0.432793 52.0607 0.966667 52.0607H7.28867C6.55606 51.2464 6.06994 50.2407 5.887 49.1607H0.966667ZM53.186 32.7274H52.2V37.5607H55.2208L53.186 32.7274ZM48.3333 52.0607C50.4688 52.0607 52.2 50.3295 52.2 48.194C52.2 46.0586 50.4688 44.3274 48.3333 44.3274C46.1978 44.3274 44.4667 46.0586 44.4667 48.194C44.4667 50.3295 46.1978 52.0607 48.3333 52.0607ZM49.2942 42.4752C51.7291 42.8847 53.6368 44.7925 54.0463 47.2274H56.0667V43.3607H54.1333V41.4274H56.0667V39.5685L56.0357 39.494H45.5C44.9662 39.494 44.5333 39.0612 44.5333 38.5274V31.7607C44.5333 31.2269 44.9662 30.794 45.5 30.794H52.3721L51.5581 28.8607H40.6V47.2274H42.6203C43.151 44.0722 46.139 41.9445 49.2942 42.4752ZM50.2667 37.5607V32.7274H46.4667V37.5607H50.2667ZM44.022 52.0607C43.2894 51.2464 42.8033 50.2407 42.6203 49.1607H17.313C17.1301 50.2407 16.6439 51.2464 15.9113 52.0607H44.022ZM38.6667 47.2274V45.294H16.6151C16.9616 45.8914 17.198 46.5464 17.313 47.2274H38.6667ZM11.6 52.0607C13.7355 52.0607 15.4667 50.3295 15.4667 48.194C15.4667 46.0586 13.7355 44.3274 11.6 44.3274C9.46452 44.3274 7.73333 46.0586 7.73333 48.194C7.73333 50.3295 9.46452 52.0607 11.6 52.0607ZM8.40033 43.3607C10.3387 42.0718 12.8613 42.0718 14.7997 43.3607H38.6667V24.0274C38.6667 23.4935 39.0995 23.0607 39.6333 23.0607H49.3V17.1002L39.5463 15.3274H1.93333V43.3607H8.40033ZM1.93333 45.294V47.2274H5.887C6.00203 46.5464 6.23838 45.8914 6.58493 45.294H1.93333Z" fill="#333333"/>
<path d="M23 4.66064H15C14.4477 4.66064 14 5.10836 14 5.66064C14 6.21293 14.4477 6.66064 15 6.66064H23C23.5523 6.66064 24 6.21293 24 5.66064C24 5.10836 23.5523 4.66064 23 4.66064Z" fill="#D33234"/>
<path d="M14 8.66064C14.5523 8.66064 15 9.10836 15 9.66064C15 10.2129 14.5523 10.6606 14 10.6606H6C5.44772 10.6606 5 10.2129 5 9.66064C5 9.10836 5.44772 8.66064 6 8.66064H14Z" fill="#D33234"/>
<path d="M2 9.66064C2 10.2129 1.55228 10.6606 1 10.6606C0.447716 10.6606 0 10.2129 0 9.66064C0 9.10836 0.447716 8.66064 1 8.66064C1.55228 8.66064 2 9.10836 2 9.66064Z" fill="#D33234"/>
<path d="M11 5.66064C11 6.21293 10.5523 6.66064 10 6.66064C9.44772 6.66064 9 6.21293 9 5.66064C9 5.10836 9.44772 4.66064 10 4.66064C10.5523 4.66064 11 5.10836 11 5.66064Z" fill="#D33234"/>
<path d="M43 42.6606C43.5523 42.6606 44 42.2129 44 41.6606C44 41.1084 43.5523 40.6606 43 40.6606C42.4477 40.6606 42 41.1084 42 41.6606C42 42.2129 42.4477 42.6606 43 42.6606Z" fill="#D33234"/>
</svg>
