<svg width="60" height="58" viewBox="0 0 60 58" fill="none" xmlns="http://www.w3.org/2000/svg">
<path fill-rule="evenodd" clip-rule="evenodd" d="M42.8566 44.4938C40.9698 44.4938 39.4307 46.0125 39.4307 47.8846C39.4307 49.751 40.9631 51.2758 42.8566 51.2758C44.4509 51.2758 45.7944 50.1926 46.174 48.7304C46.7307 46.5977 45.0992 44.4938 42.8566 44.4938ZM44.3487 48.7304C43.6863 49.8711 42.0273 49.8719 41.364 48.7304C40.7074 47.5986 41.5402 46.1824 42.8566 46.1824C44.1766 46.1824 45.0036 47.6016 44.3487 48.7304Z" fill="#333333"/>
<path fill-rule="evenodd" clip-rule="evenodd" d="M55.1633 34.9841H51.2892C50.9277 34.9841 50.6343 34.6911 50.6343 34.331C50.6316 29.5976 46.7407 25.7482 41.9603 25.7482H37.6587C37.7709 25.1092 37.8548 24.6334 37.9175 24.2776L37.9207 24.2595C38.0913 23.292 38.1028 23.2265 38.1035 23.1608L38.1035 23.1384C38.1035 22.1761 37.3132 21.3946 36.3419 21.3946H22.8858C23.2606 19.7726 23.2623 18.0244 22.8402 16.3393C22.7274 15.8869 22.2658 15.6109 21.8074 15.7226C21.3503 15.8338 21.0715 16.292 21.1839 16.745C23.2097 24.8796 14.0844 31.2092 7.08176 26.6939C-0.722226 21.6868 2.97046 9.74654 12.1444 9.74654C15.2973 9.74654 18.212 11.3081 19.9422 13.9232C20.1993 14.3139 20.7281 14.4234 21.1228 14.1676C21.5162 13.9122 21.6277 13.3888 21.3693 12.9989C19.4803 10.1425 16.3956 8.34966 12.9976 8.09123V4.68861H14.8742C15.3451 4.68861 15.727 4.31059 15.727 3.84452C15.727 3.37802 15.3451 3 14.8742 3H9.41464C8.94382 3 8.56149 3.37802 8.56149 3.84452C8.56149 4.31059 8.94382 4.68861 9.41464 4.68861H11.2913V8.08991C5.61354 8.52225 1.12788 13.2337 1.12788 18.9627C1.12788 22.3605 2.70541 25.3996 5.17236 27.4014C4.21497 31.6043 3.5303 34.6016 3.03223 36.782C1.98399 41.3709 1.76233 42.3412 1.5646 43.3164C1.51161 43.5778 1.46033 43.8396 1.39532 44.1714C1.31232 44.5951 1.20683 45.1335 1.0469 45.9309C0.857954 46.8687 1.23806 47.8101 2.01377 48.3291C2.64913 48.7521 2.93095 48.7505 5.43212 48.7358H5.43502C5.99218 48.7325 6.65937 48.7286 7.46497 48.7286C8.04908 52.8991 12.6622 55.2605 16.446 53.3008C16.8633 53.0835 17.0235 52.5736 16.8053 52.1601C16.5858 51.7471 16.0703 51.5885 15.6531 51.8045C12.3684 53.5137 8.48096 50.6892 9.19383 47.04C9.59297 45.0032 11.4086 43.4617 13.5808 43.4617C16.8567 43.4617 19.0391 46.8648 17.6107 49.7992C17.4067 50.2192 17.5855 50.7238 18.0098 50.9262C18.4337 51.1277 18.9435 50.9512 19.1484 50.5311C19.4267 49.9568 19.6112 49.3537 19.6975 48.7286C27.1256 48.7286 28.0816 48.729 29.0047 48.7293C29.8664 48.7296 30.6994 48.7299 36.741 48.7299C37.1574 51.702 39.7416 53.9968 42.8568 53.9968C45.9707 53.9968 48.5563 51.702 48.9722 48.7299H54.3544C55.6669 48.7299 56.8098 47.8495 57.1329 46.5906L57.1931 46.3562C57.5 45.1608 58.8768 39.7987 58.8768 39.7972C59.4972 37.3762 57.6794 34.9841 55.1633 34.9841ZM7.46497 47.04H3.33774C2.90055 47.04 2.63947 46.6611 2.72001 46.2594L3.28199 43.4617H9.32349C8.33759 44.3917 7.66056 45.6414 7.46497 47.04ZM32.1757 47.04H19.6962C19.5006 45.6414 18.824 44.3917 17.8381 43.4617H32.8204L32.1757 47.04ZM3.64794 41.7731L6.68617 28.4338C12.4365 31.694 19.817 29.196 22.3441 23.0833L22.3924 23.0832C23.29 23.0823 36.3648 23.0697 36.3896 23.1104L36.1789 24.3144C35.6704 27.2188 35.567 27.8089 33.1209 41.7731H3.64794ZM47.2434 48.7299C46.8442 50.7663 45.0278 52.3078 42.8568 52.3078C40.3846 52.3078 38.388 50.3147 38.388 47.8841C38.388 45.4521 40.3877 43.4617 42.8568 43.4617C45.6574 43.4617 47.7775 45.9966 47.2434 48.7299ZM55.4792 46.1753C55.3483 46.6852 54.8854 47.0409 54.3544 47.0409H48.9722C48.5572 44.0684 45.9721 41.7731 42.8568 41.7731C39.7403 41.7731 37.1561 44.0684 36.741 47.0409H33.909C34.0783 46.0993 34.1978 45.4374 34.2927 44.9116L34.2933 44.9082C34.3829 44.4121 34.4506 44.037 34.5178 43.6619C34.7256 42.5021 34.9287 41.3415 35.7591 36.5982L35.7605 36.5899L35.7608 36.5882L35.765 36.5643C36.1461 34.3873 36.6587 31.4591 37.3632 27.4373H41.9603C45.8004 27.4373 48.9258 30.5302 48.928 34.331C48.928 35.6223 49.9869 36.6727 51.2892 36.6727H52.576C53.5097 38.4625 55.031 39.9071 56.8696 40.7578L55.4792 46.1753ZM57.2789 39.0749C56.189 38.5076 55.2522 37.6789 54.5588 36.6727C54.589 36.6727 54.6204 36.6724 54.6527 36.6718L54.7369 36.6703C55.323 36.6586 56.1951 36.6413 56.8532 37.5238C57.1904 37.9763 57.3382 38.5282 57.2789 39.0749Z" fill="#333333"/>
<path fill-rule="evenodd" clip-rule="evenodd" d="M10.2627 47.0405C10.6428 45.5779 11.9858 44.4938 13.5806 44.4938C15.8121 44.4938 17.4569 46.588 16.8985 48.7291C16.5184 50.1917 15.1754 51.2758 13.5806 51.2758C11.33 51.2758 9.70911 49.1628 10.2627 47.0405ZM12.0884 47.0405C11.4291 48.1667 12.2628 49.5872 13.5806 49.5872C14.5258 49.5872 15.3001 48.8277 15.3001 47.8846C15.3001 46.1522 12.9659 45.5254 12.0884 47.0405Z" fill="#333333"/>
<path d="M1.85614 52.3213H5.16989C5.64291 52.3213 6.02656 52.697 6.02656 53.1602C6.02656 53.6238 5.64291 53.9995 5.16989 53.9995H1.85614C1.38268 53.9995 0.999023 53.6238 0.999023 53.1602C0.999023 52.697 1.38268 52.3213 1.85614 52.3213Z" fill="#333333"/>
<path d="M34.8403 52.3213H31.5265C31.0531 52.3213 30.6694 52.697 30.6694 53.1602C30.6694 53.6238 31.0531 53.9995 31.5265 53.9995H34.8403C35.3133 53.9995 35.697 53.6238 35.697 53.1602C35.697 52.697 35.3133 52.3213 34.8403 52.3213Z" fill="#333333"/>
<path d="M27.2617 53.1602C27.2617 52.697 27.6454 52.3213 28.1188 52.3213C28.5918 52.3213 28.9755 52.697 28.9755 53.1602C28.9755 53.6238 28.5918 53.9995 28.1188 53.9995C27.6454 53.9995 27.2617 53.6238 27.2617 53.1602Z" fill="#333333"/>
<path d="M34.6533 17.5391H31.3395C30.8661 17.5391 30.4824 17.9148 30.4824 18.378C30.4824 18.8416 30.8661 19.2173 31.3395 19.2173H34.6533C35.1263 19.2173 35.51 18.8416 35.51 18.378C35.51 17.9148 35.1263 17.5391 34.6533 17.5391Z" fill="#333333"/>
<path d="M26.132 14.4541H29.4458C29.9188 14.4541 30.3024 14.8298 30.3024 15.293C30.3024 15.7566 29.9188 16.1323 29.4458 16.1323H26.132C25.6586 16.1323 25.2749 15.7566 25.2749 15.293C25.2749 14.8298 25.6586 14.4541 26.132 14.4541Z" fill="#333333"/>
<path d="M27.9318 17.5391C27.4584 17.5391 27.0747 17.9148 27.0747 18.378C27.0747 18.8416 27.4584 19.2173 27.9318 19.2173C28.4048 19.2173 28.7885 18.8416 28.7885 18.378C28.7885 17.9148 28.4048 17.5391 27.9318 17.5391Z" fill="#333333"/>
<path d="M0.998047 29C0.998047 28.5368 1.3817 28.1611 1.85516 28.1611C2.32817 28.1611 2.71183 28.5368 2.71183 29C2.71183 29.4637 2.32817 29.8394 1.85516 29.8394C1.3817 29.8394 0.998047 29.4637 0.998047 29Z" fill="#333333"/>
<path fill-rule="evenodd" clip-rule="evenodd" d="M15.3503 13.5374C15.6366 13.1682 16.1741 13.0955 16.5511 13.3754C16.9281 13.6554 17.0023 14.1821 16.7165 14.5513L14.391 17.5552C15.509 19.2178 14.2834 21.4411 12.25 21.4411C10.8367 21.4411 9.6875 20.3157 9.6875 18.9318C9.6875 17.2422 11.3719 16.0245 13.0257 16.5404L15.3503 13.5374ZM11.4013 18.9318C11.4013 19.3902 11.7818 19.7628 12.25 19.7628C12.7176 19.7628 13.0982 19.3902 13.0982 18.9318C13.0982 18.4738 12.7176 18.1007 12.25 18.1007C11.7818 18.1007 11.4013 18.4738 11.4013 18.9318Z" fill="#D33234"/>
<path d="M45.0244 30.9743C44.6887 31.2462 44.6421 31.7326 44.9193 32.0613C45.2983 32.5093 45.5068 33.0746 45.5068 33.6527C45.5068 33.6636 45.5071 33.6749 45.5075 33.6864C45.5096 33.751 45.5117 33.8188 45.4499 33.8188H39.1802C39.1594 33.8188 39.1397 33.8052 39.1299 33.7872C39.2539 33.0378 39.3411 32.5141 39.4024 32.1458C39.538 31.3309 39.547 31.277 39.5474 31.2231L39.5473 31.2025C39.5473 31.1925 39.5464 31.1841 39.549 31.1769C39.5635 31.1373 39.6881 31.1378 40.6987 31.1421C41.1656 31.1441 41.8216 31.1469 42.7431 31.1469C43.1781 31.1469 43.5313 30.8014 43.5313 30.375C43.5313 29.949 43.1781 29.6035 42.7431 29.6035H39.6042C38.7285 29.6035 38.0114 30.2821 37.973 31.1305L37.5576 33.6399C37.4329 34.3889 38.1165 35.3622 39.1802 35.3622H45.4499C46.2831 35.3622 47.0832 34.748 47.0832 33.6527C47.0832 32.7162 46.7459 31.8014 46.1339 31.0772C45.8563 30.7485 45.3596 30.7029 45.0244 30.9743Z" fill="#D33234"/>
<path d="M41.2802 37.4678H39.1788C38.7438 37.4678 38.3906 37.8133 38.3906 38.2397C38.3906 38.6656 38.7438 39.0115 39.1788 39.0115H41.2802C41.7156 39.0115 42.0684 38.6656 42.0684 38.2397C42.0684 37.8133 41.7156 37.4678 41.2802 37.4678Z" fill="#D33234"/>
</svg>
