<svg width="58" height="59" viewBox="0 0 58 59" fill="none" xmlns="http://www.w3.org/2000/svg">
<path d="M46.4842 33.941H42.8341C42.3119 33.941 41.8884 34.3644 41.8884 34.8866C41.8884 35.4088 42.3119 35.8323 42.8341 35.8323H46.4855C46.2595 40.0023 44.5293 44.0388 41.4682 47.1C38.3426 50.2255 34.304 51.8955 30.2004 52.1124V48.4464C30.2004 47.9242 29.777 47.5007 29.2548 47.5007C28.7325 47.5007 28.3091 47.9242 28.3091 48.4464V52.1095C24.2142 51.8805 20.1836 50.2051 17.0601 47.0813C13.9366 43.9576 12.261 39.9273 12.032 35.8324H15.6755C16.1977 35.8324 16.6212 35.409 16.6212 34.8867C16.6212 34.3645 16.1977 33.9411 15.6755 33.9411H12.0291C12.2459 29.8373 13.916 25.7989 17.0416 22.6733C20.1671 19.5478 24.2056 17.8779 28.3093 17.6608V21.7041C28.3093 22.2263 28.7328 22.6498 29.255 22.6498C29.7772 22.6498 30.2007 22.2263 30.2007 21.7041V17.6639C34.2955 17.8928 38.3261 19.5685 41.4497 22.692C41.819 23.0613 42.4178 23.0613 42.787 22.692C43.1563 22.3227 43.1563 21.7239 42.787 21.3547C35.3152 13.8829 23.1659 13.8743 15.7043 21.336C12.0235 25.0168 10.1619 29.8381 10.1158 34.6759C10.1003 34.7438 10.0913 34.8141 10.0913 34.8867C10.0913 34.9603 10.1005 35.0314 10.1163 35.1C10.1763 39.9283 12.0445 44.7404 15.723 48.4187C19.4626 52.1584 24.3728 54.0284 29.2816 54.0281C34.1808 54.0279 39.0787 52.1645 42.8058 48.4374C46.4151 44.8282 48.3575 39.9974 48.4013 35.0655C48.4124 35.0075 48.4188 34.9478 48.4188 34.8867C48.4188 34.8283 48.4128 34.7711 48.4025 34.7155C48.3814 32.4686 47.9667 30.2062 47.1329 28.0341C46.9458 27.5466 46.3989 27.3032 45.9112 27.4901C45.4236 27.6773 45.1802 28.2243 45.3672 28.7119C46.0202 30.4144 46.3865 32.1782 46.4842 33.941Z" fill="#D33234"/>
<path d="M28.3091 26.2899C28.3091 25.7677 28.7325 25.3443 29.2548 25.3443C29.7771 25.3443 30.2004 25.7677 30.2004 26.2899V32.6062L32.6354 30.1747C33.0048 29.8056 33.6036 29.8061 33.9727 30.1757C34.3418 30.5452 34.3412 31.1439 33.9717 31.513L29.9229 35.556C29.7421 35.7366 29.5004 35.8325 29.2545 35.8325C29.1325 35.8325 29.0096 35.809 28.8925 35.7604C28.5393 35.614 28.3091 35.2693 28.3091 34.8869V26.2899Z" fill="#333333"/>
<path fill-rule="evenodd" clip-rule="evenodd" d="M50.5435 18.0181C50.3011 18.0181 50.0588 17.9254 49.874 17.7402L48.7676 16.631L46.6812 18.7059C50.6385 22.9528 53.0634 28.6418 53.0634 34.8867C53.0634 47.9957 42.3836 58.6607 29.2563 58.6607C16.1291 58.6607 5.44928 47.9957 5.44916 34.8869C5.44916 28.6391 7.87633 22.9476 11.837 18.7001L9.75668 16.6311L8.65038 17.7402C8.46573 17.9254 8.22319 18.0181 7.98089 18.0181C7.7396 18.0181 7.49842 17.9264 7.314 17.7429L5.27879 15.7188C5.10071 15.5418 5.00046 15.3013 5 15.0502C4.99955 14.7991 5.0989 14.5582 5.27618 14.3805L7.79295 11.8572C8.16168 11.4872 8.76037 11.4864 9.13024 11.8554C9.5001 12.2242 9.50089 12.8228 9.13205 13.1926L7.28398 15.0455L7.97817 15.7359L12.2159 11.4873L11.5218 10.7969L11.3556 10.9634C10.9868 11.3332 10.388 11.334 10.0184 10.9652C9.6485 10.5963 9.64771 9.99777 10.0165 9.6279L10.8496 8.79268C11.2181 8.42327 11.8161 8.42225 12.186 8.79008L14.2212 10.8141C14.3993 10.9911 14.4995 11.2316 14.5 11.4827C14.5004 11.7338 14.4011 11.9746 14.2238 12.1524L13.1194 13.2597L15.4222 15.5498C19.324 12.7582 24.1013 11.1128 29.2565 11.1128C30.22 11.1128 31.1699 11.1718 32.1038 11.2835V6.7313H26.4091V8.39767C26.4091 8.9199 25.9857 9.34334 25.4635 9.34334C24.9412 9.34334 24.5178 8.9199 24.5178 8.39767V6.7313H21.4089C20.8867 6.7313 20.4632 6.30786 20.4632 5.78563V1.60635C20.4632 1.08412 20.8867 0.660675 21.4089 0.660675H37.1036C37.6258 0.660675 38.0492 1.08412 38.0492 1.60635V5.78552C38.0492 6.30775 37.6258 6.73119 37.1036 6.73119H33.9948V11.5864C37.334 12.2626 40.4216 13.639 43.0972 15.5548L45.4048 13.2597L44.3004 12.1524C44.1232 11.9746 44.0238 11.7337 44.0243 11.4827C44.0246 11.2316 44.125 10.9911 44.303 10.8141L46.3384 8.79008C46.7083 8.42214 47.3064 8.42327 47.6747 8.79268L48.5078 9.6279C48.8765 9.99754 48.8759 10.5963 48.506 10.9652C48.1361 11.3339 47.5374 11.333 47.1687 10.9634L47.0025 10.7969L46.3085 11.4873L50.5462 15.7359L51.2404 15.0455L49.3923 13.1926C49.0236 12.823 49.0243 12.2242 49.3941 11.8554C49.764 11.4866 50.3627 11.4875 50.7314 11.8572L53.2482 14.3805C53.4255 14.5582 53.5248 14.7992 53.5244 15.0502C53.524 15.3013 53.4237 15.5418 53.2456 15.7188L51.2104 17.7429C51.0258 17.9264 50.7847 18.0181 50.5435 18.0181ZM22.3546 4.83996H36.1582V2.55202H22.3546V4.83996ZM11.797 14.6117L11.1056 15.305L13.1799 17.368C13.4211 17.1471 13.6673 16.9316 13.9174 16.7207L11.797 14.6117ZM29.2563 56.7693C41.3409 56.7693 51.1722 46.9528 51.1722 34.8867C51.1722 22.8206 41.341 13.004 29.2565 13.004C17.172 13.004 7.34062 22.8205 7.34062 34.8867C7.34062 46.9528 17.1718 56.7693 29.2563 56.7693ZM44.6017 16.7261C44.8517 16.9373 45.0977 17.1528 45.3388 17.3737L47.4187 15.3051L46.7274 14.6118L44.6017 16.7261Z" fill="#333333"/>
</svg>
