<svg width="58" height="59" viewBox="0 0 58 59" fill="none" xmlns="http://www.w3.org/2000/svg">
<path d="M23.7089 6.63203L21.4291 8.15192L20.394 6.60033L29.3036 0.660645L38.2131 6.60033L37.1781 8.15192L34.8982 6.63203V12.0384C34.8982 12.5533 34.4808 12.9708 33.9658 12.9708C33.4508 12.9708 33.0333 12.5533 33.0333 12.0383V5.38908L29.3036 2.90224L25.5738 5.38908V17.633C25.5738 18.148 25.1563 18.5655 24.6413 18.5655C24.1264 18.5655 23.7089 18.148 23.7089 17.633V6.63203Z" fill="#D33234"/>
<path d="M33.9656 16.7003C33.4507 16.7003 33.0332 16.2829 33.0332 15.7679C33.0332 15.2529 33.4507 14.8354 33.9656 14.8354C34.4806 14.8354 34.8981 15.2529 34.8981 15.7679C34.8981 16.2829 34.4806 16.7003 33.9656 16.7003Z" fill="#D33234"/>
<path d="M23.709 21.3626C23.709 21.8776 24.1265 22.2951 24.6414 22.2951C25.1564 22.2951 25.5739 21.8776 25.5739 21.3626C25.5739 20.8476 25.1564 20.4302 24.6414 20.4302C24.1265 20.4302 23.709 20.8476 23.709 21.3626Z" fill="#D33234"/>
<path d="M30.2355 6.44368V13.9032C30.2355 14.4182 29.818 14.8357 29.3031 14.8357C28.7881 14.8357 28.3706 14.4182 28.3706 13.9032V6.44368C28.3706 5.9287 28.7881 5.51123 29.3031 5.51123C29.818 5.51123 30.2355 5.9287 30.2355 6.44368Z" fill="#D33234"/>
<path d="M28.3706 17.6331C28.3706 18.1481 28.7881 18.5656 29.3031 18.5656C29.818 18.5656 30.2355 18.1481 30.2355 17.6331C30.2355 17.1182 29.818 16.7007 29.3031 16.7007C28.7881 16.7007 28.3706 17.1182 28.3706 17.6331Z" fill="#D33234"/>
<path d="M23.709 53.9984C23.709 54.5133 24.1265 54.9308 24.6414 54.9308C25.1564 54.9308 25.5739 54.5133 25.5739 53.9984C25.5739 53.4834 25.1564 53.0659 24.6414 53.0659C24.1265 53.0659 23.709 53.4834 23.709 53.9984Z" fill="#D33234"/>
<path d="M28.3709 54.9308C27.8559 54.9308 27.4385 54.5133 27.4385 53.9984C27.4385 53.4834 27.8559 53.0659 28.3709 53.0659C28.8859 53.0659 29.3034 53.4834 29.3034 53.9984C29.3034 54.5133 28.8859 54.9308 28.3709 54.9308Z" fill="#D33234"/>
<path d="M32.1009 54.9308C31.5859 54.9308 31.1685 54.5133 31.1685 53.9984C31.1685 53.4834 31.5859 53.0659 32.1009 53.0659C32.6159 53.0659 33.0333 53.4834 33.0333 53.9984C33.0333 54.5133 32.6159 54.9308 32.1009 54.9308Z" fill="#D33234"/>
<path fill-rule="evenodd" clip-rule="evenodd" d="M51.6822 25.093H53.3037L57.6069 39.0797H53.5471V58.661H5.05987V39.0797H1L5.30417 25.093H17.1817V17.5113L13.4519 15.0244L9.7221 17.5113V22.2956C9.7221 22.8106 9.30463 23.2281 8.78965 23.2281C8.27468 23.2281 7.85721 22.8106 7.85721 22.2956V18.7542L5.57644 20.2741L4.54236 18.7225L13.4519 12.7828L22.3605 18.7225L21.3264 20.2741L19.0466 18.7542V25.093H49.8173V12.849L46.0875 10.3622L42.3577 12.849V18.5659C42.3577 19.0808 41.9402 19.4983 41.4253 19.4983C40.9103 19.4983 40.4928 19.0808 40.4928 18.5659V14.092L38.2121 15.6119L37.178 14.0603L46.0875 8.12061L54.9961 14.0603L53.962 15.6119L51.6822 14.092V25.093ZM6.68046 26.9579L3.52506 37.2148H31.4117L34.5681 26.9579H6.68046ZM6.92476 56.7961H34.8981V32.2253L32.7889 39.0797H6.92476V56.7961ZM36.763 56.7961H51.6822V39.0797H38.8722L36.763 32.2262V56.7961ZM37.0931 26.9579L40.2485 37.2148H55.0828L51.9265 26.9579H37.0931Z" fill="#333333"/>
<path d="M47.0202 16.7V13.9027C47.0202 13.3877 46.6027 12.9702 46.0877 12.9702C45.5727 12.9702 45.1553 13.3877 45.1553 13.9027V16.7C45.1553 17.215 45.5727 17.6324 46.0877 17.6324C46.6027 17.6324 47.0202 17.215 47.0202 16.7Z" fill="#333333"/>
<path d="M40.4927 22.2952C40.4927 22.8102 40.9101 23.2277 41.4251 23.2277C41.9401 23.2277 42.3576 22.8102 42.3576 22.2952C42.3576 21.7803 41.9401 21.3628 41.4251 21.3628C40.9101 21.3628 40.4927 21.7803 40.4927 22.2952Z" fill="#333333"/>
<path d="M46.0877 21.3625C45.5727 21.3625 45.1553 20.945 45.1553 20.43C45.1553 19.915 45.5727 19.4976 46.0877 19.4976C46.6027 19.4976 47.0202 19.915 47.0202 20.43C47.0202 20.945 46.6027 21.3625 46.0877 21.3625Z" fill="#333333"/>
<path d="M14.3844 20.4306V18.5657C14.3844 18.0508 13.967 17.6333 13.452 17.6333C12.937 17.6333 12.5195 18.0508 12.5195 18.5657V20.4306C12.5195 20.9456 12.937 21.3631 13.452 21.3631C13.967 21.3631 14.3844 20.9456 14.3844 20.4306Z" fill="#333333"/>
</svg>
