<svg width="58" height="59" viewBox="0 0 58 59" fill="none" xmlns="http://www.w3.org/2000/svg">
<path d="M24.8997 22.1709C24.4698 24.1815 25.4518 26.2081 27.2686 27.1667C24.637 28.086 22.854 30.5313 22.85 33.2978V33.298V39.0242C22.85 39.4614 23.211 39.8106 23.6498 39.8106H35.3501C35.789 39.8106 36.15 39.4614 36.15 39.0242L36.15 33.298L36.15 33.2978C36.1458 30.5313 34.3628 28.0861 31.7315 27.1667C33.5482 26.2081 34.53 24.1815 34.1003 22.1709L33.9536 22.2023L34.1003 22.1709C33.6439 20.0358 31.7223 18.5106 29.4999 18.5106C27.2776 18.5106 25.3562 20.0358 24.8997 22.1709L24.8997 22.1709ZM34.5501 33.298V38.2379H24.45V33.298C24.45 30.5723 26.7078 28.3575 29.4999 28.3575C32.2917 28.3575 34.5501 30.5723 34.5501 33.298ZM29.5 20.086C31.215 20.086 32.6 21.4462 32.6 23.1174C32.6 24.7886 31.215 26.1486 29.4999 26.1486C27.7847 26.1486 26.3999 24.7886 26.3999 23.1174C26.4023 21.4469 27.7859 20.0881 29.5 20.086Z" fill="#D33234" stroke="#D33234" stroke-width="0.3"/>
<path fill-rule="evenodd" clip-rule="evenodd" d="M25.5381 5.79687L25.5508 5.82717C25.5613 5.8526 25.5718 5.87783 25.5829 5.9021L25.9224 6.70668L26.0415 6.65613C26.5465 7.31634 27.2587 7.78894 28.0637 7.99884V12.801H29.9353V7.99884C30.7424 7.78875 31.4559 7.31522 31.9612 6.65238L32.0804 6.70312L32.4199 5.89836C32.4299 5.8768 32.4391 5.85472 32.4484 5.8324C32.4538 5.81951 32.4593 5.80631 32.4649 5.79331L32.807 4.98162L32.6873 4.93144C32.7185 4.7545 32.7361 4.57568 32.7415 4.39612C32.7415 2.33309 31.0662 0.660645 28.9995 0.660645C26.9333 0.660645 25.2573 2.33309 25.2573 4.39612C25.2628 4.57568 25.2808 4.7545 25.3119 4.93144L25.1915 4.98162L25.5381 5.79687ZM28.9995 2.52857C30.0327 2.52857 30.8707 3.3646 30.8707 4.39612C30.8707 5.42744 30.0327 6.26423 28.9995 6.26423C27.9664 6.26423 27.1289 5.42744 27.1289 4.39612C27.1289 3.3646 27.9664 2.52857 28.9995 2.52857Z" fill="#333333"/>
<path d="M34.3684 5.63818L33.641 7.35913L35.2021 8.01597L35.9293 6.2954L34.3684 5.63818Z" fill="#333333"/>
<path d="M36.744 8.68748L37.4698 6.96729L39.0297 7.62338L38.3034 9.34376L36.744 8.68748Z" fill="#333333"/>
<path fill-rule="evenodd" clip-rule="evenodd" d="M8.93322 14.9046L8.96679 14.8262C8.83081 14.7286 8.70138 14.6225 8.57946 14.5079C7.11867 13.0493 7.11867 10.6844 8.57946 9.22578C10.0598 7.81341 12.3907 7.81341 13.8714 9.22578C13.9856 9.3473 14.0919 9.47649 14.1898 9.61262L14.2684 9.57891L14.4329 9.96725C14.6042 10.2552 14.7349 10.5649 14.8208 10.8883L14.9951 11.2999L14.9146 11.3341C14.945 11.5099 14.963 11.6882 14.9673 11.867C14.9641 12.5325 14.7816 13.1841 14.4388 13.7544L17.7544 17.0639L16.4313 18.3845L13.116 15.0748C12.5445 15.4175 11.8912 15.5991 11.2253 15.6025C11.0462 15.5978 10.8678 15.5802 10.6909 15.5499L10.6572 15.6302L10.2451 15.457C9.92096 15.3705 9.61091 15.24 9.32299 15.0692L8.93322 14.9046ZM11.7218 10.0371C11.0678 9.86577 10.3719 10.0609 9.90258 10.5464C9.17181 11.2759 9.17181 12.4578 9.90258 13.1874C10.6422 13.8935 11.8075 13.8935 12.5481 13.1874C13.0342 12.7178 13.2297 12.0243 13.0586 11.3708C12.8868 10.7175 12.3759 10.208 11.7218 10.0371Z" fill="#333333"/>
<path fill-rule="evenodd" clip-rule="evenodd" d="M49.0672 44.3175L49.0321 44.4002C49.1696 44.4952 49.2996 44.6002 49.4215 44.7139C50.3939 45.6519 50.7842 47.0411 50.4413 48.3473C50.0998 49.6529 49.0775 50.6728 47.7692 51.0153C46.4609 51.3563 45.0697 50.9674 44.1302 49.9963C44.015 49.8744 43.9089 49.7456 43.8112 49.6097L43.7324 49.6432L43.5675 49.2541C43.3964 48.9665 43.2663 48.6572 43.1796 48.3334L43.0052 47.9222L43.086 47.8884C43.0554 47.7124 43.0386 47.5341 43.0333 47.3551C43.0365 46.69 43.219 46.038 43.5621 45.4679L40.2464 42.158L41.5695 40.8374L44.8921 44.1549C45.6238 43.7484 46.4671 43.59 47.2967 43.7026L47.3436 43.5917L47.9701 43.8548C48.168 43.9188 48.3603 44.0003 48.5441 44.0973L49.0672 44.3175ZM45.4509 48.6759C46.191 49.3816 47.3566 49.3816 48.0965 48.6759C48.8279 47.9462 48.8279 46.7636 48.0965 46.0343C47.3661 45.3046 46.1817 45.3046 45.4505 46.0343C44.7199 46.7636 44.7199 47.9462 45.4509 48.6759Z" fill="#333333"/>
<path fill-rule="evenodd" clip-rule="evenodd" d="M54.2615 25.8754C54.0818 25.8799 53.9025 25.8984 53.7252 25.9293L53.6748 25.8101L52.8581 26.1555L52.8289 26.1675C52.8031 26.1781 52.7773 26.1886 52.7521 26.2005L51.9467 26.5394L51.9973 26.6579C51.3361 27.1618 50.8627 27.8727 50.6523 28.6769H45.8421V30.5449H50.6523C50.8627 31.3506 51.3373 32.0626 52.0013 32.5676L51.9502 32.6863L52.7564 33.0251C52.7798 33.036 52.804 33.0461 52.8285 33.0562L52.8618 33.0702L53.6748 33.4119L53.7252 33.2921C55.1102 33.4943 56.4917 32.9067 57.305 31.7696C58.1179 30.6321 58.2263 29.137 57.5848 27.895C56.9437 26.653 55.6613 25.8739 54.2615 25.8754ZM54.2615 31.4784C53.2282 31.4784 52.3905 30.6424 52.3905 29.6109C52.3905 28.5796 53.2282 27.743 54.2615 27.743C55.2948 27.743 56.1323 28.5796 56.1323 29.6109C56.1323 30.6424 55.2948 31.4784 54.2615 31.4784Z" fill="#333333"/>
<path fill-rule="evenodd" clip-rule="evenodd" d="M43.086 11.3341L43.0052 11.2999L43.1796 10.8883C43.2663 10.5649 43.3964 10.2556 43.5675 9.968L43.7324 9.57891L43.8112 9.61262C43.9089 9.47649 44.015 9.3473 44.1302 9.22578C45.6099 7.81341 47.9409 7.81341 49.4215 9.22578C50.8821 10.6844 50.8821 13.0493 49.4215 14.5079C49.2996 14.6225 49.1698 14.7286 49.034 14.8262L49.0672 14.9046L48.6776 15.0692C48.3897 15.24 48.0795 15.3705 47.7563 15.457L47.3436 15.6302L47.3097 15.5499C47.1332 15.5802 46.9548 15.5978 46.7755 15.6025C46.1093 15.5991 45.4558 15.4175 44.8848 15.0748L41.5695 18.3845L40.2464 17.0639L43.5621 13.7544C43.219 13.1841 43.0365 12.5325 43.0333 11.867C43.0386 11.6882 43.0554 11.5099 43.086 11.3341ZM47.2722 10.0371C46.6178 9.86577 45.9221 10.0609 45.4528 10.5464C44.7224 11.2759 44.7224 12.4578 45.4528 13.1874C46.1931 13.8935 47.3581 13.8935 48.0984 13.1874C48.5844 12.7178 48.7802 12.0243 48.6088 11.3708C48.4375 10.7175 47.926 10.208 47.2722 10.0371Z" fill="#333333"/>
<path d="M39.8642 10.0025L40.5901 8.28271L42.1493 8.93843L41.4236 10.6579L39.8642 10.0025Z" fill="#333333"/>
<path d="M51.2904 34.2446L50.632 35.8023L52.3562 36.5282L53.014 34.9711L51.2904 34.2446Z" fill="#333333"/>
<path d="M48.0033 42.0337L48.6615 40.4751L50.3854 41.2012L49.7269 42.7591L48.0033 42.0337Z" fill="#333333"/>
<path d="M49.9756 37.3608L49.3172 38.9178L51.0413 39.6441L51.6993 38.0866L49.9756 37.3608Z" fill="#333333"/>
<path d="M18.9185 51.6006L19.644 49.8804L21.2037 50.5363L20.478 52.2563L18.9185 51.6006Z" fill="#333333"/>
<path d="M22.7637 51.1948L22.0378 52.9157L23.5974 53.5717L24.3227 51.8515L22.7637 51.1948Z" fill="#333333"/>
<path d="M15.829 50.2997L16.5564 48.5786L18.1177 49.2358L17.3905 50.9567L15.829 50.2997Z" fill="#333333"/>
<path fill-rule="evenodd" clip-rule="evenodd" d="M14.9157 47.8884L14.9962 47.9222L14.8219 48.3334C14.736 48.6572 14.6053 48.9667 14.434 49.2547L14.2695 49.6432L14.1909 49.6097C14.093 49.7456 13.9867 49.8744 13.8725 49.9963C12.9325 50.9674 11.5408 51.3563 10.2329 51.0153C8.92455 50.6728 7.90286 49.6529 7.56017 48.3473C7.21711 47.0411 7.608 45.6519 8.58055 44.7139C8.70247 44.6002 8.83208 44.4952 8.96957 44.4002L8.93431 44.3175L9.45781 44.0973C9.64144 44.0003 9.83389 43.9188 10.0318 43.8557L10.6583 43.5917L10.7052 43.7026C11.5348 43.59 12.3779 43.7484 13.1094 44.1549L16.4324 40.8374L17.7555 42.158L14.4399 45.4679C14.7827 46.038 14.9652 46.69 14.9684 47.3551C14.9641 47.5341 14.9461 47.7124 14.9157 47.8884ZM9.90367 48.6759C10.6433 49.3816 11.8086 49.3816 12.5491 48.6759C13.2801 47.9462 13.2801 46.7636 12.5491 46.0343C11.8189 45.3046 10.6339 45.3046 9.90292 46.0343C9.17271 46.7636 9.17271 47.9462 9.90367 48.6759Z" fill="#333333"/>
<path d="M6.30362 21.1357L6.9618 19.5786L8.68612 20.3049L8.02775 21.8622L6.30362 21.1357Z" fill="#333333"/>
<path d="M5.64378 22.6938L4.98541 24.2519L6.70937 24.978L7.36811 23.4198L5.64378 22.6938Z" fill="#333333"/>
<path d="M7.61799 18.0215L8.2758 16.4644L10.0001 17.1901L9.34158 18.7474L7.61799 18.0215Z" fill="#333333"/>
<path d="M6.70966 34.2437L4.98589 34.9696L5.64445 36.5278L7.36859 35.8017L6.70966 34.2437Z" fill="#333333"/>
<path d="M7.61799 41.2008L9.34158 40.4751L10.0001 42.032L8.2758 42.7579L7.61799 41.2008Z" fill="#333333"/>
<path d="M8.02672 37.3599L6.30314 38.0858L6.96076 39.6433L8.68471 38.9174L8.02672 37.3599Z" fill="#333333"/>
<path fill-rule="evenodd" clip-rule="evenodd" d="M5.14541 33.0664L5.16651 33.0577C5.19501 33.0458 5.22322 33.0341 5.25119 33.0213L6.05699 32.6824L6.00597 32.5641C6.66753 32.0598 7.14152 31.3489 7.35141 30.5449H12.1622V28.6769H7.35141C7.14058 27.8712 6.66603 27.1588 6.00222 26.6541L6.05287 26.5356L5.24763 26.1967C5.22369 26.1857 5.1994 26.1757 5.17518 26.1657L5.14203 26.152L4.32854 25.8101L4.2779 25.9293C4.10102 25.8984 3.92151 25.8799 3.7422 25.8754C1.67537 25.8754 0 27.5482 0 29.6109C0 31.6739 1.67537 33.3464 3.7422 33.3464C3.92151 33.3415 4.10102 33.323 4.2779 33.2921L4.32854 33.4119L5.14541 33.0664ZM1.87138 29.6109C1.87138 28.5796 2.70888 27.743 3.7422 27.743C4.77552 27.743 5.61339 28.5796 5.61339 29.6109C5.61339 30.6424 4.77552 31.4784 3.7422 31.4784C2.70888 31.4784 1.87138 30.6424 1.87138 29.6109Z" fill="#333333"/>
<path d="M41.4437 48.5786L39.8833 49.2353L40.6105 50.9564L42.1711 50.2992L41.4437 48.5786Z" fill="#333333"/>
<path d="M33.641 51.863L35.2017 51.2056L35.9289 52.9265L34.368 53.5842L33.641 51.863Z" fill="#333333"/>
<path d="M38.3233 49.8921L36.7631 50.5489L37.4903 52.2699L39.0509 51.6134L38.3233 49.8921Z" fill="#333333"/>
<path fill-rule="evenodd" clip-rule="evenodd" d="M32.4607 53.4248C32.4461 53.389 32.432 53.3536 32.4157 53.3193L32.0766 52.5149L31.9579 52.5655C31.4527 51.9051 30.7405 51.4325 29.9353 51.2228V46.4204H28.0637V51.2228C27.2568 51.4331 26.5433 51.9068 26.0376 52.5692L25.9187 52.5185L25.579 53.3231L25.5676 53.3494C25.5602 53.3667 25.5529 53.3842 25.5456 53.4018L25.5345 53.4285L25.1915 54.24L25.3119 54.2902C25.0589 55.7565 25.7013 57.2321 26.9473 58.0481C28.1933 58.8639 29.8055 58.8639 31.0515 58.0481C32.2976 57.2321 32.9404 55.7565 32.6873 54.2902L32.807 54.24L32.4607 53.4248ZM28.9995 56.6934C27.9664 56.6934 27.1289 55.8572 27.1289 54.8257C27.1289 53.794 27.9664 52.958 28.9995 52.958C30.0327 52.958 30.8707 53.794 30.8707 54.8257C30.8707 55.8572 30.0327 56.6934 28.9995 56.6934Z" fill="#333333"/>
<path d="M49.723 16.4624L47.9995 17.1887L48.6576 18.747L50.3818 18.0212L49.723 16.4624Z" fill="#333333"/>
<path d="M50.6325 23.4198L52.3568 22.6938L53.0148 24.2511L51.2907 24.9771L50.6325 23.4198Z" fill="#333333"/>
<path d="M51.042 19.5786L49.3177 20.3044L49.9755 21.8617L51.6992 21.1357L51.042 19.5786Z" fill="#333333"/>
<path d="M17.39 8.26514L15.8299 8.92235L16.5571 10.6429L18.117 9.98626L17.39 8.26514Z" fill="#333333"/>
<path d="M22.0722 6.29563L23.6321 5.63916L24.3595 7.35973L22.7993 8.01695L22.0722 6.29563Z" fill="#333333"/>
<path d="M20.5132 6.95264L18.953 7.60911L19.6802 9.33023L21.2404 8.67301L20.5132 6.95264Z" fill="#333333"/>
</svg>
