<svg width="38" height="24" viewBox="0 0 38 24" fill="none" xmlns="http://www.w3.org/2000/svg">
<path d="M37.2532 10.7692C37.2532 8.90277 35.735 7.38462 33.8685 7.38462C33.5479 7.38462 33.2396 7.432 32.9455 7.51569V5.97354C32.9455 2.67938 30.2661 0 26.9719 0H10.6113C7.31716 0 4.63777 2.67938 4.63777 5.97354V7.51569C4.34362 7.432 4.03531 7.38462 3.71469 7.38462C1.84823 7.38462 0.330078 8.90277 0.330078 10.7692C0.330078 11.8794 0.88577 12.9046 1.77931 13.5305C1.64023 13.9188 1.56085 14.3342 1.56085 14.7692C1.56085 15.76 1.95531 16.6597 2.59285 17.3231C1.99408 17.5342 1.56085 18.0991 1.56085 18.7692C1.56085 19.6172 2.25131 20.3077 3.09931 20.3077H4.02239V22.1538H5.25316V22.7692C4.91346 22.7692 4.63777 23.0449 4.63777 23.3846C4.63777 23.7243 4.91346 24 5.25316 24H6.48392C6.82362 24 7.09931 23.7243 7.09931 23.3846C7.09931 23.0449 6.82362 22.7692 6.48392 22.7692V22.1538H7.71469V20.3077H29.8685V22.1538H31.0993V22.7692C30.7596 22.7692 30.4839 23.0449 30.4839 23.3846C30.4839 23.7243 30.7596 24 31.0993 24H32.3301C32.6698 24 32.9455 23.7243 32.9455 23.3846C32.9455 23.0449 32.6698 22.7692 32.3301 22.7692V22.1538H33.5608V20.3077H34.4839C35.3319 20.3077 36.0224 19.6172 36.0224 18.7692C36.0224 18.0991 35.5892 17.5342 34.9904 17.3231C35.6279 16.6597 36.0224 15.76 36.0224 14.7692C36.0224 14.3342 35.943 13.9188 35.8039 13.5305C36.6975 12.9046 37.2532 11.8794 37.2532 10.7692ZM5.86854 8.15939V5.97354C5.86854 3.35815 7.99654 1.23077 10.6113 1.23077H26.9719C29.5873 1.23077 31.7147 3.35877 31.7147 5.97354V8.15939C31.6919 8.17846 31.6716 8.2 31.6495 8.21969C31.5861 8.27508 31.5227 8.33108 31.4636 8.39077C31.4242 8.43077 31.3885 8.47262 31.351 8.51446C31.311 8.55939 31.2704 8.60369 31.2322 8.65046C31.1959 8.69538 31.1621 8.74277 31.1282 8.78954C31.0938 8.83754 31.0593 8.88554 31.0273 8.93539C30.9972 8.98277 30.9682 9.03015 30.9399 9.07877C30.9085 9.13292 30.879 9.18769 30.8507 9.24369C30.8267 9.29046 30.8039 9.33785 30.7818 9.38585C30.7541 9.44739 30.7295 9.51015 30.7048 9.57354C30.6876 9.61908 30.6698 9.664 30.655 9.71015C30.6316 9.78092 30.6125 9.85292 30.5941 9.92492C30.583 9.96677 30.5707 10.008 30.5615 10.0505C30.5436 10.1317 30.5313 10.2154 30.5196 10.2985C30.5147 10.3342 30.5073 10.3686 30.5036 10.4043C30.4913 10.5255 30.4839 10.6462 30.4839 10.7692C30.4839 10.872 30.4888 10.9742 30.4993 11.0769H7.08392C7.09439 10.9742 7.09931 10.872 7.09931 10.7692C7.09931 10.6462 7.09192 10.5255 7.079 10.4062C7.07531 10.3705 7.06792 10.3354 7.063 10.3003C7.05131 10.2166 7.039 10.1335 7.02116 10.0523C7.01192 10.0098 6.99962 9.96862 6.98854 9.92677C6.97008 9.85415 6.95039 9.78215 6.92762 9.712C6.91223 9.66585 6.89439 9.62092 6.87777 9.57539C6.85377 9.512 6.82854 9.44923 6.80085 9.38769C6.77931 9.33969 6.75592 9.29231 6.73192 9.24554C6.70362 9.18954 6.67408 9.13477 6.64269 9.08062C6.61439 9.032 6.58608 8.984 6.55531 8.93723C6.52331 8.88739 6.48885 8.83938 6.45439 8.79138C6.42054 8.74462 6.38669 8.69723 6.35039 8.65231C6.31285 8.60554 6.27223 8.56123 6.23162 8.51631C6.19469 8.47508 6.15839 8.43262 6.119 8.39262C6.05992 8.33292 5.99654 8.27692 5.93316 8.22154C5.91162 8.2 5.89131 8.17846 5.86854 8.15939ZM32.1405 12.3077H32.3301C32.4753 12.3077 32.615 12.3262 32.7535 12.3508C32.8033 12.36 32.8532 12.3698 32.9018 12.3815C32.9842 12.4012 33.0642 12.4289 33.143 12.4566C33.2772 12.5052 33.407 12.5625 33.5307 12.6338C33.5442 12.6418 33.559 12.6486 33.5725 12.6566C33.9393 12.8775 34.2519 13.1951 34.4704 13.5871L34.6008 13.8209C34.7233 14.1126 34.7916 14.4332 34.7916 14.7692C34.7916 16.1268 33.6876 17.2308 32.3301 17.2308H5.25316C3.89562 17.2308 2.79162 16.1268 2.79162 14.7692C2.79162 14.4332 2.85992 14.1126 2.98239 13.8209L3.11285 13.5871C3.33131 13.1951 3.64392 12.8775 4.01069 12.6566C4.02423 12.6486 4.03839 12.6418 4.05254 12.6338C4.17623 12.5625 4.30669 12.5052 4.44023 12.4566C4.51962 12.4289 4.599 12.4012 4.68146 12.3815C4.73069 12.3692 4.77992 12.3594 4.82977 12.3508C4.96823 12.3262 5.10792 12.3077 5.25316 12.3077H5.44269H6.74916H30.8347H32.1405ZM1.56085 10.7692C1.56085 9.58154 2.527 8.61539 3.71469 8.61539C4.15839 8.61539 4.57069 8.75077 4.91408 8.98154C5.04885 9.07262 5.16823 9.17969 5.27715 9.29538C5.31223 9.33231 5.34177 9.37354 5.37377 9.41292C5.44392 9.49846 5.50792 9.58831 5.56392 9.68308C5.59223 9.73108 5.61869 9.77908 5.64331 9.82954C5.69254 9.93046 5.73192 10.0363 5.76516 10.144C5.77931 10.1908 5.79716 10.2357 5.80823 10.2831C5.84516 10.4406 5.86854 10.6031 5.86854 10.7692C5.86854 10.8702 5.85623 10.9729 5.839 11.0769H5.25316C5.11592 11.0769 4.98116 11.0855 4.84762 11.1003C4.82977 11.1022 4.81254 11.1058 4.79531 11.1083C4.67408 11.1237 4.55469 11.144 4.43716 11.1705C4.43223 11.1717 4.42731 11.1729 4.42239 11.1742C3.60577 11.3631 2.89192 11.8209 2.38116 12.4523C1.87223 12.0498 1.56085 11.432 1.56085 10.7692ZM6.48392 20.9231H5.25316V20.3077H6.48392V20.9231ZM32.3301 20.9231H31.0993V20.3077H32.3301V20.9231ZM34.4839 19.0769H33.5608H29.8685H7.71469H4.02239H3.09931C2.92946 19.0769 2.79162 18.9391 2.79162 18.7692C2.79162 18.5994 2.92946 18.4615 3.09931 18.4615H5.25316H32.3301H34.4839C34.6538 18.4615 34.7916 18.5994 34.7916 18.7692C34.7916 18.9391 34.6538 19.0769 34.4839 19.0769ZM35.2015 12.4529C34.6913 11.8215 33.9775 11.3637 33.1602 11.1748C33.1553 11.1735 33.1504 11.1723 33.1455 11.1711C33.0279 11.1446 32.9085 11.1237 32.7873 11.1089C32.7695 11.1065 32.7522 11.1028 32.735 11.1009C32.6021 11.0855 32.4673 11.0769 32.3301 11.0769H31.7442C31.727 10.9729 31.7147 10.8702 31.7147 10.7692C31.7147 10.6031 31.7381 10.4406 31.775 10.2825C31.7861 10.2351 31.8039 10.1902 31.8181 10.144C31.8513 10.0357 31.8907 9.93046 31.9399 9.82892C31.9645 9.77908 31.991 9.73046 32.0193 9.68308C32.0753 9.58831 32.1393 9.49846 32.2095 9.41292C32.2415 9.37354 32.271 9.33292 32.3061 9.296C32.415 9.18031 32.5344 9.07323 32.6692 8.98215C33.0125 8.75077 33.4249 8.61539 33.8685 8.61539C35.0562 8.61539 36.0224 9.58154 36.0224 10.7692C36.0224 11.432 35.711 12.0498 35.2015 12.4529Z" fill="#D33234"/>
<path d="M9.12553 7.20405C9.24553 7.32405 9.40307 7.38436 9.56061 7.38436C9.71815 7.38436 9.87568 7.32405 9.99568 7.20405L11.0991 6.10066L12.2025 7.20405C12.3225 7.32405 12.48 7.38436 12.6375 7.38436C12.7951 7.38436 12.9526 7.32405 13.0726 7.20405C13.3132 6.96343 13.3132 6.57451 13.0726 6.33389L12.2769 5.5382L13.0726 4.74251C13.3132 4.5019 13.3132 4.11297 13.0726 3.87236C12.832 3.63174 12.4431 3.63174 12.2025 3.87236L11.0991 4.97574L9.99568 3.87236C9.75507 3.63174 9.36615 3.63174 9.12553 3.87236C8.88491 4.11297 8.88491 4.5019 9.12553 4.74251L9.92122 5.5382L9.12553 6.33389C8.88491 6.57451 8.88491 6.96343 9.12553 7.20405Z" fill="#D33234"/>
<path d="M17.126 9.05048C17.246 9.17048 17.4036 9.23079 17.5611 9.23079C17.7186 9.23079 17.8762 9.17048 17.9962 9.05048L19.0996 7.9471L20.2029 9.05048C20.3229 9.17048 20.4805 9.23079 20.638 9.23079C20.7956 9.23079 20.9531 9.17048 21.0731 9.05048C21.3137 8.80987 21.3137 8.42095 21.0731 8.18033L20.2774 7.38464L21.0731 6.58895C21.3137 6.34833 21.3137 5.95941 21.0731 5.71879C20.8325 5.47818 20.4436 5.47818 20.2029 5.71879L19.0996 6.82218L17.9962 5.71879C17.7556 5.47818 17.3666 5.47818 17.126 5.71879C16.8854 5.95941 16.8854 6.34833 17.126 6.58895L17.9217 7.38464L17.126 8.18033C16.8854 8.42095 16.8854 8.80987 17.126 9.05048Z" fill="#D33234"/>
<path d="M25.1266 7.20405C25.2466 7.32405 25.4042 7.38436 25.5617 7.38436C25.7192 7.38436 25.8768 7.32405 25.9968 7.20405L27.1002 6.10066L28.2036 7.20405C28.3236 7.32405 28.4811 7.38436 28.6386 7.38436C28.7962 7.38436 28.9537 7.32405 29.0737 7.20405C29.3143 6.96343 29.3143 6.57451 29.0737 6.33389L28.278 5.5382L29.0737 4.74251C29.3143 4.5019 29.3143 4.11297 29.0737 3.87236C28.8331 3.63174 28.4442 3.63174 28.2036 3.87236L27.1002 4.97574L25.9968 3.87236C25.7562 3.63174 25.3672 3.63174 25.1266 3.87236C24.886 4.11297 24.886 4.5019 25.1266 4.74251L25.9223 5.5382L25.1266 6.33389C24.886 6.57451 24.886 6.96343 25.1266 7.20405Z" fill="#D33234"/>
</svg>
