<svg width="60" height="58" viewBox="0 0 60 58" fill="none" xmlns="http://www.w3.org/2000/svg">
<path d="M46.5749 33.8332H48.5491C49.1414 33.8332 49.5362 33.4465 49.5362 32.8665C49.5362 32.2865 49.1414 31.8999 48.5491 31.8999H46.5749C45.9826 31.8999 45.5878 32.2865 45.5878 32.8665C45.5878 33.4465 45.9826 33.8332 46.5749 33.8332Z" fill="#333333"/>
<path d="M46.5749 43.4999H48.5491C49.1414 43.4999 49.5362 43.1133 49.5362 42.5333C49.5362 41.9533 49.1414 41.5667 48.5491 41.5667H46.5749C45.9826 41.5667 45.5878 41.9533 45.5878 42.5333C45.5878 43.1133 45.9826 43.4999 46.5749 43.4999Z" fill="#333333"/>
<path d="M46.5749 53.1667H48.5491C49.1414 53.1667 49.5362 52.78 49.5362 52.2C49.5362 51.62 49.1414 51.2334 48.5491 51.2334H46.5749C45.9826 51.2334 45.5878 51.62 45.5878 52.2C45.5877 52.78 45.9826 53.1667 46.5749 53.1667Z" fill="#333333"/>
<path d="M58.4202 23.1033H53.4846V13.5333C53.4846 12.9533 53.0898 12.5667 52.4975 12.5667H49.5361V9.66672C49.5361 9.08673 49.1413 8.7001 48.549 8.7001H44.6005C44.0082 8.7001 43.6134 9.08673 43.6134 9.66672V10.6334H40.652C40.0597 10.6334 39.6649 11.02 39.6649 11.6V23.1033H26.7336V22.5233C26.7336 21.2667 25.7465 20.3 24.4631 20.3H23.8709V19.3333H33.7421C34.8279 19.3333 35.7163 18.4633 35.7163 17.4V14.5V1.93337C35.7163 0.869998 34.8279 0 33.7421 0H8.07693C6.99105 0 6.10264 0.869998 6.10264 1.93337V14.5V17.4C6.10264 18.4633 6.99105 19.3333 8.07693 19.3333H17.9481V20.3H17.2572C15.974 20.3 14.9868 21.2666 14.9868 22.5233V23.1033H1.26578C0.673501 23.1033 0.179901 23.5867 0.179901 24.1667V27.9367C0.179901 28.5167 0.673501 29.0001 1.26578 29.0001H2.15419V57.0334C2.15419 57.6134 2.549 58 3.14127 58H7.08973C7.682 58 8.07681 57.6134 8.07681 57.0334V29.0001H37.6905V37.7V47.3667V57.0333C37.6905 57.6133 38.0853 57.9999 38.6776 57.9999H56.4458C57.0381 57.9999 57.4329 57.6133 57.4329 57.0333V47.3667V37.7V29.0001H58.3213C58.9136 29.0001 59.4072 28.5167 59.5059 27.9367V24.1667C59.506 23.5867 59.0125 23.1033 58.4202 23.1033ZM51.5103 14.5001V23.1034H49.536V14.5001H51.5103ZM45.5875 10.6334H47.5618V13.5333V23.1033H45.5875V11.6001V10.6334ZM41.6391 12.5667H43.6134V23.1033H41.6391V12.5667ZM33.7421 1.93337V13.5333H8.07693V1.93337H33.7421ZM8.07693 15.4667H33.7422V17.4001H22.8838H18.9353H8.07693V15.4667ZM19.9224 19.3333H21.8967V20.3H19.9224V19.3333ZM17.0597 22.5233C17.0597 22.33 17.1584 22.2333 17.3558 22.2333H18.9352H22.8837H24.5618C24.7593 22.2333 24.8579 22.33 24.8579 22.5233V23.1033H17.0597V22.5233ZM6.10264 56.0666H4.12836V29.0001H6.10264V56.0666ZM55.4588 46.4H39.6648V38.6667H55.4587V46.4H55.4588ZM55.4588 56.0666H39.6648V48.3333H55.4587V56.0666H55.4588ZM55.4588 36.7333H39.6648V28.9999H55.4587V36.7333H55.4588ZM57.433 27.0667H56.4459H38.6777H7.08973H3.14127H2.15419V25.1333H15.974H25.8451H40.652H44.6005H48.5489H52.4974H57.433V27.0667Z" fill="#333333"/>
<path d="M10.0507 6.76665C10.3469 6.76665 10.5443 6.67002 10.7417 6.47665L12.716 4.54328C13.1108 4.15666 13.1108 3.57666 12.716 3.18992C12.3212 2.80317 11.7289 2.80329 11.334 3.18992L9.3598 5.12328C8.96499 5.50991 8.96499 6.08991 9.3598 6.47665C9.55726 6.67002 9.75461 6.76665 10.0507 6.76665Z" fill="#D33234"/>
<path d="M10.3473 10.3434C10.5448 10.5368 10.7421 10.6334 11.0383 10.6334C11.3344 10.6334 11.5319 10.5368 11.7292 10.3434L16.6649 5.51008C17.0597 5.12345 17.0597 4.54345 16.6649 4.15671C16.2701 3.76997 15.6778 3.77008 15.2829 4.15671L10.3473 8.99019C9.95251 9.37682 9.95251 9.95682 10.3473 10.3434Z" fill="#D33234"/>
</svg>
