<svg width="24" height="38" viewBox="0 0 24 38" fill="none" xmlns="http://www.w3.org/2000/svg">
<path d="M1.96994 37.9982C2.62408 37.9941 3.22922 37.6553 3.5684 37.1033C3.90759 36.5513 3.93223 35.8651 3.63349 35.2908C13.1816 33.9464 10.8087 33.9402 20.3945 35.2908C20.0188 36.0199 20.1702 36.9056 20.7675 37.4727C21.3647 38.0398 22.2674 38.1549 22.9911 37.7562C23.7147 37.3575 24.0892 36.5388 23.9136 35.7394C23.738 34.9401 23.0535 34.348 22.2275 34.281L13.8972 30.7744V27.4661C13.8972 26.7818 13.3351 26.227 12.6417 26.227V24.988C14.958 24.877 17.2559 24.5239 19.4968 23.9348C19.9936 23.8225 20.4117 23.4931 20.6328 23.0398C20.8539 22.5866 20.854 22.0586 20.633 21.6053C21.876 20.1055 22.5959 18.2501 22.6858 16.3145V15.0754C22.6858 14.049 21.8426 13.2168 20.8025 13.2168H19.547V8.8801C19.547 7.85363 18.7038 7.0215 17.6638 7.0215H13.8972V5.7019C14.6598 5.63955 15.4145 5.50469 16.1509 5.2992C16.6791 5.13826 17.0385 4.65528 17.036 4.1097V2.06524C17.036 1.38092 16.4739 0.826172 15.7805 0.826172H8.24747C7.55407 0.826172 6.99196 1.38092 6.99196 2.06524V4.1097C6.98948 4.65528 7.34887 5.13826 7.87709 5.2992C8.61342 5.50469 9.36813 5.63955 10.1307 5.7019V7.0215H6.36421C5.32412 7.0215 4.48095 7.85363 4.48095 8.8801V13.2168H3.22545C2.18536 13.2168 1.34219 14.049 1.34219 15.0754C1.34219 16.6429 1.14131 18.7245 3.39494 21.5929C3.17145 22.046 3.17026 22.5751 3.39172 23.0291C3.61318 23.4831 4.03295 23.8122 4.53117 23.9224C5.8934 24.2321 7.07985 24.5419 8.59901 24.734L7.93359 25.6075H5.73646C5.38976 25.6075 5.10871 25.8849 5.10871 26.227C5.10871 26.5692 5.38976 26.8466 5.73646 26.8466H8.24747C8.44506 26.8466 8.63112 26.7548 8.74967 26.5988L10.0428 24.9012C10.476 24.9384 10.928 24.957 11.3862 24.9756V26.2146C10.6928 26.2146 10.1307 26.7694 10.1307 27.4537V30.762L1.80045 34.281C0.760358 34.3272 -0.0448629 35.1967 0.0019413 36.2232C0.0487455 37.2497 0.929851 38.0444 1.96994 37.9982ZM19.547 20.7132V16.934H21.38C21.1671 18.3313 20.5871 19.6492 19.6977 20.7566L19.547 20.7132ZM20.8025 14.4559C21.1492 14.4559 21.4303 14.7333 21.4303 15.0754V15.695H19.547V14.4559H20.8025ZM8.24747 2.06524H15.7805V4.1097C13.3031 4.68283 10.7249 4.68283 8.24747 4.1097V2.06524ZM11.3862 5.78244H12.6417V7.0215H11.3862V5.78244ZM5.73646 8.8801C5.73646 8.53795 6.01751 8.26057 6.36421 8.26057H17.6638C18.0105 8.26057 18.2915 8.53795 18.2915 8.8801V20.6512H5.73646V8.8801ZM4.33029 20.7566C3.44092 19.6492 2.86088 18.3313 2.64792 16.934H4.48095V20.7132L4.33029 20.7566ZM2.5977 15.0754C2.5977 14.7333 2.87875 14.4559 3.22545 14.4559H4.48095V15.695H2.5977V15.0754ZM4.80739 22.7143C4.5859 22.6789 4.43159 22.4781 4.45674 22.258C4.48188 22.038 4.67763 21.8762 4.90155 21.8903H19.1264C19.3503 21.8762 19.5461 22.038 19.5712 22.258C19.5964 22.4781 19.4421 22.6789 19.2206 22.7143C13.1377 24.0958 10.8715 24.0896 4.80739 22.7143ZM22.058 36.7591C21.7113 36.7591 21.4303 36.4817 21.4303 36.1396C21.4303 35.7974 21.7113 35.52 22.058 35.52C22.4047 35.52 22.6858 35.7974 22.6858 36.1396C22.6858 36.4817 22.4047 36.7591 22.058 36.7591ZM11.3862 27.4661H12.6417V30.5638H11.3862V27.4661ZM10.8903 31.8028H13.1377L17.4503 33.6243C11.6373 32.8065 11.9512 32.8684 6.57765 33.6243L10.8903 31.8028ZM1.96994 35.52C2.31664 35.52 2.5977 35.7974 2.5977 36.1396C2.5977 36.4817 2.31664 36.7591 1.96994 36.7591C1.62325 36.7591 1.34219 36.4817 1.34219 36.1396C1.34219 35.7974 1.62325 35.52 1.96994 35.52Z" fill="#D33234"/>
</svg>
