<svg width="127" height="62" viewBox="0 0 127 62" fill="none" xmlns="http://www.w3.org/2000/svg">
<path d="M39.3478 40.7905H47.4103V43.4028H43.5752V61.8631H39.3478V40.7905Z" fill="#C7C8CB"/>
<path d="M52.1607 53.9391L52.9015 43.4028H53.163L53.9039 53.9391H52.1607ZM47.4975 61.8631H51.6377L52.0299 56.2466H54.0347L54.4269 61.8631H58.5671L56.388 40.7905H49.7637L47.4975 61.8631Z" fill="#C7C8CB"/>
<path d="M64.5812 54.5051V58.4671C64.5812 58.9896 65.017 59.1637 65.235 59.1637C65.6272 59.1637 65.8887 58.8154 65.8887 58.4671V53.5473C65.8887 52.8942 65.7579 52.154 64.189 52.154H62.4894V49.8465H64.2762C65.4529 49.8465 65.8887 49.5853 65.8887 48.2791V44.0994C65.8887 43.7511 65.6272 43.4028 65.235 43.4028C64.9735 43.4028 64.5812 43.5334 64.5812 44.0994V47.539H60.3539V44.5348C60.3539 43.0545 60.5282 40.7905 63.4917 40.7905H66.9782C69.9417 40.7905 70.116 43.0981 70.116 44.5348V47.8873C70.116 50.1948 68.5035 50.8043 67.2397 50.7608V50.9785C70.0725 50.8914 70.116 53.0683 70.116 53.8085V58.0753C70.116 59.5556 69.9417 61.8196 66.9782 61.8196H63.4917C60.5282 61.8196 60.3539 59.5556 60.3539 58.0753V54.4616H64.5812" fill="#C7C8CB"/>
<path d="M72.8617 40.7905H82.6238V61.8631H78.3965V43.4028H77.0455V61.8631H72.8181V40.7905" fill="#C7C8CB"/>
<path d="M89.6404 52.3716V43.4027H90.207C90.6428 43.4027 90.9914 43.7946 90.9914 44.4477V51.2832C90.9914 51.9363 90.6428 52.3281 90.207 52.3281H89.6404V52.3716ZM85.413 61.863H89.6404V54.6792H92.0809C95.0009 54.6792 95.2188 52.4152 95.2188 50.9349V44.5783C95.2188 43.098 95.0445 40.834 92.0809 40.834H85.4566V61.863" fill="#C7C8CB"/>
<path d="M103.499 58.467C103.499 58.8153 103.238 59.1636 102.845 59.1636C102.584 59.1636 102.192 58.9895 102.192 58.467V44.0994C102.192 43.5334 102.628 43.4027 102.845 43.4027C103.238 43.4027 103.499 43.7511 103.499 44.0994V58.467ZM97.9644 58.1187C97.9644 59.599 98.1387 61.863 101.102 61.863H104.632C107.552 61.863 107.77 59.599 107.77 58.1187V44.5783C107.77 43.098 107.596 40.834 104.632 40.834H101.102C98.1823 40.834 97.9644 43.1415 97.9644 44.5783V58.1187Z" fill="#C7C8CB"/>
<path d="M121.455 40.7905H126.946V61.8631H122.718V48.671H122.544L120.365 61.8631H117.009L114.83 48.671H114.656V61.8631H110.429V40.7905H115.92L118.665 55.5936L121.455 40.7905Z" fill="#C7C8CB"/>
<path d="M33.9002 11.9682C32.5928 6.30826 29.3678 1.73673 28.932 0.996582C28.2347 2.0415 25.6634 6.09057 24.3124 10.6186C22.8742 15.6255 22.6563 20.1099 23.1792 24.4638C23.6586 28.8611 25.5326 33.3456 25.5326 33.3456C26.535 35.6966 27.9732 38.2219 28.9755 39.4845C30.3701 37.6559 33.6387 32.2136 34.6411 25.0733C35.1641 21.1113 35.164 17.6282 33.9002 11.9682ZM28.932 38.0477C28.2782 36.8722 27.3195 34.6082 27.2323 31.0816C27.1887 27.6856 28.5833 24.7685 28.9755 24.159C29.3242 24.7685 30.5009 27.2937 30.6316 30.7768C30.6752 34.1728 29.5857 36.8722 28.932 38.0477ZM33.508 21.5902C33.4644 23.7671 33.2029 26.0311 32.8543 27.3808C32.985 25.0298 32.6799 21.7208 32.157 19.1521C31.634 16.5833 30.1086 12.273 28.8884 10.2703C27.7553 12.1859 26.3607 15.8867 25.6634 19.1521C24.9225 22.3739 24.9225 26.2924 24.9225 27.4679C24.7482 26.4665 24.2252 22.9399 24.3995 19.4133C24.5303 16.4962 25.184 13.4921 25.5762 12.0989C27.0144 7.4838 28.6269 4.52319 28.932 4.0878C29.237 4.56673 31.2853 8.18041 32.3313 12.0118C33.3336 15.7561 33.5515 19.4133 33.508 21.5902Z" fill="#C7C8CB"/>
<path d="M31.111 40.7906H21.3053V47.3649C21.3053 47.3649 21.3052 47.3649 21.3488 47.3649C23.6586 45.0574 27.4066 45.0574 29.7164 47.3649C32.0262 49.6724 32.0262 53.4167 29.7164 55.7242C29.7164 55.7242 29.7164 55.7242 29.6728 55.7678C29.6728 55.7678 29.6292 55.7678 29.6292 55.8113C27.3194 58.0753 24.3123 59.2509 21.3053 59.2509C18.2982 59.2509 15.2475 58.1189 12.9377 55.8113C8.88464 51.7623 8.36167 45.4492 11.4995 40.8341C11.9353 40.2246 12.4147 39.6151 12.9377 39.0926C15.2475 36.7851 18.2982 35.6531 21.3053 35.6531V19.8486C9.6691 19.8486 0.212006 29.2529 0.212006 40.8777C0.212006 52.5024 9.62552 61.9502 21.3053 61.9502C27.363 61.9502 32.8542 59.3815 36.6894 55.2889V40.9212H31.111" fill="#C7C8CB"/>
</svg>
