<svg width="46" height="58" viewBox="0 0 46 58" fill="none" xmlns="http://www.w3.org/2000/svg">
<path d="M37.25 7.0415H42.0833C43.4185 7.0415 44.5 8.12296 44.5 9.45817V54.1665C44.5 55.5017 43.4185 56.5832 42.0833 56.5832H3.41667C2.08146 56.5832 1 55.5017 1 54.1665V9.45817C1 8.12296 2.08146 7.0415 3.41667 7.0415H8.25" stroke="#333333" stroke-width="2" stroke-miterlimit="10"/>
<path d="M37.2502 11.875H39.6668V51.75H5.8335V11.875H8.25016" stroke="#333333" stroke-width="2" stroke-miterlimit="10"/>
<path d="M31.2082 5.83333H27.5832C27.5832 3.16443 25.4187 1 22.7498 1C20.0809 1 17.9165 3.16443 17.9165 5.83333H14.2915C12.2887 5.83333 10.6665 7.45552 10.6665 9.45833V13.0833H34.8332V9.45833C34.8332 7.45552 33.211 5.83333 31.2082 5.83333Z" stroke="#333333" stroke-width="2" stroke-miterlimit="10"/>
<path d="M22.75 4.625V7.04167" stroke="#333333" stroke-width="2" stroke-miterlimit="10"/>
<path d="M11.875 22.7502L14.9502 25.3858L19.125 20.3335" stroke="#D33234" stroke-width="2" stroke-miterlimit="10" stroke-linecap="round" stroke-linejoin="round"/>
<path d="M11.875 32.4167L14.9502 35.0523L19.125 30" stroke="#D33234" stroke-width="2" stroke-miterlimit="10" stroke-linecap="round" stroke-linejoin="round"/>
<path d="M11.875 42.0832L14.9502 44.7188L19.125 39.6665" stroke="#D33234" stroke-width="2" stroke-miterlimit="10" stroke-linecap="round" stroke-linejoin="round"/>
<path d="M33.6248 22.75H25.1665H33.6248Z" stroke="#333333" stroke-width="2" stroke-miterlimit="10" stroke-linecap="round" stroke-linejoin="round"/>
<path d="M33.6248 32.4165H25.1665H33.6248Z" stroke="#333333" stroke-width="2" stroke-miterlimit="10" stroke-linecap="round" stroke-linejoin="round"/>
<path d="M33.6248 42.0835H25.1665H33.6248Z" stroke="#333333" stroke-width="2" stroke-miterlimit="10" stroke-linecap="round" stroke-linejoin="round"/>
</svg>
