<svg width="59" height="58" viewBox="0 0 59 58" fill="none" xmlns="http://www.w3.org/2000/svg">
<path d="M35.5677 43.1819C34.9481 43.1819 18.4313 43.1819 18.4313 43.1819C18.2995 42.9315 8.53177 27.0869 8.53177 27.0869C5.94813 22.7897 4.22131 21.6297 1.90131 23.4487C0.741313 24.3583 0.622677 25.9928 2.00677 28.0756L14.2922 47.4397C14.9909 48.4283 15.795 49.7728 18.4313 49.7728C23.704 49.7728 42.1586 49.7728 42.1586 49.7728C42.1586 49.7728 42.1586 49.3247 42.1586 47.1365C42.1586 44.9483 40.8404 43.1819 35.5677 43.1819Z" stroke="#D33234" stroke-width="2" stroke-miterlimit="10"/>
<path d="M36.8857 57.6817V56.3635L27.6585 36.5908H7.88574V56.3635V57.6817" stroke="#333333" stroke-width="2" stroke-miterlimit="10"/>
<path d="M42.1588 28.6818C44.4788 28.6818 46.9438 28.6818 48.7497 28.6818C53.8511 28.6818 57.977 24.5559 57.977 19.4545C57.977 14.3532 53.8511 10.2273 48.7497 10.2273C48.3542 10.2273 47.972 10.2536 47.5897 10.3064C47.5897 10.28 47.5897 10.2536 47.5897 10.2273C47.5897 5.12591 43.4638 1 38.3624 1C33.2611 1 29.1351 5.12591 29.1351 10.2273C29.1351 10.2536 29.1351 10.28 29.1351 10.3064C24.5874 10.8732 21.0547 14.7486 21.0547 19.4545C21.0547 24.5559 25.1806 28.6818 30.282 28.6818C32.2197 28.6818 31.732 28.6818 34.2365 28.6818" stroke="#333333" stroke-width="2" stroke-miterlimit="10"/>
<path d="M38.2041 8.90918V40.5455" stroke="#333333" stroke-width="2" stroke-miterlimit="10"/>
<path d="M44.795 19.4546L38.2041 26.0455" stroke="#333333" stroke-width="2" stroke-miterlimit="10"/>
<path d="M31.6133 14.1816L38.2042 20.7726" stroke="#333333" stroke-width="2" stroke-miterlimit="10"/>
<path d="M27.6587 36.5908H34.2496" stroke="#333333" stroke-width="2" stroke-miterlimit="10"/>
</svg>
