<svg width="58" height="58" viewBox="0 0 58 58" fill="none" xmlns="http://www.w3.org/2000/svg">
<path d="M46.9168 33.625L38.4585 42.0833L34.8335 38.4583L31.2085 42.0833L38.4585 49.3333L50.5418 37.25L46.9168 33.625Z" stroke="#D33234" stroke-width="2" stroke-miterlimit="10" stroke-linejoin="round"/>
<path d="M40.8748 56.5832C49.5503 56.5832 56.5832 49.5503 56.5832 40.8748C56.5832 32.1994 49.5503 25.1665 40.8748 25.1665C32.1994 25.1665 25.1665 32.1994 25.1665 40.8748C25.1665 49.5503 32.1994 56.5832 40.8748 56.5832Z" stroke="#333333" stroke-width="2" stroke-miterlimit="10" stroke-linejoin="round"/>
<path d="M17.9168 21.5417C22.8453 21.5417 26.3752 17.9892 26.3752 12.8417V9.7C26.3752 4.5525 22.8453 1 17.9168 1C12.9883 1 9.4585 4.5525 9.4585 9.7V12.8417C9.4585 17.9892 12.9883 21.5417 17.9168 21.5417Z" stroke="#333333" stroke-width="2" stroke-miterlimit="10" stroke-linejoin="round"/>
<path d="M28.8611 24.298C25.3147 22.4206 20.9345 21.5415 17.9167 21.5415C12.0411 21.5415 1 24.8765 1 32.4165V42.0832" stroke="#333333" stroke-width="2" stroke-miterlimit="10" stroke-linecap="round" stroke-linejoin="round"/>
</svg>
