<svg width="74" height="59" viewBox="0 0 74 59" fill="none" xmlns="http://www.w3.org/2000/svg">
<path d="M0 26.0815H42.7368" stroke="#333333" stroke-width="2" stroke-miterlimit="10"/>
<path d="M59.5264 26.0815H73.2632" stroke="#333333" stroke-width="2" stroke-miterlimit="10"/>
<path d="M4.5791 26.0815V58.1342" stroke="#333333" stroke-width="2" stroke-miterlimit="10"/>
<path d="M68.6841 26.0815V58.1342" stroke="#333333" stroke-width="2" stroke-miterlimit="10"/>
<path d="M22.8949 26.0815H4.5791V36.7658H22.8949V26.0815Z" stroke="#333333" stroke-width="2" stroke-miterlimit="10"/>
<path d="M22.8949 36.7661H4.5791V47.4503H22.8949V36.7661Z" stroke="#333333" stroke-width="2" stroke-miterlimit="10"/>
<path d="M12.2104 30.6606H15.2631" stroke="#333333" stroke-width="2" stroke-miterlimit="10"/>
<path d="M12.2104 41.3447H15.2631" stroke="#333333" stroke-width="2" stroke-miterlimit="10"/>
<path d="M47.3159 42.8711V55.0816" stroke="#333333" stroke-width="2" stroke-miterlimit="10"/>
<path d="M56.4735 58.1341V55.0815C56.4735 54.242 55.7867 53.5552 54.9472 53.5552H39.684C38.8446 53.5552 38.1577 54.242 38.1577 55.0815V58.1341" stroke="#333333" stroke-width="2" stroke-miterlimit="10"/>
<path d="M47.3159 53.5552V58.1341" stroke="#333333" stroke-width="2" stroke-miterlimit="10"/>
<path d="M33.5791 42.8713V36.766C33.5791 35.0871 34.9528 33.7134 36.6317 33.7134H42.737" stroke="#333333" stroke-width="2" stroke-miterlimit="10"/>
<path d="M35.1051 1.66064H9.15771V18.4501H35.1051V1.66064Z" stroke="#333333" stroke-width="2" stroke-miterlimit="10"/>
<path d="M18.3159 18.4502V23.0291" stroke="#333333" stroke-width="2" stroke-miterlimit="10"/>
<path d="M25.9473 18.4502V23.0291" stroke="#333333" stroke-width="2" stroke-miterlimit="10"/>
<path d="M54.9473 42.8709H42.7368V12.3446C42.7368 10.6657 44.1105 9.29199 45.7894 9.29199H56.4737C58.1526 9.29199 59.5263 10.6657 59.5263 12.3446V38.292C59.5263 40.8257 57.481 42.8709 54.9473 42.8709Z" stroke="#D33234" stroke-width="2" stroke-miterlimit="10"/>
<path d="M30.5264 42.8711H42.7369" stroke="#D33234" stroke-width="2" stroke-miterlimit="10"/>
</svg>
