<svg width="49" height="58" viewBox="0 0 49 58" fill="none" xmlns="http://www.w3.org/2000/svg">
<path d="M17.3911 45.1307C20.3305 45.1307 22.4346 43.0707 22.4346 40.0872V37.5655C22.4346 34.5819 20.3305 32.522 17.3911 32.522C14.4517 32.522 12.3477 34.5819 12.3477 37.5655V40.0872C12.3477 43.0707 14.4517 45.1307 17.3911 45.1307Z" stroke="#333333" stroke-width="2" stroke-miterlimit="10" stroke-linejoin="round"/>
<path d="M28.7391 56.4782V51.4347C28.7391 47.2691 21.3331 45.1304 17.3913 45.1304C13.4495 45.1304 6.04346 47.2691 6.04346 51.4347V56.4782" stroke="#333333" stroke-width="2" stroke-miterlimit="10" stroke-linecap="round" stroke-linejoin="round"/>
<path d="M7.30435 36.3043H4.78261C2.69429 36.3043 1 34.6101 1 32.5217V4.78261C1 2.69429 2.69429 1 4.78261 1H43.8696C45.9579 1 47.6522 2.69429 47.6522 4.78261V32.5217C47.6522 34.6101 45.9579 36.3043 43.8696 36.3043H40.087L33.5163 44.7522C32.7786 45.6994 31.2609 45.1793 31.2609 43.9783V36.3043H27.4783" stroke="#333333" stroke-width="2" stroke-linecap="round" stroke-linejoin="round"/>
<path d="M31.2609 9.82617L22.4348 18.6523L18.6522 14.8696L14.8696 18.6523L22.4348 26.2175L35.0435 13.6088L31.2609 9.82617Z" stroke="#D33234" stroke-width="2" stroke-miterlimit="10" stroke-linejoin="round"/>
</svg>
