<svg width="21" height="22" viewBox="0 0 21 22" fill="none" xmlns="http://www.w3.org/2000/svg">
<path d="M19.7476 3.49993C18.1452 3.49993 16.8416 2.21951 16.8416 0.645734V0H3.56348V0.645734C3.56348 2.21959 2.2598 3.49993 0.657458 3.49993H0V7.79414C0 10.8799 0.946419 13.8513 2.73706 16.3869C4.5277 18.9224 7.02957 20.8342 9.9722 21.9154L10.2025 22L10.4329 21.9154C13.3756 20.8342 15.8775 18.9224 17.668 16.3869C19.4587 13.8513 20.4051 10.8799 20.4051 7.79414V3.49993H19.7476ZM19.0902 7.79414H19.0902C19.0902 10.6156 18.2248 13.3324 16.5875 15.6508C14.9973 17.9027 12.7933 19.6165 10.2025 20.6188C7.61173 19.6164 5.40771 17.9027 3.81748 15.6508C2.18027 13.3324 1.31492 10.6156 1.31492 7.79414V4.74121C3.11693 4.46321 4.54424 3.06135 4.82729 1.29147H15.5778C15.8608 3.06135 17.2882 4.46321 19.0902 4.74121V7.79414Z" fill="#333333"/>
<path d="M12.6569 7L9.30484 10.2744L7.78934 8.78597L6 10.5256L9.30484 13.7537L14.4462 8.73965L12.6569 7Z" fill="#333333"/>
</svg>
