<svg width="60" height="48" viewBox="0 0 60 48" fill="none" xmlns="http://www.w3.org/2000/svg">
<path d="M58.2625 0.0280762H0.9875C0.857819 0.0280724 0.729407 0.0536123 0.609596 0.103238C0.489785 0.152863 0.380922 0.225601 0.289224 0.3173C0.197525 0.408999 0.124787 0.517862 0.0751613 0.637672C0.0255361 0.757483 -3.72809e-06 0.885895 4.08177e-10 1.01558V42.4906C-3.72809e-06 42.6203 0.0255361 42.7487 0.0751613 42.8685C0.124787 42.9883 0.197525 43.0972 0.289224 43.1889C0.380922 43.2806 0.489785 43.3533 0.609596 43.4029C0.729407 43.4525 0.857819 43.4781 0.9875 43.4781H22.1004L22.7317 46.6342C22.7699 46.8258 22.8642 47.0016 23.0024 47.1396C23.1407 47.2776 23.3167 47.3715 23.5083 47.4094C23.6999 47.4473 23.8985 47.4275 24.0789 47.3526C24.2592 47.2776 24.4133 47.1509 24.5216 46.9883L26.8618 43.4781H32.3882L34.7284 46.9883C34.8367 47.1508 34.9908 47.2776 35.1712 47.3525C35.3515 47.4274 35.5501 47.4472 35.7417 47.4093C35.9332 47.3714 36.1093 47.2775 36.2475 47.1396C36.3858 47.0016 36.48 46.8257 36.5183 46.6342L37.1496 43.4781H58.2625C58.3922 43.4781 58.5206 43.4525 58.6404 43.4029C58.7602 43.3533 58.8691 43.2806 58.9608 43.1889C59.0525 43.0972 59.1252 42.9883 59.1748 42.8685C59.2245 42.7487 59.25 42.6203 59.25 42.4906V1.01558C59.25 0.885895 59.2245 0.757483 59.1748 0.637672C59.1252 0.517862 59.0525 0.408999 58.9608 0.3173C58.8691 0.225601 58.7602 0.152863 58.6404 0.103238C58.5206 0.0536123 58.3922 0.0280724 58.2625 0.0280762V0.0280762ZM24.2008 43.9092L23.6808 41.3094C23.6554 41.1823 23.6052 41.0613 23.533 40.9536C23.4609 40.8458 23.3682 40.7533 23.2603 40.6814C23.1524 40.6094 23.0314 40.5595 22.9042 40.5343C22.7769 40.5091 22.646 40.5093 22.5188 40.5347L19.9191 41.0547L23.5217 35.6507C24.6414 37.0144 26.1849 37.9646 27.9068 38.3502L24.2008 43.9092ZM29.625 36.5656C28.4531 36.5656 27.3076 36.2181 26.3332 35.567C25.3589 34.916 24.5995 33.9906 24.151 32.908C23.7026 31.8253 23.5852 30.634 23.8138 29.4847C24.0425 28.3353 24.6068 27.2796 25.4354 26.451C26.264 25.6223 27.3198 25.058 28.4691 24.8294C29.6184 24.6008 30.8097 24.7181 31.8924 25.1666C32.9751 25.615 33.9004 26.3745 34.5515 27.3488C35.2025 28.3232 35.55 29.4687 35.55 30.6406C35.5482 32.2114 34.9234 33.7175 33.8126 34.8282C32.7019 35.939 31.1959 36.5638 29.625 36.5656V36.5656ZM28.1785 41.5031L29.625 39.3333L31.0715 41.5031H28.1785ZM35.5692 41.3094L35.0492 43.9092L31.3432 38.3502C33.0651 37.9646 34.6086 37.0145 35.7283 35.6507L39.3309 41.0547L36.7312 40.5347C36.4743 40.4834 36.2077 40.5362 35.9897 40.6815C35.7718 40.8267 35.6206 41.0526 35.5692 41.3094H35.5692ZM57.275 41.5031H42.0035L39.3701 37.5531H52.3375C52.4672 37.5531 52.5956 37.5275 52.7154 37.4779C52.8352 37.4283 52.9441 37.3556 53.0358 37.2639C53.1275 37.1722 53.2002 37.0633 53.2498 36.9435C53.2995 36.8237 53.325 36.6953 53.325 36.5656V6.94058C53.325 6.8109 53.2995 6.68248 53.2498 6.56267C53.2002 6.44286 53.1275 6.334 53.0358 6.2423C52.9441 6.1506 52.8352 6.07786 52.7154 6.02824C52.5956 5.97861 52.4672 5.95307 52.3375 5.95308H46.4125V7.92808H51.35V35.5781H38.0535L36.8654 33.796C37.0332 33.4141 37.1701 33.0193 37.275 32.6156H44.4375V30.6406H37.525C37.525 28.5454 36.6927 26.536 35.2111 25.0544C33.7296 23.5729 31.7202 22.7406 29.625 22.7406C27.5298 22.7406 25.5204 23.5729 24.0389 25.0544C22.5573 26.536 21.725 28.5454 21.725 30.6406H14.8125V32.6156H21.975C22.0799 33.0193 22.2168 33.4141 22.3846 33.796L21.1965 35.5781H7.9V7.92808H12.8375V5.95308H6.9125C6.78282 5.95307 6.65441 5.97861 6.5346 6.02824C6.41479 6.07786 6.30592 6.1506 6.21422 6.2423C6.12253 6.334 6.04979 6.44286 6.00016 6.56267C5.95054 6.68248 5.925 6.8109 5.925 6.94058V36.5656C5.925 36.6953 5.95054 36.8237 6.00016 36.9435C6.04979 37.0633 6.12253 37.1722 6.21422 37.2639C6.30592 37.3556 6.41479 37.4283 6.5346 37.4779C6.65441 37.5275 6.78282 37.5531 6.9125 37.5531H19.8799L17.2465 41.5031H1.975V2.00308H57.275V41.5031Z" fill="#333333"/>
<path d="M36.5375 17.803H42.4625V19.778H36.5375V17.803Z" fill="#D33234"/>
<path d="M24.6875 17.803H34.5625V19.778H24.6875V17.803Z" fill="#D33234"/>
<path d="M16.7875 17.803H22.7125V19.778H16.7875V17.803Z" fill="#D33234"/>
<path d="M18.7625 12.8655C18.7625 13.0289 18.8031 13.1898 18.8806 13.3337C18.958 13.4776 19.07 13.6 19.2064 13.6899C19.3429 13.7799 19.4995 13.8346 19.6622 13.8491C19.825 13.8636 19.9888 13.8375 20.139 13.7732L24.3285 11.9777C26.0022 11.2604 27.8041 10.8905 29.625 10.8905C31.4459 10.8905 33.2478 11.2604 34.9215 11.9777L39.111 13.7732C39.2612 13.8375 39.4251 13.8636 39.5878 13.8491C39.7506 13.8346 39.9072 13.7799 40.0436 13.6899C40.1801 13.6 40.292 13.4776 40.3695 13.3337C40.447 13.1898 40.4875 13.0289 40.4875 12.8655V7.92803H44.4375V5.95303H37.758L37.5496 5.84882C35.0891 4.61853 32.376 3.97803 29.625 3.97803C26.8741 3.97803 24.1609 4.61853 21.7004 5.84882L21.492 5.95303H14.8125V7.92803H18.7625V12.8655ZM29.625 5.95303C32.069 5.95594 34.4791 6.52489 36.6664 7.61527L38.5125 8.53834V11.3679L35.6995 10.1624C33.78 9.33972 31.7134 8.91553 29.625 8.91553C27.5367 8.91553 25.4701 9.33972 23.5506 10.1624L20.7375 11.3679V8.53834L22.5837 7.61528C24.7709 6.52489 27.181 5.95594 29.625 5.95303V5.95303Z" fill="#D33234"/>
<path d="M26.6625 13.853H32.5875V15.828H26.6625V13.853Z" fill="#D33234"/>
<path d="M30.1188 29.6531H29.1313C28.8694 29.6531 28.6182 29.7571 28.433 29.9423C28.2478 30.1275 28.1438 30.3787 28.1438 30.6406C28.1438 30.9025 28.2478 31.1537 28.433 31.3388C28.6182 31.524 28.8694 31.6281 29.1313 31.6281H30.1188C30.3807 31.6281 30.6319 31.524 30.8171 31.3388C31.0023 31.1537 31.1063 30.9025 31.1063 30.6406C31.1063 30.3787 31.0023 30.1275 30.8171 29.9423C30.6319 29.7571 30.3807 29.6531 30.1188 29.6531Z" fill="#D33234"/>
<path d="M46.4126 30.6406H48.3876V32.6156H46.4126V30.6406Z" fill="#D33234"/>
<path d="M10.8625 30.6406H12.8375V32.6156H10.8625V30.6406Z" fill="#D33234"/>
</svg>
