<svg width="58" height="59" viewBox="0 0 58 59" fill="none" xmlns="http://www.w3.org/2000/svg">
<path d="M3.87109 53.1606H53.1289C54.7121 53.1606 56 51.8728 56 50.2896V16.688C56 16.1594 55.5716 15.731 55.043 15.731H45.3438C45.3438 10.4538 41.0506 6.16064 35.7734 6.16064C30.4851 6.16064 26.2031 10.4385 26.2031 15.731H15.9297C15.4011 15.731 14.9727 16.1594 14.9727 16.688V25.7896H1.95703C1.42842 25.7896 1 26.218 1 26.7466V50.2896C1 51.8728 2.28788 53.1606 3.87109 53.1606ZM2.91406 50.2896V46.8442H25.1172V50.2896C25.1172 50.8174 24.688 51.2466 24.1602 51.2466H3.87109C3.34323 51.2466 2.91406 50.8174 2.91406 50.2896ZM53.1289 51.2466H26.8668C26.9729 50.9471 27.0312 50.6253 27.0312 50.2896V46.8442H54.0859V50.2896C54.0859 50.8174 53.6568 51.2466 53.1289 51.2466ZM35.7734 8.07471C39.9952 8.07471 43.4297 11.5092 43.4297 15.731H28.1172C28.1172 11.4998 31.5397 8.07471 35.7734 8.07471ZM16.8867 17.645H26.2031V22.0474H25.2461C24.7175 22.0474 24.2891 22.4758 24.2891 23.0044C24.2891 23.533 24.7175 23.9614 25.2461 23.9614H29.0742C29.6028 23.9614 30.0312 23.533 30.0312 23.0044C30.0312 22.4758 29.6028 22.0474 29.0742 22.0474H28.1172V17.645H43.4297V22.0474H42.4727C41.944 22.0474 41.5156 22.4758 41.5156 23.0044C41.5156 23.533 41.944 23.9614 42.4727 23.9614H46.3008C46.8294 23.9614 47.2578 23.533 47.2578 23.0044C47.2578 22.4758 46.8294 22.0474 46.3008 22.0474H45.3438V17.645H54.0859V44.9302H27.0312V26.7466C27.0312 26.218 26.6028 25.7896 26.0742 25.7896H16.8867V17.645ZM25.1172 27.7036V44.9302H2.91406V27.7036H25.1172Z" fill="#333333"/>
<path d="M51.957 39.6021C51.957 40.1303 51.5282 40.5591 51 40.5591C50.4718 40.5591 50.043 40.1303 50.043 39.6021C50.043 39.0738 50.4718 38.645 51 38.645C51.5282 38.645 51.957 39.0738 51.957 39.6021Z" fill="#D33234"/>
<path d="M9.31641 33.4458V35.3599C9.31641 38.5323 11.8862 41.1021 15.0586 41.1021C18.225 41.1021 20.8008 38.5263 20.8008 35.3599V33.4458C21.3294 33.4458 21.7578 33.0174 21.7578 32.4888C21.7578 31.9602 21.3294 31.5317 20.8008 31.5317H18.8867C18.3581 31.5317 17.9297 31.9602 17.9297 32.4888C17.9297 33.0174 18.3581 33.4458 18.8867 33.4458V35.3599C18.8867 37.4706 17.1693 39.188 15.0586 39.188C12.9442 39.188 11.2305 37.4743 11.2305 35.3599V33.4458C11.7591 33.4458 12.1875 33.0174 12.1875 32.4888C12.1875 31.9602 11.7591 31.5317 11.2305 31.5317H9.31641C8.7878 31.5317 8.35938 31.9602 8.35938 32.4888C8.35938 33.0174 8.7878 33.4458 9.31641 33.4458Z" fill="#D33234"/>
<path d="M51.957 35.7739C51.957 36.3025 51.5286 36.731 51 36.731C50.4714 36.731 50.043 36.3025 50.043 35.7739V28.1177C50.043 27.5891 50.4714 27.1606 51 27.1606C51.5286 27.1606 51.957 27.5891 51.957 28.1177V35.7739Z" fill="#D33234"/>
</svg>
