<svg width="69" height="58" viewBox="0 0 69 58" fill="none" xmlns="http://www.w3.org/2000/svg">
<path d="M53.3558 33.8332H55.6263C56.3074 33.8332 56.7614 33.4465 56.7614 32.8665C56.7614 32.2865 56.3074 31.8999 55.6263 31.8999H53.3558C52.6747 31.8999 52.2207 32.2865 52.2207 32.8665C52.2207 33.4465 52.6747 33.8332 53.3558 33.8332Z" fill="#333333"/>
<path d="M53.3558 43.4999H55.6263C56.3074 43.4999 56.7614 43.1133 56.7614 42.5333C56.7614 41.9533 56.3074 41.5667 55.6263 41.5667H53.3558C52.6747 41.5667 52.2207 41.9533 52.2207 42.5333C52.2207 43.1133 52.6747 43.4999 53.3558 43.4999Z" fill="#333333"/>
<path d="M53.3558 53.1667H55.6263C56.3074 53.1667 56.7614 52.78 56.7614 52.2C56.7614 51.62 56.3074 51.2334 55.6263 51.2334H53.3558C52.6747 51.2334 52.2207 51.62 52.2207 52.2C52.2206 52.78 52.6747 53.1667 53.3558 53.1667Z" fill="#333333"/>
<path d="M66.9764 23.1033H61.3004V13.5333C61.3004 12.9533 60.8463 12.5667 60.1652 12.5667H56.7596V9.66672C56.7596 9.08673 56.3056 8.7001 55.6245 8.7001H51.0836C50.4025 8.7001 49.9485 9.08673 49.9485 9.66672V10.6334H46.5429C45.8618 10.6334 45.4078 11.02 45.4078 11.6V23.1033H30.5367V22.5233C30.5367 21.2667 29.4016 20.3 27.9257 20.3H27.2446V19.3333H38.5965C39.8452 19.3333 40.8669 18.4633 40.8669 17.4V14.5V1.93337C40.8669 0.869998 39.8452 0 38.5965 0H9.08158C7.83282 0 6.81115 0.869998 6.81115 1.93337V14.5V17.4C6.81115 18.4633 7.83282 19.3333 9.08158 19.3333H20.4335V20.3H19.6389C18.1632 20.3 17.0279 21.2666 17.0279 22.5233V23.1033H1.24876C0.56764 23.1033 0 23.5867 0 24.1667V27.9367C0 28.5167 0.56764 29.0001 1.24876 29.0001H2.27043V57.0334C2.27043 57.6134 2.72446 58 3.40558 58H7.9463C8.62741 58 9.08145 57.6134 9.08145 57.0334V29.0001H43.1372V37.7V47.3667V57.0333C43.1372 57.6133 43.5912 57.9999 44.2724 57.9999H64.7058C65.3869 57.9999 65.841 57.6133 65.841 57.0333V47.3667V37.7V29.0001H66.8626C67.5437 29.0001 68.1114 28.5167 68.2249 27.9367V24.1667C68.225 23.5867 67.6575 23.1033 66.9764 23.1033ZM59.0299 14.5001V23.1034H56.7595V14.5001H59.0299ZM52.2188 10.6334H54.4892V13.5333V23.1033H52.2188V11.6001V10.6334ZM47.6781 12.5667H49.9485V23.1033H47.6781V12.5667ZM38.5965 1.93337V13.5333H9.08158V1.93337H38.5965ZM9.08158 15.4667H38.5966V17.4001H26.1095H21.5687H9.08158V15.4667ZM22.7039 19.3333H24.9743V20.3H22.7039V19.3333ZM19.4118 22.5233C19.4118 22.33 19.5253 22.2333 19.7523 22.2333H21.5686H26.1093H28.0392C28.2663 22.2333 28.3798 22.33 28.3798 22.5233V23.1033H19.4118V22.5233ZM6.81115 56.0666H4.54072V29.0001H6.81115V56.0666ZM63.5708 46.4H45.4076V38.6667H63.5707V46.4H63.5708ZM63.5708 56.0666H45.4076V48.3333H63.5707V56.0666H63.5708ZM63.5708 36.7333H45.4076V28.9999H63.5707V36.7333H63.5708ZM65.8411 27.0667H64.7059H44.2725H7.9463H3.40558H2.27043V25.1333H18.1632H29.515H46.5429H51.0836H55.6244H60.1651H65.8411V27.0667Z" fill="#333333"/>
<path d="M11.3539 9.76665C11.6944 9.76665 11.9215 9.67002 12.1485 9.47665L14.4189 7.54328C14.8729 7.15666 14.8729 6.57666 14.4189 6.18992C13.9648 5.80317 13.2837 5.80329 12.8296 6.18992L10.5593 8.12328C10.1052 8.50991 10.1052 9.08991 10.5593 9.47665C10.7864 9.67002 11.0133 9.76665 11.3539 9.76665Z" fill="#D33234"/>
<path d="M11.6921 13.3434C11.9192 13.5368 12.1461 13.6334 12.4867 13.6334C12.8272 13.6334 13.0543 13.5368 13.2813 13.3434L18.9573 8.51008C19.4113 8.12345 19.4113 7.54345 18.9573 7.15671C18.5032 6.76997 17.8221 6.77008 17.368 7.15671L11.6921 11.9902C11.2381 12.3768 11.2381 12.9568 11.6921 13.3434Z" fill="#D33234"/>
</svg>
