<svg width="74" height="54" viewBox="0 0 74 54" fill="none" xmlns="http://www.w3.org/2000/svg">
<path d="M68.799 0H5.20097C2.33347 0 0 2.322 0 5.17541V6.13636V18.4091V48.8246C0 51.678 2.33347 54 5.20097 54H68.799C71.6665 54 74 51.678 74 48.8246V18.4091V6.13636V5.17541C74 2.322 71.6665 0 68.799 0ZM3.7 9.81818C4.3808 9.81818 4.93333 9.26836 4.93333 8.59091H9.86667C9.86667 9.26836 10.4192 9.81818 11.1 9.81818C11.7808 9.81818 12.3333 9.26836 12.3333 8.59091H17.2667C17.2667 9.26836 17.8192 9.81818 18.5 9.81818C19.1808 9.81818 19.7333 9.26836 19.7333 8.59091H24.6667C24.6667 9.26836 25.2192 9.81818 25.9 9.81818C26.5808 9.81818 27.1333 9.26836 27.1333 8.59091H32.0667C32.0667 9.26836 32.6192 9.81818 33.3 9.81818C33.9808 9.81818 34.5333 9.26836 34.5333 8.59091H39.4667C39.4667 9.26836 40.0192 9.81818 40.7 9.81818C41.3808 9.81818 41.9333 9.26836 41.9333 8.59091H46.8667C46.8667 9.26836 47.4192 9.81818 48.1 9.81818C48.7808 9.81818 49.3333 9.26836 49.3333 8.59091H54.2667C54.2667 9.26836 54.8192 9.81818 55.5 9.81818C56.1808 9.81818 56.7333 9.26836 56.7333 8.59091H61.6667C61.6667 9.26836 62.2192 9.81818 62.9 9.81818C63.5808 9.81818 64.1333 9.26836 64.1333 8.59091H69.0667C69.0667 9.26836 69.6192 9.81818 70.3 9.81818C70.9808 9.81818 71.5333 9.26836 71.5333 8.59091V15.9545C71.5333 15.2771 70.9808 14.7273 70.3 14.7273C69.6192 14.7273 69.0667 15.2771 69.0667 15.9545H64.1333C64.1333 15.2771 63.5808 14.7273 62.9 14.7273C62.2192 14.7273 61.6667 15.2771 61.6667 15.9545H56.7333C56.7333 15.2771 56.1808 14.7273 55.5 14.7273C54.8192 14.7273 54.2667 15.2771 54.2667 15.9545H49.3333C49.3333 15.2771 48.7808 14.7273 48.1 14.7273C47.4192 14.7273 46.8667 15.2771 46.8667 15.9545H41.9333C41.9333 15.2771 41.3808 14.7273 40.7 14.7273C40.0192 14.7273 39.4667 15.2771 39.4667 15.9545H34.5333C34.5333 15.2771 33.9808 14.7273 33.3 14.7273C32.6192 14.7273 32.0667 15.2771 32.0667 15.9545H27.1333C27.1333 15.2771 26.5808 14.7273 25.9 14.7273C25.2192 14.7273 24.6667 15.2771 24.6667 15.9545H19.7333C19.7333 15.2771 19.1808 14.7273 18.5 14.7273C17.8192 14.7273 17.2667 15.2771 17.2667 15.9545H12.3333C12.3333 15.2771 11.7808 14.7273 11.1 14.7273C10.4192 14.7273 9.86667 15.2771 9.86667 15.9545H4.93333C4.93333 15.2771 4.3808 14.7273 3.7 14.7273C3.0192 14.7273 2.46667 15.2771 2.46667 15.9545V8.59091C2.46667 9.26836 3.0192 9.81818 3.7 9.81818ZM71.5333 48.8246C71.5333 50.3243 70.3074 51.5455 68.799 51.5455H5.20097C3.69383 51.5455 2.46667 50.3243 2.46667 48.8246V18.4091H71.5333V48.8246ZM2.46667 6.13636V5.17541C2.46667 3.67568 3.69383 2.45455 5.20097 2.45455H68.799C70.3074 2.45455 71.5333 3.67568 71.5333 5.17541V6.13636H2.46667Z" fill="#333333"/>
<path d="M8.63372 25.7728H19.7337C20.4145 25.7728 20.9671 25.223 20.9671 24.5455C20.9671 23.8681 20.4145 23.3182 19.7337 23.3182H8.63372C7.95292 23.3182 7.40039 23.8681 7.40039 24.5455C7.40039 25.223 7.95292 25.7728 8.63372 25.7728Z" fill="#D33234"/>
<path d="M24.6668 25.7727H35.7668C36.4476 25.7727 37.0001 25.2228 37.0001 24.5454C37.0001 23.8679 36.4476 23.3181 35.7668 23.3181H24.6668C23.986 23.3181 23.4335 23.8679 23.4335 24.5454C23.4335 25.2228 23.986 25.7727 24.6668 25.7727Z" fill="#D33234"/>
<path d="M8.63372 31.9091H9.86706C10.5479 31.9091 11.1004 31.3593 11.1004 30.6819C11.1004 30.0044 10.5479 29.4546 9.86706 29.4546H8.63372C7.95292 29.4546 7.40039 30.0044 7.40039 30.6819C7.40039 31.3593 7.95292 31.9091 8.63372 31.9091Z" fill="#D33234"/>
<path d="M17.2645 29.4546H14.7978C14.117 29.4546 13.5645 30.0044 13.5645 30.6819C13.5645 31.3593 14.117 31.9091 14.7978 31.9091H17.2645C17.9453 31.9091 18.4978 31.3593 18.4978 30.6819C18.4978 30.0044 17.9453 29.4546 17.2645 29.4546Z" fill="#D33234"/>
<path d="M22.2001 31.9091H23.4335C24.1143 31.9091 24.6668 31.3593 24.6668 30.6819C24.6668 30.0044 24.1143 29.4546 23.4335 29.4546H22.2001C21.5193 29.4546 20.9668 30.0044 20.9668 30.6819C20.9668 31.3593 21.5193 31.9091 22.2001 31.9091Z" fill="#D33234"/>
<path d="M30.8328 29.4546H28.3661C27.6853 29.4546 27.1328 30.0044 27.1328 30.6819C27.1328 31.3593 27.6853 31.9091 28.3661 31.9091H30.8328C31.5136 31.9091 32.0661 31.3593 32.0661 30.6819C32.0661 30.0044 31.5136 29.4546 30.8328 29.4546Z" fill="#D33234"/>
<path d="M34.8906 29.8105C34.6686 30.0437 34.533 30.3628 34.533 30.6819C34.533 31.0133 34.6686 31.3201 34.8906 31.5533C35.125 31.7742 35.4456 31.9092 35.7663 31.9092C36.087 31.9092 36.4076 31.7742 36.642 31.5533C36.864 31.3201 36.9996 31.001 36.9996 30.6819C36.9996 30.3628 36.864 30.0437 36.642 29.8105C36.1733 29.3564 35.347 29.3564 34.8906 29.8105Z" fill="#D33234"/>
<path d="M29.5986 13.5001C30.2797 13.5001 30.8319 12.9506 30.8319 12.2728C30.8319 11.595 30.2797 11.0455 29.5986 11.0455C28.9174 11.0455 28.3652 11.595 28.3652 12.2728C28.3652 12.9506 28.9174 13.5001 29.5986 13.5001Z" fill="#333333"/>
<path d="M37.0009 13.5C37.6821 13.5 38.2342 12.9505 38.2342 12.2727C38.2342 11.5949 37.6821 11.0454 37.0009 11.0454C36.3198 11.0454 35.7676 11.5949 35.7676 12.2727C35.7676 12.9505 36.3198 13.5 37.0009 13.5Z" fill="#333333"/>
<path d="M22.2001 13.5001C22.8813 13.5001 23.4335 12.9506 23.4335 12.2728C23.4335 11.595 22.8813 11.0455 22.2001 11.0455C21.519 11.0455 20.9668 11.595 20.9668 12.2728C20.9668 12.9506 21.519 13.5001 22.2001 13.5001Z" fill="#333333"/>
<path d="M7.4013 13.5001C8.08245 13.5001 8.63464 12.9506 8.63464 12.2728C8.63464 11.595 8.08245 11.0455 7.4013 11.0455C6.72015 11.0455 6.16797 11.595 6.16797 12.2728C6.16797 12.9506 6.72015 13.5001 7.4013 13.5001Z" fill="#333333"/>
<path d="M14.7978 13.5001C15.4789 13.5001 16.0311 12.9506 16.0311 12.2728C16.0311 11.595 15.4789 11.0455 14.7978 11.0455C14.1166 11.0455 13.5645 11.595 13.5645 12.2728C13.5645 12.9506 14.1166 13.5001 14.7978 13.5001Z" fill="#333333"/>
<path d="M66.5986 13.5001C67.2797 13.5001 67.8319 12.9506 67.8319 12.2728C67.8319 11.595 67.2797 11.0455 66.5986 11.0455C65.9174 11.0455 65.3652 11.595 65.3652 12.2728C65.3652 12.9506 65.9174 13.5001 66.5986 13.5001Z" fill="#333333"/>
<path d="M59.1999 13.5C59.881 13.5 60.4332 12.9505 60.4332 12.2727C60.4332 11.5949 59.881 11.0454 59.1999 11.0454C58.5187 11.0454 57.9666 11.5949 57.9666 12.2727C57.9666 12.9505 58.5187 13.5 59.1999 13.5Z" fill="#333333"/>
<path d="M44.4013 13.5001C45.0825 13.5001 45.6346 12.9506 45.6346 12.2728C45.6346 11.595 45.0825 11.0455 44.4013 11.0455C43.7202 11.0455 43.168 11.595 43.168 12.2728C43.168 12.9506 43.7202 13.5001 44.4013 13.5001Z" fill="#333333"/>
<path d="M51.7978 13.5001C52.4789 13.5001 53.0311 12.9506 53.0311 12.2728C53.0311 11.595 52.4789 11.0455 51.7978 11.0455C51.1166 11.0455 50.5645 11.595 50.5645 12.2728C50.5645 12.9506 51.1166 13.5001 51.7978 13.5001Z" fill="#333333"/>
<path d="M50.5689 47.8636C52.1426 47.8636 53.614 47.4353 54.8855 46.7014C56.1571 47.4353 57.6285 47.8636 59.2022 47.8636C63.9616 47.8636 67.8355 44.0099 67.8355 39.2727C67.8355 34.5354 63.9616 30.6818 59.2022 30.6818C57.6285 30.6818 56.1571 31.1101 54.8855 31.844C53.614 31.1101 52.1426 30.6818 50.5689 30.6818C45.8082 30.6818 41.9355 34.5354 41.9355 39.2727C41.9355 44.0099 45.8082 47.8636 50.5689 47.8636ZM53.0355 39.2727C53.0355 37.5619 53.7459 36.0155 54.8855 34.9011C56.0251 36.0155 56.7355 37.5619 56.7355 39.2727C56.7355 40.9835 56.0251 42.5299 54.8855 43.6442C53.7459 42.5299 53.0355 40.9835 53.0355 39.2727ZM65.3689 39.2727C65.3689 42.6563 62.6025 45.409 59.2022 45.409C58.424 45.409 57.6852 45.2495 56.9982 44.9856C58.3635 43.4663 59.2022 41.467 59.2022 39.2727C59.2022 37.0783 58.3635 35.0791 56.9982 33.5597C57.6852 33.2959 58.424 33.1363 59.2022 33.1363C62.6025 33.1363 65.3689 35.8891 65.3689 39.2727ZM50.5689 33.1363C51.3471 33.1363 52.0859 33.2959 52.7728 33.5597C51.4075 35.0791 50.5689 37.0783 50.5689 39.2727C50.5689 41.467 51.4075 43.4663 52.7728 44.9856C52.0859 45.2495 51.3471 45.409 50.5689 45.409C47.1686 45.409 44.4022 42.6563 44.4022 39.2727C44.4022 35.8891 47.1686 33.1363 50.5689 33.1363Z" fill="#333333"/>
</svg>
