<svg width="52" height="52" viewBox="0 0 52 52" fill="none" xmlns="http://www.w3.org/2000/svg">
<path d="M42.1393 45.2903L40.1977 39.4646C39.5192 37.4308 37.7881 35.9295 35.6779 35.5453L30.0728 34.5255V34.091C31.0482 33.5249 31.897 32.7675 32.573 31.871H34.2663C35.6535 31.871 36.7825 30.7421 36.7825 29.3548V19.2903C36.7825 13.2784 31.8911 8.38708 25.8792 8.38708C19.8674 8.38708 14.976 13.2784 14.976 19.2903V25.1613C14.976 26.7783 16.1259 28.1311 17.6506 28.4465C18.1212 30.857 19.6275 32.8967 21.6857 34.091V34.5255L16.0797 35.5453C13.9704 35.9295 12.2385 37.4308 11.5608 39.4646L11.2253 40.4719L8.36864 37.6153C8.04155 37.2882 8.04155 36.7556 8.36864 36.4285L11.6815 33.1164L5.46335 26.8982L1.71935 30.6422C0.610581 31.751 0 33.2255 0 34.7939C0 36.3622 0.610581 37.8359 1.71935 38.9446L13.0545 50.2798C14.1633 51.3886 15.6377 52 17.2061 52C18.7745 52 20.2481 51.3886 21.3309 50.305L25.4163 46.5618L24.1423 45.2903H42.1393ZM35.105 29.3548C35.105 29.8178 34.7285 30.1935 34.2663 30.1935H33.561C33.8042 29.6392 33.9887 29.0546 34.1078 28.4465C34.4668 28.3719 34.7972 28.2293 35.105 28.0498V29.3548ZM34.2663 26.6055V23.717C34.7654 24.0081 35.105 24.5431 35.105 25.1613C35.105 25.7794 34.7654 26.3145 34.2663 26.6055ZM17.4921 26.6055C16.9931 26.3145 16.6534 25.7794 16.6534 25.1613C16.6534 24.5431 16.9931 24.0081 17.4921 23.717V26.6055ZM17.4921 20.9677V21.9255C17.1935 22.0035 16.9134 22.121 16.6534 22.2728V19.2903C16.6534 14.2035 20.7924 10.0645 25.8792 10.0645C30.966 10.0645 35.105 14.2035 35.105 19.2903V22.2728C34.845 22.121 34.5649 22.0027 34.2663 21.9255V20.9677H33.4276C30.9475 20.9677 28.6159 20.0015 26.8614 18.2478L25.8792 17.2657L24.8971 18.2478C23.1425 20.0015 20.8109 20.9677 18.3308 20.9677H17.4921ZM19.1695 26.8387V22.6133C21.6882 22.4237 24.0366 21.3846 25.8792 19.6325C27.7219 21.3846 30.0703 22.4246 32.5889 22.6133V26.8387C32.5889 28.0615 32.2551 29.2055 31.6814 30.1935H25.8792V31.871H30.3026C29.12 32.9118 27.5743 33.5484 25.8792 33.5484C22.1797 33.5484 19.1695 30.5382 19.1695 26.8387ZM28.3954 34.8392V34.8786L25.8792 37.3947L23.3631 34.8786V34.8392C24.1582 35.0891 25.0028 35.2258 25.8792 35.2258C26.7557 35.2258 27.6003 35.0891 28.3954 34.8392ZM13.151 39.9947C13.6349 38.5421 14.872 37.4693 16.3792 37.1942L22.2417 36.1291L25.8792 39.7666L29.5159 36.1299L35.3776 37.1951C36.8848 37.4702 38.1219 38.5421 38.6058 39.9955L39.8127 43.6129H22.4648L19.1981 40.3461L15.5681 43.6297C15.2519 43.9475 14.6992 43.9475 14.3822 43.6297L12.5505 41.7979L13.151 39.9947ZM5.46252 29.2701L9.30884 33.1164L8.398 34.0273L4.55168 30.181L5.46252 29.2701ZM20.1693 49.0955C19.3775 49.8856 18.3241 50.3226 17.2045 50.3226C16.0848 50.3226 15.0314 49.8856 14.2388 49.0939L2.90361 37.7595C2.11187 36.9678 1.67574 35.9144 1.67574 34.7947C1.67574 33.6742 2.11187 32.6208 2.90361 31.829L3.3649 31.3677L7.21123 35.2141L7.18103 35.2442C6.20058 36.2255 6.20058 37.8216 7.18103 38.8029L13.1954 44.8173C13.671 45.292 14.3025 45.5545 14.9752 45.5545C15.6478 45.5545 16.2794 45.2928 16.7239 44.8466L16.7868 44.7904L20.6507 48.6544L20.1693 49.0955ZM21.8886 47.5188L18.0331 43.6632L19.141 42.6618L22.9899 46.5106L21.8886 47.5188Z" fill="#333333"/>
<path d="M49.3635 0H37.6216C36.2344 0 35.1055 1.1289 35.1055 2.51613V9.22581C35.1055 10.613 36.2344 11.7419 37.6216 11.7419H39.8618L38.9946 16.8002L47.0881 11.7419H49.3635C50.7508 11.7419 51.8797 10.613 51.8797 9.22581V2.51613C51.8797 1.1289 50.7508 0 49.3635 0ZM50.2022 9.22581C50.2022 9.68794 49.8257 10.0645 49.3635 10.0645H46.6067L41.28 13.3934L41.8512 10.0645H37.6216C37.1595 10.0645 36.7829 9.68794 36.7829 9.22581V2.51613C36.7829 2.054 37.1595 1.67742 37.6216 1.67742H49.3635C49.8257 1.67742 50.2022 2.054 50.2022 2.51613V9.22581Z" fill="#333333"/>
<path d="M48.5255 3.35486H38.4609V5.03228H48.5255V3.35486Z" fill="#D33234"/>
<path d="M45.1706 6.70972H38.4609V8.38714H45.1706V6.70972Z" fill="#D33234"/>
<path d="M48.5251 6.70972H46.8477V8.38714H48.5251V6.70972Z" fill="#D33234"/>
<path d="M25.8801 2.51611C14.9215 2.51611 5.48181 10.0964 3.02774 20.67L1.43839 18.0205L0 18.8835L2.94806 23.7959L7.86039 20.8478L6.99735 19.4094L4.72445 20.7731C7.10135 11.1003 15.7996 4.19353 25.8801 4.19353C28.0834 4.19353 30.2573 4.52063 32.3415 5.16644L32.838 3.5645C30.5928 2.86837 28.2519 2.51611 25.8801 2.51611Z" fill="#D33234"/>
<path d="M51.4719 18.5707L46.5596 15.6227L43.6123 20.5358L45.0507 21.3989L46.5185 18.9524C47.2909 21.2127 47.6859 23.577 47.6859 26C47.6859 30.9879 45.9582 35.8641 42.8223 39.7297L44.1248 40.7865C47.5031 36.6231 49.3634 31.3711 49.3634 26C49.3634 23.4344 48.9499 20.9292 48.1439 18.5305L50.6088 20.0091L51.4719 18.5707Z" fill="#D33234"/>
</svg>
