<svg width="47" height="53" viewBox="0 0 47 53" fill="none" xmlns="http://www.w3.org/2000/svg">
<path d="M46.4877 0.133484C46.1709 -0.0472973 45.7813 -0.0442505 45.4675 0.141406L26.8558 11.1471C26.3729 11.4326 26.213 12.0554 26.4985 12.5382C26.7838 13.021 27.4066 13.1809 27.8896 12.8955L41.2432 4.99914L16.3699 30.8075L3.9988 27.0227L20.1437 17.4758C20.6265 17.1902 20.7865 16.5674 20.501 16.0846C20.2156 15.6019 19.5927 15.4417 19.1099 15.7273L0.9831 26.4461C0.636772 26.6509 0.443905 27.0408 0.491537 27.4405C0.53917 27.8401 0.818163 28.1739 1.20288 28.2916L15.9771 32.8115L22.4951 44.6753C22.5019 44.6876 22.5089 44.698 22.5161 44.7072C22.6249 44.8886 22.7879 45.0368 22.9912 45.1223C23.1185 45.1758 23.2522 45.202 23.3851 45.202C23.6454 45.202 23.9016 45.1018 24.0951 44.9126L31.5898 37.5879L45.6873 41.9009C45.7848 41.9306 45.8848 41.9453 45.9844 41.9453C46.1993 41.9453 46.4115 41.8771 46.5884 41.7462C46.8473 41.5546 47.0001 41.2517 47.0001 40.9297V1.01566C47.0001 0.650945 46.8045 0.314164 46.4877 0.133484ZM22.5504 33.4375C22.4328 33.6074 22.3697 33.8091 22.3697 34.0158V40.2284L17.919 32.1273L37.6141 11.6919L22.5504 33.4375ZM24.401 41.7736V35.3887L29.3765 36.9109L24.401 41.7736ZM44.9688 39.5569L25.0119 33.4514L44.9688 4.64184V39.5569Z" fill="#333333"/>
<path d="M11.6993 35.3008C11.3026 34.9042 10.6597 34.9042 10.2629 35.3008L0.781826 44.7819C0.385225 45.1785 0.385225 45.8216 0.781826 46.2183C0.980279 46.4165 1.24018 46.5157 1.50008 46.5157C1.75997 46.5157 2.01987 46.4165 2.21822 46.2182L11.6993 36.7371C12.0959 36.3406 12.0959 35.6975 11.6993 35.3008Z" fill="#D33234"/>
<path d="M23.0697 48.2973C22.673 47.9009 22.0301 47.9009 21.6334 48.2974L19.2975 50.6333C18.9008 51.0299 18.9008 51.673 19.2975 52.0697C19.4958 52.268 19.7557 52.3671 20.0156 52.3671C20.2755 52.3671 20.5354 52.2679 20.7337 52.0696L23.0697 49.7337C23.4663 49.3371 23.4663 48.694 23.0697 48.2973Z" fill="#D33234"/>
<path d="M9.48748 50.2064C9.29867 50.0175 9.03664 49.9088 8.76953 49.9088C8.5013 49.9088 8.24039 50.0175 8.05148 50.2064C7.86258 50.3953 7.75391 50.6563 7.75391 50.9244C7.75391 51.1915 7.86248 51.4536 8.05148 51.6425C8.24039 51.8314 8.50242 51.9401 8.76953 51.9401C9.03664 51.9401 9.29867 51.8314 9.48748 51.6425C9.67638 51.4536 9.78516 51.1915 9.78516 50.9244C9.78516 50.6563 9.67648 50.3953 9.48748 50.2064Z" fill="#D33234"/>
<path d="M17.0427 42.6497C16.6463 42.2531 16.0034 42.2531 15.6064 42.6497L10.5846 47.6714C10.188 48.068 10.188 48.7111 10.5846 49.1077C10.7829 49.3061 11.0428 49.4052 11.3027 49.4052C11.5626 49.4052 11.8225 49.306 12.0209 49.1077L17.0427 44.086C17.4393 43.6894 17.4393 43.0463 17.0427 42.6497Z" fill="#D33234"/>
<path d="M34.3766 42.2641C33.9799 41.8676 33.337 41.8676 32.9403 42.2641L27.9049 47.2996C27.5083 47.6962 27.5083 48.3393 27.9049 48.736C28.1032 48.9342 28.3631 49.0334 28.623 49.0334C28.8829 49.0334 29.1428 48.9342 29.3412 48.736L34.3766 43.7005C34.7732 43.3039 34.7732 42.6608 34.3766 42.2641Z" fill="#D33234"/>
<path d="M23.7923 13.844C23.6034 13.6551 23.3413 13.5464 23.0742 13.5464C22.8071 13.5464 22.5451 13.6551 22.3562 13.844C22.1674 14.0329 22.0586 14.2949 22.0586 14.563C22.0586 14.8301 22.1673 15.0912 22.3562 15.2801C22.5451 15.47 22.8071 15.5776 23.0742 15.5776C23.3413 15.5776 23.6034 15.47 23.7923 15.2801C23.9811 15.0912 24.0898 14.8301 24.0898 14.563C24.0898 14.2949 23.9812 14.0329 23.7923 13.844Z" fill="#333333"/>
</svg>
