<svg width="52" height="52" viewBox="0 0 52 52" fill="none" xmlns="http://www.w3.org/2000/svg">
<path d="M17.0605 35.1639C19.2021 38.1833 21.3402 40.8839 22.7572 42.6232C22.9635 42.8763 23.1568 43.1112 23.3439 43.3373H19.0678C18.5892 43.3373 18.2012 43.7253 18.2012 44.204C18.2012 44.6826 18.5892 45.0706 19.0678 45.0706H32.9344C33.4131 45.0706 33.8011 44.6826 33.8011 44.204C33.8011 43.7253 33.4131 43.3373 32.9344 43.3373H28.6583C28.8455 43.1112 29.0388 42.8762 29.246 42.6232C30.6621 40.8899 32.7993 38.1833 34.9417 35.1639C37.0673 32.2282 38.9806 29.1445 40.6669 25.9365C42.4366 22.4611 43.3346 19.576 43.3346 17.3608C43.3405 12.7579 41.5139 8.3419 38.2584 5.08783C38.041 4.86236 37.7188 4.77177 37.4158 4.85088C37.1127 4.93 36.8759 5.16644 36.7963 5.4694C36.7168 5.77236 36.8069 6.09462 37.0321 6.31237C39.9624 9.24185 41.6064 13.2171 41.6012 17.3607C41.6012 19.3003 40.7675 21.9211 39.1225 25.1494C37.4743 28.2832 35.6044 31.2953 33.5273 34.1629C31.4144 37.1433 29.3023 39.8135 27.9027 41.5295C27.4373 42.0998 27.0187 42.6041 26.6616 43.0306C26.4949 43.2209 26.2542 43.33 26.0012 43.33C25.7482 43.33 25.5075 43.2208 25.3409 43.0306C24.9838 42.6043 24.5652 42.0998 24.0998 41.5295C22.7001 39.8144 20.588 37.1441 18.4751 34.1629C16.3981 31.2953 14.5282 28.2832 12.8799 25.1494C11.2333 21.9211 10.4013 19.3003 10.4013 17.3607C10.4008 11.0832 14.1549 5.41415 19.9347 2.96445C23.8182 1.33599 28.1932 1.33599 32.0767 2.96445C32.3619 3.08531 32.6899 3.04499 32.9372 2.85842C33.1845 2.67195 33.3135 2.36767 33.2756 2.06024C33.2377 1.75281 33.0387 1.48895 32.7535 1.36809C23.9279 -2.3544 13.7556 1.78064 10.0304 10.605C9.12696 12.7425 8.66363 15.0402 8.668 17.3607C8.668 19.5759 9.56592 22.4611 11.3357 25.9407C13.0218 29.1474 14.9351 32.2296 17.0605 35.1639Z" fill="#333333"/>
<path d="M25.9997 9.53723C26.4784 9.53723 26.8664 9.14926 26.8664 8.67059C26.8664 8.19193 26.4784 7.80396 25.9997 7.80396C21.8651 7.80385 18.3062 10.7246 17.4994 14.7798C16.6927 18.835 18.863 22.8953 22.6829 24.4776C26.5028 26.06 30.9085 24.7235 33.2056 21.2857C35.5028 17.8479 35.0515 13.2661 32.128 10.3424C31.9103 10.1172 31.5881 10.0268 31.2851 10.1061C30.9821 10.1854 30.7455 10.422 30.6662 10.725C30.5868 11.0281 30.6772 11.3502 30.9025 11.5679C33.2415 13.9068 33.6025 17.5721 31.765 20.3224C29.9274 23.0727 26.4029 24.142 23.3469 22.8763C20.291 21.6106 18.5547 18.3624 19.1998 15.1182C19.8449 11.874 22.692 9.53733 25.9997 9.53723Z" fill="#D33234"/>
<path d="M51.6737 47.299L46.3437 37.7656C45.8618 36.9186 44.96 36.398 43.9855 36.4041H37.8088C37.3301 36.4041 36.9421 36.792 36.9421 37.2707C36.9421 37.7494 37.3301 38.1373 37.8088 38.1373H43.9855C44.3325 38.1306 44.6561 38.3115 44.8322 38.6105L50.1605 48.1439C50.3057 48.3919 50.3026 48.6995 50.1527 48.9447C49.9757 49.2372 49.6556 49.4124 49.3138 49.4041H2.68701C2.34556 49.4122 2.02584 49.2369 1.84892 48.9447C1.69901 48.6995 1.69606 48.3919 1.8411 48.1439L7.16939 38.6105C7.34519 38.3116 7.66857 38.1307 8.0152 38.1373H14.192C14.6706 38.1373 15.0586 37.7494 15.0586 37.2707C15.0586 36.792 14.6706 36.4041 14.192 36.4041H8.0153C7.0403 36.3977 6.13781 36.9183 5.65539 37.7656L0.326185 47.299C-0.118152 48.0839 -0.107894 49.0467 0.353099 49.8219C0.838773 50.6474 1.72938 51.1494 2.68701 51.1376H49.3138C50.2711 51.1491 51.1614 50.6472 51.6469 49.8219C52.1079 49.0466 52.1182 48.0839 51.6737 47.299Z" fill="#D33234"/>
<path d="M42.4667 40.7374H39.0001C38.8289 40.7377 38.6617 40.7883 38.5191 40.8831L35.9191 42.6164C35.5208 42.8821 35.4134 43.4203 35.679 43.8185C35.9447 44.2168 36.4828 44.3242 36.8811 44.0586L39.2601 42.4709H42.4667C42.9454 42.4709 43.3334 42.0828 43.3334 41.6043C43.3334 41.1254 42.9454 40.7374 42.4667 40.7374Z" fill="#333333"/>
<path d="M37.2676 46.8041C37.2676 47.2827 37.6555 47.6707 38.1342 47.6707H45.0676C45.5463 47.6707 45.9342 47.2827 45.9342 46.8041C45.9342 46.3254 45.5463 45.9374 45.0676 45.9374H38.1342C37.6555 45.9374 37.2676 46.3254 37.2676 46.8041Z" fill="#333333"/>
<path d="M15.6013 44.2041C15.9833 44.2046 16.3206 43.9548 16.4316 43.5892C16.5426 43.2235 16.4011 42.8283 16.0832 42.6164L13.4832 40.883C13.3404 40.7881 13.1727 40.7375 13.0013 40.7374H9.53461C9.05594 40.7374 8.66797 41.1254 8.66797 41.604C8.66797 42.0827 9.05604 42.4706 9.53461 42.4706H12.7413L15.1229 44.0584C15.2646 44.153 15.431 44.2037 15.6013 44.2041Z" fill="#333333"/>
<path d="M6.935 45.9374C6.45633 45.9374 6.06836 46.3254 6.06836 46.8041C6.06836 47.2827 6.45633 47.6707 6.935 47.6707H13.8684C14.3471 47.6707 14.735 47.2827 14.735 46.8041C14.735 46.3254 14.3471 45.9374 13.8684 45.9374H6.935Z" fill="#333333"/>
</svg>
