<svg width="64" height="56" viewBox="0 0 64 56" fill="none" xmlns="http://www.w3.org/2000/svg">
<path d="M64 4.26667C64 1.9136 62.0864 0 59.7333 0H4.26667C1.9136 0 0 1.9136 0 4.26667C0 6.2496 1.36533 7.90507 3.2 8.38187V52.1749L6.4 48.9749L12.8 55.3749L19.2 48.9749L25.6 55.3749L32 48.9749L38.4 55.3749L44.8 48.9749L51.2 55.3749L57.6 48.9749L60.8 52.1749V8.38187C62.6347 7.90507 64 6.2496 64 4.26667ZM58.6667 47.0251L57.6 45.9584L51.2 52.3584L44.8 45.9584L38.4 52.3584L32 45.9584L25.6 52.3584L19.2 45.9584L12.8 52.3584L6.4 45.9584L5.33333 47.0251V8.53333V5.33333H58.6667V8.53333V47.0251ZM60.8 6.11307V3.2H3.2V6.11307C2.5632 5.74507 2.13333 5.05493 2.13333 4.26667C2.13333 3.09013 3.09013 2.13333 4.26667 2.13333H59.7333C60.9099 2.13333 61.8667 3.09013 61.8667 4.26667C61.8667 5.05493 61.4368 5.74507 60.8 6.11307Z" fill="#333333"/>
<path d="M52.2659 26.7334H36.2659C35.6771 26.7334 35.1992 27.2102 35.1992 27.8001C35.1992 28.3899 35.6771 28.8667 36.2659 28.8667H52.2659C52.8547 28.8667 53.3326 28.3899 53.3326 27.8001C53.3326 27.2102 52.8547 26.7334 52.2659 26.7334Z" fill="#D33234"/>
<path d="M52.2665 34.2H41.5999C41.0111 34.2 40.5332 34.6768 40.5332 35.2666C40.5332 35.8565 41.0111 36.3333 41.5999 36.3333H52.2665C52.8553 36.3333 53.3332 35.8565 53.3332 35.2666C53.3332 34.6768 52.8553 34.2 52.2665 34.2Z" fill="#D33234"/>
<path d="M29.8672 35.2666C29.8672 35.8565 30.3451 36.3333 30.9339 36.3333H33.0672C33.656 36.3333 34.1339 35.8565 34.1339 35.2666C34.1339 34.6768 33.656 34.2 33.0672 34.2H30.9339C30.3451 34.2 29.8672 34.6768 29.8672 35.2666Z" fill="#D33234"/>
<path d="M48.0005 20.3333C48.0005 19.7434 47.5227 19.2666 46.9339 19.2666H30.9339C30.3451 19.2666 29.8672 19.7434 29.8672 20.3333C29.8672 20.9231 30.3451 21.3999 30.9339 21.3999H46.9339C47.5227 21.3999 48.0005 20.9231 48.0005 20.3333Z" fill="#D33234"/>
<path d="M51.5086 19.576C51.3166 19.7776 51.1992 20.0443 51.1992 20.3334C51.1992 20.6107 51.3166 20.888 51.5086 21.0907C51.7112 21.2827 51.9886 21.4 52.2659 21.4C52.5539 21.4 52.8205 21.2827 53.0232 21.0907C53.2152 20.888 53.3326 20.6107 53.3326 20.3334C53.3326 20.056 53.2152 19.7776 53.0232 19.576C52.6285 19.1814 51.9032 19.1814 51.5086 19.576Z" fill="#333333"/>
<path d="M32.7576 28.5574C32.9496 28.3547 33.0669 28.088 33.0669 27.8C33.0669 27.511 32.9496 27.2443 32.7576 27.0427C32.3629 26.648 31.6483 26.648 31.2429 27.0427C31.0509 27.2443 30.9336 27.511 30.9336 27.8C30.9336 28.088 31.0509 28.3547 31.2429 28.5574C31.4456 28.7494 31.7229 28.8667 32.0003 28.8667C32.2776 28.8667 32.5549 28.7494 32.7576 28.5574Z" fill="#333333"/>
<path d="M38.0916 36.024C38.2836 35.8214 38.4009 35.5547 38.4009 35.2667C38.4009 34.9776 38.2836 34.7014 38.0916 34.5094C37.6969 34.1147 36.9822 34.1147 36.5769 34.5094C36.3849 34.711 36.2676 34.9894 36.2676 35.2667C36.2676 35.544 36.3849 35.8214 36.5769 36.024C36.7796 36.216 37.0569 36.3334 37.3342 36.3334C37.6116 36.3334 37.8889 36.216 38.0916 36.024Z" fill="#333333"/>
<path d="M42.6663 9.79996C43.2554 9.79996 43.7329 9.3224 43.7329 8.73329C43.7329 8.14419 43.2554 7.66663 42.6663 7.66663C42.0772 7.66663 41.5996 8.14419 41.5996 8.73329C41.5996 9.3224 42.0772 9.79996 42.6663 9.79996Z" fill="#D33234"/>
<path d="M38.4007 9.79996C38.9898 9.79996 39.4673 9.3224 39.4673 8.73329C39.4673 8.14419 38.9898 7.66663 38.4007 7.66663C37.8115 7.66663 37.334 8.14419 37.334 8.73329C37.334 9.3224 37.8115 9.79996 38.4007 9.79996Z" fill="#D33234"/>
<path d="M46.9339 9.79996C47.523 9.79996 48.0005 9.3224 48.0005 8.73329C48.0005 8.14419 47.523 7.66663 46.9339 7.66663C46.3448 7.66663 45.8672 8.14419 45.8672 8.73329C45.8672 9.3224 46.3448 9.79996 46.9339 9.79996Z" fill="#D33234"/>
<path d="M34.1331 9.79996C34.7222 9.79996 35.1997 9.3224 35.1997 8.73329C35.1997 8.14419 34.7222 7.66663 34.1331 7.66663C33.544 7.66663 33.0664 8.14419 33.0664 8.73329C33.0664 9.3224 33.544 9.79996 34.1331 9.79996Z" fill="#D33234"/>
<path d="M51.1995 9.79996C51.7886 9.79996 52.2661 9.3224 52.2661 8.73329C52.2661 8.14419 51.7886 7.66663 51.1995 7.66663C50.6104 7.66663 50.1328 8.14419 50.1328 8.73329C50.1328 9.3224 50.6104 9.79996 51.1995 9.79996Z" fill="#D33234"/>
<path d="M21.3342 9.79996C21.9233 9.79996 22.4009 9.3224 22.4009 8.73329C22.4009 8.14419 21.9233 7.66663 21.3342 7.66663C20.7451 7.66663 20.2676 8.14419 20.2676 8.73329C20.2676 9.3224 20.7451 9.79996 21.3342 9.79996Z" fill="#D33234"/>
<path d="M25.5999 9.79996C26.189 9.79996 26.6665 9.3224 26.6665 8.73329C26.6665 8.14419 26.189 7.66663 25.5999 7.66663C25.0108 7.66663 24.5332 8.14419 24.5332 8.73329C24.5332 9.3224 25.0108 9.79996 25.5999 9.79996Z" fill="#D33234"/>
<path d="M29.8674 9.79996C30.4566 9.79996 30.9341 9.3224 30.9341 8.73329C30.9341 8.14419 30.4566 7.66663 29.8674 7.66663C29.2783 7.66663 28.8008 8.14419 28.8008 8.73329C28.8008 9.3224 29.2783 9.79996 29.8674 9.79996Z" fill="#D33234"/>
<path d="M55.4671 9.79996C56.0562 9.79996 56.5337 9.3224 56.5337 8.73329C56.5337 8.14419 56.0562 7.66663 55.4671 7.66663C54.878 7.66663 54.4004 8.14419 54.4004 8.73329C54.4004 9.3224 54.878 9.79996 55.4671 9.79996Z" fill="#D33234"/>
<path d="M17.0667 9.79996C17.6558 9.79996 18.1333 9.3224 18.1333 8.73329C18.1333 8.14419 17.6558 7.66663 17.0667 7.66663C16.4776 7.66663 16 8.14419 16 8.73329C16 9.3224 16.4776 9.79996 17.0667 9.79996Z" fill="#D33234"/>
<path d="M12.7991 9.79996C13.3882 9.79996 13.8658 9.3224 13.8658 8.73329C13.8658 8.14419 13.3882 7.66663 12.7991 7.66663C12.21 7.66663 11.7324 8.14419 11.7324 8.73329C11.7324 9.3224 12.21 9.79996 12.7991 9.79996Z" fill="#D33234"/>
<path d="M8.53346 9.79996C9.12257 9.79996 9.60013 9.3224 9.60013 8.73329C9.60013 8.14419 9.12257 7.66663 8.53346 7.66663C7.94436 7.66663 7.4668 8.14419 7.4668 8.73329C7.4668 9.3224 7.94436 9.79996 8.53346 9.79996Z" fill="#D33234"/>
<path d="M18.6992 33.5088H14.4463V37H12.0215V33.5088H9.39355V31.5029H12.0215V29.7637H9.39355V27.7705H12.0215V18.5156H18.8389C20.8193 18.5156 22.3893 19.0192 23.5488 20.0264C24.7083 21.0335 25.2881 22.3962 25.2881 24.1143C25.2881 25.917 24.7295 27.3092 23.6123 28.291C22.5036 29.2643 20.9251 29.7552 18.877 29.7637H14.4463V31.5029H18.6992V33.5088ZM14.4463 27.7705H18.8389C20.1507 27.7705 21.1494 27.4616 21.835 26.8438C22.5205 26.2259 22.8633 25.3245 22.8633 24.1396C22.8633 23.0648 22.5078 22.1973 21.7969 21.5371C21.0859 20.8685 20.1253 20.5299 18.915 20.5215H14.4463V27.7705Z" fill="#333333"/>
</svg>
