<svg width="57" height="57" viewBox="0 0 57 57" fill="none" xmlns="http://www.w3.org/2000/svg">
<path d="M5.23337 11.6928C5.71027 11.4753 5.92022 10.9119 5.70172 10.4341C5.48322 9.95715 4.92082 9.7453 4.44297 9.9657C3.78462 10.2659 3.17187 10.6602 2.62372 11.1352C2.22757 11.4791 2.18482 12.0795 2.52777 12.4756C2.71587 12.6922 2.98092 12.8034 3.24597 12.8034C3.46637 12.8034 3.68867 12.7274 3.86822 12.5716C4.27957 12.2144 4.73842 11.9189 5.23337 11.6928Z" fill="#D33234"/>
<path d="M8.54985 11.1798H10.4499C10.9752 11.1798 11.3999 10.7551 11.3999 10.2298C11.3999 9.70444 10.9752 9.27979 10.4499 9.27979H8.54985C8.0245 9.27979 7.59985 9.70444 7.59985 10.2298C7.59985 10.7551 8.0245 11.1798 8.54985 11.1798Z" fill="#D33234"/>
<path d="M14.2503 11.1798H16.1503C16.6756 11.1798 17.1003 10.7551 17.1003 10.2298C17.1003 9.70444 16.6756 9.27979 16.1503 9.27979H14.2503C13.7249 9.27979 13.3003 9.70444 13.3003 10.2298C13.3003 10.7551 13.7249 11.1798 14.2503 11.1798Z" fill="#D33234"/>
<path d="M10.4499 22.5798H8.54985C8.0245 22.5798 7.59985 23.0045 7.59985 23.5298C7.59985 24.0552 8.0245 24.4798 8.54985 24.4798H10.4499C10.9752 24.4798 11.3999 24.0552 11.3999 23.5298C11.3999 23.0045 10.9752 22.5798 10.4499 22.5798Z" fill="#D33234"/>
<path d="M21.8506 22.5798H19.9506C19.4253 22.5798 19.0006 23.0045 19.0006 23.5298C19.0006 24.0552 19.4253 24.4798 19.9506 24.4798H21.8506C22.376 24.4798 22.8006 24.0552 22.8006 23.5298C22.8006 23.0045 22.376 22.5798 21.8506 22.5798Z" fill="#D33234"/>
<path d="M16.1503 22.5798H14.2503C13.7249 22.5798 13.3003 23.0045 13.3003 23.5298C13.3003 24.0552 13.7249 24.4798 14.2503 24.4798H16.1503C16.6756 24.4798 17.1003 24.0552 17.1003 23.5298C17.1003 23.0045 16.6756 22.5798 16.1503 22.5798Z" fill="#D33234"/>
<path d="M5.23242 22.0668C4.73842 21.8407 4.27957 21.5452 3.86822 21.188C3.47207 20.8451 2.87262 20.8878 2.52777 21.284C2.18482 21.6801 2.22757 22.2805 2.62372 22.6244C3.17187 23.0994 3.78367 23.4927 4.44202 23.7939C4.57027 23.8528 4.70422 23.8803 4.83627 23.8803C5.19727 23.8803 5.54117 23.6742 5.70077 23.3255C5.91832 22.8486 5.70932 22.2843 5.23242 22.0668Z" fill="#D33234"/>
<path d="M27.5492 22.5798H25.6492C25.1239 22.5798 24.6992 23.0045 24.6992 23.5298C24.6992 24.0552 25.1239 24.4798 25.6492 24.4798H27.5492C28.0746 24.4798 28.4992 24.0552 28.4992 23.5298C28.4992 23.0045 28.0746 22.5798 27.5492 22.5798Z" fill="#D33234"/>
<path d="M44.6502 22.5798H42.7502C42.2249 22.5798 41.8002 23.0045 41.8002 23.5298C41.8002 24.0552 42.2249 24.4798 42.7502 24.4798H44.6502C45.1756 24.4798 45.6002 24.0552 45.6002 23.5298C45.6002 23.0045 45.1756 22.5798 44.6502 22.5798Z" fill="#D33234"/>
<path d="M50.3506 22.5798H48.4506C47.9253 22.5798 47.5006 23.0045 47.5006 23.5298C47.5006 24.0552 47.9253 24.4798 48.4506 24.4798H50.3506C50.876 24.4798 51.3006 24.0552 51.3006 23.5298C51.3006 23.0045 50.876 22.5798 50.3506 22.5798Z" fill="#D33234"/>
<path d="M33.2495 22.5798H31.3495C30.8242 22.5798 30.3995 23.0045 30.3995 23.5298C30.3995 24.0552 30.8242 24.4798 31.3495 24.4798H33.2495C33.7749 24.4798 34.1995 24.0552 34.1995 23.5298C34.1995 23.0045 33.7749 22.5798 33.2495 22.5798Z" fill="#D33234"/>
<path d="M38.9499 22.5798H37.0499C36.5245 22.5798 36.0999 23.0045 36.0999 23.5298C36.0999 24.0552 36.5245 24.4798 37.0499 24.4798H38.9499C39.4752 24.4798 39.8999 24.0552 39.8999 23.5298C39.8999 23.0045 39.4752 22.5798 38.9499 22.5798Z" fill="#D33234"/>
<path d="M5.23242 50.5668C4.73842 50.3407 4.27957 50.0452 3.86822 49.688C3.47207 49.3451 2.87262 49.3878 2.52777 49.784C2.18482 50.1801 2.22757 50.7805 2.62372 51.1244C3.17187 51.5994 3.78367 51.9927 4.44202 52.2939C4.57027 52.3528 4.70422 52.3803 4.83627 52.3803C5.19727 52.3803 5.54117 52.1742 5.70077 51.8255C5.91832 51.3486 5.70932 50.7843 5.23242 50.5668Z" fill="#D33234"/>
<path d="M16.1503 51.0798H14.2503C13.7249 51.0798 13.3003 51.5045 13.3003 52.0298C13.3003 52.5552 13.7249 52.9798 14.2503 52.9798H16.1503C16.6756 52.9798 17.1003 52.5552 17.1003 52.0298C17.1003 51.5045 16.6756 51.0798 16.1503 51.0798Z" fill="#D33234"/>
<path d="M10.4499 51.0798H8.54985C8.0245 51.0798 7.59985 51.5045 7.59985 52.0298C7.59985 52.5552 8.0245 52.9798 8.54985 52.9798H10.4499C10.9752 52.9798 11.3999 52.5552 11.3999 52.0298C11.3999 51.5045 10.9752 51.0798 10.4499 51.0798Z" fill="#D33234"/>
<path d="M33.2495 51.0798H31.3495C30.8242 51.0798 30.3995 51.5045 30.3995 52.0298C30.3995 52.5552 30.8242 52.9798 31.3495 52.9798H33.2495C33.7749 52.9798 34.1995 52.5552 34.1995 52.0298C34.1995 51.5045 33.7749 51.0798 33.2495 51.0798Z" fill="#D33234"/>
<path d="M36.0999 52.0298C36.0999 52.5552 36.5245 52.9798 37.0499 52.9798H38.9499C39.4752 52.9798 39.8999 52.5552 39.8999 52.0298C39.8999 51.5045 39.4752 51.0798 38.9499 51.0798H37.0499C36.5245 51.0798 36.0999 51.5045 36.0999 52.0298Z" fill="#D33234"/>
<path d="M42.7502 52.9798H44.6502C45.1756 52.9798 45.6002 52.5552 45.6002 52.0298C45.6002 51.5045 45.1756 51.0798 44.6502 51.0798H42.7502C42.2249 51.0798 41.8002 51.5045 41.8002 52.0298C41.8002 52.5552 42.2249 52.9798 42.7502 52.9798Z" fill="#D33234"/>
<path d="M27.5492 51.0798H25.6492C25.1239 51.0798 24.6992 51.5045 24.6992 52.0298C24.6992 52.5552 25.1239 52.9798 25.6492 52.9798H27.5492C28.0746 52.9798 28.4992 52.5552 28.4992 52.0298C28.4992 51.5045 28.0746 51.0798 27.5492 51.0798Z" fill="#D33234"/>
<path d="M48.4506 52.9798H50.3506C50.876 52.9798 51.3006 52.5552 51.3006 52.0298C51.3006 51.5045 50.876 51.0798 50.3506 51.0798H48.4506C47.9253 51.0798 47.5006 51.5045 47.5006 52.0298C47.5006 52.5552 47.9253 52.9798 48.4506 52.9798Z" fill="#D33234"/>
<path d="M21.8506 51.0798H19.9506C19.4253 51.0798 19.0006 51.5045 19.0006 52.0298C19.0006 52.5552 19.4253 52.9798 19.9506 52.9798H21.8506C22.376 52.9798 22.8006 52.5552 22.8006 52.0298C22.8006 51.5045 22.376 51.0798 21.8506 51.0798Z" fill="#D33234"/>
<path d="M41.8002 36.8298C41.8002 38.9255 43.5045 40.6298 45.6002 40.6298C47.6959 40.6298 49.4002 38.9255 49.4002 36.8298C49.4002 34.7341 47.6959 33.0298 45.6002 33.0298C43.5045 33.0298 41.8002 34.7341 41.8002 36.8298ZM45.6002 34.9298C46.6481 34.9298 47.5002 35.7819 47.5002 36.8298C47.5002 37.8776 46.6481 38.7298 45.6002 38.7298C44.5524 38.7298 43.7002 37.8776 43.7002 36.8298C43.7002 35.7819 44.5524 34.9298 45.6002 34.9298Z" fill="#333333"/>
<path d="M40.7949 5.47984L35.6307 0.315638C35.2099 -0.105212 34.523 -0.105212 34.1021 0.315638L32.1585 2.25934L30.2148 0.315638C29.7939 -0.105212 29.107 -0.105212 28.6862 0.315638L23.522 5.47984H7.6C3.40955 5.47984 0 8.88939 0 13.0798V49.9854C0 53.7313 3.04855 56.7798 6.7944 56.7798H57V43.4798V30.1798V20.6798V18.7798V5.47984H40.7949ZM34.8669 2.23844L38.1083 5.47984L51.4083 18.7798H46.2868L35.5832 8.07524C35.1814 7.68479 34.5515 7.68574 34.1401 8.08569L23.4469 18.7798H18.3255L33.5027 3.60359L34.8669 2.23844ZM43.6012 18.7798H26.1336L34.8669 10.0465L43.6012 18.7798ZM29.45 2.23844L30.8151 3.60359L15.6389 18.7798H12.9086L26.2086 5.47984L29.45 2.23844ZM7.6 7.37984H21.622L19.664 9.33779C19.3762 9.43089 19.1558 9.65034 19.0627 9.93914L10.222 18.7798H7.6C4.45645 18.7798 1.9 16.2234 1.9 13.0798C1.9 9.93629 4.45645 7.37984 7.6 7.37984ZM55.1 41.5798H44.65C42.0308 41.5798 39.9 39.449 39.9 36.8298C39.9 34.2107 42.0308 32.0798 44.65 32.0798H55.1V41.5798ZM55.1 22.5798H54.15C53.6246 22.5798 53.2 23.0045 53.2 23.5298C53.2 24.0552 53.6246 24.4798 54.15 24.4798H55.1V30.1798H44.65C40.9839 30.1798 38 33.1638 38 36.8298C38 40.4959 40.9839 43.4798 44.65 43.4798H55.1V51.0798H54.15C53.6246 51.0798 53.2 51.5045 53.2 52.0298C53.2 52.5552 53.6246 52.9798 54.15 52.9798H55.1V54.8798H6.7944C4.0964 54.8798 1.9 52.6844 1.9 49.9854V47.8916C2.12135 47.6541 2.22775 47.3188 2.12895 46.9853C1.97695 46.4666 1.9 45.9261 1.9 45.3798V19.3916C2.12135 19.1541 2.22775 18.8188 2.12895 18.4853C2.1109 18.4236 2.10425 18.3599 2.0881 18.2982C2.1736 18.3884 2.26005 18.4768 2.34935 18.5623C2.43105 18.6411 2.5156 18.7162 2.6011 18.7912C2.7075 18.8843 2.8158 18.9746 2.92695 19.062C3.01625 19.1323 3.10745 19.1997 3.1996 19.2662C3.31455 19.3489 3.4333 19.4268 3.553 19.5028C3.64895 19.5636 3.7449 19.6225 3.8437 19.6795C3.9691 19.7507 4.09735 19.8172 4.22655 19.8818C4.3263 19.9322 4.42605 19.9825 4.52865 20.0281C4.6645 20.088 4.8032 20.1412 4.9419 20.1934C5.0445 20.2324 5.14615 20.2723 5.25065 20.3065C5.3998 20.3549 5.5518 20.3939 5.7038 20.4338C5.8045 20.4594 5.9033 20.4898 6.0059 20.5117C6.17785 20.5487 6.35265 20.5734 6.5284 20.5981C6.6158 20.6105 6.7013 20.6285 6.78965 20.638C7.05565 20.6665 7.32545 20.6827 7.5981 20.6827H11.2233H13.9099H16.6402H19.3268H24.035H45.6997H50.4051H53.0917H55.1V22.5798ZM54.0949 18.7798L46.4949 11.1798H46.55C47.0753 11.1798 47.5 10.7552 47.5 10.2298C47.5 9.70449 47.0753 9.27984 46.55 9.27984H44.65C44.6339 9.27984 44.6205 9.28839 44.6044 9.28934L42.6949 7.37984H55.1V18.7798H54.0949Z" fill="#333333"/>
<path d="M52.2501 9.27979H50.3501C49.8248 9.27979 49.4001 9.70444 49.4001 10.2298C49.4001 10.7551 49.8248 11.1798 50.3501 11.1798H52.2501C52.7755 11.1798 53.2001 10.7551 53.2001 10.2298C53.2001 9.70444 52.7755 9.27979 52.2501 9.27979Z" fill="#D33234"/>
</svg>
