<svg width="52" height="47" viewBox="0 0 52 47" fill="none" xmlns="http://www.w3.org/2000/svg">
<path d="M16.8594 5.07812C16.8594 5.6391 16.4047 6.09375 15.8438 6.09375C15.2828 6.09375 14.8281 5.6391 14.8281 5.07812C14.8281 4.51715 15.2828 4.0625 15.8438 4.0625C16.4047 4.0625 16.8594 4.51715 16.8594 5.07812Z" fill="#333333"/>
<path d="M12.7969 5.07812C12.7969 5.6391 12.3422 6.09375 11.7812 6.09375C11.2203 6.09375 10.7656 5.6391 10.7656 5.07812C10.7656 4.51715 11.2203 4.0625 11.7812 4.0625C12.3422 4.0625 12.7969 4.51715 12.7969 5.07812Z" fill="#333333"/>
<path d="M8.73438 5.07812C8.73438 5.6391 8.27972 6.09375 7.71875 6.09375C7.15778 6.09375 6.70312 5.6391 6.70312 5.07812C6.70312 4.51715 7.15778 4.0625 7.71875 4.0625C8.27972 4.0625 8.73438 4.51715 8.73438 5.07812Z" fill="#333333"/>
<path d="M39.1258 14.8456C38.9687 14.4663 38.5985 14.2188 38.1875 14.2188C37.2246 14.2188 17.4941 14.2188 15.8438 14.2188C15.2828 14.2188 14.8281 14.6734 14.8281 15.2344V38.5938H13.8125C13.2515 38.5938 12.7969 39.0484 12.7969 39.6094C12.7969 40.1703 13.2515 40.625 13.8125 40.625H21.9375C22.4985 40.625 22.9531 40.1703 22.9531 39.6094C22.9531 39.0484 22.4985 38.5938 21.9375 38.5938H20.9219V28.4375H38.1875C38.5985 28.4375 38.9687 28.1899 39.1258 27.8107C39.2829 27.431 39.196 26.9942 38.9056 26.7038L33.5303 21.3281L38.9056 15.9525C39.196 15.662 39.2829 15.2253 39.1258 14.8456ZM16.8594 38.5938V16.25H18.8906V38.5938H16.8594ZM31.3757 20.61C30.9789 21.0068 30.9789 21.6495 31.3757 22.0462L35.7353 26.4062H20.9219V16.25H35.7353L31.3757 20.61Z" fill="#D33234"/>
<path d="M27.0156 1.01562C27.0156 1.5766 26.561 2.03125 26 2.03125C25.439 2.03125 24.9844 1.5766 24.9844 1.01562C24.9844 0.454651 25.439 0 26 0C26.561 0 27.0156 0.454651 27.0156 1.01562Z" fill="#333333"/>
<path d="M48.9531 0H30.5703C30.0093 0 29.5547 0.454651 29.5547 1.01562C29.5547 1.5766 30.0093 2.03125 30.5703 2.03125H48.9531C49.5133 2.03125 49.9688 2.48669 49.9688 3.04688V8.125H2.03125V3.04688C2.03125 2.48669 2.48669 2.03125 3.04688 2.03125H21.4297C21.9907 2.03125 22.4453 1.5766 22.4453 1.01562C22.4453 0.454651 21.9907 0 21.4297 0H3.04688C1.36673 0 0 1.36673 0 3.04688V43.6719C0 45.352 1.36673 46.7188 3.04688 46.7188H48.9531C50.6333 46.7188 52 45.352 52 43.6719V3.04688C52 1.36673 50.6333 0 48.9531 0ZM48.9531 44.6875H3.04688C2.48669 44.6875 2.03125 44.2321 2.03125 43.6719V10.1562H49.9688V43.6719C49.9688 44.2321 49.5133 44.6875 48.9531 44.6875Z" fill="#333333"/>
</svg>
