<svg width="69" height="100" viewBox="0 0 69 100" fill="none" xmlns="http://www.w3.org/2000/svg">
<path d="M50.2225 59C49.4052 59 48.7419 59.672 48.7419 60.5C48.7419 61.328 49.4052 62 50.2225 62C51.0397 62 51.703 61.328 51.703 60.5C51.703 59.672 51.0397 59 50.2225 59Z" fill="#D33234"/>
<path d="M54.074 54.2592L47.0746 51.8958L44.5618 46.804C46.8255 44.4696 48.3973 41.3808 48.9273 38.1591L49.2407 36.256H51.9207C54.3568 36.256 56.3386 34.2481 56.3386 31.78V22.3803C56.3386 10.0398 46.4292 0 34.249 0C22.0376 0 12.1594 10.011 12.1594 22.3803V31.78C12.1594 33.725 13.3907 35.3835 15.1047 35.9994V37.748C15.1047 40.2161 17.0866 42.2241 19.5226 42.2241H20.8159C21.4543 43.6291 22.2806 44.9305 23.2861 46.0995C23.4946 46.3424 23.7121 46.5778 23.935 46.8068L21.4235 51.8958L14.4239 54.2593C6.28535 57.0088 0.378296 70.6892 0.378296 79.8993C0.378296 80.7233 1.0376 81.3913 1.85094 81.3913H66.6471C67.4603 81.3913 68.1198 80.7233 68.1198 79.8993C68.1198 70.6892 62.2129 57.0088 54.074 54.2592ZM53.3934 31.78C53.3934 32.6027 52.7327 33.272 51.9207 33.272H49.6732C50.0475 30.3342 50.297 27.208 50.3973 24.1289C50.4002 24.0421 50.4026 23.9576 50.4052 23.8723H53.3934V31.78ZM16.5773 33.272C15.7653 33.272 15.1047 32.6027 15.1047 31.78V23.8723H18.0939C18.0987 24.0279 18.1039 24.1843 18.1096 24.3417C18.1098 24.347 18.1101 24.3523 18.1102 24.3576V24.359C18.2133 27.3538 18.4595 30.3988 18.8253 33.2718L16.5773 33.272ZM19.5226 39.2401C18.7106 39.2401 18.05 38.5707 18.05 37.748V36.256H19.2573L19.5706 38.1597C19.6304 38.5215 19.7039 38.882 19.7889 39.2401H19.5226ZM18.0525 20.8882H15.1607C15.9066 10.8886 24.1433 2.98404 34.249 2.98404C44.3098 2.98404 52.5828 10.8876 53.3373 20.8882H50.4457C50.3397 12.6483 43.7168 5.96807 35.5672 5.96807H32.9312C24.7817 5.96807 18.1584 12.6483 18.0525 20.8882ZM32.931 8.95211H35.5671C42.1658 8.95211 47.5066 14.4205 47.5028 21.0986C47.5028 21.5682 47.4991 21.977 47.4913 22.3489C47.4913 22.3537 47.4912 22.3586 47.4912 22.3636L45.6492 22.0969C40.6452 21.373 35.9203 18.9795 32.3451 15.3572C32.0688 15.0774 31.6943 14.9202 31.3038 14.9202C27.3488 14.9202 23.563 16.7458 21.0604 19.8301C21.6771 13.7548 26.7464 8.95211 32.931 8.95211ZM22.842 39.2401C22.1048 36.7554 21.2612 29.4445 21.0748 24.7596L23.0568 22.082C24.8771 19.6238 27.7092 18.0964 30.7218 17.9211C34.6857 21.743 39.8137 24.2669 45.2327 25.0508L47.4007 25.3647C47.2558 28.4808 46.9597 31.6078 46.5354 34.4837L46.535 34.4866C46.4001 35.4112 46.2938 36.0063 46.0222 37.6682C45.2423 42.4076 41.7518 46.6934 37.1441 47.8606C35.2478 48.3403 33.25 48.3402 31.3547 47.8606C28.4776 47.1319 25.8395 45.115 24.137 42.2241H27.1391C27.747 43.9607 29.3839 45.2081 31.3038 45.2081H34.249C36.6899 45.2081 38.667 43.2052 38.667 40.7321C38.667 38.264 36.6851 36.256 34.249 36.256H31.3038C29.3412 36.256 27.7285 37.5404 27.1366 39.2401H22.842ZM31.1799 50.8802C32.19 51.0958 33.2198 51.206 34.249 51.206C35.0547 51.206 35.8605 51.1377 36.6572 51.0052L34.0551 53.7934L31.1799 50.8802ZM32.0305 55.9625L27.3596 60.967C26.0737 58.4732 24.9687 55.8779 24.0625 53.2209L25.8165 49.6666L32.0305 55.9625ZM42.4319 49.1611L44.4353 53.2207C43.5276 55.8822 42.4223 58.4784 41.1378 60.9692L36.1384 55.9041L42.4319 49.1611ZM29.8311 40.7321C29.8311 39.9083 30.4906 39.2401 31.3038 39.2401H34.249C35.0611 39.2401 35.7217 39.9094 35.7217 40.7321C35.7217 41.556 35.0621 42.2241 34.249 42.2241H31.3038C30.4917 42.2241 29.8311 41.5548 29.8311 40.7321ZM3.38248 78.4073C3.96609 71.016 8.82124 59.2977 15.3553 57.0901L21.5543 54.9971C24.4655 63.1531 28.0166 70.608 31.5968 78.4073H3.38248ZM34.249 77.0773C32.2384 72.8002 30.2137 68.6823 27.8751 64.7002L34.114 58.0732L40.6349 64.6799C38.2146 68.8035 36.8076 72.9199 34.249 77.0773ZM36.9013 78.4073C40.3749 70.8398 44.1393 62.8535 46.9438 54.9971L53.1426 57.0901C59.6768 59.2977 64.532 71.016 65.1156 78.4073H36.9013Z" fill="#333333"/>
<path d="M67.0017 87H1.95513C1.0843 87 0.378296 87.7153 0.378296 88.5976C0.378296 89.4799 1.0843 90.1952 1.95513 90.1952H67.0017C67.8725 90.1952 68.5785 89.4799 68.5785 88.5976C68.5785 87.7153 67.8725 87 67.0017 87Z" fill="#D33234"/>
<path d="M36.5006 96L16.7603 96C15.8895 96 15.1835 96.7153 15.1835 97.5976C15.1835 98.4799 15.8895 99.1952 16.7603 99.1952L36.5006 99.1952C37.3715 99.1952 38.0775 98.4799 38.0775 97.5976C38.0775 96.7153 37.3715 96 36.5006 96Z" fill="#D33234"/>
<path d="M52.1965 96L43.4097 96C42.5388 96 41.8328 96.7153 41.8328 97.5976C41.8328 98.4799 42.5388 99.1952 43.4097 99.1952L52.1965 99.1952C53.0673 99.1952 53.7733 98.4799 53.7733 97.5976C53.7733 96.7153 53.0673 96 52.1965 96Z" fill="#D33234"/>
<path d="M58.4746 67.7262C57.604 65.6243 56.3289 63.7569 54.787 62.3261C54.2167 61.7968 53.3989 61.9254 52.9603 62.6134C52.5215 63.3013 52.6282 64.2877 53.1984 64.8169C54.4299 65.9597 55.4483 67.4514 56.1438 69.1306C56.4659 69.9082 57.2488 70.2212 57.8913 69.8341C58.5348 69.4463 58.7959 68.5026 58.4746 67.7262Z" fill="#D33234"/>
</svg>
