<svg width="70" height="89" viewBox="0 0 70 89" fill="none" xmlns="http://www.w3.org/2000/svg">
<path d="M68.4943 38.6996L64.2376 31.3353C64.2323 31.3251 64.0589 31.0812 64.0589 31.0812C63.8775 30.8677 63.6434 30.6967 63.3672 30.5913C63.3652 30.5906 41.1589 23.0593 41.1589 23.0593V17.7939H43.9656C44.5919 17.7939 45.1675 17.4466 45.4663 16.8891C45.7651 16.3316 45.7391 15.6538 45.3982 15.1213L36.214 0.787926C35.8992 0.296655 35.3603 0 34.782 0C34.2031 0 33.6641 0.296655 33.3493 0.787926L24.1651 15.1213C23.8242 15.6538 23.7982 16.3316 24.097 16.8891C24.3958 17.4466 24.9714 17.7932 25.5971 17.7932H28.4037V23.0593C28.4037 23.0593 6.15806 30.6061 6.15339 30.6082C5.79256 30.7568 5.50709 31.019 5.32301 31.34L1.06904 38.6996C0.409398 39.8403 0.275336 41.2121 0.699532 42.4622C1.1244 43.7123 2.0635 44.7091 3.27606 45.197L5.0909 45.9275V73.9455C5.0909 76.0045 6.36949 77.875 8.27237 78.5994L34.181 88.4613C34.3745 88.535 34.5779 88.5721 34.782 88.5721C34.9854 88.5721 35.1888 88.535 35.3823 88.4613L61.2909 78.5994C63.1938 77.875 64.4724 76.0045 64.4724 73.9455V45.9281L66.2873 45.1976C67.4998 44.7091 68.4389 43.7123 68.8638 42.4622C69.288 41.2121 69.1539 39.841 68.4943 38.6996ZM34.782 4.90663L40.8221 14.3334H39.4522C38.509 14.3334 37.7447 15.1085 37.7447 16.0633V31.3089H31.8193V16.0633C31.8193 15.1085 31.0549 14.3334 30.1118 14.3334H28.7419L34.782 4.90663ZM30.1112 34.7694H39.4515C40.3946 34.7694 41.1589 33.995 41.1589 33.0395V26.7077L57.7226 32.3246L34.782 41.281L11.8407 32.3246L28.4037 26.7077V33.0395C28.4037 33.995 29.1687 34.7694 30.1112 34.7694ZM3.92903 41.3364C3.87033 41.1627 3.80297 40.8167 4.01574 40.4478L7.5387 34.3525L32.1821 43.9739L27.9161 50.48C27.642 50.8983 27.1084 51.0672 26.6469 50.8821L4.53731 41.9817C4.14513 41.8243 3.98772 41.5094 3.92903 41.3364ZM61.0575 73.9455C61.0575 74.5719 60.6687 75.1402 60.0897 75.3612L36.4894 84.3439V75.7916C36.4894 74.8361 35.7244 74.0617 34.782 74.0617C33.8389 74.0617 33.0745 74.8361 33.0745 75.7916V84.3439L9.4736 75.3612C8.89466 75.1402 8.50582 74.5719 8.50582 73.9455V47.3026L25.3863 54.0973C25.9179 54.3115 26.4728 54.4142 27.0224 54.4142C28.4884 54.4142 29.9151 53.6837 30.7601 52.3944L33.0745 48.8649V60.1446C33.0745 61.1001 33.8389 61.8745 34.782 61.8745C35.7244 61.8745 36.4894 61.1001 36.4894 60.1446V48.8649L38.8032 52.3944C39.6482 53.6837 41.0749 54.4142 42.5409 54.4142C43.0898 54.4142 43.6454 54.3115 44.177 54.0973L61.0575 47.3026V73.9455ZM65.6343 41.3364C65.5756 41.5094 65.4182 41.8243 65.026 41.9817L42.9164 50.8821C42.4555 51.0672 41.922 50.8983 41.6472 50.48L37.3812 43.9739L62.0246 34.3532L65.5469 40.4478C65.7603 40.8167 65.693 41.1627 65.6343 41.3364Z" fill="#333333"/>
<path d="M56.2868 70.0509L47.9094 72.7368C47.0791 73.0029 46.619 73.9007 46.8818 74.7419C47.1445 75.5831 48.0306 76.0492 48.8609 75.783L57.2382 73.0972C58.0685 72.831 58.5286 71.9332 58.2658 71.0921C58.0031 70.2509 57.117 69.7847 56.2868 70.0509Z" fill="#D33234"/>
<path d="M56.2868 64.0509L47.9094 66.7368C47.0791 67.0029 46.619 67.9007 46.8818 68.7419C47.1445 69.5831 48.0306 70.0492 48.8609 69.783L57.2382 67.0972C58.0685 66.831 58.5286 65.9332 58.2658 65.0921C58.0031 64.2509 57.117 63.7847 56.2868 64.0509Z" fill="#D33234"/>
<path d="M56.2868 58.0509L47.9094 60.7368C47.0791 61.0029 46.619 61.9007 46.8818 62.7419C47.1445 63.5831 48.0306 64.0492 48.8609 63.783L57.2382 61.0972C58.0685 60.831 58.5286 59.9332 58.2658 59.0921C58.0031 58.2509 57.117 57.7847 56.2868 58.0509Z" fill="#D33234"/>
<path d="M34.7835 69.666C34.0599 69.666 33.3989 69.1862 33.1661 68.4922C32.934 67.8002 33.1688 67.0069 33.7437 66.5636C34.29 66.1433 35.043 66.0953 35.6379 66.4406C36.2449 66.7934 36.5837 67.5191 36.467 68.2185C36.3289 69.0429 35.6099 69.666 34.7835 69.666Z" fill="#333333"/>
</svg>
