<svg width="42" height="50" viewBox="0 0 42 50" fill="none" xmlns="http://www.w3.org/2000/svg">
<path d="M41 33.5V11.5L32 0.500017L5 0.500002C2.79086 0.500001 1 2.29086 1 4.5V45.5C1 47.7091 2.79086 49.5 5 49.5H37C39.2091 49.5 41 47.7091 41 45.5V37.5" stroke="#333333"/>
<path d="M32 1C32 0.798151 32.1196 0.624237 32.2918 0.545269L40.9786 11.6451C40.9165 11.8505 40.7257 12 40.5 12H35.5C33.567 12 32 10.433 32 8.5V1Z" fill="white" stroke="#333333"/>
<path d="M19.25 15.5H18.3376C18.1534 15.5 18.0039 15.6586 18.0039 15.8541V24.7053H14.3337C14.1989 24.7053 14.0774 24.7917 14.0254 24.9234C13.974 25.0558 14.002 25.208 14.0974 25.3093L20.7539 32.3959C20.8167 32.4625 20.9014 32.5 20.9902 32.5C21.0789 32.5 21.1637 32.4625 21.2264 32.3966L27.9023 25.31C27.9977 25.2087 28.0264 25.0565 27.9743 24.924C27.9223 24.7916 27.8008 24.7052 27.666 24.7052H24.0098V15.8541C24.0098 15.6586 23.8603 15.5 23.6761 15.5H21" stroke="#D33234"/>
<rect x="13.25" y="35.75" width="15.5" height="0.5" rx="0.25" stroke="#D33234" stroke-width="0.5"/>
</svg>
