<svg width="47" height="53" viewBox="0 0 47 53" fill="none" xmlns="http://www.w3.org/2000/svg">
<path d="M4.43362 29.2629C3.94392 29.2629 3.54688 29.66 3.54688 30.1497V33.6967C3.54688 34.1864 3.94392 34.5834 4.43362 34.5834C4.92333 34.5834 5.32037 34.1864 5.32037 33.6967V30.1497C5.32037 29.66 4.92333 29.2629 4.43362 29.2629Z" fill="#333333"/>
<path d="M7.9805 31.0364C7.49079 31.0364 7.09375 31.4334 7.09375 31.9231V35.4701C7.09375 35.9598 7.49079 36.3569 7.9805 36.3569C8.47021 36.3569 8.86725 35.9598 8.86725 35.4701V31.9231C8.86725 31.4334 8.47021 31.0364 7.9805 31.0364Z" fill="#333333"/>
<path d="M40.3217 35.7957C39.9084 35.533 39.3604 35.6552 39.0977 36.0686C38.8456 36.4653 38.9468 36.9898 39.3285 37.2641C41.766 38.9053 42.4114 42.2116 40.7704 44.649C39.1292 47.0864 35.8229 47.732 33.3855 46.0908C30.9481 44.4497 30.3025 41.1433 31.9437 38.706C32.9319 37.2383 34.5851 36.3579 36.3544 36.357C36.8441 36.357 37.2411 35.96 37.2411 35.4702C37.2411 34.9805 36.8441 34.5835 36.3544 34.5835C32.4365 34.5843 29.2609 37.7609 29.2617 41.6788C29.2625 45.5967 32.4392 48.7723 36.357 48.7715C40.2749 48.7707 43.4505 45.594 43.4497 41.6762C43.4493 39.318 42.277 37.1141 40.3217 35.7957Z" fill="#D33234"/>
<path d="M46.58 38.7321C45.7208 35.7558 43.6068 33.302 40.7905 32.0119V12.4147C40.7906 12.1011 40.625 11.8108 40.3551 11.6512L20.8466 0.123452C20.5682 -0.0411507 20.2222 -0.0411507 19.9439 0.123452L0.435394 11.6512C0.416772 11.6618 0.403471 11.6778 0.385736 11.6902C0.368001 11.7026 0.351153 11.7168 0.333418 11.731C0.256381 11.7916 0.190208 11.8648 0.137446 11.9474C0.137446 11.9536 0.126805 11.9571 0.123258 11.9633V11.9695C0.0732677 12.0597 0.0393496 12.1578 0.0230556 12.2595C0.0230556 12.2861 0.0150747 12.3109 0.0124145 12.3375C0.00975425 12.3641 5.56095e-08 12.3881 5.56095e-08 12.4147V35.4702C-0.000110788 35.7838 0.16549 36.0741 0.435394 36.2337L19.9439 47.7614C19.9673 47.7727 19.9912 47.7828 20.0157 47.7916C20.0399 47.8036 20.0648 47.8143 20.0902 47.8235C20.2854 47.9051 20.5051 47.9051 20.7003 47.8235C20.726 47.8143 20.7512 47.8036 20.7757 47.7916C20.7987 47.7809 20.8235 47.7747 20.8466 47.7614L26.1414 44.6321C27.7707 50.276 33.6667 53.5306 39.3107 51.9013C44.9547 50.2721 48.2093 44.376 46.58 38.7321ZM20.3952 1.91646L25.0063 4.64144L18.1695 8.68147C17.7476 8.93076 17.6076 9.47489 17.8569 9.89676C18.1062 10.3186 18.6503 10.4586 19.0722 10.2093L26.7506 5.67539L31.3617 8.40037L13.5965 18.8951L8.98543 16.1701L16.4137 11.7807C16.8356 11.5314 16.9756 10.9872 16.7263 10.5654C16.477 10.1435 15.9329 10.0035 15.511 10.2528L7.24208 15.1397L2.6301 12.4147L20.3952 1.91646ZM12.7098 20.4318V26.3526L8.12883 23.6454V17.7245L12.7098 20.4318ZM26.0661 38.9363C25.8302 39.8308 25.7124 40.7523 25.7157 41.6774C25.716 42.0485 25.7355 42.4194 25.7743 42.7885L21.282 45.4443V42.5642C21.282 42.0745 20.8849 41.6774 20.3952 41.6774C19.9055 41.6774 19.5085 42.0745 19.5085 42.5642V45.4443L1.7735 34.9647V13.9692L6.35533 16.6764V24.1508C6.355 24.4647 6.52049 24.7555 6.79073 24.9152L13.1452 28.6706C13.282 28.7511 13.4378 28.7936 13.5965 28.7938C14.0862 28.7938 14.4833 28.3968 14.4833 27.9071V21.479L19.5085 24.4488V39.0172C19.5085 39.5069 19.9055 39.9039 20.3952 39.9039C20.8849 39.9039 21.282 39.5069 21.282 39.0172V24.4488L37.3534 14.9517C37.7751 14.7024 37.9149 14.1585 37.6656 13.7368C37.4163 13.3152 36.8724 13.1754 36.4507 13.4247L20.3952 22.9129L15.3408 19.9255L33.1059 9.42723L39.017 12.9201V31.3911C33.3572 29.8984 27.5588 33.2764 26.0661 38.9363ZM36.3567 50.5449C31.4593 50.5449 27.4892 46.5748 27.4892 41.6774C27.4892 36.78 31.4593 32.8099 36.3567 32.8099C41.2541 32.8099 45.2242 36.78 45.2242 41.6774C45.2189 46.5726 41.2519 50.5395 36.3567 50.5449Z" fill="#333333"/>
<path d="M39.6219 39.2771C39.2783 38.9451 38.7334 38.9451 38.3898 39.2771L35.0264 42.6405L34.3232 41.9373C33.9709 41.597 33.4096 41.6068 33.0693 41.959C32.7373 42.3026 32.7373 42.8476 33.0693 43.1912L34.3994 44.5213C34.7457 44.8675 35.307 44.8675 35.6533 44.5213L39.6437 40.5309C39.9839 40.1787 39.9742 39.6172 39.6219 39.2771Z" fill="#D33234"/>
</svg>
