<svg width="14" height="11" viewBox="0 0 14 11" fill="none" xmlns="http://www.w3.org/2000/svg">
<path d="M12.2909 0H1.71198C0.767639 0 0 0.767639 0 1.71198V8.94227C0 9.88661 0.767639 10.6542 1.71198 10.6542H12.288C13.2324 10.6542 14 9.88661 14 8.94227V1.71488C14.0029 0.770536 13.2353 0 12.2909 0ZM13.2208 8.94227C13.2208 9.45499 12.8036 9.87212 12.2909 9.87212H1.71198C1.19925 9.87212 0.782122 9.45499 0.782122 8.94227V1.71488C0.782122 1.20215 1.19925 0.785019 1.71198 0.785019H12.288C12.8007 0.785019 13.2179 1.20215 13.2179 1.71488V8.94227H13.2208Z" fill="#333333"/>
<path d="M8.82928 5.23701L12.2532 2.16646C12.4126 2.02162 12.427 1.7754 12.2822 1.61318C12.1374 1.45386 11.8911 1.43937 11.7289 1.58421L7.00722 5.82216L6.08606 4.99948C6.08316 4.99658 6.08026 4.99369 6.08026 4.99079C6.05998 4.97051 6.03971 4.95313 6.01653 4.93575L2.26814 1.58131C2.10592 1.43648 1.8597 1.45096 1.71486 1.61318C1.57002 1.7754 1.58451 2.02162 1.74672 2.16646L5.21124 5.26308L1.76121 8.49296C1.60478 8.64069 1.59609 8.88692 1.74383 9.04624C1.82204 9.12735 1.92632 9.1708 2.0306 9.1708C2.1262 9.1708 2.22179 9.13604 2.29711 9.06651L5.79928 5.79029L6.74941 6.63904C6.82473 6.70566 6.91742 6.73753 7.01012 6.73753C7.10281 6.73753 7.19841 6.70277 7.27083 6.63614L8.24703 5.76132L11.7289 9.06941C11.8042 9.14183 11.9027 9.17659 11.9983 9.17659C12.1026 9.17659 12.204 9.13604 12.2822 9.05493C12.4299 8.8985 12.4241 8.64938 12.2677 8.50165L8.82928 5.23701Z" fill="#333333"/>
</svg>
