<svg width="50" height="50" viewBox="0 0 50 50" fill="none" xmlns="http://www.w3.org/2000/svg">
<path d="M49.1703 2.45264H5.24984L3.04129 0.243258C2.88572 0.0875803 2.67468 7.78459e-05 2.4546 5.19161e-08C2.23452 -7.77421e-05 2.02342 0.0872755 1.86774 0.242843C1.71206 0.398411 1.62456 0.60945 1.62448 0.829534C1.6244 1.04962 1.71176 1.26072 1.86732 1.4164L19.1068 18.6551L6.1998 31.5621L1.40603 26.7683C1.24956 26.6172 1.03998 26.5335 0.82245 26.5354C0.604916 26.5373 0.396827 26.6246 0.243002 26.7784C0.089176 26.9322 0.00192167 27.1403 3.13633e-05 27.3578C-0.00185895 27.5754 0.0817661 27.7849 0.232895 27.9414L3.53909 31.2476V44.7652C3.53909 44.9853 3.6265 45.1963 3.78209 45.3519C3.93768 45.5075 4.14871 45.5949 4.36875 45.5949H19.0595L22.0405 48.5759C22.2652 48.8033 22.5325 48.9843 22.8272 49.1085C23.1219 49.2326 23.4381 49.2975 23.7579 49.2993H23.8226C24.1465 49.3002 24.4674 49.2366 24.7665 49.1122C25.0656 48.9879 25.337 48.8053 25.5649 48.575C25.7867 48.3537 25.9644 48.0921 26.0884 47.8043C26.4618 48.0166 26.8843 48.1275 27.3138 48.1262C27.8008 48.1305 28.2782 47.9911 28.6864 47.7255C29.0945 47.4599 29.4153 47.0798 29.6086 46.6328C29.9809 46.8463 30.4032 46.9571 30.8324 46.9539C31.4942 46.9497 32.1289 46.6906 32.6045 46.2304C32.8063 46.0287 32.9719 45.7938 33.094 45.536C33.532 45.9037 34.0828 46.1102 34.6546 46.1209C35.2264 46.1316 35.7845 45.946 36.236 45.5949H49.1703C49.3904 45.5949 49.6014 45.5075 49.757 45.3519C49.9126 45.1963 50 44.9853 50 44.7652V3.2823C50 3.06226 49.9126 2.85123 49.757 2.69564C49.6014 2.54005 49.3904 2.45264 49.1703 2.45264ZM30.0882 4.11196V12.4085H23.4509V4.11196H30.0882ZM5.19841 43.9356V32.9069L5.61323 33.3218C5.76882 33.4773 5.97981 33.5647 6.1998 33.5647C6.4198 33.5647 6.63079 33.4773 6.78637 33.3218L7.95951 32.1486L8.17771 32.3668C8.69757 32.8884 9.06975 33.5386 9.25627 34.251L9.40229 34.8143C9.66359 35.8127 10.1859 36.7236 10.9156 37.4535L17.4002 43.9356H5.19841ZM34.6903 44.4633C34.476 44.4587 34.2712 44.374 34.1162 44.226L32.5996 42.7085C32.444 42.5528 32.233 42.4653 32.0129 42.4653C31.7928 42.4652 31.5817 42.5525 31.426 42.7081C31.2703 42.8637 31.1828 43.0747 31.1827 43.2948C31.1827 43.5149 31.27 43.726 31.4256 43.8817C31.5811 44.0372 31.6685 44.2482 31.6685 44.4682C31.6685 44.6882 31.5811 44.8992 31.4256 45.0548C31.3479 45.134 31.2544 45.1962 31.1512 45.2372C31.0481 45.2782 30.9375 45.2972 30.8266 45.2929C30.6117 45.2898 30.4062 45.2049 30.2516 45.0556L29.0785 43.8825C28.9213 43.7351 28.7129 43.6546 28.4975 43.6581C28.2821 43.6616 28.0764 43.7488 27.9241 43.9012C27.7718 44.0537 27.6848 44.2594 27.6814 44.4748C27.6781 44.6903 27.7587 44.8986 27.9062 45.0556C28.061 45.2111 28.1478 45.4216 28.1478 45.641C28.1478 45.8603 28.061 46.0708 27.9062 46.2263C27.7449 46.3792 27.5311 46.4644 27.3088 46.4644C27.2011 46.4709 27.0933 46.4528 26.9935 46.4116C26.8938 46.3703 26.8047 46.307 26.733 46.2263L25.5599 45.0556C25.4829 44.9785 25.3914 44.9174 25.2907 44.8757C25.1901 44.8339 25.0822 44.8124 24.9732 44.8124C24.8642 44.8123 24.7563 44.8338 24.6556 44.8754C24.5549 44.9171 24.4634 44.9782 24.3863 45.0552C24.3093 45.1322 24.2481 45.2237 24.2064 45.3244C24.1646 45.425 24.1431 45.5329 24.1431 45.6419C24.1431 45.7509 24.1645 45.8588 24.2061 45.9595C24.2478 46.0602 24.3089 46.1517 24.3859 46.2288C24.5415 46.3844 24.6288 46.5953 24.6288 46.8153C24.6288 47.0353 24.5415 47.2463 24.3859 47.4019C24.3096 47.4825 24.2166 47.5456 24.1135 47.5867C24.0103 47.6278 23.8995 47.646 23.7886 47.64C23.5728 47.6396 23.3658 47.554 23.2128 47.4019L12.0954 36.2795C11.575 35.7583 11.2027 35.108 11.0168 34.3953L10.87 33.832C10.6086 32.834 10.0866 31.9235 9.35749 31.1937L9.13929 30.9755L17.9328 22.1753L18.7691 23.0108C19.0995 23.3406 19.5162 23.5706 19.9713 23.6745L24.1196 24.6269C26.9758 25.2867 29.5082 26.9317 31.2721 29.273L35.5117 34.9031L35.4345 34.9803C35.2811 35.1349 35.0984 35.2575 34.8971 35.341C34.6959 35.4245 34.4801 35.4671 34.2622 35.4664C34.0442 35.4667 33.8283 35.4238 33.6269 35.3402C33.4256 35.2566 33.2428 35.134 33.0891 34.9794L31.0149 32.9053C30.8263 32.7148 30.6016 32.5638 30.3541 32.461C30.1065 32.3581 29.841 32.3055 29.573 32.3063V32.3063C29.1616 32.3089 28.7601 32.433 28.419 32.6631C28.078 32.8932 27.8125 33.2189 27.6559 33.5994C27.4994 33.9798 27.4587 34.3981 27.5391 34.8015C27.6195 35.205 27.8174 35.5758 28.1078 35.8672L35.2287 42.9881C35.3891 43.1371 35.4896 43.3395 35.5113 43.5574C35.533 43.7752 35.4744 43.9935 35.3466 44.1712C35.2641 44.2636 35.1629 44.3374 35.0498 44.3877C34.9367 44.4381 34.8141 44.4638 34.6903 44.4633ZM48.3407 43.9356H37.1552C37.1942 43.5476 37.1464 43.1558 37.0153 42.7886C36.8841 42.4214 36.6729 42.088 36.3969 41.8125L29.2759 34.6915C29.1975 34.6126 29.1533 34.5058 29.1532 34.3945C29.1546 34.3341 29.1682 34.2746 29.1932 34.2196C29.2181 34.1646 29.2539 34.1152 29.2983 34.0743C29.3698 34.0029 29.4666 33.9628 29.5676 33.9628C29.6685 33.9628 29.7654 34.0029 29.8368 34.0743L31.9109 36.1484C32.2184 36.4576 32.584 36.7027 32.9867 36.8698C33.3894 37.0368 33.8212 37.1224 34.2572 37.1216V37.1216C34.6931 37.1228 35.1248 37.0375 35.5274 36.8706C35.93 36.7037 36.2955 36.4585 36.6027 36.1492L37.1892 35.5627C37.3308 35.4213 37.4164 35.2335 37.4304 35.0339C37.4445 34.8344 37.3859 34.6365 37.2656 34.4766L32.5921 28.2708C30.5929 25.6182 27.7229 23.7549 24.4863 23.0083L20.338 22.0567C20.1856 22.0214 20.0462 21.9441 19.9356 21.8335L19.0993 20.9972L20.8599 19.2366C21.0154 19.0811 21.1028 18.8701 21.1028 18.6501C21.1028 18.4301 21.0154 18.2191 20.8599 18.0635L6.90916 4.11196H21.7916V13.2382C21.7916 13.4582 21.879 13.6693 22.0346 13.8249C22.1902 13.9805 22.4012 14.0679 22.6212 14.0679H30.9178C31.1379 14.0679 31.3489 13.9805 31.5045 13.8249C31.6601 13.6693 31.7475 13.4582 31.7475 13.2382V4.11196H48.3407V43.9356Z" fill="#333333"/>
<path d="M38.3883 37.2982H42.5365C42.7566 37.2982 42.9676 37.2108 43.1232 37.0552C43.2788 36.8996 43.3662 36.6886 43.3662 36.4686C43.3662 36.2485 43.2788 36.0375 43.1232 35.8819C42.9676 35.7263 42.7566 35.6389 42.5365 35.6389H38.3883C38.1682 35.6389 37.9572 35.7263 37.8016 35.8819C37.646 36.0375 37.5586 36.2485 37.5586 36.4686C37.5586 36.6886 37.646 36.8996 37.8016 37.0552C37.9572 37.2108 38.1682 37.2982 38.3883 37.2982Z" fill="#D33234"/>
<path d="M45.025 37.2982H45.8546C46.0747 37.2982 46.2857 37.2108 46.4413 37.0552C46.5969 36.8996 46.6843 36.6886 46.6843 36.4686C46.6843 36.2485 46.5969 36.0375 46.4413 35.8819C46.2857 35.7263 46.0747 35.6389 45.8546 35.6389H45.025C44.8049 35.6389 44.5939 35.7263 44.4383 35.8819C44.2827 36.0375 44.1953 36.2485 44.1953 36.4686C44.1953 36.6886 44.2827 36.8996 44.4383 37.0552C44.5939 37.2108 44.8049 37.2982 45.025 37.2982Z" fill="#D33234"/>
<path d="M38.3883 33.9796H42.5365C42.7566 33.9796 42.9676 33.8922 43.1232 33.7366C43.2788 33.581 43.3662 33.37 43.3662 33.15C43.3662 32.9299 43.2788 32.7189 43.1232 32.5633C42.9676 32.4077 42.7566 32.3203 42.5365 32.3203H38.3883C38.1682 32.3203 37.9572 32.4077 37.8016 32.5633C37.646 32.7189 37.5586 32.9299 37.5586 33.15C37.5586 33.37 37.646 33.581 37.8016 33.7366C37.9572 33.8922 38.1682 33.9796 38.3883 33.9796Z" fill="#D33234"/>
<path d="M45.025 33.9796H45.8546C46.0747 33.9796 46.2857 33.8922 46.4413 33.7366C46.5969 33.581 46.6843 33.37 46.6843 33.15C46.6843 32.9299 46.5969 32.7189 46.4413 32.5633C46.2857 32.4077 46.0747 32.3203 45.8546 32.3203H45.025C44.8049 32.3203 44.5939 32.4077 44.4383 32.5633C44.2827 32.7189 44.1953 32.9299 44.1953 33.15C44.1953 33.37 44.2827 33.581 44.4383 33.7366C44.5939 33.8922 44.8049 33.9796 45.025 33.9796Z" fill="#D33234"/>
<path d="M42.5318 38.9578H36.7242C36.5042 38.9578 36.2931 39.0452 36.1375 39.2008C35.9819 39.3564 35.8945 39.5674 35.8945 39.7874C35.8945 40.0075 35.9819 40.2185 36.1375 40.3741C36.2931 40.5297 36.5042 40.6171 36.7242 40.6171H42.5318C42.7518 40.6171 42.9629 40.5297 43.1185 40.3741C43.2741 40.2185 43.3615 40.0075 43.3615 39.7874C43.3615 39.5674 43.2741 39.3564 43.1185 39.2008C42.9629 39.0452 42.7518 38.9578 42.5318 38.9578Z" fill="#D33234"/>
<path d="M45.025 40.6171H45.8546C46.0747 40.6171 46.2857 40.5297 46.4413 40.3741C46.5969 40.2185 46.6843 40.0075 46.6843 39.7874C46.6843 39.5674 46.5969 39.3564 46.4413 39.2008C46.2857 39.0452 46.0747 38.9578 45.8546 38.9578H45.025C44.8049 38.9578 44.5939 39.0452 44.4383 39.2008C44.2827 39.3564 44.1953 39.5674 44.1953 39.7874C44.1953 40.0075 44.2827 40.2185 44.4383 40.3741C44.5939 40.5297 44.8049 40.6171 45.025 40.6171Z" fill="#D33234"/>
</svg>
