<svg width="85" height="96" viewBox="0 0 85 96" fill="none" xmlns="http://www.w3.org/2000/svg">
<path d="M28.8019 43.4508H19.8376C18.9332 43.4508 18.199 42.7076 18.199 41.7907V17.0756H15.5056C14.9052 17.0756 14.3521 16.7429 14.066 16.2079C13.7793 15.6729 13.8042 15.0225 14.1313 14.5115L22.9452 0.756149C23.2479 0.284691 23.7651 0 24.3201 0C24.875 0 25.3922 0.284691 25.6943 0.756149L34.5082 14.5115C34.8352 15.0225 34.8602 15.6729 34.5741 16.2079C34.2873 16.7429 33.7343 17.0763 33.1339 17.0763H30.4405V41.7907C30.4405 42.707 29.7069 43.4508 28.8019 43.4508ZM21.4762 40.1305H27.1633V15.4155C27.1633 14.4991 27.8968 13.7553 28.8019 13.7553H30.1166L24.3201 4.70875L18.5229 13.7553H19.8376C20.7427 13.7553 21.4762 14.4991 21.4762 15.4155V40.1305Z" fill="#D33234"/>
<path d="M42.4384 95.6251C41.7529 95.6251 41.1269 95.1763 40.8959 94.5233C40.6661 93.8755 40.8677 93.1277 41.3913 92.6887C41.8995 92.262 42.6279 92.1894 43.2097 92.5019C43.8127 92.8262 44.1615 93.524 44.0578 94.2081C43.9369 95.0103 43.2424 95.6251 42.4384 95.6251Z" fill="#333333"/>
<path d="M82.777 83.1821H76.7903V57.6708C76.7903 56.5774 76.4069 55.5729 75.7694 54.7882C76.4069 54.0035 76.7903 52.9997 76.7903 51.9063V27.6174C76.7903 25.1123 74.7792 23.0747 72.3066 23.0747H45.312C42.84 23.0747 40.8289 25.1123 40.8289 27.6174V51.9063C40.8289 52.4186 40.9128 52.9108 41.0677 53.3706C40.6145 53.2137 40.128 53.1287 39.623 53.1287H12.6284C10.1558 53.1287 8.1447 55.1663 8.1447 57.6708V83.1821H2.15807C1.253 83.1821 0.51947 83.9253 0.51947 84.8422V93.9647C0.51947 94.8817 1.253 95.6248 2.15807 95.6248H35.0574C35.9624 95.6248 36.696 94.8817 36.696 93.9647C36.696 93.0477 35.9624 92.3045 35.0574 92.3045H3.79666V86.5024H81.1384V92.3045H49.8777C48.9733 92.3045 48.2391 93.0477 48.2391 93.9647C48.2391 94.8817 48.9733 95.6248 49.8777 95.6248H82.777C83.682 95.6248 84.4156 94.8817 84.4156 93.9647V84.8422C84.4156 83.9253 83.682 83.1821 82.777 83.1821ZM62.5109 26.395V36.7606L59.578 35.1828C59.3374 35.0538 59.0737 34.9889 58.8093 34.9889C58.5456 34.9889 58.2812 35.0538 58.0412 35.1828L55.1084 36.7606V26.395H62.5109ZM44.1061 27.6174C44.1061 26.9436 44.647 26.395 45.312 26.395H51.8312V39.5226C51.8312 40.1049 52.1327 40.6451 52.6255 40.9454C52.8848 41.103 53.1773 41.1827 53.4698 41.1827C53.7335 41.1827 53.9979 41.1179 54.2385 40.9888L58.8093 38.5284L63.3807 40.9888C63.8883 41.2618 64.5009 41.2456 64.9931 40.9454C65.486 40.6451 65.7874 40.1049 65.7874 39.5226V26.395H72.3066C72.9716 26.395 73.5125 26.9436 73.5125 27.6174V51.9063C73.5125 52.5801 72.9716 53.1287 72.3066 53.1287H45.312C44.647 53.1287 44.1061 52.5801 44.1061 51.9063V27.6174ZM55.1084 56.449H62.5109V66.8146L59.578 65.2362C59.338 65.1071 59.0737 65.0423 58.81 65.0423C58.5456 65.0423 58.2812 65.1071 58.0412 65.2362L55.109 66.8146V56.449H55.1084ZM29.8267 56.449V66.8146L26.8938 65.2362C26.6538 65.1071 26.3894 65.0423 26.1257 65.0423C25.8614 65.0423 25.597 65.1071 25.357 65.2362L22.4242 66.8146V56.449H29.8267ZM11.4219 57.6708C11.4219 56.997 11.9634 56.4484 12.6284 56.4484H19.147V69.5759C19.147 70.1583 19.4485 70.6985 19.9413 70.9987C20.4348 71.299 21.0467 71.3152 21.5543 71.0422L26.1257 68.5818L30.6965 71.0422C30.9372 71.1712 31.2015 71.2361 31.4652 71.2361C31.7578 71.2361 32.0503 71.1563 32.3095 70.9981C32.8024 70.6985 33.1038 70.1583 33.1038 69.5759V56.4484H39.623C40.2881 56.4484 40.8289 56.9964 40.8289 57.6708V83.1821H11.4219V57.6708ZM44.1061 83.1821V57.6708C44.1061 56.997 44.647 56.4484 45.312 56.4484H51.8312V69.5759C51.8312 70.1583 52.1327 70.6985 52.6255 70.9987C53.1184 71.299 53.7303 71.3152 54.2385 71.0422L58.8093 68.5818L63.3807 71.0422C63.6214 71.1712 63.8858 71.2361 64.1488 71.2361C64.442 71.2361 64.7339 71.1563 64.9931 70.9981C65.486 70.6985 65.7874 70.1583 65.7874 69.5759V56.4484H72.3066C72.9716 56.4484 73.5125 56.9964 73.5125 57.6708V83.1821H44.1061Z" fill="#333333"/>
</svg>
