<svg width="73" height="92" viewBox="0 0 73 92" fill="none" xmlns="http://www.w3.org/2000/svg">
<path d="M28.3259 13.5413V12.2192H25.7098V13.5413H24.405V16.1917H25.7098V17.5136H28.3259V16.1917H29.6306V13.5413H28.3259Z" fill="#D33234"/>
<path d="M47.1713 13.5413V12.2192H44.5554V13.5413H43.2507V16.1917H44.5554V17.5136H47.1713V16.1917H48.4762V13.5413H47.1713Z" fill="#D33234"/>
<path d="M28.3259 28.8233V27.5015H25.7098V28.8233H24.405V31.4738H25.7098V32.7956H28.3259V31.4738H29.6306V28.8233H28.3259Z" fill="#D33234"/>
<path d="M47.1713 28.8233V27.5015H44.5554V28.8233H43.2507V31.4738H44.5554V32.7956H47.1713V31.4738H48.4762V28.8233H47.1713Z" fill="#D33234"/>
<path d="M50.4336 38.0513H36.438V40.7017H50.4336V38.0513Z" fill="#D33234"/>
<path d="M54.4492 38.0513H51.8331V40.7017H54.4492V38.0513Z" fill="#D33234"/>
<path d="M52.4348 52.9414H34.8187V55.5919H52.4348V52.9414Z" fill="#D33234"/>
<path d="M56.4425 52.9414H53.8264V55.5903H56.4425V52.9414Z" fill="#D33234"/>
<path d="M60.5341 29.4486V49.8007C59.5364 48.8946 58.2198 48.3423 56.7779 48.3423H40.3847V45.0149H51.8969C54.2322 45.0149 56.4731 44.0114 58.0454 42.2619C59.6177 40.5123 60.3941 38.1576 60.1754 35.8019L57.6634 8.73676C57.2013 3.75598 53.1293 0 48.1915 0H25.3836C20.4458 0 16.3738 3.75598 15.9115 8.73676L13.4002 35.8021C13.1817 38.1578 13.9579 40.5123 15.53 42.2619C17.1023 44.0114 19.3434 45.0149 21.6785 45.0149H32.4954V48.3425H16.102C14.6729 48.3425 13.3672 48.8854 12.373 49.777V29.4486H0.42749V37.4418H4.48333V49.5678C4.48333 53.1736 7.32325 56.1179 10.8557 56.2304C11.6774 58.3538 13.7183 59.8618 16.1017 59.8618H32.5154V65.9353H29.1101C24.9897 65.9353 21.1006 67.5529 18.159 70.4903C15.3189 73.3265 13.6839 77.0754 13.5202 81.0847C12.2386 82.1028 11.4128 83.6842 11.4128 85.4583C11.4128 88.5224 13.873 91.015 16.8973 91.015C19.9217 91.015 22.3819 88.5224 22.3819 85.4583C22.3819 84.2503 21.9984 83.1322 21.3501 82.2196V81.7487C21.3501 77.4135 24.8313 73.8865 29.1101 73.8865H32.5154V81.5809C31.5504 82.5829 30.9542 83.951 30.9542 85.4583C30.9542 88.5224 33.4144 91.015 36.4387 91.015C39.4631 91.015 41.9235 88.5224 41.9235 85.4583C41.9235 83.9517 41.3278 82.5842 40.3637 81.5823V73.8865H43.7679C47.9928 73.8865 51.4377 77.3257 51.5241 81.5857C50.5617 82.5874 49.9674 83.9533 49.9674 85.4583C49.9674 88.5224 52.4277 91.015 55.452 91.015C58.4763 91.015 60.9367 88.5224 60.9367 85.4583C60.9367 83.9503 60.34 82.5815 59.3741 81.5793C59.2839 72.9374 52.3185 65.9353 43.768 65.9353H40.364V59.8618H56.7779C59.1611 59.8618 61.2018 58.3538 62.0237 56.2311C65.5689 56.133 68.4234 53.183 68.4234 49.5678V37.4418H72.4794V29.4486H60.5341ZM9.757 53.3609C8.21106 52.8122 7.09955 51.319 7.09955 49.568V34.7913H3.04354V32.0989H9.757V53.3609ZM32.4948 42.3644H21.6783C20.0541 42.3644 18.5577 41.6945 17.4641 40.4775C16.3708 39.2605 15.8523 37.6884 16.0043 36.0501L18.5159 8.98492C18.8509 5.37364 21.8034 2.65047 25.3834 2.65047H48.1915C51.7715 2.65047 54.7238 5.37364 55.059 8.98492L57.5704 36.0501C57.7224 37.6884 57.2039 39.2607 56.1105 40.4775C55.0174 41.6943 53.5204 42.3644 51.8964 42.3644H40.3842H32.4948ZM37.7687 45.0149V48.3425H35.1112V45.0149H37.7687ZM16.8975 88.3649C15.3158 88.3649 14.029 87.0611 14.029 85.4586C14.029 83.8559 15.3158 82.5523 16.8975 82.5523C18.4793 82.5523 19.766 83.8561 19.766 85.4586C19.766 87.0611 18.4794 88.3649 16.8975 88.3649ZM36.4389 88.3649C36.4386 88.3649 36.4382 88.3649 36.4379 88.3649C36.4375 88.3649 36.4371 88.3649 36.4368 88.3649C34.8551 88.3649 33.5683 87.0611 33.5683 85.4586C33.5683 85.4202 33.5725 85.3831 33.5741 85.345C33.5755 85.3112 33.5767 85.2775 33.5791 85.2439C33.5827 85.196 33.5867 85.1484 33.5925 85.1013C33.5965 85.0689 33.6021 85.0373 33.6069 85.0053C33.6188 84.9289 33.6332 84.8533 33.6507 84.779C33.6571 84.7529 33.6637 84.7269 33.6706 84.7012C33.6934 84.6158 33.7199 84.5325 33.7499 84.4503C33.756 84.434 33.7614 84.4171 33.7678 84.4009C33.7867 84.3517 33.8072 84.3033 33.8286 84.2555C33.8336 84.2448 33.8388 84.2347 33.8436 84.224C33.8855 84.1341 33.9316 84.047 33.982 83.9625C33.9883 83.9519 33.9946 83.9414 34.0011 83.9307C34.0878 83.7892 34.1861 83.6561 34.2947 83.5324C34.2968 83.53 34.2989 83.5277 34.301 83.5254C34.3747 83.4419 34.4529 83.3629 34.5356 83.2885C34.5361 83.2879 34.5366 83.2874 34.5371 83.2869C35.0439 82.8316 35.708 82.5525 36.4366 82.5525C37.0446 82.5525 37.608 82.7465 38.0724 83.0744H38.0745C38.1314 83.1146 38.1859 83.1573 38.2396 83.2014C38.255 83.2142 38.2703 83.2273 38.2856 83.2405C38.4124 83.3489 38.5298 83.468 38.6363 83.5969C38.6433 83.6054 38.6505 83.6136 38.6574 83.6223C38.7123 83.6902 38.7644 83.7604 38.8133 83.8333C38.8146 83.8351 38.8156 83.8369 38.8169 83.8386C39.1258 84.3017 39.3076 84.8588 39.3076 85.459C39.3078 87.0612 38.0208 88.3649 36.4389 88.3649ZM35.1316 80.0626V73.8867H37.7478V80.0629C37.3281 79.9586 36.8902 79.9019 36.4391 79.9019C35.9885 79.9017 35.5509 79.9582 35.1316 80.0626ZM58.3205 85.4584C58.3205 87.061 57.0335 88.3647 55.4518 88.3647C53.8703 88.3647 52.5833 87.061 52.5833 85.4584C52.5833 83.8559 53.8703 82.5522 55.4518 82.5522C57.0335 82.5522 58.3205 83.8561 58.3205 85.4584ZM43.7679 68.5857C50.3585 68.5857 55.8148 73.5848 56.6465 80.0359C56.2615 79.949 55.8622 79.9017 55.4518 79.9017C54.9546 79.9017 54.4731 79.9703 54.0148 80.0965C53.23 75.0823 48.9345 71.2362 43.7679 71.2362H29.1105C23.887 71.2362 19.555 75.1675 18.8398 80.2627C18.2357 80.0302 17.5813 79.9017 16.8977 79.9017C16.6768 79.9017 16.4594 79.9165 16.2452 79.9424C17.1239 73.5509 22.5914 68.5859 29.1103 68.5859H43.7679V68.5857ZM35.1316 65.9355V59.862H37.7478V65.9355H35.1316ZM59.7954 54.1543C59.7952 55.8402 58.4416 57.2115 56.7776 57.2115H40.3637H32.5155H16.1018C14.438 57.2115 13.0843 55.84 13.0843 54.1543V54.0501C13.0843 52.3644 14.438 50.9929 16.1018 50.9929H32.4952H40.3847H56.7779C58.4419 50.9929 59.7956 52.3644 59.7956 54.0501V54.1543H59.7954ZM69.8634 34.7913H65.8074V49.5678C65.8074 51.3188 64.6957 52.812 63.1501 53.3608V32.0989H69.8634V34.7913Z" fill="#333333"/>
</svg>
