<svg width="97" height="97" viewBox="0 0 97 97" fill="none" xmlns="http://www.w3.org/2000/svg">
<path d="M40.8651 54.7581C40.8651 59.0781 44.3222 62.5807 48.5861 62.5807C52.85 62.5807 56.3071 59.0781 56.3071 54.7581C56.3071 50.4381 52.85 46.9355 48.5861 46.9355C44.3237 46.9409 40.8704 50.4397 40.8651 54.7581ZM53.2187 54.7581C53.2187 57.3501 51.1444 59.4517 48.5861 59.4517C46.0278 59.4517 43.9535 57.3501 43.9535 54.7581C43.9535 52.1661 46.0278 50.0646 48.5861 50.0646C51.1444 50.0646 53.2187 52.1661 53.2187 54.7581Z" fill="#D33234"/>
<path d="M48.582 64.145C47.7292 64.145 47.0378 64.8455 47.0378 65.7095V67.2741C47.0378 68.138 47.7292 68.8386 48.582 68.8386C49.4348 68.8386 50.1262 68.138 50.1262 67.2741V65.7095C50.1262 64.8455 49.4348 64.145 48.582 64.145Z" fill="#333333"/>
<path d="M49.9417 24.2873C49.6477 23.816 49.135 23.5303 48.5845 23.5303C48.0341 23.5303 47.5214 23.816 47.2273 24.2873L27.1528 61.8357C26.8896 62.3277 26.9054 62.9235 27.1942 63.4002L38.1009 81.3547H36.2309C35.3782 81.3547 34.6867 82.0552 34.6867 82.9192V87.6128H31.5984C30.7456 87.6128 30.0542 88.3133 30.0542 89.1773V95.4354C30.0542 96.2994 30.7456 96.9999 31.5984 96.9999H65.5707C66.4235 96.9999 67.1149 96.2994 67.1149 95.4354V89.1773C67.1149 88.3133 66.4235 87.6128 65.5707 87.6128H62.4823V82.9192C62.4823 82.0552 61.7909 81.3547 60.9381 81.3547H60.4344L70.0178 63.3223C70.2651 62.8586 70.2651 62.2994 70.0178 61.8357L49.9417 24.2873ZM64.0265 93.8709H33.1426V90.7418H64.0265V93.8709ZM37.7751 87.6128V84.4838H59.3939V87.6128H37.7751ZM56.923 81.3547H50.1287V71.9676C50.1287 71.1036 49.4373 70.4031 48.5845 70.4031C47.7318 70.4031 47.0403 71.1036 47.0403 71.9676V81.3547H41.7269L30.3 62.5301L48.5845 28.3178L66.903 62.5805L56.923 81.3547Z" fill="#333333"/>
<path d="M94.9103 43.8064H93.3277C92.4938 21.7222 75.0145 4.01289 53.217 3.16799V1.56452C53.217 0.700518 52.5256 0 51.6728 0H45.496C44.6432 0 43.9518 0.700518 43.9518 1.56452V3.16799C22.1544 4.01289 4.67506 21.7222 3.84114 43.8064H2.25848C1.40571 43.8064 0.714287 44.507 0.714287 45.371V51.629C0.714287 52.493 1.40571 53.1935 2.25848 53.1935H8.43528C9.28805 53.1935 9.97947 52.493 9.97947 51.629V45.371C9.97947 44.507 9.28805 43.8064 8.43528 43.8064H6.92953C7.75893 23.4486 23.8584 7.13734 43.9518 6.29702V7.82258C43.9518 8.68658 44.6432 9.3871 45.496 9.3871H51.6728C52.5256 9.3871 53.217 8.68658 53.217 7.82258V6.29702C73.3104 7.13734 89.4099 23.4486 90.2393 43.8064H88.7336C87.8808 43.8064 87.1894 44.507 87.1894 45.371V51.629C87.1894 52.493 87.8808 53.1935 88.7336 53.1935H94.9103C95.7631 53.1935 96.4545 52.493 96.4545 51.629V45.371C96.4545 44.507 95.7631 43.8064 94.9103 43.8064ZM6.89108 50.0645H3.80268V46.9355H6.89108V50.0645ZM50.1286 6.25806H47.0402V3.12903H50.1286V6.25806ZM93.3661 50.0645H90.2778V46.9355H93.3661V50.0645Z" fill="#D33234"/>
</svg>
