<svg width="11" height="18" viewBox="0 0 11 18" fill="none" xmlns="http://www.w3.org/2000/svg">
<path d="M8.76244 0H1.30423C0.585051 0 0 0.585347 0 1.30423V16.4602C0 17.1794 0.585051 17.7647 1.30423 17.7647H8.76215C9.48162 17.7647 10.0667 17.1794 10.0667 16.4605V1.30423C10.0667 0.585347 9.48162 0 8.76244 0ZM0.592157 2.36863H9.47451V13.6196H0.592157V2.36863ZM1.30423 0.592157H8.76215C9.15504 0.592157 9.47451 0.911625 9.47451 1.30423V1.77647H0.592157V1.30423C0.592157 0.911625 0.911626 0.592157 1.30423 0.592157ZM8.76244 17.1725H1.30423C0.911626 17.1725 0.592157 16.8531 0.592157 16.4605V14.2118H9.47451V16.4605C9.47451 16.8531 9.15504 17.1725 8.76244 17.1725Z" fill="#333333"/>
<path d="M5.03343 14.5076C4.38029 14.5076 3.84912 15.0387 3.84912 15.6919C3.84912 16.345 4.38029 16.8762 5.03343 16.8762C5.68658 16.8762 6.21775 16.345 6.21775 15.6919C6.21775 15.0387 5.68658 14.5076 5.03343 14.5076ZM5.03343 16.284C4.70686 16.284 4.44128 16.0185 4.44128 15.6919C4.44128 15.3653 4.70686 15.0997 5.03343 15.0997C5.36001 15.0997 5.62559 15.3653 5.62559 15.6919C5.62559 16.0185 5.36001 16.284 5.03343 16.284Z" fill="#333333"/>
<path d="M3.84942 1.48083H5.03374C5.19717 1.48083 5.32982 1.34848 5.32982 1.18475C5.32982 1.02102 5.19717 0.888672 5.03374 0.888672H3.84942C3.68599 0.888672 3.55334 1.02102 3.55334 1.18475C3.55334 1.34848 3.68599 1.48083 3.84942 1.48083Z" fill="#333333"/>
<path d="M5.92193 1.48083H6.21801C6.38145 1.48083 6.51409 1.34848 6.51409 1.18475C6.51409 1.02102 6.38145 0.888672 6.21801 0.888672H5.92193C5.7585 0.888672 5.62585 1.02102 5.62585 1.18475C5.62585 1.34848 5.7585 1.48083 5.92193 1.48083Z" fill="#333333"/>
</svg>
