<svg width="21" height="22" viewBox="0 0 21 22" fill="none" xmlns="http://www.w3.org/2000/svg">
<path d="M19.7732 3.49993C18.1687 3.49993 16.8634 2.21951 16.8634 0.645734V0H3.5681V0.645734C3.5681 2.21959 2.26274 3.49993 0.658311 3.49993H0V7.79414C0 10.8799 0.947647 13.8513 2.74061 16.3869C4.53357 18.9224 7.03869 20.8342 9.98514 21.9154L10.2158 22L10.4465 21.9154C13.393 20.8342 15.8981 18.9224 17.6909 16.3869C19.4839 13.8513 20.4316 10.8799 20.4316 7.79414V3.49993H19.7732ZM19.115 7.79414H19.1149C19.1149 10.6156 18.2484 13.3324 16.609 15.6508C15.0167 17.9027 12.8099 19.6165 10.2157 20.6188C7.62161 19.6164 5.41472 17.9027 3.82243 15.6508C2.1831 13.3324 1.31662 10.6156 1.31662 7.79414V4.74121C3.12097 4.46321 4.55013 3.06135 4.83356 1.29147H15.598C15.8814 3.06135 17.3106 4.46321 19.115 4.74121V7.79414Z" fill="#333333"/>
<path d="M13.1549 6.06665L8.79724 10.3411L7.27977 8.85262L4.48682 11.5923L8.79724 15.8203L15.9479 8.8063L13.1549 6.06665ZM6.34882 11.5924L7.27982 10.6791L8.79729 12.1676L13.1549 7.89317L14.0859 8.80638L8.79729 13.994L6.34882 11.5924Z" fill="#333333"/>
</svg>
