<svg width="75" height="76" viewBox="0 0 75 76" fill="none" xmlns="http://www.w3.org/2000/svg">
<path fill-rule="evenodd" clip-rule="evenodd" d="M49.954 0H53.6474C65.3426 0 74.8576 9.67842 74.8576 21.5748C74.8576 25.0209 74.0823 28.3146 72.5528 31.3644C71.2061 34.0496 69.2873 36.4533 66.9774 38.3561V46.9441C66.9774 47.5444 66.6219 48.0856 66.0767 48.3154C65.8962 48.3915 65.7065 48.4285 65.5183 48.4285C65.1386 48.4285 64.7656 48.2777 64.4865 47.994L59.0306 42.4475C57.2794 42.9136 55.4727 43.1494 53.6472 43.1494H49.9539C38.2586 43.1494 28.7437 33.4712 28.7437 21.5748C28.7437 9.67842 38.2586 0 49.954 0ZM58.3702 16.2421C58.1596 13.1345 55.6969 10.6295 52.6417 10.4153C50.9098 10.2943 49.257 10.8885 47.9919 12.0898C46.7442 13.2745 46.0287 14.9492 46.0287 16.6846C46.0287 17.5044 46.6822 18.1689 47.488 18.1689C48.2938 18.1689 48.9473 17.5044 48.9473 16.6846C48.9473 15.7555 49.3153 14.8944 49.9834 14.2601C50.6509 13.6265 51.5233 13.3128 52.4412 13.3772C54.0505 13.4901 55.3477 14.8095 55.4586 16.4463C55.5706 18.0995 54.5043 19.5604 52.9233 19.9202C51.6423 20.2117 50.7478 21.344 50.7478 22.6736V26.2398C50.7478 27.0596 51.4013 27.7242 52.2071 27.7242C53.0131 27.7242 53.6664 27.0596 53.6662 26.2398V22.7922C56.6067 22.0696 58.5796 19.3327 58.3702 16.2421ZM53.2394 31.062C52.968 30.7859 52.5915 30.6271 52.2077 30.6271C51.8239 30.6271 51.4474 30.7859 51.176 31.062C50.9045 31.3381 50.7484 31.7211 50.7484 32.1115C50.7484 32.5033 50.9047 32.8863 51.176 33.1624C51.4474 33.4385 51.8239 33.5958 52.2077 33.5958C52.5915 33.5958 52.968 33.4385 53.2394 33.1624C53.5108 32.8848 53.667 32.5033 53.667 32.1115C53.667 31.7211 53.5107 31.3381 53.2394 31.062Z" fill="#D33234"/>
<path fill-rule="evenodd" clip-rule="evenodd" d="M50.7746 47C50.0985 47 50.1244 47.7153 50.1502 48.4298C50.1552 48.5669 50.1602 48.704 50.1602 48.8359V59.0781C50.1602 63.1705 45.9038 67.5 41.8805 67.5H27.1079C26.9104 67.5 26.7221 67.4798 26.5504 67.4614C26.0213 67.4047 25.649 67.3648 25.6486 67.9833L25.6465 72.9346L21.1804 68.3918C20.9549 67.8653 20.4389 67.5 19.842 67.5H10.3596C6.33635 67.5 2.08003 63.1705 2.08003 59.0781V36.2188C2.08003 32.1263 6.33635 27.7969 10.3596 27.7969H25.0986L25.1627 27.7969C25.9455 27.7975 26.6884 27.7981 26.6884 27C26.6884 26.1802 25.9044 25.8281 25.0986 25.8281H10.3596C4.72703 25.8281 0.144531 30.4894 0.144531 36.2188V59.0781C0.144531 64.8075 4.72703 69.4688 10.3596 69.4688H19.0947L25.0882 75.5652C25.3674 75.8492 25.7405 76 26.1204 76C26.3082 76 26.4978 75.963 26.678 75.8872C27.2233 75.6577 27.579 75.1168 27.5794 74.5167L27.5829 69.4688H41.8805C47.5132 69.4688 52.0956 64.8075 52.0956 59.0781V48.8359C52.0956 48.0161 51.5804 47 50.7746 47ZM37.3367 47H13.0909C12.4564 47 11.9418 47.4477 11.9418 48C11.9418 48.5523 12.4564 49 13.0909 49H37.3367C37.9713 49 38.4857 48.5523 38.4857 48C38.4857 47.4477 37.9712 47 37.3367 47ZM39.4689 55C39.7274 55 39.9811 55.107 40.1638 55.293C40.3467 55.479 40.452 55.737 40.452 56C40.452 56.264 40.3468 56.521 40.1638 56.707C39.9811 56.893 39.7274 57 39.4689 57C39.2103 57 38.9567 56.893 38.7738 56.707C38.5909 56.521 38.4857 56.263 38.4857 56C38.4857 55.737 38.5908 55.479 38.7738 55.293C38.9567 55.107 39.2103 55 39.4689 55ZM32.4418 55H13.0703C12.4471 55 11.9418 55.4477 11.9418 56C11.9418 56.5523 12.4471 57 13.0703 57H32.4418C33.065 57 33.5702 56.5523 33.5702 56C33.5702 55.4477 33.0649 55 32.4418 55ZM13.1263 38H30.4195C31.0736 38 31.604 38.4477 31.604 39C31.604 39.5523 31.0737 40 30.4195 40H13.1263C12.4722 40 11.9418 39.5523 11.9418 39C11.9418 38.4477 12.4722 38 13.1263 38Z" fill="#333333"/>
</svg>
