<svg width="89" height="90" viewBox="0 0 89 90" fill="none" xmlns="http://www.w3.org/2000/svg">
<path d="M41.7471 34.1333C40.7392 34.1335 39.7422 34.3451 38.819 34.7548V31.1666C38.8144 27.8443 37.5886 24.6428 35.3807 22.1864C33.1728 19.7301 30.141 18.1949 26.8766 17.8804C28.3536 16.4465 29.3732 14.5977 29.8044 12.5717C30.2355 10.5458 30.0583 8.43546 29.2957 6.51237C28.5331 4.58928 27.22 2.9414 25.5252 1.7808C23.8305 0.620205 21.8317 0 19.7861 0C17.7405 0 15.7417 0.620205 14.047 1.7808C12.3522 2.9414 11.0391 4.58928 10.2765 6.51237C9.51385 8.43546 9.33672 10.5458 9.76785 12.5717C10.199 14.5977 11.2186 16.4465 12.6956 17.8804C9.43119 18.1949 6.39941 19.7301 4.19149 22.1864C1.98357 24.6428 0.757811 27.8443 0.75325 31.1666V59.3499C0.75325 59.7433 0.907499 60.1206 1.18206 60.3987C1.45663 60.6769 1.82902 60.8332 2.21732 60.8332H13.0792C12.5919 61.9619 12.3899 63.1959 12.4913 64.4236C12.5926 65.6512 12.9943 66.834 13.6599 67.865C14.3255 68.896 15.2341 69.7428 16.3037 70.3289C17.3733 70.9149 18.5701 71.2218 19.7861 71.2218C21.0021 71.2218 22.1989 70.9149 23.2685 70.3289C24.3381 69.7428 25.2467 68.896 25.9123 67.865C26.5779 66.834 26.9796 65.6512 27.0809 64.4236C27.1823 63.1959 26.9803 61.9619 26.493 60.8332H37.3549C37.7432 60.8332 38.1156 60.6769 38.3901 60.3987C38.6647 60.1206 38.819 59.7433 38.819 59.3499V48.345C39.8164 48.787 40.8986 48.9981 41.9867 48.9627C43.0749 48.9274 44.1415 48.6467 45.109 48.1409C46.0765 47.6351 46.9205 46.9171 47.5794 46.0391C48.2384 45.161 48.6958 44.1452 48.9182 43.0654C49.1407 41.9857 49.1226 40.8693 48.8654 39.7975C48.6082 38.7257 48.1182 37.7256 47.4312 36.8699C46.7443 36.0142 45.8776 35.3245 44.8942 34.8511C43.9109 34.3777 42.8358 34.1325 41.7471 34.1333ZM22.7142 20.7833C22.7142 21.1767 22.56 21.554 22.2854 21.8322C22.0109 22.1103 21.6385 22.2666 21.2502 22.2666H18.322C17.9337 22.2666 17.5613 22.1103 17.2868 21.8322C17.0122 21.554 16.858 21.1767 16.858 20.7833H22.7142ZM19.6148 25.2333H19.9574L22.6527 47.0723L19.7861 50.9438L16.9195 47.0723L19.6148 25.2333ZM12.4658 10.4C12.4658 8.93311 12.8951 7.49917 13.6995 6.27951C14.5038 5.05985 15.6471 4.10924 16.9847 3.54789C18.3223 2.98654 19.7942 2.83967 21.2142 3.12584C22.6342 3.41201 23.9386 4.11838 24.9624 5.15562C25.9861 6.19286 26.6833 7.51438 26.9658 8.95306C27.2482 10.3918 27.1033 11.883 26.5492 13.2382C25.9951 14.5934 25.0569 15.7517 23.8531 16.5667C22.6492 17.3816 21.2339 17.8166 19.7861 17.8166C17.8453 17.8143 15.9847 17.0321 14.6124 15.6417C13.2401 14.2514 12.4681 12.3663 12.4658 10.4ZM41.7471 45.9999C41.1236 45.9987 40.5075 45.863 39.9398 45.6019C39.372 45.3408 38.8657 44.9602 38.4544 44.4854C38.2579 44.2589 37.9978 44.0985 37.709 44.0256C37.4202 43.9526 37.1163 43.9706 36.8378 44.0771C36.5593 44.1836 36.3195 44.3736 36.1503 44.6217C35.9811 44.8698 35.8906 45.1643 35.8908 45.4659V57.8665H23.6512C23.3536 57.8663 23.0629 57.958 22.818 58.1295C22.5731 58.3009 22.3856 58.5438 22.2805 58.826C22.1754 59.1081 22.1576 59.416 22.2296 59.7087C22.3016 60.0013 22.4599 60.2647 22.6835 60.4638C23.3547 61.0607 23.8303 61.8506 24.047 62.7284C24.2637 63.6061 24.2112 64.5299 23.8965 65.3767C23.5817 66.2234 23.0197 66.9528 22.2853 67.4676C21.5509 67.9824 20.6791 68.2583 19.7861 68.2583C18.8931 68.2583 18.0213 67.9824 17.2869 67.4676C16.5525 66.9528 15.9905 66.2234 15.6757 65.3767C15.361 64.5299 15.3085 63.6061 15.5252 62.7284C15.7419 61.8506 16.2175 61.0607 16.8887 60.4638C17.1123 60.2647 17.2706 60.0013 17.3426 59.7087C17.4146 59.416 17.3968 59.1081 17.2917 58.826C17.1866 58.5438 16.9991 58.3009 16.7542 58.1295C16.5093 57.958 16.2186 57.8663 15.921 57.8665H3.68138V31.1666C3.68448 28.4137 4.76522 25.7745 6.68651 23.828C8.6078 21.8814 11.2127 20.7864 13.9298 20.7833C13.9315 21.6734 14.1966 22.5426 14.691 23.2785C15.1853 24.0144 15.8861 24.5832 16.7028 24.9114L13.9416 47.2993C13.8944 47.6806 13.9952 48.0657 14.2227 48.3732L18.6148 54.3065C18.7512 54.4908 18.9281 54.6403 19.1314 54.7433C19.3346 54.8463 19.5588 54.8999 19.7861 54.8999C20.0134 54.8999 20.2376 54.8463 20.4408 54.7433C20.6441 54.6403 20.821 54.4908 20.9574 54.3065L25.3495 48.3732C25.577 48.0657 25.6778 47.6806 25.6307 47.2993L22.8694 24.9114C23.6861 24.5832 24.3869 24.0144 24.8813 23.2785C25.3756 22.5426 25.6407 21.6734 25.6424 20.7833C28.3595 20.7864 30.9644 21.8814 32.8857 23.828C34.807 25.7745 35.8877 28.4137 35.8908 31.1666V37.6339C35.8909 37.9354 35.9817 38.2296 36.151 38.4775C36.3203 38.7254 36.5601 38.9151 36.8385 39.0215C37.1169 39.1278 37.4207 39.1456 37.7094 39.0727C37.9981 38.9997 38.2579 38.8393 38.4544 38.6129C38.9392 38.0538 39.5547 37.6268 40.2446 37.371C40.9345 37.1152 41.6766 37.0388 42.4031 37.1488C43.1297 37.2588 43.8174 37.5516 44.4033 38.0005C44.9892 38.4494 45.4547 39.0401 45.757 39.7184C46.0594 40.3967 46.189 41.141 46.134 41.8831C46.0789 42.6253 45.8411 43.3417 45.4421 43.9666C45.0432 44.5916 44.4959 45.1051 43.8504 45.4604C43.2048 45.8156 42.4817 46.0011 41.7471 45.9999Z" fill="#333333"/>
<path d="M72.4912 11.8831C72.1029 11.8831 71.7305 11.7268 71.456 11.4486C71.1814 11.1705 71.0271 10.7932 71.0271 10.3998V8.91644C71.0271 8.52303 71.1814 8.14574 71.456 7.86756C71.7305 7.58938 72.1029 7.43311 72.4912 7.43311C72.8795 7.43311 73.2519 7.58938 73.5265 7.86756C73.801 8.14574 73.9553 8.52303 73.9553 8.91644V10.3998C73.9553 10.7932 73.801 11.1705 73.5265 11.4486C73.2519 11.7268 72.8795 11.8831 72.4912 11.8831Z" fill="#D33234"/>
<path d="M87.1312 56.3832H79.1974C79.634 55.3702 79.8417 54.2712 79.8052 53.1665C79.7687 52.0618 79.489 50.9793 78.9864 49.9982C78.4839 49.0172 77.7712 48.1623 76.9006 47.4962C76.03 46.83 75.0235 46.3695 73.9546 46.1482V41.2769C74.808 40.9712 75.5473 40.4059 76.0715 39.6582C76.5956 38.9105 76.8789 38.017 76.8827 37.0999V35.6165H78.3468C78.7351 35.6165 79.1075 35.4603 79.382 35.1821C79.6566 34.9039 79.8108 34.5266 79.8108 34.1332V28.1999C79.8108 27.8065 79.6566 27.4292 79.382 27.151C79.1075 26.8728 78.7351 26.7166 78.3468 26.7166V26.2004C78.348 25.9402 78.4174 25.685 78.5478 25.4609C78.6782 25.2368 78.865 25.0518 79.089 24.9247C81.5977 23.4544 83.5579 21.1871 84.6661 18.474C85.7744 15.7609 85.9689 12.7533 85.2194 9.91684C84.47 7.08042 82.8185 4.57345 80.5206 2.78413C78.2227 0.99481 75.4067 0.0229551 72.5085 0.0190548C69.6104 0.0151544 66.7918 0.979426 64.4892 2.76256C62.1866 4.54569 60.5286 7.0482 59.7717 9.88259C59.0148 12.717 59.2014 15.7251 60.3025 18.4412C61.4037 21.1573 63.3579 23.4298 65.8627 24.9069C66.0927 25.0352 66.2853 25.2228 66.4208 25.4507C66.5563 25.6786 66.6299 25.9388 66.6342 26.2048V26.7166C66.2459 26.7166 65.8736 26.8728 65.599 27.151C65.3244 27.4292 65.1702 27.8065 65.1702 28.1999V34.1332C65.1702 34.5266 65.3244 34.9039 65.599 35.1821C65.8736 35.4603 66.2459 35.6165 66.6342 35.6165H68.0983V37.0999C68.1021 38.017 68.3854 38.9105 68.9095 39.6582C69.4337 40.4059 70.173 40.9712 71.0264 41.2769V46.1482C69.9576 46.3695 68.951 46.83 68.0804 47.4962C67.2098 48.1623 66.4972 49.0172 65.9946 49.9982C65.4921 50.9793 65.2123 52.0618 65.1758 53.1665C65.1393 54.2712 65.347 55.3702 65.7836 56.3832H57.8499C57.4616 56.3832 57.0892 56.5394 56.8146 56.8176C56.54 57.0958 56.3858 57.4731 56.3858 57.8665V65.9046C55.2717 65.411 54.0538 65.2062 52.842 65.309C51.6303 65.4117 50.4629 65.8186 49.4453 66.493C48.4277 67.1674 47.5919 68.0879 47.0134 69.1716C46.435 70.2552 46.132 71.4678 46.132 72.6998C46.132 73.9318 46.435 75.1443 47.0134 76.228C47.5919 77.3116 48.4277 78.2322 49.4453 78.9066C50.4629 79.581 51.6303 79.9879 52.842 80.0906C54.0538 80.1933 55.2717 79.9886 56.3858 79.4949V87.5331C56.3858 87.9265 56.54 88.3038 56.8146 88.5819C57.0892 88.8601 57.4616 89.0164 57.8499 89.0164H68.6254C68.923 89.0166 69.2137 88.9249 69.4586 88.7535C69.7035 88.5821 69.891 88.3391 69.9961 88.0569C70.1012 87.7748 70.119 87.4669 70.047 87.1743C69.975 86.8817 69.8167 86.6182 69.5931 86.4191C68.922 85.8222 68.4463 85.0323 68.2296 84.1545C68.0129 83.2768 68.0654 82.353 68.3802 81.5063C68.6949 80.6595 69.2569 79.9301 69.9913 79.4153C70.7257 78.9005 71.5975 78.6247 72.4905 78.6247C73.3835 78.6247 74.2554 78.9005 74.9897 79.4153C75.7241 79.9301 76.2861 80.6595 76.6009 81.5063C76.9156 82.353 76.9681 83.2768 76.7514 84.1545C76.5347 85.0323 76.0591 85.8222 75.3879 86.4191C75.1643 86.6182 75.006 86.8817 74.934 87.1743C74.862 87.4669 74.8798 87.7748 74.9849 88.0569C75.09 88.3391 75.2775 88.5821 75.5224 88.7535C75.7673 88.9249 76.058 89.0166 76.3556 89.0164H87.1312C87.5195 89.0164 87.8918 88.8601 88.1664 88.5819C88.441 88.3038 88.5952 87.9265 88.5952 87.5331V57.8665C88.5952 57.4731 88.441 57.0958 88.1664 56.8176C87.8918 56.5394 87.5195 56.3832 87.1312 56.3832ZM76.8827 32.6499H68.0983V29.6832H76.8827V32.6499ZM67.3385 22.3452C65.9387 21.5211 64.7516 20.3729 63.8742 18.9944C62.9969 17.6159 62.4544 16.0465 62.2912 14.4146C62.1279 12.7828 62.3485 11.135 62.935 9.60615C63.5214 8.07735 64.457 6.71105 65.665 5.61917C67.0545 4.36279 68.7556 3.51374 70.5855 3.16326C72.4154 2.81279 74.305 2.97413 76.0513 3.62995C77.7975 4.28578 79.3343 5.4113 80.4966 6.88556C81.6589 8.35982 82.4028 10.1271 82.6482 11.9975C82.9101 14.0348 82.5721 16.1052 81.6766 17.9485C80.7811 19.7919 79.368 21.3261 77.6147 22.3585C76.95 22.7495 76.3976 23.3096 76.0124 23.9835C75.6271 24.6574 75.4225 25.4216 75.4186 26.2004V26.7166H73.9546V16.3333C73.9546 15.9399 73.8003 15.5626 73.5258 15.2844C73.2512 15.0062 72.8788 14.8499 72.4905 14.8499C72.1022 14.8499 71.7298 15.0062 71.4553 15.2844C71.1807 15.5626 71.0264 15.9399 71.0264 16.3333V26.7166H69.5624V26.2048C69.5548 25.4211 69.3457 24.653 68.9557 23.9761C68.5658 23.2993 68.0083 22.7372 67.3385 22.3452ZM73.9546 35.6165V37.0999C73.9546 37.4933 73.8003 37.8706 73.5258 38.1488C73.2512 38.4269 72.8788 38.5832 72.4905 38.5832C72.1022 38.5832 71.7298 38.4269 71.4553 38.1488C71.1807 37.8706 71.0264 37.4933 71.0264 37.0999V35.6165H73.9546ZM85.6671 86.0497H79.1974C79.6847 84.921 79.8867 83.6871 79.7853 82.4594C79.684 81.2317 79.2823 80.0489 78.6167 79.0179C77.9511 77.9869 77.0425 77.1401 75.9729 76.5541C74.9033 75.968 73.7065 75.6611 72.4905 75.6611C71.2745 75.6611 70.0777 75.968 69.0081 76.5541C67.9386 77.1401 67.0299 77.9869 66.3643 79.0179C65.6987 80.0489 65.297 81.2317 65.1957 82.4594C65.0943 83.6871 65.2964 84.921 65.7836 86.0497H59.3139V76.6158C59.3141 76.3142 59.2236 76.0197 59.0544 75.7716C58.8852 75.5235 58.6454 75.3335 58.3669 75.227C58.0884 75.1205 57.7845 75.1025 57.4957 75.1755C57.2069 75.2484 56.9469 75.4088 56.7503 75.6353C56.1611 76.3151 55.3814 76.7968 54.5151 77.0162C53.6488 77.2356 52.7371 77.1823 51.9015 76.8633C51.0659 76.5443 50.3461 75.9749 49.838 75.2309C49.33 74.4869 49.0578 73.6037 49.0578 72.699C49.0578 71.7943 49.33 70.9111 49.838 70.1671C50.3461 69.4231 51.0659 68.8537 51.9015 68.5348C52.7371 68.2158 53.6488 68.1625 54.5151 68.3819C55.3814 68.6013 56.1611 69.083 56.7503 69.7628C56.9468 69.9892 57.2067 70.1495 57.4954 70.2225C57.784 70.2955 58.0878 70.2777 58.3662 70.1713C58.6446 70.065 58.8845 69.8753 59.0538 69.6274C59.2231 69.3795 59.3138 69.0852 59.3139 68.7838V59.3498H68.6254C68.923 59.35 69.2137 59.2583 69.4586 59.0869C69.7035 58.9155 69.891 58.6725 69.9961 58.3904C70.1012 58.1082 70.119 57.8003 70.047 57.5077C69.975 57.2151 69.8167 56.9516 69.5931 56.7525C68.922 56.1557 68.4463 55.3657 68.2296 54.488C68.0129 53.6102 68.0654 52.6864 68.3802 51.8397C68.6949 50.993 69.2569 50.2636 69.9913 49.7487C70.7257 49.2339 71.5975 48.9581 72.4905 48.9581C73.3835 48.9581 74.2554 49.2339 74.9897 49.7487C75.7241 50.2636 76.2861 50.993 76.6009 51.8397C76.9156 52.6864 76.9681 53.6102 76.7514 54.488C76.5347 55.3657 76.0591 56.1557 75.3879 56.7525C75.1643 56.9516 75.006 57.2151 74.934 57.5077C74.862 57.8003 74.8798 58.1082 74.9849 58.3904C75.09 58.6725 75.2775 58.9155 75.5224 59.0869C75.7673 59.2583 76.058 59.35 76.3556 59.3498H85.6671V86.0497Z" fill="#D33234"/>
<path d="M31.4965 7.43311H34.4246V10.3998H31.4965V7.43311Z" fill="#333333"/>
<path d="M37.3569 7.43311H40.285V10.3998H37.3569V7.43311Z" fill="#333333"/>
<path d="M43.2096 7.43311H46.1377V10.3998H43.2096V7.43311Z" fill="#333333"/>
<path d="M49.0661 7.43311H51.9942V10.3998H49.0661V7.43311Z" fill="#333333"/>
<path d="M54.9226 7.43311H57.8508V10.3998H54.9226V7.43311Z" fill="#333333"/>
<path d="M18.3222 86.0498H21.2503V89.0165H18.3222V86.0498Z" fill="#D33234"/>
<path d="M18.3222 80.1167H21.2503V83.0834H18.3222V80.1167Z" fill="#D33234"/>
<path d="M18.3222 74.1831H21.2503V77.1498H18.3222V74.1831Z" fill="#D33234"/>
<path d="M24.1787 86.0498H27.1069V89.0165H24.1787V86.0498Z" fill="#D33234"/>
<path d="M30.0314 86.0498H32.9595V89.0165H30.0314V86.0498Z" fill="#D33234"/>
<path d="M35.8918 86.0498H38.8199V89.0165H35.8918V86.0498Z" fill="#D33234"/>
<path d="M41.7445 86.0498H44.6726V89.0165H41.7445V86.0498Z" fill="#D33234"/>
<path d="M47.6049 86.0498H50.533V89.0165H47.6049V86.0498Z" fill="#D33234"/>
</svg>
