<svg width="93" height="97" viewBox="0 0 93 97" fill="none" xmlns="http://www.w3.org/2000/svg">
<path d="M36.3728 87.2445C35.1409 87.2431 33.96 86.7467 33.0889 85.8642C32.2179 84.9817 31.7279 83.7852 31.7265 82.5372C31.7265 82.3311 31.6865 82.1271 31.6086 81.9367C31.5308 81.7463 31.4167 81.5733 31.2729 81.4276C31.1291 81.2819 30.9584 81.1663 30.7705 81.0875C30.5826 81.0086 30.3812 80.968 30.1778 80.968H28.629V71.5533H33.2753C34.5075 71.5533 35.6893 71.0573 36.5606 70.1745C37.432 69.2917 37.9215 68.0944 37.9215 66.8459C37.9215 65.5975 37.432 64.4001 36.5606 63.5173C35.6893 62.6345 34.5075 62.1386 33.2753 62.1386H28.629V41.74H42.5677C43.8 41.74 44.9818 41.244 45.8531 40.3612C46.7245 39.4784 47.214 38.2811 47.214 37.0326C47.214 35.7841 46.7245 34.5868 45.8531 33.704C44.9818 32.8212 43.8 32.3252 42.5677 32.3252H39.4702C38.0313 32.3228 36.6329 31.8423 35.4894 30.9574C34.3458 30.0725 33.5203 28.832 33.1394 27.4261L30.7259 18.46C30.4619 17.4857 29.8898 16.6261 29.0973 16.0129C28.3049 15.3996 27.3358 15.0666 26.3386 15.0649H5.30079C4.60372 15.0649 3.91599 15.2272 3.29072 15.5394C2.66545 15.8516 2.11938 16.3052 1.69469 16.8652C1.27001 17.4253 0.978077 18.0767 0.841454 18.7692C0.704831 19.4618 0.727172 20.1769 0.906753 20.8593V20.8594L4.86974 35.9158C5.31081 37.5853 6.28301 39.0609 7.63573 40.1138C8.98844 41.1668 10.6461 41.7383 12.352 41.74H19.3366V62.1386H17.7878C16.5556 62.1386 15.3738 62.6345 14.5024 63.5173C13.6311 64.4001 13.1416 65.5975 13.1416 66.8459C13.1416 68.0944 13.6311 69.2917 14.5024 70.1745C15.3738 71.0573 16.5556 71.5533 17.7878 71.5533H19.3366V80.968H17.7878C17.5844 80.968 17.383 81.0086 17.1951 81.0875C17.0072 81.1663 16.8365 81.2819 16.6927 81.4276C16.5489 81.5733 16.4348 81.7463 16.357 81.9367C16.2791 82.1271 16.2391 82.3311 16.2391 82.5372C16.2377 83.7852 15.7477 84.9817 14.8767 85.8642C14.0056 86.7467 12.8247 87.2431 11.5928 87.2445C9.53979 87.2469 7.57149 88.0742 6.11976 89.545C4.66804 91.0159 3.85144 93.0101 3.84912 95.0901C3.84912 95.2962 3.88917 95.5002 3.967 95.6906C4.04483 95.881 4.15891 96.054 4.30273 96.1997C4.44654 96.3454 4.61727 96.461 4.80518 96.5398C4.99308 96.6187 5.19448 96.6593 5.39787 96.6593H42.5677C42.7711 96.6593 42.9725 96.6187 43.1604 96.5398C43.3483 96.461 43.5191 96.3454 43.6629 96.1997C43.8067 96.054 43.9208 95.881 43.9986 95.6906C44.0764 95.5002 44.1165 95.2962 44.1165 95.0901C44.1142 93.0101 43.2976 91.0159 41.8458 89.545C40.3941 88.0742 38.4258 87.2469 36.3728 87.2445ZM42.5677 35.4635C42.9785 35.4635 43.3724 35.6288 43.6629 35.9231C43.9533 36.2173 44.1165 36.6164 44.1165 37.0326C44.1165 37.4488 43.9533 37.8479 43.6629 38.1421C43.3724 38.4364 42.9785 38.6017 42.5677 38.6017H22.8136C23.1688 37.5866 23.1688 36.4786 22.8136 35.4635H42.5677ZM27.7374 19.2857L30.151 28.2519C30.561 29.7732 31.3292 31.171 32.3897 32.3252H18.4337C16.9948 32.3228 15.5964 31.8423 14.4528 30.9574C13.3093 30.0725 12.4838 28.832 12.1029 27.4261L9.68934 18.4599C9.66583 18.3726 9.6369 18.288 9.60866 18.2031H26.3386C26.6566 18.2037 26.9656 18.3099 27.2183 18.5054C27.4709 18.701 27.6533 18.9751 27.7374 19.2857ZM12.352 38.6017C11.3285 38.6008 10.3339 38.2578 9.52223 37.626C8.71061 36.9943 8.12729 36.1089 7.86268 35.1072L3.89969 20.0507V20.0508C3.84243 19.8332 3.83531 19.6051 3.87887 19.3843C3.92243 19.1635 4.01552 18.9558 4.15094 18.7772C4.28635 18.5986 4.46047 18.454 4.65985 18.3544C4.85923 18.2549 5.07852 18.2031 5.30079 18.2031H5.30211C5.62007 18.2037 5.92908 18.3099 6.18176 18.5054C6.43444 18.701 6.61685 18.9751 6.70103 19.2857L9.11451 28.2519C9.67526 30.3213 10.8904 32.1473 12.5738 33.4499C14.2571 34.7526 16.3156 35.4599 18.4337 35.4635C18.8445 35.4635 19.2384 35.6288 19.5289 35.9231C19.8193 36.2173 19.9825 36.6164 19.9825 37.0326C19.9825 37.4488 19.8193 37.8479 19.5289 38.1421C19.2384 38.4364 18.8445 38.6017 18.4337 38.6017H12.352ZM22.4341 41.74H25.5315V62.1386H22.4341V41.74ZM16.2391 66.8459C16.2395 66.4299 16.4029 66.0311 16.6932 65.7369C16.9836 65.4428 17.3772 65.2773 17.7878 65.2768H33.2753C33.686 65.2768 34.0799 65.4421 34.3704 65.7364C34.6608 66.0307 34.824 66.4298 34.824 66.8459C34.824 67.2621 34.6608 67.6612 34.3704 67.9555C34.0799 68.2497 33.686 68.4151 33.2753 68.4151H17.7878C17.3772 68.4146 16.9836 68.2491 16.6932 67.9549C16.4029 67.6608 16.2395 67.2619 16.2391 66.8459ZM22.4341 71.5533H25.5315V80.968H22.4341V71.5533ZM7.21204 93.521C7.53334 92.6038 8.12686 91.8099 8.9112 91.248C9.69554 90.6861 10.6323 90.3839 11.5928 90.3828C13.3772 90.3804 15.1062 89.7548 16.4884 88.6115C17.8706 87.4682 18.8216 85.8771 19.181 84.1063H28.7846C29.0147 85.2448 29.4927 86.3169 30.1836 87.2445H20.8853V90.3828H36.3728C37.3333 90.3839 38.2701 90.6861 39.0544 91.248C39.8387 91.8099 40.4323 92.6038 40.7536 93.521H7.21204Z" fill="#333333"/>
<path d="M91.8056 1.80044C91.3826 1.23853 90.8369 0.783553 90.2112 0.471182C89.5855 0.158811 88.897 -0.00245614 88.1995 2.82753e-05H67.1616C66.1644 0.00174478 65.1954 0.334754 64.4029 0.948001C63.6105 1.56125 63.0384 2.42089 62.7744 3.39513L60.3608 12.3613C59.9799 13.7671 59.1544 15.0076 58.0109 15.8925C56.8674 16.7775 55.4689 17.258 54.03 17.2604H50.9325C49.7002 17.2604 48.5185 17.7563 47.6471 18.6391C46.7758 19.5219 46.2863 20.7193 46.2863 21.9677C46.2863 23.2162 46.7758 24.4136 47.6471 25.2964C48.5185 26.1792 49.7002 26.6751 50.9325 26.6751H64.8712V47.0737H60.225C58.9927 47.0737 57.8109 47.5697 56.9396 48.4525C56.0683 49.3353 55.5787 50.5326 55.5787 51.7811C55.5787 53.0295 56.0683 54.2269 56.9396 55.1097C57.8109 55.9925 58.9927 56.4884 60.225 56.4884H64.8712V65.9032H63.3225C63.1191 65.9032 62.9177 65.9438 62.7298 66.0226C62.5419 66.1015 62.3711 66.217 62.2273 66.3628C62.0835 66.5085 61.9694 66.6814 61.8916 66.8718C61.8138 67.0622 61.7737 67.2662 61.7737 67.4723C61.7723 68.7203 61.2823 69.9168 60.4113 70.7993C59.5403 71.6818 58.3593 72.1782 57.1275 72.1797C55.0744 72.182 53.1061 73.0094 51.6544 74.4802C50.2027 75.951 49.3861 77.9452 49.3838 80.0253C49.3838 80.2313 49.4238 80.4354 49.5016 80.6258C49.5795 80.8161 49.6935 80.9891 49.8374 81.1348C49.9812 81.2805 50.1519 81.3961 50.3398 81.475C50.5277 81.5538 50.7291 81.5944 50.9325 81.5944H88.1024C88.3058 81.5944 88.5071 81.5538 88.6951 81.475C88.883 81.3961 89.0537 81.2805 89.1975 81.1348C89.3413 80.9891 89.4554 80.8161 89.5332 80.6258C89.6111 80.4354 89.6511 80.2313 89.6511 80.0253C89.6488 77.9452 88.8322 75.951 87.3805 74.4802C85.9287 73.0094 83.9604 72.182 81.9074 72.1797C80.6756 72.1782 79.4946 71.6818 78.6236 70.7993C77.7525 69.9168 77.2626 68.7203 77.2612 67.4723C77.2612 67.2662 77.2211 67.0622 77.1433 66.8718C77.0654 66.6814 76.9514 66.5085 76.8076 66.3628C76.6637 66.217 76.493 66.1015 76.3051 66.0226C76.1172 65.9438 75.9158 65.9032 75.7124 65.9032H74.1637V56.4884H75.7124C76.9447 56.4884 78.1265 55.9925 78.9978 55.1097C79.8691 54.2269 80.3586 53.0295 80.3586 51.7811C80.3586 50.5326 79.8691 49.3353 78.9978 48.4525C78.1265 47.5697 76.9447 47.0737 75.7124 47.0737H74.1637V26.6751H81.1482C82.8541 26.6735 84.5118 26.1019 85.8645 25.049C87.2172 23.9961 88.1894 22.5206 88.6305 20.851L92.5935 5.7945V5.79441C92.7755 5.11225 92.7991 4.39664 92.6624 3.70369C92.5257 3.01074 92.2325 2.35929 91.8056 1.80044ZM63.3492 13.187L65.7628 4.22088C65.8469 3.91022 66.0293 3.6361 66.282 3.44055C66.5347 3.245 66.8437 3.13882 67.1616 3.13827H83.8915C83.8633 3.22322 83.8343 3.30783 83.8108 3.39513L81.3973 12.3613C81.0164 13.7671 80.1909 15.0076 79.0474 15.8925C77.9039 16.7775 76.5054 17.258 75.0665 17.2604H61.1105C62.1711 16.1061 62.9393 14.7083 63.3492 13.187ZM49.3838 21.9677C49.3842 21.5517 49.5476 21.1529 49.8379 20.8587C50.1282 20.5646 50.5219 20.3991 50.9325 20.3986H70.6867C70.3315 21.4137 70.3315 22.5217 70.6867 23.5369H50.9325C50.5219 23.5364 50.1282 23.3709 49.8379 23.0768C49.5476 22.7826 49.3842 22.3838 49.3838 21.9677ZM75.7182 72.1797H66.4199V75.3179H81.9074C82.868 75.319 83.8047 75.6213 84.589 76.1831C85.3734 76.745 85.9669 77.539 86.2882 78.4562H52.7467C53.068 77.539 53.6615 76.745 54.4458 76.1831C55.2302 75.6213 56.1669 75.319 57.1275 75.3179C58.9118 75.3155 60.6408 74.6899 62.0231 73.5467C63.4053 72.4034 64.3562 70.8122 64.7156 69.0414H74.3193C74.5494 70.1799 75.0273 71.252 75.7182 72.1797ZM71.0662 65.9032H67.9687V56.4884H71.0662V65.9032ZM77.2612 51.7811C77.2607 52.1971 77.0974 52.5959 76.807 52.8901C76.5167 53.1843 76.123 53.3497 75.7124 53.3502H60.225C59.8142 53.3502 59.4203 53.1849 59.1298 52.8906C58.8394 52.5963 58.6762 52.1972 58.6762 51.7811C58.6762 51.3649 58.8394 50.9658 59.1298 50.6715C59.4203 50.3773 59.8142 50.212 60.225 50.212H75.7124C76.123 50.2124 76.5167 50.3779 76.807 50.6721C77.0974 50.9662 77.2607 51.3651 77.2612 51.7811ZM71.0662 47.0737H67.9687V26.6751H71.0662V47.0737ZM89.6005 4.9859V4.9858L85.6376 20.0424C85.3729 21.0442 84.7896 21.9295 83.978 22.5612C83.1664 23.193 82.1717 23.5359 81.1482 23.5369H75.0665C74.6558 23.5369 74.2618 23.3716 73.9714 23.0773C73.6809 22.783 73.5178 22.3839 73.5178 21.9677C73.5178 21.5516 73.6809 21.1525 73.9714 20.8582C74.2618 20.5639 74.6558 20.3986 75.0665 20.3986C77.1847 20.395 79.2432 19.6877 80.9265 18.3851C82.6098 17.0825 83.825 15.2565 84.3857 13.187L86.7991 4.22097C86.8833 3.9103 87.0657 3.63617 87.3184 3.44061C87.5711 3.24505 87.8801 3.13885 88.1981 3.13827H88.1995C88.4217 3.13828 88.641 3.19005 88.8404 3.28959C89.0398 3.38913 89.2139 3.53377 89.3493 3.71235C89.4847 3.89092 89.5778 4.09864 89.6214 4.31947C89.6649 4.54029 89.6578 4.76831 89.6005 4.9859Z" fill="#D33234"/>
</svg>
