<svg width="94" height="99" viewBox="0 0 94 99" fill="none" xmlns="http://www.w3.org/2000/svg">
<path d="M33.7364 61.2924H28.0327C26.2562 61.2924 24.8106 59.8286 24.8106 58.0279V54.8069C24.8106 54.6167 24.6778 54.4521 24.4811 54.3972C22.5034 53.8513 20.5963 53.0484 18.813 52.0116C18.6513 51.9176 18.4606 51.9364 18.3396 52.0589L16.0688 54.3596C15.4603 54.9761 14.6514 55.3152 13.7906 55.3152C12.9305 55.3152 12.1209 54.9761 11.5124 54.3596L7.47915 50.2733C6.87064 49.6568 6.53522 48.8365 6.53522 47.9651C6.53522 47.093 6.87064 46.2727 7.47915 45.6569L9.7492 43.3563C9.8709 43.2337 9.88945 43.0405 9.79595 42.8766C8.77335 41.0699 7.9808 39.1376 7.44205 37.1339C7.38787 36.9347 7.22536 36.8001 7.03761 36.8001H3.85851C2.08195 36.8001 0.636368 35.3355 0.636368 33.5356V27.7568C0.636368 25.9569 2.08195 24.4923 3.85851 24.4923H7.03761C7.22536 24.4923 7.38787 24.3585 7.44205 24.1585C7.9808 22.1556 8.77335 20.2233 9.79669 18.4158C9.88945 18.2519 9.8709 18.0587 9.74994 17.9362L7.47915 15.6355C6.87064 15.0197 6.53522 14.1995 6.53522 13.3273C6.53522 12.4559 6.87064 11.6356 7.47915 11.0191L11.5124 6.93282C12.1209 6.3163 12.9298 5.97722 13.7906 5.97722C14.6514 5.97722 15.461 6.3163 16.0695 6.93357L18.3396 9.23349C18.4606 9.35604 18.6505 9.37483 18.813 9.28085C20.5963 8.24405 22.5027 7.44182 24.4804 6.89523C24.6785 6.84034 24.8106 6.67569 24.8106 6.48547V3.26454C24.8106 1.46461 26.2562 0 28.0327 0H33.7364C35.513 0 36.9586 1.46461 36.9586 3.26454V6.48547C36.9586 6.67569 37.0906 6.84034 37.288 6.89448C39.265 7.44107 41.1721 8.24405 42.9554 9.28085C43.1179 9.37483 43.3078 9.35604 43.4296 9.23349L45.6996 6.93282C46.9589 5.65768 48.9974 5.65693 50.2568 6.93357L50.6835 7.36589C52.0155 8.71471 50.0022 10.7582 48.6687 9.40716C48.406 9.1771 48.0691 8.61546 47.7151 8.97485L45.4443 11.2748C44.4173 12.3153 42.8106 12.5251 41.5372 11.7845C39.964 10.8703 38.2817 10.162 36.5385 9.68009C35.1078 9.28536 34.1082 7.97113 34.1082 6.48472V3.26454C34.1082 3.05628 33.9412 2.88711 33.7357 2.88711H28.032C27.8272 2.88711 27.6602 3.05628 27.6602 3.26454V6.48547C27.6602 7.97188 26.6606 9.28536 25.2299 9.68084C23.486 10.1628 21.8037 10.8703 20.2304 11.7845C18.9578 12.5251 17.3511 12.3153 16.3241 11.2748L14.054 8.97485C13.9635 8.88312 13.8611 8.86433 13.7906 8.86433C13.7201 8.86433 13.6177 8.88312 13.5279 8.97485L9.49392 13.0612C9.40412 13.1521 9.38483 13.2566 9.38483 13.3273C9.38483 13.3987 9.40412 13.5032 9.49392 13.5942L11.7647 15.8949C12.7918 16.9354 12.9988 18.5625 12.2678 19.8526C11.3655 21.4473 10.6664 23.151 10.1907 24.9179C9.80114 26.3674 8.50397 27.3794 7.03761 27.3794H3.85851C3.65295 27.3794 3.48598 27.5493 3.48598 27.7568V33.5356C3.48598 33.7438 3.65295 33.913 3.85851 33.913H7.03761C8.50397 33.913 9.80114 34.925 10.1915 36.3746C10.6664 38.1422 11.3655 39.8459 12.2678 41.4398C12.9988 42.73 12.7918 44.357 11.7647 45.3975L9.49466 47.6982C9.40412 47.7892 9.38557 47.8937 9.38557 47.9651C9.38557 48.0358 9.40487 48.1403 9.49466 48.232L13.5279 52.3176C13.6734 52.4649 13.9093 52.4657 14.0548 52.3176L16.3248 50.0177C17.3519 48.9771 18.9585 48.7673 20.2319 49.5079C21.8051 50.4222 23.4867 51.1304 25.2306 51.6123C26.6614 52.0071 27.6609 53.3213 27.6609 54.8077V58.0279C27.6609 58.2361 27.8279 58.4053 28.0327 58.4053H33.7364C33.942 58.4053 34.1089 58.2361 34.1089 58.0279V54.8077C34.1089 53.3213 35.1085 52.0071 36.5393 51.6123C38.3596 51.1101 39.1062 53.8957 37.2888 54.3972C37.0914 54.4521 36.9586 54.6167 36.9586 54.8077V58.0279C36.9586 59.8278 35.513 61.2924 33.7364 61.2924Z" fill="#D33234"/>
<path d="M17.4538 30.6463C17.4538 21.1008 26.9273 14.5575 35.6572 17.9273C37.4167 18.6077 36.4052 21.3061 34.642 20.6256C27.7525 17.9648 20.3027 23.1466 20.3027 30.6463C20.3027 36.7468 25.3741 41.7106 31.5141 41.3459C33.3916 41.2309 33.5675 44.1157 31.6818 44.2285C23.9396 44.6901 17.4538 38.4347 17.4538 30.6463Z" fill="#D33234"/>
<path d="M79.4809 64.1036L65.0444 61.2593V57.6452C69.0984 54.843 71.2935 50.8748 71.7714 46.4178C73.8759 46.2486 75.5367 44.46 75.5367 42.2856V39.3188C78.9674 37.8076 78.5043 32.7348 74.8748 31.8792V30.7342C74.8748 20.4391 66.6369 12.0928 56.4762 12.0928H54.9334C44.772 12.0928 36.5349 20.4391 36.5349 30.7334V31.8792C32.9068 32.7341 32.4408 37.8076 35.8729 39.3188V42.2856C35.8729 44.46 37.5337 46.2486 39.6383 46.4178C40.0553 50.3064 41.8541 53.8656 44.6919 56.3407C45.2351 56.8151 45.7931 57.2497 46.3653 57.6452V61.2593L31.9287 64.1036C24.312 65.6043 18.3753 69.9545 18.3753 77.9813V92.6642C18.3753 95.9129 20.9748 98.5466 24.1813 98.5466H87.2283C90.4349 98.5466 93.0344 95.9129 93.0344 92.6642V77.9813C93.0344 69.9808 87.1341 65.611 79.4809 64.1036ZM67.6216 64.7081C66.5872 66.2321 65.0058 68.5583 63.2975 71.0635C62.6014 72.0852 61.3525 72.2153 60.8642 71.9191L58.6134 70.5515C60.8085 69.238 63.8459 66.9824 64.7676 64.1457L67.6216 64.7081ZM55.7045 68.8681C53.5405 67.7643 49.2268 65.0374 49.2149 62.46C49.2149 62.4563 49.2149 62.4525 49.2149 62.4488V59.2391C53.3617 61.0511 58.0428 61.0533 62.1947 59.2391V62.4488C62.1947 65.0306 57.8706 67.7636 55.7045 68.8681ZM39.3845 30.7334C39.3845 24.8118 42.6259 19.6429 47.4057 16.9527V18.7624C47.4057 20.6706 50.2553 20.6737 50.2553 18.7624V15.7084C51.5339 15.2987 52.883 15.0528 54.2796 14.9942V22.1322C54.2796 24.0404 57.1293 24.0434 57.1293 22.1322V14.9942C58.5259 15.0528 59.8757 15.2987 61.1543 15.7084V18.7624C61.1543 20.6706 64.004 20.6737 64.004 18.7624V16.9527C68.7837 19.6429 72.0252 24.8118 72.0252 30.7334V31.777H39.3845V30.7334ZM37.415 34.6641H73.9947C75.3601 34.6641 75.3586 36.755 73.9947 36.755H37.415C36.0488 36.755 36.0503 34.6641 37.415 34.6641ZM42.3974 44.9562C42.381 44.1713 41.748 43.5435 40.9725 43.5435C40.7351 43.4841 38.7218 43.9186 38.7218 42.2856V39.6429H72.6871V42.2856C72.6871 43.9156 70.6204 43.4976 70.4364 43.5435C69.6616 43.5435 69.0286 44.1713 69.0116 44.9562C68.9351 48.5651 67.4213 51.9168 64.8588 54.1528C59.4171 58.9 51.9925 58.9008 46.5508 54.1528C43.9876 51.9168 42.4738 48.5651 42.3974 44.9562ZM46.6413 64.1457C47.5638 66.9824 50.6004 69.238 52.7962 70.5515C50.5403 71.7755 50.6998 72.1416 49.675 72.0191C49.0375 71.9416 48.4654 71.5822 48.1003 71.0469C46.3965 68.5478 44.8203 66.2283 43.7873 64.7081L46.6413 64.1457ZM30.2019 95.6595H24.1806C22.548 95.6595 21.2241 94.3182 21.2241 92.6642V77.9813C21.2241 73.6551 23.1639 70.6642 27.4191 68.5981C27.5912 69.3665 30.2019 76.546 30.2019 86.5779V95.6595ZM54.2796 95.6595H33.0515V86.5779C33.0515 75.7084 30.3429 68.7094 30.0765 67.5245C31.7402 66.9644 30.5047 67.3959 40.7373 65.3088C43.6782 69.6387 49.1667 77.7174 52.4022 82.3766C53.6311 84.1457 54.2796 86.2238 54.2796 88.3869V95.6595ZM55.7045 82.3495C55.421 81.7864 55.0967 81.2405 54.7331 80.7157C53.6392 79.1414 52.2196 77.0753 50.7384 74.9092C51.1785 74.8107 51.6081 74.6393 52.0111 74.3949L55.7045 72.1506L59.3986 74.3949C59.8008 74.6393 60.2312 74.8107 60.6712 74.9092C59.19 77.0738 57.7704 79.1399 56.6766 80.7157C56.3122 81.2405 55.9879 81.7864 55.7045 82.3495ZM90.1848 92.6642C90.1848 94.3182 88.8616 95.6595 87.2283 95.6595H81.207V90.2131C81.207 88.3049 78.3574 88.3019 78.3574 90.2131V95.6595H57.1293V88.3869C57.1293 86.2238 57.7786 84.1457 59.0067 82.3773C60.8471 79.7271 68.4246 68.6485 70.6723 65.3088C80.8998 67.3952 79.6664 66.9636 81.3324 67.5245C81.1254 68.4124 78.7277 75.0144 78.3967 84.3795C78.3285 86.2922 81.1766 86.3862 81.2441 84.4833C81.5647 75.4204 83.759 69.5891 83.9898 68.5981C88.245 70.6642 90.1848 73.6551 90.1848 77.9805V92.6642Z" fill="#333333"/>
</svg>
