<svg width="52" height="53" viewBox="0 0 52 53" fill="none" xmlns="http://www.w3.org/2000/svg">
<path d="M38.7961 32.322L35.3188 31.0457C34.8312 30.8665 34.2797 30.9966 33.9139 31.377L33.5171 31.7897L31.2188 30.5184L31.2186 28.3656C33.4633 26.8029 35.2598 24.1187 35.746 21.4565C35.7506 21.4316 35.7546 21.4068 35.759 21.382C35.7735 21.2982 35.7877 21.2143 35.7995 21.1305C35.8127 21.0386 35.8244 20.947 35.8344 20.8557C35.8382 20.8201 35.8411 20.7845 35.8444 20.749C35.8527 20.662 35.8594 20.5752 35.8645 20.4887C35.8661 20.4624 35.8678 20.4362 35.869 20.4099C35.8703 20.3836 35.8725 20.3572 35.8735 20.331C36.9931 20.3292 37.9034 19.3827 37.9034 18.2196V15.616C37.9018 15.0587 37.6052 14.5725 37.1685 14.3146L37.2125 14.2323C37.2133 14.2307 37.2139 14.229 37.2147 14.2275C37.2271 14.204 37.2384 14.1796 37.2485 14.1548C37.2512 14.1481 37.2531 14.1413 37.2556 14.1346C37.2629 14.1153 37.2697 14.0959 37.2753 14.0759C37.278 14.0665 37.28 14.057 37.2824 14.0476C37.2866 14.0302 37.2907 14.0128 37.2938 13.995C37.2958 13.9841 37.2972 13.9733 37.2986 13.9624C37.3008 13.9458 37.3028 13.9293 37.304 13.9124C37.3048 13.9007 37.3053 13.8891 37.3057 13.8774C37.306 13.8688 37.3069 13.8605 37.3069 13.852V9.89318C37.3069 4.43802 33.0332 0 27.7802 0H24.2179C18.9648 0 14.6911 4.43813 14.6911 9.89318V13.8368C14.691 13.8439 14.6922 13.8513 14.6923 13.8585C14.6925 13.8838 14.6938 13.9091 14.6964 13.9343C14.6975 13.9451 14.6983 13.9557 14.6998 13.9666C14.7049 14.0021 14.7117 14.0375 14.7215 14.0721C14.7216 14.0726 14.7217 14.0731 14.7218 14.0736C14.7224 14.0758 14.7234 14.0775 14.724 14.0796C14.7341 14.1139 14.7469 14.1475 14.7616 14.1804C14.766 14.1901 14.7703 14.1997 14.775 14.2093C14.7788 14.2169 14.7817 14.2248 14.7857 14.2323L14.8296 14.3147C14.3929 14.5728 14.0964 15.0595 14.0947 15.6183V18.2196C14.0947 19.3824 15.0046 20.3287 16.1238 20.331C16.125 20.3627 16.1275 20.3948 16.129 20.4267C16.1302 20.4518 16.1317 20.4769 16.1331 20.502C16.1385 20.5943 16.1457 20.687 16.1546 20.7799C16.1572 20.807 16.1592 20.8341 16.162 20.8613C16.1731 20.9653 16.1863 21.0695 16.2016 21.174C16.2102 21.2331 16.2205 21.292 16.2305 21.3512C16.2379 21.3953 16.2453 21.4394 16.2535 21.4835C16.2673 21.5581 16.282 21.6328 16.2977 21.7075C16.3004 21.7197 16.3032 21.7319 16.3058 21.7442C16.8602 24.3161 18.6113 26.8763 20.7794 28.3868L20.7792 30.5185L18.4814 31.7902L18.0843 31.3772C17.7187 30.9969 17.1673 30.867 16.6794 31.0459L5.97644 34.9739C2.84151 36.1244 0.679346 39.0972 0.468096 42.5474C0.44169 42.979 0.757245 43.3513 1.17294 43.3788C1.18929 43.3798 1.20544 43.3804 1.22159 43.3804C1.61626 43.3804 1.94817 43.0616 1.97356 42.6468C2.14642 39.8239 3.91492 37.3919 6.47907 36.4509L17.0874 32.5576L17.756 33.2529C17.7748 33.2725 17.7941 33.2915 17.8131 33.3109C17.8131 33.3109 17.8132 33.311 17.8133 33.3111C17.8139 33.3118 17.8147 33.3124 17.8153 33.313C20.0019 35.5556 22.9045 36.7901 25.999 36.7901C28.9948 36.7901 31.8107 35.633 33.9712 33.5245C33.9713 33.5244 33.9714 33.5243 33.9716 33.5242C34.042 33.4555 34.1117 33.3858 34.1806 33.3152C34.1822 33.3137 34.1837 33.3121 34.1852 33.3106C34.1854 33.3104 34.1855 33.3102 34.1857 33.3101C34.2044 33.2909 34.2235 33.2722 34.2422 33.2528L34.9108 32.5575L38.2935 33.7989C38.6862 33.9432 39.1172 33.7293 39.256 33.3215C39.3949 32.9136 39.189 32.4661 38.7961 32.322ZM35.8778 16.6084H35.8779C36.0177 16.4258 36.1457 16.2316 36.2566 16.0238L36.3729 15.8058L36.3947 15.7647V18.2195C36.3947 18.5171 36.1635 18.759 35.8778 18.7635V16.6084V16.6084ZM16.12 18.7635C15.8344 18.7591 15.6031 18.5171 15.6031 18.2195V15.7647L15.7414 16.0238C15.8523 16.2316 15.9802 16.4258 16.12 16.6084V18.7635ZM16.1995 12.8293V9.89318C16.1995 5.30181 19.7965 1.56653 24.2178 1.56653H27.7801C32.2014 1.56653 35.7983 5.30191 35.7983 9.89318V12.8293C29.3661 11.1016 22.6319 11.1016 16.1995 12.8293ZM17.4276 15.7877C17.4267 15.7868 17.4257 15.7859 17.4248 15.785C17.4026 15.7602 17.38 15.7359 17.3587 15.7101C17.2465 15.5739 17.1465 15.4249 17.061 15.2646L16.5709 14.3461C22.7592 12.6828 29.2388 12.6828 35.4271 14.3461L34.9371 15.2646C34.8353 15.4553 34.7121 15.6289 34.5732 15.7851C34.5724 15.786 34.5713 15.7868 34.5704 15.7877C34.2956 16.0958 33.9568 16.3301 33.5855 16.4763C33.5845 16.4768 33.5835 16.4771 33.5825 16.4775C33.5437 16.4927 33.5045 16.5069 33.465 16.5201C33.4583 16.5223 33.4515 16.5244 33.4448 16.5266C33.3407 16.5607 33.2344 16.5874 33.1267 16.6076C33.1014 16.6123 33.0761 16.6171 33.0505 16.6211C33.0275 16.6247 33.0042 16.6277 32.9811 16.6306C32.9489 16.6346 32.9165 16.6381 32.884 16.6409C32.8654 16.6424 32.8468 16.6442 32.8282 16.6455C32.7762 16.6488 32.724 16.651 32.6714 16.651H19.3267C19.2742 16.651 19.222 16.6488 19.1699 16.6455C19.1512 16.6443 19.1327 16.6425 19.1141 16.6409C19.0816 16.6381 19.0493 16.6346 19.0171 16.6306C18.9939 16.6277 18.9706 16.6247 18.9476 16.6211C18.9221 16.6172 18.8968 16.6124 18.8714 16.6076C18.7637 16.5874 18.6573 16.5607 18.5532 16.5266C18.5465 16.5244 18.5398 16.5223 18.5331 16.5201C18.4936 16.5068 18.4544 16.4927 18.4155 16.4774C18.4146 16.4771 18.4136 16.4766 18.4127 16.4762C18.0412 16.33 17.7024 16.0958 17.4276 15.7877ZM17.6646 20.7142C17.6634 20.7029 17.6622 20.6915 17.661 20.6802C17.6515 20.5913 17.6443 20.5026 17.6391 20.4144C17.6383 20.4027 17.6373 20.391 17.6367 20.3793C17.6314 20.281 17.6284 20.1831 17.6284 20.086V17.8327C17.6311 17.8339 17.6339 17.835 17.6366 17.8362C17.6962 17.8643 17.7564 17.8909 17.8173 17.916C17.8283 17.9205 17.8392 17.9247 17.8502 17.9292C18.0268 18.0001 18.2085 18.0585 18.3943 18.1036C18.4176 18.1093 18.4408 18.1157 18.4641 18.121C18.5075 18.1307 18.5513 18.1388 18.5952 18.1471C18.6355 18.1548 18.6759 18.1621 18.7165 18.1685C18.7545 18.1744 18.7925 18.1799 18.8307 18.1847C18.8817 18.1913 18.9329 18.1964 18.9841 18.201C19.0146 18.2036 19.0451 18.2068 19.0757 18.2088C19.159 18.2141 19.2426 18.2176 19.3266 18.2176H32.6712C32.7551 18.2176 32.8388 18.2141 32.9222 18.2088C32.9528 18.2068 32.9832 18.2036 33.0137 18.201C33.065 18.1964 33.1162 18.1913 33.1671 18.1847C33.2053 18.1799 33.2433 18.1745 33.2813 18.1685C33.3219 18.162 33.3623 18.1547 33.4027 18.1471C33.4464 18.1388 33.4902 18.1307 33.5336 18.121C33.557 18.1157 33.5802 18.1093 33.6036 18.1036C33.7893 18.0585 33.9709 18.0001 34.1474 17.9293C34.1584 17.9248 34.1695 17.9205 34.1805 17.9161C34.2414 17.891 34.3016 17.8644 34.3611 17.8365C34.3639 17.8352 34.3666 17.8341 34.3693 17.8329V20.0655C34.3693 20.1627 34.3663 20.2604 34.361 20.3587C34.3603 20.3715 34.3593 20.3844 34.3585 20.3972C34.3533 20.4836 34.3461 20.5703 34.3369 20.6573C34.3355 20.6713 34.334 20.6854 34.3325 20.6994C33.9849 23.7969 31.1993 27.2958 28.3638 28.028L28.2641 28.0538C26.2028 28.5861 25.681 28.5849 23.6118 28.0431C20.786 27.3028 18.0091 23.8035 17.6646 20.7142ZM19.6521 32.9171L21.4452 31.9249C21.9524 31.7244 22.2876 31.2243 22.2876 30.6538L22.2877 29.2309C22.6025 29.3652 22.9215 29.4776 23.2433 29.5618C24.4093 29.8672 25.1796 30.0193 25.9515 30.0193C26.7147 30.0193 27.4794 29.8704 28.6286 29.5736L28.7284 29.5478C29.0589 29.4625 29.3867 29.3479 29.71 29.2099L29.7101 30.6535C29.7101 31.224 30.0451 31.7243 30.5524 31.9248L32.346 32.9169C28.6607 35.9872 23.3375 35.9876 19.6521 32.9171Z" fill="#333333"/>
<path d="M51.9952 50.0808L51.5309 42.5472C51.3195 39.097 49.1575 36.1243 46.0225 34.9737L43.4835 34.0418C43.0906 33.8977 42.6597 34.1114 42.521 34.5193C42.3821 34.9272 42.588 35.3747 42.9807 35.5189L45.5198 36.4508C48.0839 37.3919 49.8524 39.8239 50.0253 42.647L50.4896 50.1806C50.5055 50.4388 50.4204 50.6846 50.2502 50.873C50.0806 51.0606 49.851 51.1639 49.6036 51.1639H43.4801V41.3662C43.4801 40.9335 43.1424 40.5828 42.7258 40.5828C42.3092 40.5828 41.9715 40.9335 41.9715 41.3662V51.1639H10.0284V41.3662C10.0284 40.9335 9.6907 40.5828 9.27409 40.5828C8.85748 40.5828 8.51978 40.9335 8.51978 41.3662V51.1639H2.39628C2.14887 51.1639 1.91934 51.0605 1.74973 50.873C1.57951 50.6845 1.49441 50.4387 1.51025 50.1808L1.65487 47.8336C1.68148 47.4019 1.36603 47.0295 0.950336 47.0019C0.534336 46.9753 0.176023 47.3018 0.149414 47.7335L0.00478921 50.081C-0.0371561 50.7656 0.197961 51.4449 0.649711 51.9449C1.10075 52.4441 1.73744 52.7304 2.39628 52.7304H49.6037C50.2626 52.7304 50.8991 52.4442 51.3503 51.9449C51.802 51.4451 52.0372 50.7657 51.9952 50.0808Z" fill="#D33234"/>
<path d="M38.2508 41.0649H33.124C32.1992 41.0649 31.4468 41.8463 31.4468 42.8067V44.2791C31.4468 45.2395 32.1992 46.0208 33.124 46.0208H38.2508C39.1756 46.0208 39.928 45.2395 39.928 44.2791V42.8067C39.928 41.8463 39.1756 41.0649 38.2508 41.0649ZM38.4194 44.2791C38.4194 44.3757 38.3438 44.4543 38.2508 44.4543H33.124C33.0309 44.4543 32.9553 44.3757 32.9553 44.2791V42.8067C32.9553 42.71 33.0309 42.6315 33.124 42.6315H38.2508C38.3438 42.6315 38.4194 42.71 38.4194 42.8067V44.2791Z" fill="#D33234"/>
</svg>
