<svg viewBox="0 0 18 18" xmlns="http://www.w3.org/2000/svg">
<path d="M9.00348 10.4961C7.71588 10.4961 6.47498 10.9632 5.50891 11.8112L4.94531 12.3057L5.935 13.4329L6.4986 12.9384C7.19073 12.3308 8.08063 11.9961 9.00403 11.9961C9.92798 11.9961 10.8159 12.3293 11.5056 12.9347L12.0692 13.4293L13.0589 12.3024L12.4951 11.8073C11.5314 10.9617 10.2916 10.4961 9.00348 10.4961Z"/>
<path d="M9 0C4.03729 0 0 4.03729 0 9C0 13.9627 4.03729 18 9 18C13.9623 18 18 13.9627 18 9C18 4.03729 13.9623 0 9 0ZM9 16.5C4.86456 16.5 1.5 13.1354 1.5 9C1.5 4.86456 4.86456 1.5 9 1.5C13.1354 1.5 16.5 4.86456 16.5 9C16.5 13.1354 13.1354 16.5 9 16.5Z"/>
<path d="M5.25 6.75H6.75V8.25H5.25V6.75Z"/>
<path d="M11.25 6.75H12.75V8.25H11.25V6.75Z"/>
</svg>
