<svg width="76" height="95" viewBox="0 0 76 95" fill="none" xmlns="http://www.w3.org/2000/svg">
<path d="M31.5475 33.1633C32.4498 33.5843 33.3978 33.7836 34.3317 33.7836C36.8603 33.7836 39.2841 32.3224 40.4093 29.8471C41.9499 26.4574 40.4816 22.4295 37.136 20.8687C35.5155 20.1127 33.7011 20.0411 32.0271 20.6673C30.3534 21.2938 29.0205 22.5429 28.2741 24.1851C27.5277 25.827 27.4571 27.6651 28.0754 29.3611C28.6937 31.0571 29.9268 32.407 31.5475 33.1633ZM30.7697 25.3491C31.209 24.3823 31.9938 23.6468 32.9791 23.2779C33.4233 23.1116 33.884 23.0289 34.3439 23.0289C34.9042 23.0289 35.4628 23.1519 35.9869 23.3965C37.9566 24.3155 38.8211 26.6867 37.914 28.6825C37.0068 30.6784 34.6661 31.5544 32.6965 30.6349C31.7424 30.1898 31.0164 29.3947 30.6525 28.3964C30.2886 27.3981 30.3301 26.3158 30.7697 25.3491Z" fill="#D33234"/>
<path d="M21.0056 63.5752L25.6953 65.7633C25.8814 65.8501 26.0768 65.8911 26.2689 65.8911C26.7885 65.8911 27.2859 65.5907 27.5174 65.0812C27.8346 64.3829 27.5334 63.5565 26.8444 63.2349L22.5132 61.2142L25.8261 56.0269C25.8616 55.9714 25.8931 55.9131 25.9206 55.853C26.3964 54.8063 26.4413 53.6345 26.0472 52.5536C25.653 51.4726 24.8672 50.6118 23.834 50.1297C22.8007 49.6477 21.6442 49.6022 20.5775 50.0015C19.5105 50.4008 18.6609 51.1971 18.1851 52.2438C18.1578 52.3039 18.1348 52.3661 18.1161 52.4295L16.3793 58.3513L12.9316 56.7429C13.9523 46.2205 16.8886 32.4403 20.1777 22.8345C20.4263 22.1084 20.047 21.3156 19.3301 21.0636C18.6131 20.8116 17.8307 21.1963 17.5822 21.9223C14.1254 32.0185 11.0507 46.6372 10.1053 57.4721C10.0542 58.0579 10.372 58.6129 10.8989 58.8588L15.5887 61.0468L13.9387 66.6725C13.627 67.7355 14.1224 68.844 15.1167 69.3079C15.4158 69.4474 15.729 69.5142 16.0374 69.5142C16.754 69.5142 17.4432 69.1526 17.8589 68.5015L21.0056 63.5752ZM20.7171 53.333C20.8911 52.9986 21.1768 52.7446 21.5295 52.6125C21.9081 52.4707 22.3185 52.487 22.6852 52.6581C23.0518 52.8292 23.3306 53.1346 23.4705 53.5182C23.6007 53.8754 23.5959 54.2606 23.4582 54.6118L17.6963 63.6335L20.7171 53.333Z" fill="#333333"/>
<path d="M75.1495 18.726C74.825 18.3562 74.3307 18.1889 73.8522 18.2865L68.5263 19.372C68.4585 19.3859 68.3873 19.3816 68.3214 19.3597L63.1177 17.6357C59.4456 16.4209 55.4835 18.4581 54.285 22.176L53.7099 23.9579C53.7665 23.2287 53.7933 22.4852 53.7874 21.7272C53.7942 21.6676 53.7973 21.6073 53.7965 21.5466C53.6368 10.9326 47.411 1.04902 47.1462 0.633562C46.8689 0.198808 46.3775 -0.0398146 45.8722 0.00546062C45.851 0.00731616 45.8299 0.00657394 45.8087 0.00954281C45.8012 0.0104706 45.7854 0.0128828 45.7653 0.0156661C44.8673 0.143142 33.7041 1.84263 25.8005 8.48381C25.7542 8.52277 25.711 8.56452 25.6707 8.6085C23.0746 10.8231 21.1096 13.3476 19.8487 16.1212L19.6234 16.6243C19.3117 17.3249 19.6198 18.149 20.3113 18.4648C21.0032 18.7804 21.8162 18.4685 22.1279 17.7678L22.3466 17.2791C23.4299 14.8962 25.0352 12.8868 26.9087 11.1951L51.0457 22.4572C50.9932 24.9976 50.5278 27.5393 49.4439 29.9239C47.9464 33.2199 45.495 37.4286 42.3387 42.1296L27.984 40.5053C27.9774 40.5046 27.971 40.5038 27.9646 40.5033C25.6432 40.2737 23.5731 42.001 23.3475 44.3518C23.3449 44.3791 23.3438 44.4062 23.3418 44.4333C23.3383 44.4782 23.3343 44.5229 23.3323 44.5676C23.3314 44.5867 23.3316 44.6057 23.331 44.6246C23.3292 44.6788 23.3275 44.733 23.3277 44.7868C23.3277 44.7925 23.3281 44.7981 23.3281 44.8038C23.3347 45.7823 23.6685 46.7214 24.2907 47.4875C24.3088 47.5098 24.3291 47.5293 24.3476 47.5512C24.4013 47.6148 24.4568 47.6768 24.5141 47.7371C24.5566 47.7818 24.6 47.8252 24.644 47.8679C24.6962 47.9182 24.7495 47.9672 24.804 48.0149C24.8564 48.0605 24.9097 48.1047 24.9641 48.1477C25.0159 48.1887 25.0689 48.2284 25.1227 48.267C25.1804 48.3082 25.2386 48.3479 25.2982 48.3862C25.3584 48.4249 25.4198 48.462 25.482 48.4979C25.535 48.5281 25.5884 48.557 25.6425 48.5849C25.7207 48.6253 25.8002 48.6637 25.8813 48.6992C25.9194 48.7159 25.958 48.7315 25.9967 48.7469C26.0959 48.7868 26.1967 48.8242 26.2998 48.8567C26.3203 48.8632 26.3413 48.8684 26.362 48.8745C26.4772 48.9089 26.5941 48.9393 26.7135 48.9638C26.7225 48.9656 26.7314 48.9669 26.7404 48.9686C26.8699 48.9942 27.0012 49.0146 27.1351 49.0282L39.1626 50.389L34.7054 56.488C34.7035 56.4902 34.7017 56.4923 34.6999 56.4947L32.4941 59.5125C32.4899 59.5185 32.4869 59.5252 32.4827 59.5311C32.4465 59.5821 32.4135 59.6358 32.3842 59.6916L32.3837 59.6925C32.3816 59.6966 32.3787 59.7001 32.3765 59.704L31.9507 60.4776C31.9469 60.4848 31.9434 60.4921 31.9393 60.4993L17.696 86.3734C17.3367 87.0262 17.5504 87.8498 18.1802 88.2391L24.4768 92.1319C24.6993 92.2696 24.9465 92.3358 25.1914 92.3358C25.6064 92.3358 26.0146 92.1454 26.2831 91.7897L37.7736 76.5761C38.2346 75.9656 38.1199 75.0922 37.5176 74.6252C36.9154 74.1583 36.0531 74.2743 35.592 74.8846L24.8526 89.1036L20.7388 86.5601L30.1777 69.4126L31.7247 66.603C32.2551 67.7591 33.115 68.7754 34.2655 69.4954L46.924 77.4152L43.1441 91.134C42.9419 91.8677 43.3597 92.6297 44.0811 92.8437L51.1618 94.944C51.2882 94.9814 51.4182 95 51.5477 95C51.7785 95 52.008 94.941 52.2134 94.8256C52.5343 94.6454 52.7708 94.3428 52.87 93.985L58.414 74.003C59.0588 71.773 58.1378 69.3759 56.1743 68.1733L47.8469 63.0726L56.2613 51.5576C57.1886 50.2866 57.6787 48.7842 57.6787 47.2123C57.6787 44.9044 56.5862 42.7063 54.7559 41.3323C52.1422 39.3732 48.6397 39.4745 46.1545 41.347C48.1621 38.2291 49.8298 35.3601 51.0838 32.8673C50.7838 36.6999 53.0916 40.3945 56.8529 41.6396C57.6983 41.9207 58.5783 42.0634 59.4678 42.0634C63.1162 42.0634 66.3282 39.7024 67.46 36.1891L68.6466 32.5133C68.6468 32.5131 68.6468 32.5129 68.647 32.5125C68.9003 31.7262 69.036 30.922 69.0587 30.1104C71.2964 29.2444 73.0738 27.3886 73.8261 25.0533L75.4287 20.0823C75.5805 19.6124 75.4743 19.0958 75.1495 18.726ZM29.3402 9.26536C35.3521 5.05235 42.7832 3.38496 45.2981 2.91681C46.0602 4.24501 47.6295 7.17565 48.9372 10.8739C48.9425 10.889 48.9478 10.904 48.9531 10.919C49.0828 11.2868 49.2095 11.6624 49.3328 12.0444C49.3476 12.0902 49.3621 12.1364 49.3769 12.1825C49.4216 12.3227 49.4657 12.4639 49.5095 12.6059C49.5265 12.6612 49.5436 12.7163 49.5604 12.7718C49.6146 12.9507 49.6681 13.1306 49.7205 13.3121C49.7366 13.3678 49.752 13.4242 49.7677 13.48C49.8038 13.6075 49.8397 13.7354 49.8747 13.864C49.8985 13.9508 49.9218 14.0382 49.945 14.1256C49.9714 14.225 49.9974 14.3249 50.023 14.4249C50.0474 14.5199 50.0721 14.6149 50.0957 14.7105C50.1216 14.8144 50.1463 14.9188 50.1714 15.0233C50.2126 15.1951 50.2525 15.3677 50.2915 15.5412C50.3087 15.6174 50.3258 15.6939 50.3424 15.7703C50.3679 15.8878 50.3928 16.0058 50.4173 16.124C50.4313 16.1916 50.4448 16.2593 50.4584 16.327C50.5419 16.7441 50.6183 17.1648 50.6862 17.5888C50.695 17.6439 50.704 17.6988 50.7126 17.7539C50.7333 17.8871 50.7531 18.0207 50.7719 18.1545C50.7794 18.2076 50.7866 18.2609 50.7937 18.3141C50.8397 18.6516 50.88 18.9908 50.9144 19.3311L29.3402 9.26536ZM28.5887 46.3922L27.4312 46.2612C27.4248 46.2604 27.4182 46.2597 27.4118 46.2591C27.3613 46.2541 27.3117 46.2467 27.2629 46.2367C27.2573 46.2356 27.2518 46.2337 27.2459 46.2324C26.6225 46.0979 26.1575 45.5711 26.0849 44.94C26.0844 44.9345 26.0831 44.9289 26.0826 44.9233C26.0787 44.8866 26.0776 44.8495 26.0765 44.8122C26.0762 44.7988 26.0747 44.7857 26.0745 44.7723C26.0743 44.7367 26.0771 44.7007 26.0795 44.6647C26.0804 44.65 26.0802 44.6357 26.0815 44.6211C26.0824 44.6114 26.0844 44.6021 26.0855 44.5925C26.0901 44.553 26.0952 44.5135 26.1027 44.475C26.1067 44.4539 26.1128 44.4335 26.1177 44.4127C26.124 44.3863 26.1298 44.3598 26.1373 44.334C26.1443 44.3106 26.1529 44.288 26.161 44.265C26.1686 44.2431 26.1758 44.2208 26.1844 44.1995C26.1943 44.1752 26.2055 44.1516 26.2164 44.1281C26.2252 44.1091 26.2335 44.0902 26.243 44.0718C26.2556 44.0473 26.2696 44.0238 26.2835 44.0002C26.293 43.9841 26.3023 43.9675 26.3124 43.9518C26.3278 43.9277 26.3445 43.9045 26.3613 43.8813C26.3714 43.8672 26.3815 43.8531 26.3919 43.8395C26.4102 43.8161 26.4293 43.7935 26.4489 43.7712C26.4593 43.7594 26.4697 43.7473 26.4805 43.7358C26.5014 43.7135 26.523 43.6922 26.5452 43.6712C26.5562 43.661 26.567 43.6506 26.5782 43.6408C26.6012 43.6202 26.625 43.6003 26.6494 43.5812C26.6608 43.5723 26.6723 43.5636 26.6838 43.5551C26.7091 43.5365 26.7347 43.5185 26.7611 43.5014C26.773 43.4938 26.7851 43.4864 26.7972 43.479C26.8241 43.4627 26.8514 43.4471 26.8792 43.4326C26.8921 43.4259 26.9051 43.4198 26.9181 43.4135C26.9461 43.3999 26.9743 43.3868 27.0032 43.3751C27.0173 43.3693 27.0318 43.3643 27.0461 43.3589C27.0747 43.3482 27.1034 43.338 27.1327 43.3291C27.1485 43.3242 27.1646 43.3205 27.1807 43.3163C27.2093 43.3086 27.2378 43.301 27.267 43.2953C27.2853 43.2916 27.304 43.2892 27.3226 43.2862C27.3501 43.2817 27.3774 43.2771 27.4054 43.2743C27.4281 43.2721 27.4512 43.2715 27.4741 43.2702C27.4985 43.2689 27.5226 43.2669 27.5474 43.2667C27.5944 43.2665 27.6419 43.2682 27.6897 43.2726L28.1704 43.327L28.9882 43.4196L28.5887 46.3922ZM54.7526 70.5558C54.7527 70.5558 54.7527 70.5558 54.7529 70.556C55.6509 71.1058 56.0723 72.2019 55.7734 73.2358L50.601 91.8782L46.1547 90.5593L49.8478 77.1558C50.0122 76.5587 49.7672 75.9232 49.2465 75.5975L35.709 67.1281C33.9301 66.0149 33.3327 63.6961 34.3451 61.8442L34.762 61.0873L36.1632 59.1702L40.8491 62.0398L54.7526 70.5558ZM53.1211 43.5699C54.2716 44.4335 54.9315 45.7615 54.9315 47.2131C54.9315 48.1848 54.6275 49.1154 54.0528 49.9031L45.4858 61.6268L42.4088 59.7424L37.806 56.9231L42.32 50.7464L49.1454 51.5187C49.1518 51.5194 49.1582 51.5202 49.1648 51.5207C49.3044 51.5345 49.4434 51.5413 49.5817 51.5413C50.5578 51.5413 51.4961 51.2019 52.2598 50.5653C53.1319 49.8385 53.6724 48.8109 53.7817 47.6723C53.891 46.5336 53.5561 45.4199 52.8387 44.5365C52.1235 43.6556 51.1135 43.1088 49.9937 42.9956L49.117 42.8963C50.4357 42.4757 51.9281 42.6757 53.1211 43.5699ZM49.6978 45.7628C49.7042 45.7635 49.7106 45.7643 49.7172 45.7648C50.5296 45.8448 51.1263 46.5798 51.0474 47.4029C51.0091 47.8017 50.8199 48.1614 50.5144 48.4158C50.2113 48.6688 49.8294 48.7871 49.4388 48.7513L31.3198 46.7011L31.7196 43.7284L45.4186 45.2785C45.4235 45.2792 45.4283 45.2794 45.4332 45.2802L49.6978 45.7628ZM66.0359 31.6484L64.8489 35.325C64.0867 37.6908 61.9243 39.2804 59.468 39.2804C58.8698 39.2804 58.2783 39.1845 57.708 38.9949C54.7397 38.0124 53.1138 34.7667 54.0834 31.7597L54.4335 30.6739L57.2792 31.6167C57.3428 31.6378 57.4069 31.6521 57.4708 31.6636C57.4843 31.666 57.4981 31.6685 57.5116 31.6705C57.5746 31.6798 57.6375 31.6852 57.6999 31.6855C57.7019 31.6855 57.7041 31.6861 57.7063 31.6861C57.7116 31.6861 57.7169 31.685 57.7222 31.6848C57.7825 31.684 57.8424 31.679 57.9014 31.6705C57.9107 31.6692 57.9202 31.6683 57.9294 31.6668C57.9917 31.6564 58.0528 31.6414 58.1127 31.6224C58.1235 31.6191 58.134 31.6152 58.1446 31.6115C58.205 31.5907 58.2645 31.5671 58.3215 31.5382C58.3217 31.5382 58.3217 31.5382 58.3219 31.538C58.3788 31.5091 58.4328 31.4751 58.4854 31.4384C58.4957 31.4313 58.5057 31.4243 58.5156 31.4168C58.566 31.3797 58.6142 31.3395 58.6594 31.2955C58.6658 31.2892 58.6719 31.2823 58.6781 31.2758C58.7189 31.2344 58.7572 31.1901 58.7927 31.1433C58.7991 31.135 58.8059 31.127 58.8121 31.1185C58.8493 31.0673 58.8828 31.0127 58.9131 30.9557C58.9196 30.9433 58.9257 30.9307 58.9319 30.9183C58.9616 30.8583 58.9885 30.7967 59.0099 30.7314L59.0848 30.5021C59.1028 30.4464 59.1233 30.3924 59.1462 30.3401C59.1499 30.3319 59.1543 30.3243 59.1579 30.3161C59.1781 30.2716 59.1993 30.2278 59.2229 30.1859C59.2239 30.1842 59.2251 30.1825 59.226 30.1809C59.5301 29.6446 60.0989 29.319 60.7013 29.3227C60.7059 29.3227 60.7106 29.3223 60.7152 29.3223C60.7588 29.3229 60.8026 29.3266 60.8465 29.3308C60.8588 29.332 60.8711 29.3321 60.8833 29.3334C60.9214 29.3379 60.9597 29.3455 60.998 29.3527C61.0154 29.3561 61.033 29.3579 61.0504 29.3618C61.1053 29.3741 61.1601 29.3889 61.2144 29.4071L63.7331 30.2421C63.8878 30.2933 64.0442 30.3382 64.2014 30.38C64.2275 30.3868 64.2537 30.3943 64.2799 30.4007C64.435 30.4401 64.5909 30.4748 64.7477 30.5047C64.7671 30.5084 64.7863 30.5115 64.8057 30.515C65.1339 30.575 65.4649 30.6141 65.7965 30.6318C65.8154 30.6327 65.8341 30.634 65.8528 30.6349C65.9901 30.6412 66.1275 30.6453 66.2647 30.6442C66.2189 30.9821 66.1425 31.3174 66.0359 31.6484ZM71.2149 24.1899C70.6413 25.9699 69.1609 27.3283 67.3503 27.7353C66.4375 27.941 65.4821 27.8932 64.5872 27.5966L62.0685 26.7615C61.9556 26.7242 61.8419 26.6928 61.7278 26.6648C61.7139 26.6615 61.7 26.6576 61.686 26.6544C61.573 26.6279 61.4595 26.6062 61.3458 26.5887C61.3366 26.5872 61.3276 26.5859 61.3185 26.5846C60.4214 26.4527 59.5081 26.6015 58.6828 27.0253C58.638 27.0483 58.5951 27.0741 58.5513 27.0984C58.5424 27.1034 58.5334 27.1083 58.5244 27.1135C58.1068 27.3497 57.7358 27.6477 57.4201 27.9961C57.4157 28.001 57.4114 28.0058 57.4071 28.0106C57.3301 28.0963 57.2563 28.1847 57.1862 28.2761C57.1833 28.28 57.18 28.2839 57.177 28.2878C57.1036 28.3845 57.0325 28.483 56.9671 28.5857L55.2917 28.0307L55.2864 28.0288L56.8963 23.0407C57.6245 20.7814 60.0321 19.5436 62.2642 20.2815L67.4672 22.0053C67.9827 22.176 68.5364 22.2091 69.0681 22.1007L72.0865 21.4856L71.2149 24.1899Z" fill="#333333"/>
<path d="M15.2182 89.0405H1.56884C0.810251 89.0405 0.195251 89.6636 0.195251 90.4322C0.195251 91.2008 0.810251 91.8238 1.56884 91.8238H15.2182C15.9768 91.8238 16.5918 91.2008 16.5918 90.4322C16.5918 89.6636 15.9768 89.0405 15.2182 89.0405Z" fill="#D33234"/>
<path d="M15.2164 81.0522H5.62474C4.86616 81.0522 4.25116 81.6753 4.25116 82.4439C4.25116 83.2125 4.86616 83.8356 5.62474 83.8356H15.2164C15.975 83.8356 16.59 83.2125 16.59 82.4439C16.59 81.6753 15.975 81.0522 15.2164 81.0522Z" fill="#D33234"/>
<path d="M15.2159 73.0635H11.1574C10.3988 73.0635 9.78381 73.6866 9.78381 74.4551C9.78381 75.2237 10.3988 75.8468 11.1574 75.8468H15.2159C15.9745 75.8468 16.5895 75.2237 16.5895 74.4551C16.5895 73.6866 15.9745 73.0635 15.2159 73.0635Z" fill="#D33234"/>
</svg>
