<svg viewBox="0 0 18 18" xmlns="http://www.w3.org/2000/svg">
<path d="M9.86719 4.83575L10.5381 3.49414L13.3795 4.91504L12.7088 6.25665L9.86719 4.83575Z"/>
<path d="M4.62109 4.91486L7.46289 3.49414L8.13379 4.83575L5.29199 6.25665L4.62109 4.91486Z"/>
<path d="M9 0C4.03729 0 0 4.03729 0 9C0 9.69452 0.079834 10.3834 0.236939 11.0453C0.264771 11.1652 0.296997 11.2894 0.328857 11.4093C0.42334 11.7649 0.546387 12.1185 0.705322 12.4942C0.753296 12.6064 0.805115 12.7185 0.861694 12.8392L0.895569 12.9097C0.936401 12.9955 0.977966 13.0823 1.02191 13.1669C1.06348 13.2469 1.10706 13.325 1.15118 13.4041L1.20264 13.4963C2.00812 14.8947 3.18219 16.0549 4.62781 16.8671C4.71368 16.9136 4.79956 16.9601 4.88928 17.0067L5.18958 17.1533C5.24542 17.181 5.30182 17.2081 5.32544 17.2167C5.41992 17.2597 5.51917 17.3029 5.61072 17.3384C5.84106 17.4315 6.07764 17.517 6.31384 17.5931L6.35925 17.6071C6.46912 17.64 6.57678 17.6719 6.68665 17.6984C6.74744 17.7158 6.81152 17.7308 6.88275 17.7473C6.98895 17.775 7.10028 17.8021 7.17188 17.8136C7.29071 17.8403 7.40955 17.8619 7.50421 17.8759C7.59869 17.8931 7.69794 17.9062 7.76733 17.9149C7.80487 17.9213 7.84277 17.9266 7.88251 17.9299C7.96802 17.9434 8.05133 17.952 8.13629 17.9603C8.26831 17.9722 8.39996 17.9806 8.53455 17.9885C8.68726 17.9958 8.84363 18 9 18C9.15637 18 9.31274 17.9958 9.46802 17.9872C9.60004 17.9793 9.73169 17.9714 9.86627 17.9592C9.9483 17.9513 10.0305 17.9431 10.1157 17.9291C10.1528 17.9266 10.183 17.922 10.2026 17.9187C10.3021 17.9059 10.4009 17.8927 10.4711 17.8797C10.5901 17.8619 10.7089 17.84 10.7937 17.82C10.8997 17.8017 11.0107 17.7746 11.1284 17.7446C11.1896 17.7303 11.2526 17.7155 11.313 17.6981C11.4232 17.6715 11.5323 17.6389 11.6744 17.5961C11.9187 17.5219 12.1628 17.4333 12.3814 17.3412C12.4808 17.3026 12.5797 17.2593 12.642 17.23C12.6978 17.2077 12.7542 17.1806 12.7853 17.1649L13.1193 17.0017C13.2056 16.9567 13.2903 16.9111 13.402 16.8499C14.8174 16.0541 15.9915 14.8942 16.8034 13.4846L16.8488 13.4037C16.8929 13.325 16.9365 13.2469 16.9781 13.1666C17.022 13.0818 17.0636 12.9948 17.1044 12.9093L17.1423 12.8302C17.1945 12.7181 17.2463 12.6061 17.2958 12.4913C17.4536 12.1185 17.5763 11.7645 17.6708 11.4093C17.7026 11.2894 17.7349 11.1652 17.762 11.0482C17.9202 10.3834 18 9.69452 18 9C18 4.03729 13.9627 0 9 0V0ZM16.3021 10.7047C16.2777 10.8094 16.2495 10.9177 16.2213 11.0231C16.145 11.3097 16.0444 11.5988 15.9157 11.9033C15.8738 12.0015 15.828 12.0991 15.7868 12.1886L15.7507 12.264C15.717 12.3345 15.6828 12.4061 15.6469 12.4759C15.6127 12.5418 15.5768 12.6057 15.5403 12.6705L15.4977 12.7471C14.8264 13.9122 13.8475 14.8788 12.6573 15.5479C12.5782 15.5911 12.4984 15.6341 12.4155 15.6773L12.1421 15.8101C12.123 15.8194 12.1042 15.8298 12.0529 15.8513C11.9828 15.8831 11.9092 15.915 11.8178 15.9514C11.6279 16.0312 11.4329 16.1017 11.2068 16.1708C11.1215 16.1962 11.0385 16.222 10.9526 16.242L10.9098 16.2532C10.8701 16.2653 10.8281 16.2746 10.788 16.2839L10.738 16.296C10.6718 16.3132 10.6027 16.3312 10.5022 16.3497C10.4187 16.368 10.335 16.3837 10.227 16.4002C10.1636 16.4119 10.0975 16.4205 10.0051 16.4328L9.9007 16.4449C9.84009 16.4561 9.78223 16.4606 9.72675 16.4659C9.61084 16.4764 9.4953 16.4835 9.38251 16.4899C9.13239 16.5037 8.86578 16.5037 8.62079 16.4899C8.50507 16.4832 8.38953 16.476 8.27655 16.4659C8.21851 16.4603 8.16046 16.4557 8.10004 16.4445L7.99695 16.4324C7.99695 16.4324 7.99493 16.4321 7.99054 16.4313C7.9173 16.422 7.84387 16.4127 7.74939 16.3958C7.66571 16.3834 7.58221 16.3676 7.46429 16.3425C7.39801 16.3308 7.32898 16.3129 7.2627 16.2957L7.21271 16.2836C7.17261 16.2742 7.13068 16.2649 7.09094 16.2528L7.0481 16.2416C6.96222 16.2217 6.87909 16.1959 6.77435 16.1644C6.57037 16.0988 6.36969 16.0259 6.16498 15.9435C6.09192 15.9146 6.01831 15.8828 5.91595 15.837C5.89691 15.8291 5.87769 15.819 5.83392 15.7976L5.58527 15.6766C5.50232 15.6334 5.42285 15.5903 5.33368 15.5422C4.15356 14.8784 3.17468 13.9118 2.50946 12.7575L2.46075 12.6702C2.42432 12.6052 2.38843 12.5414 2.35419 12.4755C2.31793 12.4058 2.28369 12.3342 2.25037 12.2637L2.21887 12.1972C2.1731 12.0991 2.12769 12.0015 2.08685 11.9059C1.95667 11.5988 1.85632 11.3097 1.77979 11.0231C1.75159 10.9182 1.72394 10.8098 1.6983 10.7018C1.56628 10.1505 1.5 9.57788 1.5 9C1.5 4.86456 4.86456 1.5 9 1.5C13.1354 1.5 16.5 4.86456 16.5 9C16.5 9.57788 16.4337 10.1505 16.3021 10.7047Z"/>
<path d="M9 6C6.51855 6 4.5 8.01855 4.5 10.5C4.5 11.3243 4.72614 12.1313 5.15204 12.8309C5.96246 14.1691 7.43701 15 9 15C10.5626 15 12.0368 14.1694 12.847 12.8317C13.2742 12.1306 13.5 11.3243 13.5 10.5C13.5 8.01855 11.4814 6 9 6ZM9 13.5C8.19708 13.5 7.45203 13.1873 6.89886 12.6401C7.51941 12.2269 8.24963 12 9.00366 12C9.75787 12 10.4865 12.2254 11.1044 12.6363C10.5515 13.1854 9.80511 13.5 9 13.5ZM11.8744 11.3491C11.0246 10.8003 10.0309 10.5 9.00366 10.5C7.97589 10.5 6.9798 10.8023 6.12708 11.3538C6.04504 11.0782 6 10.7913 6 10.5C6 8.84583 7.34583 7.5 9 7.5C10.6542 7.5 12 8.84583 12 10.5C12 10.7895 11.9557 11.075 11.8744 11.3491Z"/>
</svg>
