<svg width="38" height="38" viewBox="0 0 38 38" fill="none" xmlns="http://www.w3.org/2000/svg">
<path d="M31.5474 6.63643C30.354 5.44307 28.8474 4.6588 27.1905 4.36831C25.5716 4.08464 23.9262 4.28867 22.4322 4.95849C22.0581 5.12623 21.8909 5.56538 22.0586 5.93937C22.2262 6.31336 22.6653 6.4805 23.0395 6.31299C25.5524 5.1862 28.5497 5.73801 30.4978 7.68603C31.7594 8.94768 32.4542 10.6251 32.4542 12.4092C32.4542 14.1935 31.7593 15.8709 30.4977 17.1325C27.8933 19.7369 23.6556 19.7369 21.0512 17.1325C19.1055 15.1868 18.5502 12.2963 19.6367 9.76861C19.7986 9.3921 19.6246 8.95562 19.248 8.79375C18.8712 8.63165 18.4348 8.80592 18.273 9.18251C17.6354 10.666 17.4526 12.2926 17.7445 13.8865C18.0434 15.5191 18.8239 17.0045 20.0016 18.1822C21.5931 19.7737 23.6838 20.5696 25.7745 20.5696C27.8651 20.5696 29.9557 19.7738 31.5473 18.1822C33.0893 16.6402 33.9385 14.59 33.9385 12.4093C33.9385 10.2286 33.0893 8.17847 31.5474 6.63643Z" fill="#2D9CDB"/>
<path d="M21.0824 6.61076C20.7942 6.31938 20.3243 6.31678 20.0328 6.6049L20.0014 6.63614C19.7111 6.92545 19.7102 7.39533 19.9995 7.68574C20.1445 7.83129 20.3349 7.9041 20.5253 7.9041C20.7147 7.9041 20.9041 7.83195 21.049 7.68767L21.0765 7.66036C21.368 7.37217 21.3706 6.90222 21.0824 6.61076Z" fill="#2D9CDB"/>
<path d="M25.7734 0C19.0316 0 13.5468 5.48484 13.5468 12.2266C13.5468 14.2172 14.0364 16.1935 14.9627 17.9418C15.1547 18.304 15.6038 18.442 15.966 18.2502C16.3282 18.0582 16.4662 17.6091 16.2744 17.2469C15.4611 15.7118 15.0312 13.9759 15.0312 12.2266C15.0312 6.30332 19.8501 1.48438 25.7734 1.48438C31.6968 1.48438 36.5156 6.30332 36.5156 12.2266C36.5156 14.7182 35.6433 17.1465 34.0591 19.0638C34.0359 19.092 34.015 19.1214 33.9966 19.152L27.3259 27.6981C26.8855 27.5346 26.4096 27.445 25.913 27.445H25.1781C25.1766 27.445 25.1751 27.445 25.1736 27.445H24.0737L21.9583 22.4619C21.4232 21.2015 20.1928 20.3871 18.8235 20.3871H10.1642C8.79492 20.3871 7.56452 21.2015 7.02941 22.4619L4.91395 27.445H4.07134C1.82638 27.4449 0 29.2714 0 31.5163V35.3116C0 35.5087 0.078375 35.6977 0.217832 35.8369C0.356992 35.9758 0.545656 36.0538 0.742188 36.0538C0.742559 36.0538 0.743004 36.0538 0.743375 36.0538L4.34722 36.0482C4.67036 37.1737 5.70846 38 6.93656 38C8.16473 38 9.20283 37.1736 9.52598 36.048H21.3925C21.7157 37.1736 22.7538 38 23.982 38C25.21 38 26.2478 37.174 26.5713 36.0487L29.2408 36.0538C29.2412 36.0538 29.2417 36.0538 29.2422 36.0538C29.4387 36.0538 29.6273 35.9758 29.7665 35.8369C29.9059 35.6977 29.9844 35.5087 29.9844 35.3116V31.5163C29.9844 30.304 29.4513 29.2146 28.6079 28.4681L35.2231 19.9931C35.2375 19.9746 35.2509 19.9557 35.2633 19.9362C37.0288 17.765 38 15.031 38 12.2266C38 5.48484 32.5152 0 25.7734 0ZM28.1091 30.1511H26.5881L26.2028 28.946C27.0068 29.036 27.7002 29.4959 28.1091 30.1511ZM15.2361 21.8714H18.8235C19.596 21.8714 20.2901 22.3308 20.5919 23.0418L22.4612 27.4449H15.2361V21.8714ZM1.48438 31.5163C1.48438 31.2655 1.52096 31.0232 1.58784 30.7937H2.5598C2.8808 30.7937 3.14198 31.0548 3.14198 31.3758C3.14198 31.6968 2.8808 31.958 2.5598 31.958H1.48438V31.5163ZM6.93656 36.5156C6.26941 36.5156 5.72664 35.9729 5.72664 35.3058C5.72664 34.6387 6.26941 34.0959 6.93656 34.0959C7.60371 34.0959 8.1464 34.6387 8.1464 35.3058C8.1464 35.9729 7.60371 36.5156 6.93656 36.5156ZM13.7517 34.5635H9.52605C9.2029 33.4378 8.1648 32.6115 6.93663 32.6115C5.70839 32.6115 4.67021 33.4379 4.34714 34.5637L1.48438 34.5683V33.4423H2.5598C3.69929 33.4423 4.62635 32.5152 4.62635 31.3758C4.62635 30.288 3.78137 29.3945 2.71351 29.3155C3.1085 29.0709 3.57363 28.9292 4.07142 28.9292H13.7517V34.5635ZM13.7517 27.4449H6.5265L8.39577 23.0418C8.69755 22.3308 9.39172 21.8714 10.1642 21.8714H13.7517V27.4449ZM23.982 36.5156C23.3149 36.5156 22.7722 35.9729 22.7722 35.3058C22.7722 34.6387 23.3149 34.0959 23.982 34.0959C24.6491 34.0959 25.1919 34.6387 25.1919 35.3058C25.1919 35.9729 24.6492 36.5156 23.982 36.5156ZM28.5 34.5679L26.5717 34.5643C26.2488 33.4382 25.2105 32.6115 23.982 32.6115C22.7538 32.6115 21.7157 33.4378 21.3926 34.5635H15.2361V28.9292H23.5826H24.6391L25.3392 31.1193C25.4375 31.4267 25.7233 31.6354 26.0461 31.6354H28.5V34.5679Z" fill="#2D9CDB"/>
<path d="M26.3859 8.11316H24.244C23.8341 8.11316 23.5018 8.44544 23.5018 8.85535V10.9972V13.1392V16.2092C23.5018 16.6191 23.8341 16.9514 24.244 16.9514C24.6539 16.9514 24.9862 16.6191 24.9862 16.2092V13.8814H26.3859C27.9762 13.8814 29.27 12.5875 29.27 10.9972C29.27 9.40694 27.9762 8.11316 26.3859 8.11316ZM26.3859 12.397H24.9862V10.9972V9.59753H26.3859C27.1577 9.59753 27.7857 10.2254 27.7857 10.9972C27.7857 11.769 27.1578 12.397 26.3859 12.397Z" fill="#2D9CDB"/>
<path d="M11.5624 30.6288C11.1525 30.6288 10.8202 30.9611 10.8202 31.371V31.3797C10.8202 31.7896 11.1525 32.1219 11.5624 32.1219C11.9723 32.1219 12.3046 31.7896 12.3046 31.3797V31.371C12.3046 30.9611 11.9723 30.6288 11.5624 30.6288Z" fill="#2D9CDB"/>
</svg>
