<svg width="58" height="59" viewBox="0 0 58 59" fill="none" xmlns="http://www.w3.org/2000/svg">
<path d="M21.4664 53.1222C20.7241 53.1213 20.0123 52.8293 19.4874 52.3102C18.9625 51.791 18.6672 51.0871 18.6663 50.353C18.6663 50.2317 18.6422 50.1117 18.5953 49.9997C18.5484 49.8877 18.4796 49.7859 18.393 49.7002C18.3063 49.6145 18.2034 49.5465 18.0902 49.5001C17.9769 49.4537 17.8555 49.4299 17.733 49.4299H16.7996V43.8914H19.5997C20.3423 43.8914 21.0546 43.5997 21.5797 43.0803C22.1048 42.561 22.3998 41.8566 22.3998 41.1222C22.3998 40.3877 22.1048 39.6834 21.5797 39.164C21.0546 38.6447 20.3423 38.353 19.5997 38.353H16.7996V26.353H25.1999C25.9425 26.353 26.6547 26.0612 27.1799 25.5419C27.705 25.0225 28 24.3182 28 23.5837C28 22.8493 27.705 22.1449 27.1799 21.6256C26.6547 21.1062 25.9425 20.8145 25.1999 20.8145H23.3332C22.466 20.8131 21.6232 20.5304 20.9341 20.0098C20.2449 19.4892 19.7474 18.7595 19.5178 17.9325L18.0633 12.6579C17.9042 12.0848 17.5594 11.5791 17.0818 11.2183C16.6043 10.8576 16.0202 10.6617 15.4193 10.6606H2.74062C2.32053 10.6606 1.90606 10.7562 1.52923 10.9398C1.15241 11.1234 0.82331 11.3903 0.56737 11.7197C0.311429 12.0492 0.135494 12.4324 0.0531568 12.8398C-0.0291805 13.2472 -0.0157161 13.6679 0.0925098 14.0693V14.0694L2.48084 22.9267C2.74666 23.9089 3.33256 24.7769 4.14779 25.3963C4.96302 26.0158 5.96205 26.352 6.9901 26.353H11.1994V38.353H10.2661C9.52342 38.353 8.8112 38.6447 8.28608 39.164C7.76096 39.6834 7.46595 40.3877 7.46595 41.1222C7.46595 41.8566 7.76096 42.561 8.28608 43.0803C8.8112 43.5997 9.52342 43.8914 10.2661 43.8914H11.1994V49.4299H10.2661C10.1435 49.4299 10.0221 49.4537 9.90886 49.5001C9.79562 49.5465 9.69272 49.6145 9.60605 49.7002C9.51938 49.7859 9.45063 49.8877 9.40373 49.9997C9.35682 50.1117 9.33268 50.2317 9.33268 50.353C9.33183 51.0871 9.03655 51.791 8.51162 52.3102C7.98668 52.8293 7.27496 53.1213 6.53259 53.1222C5.29529 53.1236 4.10908 53.6103 3.23418 54.4755C2.35928 55.3408 1.86715 56.5139 1.86576 57.7376C1.86575 57.8588 1.88989 57.9788 1.9368 58.0908C1.9837 58.2028 2.05245 58.3046 2.13913 58.3903C2.2258 58.476 2.32869 58.544 2.44193 58.5904C2.55518 58.6368 2.67655 58.6606 2.79912 58.6606H25.1999C25.3225 58.6606 25.4438 58.6368 25.5571 58.5904C25.6703 58.544 25.7732 58.476 25.8599 58.3903C25.9466 58.3046 26.0153 58.2028 26.0622 58.0908C26.1091 57.9788 26.1333 57.8588 26.1333 57.7376C26.1319 56.5139 25.6397 55.3408 24.7648 54.4755C23.8899 53.6103 22.7037 53.1236 21.4664 53.1222ZM25.1999 22.6606C25.4474 22.6606 25.6849 22.7579 25.8599 22.931C26.0349 23.1041 26.1333 23.3389 26.1333 23.5837C26.1333 23.8285 26.0349 24.0633 25.8599 24.2364C25.6849 24.4095 25.4474 24.5068 25.1999 24.5068H13.2949C13.5089 23.9096 13.5089 23.2578 13.2949 22.6606H25.1999ZM16.2623 13.1437L17.7169 18.4182C17.9639 19.3132 18.4269 20.1355 19.066 20.8145H10.6553C9.78813 20.8131 8.94535 20.5304 8.2562 20.0098C7.56704 19.4892 7.06954 18.7595 6.83999 17.9325L5.38542 12.6578C5.37125 12.6065 5.35382 12.5568 5.3368 12.5068H15.4193C15.6109 12.5071 15.7971 12.5696 15.9494 12.6846C16.1017 12.7997 16.2116 12.9609 16.2623 13.1437ZM6.9901 24.5068C6.37327 24.5062 5.77385 24.3045 5.28471 23.9328C4.79558 23.5612 4.44404 23.0403 4.28457 22.4511L1.89623 13.5937V13.5937C1.86173 13.4657 1.85743 13.3316 1.88369 13.2017C1.90994 13.0718 1.96604 12.9496 2.04765 12.8445C2.12926 12.7395 2.23419 12.6544 2.35435 12.5958C2.47451 12.5373 2.60666 12.5068 2.74062 12.5068H2.74141C2.93304 12.5071 3.11926 12.5696 3.27154 12.6846C3.42382 12.7997 3.53375 12.9609 3.58449 13.1437L5.039 18.4182C5.37694 19.6356 6.10928 20.7098 7.12374 21.4761C8.1382 22.2424 9.37879 22.6585 10.6553 22.6606C10.9029 22.6606 11.1403 22.7579 11.3153 22.931C11.4903 23.1041 11.5887 23.3389 11.5887 23.5837C11.5887 23.8285 11.4903 24.0633 11.3153 24.2364C11.1403 24.4095 10.9029 24.5068 10.6553 24.5068H6.9901ZM13.0661 26.353H14.9329V38.353H13.0661V26.353ZM9.33268 41.1222C9.33297 40.8775 9.43139 40.6428 9.60637 40.4698C9.78135 40.2967 10.0186 40.1994 10.2661 40.1991H19.5997C19.8473 40.1991 20.0847 40.2964 20.2597 40.4695C20.4347 40.6426 20.5331 40.8774 20.5331 41.1222C20.5331 41.367 20.4347 41.6018 20.2597 41.7749C20.0847 41.948 19.8473 42.0453 19.5997 42.0453H10.2661C10.0186 42.045 9.78135 41.9476 9.60637 41.7746C9.43139 41.6015 9.33297 41.3669 9.33268 41.1222ZM13.0661 43.8914H14.9329V49.4299H13.0661V43.8914ZM3.89245 56.8145C4.08609 56.2749 4.44378 55.8079 4.91647 55.4773C5.38916 55.1468 5.95368 54.969 6.53259 54.9683C7.60795 54.9669 8.64994 54.5989 9.48295 53.9263C10.316 53.2538 10.8891 52.3177 11.1056 51.276H16.8934C17.0321 51.9458 17.3201 52.5765 17.7365 53.1222H12.1328V54.9683H21.4664C22.0453 54.969 22.6099 55.1468 23.0826 55.4773C23.5552 55.8079 23.9129 56.2749 24.1066 56.8145H3.89245Z" fill="#333333"/>
<path d="M43 6.59309C43 7.10807 43.4175 7.52554 43.9324 7.52554C44.4474 7.52554 44.8649 7.10807 44.8649 6.59309C44.8649 6.07812 44.4474 5.66064 43.9324 5.66064C43.4175 5.66064 43 6.07812 43 6.59309Z" fill="#D33234"/>
<path d="M47.9324 7.52554C47.4175 7.52554 47 7.10807 47 6.59309C47 6.07812 47.4175 5.66064 47.9324 5.66064C48.4474 5.66064 48.8649 6.07812 48.8649 6.59309C48.8649 7.10807 48.4474 7.52554 47.9324 7.52554Z" fill="#D33234"/>
<path fill-rule="evenodd" clip-rule="evenodd" d="M57.4309 1.7198C57.176 1.38924 56.8471 1.12159 56.4701 0.937829C56.093 0.754069 55.6781 0.6592 55.2577 0.660661H42.5799C41.979 0.661671 41.395 0.857572 40.9175 1.21833C40.4399 1.57909 40.0952 2.08479 39.9361 2.65792L38.4816 7.93248C38.2521 8.75951 37.7546 9.48926 37.0655 10.0098C36.3764 10.5304 35.5337 10.8131 34.6665 10.8145H32.7999C32.0573 10.8145 31.3452 11.1063 30.8201 11.6256C30.295 12.1449 30 12.8493 30 13.5837C30 14.3182 30.295 15.0225 30.8201 15.5419C31.3452 16.0612 32.0573 16.353 32.7999 16.353H41.1997V28.353H38.3997C37.6572 28.353 36.945 28.6447 36.4199 29.164C35.8948 29.6834 35.5998 30.3877 35.5998 31.1222C35.5998 31.8566 35.8948 32.561 36.4199 33.0803C36.945 33.5997 37.6572 33.8914 38.3997 33.8914H41.1997V39.4299H40.2664C40.1438 39.4299 40.0224 39.4538 39.9092 39.5001C39.796 39.5465 39.6931 39.6145 39.6064 39.7002C39.5197 39.7859 39.451 39.8877 39.4041 39.9997C39.3572 40.1117 39.333 40.2317 39.333 40.353C39.3322 41.0871 39.0369 41.791 38.512 42.3102C37.9871 42.8293 37.2755 43.1213 36.5331 43.1222C35.2959 43.1236 34.1098 43.6103 33.2349 44.4755C32.3601 45.3408 31.868 46.5139 31.8666 47.7376C31.8666 47.8588 31.8907 47.9788 31.9376 48.0908C31.9845 48.2028 32.0533 48.3046 32.14 48.3903C32.2266 48.476 32.3295 48.544 32.4427 48.5904C32.556 48.6368 32.6774 48.6606 32.7999 48.6606H55.1992C55.3218 48.6606 55.4432 48.6368 55.5564 48.5904C55.6696 48.544 55.7725 48.476 55.8592 48.3903C55.9459 48.3046 56.0146 48.2028 56.0615 48.0908C56.1084 47.9788 56.1325 47.8588 56.1325 47.7376C56.1311 46.5139 55.639 45.3408 54.7642 44.4755C53.8894 43.6103 52.7032 43.1236 51.466 43.1222C50.7237 43.1213 50.012 42.8293 49.4871 42.3102C48.9622 41.791 48.6669 41.0871 48.6661 40.353C48.6661 40.2317 48.642 40.1117 48.5951 39.9997C48.5482 39.8877 48.4794 39.7859 48.3927 39.7002C48.3061 39.6145 48.2032 39.5465 48.09 39.5001C47.9767 39.4538 47.8554 39.4299 47.7328 39.4299H46.7995V33.8914H47.7328C48.4754 33.8914 49.1875 33.5997 49.7126 33.0803C50.2377 32.561 50.5327 31.8566 50.5327 31.1222C50.5327 30.3877 50.2377 29.6834 49.7126 29.164C49.1875 28.6447 48.4754 28.353 47.7328 28.353H46.7995V16.353H51.0085C52.0365 16.352 53.0355 16.0158 53.8506 15.3964C54.6658 14.777 55.2517 13.9089 55.5175 12.9268L57.9057 4.06941C58.0154 3.66811 58.0296 3.24708 57.9472 2.83943C57.8649 2.43179 57.6881 2.04856 57.4309 1.7198ZM40.2825 8.41825L41.7369 3.14368C41.7877 2.96093 41.8976 2.79968 42.0498 2.68464C42.2021 2.5696 42.3883 2.50713 42.5799 2.50681H52.6617L52.656 2.52362C52.6408 2.56797 52.6256 2.61232 52.6131 2.65792L51.1586 7.93248C50.9291 8.75951 50.4316 9.48926 49.7425 10.0098C49.0534 10.5304 48.2107 10.8131 47.3436 10.8145H38.9334C39.5725 10.1355 40.0354 9.31319 40.2825 8.41825ZM31.8666 13.5837C31.8669 13.339 31.9653 13.1044 32.1403 12.9313C32.3152 12.7583 32.5525 12.6609 32.7999 12.6607H44.7042C44.4901 13.2578 44.4901 13.9096 44.7042 14.5068H32.7999C32.5525 14.5065 32.3152 14.4092 32.1403 14.2361C31.9653 14.0631 31.8669 13.8285 31.8666 13.5837ZM47.7363 43.1222H42.133V44.9683H51.466C52.0449 44.969 52.6094 45.1468 53.082 45.4773C53.5547 45.8079 53.9124 46.2749 54.106 46.8145H33.8932C34.0868 46.2749 34.4445 45.8079 34.9171 45.4773C35.3898 45.1468 35.9543 44.969 36.5331 44.9683C37.6084 44.9669 38.6504 44.5989 39.4833 43.9263C40.3163 43.2538 40.8893 42.3177 41.1059 41.276H46.8933C47.0319 41.9458 47.3199 42.5765 47.7363 43.1222ZM44.9329 39.4299H43.0663V33.8914H44.9329V39.4299ZM48.6661 31.1222C48.6658 31.3669 48.5674 31.6015 48.3924 31.7746C48.2175 31.9476 47.9802 32.045 47.7328 32.0453H38.3997C38.1522 32.0453 37.9148 31.948 37.7398 31.7749C37.5648 31.6018 37.4664 31.367 37.4664 31.1222C37.4664 30.8774 37.5648 30.6426 37.7398 30.4695C37.9148 30.2964 38.1522 30.1991 38.3997 30.1991H47.7328C47.9802 30.1994 48.2175 30.2967 48.3924 30.4698C48.5674 30.6428 48.6658 30.8775 48.6661 31.1222ZM44.9329 28.353H43.0663V16.353H44.9329V28.353ZM56.1021 3.59373L53.7139 12.4511C53.5544 13.0404 53.2029 13.5612 52.7138 13.9329C52.2247 14.3045 51.6253 14.5062 51.0085 14.5068H47.3436C47.096 14.5068 46.8586 14.4096 46.6836 14.2364C46.5086 14.0633 46.4103 13.8285 46.4103 13.5837C46.4103 13.3389 46.5086 13.1041 46.6836 12.931C46.8586 12.7579 47.096 12.6607 47.3436 12.6607C48.62 12.6585 49.8605 12.2424 50.8749 11.4761C51.8893 10.7098 52.6216 9.63565 52.9595 8.41825L54.4139 3.14374C54.4646 2.96098 54.5745 2.79972 54.7268 2.68467C54.8791 2.56963 55.0653 2.50715 55.2569 2.50681C55.3909 2.50682 55.5238 2.53727 55.644 2.59583C55.7641 2.65439 55.8691 2.73948 55.9507 2.84453C56.0323 2.94958 56.0884 3.07178 56.1146 3.20168C56.1409 3.33159 56.1366 3.46572 56.1021 3.59373Z" fill="#D33234"/>
</svg>
