<svg width="37" height="36" viewBox="0 0 37 36" fill="none" xmlns="http://www.w3.org/2000/svg">
<path fill-rule="evenodd" clip-rule="evenodd" d="M34.7576 1.12121H2.24242C1.6232 1.12121 1.12121 1.6232 1.12121 2.24242V33.6364C1.12121 34.2556 1.6232 34.7576 2.24242 34.7576H34.7576C35.3768 34.7576 35.8788 34.2556 35.8788 33.6364V2.24242C35.8788 1.6232 35.3768 1.12121 34.7576 1.12121ZM2.24242 0C1.00397 0 0 1.00397 0 2.24242V33.6364C0 34.8748 1.00397 35.8788 2.24242 35.8788H34.7576C35.996 35.8788 37 34.8748 37 33.6364V2.24242C37 1.00397 35.996 0 34.7576 0H2.24242Z" fill="#333333"/>
<path d="M19 10.0151C19 10.8436 18.3284 11.5151 17.5 11.5151C16.6716 11.5151 16 10.8436 16 10.0151C16 9.18672 16.6716 8.51514 17.5 8.51514C18.3284 8.51514 19 9.18672 19 10.0151Z" fill="#D33234"/>
<path d="M18.0769 25.5151C17.5674 25.5151 17.1538 25.0554 17.1538 24.4888V16.5678H15.9231C15.4135 16.5678 15 16.108 15 15.5414C15 14.9749 15.4135 14.5151 15.9231 14.5151H18.0769C18.5865 14.5151 19 14.9749 19 15.5414V24.4888C19 25.0554 18.5865 25.5151 18.0769 25.5151Z" fill="#D33234"/>
<path d="M20.9474 25.5151H15.0526C14.4716 25.5151 14 25.0671 14 24.5151C14 23.9631 14.4716 23.5151 15.0526 23.5151H20.9474C21.5284 23.5151 22 23.9631 22 24.5151C22 25.0671 21.5284 25.5151 20.9474 25.5151Z" fill="#D33234"/>
<path d="M32.9635 3.36365H30.9456C30.5739 3.36365 30.2727 3.66484 30.2727 4.03625C30.2727 4.40797 30.5739 4.70916 30.9456 4.70916H32.2909V6.05468C32.2909 6.42609 32.5921 6.72728 32.9635 6.72728C33.3352 6.72728 33.6363 6.42609 33.6363 6.05468V4.03625C33.6363 3.66484 33.3352 3.36365 32.9635 3.36365Z" fill="#D33234"/>
<path d="M6.05474 31.1697H4.70935V29.8243C4.70935 29.4527 4.40787 29.1515 4.0365 29.1515C3.66512 29.1515 3.36365 29.4527 3.36365 29.8243V31.8423C3.36365 32.214 3.66512 32.5151 4.0365 32.5151H6.05474C6.42612 32.5151 6.72728 32.214 6.72728 31.8423C6.72728 31.4709 6.42612 31.1697 6.05474 31.1697Z" fill="#D33234"/>
</svg>
