<svg width="58" height="59" viewBox="0 0 58 59" fill="none" xmlns="http://www.w3.org/2000/svg">
<path fill-rule="evenodd" clip-rule="evenodd" d="M38.6132 30.6034H53.8596C54.3843 30.6034 54.8095 31.0219 54.8095 31.5384V57.7257C54.8095 58.2421 54.3843 58.6606 53.8596 58.6606C53.3349 58.6606 52.9097 58.2421 52.9097 57.7257V32.4733H38.6132V56.7907H43.8086C44.3333 56.7907 44.7585 57.2093 44.7585 57.7257C44.7585 58.2421 44.3333 58.6606 43.8086 58.6606H4.14081C3.61614 58.6606 3.19092 58.2421 3.19092 57.7257V37.081C3.19092 36.5646 3.61614 36.1461 4.14081 36.1461H18.3873V19.7938C18.3873 19.2774 18.8125 18.8589 19.3371 18.8589H37.6633C38.1879 18.8589 38.6132 19.2774 38.6132 19.7938V30.6034ZM18.3873 38.016H5.0907V56.7907H18.3873V38.016ZM36.7134 20.7288H20.287V56.7904H36.7134V20.7288Z" fill="#333333"/>
<path d="M46.8074 58.0445C46.9377 58.4108 47.2939 58.6605 47.6823 58.6605C48.1303 58.6605 48.526 58.3262 48.5986 57.8833C48.6585 57.517 48.4886 57.1376 48.1724 56.9426C47.8315 56.7328 47.3868 56.7651 47.0804 57.0229C46.7874 57.2694 46.6792 57.685 46.8074 58.0445Z" fill="#333333"/>
<path fill-rule="evenodd" clip-rule="evenodd" d="M24.1832 14.2375C24.4985 14.4665 24.868 14.584 25.2417 14.584C25.4756 14.584 25.7111 14.538 25.9364 14.4448L28.5947 13.3432L31.2526 14.4448C31.8379 14.6872 32.4934 14.6096 33.0058 14.2372C33.5185 13.8651 33.7947 13.2657 33.7447 12.6342L33.5185 9.76566L35.3875 7.578C35.7991 7.0962 35.9281 6.44919 35.7324 5.84653C35.5366 5.24419 35.0519 4.79621 34.4358 4.64842L31.6375 3.97711L30.1347 1.52343C29.8039 0.983161 29.2279 0.660645 28.5947 0.660645C27.9611 0.660645 27.3854 0.983161 27.0543 1.52343L25.5514 3.97711L22.7532 4.64842C22.1371 4.79621 21.6527 5.24419 21.4569 5.84653C21.2612 6.44919 21.3899 7.0962 21.8014 7.578L23.6705 9.76566L23.4442 12.6342C23.3947 13.2657 23.6709 13.8651 24.1832 14.2375ZM28.4883 2.40151C28.4976 2.38661 28.5252 2.3422 28.5947 2.3422C28.6643 2.3422 28.6919 2.38686 28.7007 2.40164L30.3859 5.15256C30.5022 5.34272 30.6897 5.47901 30.9065 5.53091L34.0436 6.28366C34.0604 6.2876 34.1116 6.29976 34.1329 6.3661C34.1546 6.43236 34.1205 6.47241 34.1093 6.4856L32.0136 8.93802C31.8688 9.10782 31.7972 9.32819 31.8149 9.55054L32.0684 12.7665C32.0701 12.7836 32.074 12.8361 32.0175 12.8772C31.9616 12.9178 31.9137 12.8983 31.8972 12.8915L28.9165 11.6561C28.7103 11.5707 28.479 11.5707 28.2728 11.6561L25.2926 12.8913C25.2761 12.8981 25.2277 12.9178 25.1718 12.8772C25.1153 12.8361 25.1192 12.7836 25.1205 12.7665L25.3744 9.55054C25.3918 9.32819 25.3206 9.10782 25.1754 8.93802L23.08 6.48565C23.0685 6.47251 23.0347 6.43244 23.056 6.3661C23.0777 6.29976 23.1286 6.2876 23.1457 6.28366L26.2825 5.53091C26.4996 5.47901 26.6868 5.34272 26.8034 5.15256L28.4883 2.40151Z" fill="#D33234"/>
<path fill-rule="evenodd" clip-rule="evenodd" d="M44.6554 26.0532C44.4156 26.0532 44.1786 25.9777 43.9763 25.8309C43.6476 25.5919 43.4705 25.2075 43.5025 24.8026L43.6001 23.5641L42.7933 22.6198C42.5292 22.3106 42.4466 21.8956 42.5723 21.5092C42.6978 21.1227 43.0087 20.8353 43.4038 20.7407L44.6117 20.4509L45.2607 19.3915C45.4729 19.0451 45.8422 18.8384 46.2482 18.8384C46.6548 18.8381 47.0239 19.0451 47.2363 19.3915L47.8854 20.4509L49.0933 20.7407C49.4883 20.8356 49.7992 21.1229 49.9247 21.5092C50.0504 21.8958 49.9676 22.3109 49.7038 22.6198L48.8969 23.5641L48.9946 24.8026C49.0265 25.2078 48.8494 25.5922 48.5207 25.8309C48.1918 26.0696 47.7716 26.1193 47.3962 25.9638L46.2485 25.4883L45.101 25.9638C44.9564 26.0236 44.8052 26.0532 44.6554 26.0532ZM46.2482 24.0306C46.3396 24.0306 46.4306 24.0483 46.5162 24.0839L47.5679 24.5197L47.4783 23.385C47.4638 23.2 47.5234 23.0165 47.6439 22.8754L48.3832 22.0098L47.2765 21.7444C47.0958 21.7012 46.9399 21.5877 46.8429 21.4294L46.2482 20.4586L45.6539 21.4294C45.5568 21.5877 45.401 21.7012 45.2202 21.7444L44.1132 22.0098L44.8528 22.8752C44.9734 23.0165 45.033 23.1997 45.0185 23.385L44.9288 24.5197L45.9803 24.0839C46.0661 24.0483 46.1572 24.0306 46.2482 24.0306Z" fill="#D33234"/>
<path fill-rule="evenodd" clip-rule="evenodd" d="M8.46162 32.0457C8.66393 32.1926 8.90097 32.268 9.14075 32.268C9.29057 32.268 9.44176 32.2385 9.58639 32.1786L10.7339 31.7032L11.8816 32.1786C12.257 32.3342 12.6772 32.2844 13.0061 32.0457C13.3347 31.8071 13.5119 31.4227 13.4799 31.0175L13.3823 29.779L14.1891 28.8346C14.4529 28.5257 14.5358 28.1107 14.41 27.7241C14.2845 27.3378 13.9737 27.0504 13.5786 26.9556L12.3707 26.6657L11.7217 25.6066C11.5092 25.2602 11.1401 25.0529 10.7336 25.0532C10.3276 25.0532 9.95822 25.2599 9.74606 25.6063L9.097 26.6657L7.88911 26.9556C7.49405 27.0501 7.18319 27.3375 7.0577 27.7241C6.93194 28.1104 7.0145 28.5254 7.27861 28.8346L8.08542 29.779L7.98781 31.0175C7.95582 31.4224 8.13299 31.8068 8.46162 32.0457ZM11.0015 30.2987C10.9159 30.2632 10.8249 30.2454 10.7336 30.2454C10.6425 30.2454 10.5515 30.2632 10.4657 30.2987L9.41415 30.7345L9.50382 29.5999C9.51831 29.4145 9.45871 29.2313 9.33814 29.09L8.59859 28.2247L9.70559 27.9592C9.88631 27.916 10.0422 27.8025 10.1392 27.6443L10.7336 26.6734L11.3282 27.6443C11.4253 27.8025 11.5811 27.916 11.7618 27.9592L12.8686 28.2247L12.1293 29.0903C12.0087 29.2313 11.9491 29.4148 11.9636 29.5999L12.0533 30.7345L11.0015 30.2987Z" fill="#D33234"/>
<path d="M27.7539 51.1699C27.7539 51.6343 28.1303 52.0107 28.5947 52.0107C29.0591 52.0107 29.4355 51.6343 29.4355 51.1699V29.5014C29.4355 29.037 29.0591 28.6606 28.5947 28.6606C28.1303 28.6606 27.7539 29.037 27.7539 29.5014V51.1699Z" fill="#D33234"/>
</svg>
