<svg width="18" height="18" viewBox="0 0 18 18"  xmlns="http://www.w3.org/2000/svg">
<path d="M11.5056 11.0571C10.8129 11.6646 9.9234 11.9995 9.00018 11.9995C8.0766 11.9995 7.18817 11.6661 6.4986 11.0609L5.935 10.5663L4.94531 11.6935L5.50891 12.1881C6.47223 13.0337 7.71204 13.4995 9.00018 13.4995C10.288 13.4995 11.5289 13.0322 12.4948 12.1844L13.0583 11.6897L12.0688 10.5625L11.5056 11.0571Z" />
<path d="M9 0C4.03729 0 0 4.03729 0 9C0 13.9627 4.03729 18 9 18C13.9627 18 18 13.9627 18 9C18 4.03729 13.9627 0 9 0ZM9 16.5C4.86456 16.5 1.5 13.1354 1.5 9C1.5 4.86456 4.86456 1.5 9 1.5C13.1354 1.5 16.5 4.86456 16.5 9C16.5 13.1354 13.1354 16.5 9 16.5Z" />
<path d="M5.25 6.75H6.75V8.25H5.25V6.75Z" />
<path d="M11.25 6.75H12.75V8.25H11.25V6.75Z" />
</svg>
