<svg width="22" height="22" viewBox="0 0 22 22" xmlns="http://www.w3.org/2000/svg">
<path d="M7.94273 14.4356L7.25388 13.8311L6.04427 15.2088L6.73311 15.8132C7.9105 16.8467 9.42582 17.4161 11.0002 17.4161C12.5742 17.4161 14.0908 16.8449 15.2714 15.8088L15.9602 15.2041L14.7508 13.8264L14.062 14.4309C13.2162 15.1734 12.1286 15.5827 11.0002 15.5827C9.8714 15.5827 8.78554 15.1752 7.94273 14.4356Z" />
<path d="M11 0C7.85679 0 4.89508 1.33293 2.80214 3.66667H0V11.9167C0.0449829 12.4529 0.167399 12.9837 0.289591 13.4998C0.323608 13.6464 0.362996 13.7981 0.401937 13.9447C0.517415 14.3793 0.667806 14.8115 0.862061 15.2707C0.920695 15.4079 0.984029 15.5448 1.05318 15.6923L1.09458 15.7785C1.14449 15.8834 1.19529 15.9895 1.249 16.0929C1.2998 16.1907 1.35307 16.2861 1.407 16.3827L1.46989 16.4955C2.45437 18.2047 3.88934 19.6226 5.65621 20.6154C5.76117 20.6722 5.86613 20.7291 5.97579 20.7859L6.34281 20.9652C6.41107 20.999 6.48 21.0321 6.50887 21.0426C6.62435 21.0952 6.74565 21.148 6.85754 21.1914C7.13908 21.3051 7.42822 21.4096 7.71692 21.5027L7.77242 21.5197C7.9067 21.56 8.03829 21.599 8.17257 21.6314C8.24687 21.6527 8.3252 21.671 8.41225 21.6912C8.54205 21.725 8.67812 21.7581 8.76562 21.7722C8.91087 21.8049 9.05611 21.8313 9.17181 21.8483C9.28729 21.8693 9.40859 21.8854 9.49341 21.8959C9.53929 21.9038 9.58561 21.9103 9.63418 21.9143C9.73869 21.9308 9.84052 21.9414 9.94436 21.9514C10.1057 21.966 10.2666 21.9763 10.4311 21.9859C10.6178 21.9949 10.8089 22 11 22C11.1911 22 11.3822 21.9949 11.572 21.9843C11.7334 21.9747 11.8943 21.9651 12.0588 21.9501C12.1595 21.9405 12.26 21.9304 12.364 21.9134C12.4095 21.9103 12.4471 21.9047 12.4735 21.9002C12.5936 21.8845 12.7132 21.8684 12.798 21.8525C12.9434 21.8308 13.0887 21.8037 13.1927 21.7796C13.3223 21.7572 13.4579 21.7241 13.603 21.6869C13.677 21.6695 13.7536 21.6511 13.8274 21.6305C13.9622 21.5981 14.0955 21.5582 14.2692 21.5059C14.5682 21.4148 14.8665 21.3069 15.1342 21.1939C15.2548 21.1467 15.3757 21.0943 15.45 21.0589C15.5196 21.0312 15.5898 20.9976 15.6254 20.9788L16.0361 20.7785C16.1339 20.7277 16.2283 20.6763 16.3221 20.6254L16.3814 20.5934C18.1111 19.6208 19.5456 18.2031 20.537 16.4816L20.5901 16.3863C20.6456 16.2878 20.7002 16.1907 20.7519 16.0902C20.8025 15.9931 20.8506 15.8931 20.8974 15.7941L20.9569 15.6699C21.0187 15.5361 21.0806 15.4027 21.1393 15.2653C21.3322 14.8088 21.4826 14.3766 21.5985 13.9407C21.637 13.7954 21.6759 13.6446 21.7095 13.5016C21.8675 12.8374 21.9711 12.1514 22 11.4583V3.66667H19.1983C17.1049 1.33293 14.1432 0 11 0V0ZM11 1.83333C13.0088 1.83333 14.9299 2.48503 16.5036 3.66667H5.49687C7.07015 2.48503 8.99166 1.83333 11 1.83333ZM19.9252 13.0822C19.895 13.2115 19.8601 13.3454 19.8265 13.4723C19.7336 13.8221 19.6103 14.1748 19.453 14.5485C19.4026 14.6658 19.348 14.783 19.2963 14.8949L19.244 15.0039C19.2046 15.0856 19.1652 15.1686 19.1236 15.2492C19.0813 15.3304 19.0374 15.4097 18.992 15.4893L18.9416 15.5798C18.1216 17.0038 16.9259 18.1852 15.4958 18.9888L15.4495 19.0139C15.3593 19.0625 15.2685 19.1117 15.1745 19.1607L14.8385 19.3239C14.8162 19.3348 14.794 19.3471 14.7313 19.3738C14.6452 19.4127 14.5552 19.4521 14.444 19.4962C14.2124 19.5938 13.974 19.6799 13.6972 19.7643C13.5929 19.7954 13.4915 19.8269 13.3861 19.8513L13.3342 19.865C13.2861 19.8793 13.2353 19.8907 13.1863 19.9021L13.1234 19.9169C13.0428 19.9379 12.9584 19.9599 12.8365 19.982C12.734 20.0049 12.6321 20.0237 12.4997 20.0438C12.4148 20.0595 12.326 20.0704 12.238 20.0818L12.1009 20.0989C12.0268 20.1125 11.9561 20.1181 11.8882 20.1246C11.7466 20.1374 11.6054 20.1461 11.4675 20.1539C11.1614 20.1707 10.8355 20.1707 10.5365 20.1539C10.3951 20.1456 10.2539 20.1369 10.1158 20.1246C10.0448 20.1177 9.9739 20.1121 9.90005 20.0984L9.77405 20.0836C9.77405 20.0836 9.77159 20.0832 9.76622 20.0823C9.6767 20.0709 9.58696 20.0595 9.47148 20.0389C9.3692 20.0237 9.26715 20.0044 9.12303 19.9738C9.04201 19.9594 8.95764 19.9375 8.87663 19.9165L8.81553 19.9017C8.76652 19.8903 8.71527 19.8789 8.66671 19.8641L8.61434 19.8504C8.50938 19.826 8.40778 19.7945 8.27977 19.756C8.03046 19.6759 7.78518 19.5868 7.53497 19.4861C7.44568 19.4507 7.35571 19.4118 7.23061 19.3559C7.20734 19.3462 7.18384 19.3339 7.13035 19.3077L6.82644 19.1598C6.72506 19.107 6.62793 19.0544 6.51894 18.9955C5.07658 18.1843 3.88017 17.0029 3.06712 15.5921L3.00759 15.4853C2.96305 15.4059 2.91919 15.328 2.87734 15.2474C2.83303 15.1622 2.79118 15.0746 2.75045 14.9885L2.71195 14.9072C2.65601 14.7873 2.6005 14.668 2.5506 14.5512C2.39148 14.1759 2.26884 13.8225 2.17529 13.4723C2.14083 13.3438 2.10704 13.2115 2.0757 13.0795C1.99424 12.7353 1.9327 12.3837 1.89286 12.0286L10.0833 12.941V9.625H11.9167V12.9987L20.1452 11.6271C20.1116 12.1196 20.038 12.6069 19.9252 13.0822ZM20.1667 9.625L20.1539 9.76398L13.75 10.8346V7.79167H8.25V10.8924L1.83333 10.1805V5.5H20.1667V9.625Z" />
</svg>
