<svg xmlns="http://www.w3.org/2000/svg">
	<symbol id="like-badly" viewBox="0 0 18 18">
		<path
			d="M9.00348 10.4961C7.71588 10.4961 6.47498 10.9632 5.50891 11.8112L4.94531 12.3057L5.935 13.4329L6.4986 12.9384C7.19073 12.3308 8.08063 11.9961 9.00403 11.9961C9.92798 11.9961 10.8159 12.3293 11.5056 12.9347L12.0692 13.4293L13.0589 12.3024L12.4951 11.8073C11.5314 10.9617 10.2916 10.4961 9.00348 10.4961Z"/>
		<path
			d="M9 0C4.03729 0 0 4.03729 0 9C0 13.9627 4.03729 18 9 18C13.9623 18 18 13.9627 18 9C18 4.03729 13.9623 0 9 0ZM9 16.5C4.86456 16.5 1.5 13.1354 1.5 9C1.5 4.86456 4.86456 1.5 9 1.5C13.1354 1.5 16.5 4.86456 16.5 9C16.5 13.1354 13.1354 16.5 9 16.5Z"/>
		<path d="M5.25 6.75H6.75V8.25H5.25V6.75Z"/>
		<path d="M11.25 6.75H12.75V8.25H11.25V6.75Z"/>
	</symbol>
	<symbol id="like-good" viewBox="0 0 18 18">
		<path
			d="M11.5056 11.0571C10.8129 11.6646 9.9234 11.9995 9.00018 11.9995C8.0766 11.9995 7.18817 11.6661 6.4986 11.0609L5.935 10.5663L4.94531 11.6935L5.50891 12.1881C6.47223 13.0337 7.71204 13.4995 9.00018 13.4995C10.288 13.4995 11.5289 13.0322 12.4948 12.1844L13.0583 11.6897L12.0688 10.5625L11.5056 11.0571Z"/>
		<path
			d="M9 0C4.03729 0 0 4.03729 0 9C0 13.9627 4.03729 18 9 18C13.9627 18 18 13.9627 18 9C18 4.03729 13.9627 0 9 0ZM9 16.5C4.86456 16.5 1.5 13.1354 1.5 9C1.5 4.86456 4.86456 1.5 9 1.5C13.1354 1.5 16.5 4.86456 16.5 9C16.5 13.1354 13.1354 16.5 9 16.5Z"/>
		<path d="M5.25 6.75H6.75V8.25H5.25V6.75Z"/>
		<path d="M11.25 6.75H12.75V8.25H11.25V6.75Z"/>
	</symbol>
	<symbol id="like-normal" viewBox="0 0 18 18">
		<path d="M5.25 11.25H12.75V12.75H5.25V11.25Z"/>
		<path
			d="M9 0C4.03729 0 0 4.03729 0 9C0 13.9627 4.03729 18 9 18C13.9627 18 18 13.9627 18 9C18 4.03729 13.9627 0 9 0ZM9 16.5C4.86456 16.5 1.5 13.1354 1.5 9C1.5 4.86456 4.86456 1.5 9 1.5C13.1354 1.5 16.5 4.86456 16.5 9C16.5 13.1354 13.1354 16.5 9 16.5Z"/>
		<path d="M5.25 6.75H6.75V8.25H5.25V6.75Z"/>
		<path d="M11.25 6.75H12.75V8.25H11.25V6.75Z"/>
	</symbol>
	<symbol id="like-terribly" viewBox="0 0 18 18">
		<path d="M9.86719 4.83575L10.5381 3.49414L13.3795 4.91504L12.7088 6.25665L9.86719 4.83575Z"/>
		<path d="M4.62109 4.91486L7.46289 3.49414L8.13379 4.83575L5.29199 6.25665L4.62109 4.91486Z"/>
		<path
			d="M9 0C4.03729 0 0 4.03729 0 9C0 9.69452 0.079834 10.3834 0.236939 11.0453C0.264771 11.1652 0.296997 11.2894 0.328857 11.4093C0.42334 11.7649 0.546387 12.1185 0.705322 12.4942C0.753296 12.6064 0.805115 12.7185 0.861694 12.8392L0.895569 12.9097C0.936401 12.9955 0.977966 13.0823 1.02191 13.1669C1.06348 13.2469 1.10706 13.325 1.15118 13.4041L1.20264 13.4963C2.00812 14.8947 3.18219 16.0549 4.62781 16.8671C4.71368 16.9136 4.79956 16.9601 4.88928 17.0067L5.18958 17.1533C5.24542 17.181 5.30182 17.2081 5.32544 17.2167C5.41992 17.2597 5.51917 17.3029 5.61072 17.3384C5.84106 17.4315 6.07764 17.517 6.31384 17.5931L6.35925 17.6071C6.46912 17.64 6.57678 17.6719 6.68665 17.6984C6.74744 17.7158 6.81152 17.7308 6.88275 17.7473C6.98895 17.775 7.10028 17.8021 7.17188 17.8136C7.29071 17.8403 7.40955 17.8619 7.50421 17.8759C7.59869 17.8931 7.69794 17.9062 7.76733 17.9149C7.80487 17.9213 7.84277 17.9266 7.88251 17.9299C7.96802 17.9434 8.05133 17.952 8.13629 17.9603C8.26831 17.9722 8.39996 17.9806 8.53455 17.9885C8.68726 17.9958 8.84363 18 9 18C9.15637 18 9.31274 17.9958 9.46802 17.9872C9.60004 17.9793 9.73169 17.9714 9.86627 17.9592C9.9483 17.9513 10.0305 17.9431 10.1157 17.9291C10.1528 17.9266 10.183 17.922 10.2026 17.9187C10.3021 17.9059 10.4009 17.8927 10.4711 17.8797C10.5901 17.8619 10.7089 17.84 10.7937 17.82C10.8997 17.8017 11.0107 17.7746 11.1284 17.7446C11.1896 17.7303 11.2526 17.7155 11.313 17.6981C11.4232 17.6715 11.5323 17.6389 11.6744 17.5961C11.9187 17.5219 12.1628 17.4333 12.3814 17.3412C12.4808 17.3026 12.5797 17.2593 12.642 17.23C12.6978 17.2077 12.7542 17.1806 12.7853 17.1649L13.1193 17.0017C13.2056 16.9567 13.2903 16.9111 13.402 16.8499C14.8174 16.0541 15.9915 14.8942 16.8034 13.4846L16.8488 13.4037C16.8929 13.325 16.9365 13.2469 16.9781 13.1666C17.022 13.0818 17.0636 12.9948 17.1044 12.9093L17.1423 12.8302C17.1945 12.7181 17.2463 12.6061 17.2958 12.4913C17.4536 12.1185 17.5763 11.7645 17.6708 11.4093C17.7026 11.2894 17.7349 11.1652 17.762 11.0482C17.9202 10.3834 18 9.69452 18 9C18 4.03729 13.9627 0 9 0V0ZM16.3021 10.7047C16.2777 10.8094 16.2495 10.9177 16.2213 11.0231C16.145 11.3097 16.0444 11.5988 15.9157 11.9033C15.8738 12.0015 15.828 12.0991 15.7868 12.1886L15.7507 12.264C15.717 12.3345 15.6828 12.4061 15.6469 12.4759C15.6127 12.5418 15.5768 12.6057 15.5403 12.6705L15.4977 12.7471C14.8264 13.9122 13.8475 14.8788 12.6573 15.5479C12.5782 15.5911 12.4984 15.6341 12.4155 15.6773L12.1421 15.8101C12.123 15.8194 12.1042 15.8298 12.0529 15.8513C11.9828 15.8831 11.9092 15.915 11.8178 15.9514C11.6279 16.0312 11.4329 16.1017 11.2068 16.1708C11.1215 16.1962 11.0385 16.222 10.9526 16.242L10.9098 16.2532C10.8701 16.2653 10.8281 16.2746 10.788 16.2839L10.738 16.296C10.6718 16.3132 10.6027 16.3312 10.5022 16.3497C10.4187 16.368 10.335 16.3837 10.227 16.4002C10.1636 16.4119 10.0975 16.4205 10.0051 16.4328L9.9007 16.4449C9.84009 16.4561 9.78223 16.4606 9.72675 16.4659C9.61084 16.4764 9.4953 16.4835 9.38251 16.4899C9.13239 16.5037 8.86578 16.5037 8.62079 16.4899C8.50507 16.4832 8.38953 16.476 8.27655 16.4659C8.21851 16.4603 8.16046 16.4557 8.10004 16.4445L7.99695 16.4324C7.99695 16.4324 7.99493 16.4321 7.99054 16.4313C7.9173 16.422 7.84387 16.4127 7.74939 16.3958C7.66571 16.3834 7.58221 16.3676 7.46429 16.3425C7.39801 16.3308 7.32898 16.3129 7.2627 16.2957L7.21271 16.2836C7.17261 16.2742 7.13068 16.2649 7.09094 16.2528L7.0481 16.2416C6.96222 16.2217 6.87909 16.1959 6.77435 16.1644C6.57037 16.0988 6.36969 16.0259 6.16498 15.9435C6.09192 15.9146 6.01831 15.8828 5.91595 15.837C5.89691 15.8291 5.87769 15.819 5.83392 15.7976L5.58527 15.6766C5.50232 15.6334 5.42285 15.5903 5.33368 15.5422C4.15356 14.8784 3.17468 13.9118 2.50946 12.7575L2.46075 12.6702C2.42432 12.6052 2.38843 12.5414 2.35419 12.4755C2.31793 12.4058 2.28369 12.3342 2.25037 12.2637L2.21887 12.1972C2.1731 12.0991 2.12769 12.0015 2.08685 11.9059C1.95667 11.5988 1.85632 11.3097 1.77979 11.0231C1.75159 10.9182 1.72394 10.8098 1.6983 10.7018C1.56628 10.1505 1.5 9.57788 1.5 9C1.5 4.86456 4.86456 1.5 9 1.5C13.1354 1.5 16.5 4.86456 16.5 9C16.5 9.57788 16.4337 10.1505 16.3021 10.7047Z"/>
		<path
			d="M9 6C6.51855 6 4.5 8.01855 4.5 10.5C4.5 11.3243 4.72614 12.1313 5.15204 12.8309C5.96246 14.1691 7.43701 15 9 15C10.5626 15 12.0368 14.1694 12.847 12.8317C13.2742 12.1306 13.5 11.3243 13.5 10.5C13.5 8.01855 11.4814 6 9 6ZM9 13.5C8.19708 13.5 7.45203 13.1873 6.89886 12.6401C7.51941 12.2269 8.24963 12 9.00366 12C9.75787 12 10.4865 12.2254 11.1044 12.6363C10.5515 13.1854 9.80511 13.5 9 13.5ZM11.8744 11.3491C11.0246 10.8003 10.0309 10.5 9.00366 10.5C7.97589 10.5 6.9798 10.8023 6.12708 11.3538C6.04504 11.0782 6 10.7913 6 10.5C6 8.84583 7.34583 7.5 9 7.5C10.6542 7.5 12 8.84583 12 10.5C12 10.7895 11.9557 11.075 11.8744 11.3491Z"/>
	</symbol>
	<symbol id="like-verygood" viewBox="0 0 22 22">
		<path
			d="M7.94273 14.4356L7.25388 13.8311L6.04427 15.2088L6.73311 15.8132C7.9105 16.8467 9.42582 17.4161 11.0002 17.4161C12.5742 17.4161 14.0908 16.8449 15.2714 15.8088L15.9602 15.2041L14.7508 13.8264L14.062 14.4309C13.2162 15.1734 12.1286 15.5827 11.0002 15.5827C9.8714 15.5827 8.78554 15.1752 7.94273 14.4356Z"/>
		<path
			d="M11 0C7.85679 0 4.89508 1.33293 2.80214 3.66667H0V11.9167C0.0449829 12.4529 0.167399 12.9837 0.289591 13.4998C0.323608 13.6464 0.362996 13.7981 0.401937 13.9447C0.517415 14.3793 0.667806 14.8115 0.862061 15.2707C0.920695 15.4079 0.984029 15.5448 1.05318 15.6923L1.09458 15.7785C1.14449 15.8834 1.19529 15.9895 1.249 16.0929C1.2998 16.1907 1.35307 16.2861 1.407 16.3827L1.46989 16.4955C2.45437 18.2047 3.88934 19.6226 5.65621 20.6154C5.76117 20.6722 5.86613 20.7291 5.97579 20.7859L6.34281 20.9652C6.41107 20.999 6.48 21.0321 6.50887 21.0426C6.62435 21.0952 6.74565 21.148 6.85754 21.1914C7.13908 21.3051 7.42822 21.4096 7.71692 21.5027L7.77242 21.5197C7.9067 21.56 8.03829 21.599 8.17257 21.6314C8.24687 21.6527 8.3252 21.671 8.41225 21.6912C8.54205 21.725 8.67812 21.7581 8.76562 21.7722C8.91087 21.8049 9.05611 21.8313 9.17181 21.8483C9.28729 21.8693 9.40859 21.8854 9.49341 21.8959C9.53929 21.9038 9.58561 21.9103 9.63418 21.9143C9.73869 21.9308 9.84052 21.9414 9.94436 21.9514C10.1057 21.966 10.2666 21.9763 10.4311 21.9859C10.6178 21.9949 10.8089 22 11 22C11.1911 22 11.3822 21.9949 11.572 21.9843C11.7334 21.9747 11.8943 21.9651 12.0588 21.9501C12.1595 21.9405 12.26 21.9304 12.364 21.9134C12.4095 21.9103 12.4471 21.9047 12.4735 21.9002C12.5936 21.8845 12.7132 21.8684 12.798 21.8525C12.9434 21.8308 13.0887 21.8037 13.1927 21.7796C13.3223 21.7572 13.4579 21.7241 13.603 21.6869C13.677 21.6695 13.7536 21.6511 13.8274 21.6305C13.9622 21.5981 14.0955 21.5582 14.2692 21.5059C14.5682 21.4148 14.8665 21.3069 15.1342 21.1939C15.2548 21.1467 15.3757 21.0943 15.45 21.0589C15.5196 21.0312 15.5898 20.9976 15.6254 20.9788L16.0361 20.7785C16.1339 20.7277 16.2283 20.6763 16.3221 20.6254L16.3814 20.5934C18.1111 19.6208 19.5456 18.2031 20.537 16.4816L20.5901 16.3863C20.6456 16.2878 20.7002 16.1907 20.7519 16.0902C20.8025 15.9931 20.8506 15.8931 20.8974 15.7941L20.9569 15.6699C21.0187 15.5361 21.0806 15.4027 21.1393 15.2653C21.3322 14.8088 21.4826 14.3766 21.5985 13.9407C21.637 13.7954 21.6759 13.6446 21.7095 13.5016C21.8675 12.8374 21.9711 12.1514 22 11.4583V3.66667H19.1983C17.1049 1.33293 14.1432 0 11 0V0ZM11 1.83333C13.0088 1.83333 14.9299 2.48503 16.5036 3.66667H5.49687C7.07015 2.48503 8.99166 1.83333 11 1.83333ZM19.9252 13.0822C19.895 13.2115 19.8601 13.3454 19.8265 13.4723C19.7336 13.8221 19.6103 14.1748 19.453 14.5485C19.4026 14.6658 19.348 14.783 19.2963 14.8949L19.244 15.0039C19.2046 15.0856 19.1652 15.1686 19.1236 15.2492C19.0813 15.3304 19.0374 15.4097 18.992 15.4893L18.9416 15.5798C18.1216 17.0038 16.9259 18.1852 15.4958 18.9888L15.4495 19.0139C15.3593 19.0625 15.2685 19.1117 15.1745 19.1607L14.8385 19.3239C14.8162 19.3348 14.794 19.3471 14.7313 19.3738C14.6452 19.4127 14.5552 19.4521 14.444 19.4962C14.2124 19.5938 13.974 19.6799 13.6972 19.7643C13.5929 19.7954 13.4915 19.8269 13.3861 19.8513L13.3342 19.865C13.2861 19.8793 13.2353 19.8907 13.1863 19.9021L13.1234 19.9169C13.0428 19.9379 12.9584 19.9599 12.8365 19.982C12.734 20.0049 12.6321 20.0237 12.4997 20.0438C12.4148 20.0595 12.326 20.0704 12.238 20.0818L12.1009 20.0989C12.0268 20.1125 11.9561 20.1181 11.8882 20.1246C11.7466 20.1374 11.6054 20.1461 11.4675 20.1539C11.1614 20.1707 10.8355 20.1707 10.5365 20.1539C10.3951 20.1456 10.2539 20.1369 10.1158 20.1246C10.0448 20.1177 9.9739 20.1121 9.90005 20.0984L9.77405 20.0836C9.77405 20.0836 9.77159 20.0832 9.76622 20.0823C9.6767 20.0709 9.58696 20.0595 9.47148 20.0389C9.3692 20.0237 9.26715 20.0044 9.12303 19.9738C9.04201 19.9594 8.95764 19.9375 8.87663 19.9165L8.81553 19.9017C8.76652 19.8903 8.71527 19.8789 8.66671 19.8641L8.61434 19.8504C8.50938 19.826 8.40778 19.7945 8.27977 19.756C8.03046 19.6759 7.78518 19.5868 7.53497 19.4861C7.44568 19.4507 7.35571 19.4118 7.23061 19.3559C7.20734 19.3462 7.18384 19.3339 7.13035 19.3077L6.82644 19.1598C6.72506 19.107 6.62793 19.0544 6.51894 18.9955C5.07658 18.1843 3.88017 17.0029 3.06712 15.5921L3.00759 15.4853C2.96305 15.4059 2.91919 15.328 2.87734 15.2474C2.83303 15.1622 2.79118 15.0746 2.75045 14.9885L2.71195 14.9072C2.65601 14.7873 2.6005 14.668 2.5506 14.5512C2.39148 14.1759 2.26884 13.8225 2.17529 13.4723C2.14083 13.3438 2.10704 13.2115 2.0757 13.0795C1.99424 12.7353 1.9327 12.3837 1.89286 12.0286L10.0833 12.941V9.625H11.9167V12.9987L20.1452 11.6271C20.1116 12.1196 20.038 12.6069 19.9252 13.0822ZM20.1667 9.625L20.1539 9.76398L13.75 10.8346V7.79167H8.25V10.8924L1.83333 10.1805V5.5H20.1667V9.625Z"/>
	</symbol>
</svg>
