<svg width="58" height="59" viewBox="0 0 58 59" fill="none" xmlns="http://www.w3.org/2000/svg">
<path d="M25.6312 49.337C24.1597 47.3302 21.9393 44.2145 19.7154 40.7308C17.5082 37.3454 15.5213 33.7893 13.7703 30.0896C11.9325 26.075 11 22.7462 11 20.1905C10.9955 17.5132 11.4766 14.8623 12.4148 12.3961C16.2833 2.21505 26.8469 -2.55573 36.012 1.73907C36.3081 1.87851 36.5148 2.18294 36.5541 2.53764C36.5934 2.89233 36.4595 3.2434 36.2027 3.45854C35.9459 3.67379 35.6053 3.72031 35.3091 3.58087C31.2762 1.70204 26.733 1.70204 22.7001 3.58087C16.698 6.4072 12.7994 12.9478 12.8 20.1905C12.8 22.4283 13.664 25.452 15.374 29.1767C17.0856 32.7922 19.0274 36.2675 21.1844 39.5759C23.3785 43.0155 25.5719 46.0963 27.0254 48.0751C27.5087 48.7331 27.9434 49.3151 28.3142 49.807C28.4873 50.0265 28.7372 50.1525 29 50.1525C29.2627 50.1525 29.5126 50.0266 29.6857 49.807C30.0565 49.315 30.4913 48.7331 30.9746 48.0751C32.428 46.0953 34.6214 43.0146 36.8156 39.5759C38.9725 36.2675 40.9143 32.7922 42.626 29.1767C44.3341 25.452 45.1999 22.4283 45.1999 20.1905C45.2053 15.4098 43.4981 10.8234 40.4551 7.44352C40.2213 7.19229 40.1277 6.82048 40.2103 6.47094C40.2929 6.1214 40.5388 5.84861 40.8536 5.75733C41.1683 5.66605 41.5028 5.77057 41.7286 6.0307C45.1093 9.78508 47.0061 14.88 47 20.1906C47 22.7463 46.0675 26.075 44.2297 30.0847C42.4785 33.786 40.4917 37.3438 38.2843 40.7308C36.0595 44.2145 33.8401 47.3371 32.3695 49.337C32.1543 49.6289 31.9536 49.8999 31.7592 50.1609H36.1998C36.6969 50.1609 37.0998 50.6085 37.0998 51.1608C37.0998 51.713 36.6969 52.1606 36.1998 52.1606H17.7999C17.3028 52.1606 16.8999 51.713 16.8999 51.1608C16.8999 50.6085 17.3028 50.1609 17.7999 50.1609H26.2405C26.0461 49.8999 25.8454 49.629 25.6312 49.337Z" fill="#333333"/>
<path d="M40.956 51.1389C40.956 51.6792 40.5181 52.1172 39.9778 52.1172C39.4374 52.1172 38.9995 51.6792 38.9995 51.1389C38.9995 50.5986 39.4374 50.1606 39.9778 50.1606C40.5181 50.1606 40.956 50.5986 40.956 51.1389Z" fill="#333333"/>
<path d="M43.9778 52.1172C44.5181 52.1172 44.956 51.6792 44.956 51.1389C44.956 50.5986 44.5181 50.1606 43.9778 50.1606C43.4374 50.1606 42.9995 50.5986 42.9995 51.1389C42.9995 51.6792 43.4374 52.1172 43.9778 52.1172Z" fill="#333333"/>
<path d="M14.956 51.1389C14.956 51.6792 14.5181 52.1172 13.9778 52.1172C13.4374 52.1172 12.9995 51.6792 12.9995 51.1389C12.9995 50.5986 13.4374 50.1606 13.9778 50.1606C14.5181 50.1606 14.956 50.5986 14.956 51.1389Z" fill="#333333"/>
<path d="M22.6573 21.9739C22.4087 21.5434 21.8525 21.3993 21.4148 21.652C20.977 21.9048 20.8237 22.4585 21.0722 22.889C23.2189 26.6075 27.7379 28.2661 31.8652 26.8505C35.9925 25.4349 38.5787 21.3393 38.0424 17.0685C37.506 12.7977 33.9963 9.54117 29.6597 9.29036C25.3231 9.03955 21.3673 11.8645 20.2117 16.0374C20.1187 16.3521 20.2033 16.6896 20.4332 16.9202C20.663 17.1508 21.0023 17.2387 21.3205 17.1501C21.6389 17.0614 21.8866 16.81 21.9686 16.4925C22.893 13.1541 26.0575 10.8941 29.5267 11.0946C32.996 11.2951 35.8039 13.9003 36.2332 17.3168C36.6625 20.7334 34.5936 24.0099 31.2918 25.1426C27.99 26.2753 24.3748 24.9485 22.6573 21.9739Z" fill="#D33234"/>
<path d="M21.916 19.4193C21.916 19.9596 21.4781 20.3975 20.9377 20.3975C20.3974 20.3975 19.9595 19.9596 19.9595 19.4193C19.9595 18.8789 20.3974 18.441 20.9377 18.441C21.4781 18.441 21.916 18.8789 21.916 19.4193Z" fill="#D33234"/>
<path d="M50.3433 46.4545L55.6734 54.5132L57.9995 58.1606H-0.000488281C-0.000488281 58.1606 1.67794 55.6006 2.32583 54.5132L7.65503 46.4545C8.13746 45.6493 9.03994 45.1546 10.0149 45.1607H17.1916C17.6703 45.1607 18.0582 45.5294 18.0582 45.9842C18.0582 46.439 17.6703 46.8077 17.1916 46.8077H10.0148C9.66821 46.8014 9.34484 46.9733 9.16903 47.2573C7.17182 50.6528 2.99951 56.5135 2.99951 56.5135H54.4995C54.4995 56.5135 49.4465 48.3022 48.8319 47.2573C48.6558 46.9732 48.3321 46.8013 47.9852 46.8077H40.8084C40.3297 46.8077 39.9418 46.439 39.9418 45.9842C39.9418 45.5294 40.3297 45.1607 40.8084 45.1607H47.9852C48.9597 45.1549 49.8614 45.6496 50.3433 46.4545Z" fill="#D33234"/>
</svg>
