<svg width="42" height="50" viewBox="0 0 42 50" fill="none" xmlns="http://www.w3.org/2000/svg">
<g clip-path="url(#clip0)">
<path d="M41.8621 0H0V39H41.8621V0Z" fill="#D33234"/>
<path d="M7.04492 15.5H10.2101C10.9248 15.5 11.6395 15.6 12.2522 15.9C12.8648 16.2 13.2732 16.6 13.5795 17.1C13.8858 17.6 14.09 18.2 14.09 18.9C14.09 19.6 13.8858 20.2 13.5795 20.7C13.2732 21.2 12.7627 21.6 12.2522 21.9C11.6395 22.2 11.0269 22.3 10.2101 22.3H7.04492V15.5ZM10.108 21.4C10.6185 21.4 11.129 21.3 11.5374 21.1C11.9458 20.9 12.2522 20.6 12.4564 20.3C12.6606 19.9 12.7627 19.5 12.7627 19C12.7627 18.5 12.6606 18.1 12.4564 17.7C12.2522 17.3 11.9458 17.1 11.5374 16.9C11.129 16.7 10.7206 16.6 10.108 16.6H8.37225V21.4H10.108Z" fill="white"/>
<path d="M20.8294 21.4V22.5H15.418V15.5H20.6252V16.6H16.7453V18.4H20.2168V19.5H16.7453V21.4H20.8294Z" fill="white"/>
<path d="M23.6867 16.6V18.7H27.1582V19.8H23.6867V22.5H22.3594V15.5H27.5666V16.6H23.6867Z" fill="white"/>
<path d="M30.121 22.1C29.5084 21.8 29.1 21.4 28.7937 20.8C28.4874 20.2 28.2832 19.6 28.2832 19C28.2832 18.4 28.4874 17.7 28.7937 17.2C29.1 16.7 29.6105 16.2 30.121 15.9C30.7337 15.6 31.3463 15.4 32.061 15.4C32.7757 15.4 33.4904 15.6 34.0009 15.9C34.6136 16.2 35.022 16.6 35.4304 17.2C35.7367 17.7 35.9409 18.4 35.9409 19C35.9409 19.6 35.7367 20.3 35.4304 20.8C35.1241 21.3 34.6136 21.8 34.0009 22.1C33.3883 22.4 32.7757 22.6 32.061 22.6C31.3463 22.6 30.7337 22.4 30.121 22.1ZM33.3883 21.1C33.7967 20.9 34.103 20.6 34.3073 20.2C34.5115 19.8 34.6136 19.4 34.6136 18.9C34.6136 18.4 34.5115 18 34.3073 17.6C34.103 17.2 33.7967 16.9 33.3883 16.7C32.9799 16.5 32.5715 16.4 32.061 16.4C31.5505 16.4 31.1421 16.5 30.7337 16.7C30.3253 16.9 30.0189 17.2 29.8147 17.6C29.7126 18.1 29.6105 18.5 29.6105 19C29.6105 19.5 29.7126 19.9 29.9168 20.3C30.121 20.7 30.4274 21 30.8358 21.2C31.2442 21.4 31.6526 21.5 32.1631 21.5C32.6736 21.5 32.9799 21.4 33.3883 21.1Z" fill="white"/>
<path d="M0 49.5C0 49.4 0 38.5 0 38.5H8.16821L0 49.5Z" fill="#D33234"/>
</g>
<defs>
<clipPath id="clip0">
<rect width="41.8621" height="49.5" fill="white"/>
</clipPath>
</defs>
</svg>
