<svg width="59" height="59" viewBox="0 0 59 59" fill="none" xmlns="http://www.w3.org/2000/svg">
<path d="M43.2825 36.2126L39.404 34.8088C38.8601 34.6117 38.2449 34.7549 37.837 35.1732L37.3944 35.6272L34.8308 34.2289L34.8306 31.8609C37.3343 30.142 39.3382 27.1896 39.8804 24.2613C39.8855 24.2339 39.8901 24.2067 39.8949 24.1794C39.9111 24.0872 39.9269 23.995 39.9401 23.9027C39.9549 23.8017 39.9679 23.701 39.979 23.6005C39.9833 23.5613 39.9865 23.5222 39.9902 23.4831C39.9994 23.3874 40.0069 23.292 40.0126 23.1968C40.0143 23.1679 40.0163 23.1391 40.0176 23.1102C40.0191 23.0813 40.0215 23.0522 40.0226 23.0234C41.2714 23.0214 42.2868 21.9804 42.2868 20.701V17.8372C42.285 17.2242 41.9542 16.6894 41.4671 16.4058L41.5161 16.3152C41.517 16.3135 41.5177 16.3116 41.5186 16.31C41.5324 16.2841 41.545 16.2573 41.5563 16.2299C41.5593 16.2226 41.5614 16.2151 41.5643 16.2078C41.5723 16.1865 41.5799 16.1652 41.5862 16.1432C41.5892 16.1328 41.5914 16.1224 41.594 16.1121C41.5988 16.0929 41.6033 16.0738 41.6068 16.0542C41.609 16.0422 41.6106 16.0304 41.6122 16.0183C41.6147 16.0001 41.6168 15.9819 41.6182 15.9633C41.6191 15.9505 41.6197 15.9377 41.6201 15.9248C41.6204 15.9154 41.6215 15.9063 41.6215 15.8969V11.5425C41.6215 5.54217 36.8546 0.660645 30.9955 0.660645H27.0221C21.1629 0.660645 16.3961 5.54229 16.3961 11.5425V15.8802C16.396 15.8881 16.3974 15.8962 16.3975 15.9041C16.3977 15.9319 16.3992 15.9597 16.402 15.9875C16.4033 15.9993 16.4042 16.011 16.4059 16.023C16.4115 16.0621 16.4191 16.1009 16.43 16.139C16.4301 16.1396 16.4302 16.1401 16.4303 16.1407C16.431 16.143 16.4321 16.145 16.4328 16.1472C16.444 16.185 16.4583 16.2219 16.4747 16.2581C16.4796 16.2688 16.4845 16.2794 16.4897 16.2899C16.4939 16.2983 16.4972 16.307 16.5016 16.3152L16.5506 16.4059C16.0635 16.6898 15.7327 17.2251 15.7309 17.8398V20.701C15.7309 21.98 16.7458 23.0208 17.9942 23.0234C17.9954 23.0583 17.9983 23.0936 18 23.1286C18.0013 23.1562 18.0029 23.1838 18.0045 23.2114C18.0105 23.313 18.0185 23.4149 18.0285 23.5171C18.0313 23.5469 18.0336 23.5768 18.0368 23.6067C18.0491 23.7211 18.0638 23.8357 18.0809 23.9507C18.0905 24.0156 18.102 24.0805 18.1131 24.1455C18.1214 24.194 18.1297 24.2425 18.1388 24.291C18.1541 24.3732 18.1706 24.4553 18.1881 24.5374C18.1911 24.5509 18.1942 24.5643 18.1972 24.5778C18.8155 27.4068 20.7687 30.2228 23.1869 31.8842L23.1866 34.229L20.6238 35.6277L20.1808 35.1734C19.773 34.7552 19.158 34.6123 18.6138 34.8091L6.67591 39.1296C3.17926 40.3951 0.76762 43.6649 0.531995 47.4599C0.502542 47.9347 0.854507 48.3442 1.31817 48.3744C1.3364 48.3756 1.35442 48.3762 1.37243 48.3762C1.81264 48.3762 2.18284 48.0256 2.21116 47.5693C2.40397 44.4643 4.37653 41.7893 7.23654 40.7543L19.0689 36.4718L19.8146 37.2367C19.8357 37.2582 19.8572 37.2791 19.8784 37.3005C19.8784 37.3005 19.8785 37.3006 19.8786 37.3007C19.8793 37.3014 19.8801 37.3021 19.8808 37.3028C22.3197 39.7695 25.5572 41.1273 29.0087 41.1273C32.3502 41.1273 35.491 39.8546 37.9009 37.5354C37.901 37.5353 37.9011 37.5351 37.9013 37.535C37.9798 37.4595 38.0575 37.3828 38.1344 37.3051C38.1361 37.3035 38.1378 37.3017 38.1395 37.3001C38.1398 37.2999 38.1399 37.2996 38.1401 37.2995C38.1609 37.2784 38.1822 37.2579 38.2031 37.2365L38.9488 36.4717L42.7219 37.8372C43.1599 37.9959 43.6406 37.7607 43.7954 37.3121C43.9503 36.8635 43.7207 36.3712 43.2825 36.2126ZM40.0275 18.9288H40.0276C40.1835 18.7279 40.3262 18.5144 40.4499 18.2857L40.5796 18.0459L40.604 18.0008V20.7009C40.604 21.0283 40.3461 21.2943 40.0275 21.2993V18.9288ZM17.9899 21.2993C17.6713 21.2944 17.4134 21.0283 17.4134 20.7009V18.0008L17.5676 18.2857C17.6913 18.5144 17.834 18.7279 17.9899 18.9288V21.2993ZM18.0786 14.772V11.5425C18.0786 6.49228 22.0907 2.38372 27.022 2.38372H30.9953C35.9268 2.38372 39.9388 6.4924 39.9388 11.5425V14.772C32.7643 12.8717 25.2531 12.8717 18.0786 14.772ZM19.4484 18.0261C19.4473 18.025 19.4462 18.0241 19.4452 18.0231C19.4205 17.9958 19.3952 17.9691 19.3716 17.9407C19.2464 17.7909 19.1348 17.627 19.0394 17.4507L18.4928 16.4404C25.3952 14.6109 32.6224 14.6109 39.5247 16.4404L38.9782 17.4507C38.8647 17.6604 38.7272 17.8514 38.5723 18.0232C38.5714 18.0242 38.5702 18.025 38.5692 18.0261C38.2627 18.365 37.8848 18.6227 37.4706 18.7835C37.4695 18.784 37.4685 18.7843 37.4673 18.7848C37.4241 18.8015 37.3803 18.8172 37.3363 18.8317C37.3288 18.8341 37.3212 18.8364 37.3137 18.8388C37.1976 18.8763 37.079 18.9057 36.9589 18.9279C36.9307 18.933 36.9025 18.9384 36.874 18.9428C36.8482 18.9467 36.8223 18.95 36.7965 18.9532C36.7606 18.9576 36.7244 18.9615 36.6882 18.9645C36.6674 18.9662 36.6467 18.9682 36.626 18.9696C36.568 18.9732 36.5098 18.9756 36.4511 18.9756H21.5666C21.508 18.9756 21.4498 18.9732 21.3917 18.9696C21.3709 18.9683 21.3502 18.9663 21.3295 18.9645C21.2933 18.9615 21.2571 18.9576 21.2212 18.9532C21.1954 18.95 21.1694 18.9467 21.1437 18.9428C21.1153 18.9385 21.0871 18.9332 21.0588 18.9279C20.9386 18.9057 20.82 18.8763 20.7039 18.8388C20.6964 18.8364 20.6889 18.8341 20.6814 18.8317C20.6374 18.817 20.5936 18.8015 20.5503 18.7847C20.5492 18.7843 20.5481 18.7839 20.5471 18.7834C20.1328 18.6226 19.7549 18.365 19.4484 18.0261ZM19.7128 23.4449C19.7114 23.4324 19.71 23.4199 19.7087 23.4075C19.6982 23.3097 19.6901 23.2121 19.6842 23.1152C19.6834 23.1023 19.6823 23.0894 19.6816 23.0765C19.6757 22.9684 19.6723 22.8608 19.6723 22.7539V20.2754C19.6754 20.2768 19.6784 20.2779 19.6815 20.2793C19.748 20.3102 19.8151 20.3394 19.883 20.367C19.8953 20.372 19.9075 20.3767 19.9197 20.3815C20.1167 20.4596 20.3194 20.5238 20.5266 20.5734C20.5526 20.5797 20.5785 20.5868 20.6045 20.5926C20.6529 20.6032 20.7017 20.6122 20.7506 20.6212C20.7956 20.6297 20.8407 20.6378 20.886 20.6448C20.9284 20.6513 20.9708 20.6573 21.0133 20.6626C21.0702 20.6698 21.1273 20.6755 21.1845 20.6805C21.2185 20.6834 21.2525 20.6869 21.2866 20.6891C21.3796 20.695 21.4728 20.6988 21.5665 20.6988H36.4509C36.5444 20.6988 36.6378 20.695 36.7308 20.6891C36.765 20.6869 36.7989 20.6834 36.8328 20.6805C36.89 20.6755 36.9471 20.6698 37.004 20.6626C37.0466 20.6573 37.089 20.6514 37.1313 20.6448C37.1767 20.6377 37.2217 20.6296 37.2667 20.6212C37.3155 20.6122 37.3644 20.6032 37.4127 20.5926C37.4389 20.5868 37.4647 20.5797 37.4908 20.5734C37.698 20.5238 37.9005 20.4596 38.0974 20.3816C38.1096 20.3768 38.122 20.372 38.1343 20.3671C38.2022 20.3395 38.2694 20.3103 38.3357 20.2796C38.3388 20.2782 38.3419 20.277 38.3449 20.2756V22.7314C38.3449 22.8382 38.3415 22.9458 38.3356 23.0539C38.3348 23.0679 38.3337 23.0821 38.3328 23.0962C38.327 23.1913 38.319 23.2866 38.3088 23.3823C38.3072 23.3978 38.3055 23.4132 38.3038 23.4286C37.9161 26.8357 34.8091 30.6843 31.6465 31.4896L31.5352 31.518C29.2361 32.1035 28.6541 32.1021 26.3462 31.5062C23.1942 30.6919 20.097 26.8429 19.7128 23.4449ZM21.9296 36.8673L23.9295 35.7759C24.4953 35.5553 24.8691 35.0053 24.8691 34.3777L24.8692 32.8127C25.2204 32.9605 25.5762 33.084 25.9351 33.1767C27.2357 33.5125 28.0948 33.6798 28.9558 33.6798C29.807 33.6798 30.66 33.5161 31.9418 33.1897L32.0531 33.1613C32.4218 33.0674 32.7873 32.9414 33.1479 32.7896L33.148 34.3775C33.148 35.005 33.5217 35.5552 34.0876 35.7758L36.0881 36.8671C31.9776 40.2442 26.0402 40.2446 21.9296 36.8673Z" fill="#333333"/>
<path d="M51.3434 39.1297C54.84 40.3952 57.2516 43.665 57.4873 47.46L58.0052 58.6609H0.177425C-0.104012 57.1344 0.00732176 55.5774 0.117624 54.0348C0.13841 53.7442 0.159159 53.454 0.177237 53.1646C0.206916 52.6898 0.606572 52.3306 1.07057 52.3599C1.53423 52.3903 1.88608 52.7999 1.8564 53.2747C1.79985 54.1799 1.8564 56.9378 1.8564 56.9378H9.51342V46.1609C9.51342 45.6851 9.89008 45.2993 10.3548 45.2993C10.8194 45.2993 11.1961 45.6851 11.1961 46.1609V56.9378H46.825V46.1609C46.825 45.6851 47.2016 45.2993 47.6663 45.2993C48.131 45.2993 48.5076 45.6851 48.5076 46.1609V56.9378H56.0112C56.0112 56.9378 55.8916 48.9061 55.808 47.5698C55.6152 44.4646 53.6427 41.7895 50.7827 40.7544L47.9506 39.7293C47.5126 39.5707 47.283 39.0785 47.4378 38.6299C47.5925 38.1812 48.0732 37.9462 48.5114 38.1046L51.3434 39.1297Z" fill="#D33234"/>
<path fill-rule="evenodd" clip-rule="evenodd" d="M36.9567 45.8286H42.675C43.7065 45.8286 44.5457 46.688 44.5457 47.7444V49.364C44.5457 50.4203 43.7065 51.2797 42.675 51.2797H36.9567C35.9251 51.2797 35.0859 50.4203 35.0859 49.364V47.7444C35.0859 46.688 35.9251 45.8286 36.9567 45.8286ZM42.675 49.5567C42.7788 49.5567 42.8631 49.4702 42.8631 49.364V47.7444C42.8631 47.6381 42.7788 47.5517 42.675 47.5517H36.9567C36.8529 47.5517 36.7685 47.6381 36.7685 47.7444V49.364C36.7685 49.4702 36.8529 49.5567 36.9567 49.5567H42.675Z" fill="#D33234"/>
</svg>
