<svg width="58" height="59" viewBox="0 0 58 59" fill="none" xmlns="http://www.w3.org/2000/svg">
<path fill-rule="evenodd" clip-rule="evenodd" d="M8.22036 0.660645H35.3789C37.2926 0.660645 38.8948 2.24255 38.8948 4.23153V10.9452H36.9611V4.23153C36.9611 3.39183 36.2691 2.65936 35.3789 2.65936H9.91972L9.91972 10.807C9.91972 11.3593 9.48683 11.807 8.95284 11.807H1.93375V55.0898C1.93375 55.9295 2.6257 56.6619 3.51592 56.6619H35.3789C36.2691 56.6619 36.9611 55.9295 36.9611 55.0898V53.804H38.8948V55.0898C38.8948 57.0787 37.2926 58.6606 35.3789 58.6606H3.51592C1.6022 58.6606 0 57.0787 0 55.0898V8.95354L8.22036 0.660645ZM1.93375 9.79566L7.98596 3.69005V8.80702C7.98596 9.3593 7.55308 9.80702 7.01909 9.80702H1.93375V9.79566Z" fill="#333333"/>
<path fill-rule="evenodd" clip-rule="evenodd" d="M14.0202 13.8374H42.7189V50.5754H14.0202V13.8374ZM15.9539 15.8374V25.4155H40.7851V15.8374H15.9539ZM15.9539 33.1353V27.4155H22.9411V33.1353H15.9539ZM22.9411 35.1353H15.9539V40.855H22.9411V35.1353ZM24.8749 40.855V35.1353H31.863V40.855H24.8749ZM33.7968 48.5754V35.1353H40.7851V48.5754H33.7968ZM31.863 42.855V48.5754H24.8749V42.855H31.863ZM33.7968 27.4155V33.1353H40.7851V27.4155H33.7968ZM31.863 33.1353V27.4155H24.8749V33.1353H31.863ZM22.9411 42.855H15.9539V48.5754H22.9411V42.855Z" fill="#333333"/>
<path fill-rule="evenodd" clip-rule="evenodd" d="M45.4304 0.660645H57.9998V58.6606H45.4304V0.660645ZM47.3642 2.64355V56.6777H56.0661V51.6606H52.9147C52.3807 51.6606 51.9479 51.2129 51.9479 50.6606C51.9479 50.1084 52.3807 49.6606 52.9147 49.6606H56.0661V44.6606H52.9147C52.3807 44.6606 51.9479 44.2129 51.9479 43.6606C51.9479 43.1084 52.3807 42.6606 52.9147 42.6606H56.0661V37.6606H52.9147C52.3807 37.6606 51.9479 37.2129 51.9479 36.6606C51.9479 36.1084 52.3807 35.6606 52.9147 35.6606H56.0661V30.6606H52.9147C52.3807 30.6606 51.9479 30.2129 51.9479 29.6606C51.9479 29.1084 52.3807 28.6606 52.9147 28.6606H56.0661V23.6606H52.9147C52.3807 23.6606 51.9479 23.2129 51.9479 22.6606C51.9479 22.1084 52.3807 21.6606 52.9147 21.6606H56.0661V16.6606H52.9147C52.3807 16.6606 51.9479 16.2129 51.9479 15.6606C51.9479 15.1084 52.3807 14.6606 52.9147 14.6606H56.0661V9.66064H52.9147C52.3807 9.66064 51.9479 9.21293 51.9479 8.66064C51.9479 8.10836 52.3807 7.66064 52.9147 7.66064H56.0661V2.64355H47.3642Z" fill="#D33234"/>
<path d="M19.3252 20.5921C19.3252 21.1071 19.7288 21.5246 20.2268 21.5246C20.7247 21.5246 21.1283 21.1071 21.1283 20.5921C21.1283 20.0771 20.7247 19.6597 20.2268 19.6597C19.7288 19.6597 19.3252 20.0771 19.3252 20.5921Z" fill="#D33234"/>
<path d="M23.8327 21.5246C23.3348 21.5246 22.9312 21.1071 22.9312 20.5921C22.9312 20.0771 23.3348 19.6597 23.8327 19.6597C24.3306 19.6597 24.7343 20.0771 24.7343 20.5921C24.7343 21.1071 24.3306 21.5246 23.8327 21.5246Z" fill="#D33234"/>
<path d="M26.5376 20.5921C26.5376 21.1071 26.9412 21.5246 27.4391 21.5246C27.9371 21.5246 28.3407 21.1071 28.3407 20.5921C28.3407 20.0771 27.9371 19.6597 27.4391 19.6597C26.9412 19.6597 26.5376 20.0771 26.5376 20.5921Z" fill="#D33234"/>
</svg>
