<svg width="56" height="57" viewBox="0 0 56 57" fill="none" xmlns="http://www.w3.org/2000/svg">
<path d="M55.1806 27.2737H48.739V24.3158H50.7089C51.9082 24.3158 52.8837 23.3402 52.8837 22.141V2.17485C52.8837 0.975641 51.9082 0 50.7089 0H20.1044C18.9052 0 17.9297 0.975641 17.9297 2.17485V5.12026C17.9297 6.17826 19.5704 6.17826 19.5704 5.12026V2.17485C19.5704 1.8803 19.8099 1.64065 20.1044 1.64065H50.7091C51.0035 1.64065 51.2431 1.8803 51.2431 2.17485V18.0814H48.7391V9.34144C48.7391 9.07073 48.6055 8.81752 48.3822 8.66461C48.1589 8.5117 47.8746 8.47878 47.6221 8.57656C47.4075 8.6598 42.8817 10.508 41.9185 18.0813H19.5704V9.38584C19.5704 8.32784 17.9297 8.32784 17.9297 9.38584V22.141C17.9297 23.3402 18.9052 24.3158 20.1044 24.3158H31.1237V27.2737C18.1242 27.2737 2.73642 27.2737 0.820326 27.2737C0.367178 27.2737 0 27.6409 0 28.094V55.1806C0 56.2386 1.64065 56.2386 1.64065 55.1806V51.3524H16.4612V55.1806C16.4612 56.2386 18.1019 56.2386 18.1019 55.1806V34.2896H47.1102C47.1145 34.5754 47.1418 36.1149 47.1452 36.5763H33.2621C30.019 36.5763 27.6161 37.4204 26.1201 39.0853C24.3239 41.084 24.5603 43.5069 24.5714 43.609C24.616 44.0258 24.9678 44.3419 25.387 44.3419H35.985V45.8185H32.7584C31.7004 45.8185 31.7004 47.4591 32.7584 47.4591H35.985V54.3603H25.4848C24.4268 54.3603 24.4268 56.0009 25.4848 56.0009H36.5127C36.6037 56.0357 36.702 56.0556 36.8053 56.0556C36.9085 56.0556 37.0069 56.0357 37.0979 56.0009H48.1258C49.1838 56.0009 49.1838 54.3603 48.1258 54.3603H37.6256V44.342H43.1061C44.9893 44.342 46.3506 43.888 47.2681 42.954C48.8758 41.3172 48.8268 38.5765 48.7648 35.1066C48.76 34.8382 48.7553 34.5651 48.7511 34.2895H54.3603V42.0007C54.3603 43.0587 56.0009 43.0587 56.0009 42.0007V28.094C56.0009 27.6409 55.6337 27.2737 55.1806 27.2737ZM46.0976 41.8044C45.5047 42.408 44.5262 42.7014 43.1061 42.7014H26.2245C26.3004 42.0464 26.5533 41.0579 27.3405 40.1819C28.5121 38.878 30.5044 38.2169 33.2622 38.2169H47.1242C47.0564 39.8246 46.8134 41.0757 46.0976 41.8044ZM51.243 19.7221V22.1411C51.243 22.4357 51.0035 22.6752 50.7089 22.6752H48.739V19.7221H51.243ZM45.8153 12.18C46.262 11.5899 46.7111 11.1507 47.0983 10.8322V31.3801C46.7124 31.0494 46.2666 30.5985 45.8231 29.9995C44.2245 27.8406 43.3795 24.7441 43.3795 21.0446C43.3795 17.3507 44.2219 14.2853 45.8153 12.18ZM41.9595 24.3159C42.1161 25.42 42.3481 26.4025 42.6308 27.2738H39.6897V24.3159H41.9595ZM19.5704 22.141V19.722H41.7731C41.7218 20.7055 41.7277 21.6924 41.7916 22.6751H20.1044C19.8099 22.6752 19.5704 22.4356 19.5704 22.141ZM32.7644 24.3159H38.049V27.2738H32.7644V24.3159ZM43.275 28.9143C44.1298 30.7409 45.1909 31.9209 46.0494 32.649H1.64065V28.9143H43.275ZM1.64065 49.7118V42.821H16.4612V49.7118H1.64065ZM16.4612 41.1804H1.64065V34.2896H16.4612V41.1804ZM48.739 32.649V28.9143H54.3603V32.649H48.739Z" fill="#333333"/>
<path fill-rule="evenodd" clip-rule="evenodd" d="M6.24799 15.0679C6.60287 15.1127 6.95943 15.1145 7.30811 15.0679C7.39873 15.0558 7.48882 15.0404 7.57822 15.0216V16.5679H2.82033C2.36718 16.5679 2 16.9352 2 17.3882C2 19.7996 2.13081 22.6774 3.94756 24.4921H12.4746C14.2915 22.6771 14.469 19.803 14.469 17.3882C14.469 16.9352 14.1018 16.5679 13.6486 16.5679H9.21887V15.0192C9.31058 15.0387 9.40257 15.0549 9.49472 15.0679C9.88285 15.1226 10.2737 15.1203 10.6574 15.0679C10.6779 15.0651 10.6984 15.0621 10.7189 15.0591C12.8333 14.74 14.7126 12.9019 14.6841 10.683C14.6794 10.3164 14.6339 9.94381 14.2952 9.72014C13.2648 9.04005 11.9774 8.99707 10.8267 9.37071C10.7906 9.38243 10.7547 9.39456 10.7189 9.40709C10.4397 9.50479 10.1694 9.62698 9.91384 9.77045C9.66674 9.90915 9.43335 10.0677 9.21887 10.2433V8.76353C9.50225 8.56794 9.75392 8.34031 9.97343 8.08811C11.5698 6.25401 11.465 3.12028 9.48455 1.5568C9.25759 1.37764 9.00646 1.20712 8.73706 1.09731C7.58084 0.625238 6.30988 2.68469 6.03436 3.47964C5.48131 5.07571 5.82324 6.87534 6.92362 8.11153C7.11829 8.33023 7.33671 8.5313 7.57811 8.71048V10.2342C7.34178 10.0419 7.08921 9.8715 6.82442 9.72587C6.58468 9.59402 6.33492 9.48248 6.07811 9.39342C6.07578 9.39261 6.07345 9.3918 6.07112 9.391C5.34973 9.14209 4.57294 9.0705 3.80647 9.224C3.25127 9.33524 2.27836 9.58648 2.15728 10.2595C1.73236 12.624 3.84148 14.6742 6.07822 15.0432C6.13474 15.0525 6.19134 15.0607 6.24799 15.0679ZM3.60377 10.8259C3.59012 11.5106 3.94112 12.2103 4.63 12.7793C5.43479 13.444 6.46703 13.7221 7.27021 13.5536L7.71887 13.4595V12.2825L6.63141 11.3977C5.87473 10.782 4.94515 10.5258 4.10114 10.6948M9.07811 12.2969L10.1689 11.404C11.0867 10.6528 12.3216 10.4488 13.1828 10.8185C13.1537 11.5975 12.7343 12.355 12.0295 12.9043C11.2854 13.4841 10.3534 13.7269 9.53073 13.552L9.07822 13.4558V13.1743L9.07811 12.2969ZM12.9629 18.0679C12.9445 19.0251 12.8781 19.9703 12.6874 20.8461C12.5032 21.6924 12.2157 22.4129 11.7905 22.9921H4.63324C4.21555 22.4182 3.9369 21.7029 3.761 20.8581C3.57797 19.9791 3.5202 19.0319 3.50486 18.0679H12.9629ZM3.60377 10.8259C3.64653 10.8104 3.69526 10.7944 3.74992 10.7786C3.8649 10.7452 3.9846 10.7181 4.10114 10.6948" fill="#D33234"/>
<path d="M55.1797 45.7742C54.7266 45.7742 54.3594 46.1415 54.3594 46.5945V55.1806C54.3594 56.2386 56 56.2386 56 55.1806V46.5945C56 46.1415 55.6328 45.7742 55.1797 45.7742Z" fill="#D33234"/>
<path d="M5.96104 38.5552H12.1955C13.2535 38.5552 13.2535 36.9146 12.1955 36.9146H5.96104C4.90304 36.9146 4.90304 38.5552 5.96104 38.5552Z" fill="#D33234"/>
<path d="M12.1955 45.446H5.96104C4.90304 45.446 4.90304 47.0867 5.96104 47.0867H12.1955C13.2535 47.0867 13.2535 45.446 12.1955 45.446Z" fill="#D33234"/>
</svg>
