<svg width="58" height="58" viewBox="0 0 58 58" fill="none" xmlns="http://www.w3.org/2000/svg">
<path fill-rule="evenodd" clip-rule="evenodd" d="M40.4176 17.3325V16.4658H10.951V17.3325C10.951 19.2469 9.39879 20.7991 7.48434 20.7991H6.61768V32.9325H7.48434C9.39879 32.9325 10.951 34.4843 10.951 36.3991V37.2658H40.4176V36.3991C40.4176 34.4843 41.9694 32.9325 43.8843 32.9325H44.7509V20.7991H43.8843C41.9694 20.7991 40.4176 19.2469 40.4176 17.3325ZM43.0176 31.2711C40.837 31.6439 39.1291 33.3518 38.7562 35.5325H12.6124C12.2396 33.3518 10.5312 31.6439 8.35101 31.2711V22.4605C10.5312 22.0877 12.2396 20.3794 12.6124 18.1992H38.7562C39.1291 20.3794 40.837 22.0877 43.0176 22.4605V31.2711Z" fill="#333333"/>
<path fill-rule="evenodd" clip-rule="evenodd" d="M48.2175 13H3.15088V40.7333H7.48421V44.2H51.6841V15.6H48.2175V13ZM4.88421 14.7333H46.4841V39H4.88421V14.7333ZM49.9508 17.3333V42.4666H9.21754V40.7333H48.2175V17.3333H49.9508Z" fill="#333333"/>
<path d="M11.8174 45.9326H13.5507V47.6659H11.8174V45.9326Z" fill="#333333"/>
<path d="M17.0175 45.9326H15.2842V47.6659H17.0175V45.9326Z" fill="#333333"/>
<path d="M18.7505 45.9326H20.4838V47.6659H18.7505V45.9326Z" fill="#333333"/>
<path d="M23.9506 45.9326H22.2173V47.6659H23.9506V45.9326Z" fill="#333333"/>
<path d="M25.6841 45.9326H27.4174V47.6659H25.6841V45.9326Z" fill="#333333"/>
<path d="M55.1508 18.1992H53.4175V19.9325H55.1508V18.1992Z" fill="#333333"/>
<path d="M53.4175 21.666H55.1508V23.3993H53.4175V21.666Z" fill="#333333"/>
<path d="M30.8837 45.9326H29.1504V47.6659H30.8837V45.9326Z" fill="#333333"/>
<path d="M34.3505 45.9326H32.6172V47.6659H34.3505V45.9326Z" fill="#333333"/>
<path d="M36.084 45.9326H37.8173V47.6659H36.084V45.9326Z" fill="#333333"/>
<path d="M41.2836 45.9326H39.5503V47.6659H41.2836V45.9326Z" fill="#333333"/>
<path d="M43.0176 45.9326H44.7509V47.6659H43.0176V45.9326Z" fill="#333333"/>
<path d="M48.2172 45.9326H46.4839V47.6659H48.2172V45.9326Z" fill="#333333"/>
<path d="M49.9502 45.9326H51.6835V47.6659H49.9502V45.9326Z" fill="#333333"/>
<path d="M55.1508 45.9326H53.4175V47.6659H55.1508V45.9326Z" fill="#333333"/>
<path d="M53.4175 25.1318H55.1508V26.8652H53.4175V25.1318Z" fill="#333333"/>
<path d="M55.1508 28.5996H53.4175V30.3329H55.1508V28.5996Z" fill="#333333"/>
<path d="M53.4175 32.0664H55.1508V33.7997H53.4175V32.0664Z" fill="#333333"/>
<path d="M55.1508 35.5332H53.4175V37.2665H55.1508V35.5332Z" fill="#333333"/>
<path d="M53.4175 38.999H55.1508V40.7324H53.4175V38.999Z" fill="#333333"/>
<path d="M55.1508 42.4658H53.4175V44.1992H55.1508V42.4658Z" fill="#333333"/>
<path d="M28.5208 1.79517C33.8933 1.76573 39.2113 2.88662 44.1238 5.08318L42.2998 5.57642C41.8356 5.70195 41.5602 6.1791 41.6837 6.64386C41.8079 7.11155 42.2887 7.38908 42.7559 7.26274L47.7634 5.90839L46.4178 0.84079C46.2946 0.377089 45.818 0.101849 45.3548 0.226983C44.8944 0.351387 44.6212 0.824683 44.7438 1.28563L45.4044 3.76986C40.1164 1.28955 34.3516 0.0180401 28.5208 0.0474812C21.635 -0.032347 14.8601 1.75663 8.90219 5.21958C8.48486 5.46215 8.35643 6.00151 8.60945 6.41259C8.86151 6.82211 9.39695 6.94948 9.81305 6.70846C15.4972 3.41595 21.9568 1.71671 28.5208 1.79517Z" fill="#D33234"/>
<path d="M27.7817 56.2055C22.4091 56.2345 17.0912 55.1136 12.1794 52.9171L14.0024 52.4239C14.4665 52.2983 14.7418 51.8213 14.6183 51.3566C14.4941 50.889 14.0133 50.6116 13.5463 50.7379L8.54027 52.0923L9.88583 57.1591C10.009 57.623 10.4858 57.8984 10.9492 57.7732C11.4097 57.6488 11.6831 57.1755 11.5607 56.7144L10.9006 54.2278C16.1869 56.7094 21.9513 57.9813 27.7817 57.9532C34.6671 58.033 41.442 56.244 47.3999 52.7807C47.8172 52.5381 47.9456 51.9987 47.6926 51.5877C47.4405 51.1782 46.905 51.0508 46.4889 51.2918C40.8048 54.5847 34.3456 56.284 27.7817 56.2055Z" fill="#D33234"/>
<path fill-rule="evenodd" clip-rule="evenodd" d="M25.684 21.6661C22.8119 21.6661 20.484 23.994 20.484 26.8661C20.484 29.7378 22.8119 32.0661 25.684 32.0661C28.5557 32.0661 30.884 29.7378 30.884 26.8661C30.881 23.9953 28.5544 21.6687 25.684 21.6661ZM25.684 30.3328C23.7691 30.3328 22.2173 28.7806 22.2173 26.8661C22.2173 24.9513 23.7691 23.3995 25.684 23.3995C27.5984 23.3995 29.1507 24.9513 29.1507 26.8661C29.1507 28.7806 27.5984 30.3328 25.684 30.3328Z" fill="#D33234"/>
<path d="M34.3512 26.8658C34.3512 26.3872 34.7392 25.9991 35.2179 25.9991H38.6845C39.1632 25.9991 39.5512 26.3872 39.5512 26.8658C39.5512 27.3445 39.1632 27.7325 38.6845 27.7325H35.2179C34.7392 27.7325 34.3512 27.3445 34.3512 26.8658Z" fill="#D33234"/>
<path d="M11.8175 26.8658C11.8175 26.3872 12.2055 25.9991 12.6842 25.9991H16.1508C16.6295 25.9991 17.0175 26.3872 17.0175 26.8658C17.0175 27.3445 16.6295 27.7325 16.1508 27.7325H12.6842C12.2055 27.7325 11.8175 27.3445 11.8175 26.8658Z" fill="#D33234"/>
</svg>
