<svg width="58" height="59" viewBox="0 0 58 59" fill="none" xmlns="http://www.w3.org/2000/svg">
<path d="M57.1503 28.8803H50.4788V25.8199H52.5191C53.7611 25.8199 54.7714 24.8105 54.7714 23.5697V2.91093C54.7714 1.67013 53.7611 0.660645 52.5191 0.660645H20.8221C19.5801 0.660645 18.5697 1.67013 18.5697 2.91093V5.95851C18.5697 7.05321 20.2689 7.05321 20.2689 5.95851V2.91093C20.2689 2.60616 20.517 2.35821 20.8221 2.35821H52.5192C52.8241 2.35821 53.0723 2.60616 53.0723 2.91093V19.3692H50.4789V10.3261C50.4789 10.046 50.3406 9.78402 50.1092 9.6258C49.878 9.46759 49.5835 9.43353 49.322 9.5347C49.0998 9.62082 44.4124 11.5332 43.4149 19.3691H20.2689V10.3721C20.2689 9.27735 18.5697 9.27735 18.5697 10.3721V23.5697C18.5697 24.8105 19.5801 25.8199 20.8221 25.8199H32.2347V28.8803C18.7712 28.8803 2.8341 28.8803 0.849609 28.8803C0.380285 28.8803 0 29.2604 0 29.7291V57.7553C0 58.85 1.69922 58.85 1.69922 57.7553V53.7943H17.0488V57.7553C17.0488 58.85 18.748 58.85 18.748 57.7553V36.1397H48.7919C48.7963 36.4354 48.8246 38.0283 48.8281 38.5056H34.4495C31.0906 38.5056 28.6019 39.3791 27.0524 41.1016C25.1921 43.1697 25.4371 45.6767 25.4485 45.7823C25.4947 46.2136 25.859 46.5406 26.2932 46.5406H37.2695V48.0684H33.9277C32.8319 48.0684 32.8319 49.766 33.9277 49.766H37.2695V56.9065H26.3945C25.2987 56.9065 25.2987 58.6041 26.3945 58.6041H37.8161C37.9103 58.64 38.0122 58.6606 38.1191 58.6606C38.226 58.6606 38.3279 58.64 38.4221 58.6041H49.8437C50.9395 58.6041 50.9395 56.9065 49.8437 56.9065H38.9687V46.5407H44.6448C46.5953 46.5407 48.0051 46.071 48.9554 45.1046C50.6205 43.411 50.5697 40.5753 50.5055 36.9849C50.5005 36.7072 50.4956 36.4247 50.4913 36.1396H56.3007V44.1182C56.3007 45.2129 57.9999 45.2129 57.9999 44.1182V29.7291C57.9999 29.2604 57.6197 28.8803 57.1503 28.8803ZM47.7431 43.9151C47.129 44.5397 46.1156 44.8432 44.6448 44.8432H27.1606C27.2392 44.1655 27.5012 43.1427 28.3164 42.2363C29.5299 40.8872 31.5933 40.2032 34.4496 40.2032H48.8064C48.7362 41.8667 48.4844 43.1611 47.7431 43.9151ZM53.0722 21.0668V23.5698C53.0722 23.8746 52.8241 24.1224 52.5191 24.1224H50.4788V21.0668H53.0722ZM47.4508 13.2631C47.9134 12.6526 48.3785 12.1982 48.7795 11.8686V33.1292C48.3799 32.7871 47.9182 32.3205 47.4588 31.7008C45.8032 29.4669 44.928 26.263 44.928 22.4353C44.928 18.6131 45.8005 15.4414 47.4508 13.2631ZM43.4573 25.82C43.6195 26.9624 43.8597 27.9789 44.1526 28.8804H41.1064V25.82H43.4573ZM20.2689 23.5697V21.0667H43.2642C43.2111 22.0843 43.2172 23.1055 43.2834 24.1223H20.8221C20.517 24.1224 20.2689 23.8745 20.2689 23.5697ZM33.9339 25.82H39.4072V28.8804H33.9339V25.82ZM44.8198 30.5779C45.7051 32.4678 46.804 33.6887 47.6932 34.4421H1.69922V30.5779H44.8198ZM1.69922 52.0967V44.967H17.0488V52.0967H1.69922ZM17.0488 43.2694H1.69922V36.1397H17.0488V43.2694ZM50.4788 34.4421V30.5779H56.3007V34.4421H50.4788Z" fill="#333333"/>
<path fill-rule="evenodd" clip-rule="evenodd" d="M6.47092 16.2502C6.83846 16.2966 7.20775 16.2984 7.56888 16.2502C7.66274 16.2377 7.75604 16.2217 7.84863 16.2023V17.8022H2.9209C2.45157 17.8022 2.07129 18.1823 2.07129 18.651C2.07129 21.1461 2.20677 24.1236 4.08837 26.0013H12.9198C14.8016 24.1234 14.9853 21.1496 14.9853 18.651C14.9853 18.1823 14.6051 17.8022 14.1357 17.8022H9.54784V16.1999C9.64282 16.22 9.7381 16.2368 9.83354 16.2502C10.2355 16.3068 10.6404 16.3045 11.0377 16.2502C11.059 16.2473 11.0802 16.2443 11.1014 16.2411C13.2913 15.911 15.2376 14.0091 15.2082 11.7132C15.2033 11.3339 15.1562 10.9484 14.8053 10.717C13.7382 10.0133 12.4049 9.96881 11.2131 10.3554C11.1757 10.3675 11.1385 10.3801 11.1014 10.393C10.8123 10.4941 10.5323 10.6206 10.2676 10.769C10.0117 10.9125 9.76998 11.0766 9.54784 11.2583V9.72717C9.84134 9.52479 10.102 9.28927 10.3293 9.02832C11.9827 7.13061 11.8741 3.88817 9.823 2.27046C9.58795 2.08509 9.32785 1.90865 9.04884 1.79503C7.85135 1.30659 6.53502 3.43748 6.24966 4.26C5.67687 5.91143 6.031 7.77349 7.17066 9.05255C7.37228 9.27884 7.5985 9.48688 7.84851 9.67228V11.2489C7.60375 11.0499 7.34217 10.8736 7.06792 10.7229C6.81963 10.5865 6.56095 10.4711 6.29497 10.3789L6.28774 10.3764C5.54059 10.1189 4.73607 10.0448 3.94224 10.2036C3.36722 10.3187 2.35959 10.5787 2.23419 11.275C1.7941 13.7215 3.9785 15.8429 6.29508 16.2246C6.35362 16.2343 6.41225 16.2428 6.47092 16.2502ZM3.73231 11.8611C3.71817 12.5696 4.0817 13.2935 4.79517 13.8822C5.62869 14.57 6.69777 14.8577 7.52963 14.6834L7.9943 14.586V13.3682L6.86803 12.4527C6.08433 11.8157 5.12157 11.5505 4.24744 11.7254C4.12673 11.7496 4.00276 11.7776 3.88367 11.8121C3.82706 11.8285 3.77659 11.845 3.73231 11.8611ZM9.40206 13.3831L10.5318 12.4593C11.4824 11.682 12.7613 11.4709 13.6533 11.8534C13.6232 12.6595 13.1888 13.4432 12.4588 14.0115C11.6882 14.6115 10.7229 14.8627 9.87084 14.6817L9.40217 14.5822L9.40206 13.3831ZM13.4256 19.3543C13.4065 20.3447 13.3377 21.3227 13.1402 22.2288C12.9495 23.1045 12.6517 23.85 12.2113 24.4493H4.79852C4.36593 23.8554 4.07733 23.1154 3.89515 22.2413C3.70559 21.3318 3.64575 20.3517 3.62986 19.3543H13.4256ZM7.33398 6.08148C7.33398 4.3784 8.20465 3.66878 8.63998 3.52686C9.07531 3.66878 9.94597 4.3784 9.94597 6.08148C9.94597 7.78456 9.07531 8.21033 8.63998 8.21033C8.20465 8.21033 7.33398 7.78456 7.33398 6.08148Z" fill="#D33234"/>
<path d="M56.2998 48.8717C56.2998 48.403 56.6801 48.0229 57.1494 48.0229C57.6187 48.0229 57.999 48.403 57.999 48.8717V57.7556C57.999 58.8503 56.2998 58.8503 56.2998 57.7556V48.8717Z" fill="#D33234"/>
<path d="M6.17388 40.5535H12.6309C13.7267 40.5535 13.7267 38.856 12.6309 38.856H6.17388C5.07811 38.856 5.07811 40.5535 6.17388 40.5535Z" fill="#D33234"/>
<path d="M6.17388 47.6831H12.6309C13.7267 47.6831 13.7267 49.3807 12.6309 49.3807H6.17388C5.07811 49.3807 5.07811 47.6831 6.17388 47.6831Z" fill="#D33234"/>
</svg>
