<svg width="58" height="59" viewBox="0 0 58 59" fill="none" xmlns="http://www.w3.org/2000/svg">
<path d="M57.9999 48.9687V41.8091L55.2574 41.1083C55.2385 41.0621 55.2195 41.0158 55.1996 40.9699L56.6432 38.5367L51.5805 33.4739L49.1472 34.9176C49.1004 34.8977 49.0542 34.8787 49.0088 34.8597L48.308 32.1182H41.1485L40.4477 34.8606C40.4014 34.8796 40.3551 34.8986 40.3093 34.9185L37.876 33.4748L32.8132 38.5376L34.2569 40.9709C34.237 41.0176 34.218 41.0639 34.1991 41.1093L31.4575 41.81V48.9696L34.2 49.6704C34.219 49.7167 34.2379 49.7629 34.2578 49.8088L32.8142 52.242L37.877 57.3048L40.3102 55.8611C40.357 55.8811 40.4033 55.9 40.4486 55.919L41.1494 58.6605H48.3089L49.0097 55.9181C49.056 55.8991 49.1023 55.8801 49.1481 55.8602L51.5814 57.3039L56.6442 52.2411L55.2005 49.8078C55.2204 49.7611 55.2394 49.7148 55.2584 49.6694L57.9999 48.9687ZM54.2623 51.9426L51.2819 54.9229L49.256 53.7209L48.8 53.9389C48.5061 54.0782 48.2057 54.2041 47.8965 54.3133L47.4189 54.4827L46.837 56.7647H42.6213L42.0395 54.4827L41.5618 54.3133C41.2526 54.205 40.9513 54.0791 40.6583 53.9389L40.2024 53.7209L38.1764 54.9229L35.1961 51.9426L36.3981 49.9166L36.1801 49.4607C36.0408 49.1668 35.9149 48.8664 35.8056 48.5572L35.6362 48.0795L33.3534 47.4977V43.2819L35.6353 42.7001L35.8047 42.2224C35.913 41.9133 36.0389 41.6119 36.1792 41.3189L36.3972 40.863L35.1951 38.8371L38.1755 35.8567L40.2015 37.0588L40.6574 36.8407C40.9513 36.7014 41.2517 36.5755 41.5609 36.4663L42.0386 36.2969L42.6204 34.014H46.8361L47.4179 36.296L47.8956 36.4654C48.2048 36.5737 48.5061 36.6996 48.7991 36.8398L49.255 37.0578L51.281 35.8558L54.2614 38.8361L53.0593 40.8621L53.2773 41.318C53.4166 41.6119 53.5425 41.9123 53.6518 42.2215L53.8212 42.6992L56.104 43.281V47.4968L53.8221 48.0786L53.6527 48.5563C53.5444 48.8654 53.4185 49.1668 53.2782 49.4598L53.0602 49.9157L54.2623 51.9426Z" fill="#333333"/>
<path d="M44.7288 38.0166C40.6635 38.0166 37.356 41.3241 37.356 45.3895C37.356 49.4548 40.6635 52.7624 44.7288 52.7624C48.7942 52.7624 52.1017 49.4548 52.1017 45.3895C52.1017 41.3241 48.7942 38.0166 44.7288 38.0166ZM44.7288 50.9191C41.6792 50.9191 39.1992 48.4392 39.1992 45.3895C39.1992 42.3398 41.6792 39.8598 44.7288 39.8598C47.7785 39.8598 50.2585 42.3398 50.2585 45.3895C50.2585 48.4392 47.7785 50.9191 44.7288 50.9191Z" fill="#D33234"/>
<path d="M44.7288 41.9487C42.8312 41.9487 41.2881 43.4918 41.2881 45.3894C41.2881 47.287 42.8312 48.8301 44.7288 48.8301C46.6263 48.8301 48.1694 47.287 48.1694 45.3894C48.1694 43.4918 46.6263 41.9487 44.7288 41.9487ZM44.7288 47.1097C43.78 47.1097 43.0084 46.3382 43.0084 45.3894C43.0084 44.4406 43.78 43.6691 44.7288 43.6691C45.6776 43.6691 46.4491 44.4406 46.4491 45.3894C46.4491 46.3382 45.6776 47.1097 44.7288 47.1097Z" fill="#D33234"/>
<path d="M23.6537 16.2655C23.9693 17.1704 24.5185 17.9683 25.2315 18.5951V19.3768L20.752 21.0198C18.9235 21.6898 17.6948 23.4237 17.6948 25.334V30.1522H40.305V25.334C40.305 23.4237 39.0763 21.6898 37.2487 21.0189L32.7683 19.3759V18.5951C33.4813 17.9692 34.0305 17.1713 34.3461 16.2655C36.1212 15.9676 37.4787 14.4609 37.4787 12.6416V8.95514C37.4787 4.38219 33.6754 0.660645 28.9999 0.660645C24.3244 0.660645 20.5211 4.38219 20.5211 8.95514V12.6416C20.5211 14.4609 21.8786 15.9676 23.6537 16.2655ZM30.8841 19.7593L28.9999 22.831L27.1157 19.7593V19.6918C27.7064 19.8975 28.3384 20.0145 28.9999 20.0145C29.6614 20.0145 30.2934 19.8966 30.8841 19.6918V19.7593ZM25.7693 21.1471L27.6687 24.2427L25.7817 25.1652L24.5627 21.5895L25.7693 21.1471ZM38.4208 25.334V28.309H19.579V25.334C19.579 24.1874 20.3159 23.1478 21.413 22.7451L22.7981 22.2375L24.6814 27.7653L28.9999 25.653L33.3184 27.7653L35.2017 22.2375L36.5877 22.746C37.6839 23.1478 38.4208 24.1874 38.4208 25.334ZM33.4371 21.5895L32.2181 25.1661L30.3312 24.2436L32.2305 21.1471L33.4371 21.5895ZM28.9999 18.1712C26.9216 18.1712 25.2315 16.5179 25.2315 14.4848V10.7358C26.6106 10.5936 27.912 10.1017 28.9999 9.26474C30.0878 10.1026 31.3892 10.5936 32.7683 10.7358V14.4848C32.7683 16.5179 31.0782 18.1712 28.9999 18.1712ZM34.6525 14.2287V11.0553C35.2132 11.3753 35.5945 11.9634 35.5945 12.6425C35.5945 13.3215 35.2132 13.9088 34.6525 14.2287ZM28.9999 2.50386C32.6353 2.50386 35.5945 5.39785 35.5945 8.95514V9.46769C35.0379 9.15044 34.3999 8.95514 33.7104 8.95514H33.5484C32.0815 8.95514 30.7024 8.39668 29.666 7.38192L28.9999 6.72941L28.3338 7.38192C27.2965 8.39668 25.9183 8.95514 24.4514 8.95514H24.2895C23.5999 8.95514 22.9619 9.15044 22.4053 9.46769V8.95514C22.4053 5.39785 25.3645 2.50386 28.9999 2.50386ZM23.3474 11.0544V14.2278C22.7866 13.9079 22.4053 13.3197 22.4053 12.6407C22.4053 11.9616 22.7866 11.3744 23.3474 11.0544Z" fill="#333333"/>
<path d="M0 57.6607C0 58.213 0.447715 58.6607 1 58.6607H17.678C18.2303 58.6607 18.678 58.213 18.678 57.6607V35.0845C18.678 34.5322 18.2302 34.0845 17.678 34.0845H0.999999C0.447714 34.0845 0 34.5322 0 35.0845V57.6607ZM1.8678 36.975C1.8678 36.4227 2.31551 35.975 2.8678 35.975H15.8102C16.3625 35.975 16.8102 36.4227 16.8102 36.975V55.7703C16.8102 56.3225 16.3625 56.7703 15.8102 56.7703H2.8678C2.31551 56.7703 1.8678 56.3225 1.8678 55.7703V36.975Z" fill="#333333"/>
<path d="M3.93213 40.6437C3.93213 40.1008 4.37226 39.6606 4.91518 39.6606H13.7626C14.3056 39.6606 14.7457 40.1008 14.7457 40.6437C14.7457 41.1866 14.3056 41.6267 13.7626 41.6267H4.91518C4.37226 41.6267 3.93213 41.1866 3.93213 40.6437Z" fill="#D33234"/>
<path d="M3.93213 44.5763C3.93213 44.0334 4.37226 43.5933 4.91518 43.5933C5.4581 43.5933 5.89823 44.0334 5.89823 44.5763C5.89823 45.1192 5.4581 45.5594 4.91518 45.5594C4.37226 45.5594 3.93213 45.1192 3.93213 44.5763Z" fill="#D33234"/>
<path d="M7.86426 44.5763C7.86426 44.0334 8.30438 43.5933 8.84731 43.5933H13.7626C14.3055 43.5933 14.7456 44.0334 14.7456 44.5763C14.7456 45.1192 14.3055 45.5594 13.7626 45.5594H8.84731C8.30438 45.5594 7.86426 45.1192 7.86426 44.5763Z" fill="#D33234"/>
<path d="M3.93213 48.5089C3.93213 47.966 4.37226 47.5259 4.91518 47.5259H13.7626C14.3056 47.5259 14.7457 47.966 14.7457 48.5089C14.7457 49.0519 14.3056 49.492 13.7626 49.492H4.91518C4.37226 49.492 3.93213 49.0519 3.93213 48.5089Z" fill="#D33234"/>
<path d="M12.7798 52.2882C12.7798 51.7453 13.2199 51.3052 13.7628 51.3052C14.3058 51.3052 14.7459 51.7453 14.7459 52.2882C14.7459 52.8312 14.3058 53.2713 13.7628 53.2713C13.2199 53.2713 12.7798 52.8312 12.7798 52.2882Z" fill="#D33234"/>
<path d="M3.93213 52.2882C3.93213 51.7453 4.37226 51.3052 4.91518 51.3052H9.83043C10.3734 51.3052 10.8135 51.7453 10.8135 52.2882C10.8135 52.8312 10.3734 53.2713 9.83043 53.2713H4.91518C4.37226 53.2713 3.93213 52.8312 3.93213 52.2882Z" fill="#D33234"/>
<path d="M24.933 42.2948L23.7151 40.9658L19.6611 45.3895L23.7151 49.8133L24.933 48.4843L22.9582 46.3294H29.4916V44.4497H22.9582L24.933 42.2948Z" fill="#333333"/>
<path d="M10.5702 15.6461C10.5702 15.1421 10.9562 14.731 11.4314 14.731H15.3811L13.4063 16.8293L14.6242 18.1234L18.6782 13.8159L14.6242 9.5083L13.4063 10.8024L15.3811 12.9007H11.4314C10.0071 12.9007 8.84766 14.1327 8.84766 15.6461V32.1185H10.5702V15.6461Z" fill="#333333"/>
<path d="M44.8644 15.3433V27.452L42.7464 25.246L41.4402 26.6064L45.788 31.135L50.1358 26.6064L48.8297 25.246L46.7117 27.452V15.3433C46.7117 13.7522 45.4683 12.457 43.9407 12.457H39.3223V14.3812H43.9407C44.4503 14.3812 44.8644 14.8134 44.8644 15.3433Z" fill="#333333"/>
</svg>
