<svg width="58" height="59" viewBox="0 0 58 59" fill="none" xmlns="http://www.w3.org/2000/svg">
<path d="M44.5977 42.7761C44.8604 42.364 45.4084 42.2421 45.8217 42.504C47.777 43.8185 48.9493 46.0158 48.9497 48.367C48.9505 52.2733 45.7749 55.4405 41.857 55.4413C37.9392 55.4421 34.7625 52.2759 34.7617 48.3697C34.7609 44.4634 37.9365 41.2962 41.8544 41.2954C42.3441 41.2954 42.7411 41.6913 42.7411 42.1795C42.7411 42.6678 42.3441 43.0636 41.8544 43.0636C40.0851 43.0645 38.4319 43.9423 37.4437 45.4057C35.8025 47.8358 36.4481 51.1323 38.8855 52.7686C41.3229 54.4049 44.6292 53.7613 46.2704 51.331C47.9114 48.9009 47.266 45.6044 44.8285 43.9681C44.4468 43.6946 44.3456 43.1716 44.5977 42.7761Z" fill="#D33234"/>
<path d="M43.8898 45.9758C44.2334 45.6448 44.7783 45.6448 45.1219 45.9758C45.4742 46.3149 45.4839 46.8747 45.1437 47.2259L41.1533 51.2045C40.807 51.5496 40.2457 51.5496 39.8994 51.2045L38.5693 49.8783C38.2373 49.5357 38.2373 48.9924 38.5693 48.6498C38.9096 48.2986 39.4709 48.2889 39.8232 48.6281L40.5264 49.3292L43.8898 45.9758Z" fill="#D33234"/>
<path d="M9.93362 35.9915C9.44392 35.9915 9.04688 36.3874 9.04688 36.8756V40.4121C9.04688 40.9003 9.44392 41.2962 9.93362 41.2962C10.4233 41.2962 10.8204 40.9003 10.8204 40.4121V36.8756C10.8204 36.3874 10.4233 35.9915 9.93362 35.9915Z" fill="#333333"/>
<path d="M13.4805 37.7597C12.9908 37.7597 12.5938 38.1555 12.5938 38.6438V42.1803C12.5938 42.6685 12.9908 43.0644 13.4805 43.0644C13.9702 43.0644 14.3672 42.6685 14.3672 42.1803V38.6438C14.3672 38.1555 13.9702 37.7597 13.4805 37.7597Z" fill="#333333"/>
<path fill-rule="evenodd" clip-rule="evenodd" d="M15.3347 12.7222C15.6302 12.5427 16.0028 12.5503 16.2906 12.7417C16.8338 13.1027 16.8178 13.9058 16.2607 14.2449L8.1301 19.1935L12.7421 21.9104L21.011 17.038C21.4329 16.7895 21.977 16.929 22.2263 17.3497C22.4756 17.7703 22.3356 18.3128 21.9137 18.5613L14.4854 22.9377L19.0965 25.6546L36.8617 15.1911L35.4422 14.2548C34.8933 13.8927 34.8918 13.0879 35.4395 12.7239C35.736 12.5268 36.1199 12.519 36.4242 12.7038L45.8551 18.4323C46.125 18.5914 46.2906 18.8808 46.2905 19.1935V38.7325C49.1068 40.0188 51.2208 42.4654 52.08 45.4328C53.7093 51.06 50.4547 56.9386 44.8107 58.5629C39.1667 60.1874 33.2707 56.9425 31.6414 51.3153L26.3466 54.4353C26.3327 54.4433 26.3181 54.4487 26.3037 54.4541C26.2943 54.4576 26.2848 54.4612 26.2757 54.4654C26.2512 54.4774 26.226 54.488 26.2003 54.4972C26.0051 54.5786 25.7854 54.5786 25.5902 54.4972C25.5648 54.488 25.5399 54.4774 25.5157 54.4654C25.4912 54.4566 25.4673 54.4466 25.4439 54.4353L5.93539 42.9418C5.66549 42.7826 5.49989 42.4932 5.5 42.1806V19.1935C5.5 19.1783 5.50321 19.1639 5.50645 19.1494C5.50886 19.1387 5.51128 19.1279 5.51241 19.1166C5.51349 19.1058 5.51544 19.0954 5.51738 19.085C5.52023 19.0697 5.52306 19.0545 5.52306 19.0388C5.53935 18.9373 5.57327 18.8395 5.62326 18.7497V18.7435C5.62478 18.7408 5.62759 18.7387 5.63032 18.7366C5.63397 18.7338 5.63745 18.7311 5.63745 18.7275C5.69021 18.6452 5.75638 18.5723 5.83342 18.5118L5.84518 18.5024C5.85872 18.4914 5.87196 18.4808 5.88574 18.4712C5.8933 18.4659 5.90006 18.4599 5.90677 18.4541C5.91579 18.4462 5.92472 18.4383 5.93539 18.4323L15.3347 12.7222ZM18.2098 27.1868V33.0901L13.6288 30.3908V24.4876L18.2098 27.1868ZM31.5661 45.6364C31.3302 46.5282 31.2124 47.447 31.2157 48.3694C31.216 48.7394 31.2355 49.1092 31.2743 49.4772L26.782 52.1251V49.2535C26.782 48.7653 26.3849 48.3694 25.8952 48.3694C25.4055 48.3694 25.0085 48.7653 25.0085 49.2535V52.1251L7.2735 41.6766V20.7433L11.8553 23.4426V30.8948C11.855 31.2078 12.0205 31.4976 12.2907 31.6569L18.6452 35.4011C18.782 35.4814 18.9378 35.5238 19.0965 35.524C19.5862 35.524 19.9833 35.1282 19.9833 34.6399V28.2309L25.0085 31.1919V45.717C25.0085 46.2053 25.4055 46.6012 25.8952 46.6012C26.3849 46.6012 26.782 46.2053 26.782 45.717V31.1919L42.8534 21.7229C43.2751 21.4744 43.4149 20.9321 43.1656 20.5117C42.9163 20.0913 42.3724 19.9519 41.9507 20.2005L25.8952 29.6606L20.8408 26.682L38.6059 16.2149L44.517 19.6974V38.1136C38.8572 36.6253 33.0588 39.9932 31.5661 45.6364ZM41.8567 57.2106C36.9593 57.2106 32.9892 53.2523 32.9892 48.3694C32.9892 43.4865 36.9593 39.5282 41.8567 39.5282C46.7541 39.5282 50.7242 43.4865 50.7242 48.3694C50.7189 53.2501 46.7519 57.2052 41.8567 57.2106Z" fill="#333333"/>
<path d="M31.9464 11.0209L34.2262 9.50557L35.2612 11.0526L26.3517 16.9746L17.4422 11.0526L18.4772 9.50557L20.757 11.0209L20.757 5.76537C20.757 5.25192 21.1745 4.83569 21.6895 4.83569C22.2045 4.83569 22.6219 5.25192 22.6219 5.76537L22.6219 12.2602L26.3517 14.7397L30.0815 12.2602L30.0815 5.76537C30.0815 5.25192 30.499 4.83569 31.0139 4.83569C31.5289 4.83569 31.9464 5.25192 31.9464 5.76537L31.9464 11.0209Z" fill="#D33234"/>
<path d="M21.6896 0.982507C22.2046 0.982507 22.6221 1.39874 22.6221 1.91218C22.6221 2.42563 22.2046 2.84186 21.6896 2.84186C21.1747 2.84186 20.7572 2.42563 20.7572 1.91218C20.7572 1.39874 21.1747 0.982506 21.6896 0.982507Z" fill="#D33234"/>
<path d="M31.9463 1.91218C31.9463 1.39874 31.5288 0.982507 31.0138 0.982507C30.4989 0.982507 30.0814 1.39874 30.0814 1.91218C30.0814 2.42563 30.4989 2.84186 31.0138 2.84186C31.5288 2.84186 31.9463 2.42563 31.9463 1.91218Z" fill="#D33234"/>
<path d="M25.4198 11.2087L25.4198 5.76537C25.4198 5.25192 25.8372 4.83569 26.3522 4.83569C26.8672 4.83569 27.2847 5.25192 27.2847 5.76537L27.2847 11.2087C27.2847 11.7222 26.8672 12.1384 26.3522 12.1384C25.8372 12.1384 25.4198 11.7222 25.4198 11.2087Z" fill="#D33234"/>
<path d="M27.2847 1.91218C27.2847 1.39874 26.8672 0.982507 26.3522 0.982507C25.8372 0.982507 25.4198 1.39874 25.4198 1.91218C25.4198 2.42563 25.8372 2.84186 26.3522 2.84186C26.8672 2.84186 27.2847 2.42563 27.2847 1.91218Z" fill="#D33234"/>
</svg>
