<svg width="58" height="58" viewBox="0 0 58 58" fill="none" xmlns="http://www.w3.org/2000/svg">
<path d="M57.3885 32.6866L51.4685 22.1065C51.2401 21.698 50.7237 21.5511 50.3144 21.779L48.3118 22.8924C47.3582 23.4223 48.183 24.9088 49.1374 24.3774L50.3994 23.6754L55.9056 33.516C56.4436 34.4782 56.433 35.6683 55.8772 36.6206L54.1794 39.5298C53.4838 40.4176 52.5496 40.6385 51.8335 40.6513H49.1887L42.269 28.1964L45.0093 26.6724C45.963 26.1425 45.1386 24.6564 44.1835 25.1874L40.7008 27.1238C40.2908 27.3517 40.1432 27.8689 40.3708 28.2792L47.2449 40.6513H37.6999L37.6443 37.2171C37.6316 36.4135 36.5628 36.0843 36.0998 36.7417L29.2339 46.4941C29.0215 46.7957 29.0282 47.2003 29.2506 47.4945L36.4297 57.019C36.9129 57.6608 37.9707 57.2972 37.9576 56.4936L37.9063 53.3547L45.3658 53.3784H45.3814C47.1107 53.378 48.7161 52.4463 49.5703 50.9474C52.1659 46.4594 54.7327 41.9522 57.3446 37.4773C58.2027 36.0075 58.2193 34.1716 57.3885 32.6866ZM45.381 51.6792C45.3779 51.6792 45.3743 51.6792 45.3711 51.6792L37.0457 51.6533C36.8202 51.6533 36.5982 51.7436 36.4379 51.9057C36.2779 52.0682 36.1894 52.2881 36.1933 52.5164L36.2159 53.9129L30.9802 46.9667L35.9876 39.8534L36.0145 41.515C36.0219 41.9788 36.4 42.3508 36.8641 42.3508H51.8543C52.1163 42.3466 52.3712 42.3243 52.6176 42.285L48.0962 50.1014C47.5412 51.0752 46.5015 51.6792 45.381 51.6792Z" fill="#D33234"/>
<path fill-rule="evenodd" clip-rule="evenodd" d="M20.7905 20.5958L11.3563 14.9399C10.9549 14.6992 10.8236 14.1792 11.0629 13.7767L12.6141 11.1698C13.1727 10.2306 14.6323 11.1011 14.0744 12.0389L12.9564 13.9176L20.9353 18.7012L28.1393 6.67537L26.7254 4.31524C26.2029 3.44333 25.3196 2.84223 24.4102 2.71408L21.4235 2.69921H21.4082C20.3112 2.69921 19.2835 3.28403 18.7224 4.22674L16.5995 7.79508C16.0409 8.73425 14.5813 7.86376 15.1389 6.92601L17.2622 3.35837C18.1281 1.902 19.7158 1 21.4082 1H37.0053C38.7257 1 40.3279 1.9282 41.1864 3.42669L44.896 9.90104L47.5871 8.28785C48.2767 7.87438 49.1199 8.60823 48.8063 9.34809L44.1512 20.3296C44.017 20.6461 43.7079 20.8479 43.3692 20.8479C43.3437 20.8479 43.3185 20.8468 43.2923 20.8443L31.4173 19.7728C30.6169 19.7009 30.3673 18.6113 31.0566 18.1982L33.9899 16.4395L29.1301 8.32857L21.9566 20.3038C21.7208 20.6974 21.1803 20.8295 20.7905 20.5958ZM27.6383 2.69178C27.8391 2.92294 28.0221 3.17322 28.1831 3.44227L35.8838 16.2947C36.1252 16.6975 35.9942 17.2193 35.5917 17.4604L34.1662 18.315L42.8282 19.0963L46.2235 11.0866L45.0259 11.8042C44.8305 11.9217 44.5954 11.9553 44.3745 11.8976C44.154 11.8403 43.9653 11.6958 43.852 11.498L39.712 4.27169C39.1558 3.30066 38.1175 2.69992 36.9999 2.69992L27.6383 2.69178Z" fill="#333333"/>
<path fill-rule="evenodd" clip-rule="evenodd" d="M24.9848 40.6993C25.1965 40.6993 25.44 40.8009 25.5859 40.9468C25.7459 41.1054 25.8361 41.3213 25.8369 41.5468L25.8655 52.5496C25.8669 53.0183 25.4892 53.3992 25.0209 53.4017L22.5839 53.4155C21.4901 53.4155 21.4844 51.7219 22.5744 51.7159L24.1642 51.7071L24.1394 42.4007L10.1259 42.4379L8.83551 44.8674C8.35832 45.7658 8.29955 46.8328 8.65993 47.6789L10.1896 50.245C10.7542 51.1923 11.7865 51.7803 12.892 51.7708L17.2997 51.7457C18.3936 51.7457 18.3993 53.4388 17.3089 53.4452L12.9012 53.47C10.854 53.4827 9.39307 52.2388 8.38947 50.5746C6.71662 47.7983 5.04678 45.0203 3.377 42.2425C2.48568 40.7597 1.59438 39.2769 0.702653 37.7944C-0.198638 36.3171 -0.235808 34.4547 0.608135 32.9378L4.2356 26.4168L1.46411 24.9434C0.754338 24.5664 0.947269 23.4654 1.74307 23.3521L13.5476 21.6706C13.9137 21.6186 14.2709 21.8083 14.4319 22.1404L19.6457 32.8677C19.9972 33.591 19.1922 34.3669 18.4828 33.9896L15.4632 32.3845L11.0289 40.7362L24.9848 40.6993ZM2.15583 36.9136L6.97381 44.9233C7.06762 44.6327 7.18798 44.347 7.3349 44.0709L14.3611 30.8368C14.4666 30.6375 14.6472 30.4888 14.8628 30.423C15.0784 30.3572 15.3109 30.3791 15.5106 30.485L16.9772 31.2648L13.1742 23.4403L4.56412 24.6666L5.79782 25.3222C5.9996 25.4294 6.14899 25.6132 6.21377 25.8319C6.27855 26.0507 6.252 26.2865 6.14155 26.4858L2.09318 33.7641C1.54624 34.7468 1.57031 35.9539 2.15583 36.9136Z" fill="#333333"/>
</svg>
