<svg width="58" height="59" viewBox="0 0 58 59" fill="none" xmlns="http://www.w3.org/2000/svg">
<path d="M52.566 14.5488H43.5858V11.9771C43.5858 11.5036 43.2018 11.1198 42.7278 11.1198H41.9844V9.91929C41.9844 5.91677 38.7254 2.66064 34.7198 2.66064H23.2802C19.2746 2.66064 16.016 5.91677 16.016 9.91929V11.1198H15.2722C14.7982 11.1198 14.4142 11.5036 14.4142 11.9771V14.5492H11.1396C10.6657 14.5492 10.2816 14.933 10.2816 15.4062C10.2816 15.8797 10.6657 16.2635 11.1396 16.2635H52.566C54.6162 16.2635 56.284 17.9305 56.284 19.9791V27.5233C56.284 29.2951 55.0211 30.8281 53.2904 31.1677L32.5816 35.0017H25.4179L4.71843 31.169C2.97894 30.8281 1.71603 29.2951 1.71603 27.5233V19.9786C1.71603 17.9301 3.38383 16.2635 5.43396 16.2635H7.15707C7.631 16.2635 8.01509 15.8797 8.01509 15.4062C8.01509 14.9326 7.631 14.5488 7.15707 14.5488H5.43396C2.43776 14.5488 0 16.9847 0 19.9786V27.5233C0 29.3212 0.89032 30.9502 2.28775 31.9459V51.5287C2.28775 54.5226 4.72551 56.9585 7.72171 56.9585H41.4123C41.8862 56.9585 42.2703 56.5747 42.2703 56.1012C42.2703 55.6276 41.8862 55.2438 41.4123 55.2438H7.72171C5.67159 55.2438 4.00378 53.5773 4.00378 51.5287V32.76C4.133 32.7953 4.26398 32.8272 4.39717 32.8532L24.4811 36.5719V45.5753C24.4811 45.9503 24.725 46.2815 25.0834 46.3933L28.7442 47.5368C28.8274 47.5624 28.9137 47.5757 29 47.5757C29.0863 47.5757 29.1726 47.5624 29.2558 47.5368L32.9166 46.3933C33.275 46.2815 33.5189 45.9503 33.5189 45.5753V36.5719L53.6117 32.8519C53.7418 32.8263 53.8697 32.7949 53.9962 32.7608V51.5287C53.9962 53.5777 52.3284 55.2438 50.2783 55.2438H45.4258C44.9519 55.2438 44.5678 55.6276 44.5678 56.1012C44.5678 56.5747 44.9519 56.9585 45.4258 56.9585H50.2783C53.2745 56.9585 55.7118 54.5226 55.7118 51.5287V31.9472C57.1084 30.9524 58 29.3221 58 27.5233V19.9786C58 16.9847 55.5622 14.5488 52.566 14.5488ZM17.7316 9.91929C17.7316 6.86213 20.2207 4.37537 23.2802 4.37537H34.7198C37.7793 4.37537 40.2684 6.86213 40.2684 9.91929V11.1198H38.3236V9.91929C38.3236 7.93395 36.7067 6.31871 34.7198 6.31871H32.8179C32.344 6.31871 31.9599 6.70251 31.9599 7.17563C31.9599 7.64919 32.344 8.03299 32.8179 8.03299H34.7198C35.7606 8.03299 36.6075 8.8793 36.6075 9.91929V11.1198H35.8637C35.3898 11.1198 35.0057 11.5036 35.0057 11.9771V14.5492H22.9939V11.9771C22.9939 11.5036 22.6098 11.1198 22.1359 11.1198H21.3925V9.91929C21.3925 8.8793 22.2394 8.03299 23.2802 8.03299H28.8283C29.3022 8.03299 29.6863 7.64919 29.6863 7.17563C29.6863 6.70251 29.3022 6.31871 28.8283 6.31871H23.2802C21.2933 6.31871 19.6764 7.93395 19.6764 9.91929V11.1198H17.7316V9.91929ZM16.1302 14.5488V12.8341H21.2783V14.5488H16.1302ZM36.7217 14.5488V12.8341H41.8698V14.5488H36.7217ZM26.1972 36.716H31.8028V40.031H26.1972V36.716ZM31.8028 44.9448L29 45.8203L26.1972 44.9448V41.7457H31.8028V44.9448Z" fill="#333333"/>
<path d="M8.03543 38.8828C7.55063 38.8829 7.15774 39.2758 7.15762 39.7606L7.15763 51.3488C7.15763 51.8335 7.55063 52.2265 8.03544 52.2266C8.27787 52.2264 8.49728 52.1282 8.65611 51.9694C8.81494 51.8105 8.91319 51.5911 8.91319 51.3487L8.91318 39.7606C8.91324 39.2759 8.52024 38.8829 8.03543 38.8828Z" fill="#D33234"/>
<path d="M52.0018 26.6599C52.165 26.4967 52.3915 26.403 52.6224 26.403C52.8533 26.403 53.0792 26.4961 53.2431 26.6599C53.4063 26.8232 53.5 27.0498 53.5 27.2807C53.5001 27.5115 53.4063 27.738 53.2431 27.9013C53.0799 28.0645 52.8533 28.1582 52.6224 28.1582C52.3915 28.1583 52.165 28.0645 52.0018 27.9013C51.8379 27.7374 51.7448 27.5115 51.7448 27.2806C51.7448 27.0497 51.8378 26.8238 52.0018 26.6599Z" fill="#D33234"/>
<path d="M52.6216 19.168C52.137 19.1679 51.7441 19.5607 51.7439 20.0457L51.7438 24.1836C51.7438 24.6683 52.1368 25.0613 52.6216 25.0613C52.864 25.0613 53.0834 24.9631 53.2422 24.8043C53.401 24.6454 53.4992 24.426 53.4993 24.1836L53.4994 20.0457C53.4994 19.561 53.1064 19.168 52.6216 19.168Z" fill="#D33234"/>
</svg>
