<svg width="58" height="58" viewBox="0 0 58 58" fill="none" xmlns="http://www.w3.org/2000/svg">
<path fill-rule="evenodd" clip-rule="evenodd" d="M51.9689 13.3245C52.4968 13.0539 53.1441 13.2625 53.415 13.7905C55.6664 18.1834 56.4693 23.0987 55.737 28.0047C54.9898 33.0104 52.6979 37.5533 49.1091 41.1423C44.668 45.5838 38.7632 48.0298 32.4823 48.0298C26.5615 48.0298 20.9748 45.8561 16.6335 41.8862L15.1339 43.3859L16.9051 45.1574C17.3247 45.577 17.3247 46.2571 16.9051 46.6766L8.94198 54.6402C8.06299 55.5193 6.89438 56.0034 5.65143 56.0034C4.40837 56.0034 3.23976 55.5192 2.36078 54.6402C0.546408 52.8258 0.546408 49.8733 2.36078 48.0588L10.3239 40.0951C10.5254 39.8937 10.7987 39.7805 11.0836 39.7805C11.3685 39.7805 11.6418 39.8937 11.8432 40.0951L13.6145 41.8665L15.114 40.367C11.143 36.0251 8.96851 30.437 8.96851 24.5148C8.96851 18.2338 11.4145 12.3286 15.8556 7.88728C23.3762 0.366183 35.0506 -1.17155 44.2461 4.1479C44.7596 4.44494 44.9352 5.10208 44.638 5.6157C44.3409 6.12921 43.6838 6.30485 43.1701 6.0077C34.816 1.17491 24.2084 2.57234 17.3748 9.40643C9.04457 17.7373 9.04457 31.2925 17.3748 39.6233C21.4102 43.6587 26.7754 45.8813 32.4821 45.8813C38.189 45.8813 43.5542 43.6588 47.5895 39.6233C54.174 33.0383 55.7467 23.0508 51.5028 14.7706C51.2322 14.2425 51.441 13.5951 51.9689 13.3245ZM7.42261 53.1211L14.6261 45.917L13.6146 44.9055L11.6133 46.9069C11.4036 47.1166 11.1286 47.2215 10.8537 47.2215C10.5788 47.2215 10.3039 47.1167 10.094 46.9069C9.67453 46.4873 9.67453 45.8071 10.094 45.3876L12.0954 43.3861L11.0837 42.3742L3.88014 49.5782C2.9034 50.5549 2.9034 52.1443 3.88014 53.1211C4.35326 53.5942 4.98226 53.8548 5.65143 53.8548C6.3205 53.8548 6.94949 53.5942 7.42261 53.1211Z" fill="#333333"/>
<path d="M48.0048 9.56822C48.0736 9.58219 48.1445 9.58971 48.2143 9.58971C48.284 9.58971 48.3549 9.58229 48.4238 9.56822C48.4924 9.55533 48.5601 9.53384 48.6246 9.50699C48.6901 9.48013 48.7524 9.44683 48.8104 9.40815C48.8695 9.36948 48.9243 9.32436 48.9737 9.27494C49.0231 9.22552 49.0684 9.17074 49.108 9.11165C49.1467 9.05364 49.1789 8.99133 49.2058 8.9258C49.2338 8.86134 49.2541 8.79366 49.2681 8.72491C49.282 8.65615 49.2885 8.58525 49.2885 8.51542C49.2885 8.44559 49.282 8.37469 49.2681 8.30594C49.2541 8.23718 49.2338 8.1695 49.2058 8.10397C49.1789 8.03951 49.1467 7.97721 49.108 7.91919C49.0684 7.86011 49.0231 7.80532 48.9737 7.7559C48.9243 7.70649 48.8695 7.66137 48.8104 7.62162C48.7524 7.58294 48.6901 7.55071 48.6246 7.52386C48.5602 7.497 48.4926 7.47551 48.4238 7.46155C48.2852 7.43469 48.1434 7.43469 48.0048 7.46155C47.9361 7.47551 47.8684 7.497 47.8039 7.52386C47.7384 7.54964 47.6762 7.58294 47.6182 7.62162C47.559 7.66137 47.5042 7.70649 47.4548 7.7559C47.4054 7.80532 47.3603 7.86011 47.3216 7.91919C47.2829 7.97721 47.2496 8.03951 47.2227 8.10397C47.1959 8.1695 47.1744 8.23718 47.1616 8.30594C47.1475 8.37469 47.1401 8.44559 47.1401 8.51542C47.1401 8.58525 47.1475 8.65615 47.1616 8.72491C47.1744 8.79366 47.1959 8.86134 47.2227 8.9258C47.2496 8.99133 47.283 9.05364 47.3216 9.11165C47.3603 9.17074 47.4054 9.22552 47.4548 9.27494C47.5042 9.32436 47.559 9.36948 47.6182 9.40815C47.6762 9.44683 47.7384 9.48013 47.8039 9.50699C47.8684 9.53384 47.9361 9.55533 48.0048 9.56822Z" fill="#333333"/>
<path d="M14.606 24.5162C14.606 27.6655 15.4366 30.7626 17.0082 33.4724C18.5319 36.0999 20.7154 38.3123 23.3228 39.8709C23.3237 39.8715 23.3245 39.8719 23.3253 39.8724C26.0845 41.5219 29.2511 42.3938 32.4823 42.3938C35.7136 42.3938 38.8802 41.5219 41.6394 39.8724C41.9639 39.6784 42.1624 39.3283 42.1624 38.9504V30.56C42.1624 28.4561 40.4515 26.7444 38.3486 26.7444H37.9546C39.5433 25.2718 40.5391 23.168 40.5391 20.8359C40.5391 16.3932 36.9249 12.7787 32.4822 12.7787C28.0396 12.7787 24.4254 16.3932 24.4254 20.8359C24.4254 23.168 25.4213 25.2718 27.0099 26.7444H26.6161C24.5131 26.7444 22.8021 28.4561 22.8021 30.56V36.9113C19.031 33.952 16.7544 29.3615 16.7544 24.5162C16.7544 15.8433 23.8099 8.78725 32.4822 8.78725C41.1546 8.78725 48.21 15.8433 48.21 24.5162C48.21 26.4018 47.8801 28.2455 47.2294 29.9961C47.0226 30.5522 47.3059 31.1707 47.8621 31.3774C48.4183 31.584 49.0367 31.3008 49.2434 30.7447C49.9835 28.7538 50.3587 26.6583 50.3587 24.5162C50.3587 14.6586 42.3394 6.63867 32.4823 6.63867C22.6252 6.63867 14.606 14.6585 14.606 24.5162ZM26.5741 20.8358C26.5741 17.5777 29.2246 14.9271 32.4823 14.9271C35.7401 14.9271 38.3906 17.5777 38.3906 20.8358C38.3906 24.0762 35.7689 26.7157 32.5354 26.7443H32.4292C29.1959 26.7157 26.5741 24.0762 26.5741 20.8358ZM24.9508 30.5599C24.9508 29.6407 25.6979 28.8929 26.6162 28.8929H32.4201C32.4409 28.893 32.4616 28.8931 32.4824 28.8931C32.5032 28.8931 32.524 28.893 32.5447 28.8929H38.3487C39.2669 28.8929 40.014 29.6407 40.014 30.5599V38.3272C37.7142 39.5837 35.1235 40.2451 32.4824 40.2451C29.8414 40.2451 27.2507 39.5838 24.9509 38.3272V30.5599H24.9508Z" fill="#D33234"/>
</svg>
