<svg width="58" height="59" viewBox="0 0 58 59" fill="none" xmlns="http://www.w3.org/2000/svg">
<path fill-rule="evenodd" clip-rule="evenodd" d="M31.171 43.7955L32.0039 42.6929L30.5039 41.6606L29.5678 42.7189H27.3304L26.5039 41.6606L25.0039 42.7189L25.8366 43.7955L23.0242 53.3298C23.0226 53.3386 23.0212 53.3474 23.0198 53.3563C22.9519 53.8167 23.104 54.2898 23.4268 54.6221L25.5165 56.7723L22.6537 56.7723C22.1376 56.7723 21.7192 57.1949 21.7192 57.7163C21.7192 58.2376 22.1376 58.6603 22.6537 58.6603H47.6189C48.934 58.6603 50.0039 57.5793 50.0039 56.2509V52.2088C50.0037 51.6873 49.5853 51.2647 49.0692 51.2647C48.5531 51.2647 48.1347 51.6873 48.1347 52.2087V56.2508C48.1347 56.5382 47.9032 56.772 47.6187 56.772H42.5953V44.6261C42.5953 44.1048 42.1769 43.6821 41.6608 43.6821C41.1447 43.6821 40.7263 44.1048 40.7263 44.6261V56.7722L31.4913 56.7722L33.5811 54.622C33.9037 54.2899 34.0559 53.817 33.988 53.3564C33.9868 53.3475 33.9853 53.3386 33.9836 53.3297L31.171 43.7955ZM28.9477 56.7722L32.1089 53.5195L29.3858 44.4785H27.6208L24.8977 53.5195L28.059 56.7722L28.9477 56.7722Z" fill="#D33234"/>
<path fill-rule="evenodd" clip-rule="evenodd" d="M28.5005 38.3116C26.7946 39.5354 26.4585 39.7572 24.9698 40.8462C24.6073 41.1114 24.2967 41.3386 23.7608 41.3386C23.1505 41.3386 22.5779 40.9941 22.296 40.4235L19.349 34.4571L12.6414 37.084C12.4233 37.1781 8.87313 38.7788 8.87313 43.0292V56.2513C8.87313 56.5386 9.10463 56.7725 9.38909 56.7725H14.4128V44.6265C14.4128 44.1051 14.8312 43.6825 15.3473 43.6825C15.8633 43.6825 16.2817 44.1051 16.2817 44.6265V56.7723H18.2924C18.8085 56.7723 19.2269 57.1949 19.2269 57.7163C19.2269 58.2376 18.8085 58.6603 18.2924 58.6603H9.38897C8.07383 58.6603 7.00391 57.5794 7.00391 56.2509V43.0291C7.00391 37.4476 11.7347 35.4187 11.9361 35.335L11.9537 35.328L23.1141 30.9572V28.4499C21.1884 27.0371 19.9221 24.8934 19.6108 22.4915C18.7262 22.4284 17.9058 22.095 17.2358 21.5128C16.36 20.7521 15.8579 19.6452 15.8579 18.4758C15.8579 17.5432 16.1973 16.6636 16.8214 15.9491V12.3605C16.8214 5.90922 22.0169 0.660645 28.403 0.660645C34.7892 0.660645 39.9847 5.90922 39.9848 12.3605V15.8575C40.6023 16.5793 40.9488 17.5057 40.9488 18.4759C40.9488 19.6449 40.4465 20.752 39.5709 21.5126C38.9005 22.095 38.0795 22.4288 37.1947 22.4917C36.8858 24.8495 35.6554 26.9161 33.8809 28.3102V30.9572L45.0534 35.3281C45.0593 35.3304 45.0653 35.3328 45.0712 35.3353C45.2725 35.419 50.0034 37.4479 50.0034 43.0293V47.8035C50.0034 48.3249 49.585 48.7475 49.0689 48.7475C48.5527 48.7475 48.1343 48.3247 48.1344 47.8035V43.0293C48.1344 38.7931 44.6079 37.1888 44.3651 37.0836L37.6522 34.4574L34.7055 40.4236C34.4241 40.9928 33.8524 41.3386 33.2408 41.3386C32.7038 41.3386 32.3907 41.1092 32.0334 40.8474C30.8641 39.9909 29.6781 39.1565 28.5005 38.3116ZM33.1545 39.3347L35.9017 33.7726L33.2439 32.7328C30.687 35.9211 30.4604 36.2035 30.2339 36.486L29.8505 36.9641C31.2564 37.9726 32.4602 38.8365 32.9376 39.1791C33.0645 39.2702 33.1401 39.3245 33.1545 39.3347ZM24.9829 29.4951V31.2618L28.5005 35.6478L32.0118 31.2695V29.436C30.9432 29.908 29.7417 30.1718 28.5166 30.1718C27.3316 30.1718 26.1183 29.9574 24.9829 29.4951ZM38.3522 20.0811C38.8145 19.6794 39.0796 19.0943 39.0798 18.4759C39.0798 17.4454 38.3471 16.5454 37.2731 16.3692V20.5829C37.6774 20.5165 38.0466 20.3467 38.3522 20.0811ZM17.7268 18.4758C17.7268 19.4976 18.4473 20.4048 19.5335 20.5829V16.4167C18.555 16.6451 17.7268 17.4665 17.7268 18.4758ZM18.6906 14.6963C18.9449 14.609 19.2861 14.5275 19.5837 14.493C19.7807 13.7026 20.5129 13.1678 21.3166 13.2286C24.9811 13.4944 28.9526 12.4151 32.2084 10.2666C32.8913 9.81591 33.7887 9.93926 34.3312 10.5281C36.6483 13.0446 37.1405 13.476 37.245 13.9867C37.2736 14.1262 37.2732 14.2716 37.2732 14.467C37.5624 14.4929 37.8441 14.548 38.1157 14.6315V12.3605C38.1157 6.95027 33.7588 2.54879 28.4032 2.54879C23.0476 2.54879 18.6906 6.95027 18.6906 12.3605V14.6963ZM21.4026 21.3262C21.4026 24.9449 24.2562 28.2836 28.5167 28.2835C32.3108 28.2835 35.4041 25.1583 35.4041 21.326V14.4738C35.2477 14.28 34.8738 13.8772 34.2464 13.2013C33.9261 12.8562 33.5396 12.4399 33.0823 11.944C29.6657 14.1543 25.4365 15.3649 21.4026 15.1263V21.3262ZM21.0993 33.7726L23.8466 39.3347L23.9198 39.2822C24.2634 39.0356 25.5774 38.0925 27.1466 36.9669L23.7524 32.7346L21.0993 33.7726Z" fill="#333333"/>
</svg>
