<svg width="59" height="59" viewBox="0 0 59 59" fill="none" xmlns="http://www.w3.org/2000/svg">
<path d="M44.6828 47.4816L38.1689 40.9676C36.4154 39.2142 33.5624 39.2142 31.8089 40.9676L30.3234 42.4531C29.6179 43.1586 28.4701 43.1586 27.7648 42.4531L19.4014 34.0897C18.6959 33.3843 18.6959 32.2365 19.4014 31.5311L20.8869 30.0456C22.6403 28.2921 22.6403 25.4391 20.8869 23.6856L14.3729 17.1717C13.5235 16.3223 12.3942 15.8545 11.1929 15.8545C9.99173 15.8545 8.86227 16.3223 8.01288 17.1717L6.45427 18.7302C4.22672 20.9579 3 23.9195 3 27.0698C3 30.2201 4.22672 33.1817 6.45427 35.4094L13.5532 42.5083C13.9198 42.8749 14.5143 42.8749 14.8811 42.5083C15.2477 42.1417 15.2477 41.5472 14.8811 41.1805L7.78201 34.0815C5.90917 32.2086 4.87773 29.7184 4.87773 27.0698C4.87773 24.4212 5.90917 21.931 7.78211 20.0581L9.34072 18.4995C9.8354 18.0047 10.4933 17.7322 11.1929 17.7322C11.8926 17.7322 12.5504 18.0047 13.0452 18.4995L19.5591 25.0133C20.5805 26.0346 20.5805 27.6965 19.5591 28.7178L18.7147 29.5622L12.7349 23.5824C12.3683 23.2158 11.7738 23.2158 11.4072 23.5824C11.0405 23.949 11.0405 24.5435 11.4072 24.9102L17.4786 30.9817C17.1629 31.5325 16.9937 32.1583 16.9937 32.8104C16.9937 33.7953 17.3772 34.7211 18.0736 35.4175L26.437 43.7809C27.1333 44.4773 28.0592 44.8608 29.0441 44.8608C29.6962 44.8608 30.322 44.6917 30.8728 44.376L37.7644 51.2675C37.9477 51.4509 38.188 51.5425 38.4282 51.5425C38.6685 51.5425 38.9089 51.4508 39.0921 51.2675C39.4587 50.9009 39.4587 50.3064 39.0921 49.9397L32.2923 43.1398L33.1367 42.2954C34.158 41.274 35.8199 41.2741 36.8412 42.2954L43.3551 48.8093C43.8499 49.3041 44.1224 49.9618 44.1224 50.6616C44.1224 51.3613 43.8499 52.0191 43.3551 52.5139L41.7965 54.0725C39.9236 55.9453 37.4334 56.9768 34.7847 56.9768C32.136 56.9768 29.6458 55.9453 27.773 54.0724L19.9084 46.2078C19.5418 45.8412 18.9473 45.8412 18.5806 46.2078C18.2139 46.5744 18.2139 47.1689 18.5806 47.5355L26.4451 55.4001C28.6728 57.6278 31.6345 58.8545 34.7847 58.8545C37.9349 58.8545 40.8966 57.6278 43.1242 55.4002L44.6828 53.8416C45.5322 52.9922 46 51.8628 46 50.6616C46 49.4603 45.5322 48.3309 44.6828 47.4816Z" fill="#333333"/>
<path d="M17.4966 43.7956C17.3219 43.6209 17.0797 43.5205 16.8328 43.5205C16.5849 43.5205 16.3427 43.6209 16.1681 43.7956C15.9935 43.9702 15.8939 44.2124 15.8939 44.4593C15.8939 44.7063 15.9935 44.9485 16.1681 45.1231C16.3427 45.2977 16.5849 45.3982 16.8328 45.3982C17.0797 45.3982 17.3219 45.2977 17.4966 45.1231C17.6712 44.9485 17.7707 44.7063 17.7707 44.4593C17.7707 44.2124 17.6712 43.9703 17.4966 43.7956Z" fill="#333333"/>
<path d="M9.7686 21.0057C10.0155 21.0057 10.2577 21.1062 10.4324 21.2808C10.607 21.4555 10.7075 21.6967 10.7075 21.9446C10.7075 22.1915 10.607 22.4337 10.4324 22.6083C10.2577 22.783 10.0155 22.8834 9.7686 22.8834C9.52168 22.8834 9.27945 22.783 9.10482 22.6083C8.93019 22.4337 8.82973 22.1915 8.82973 21.9446C8.82973 21.6967 8.93019 21.4554 9.10482 21.2808C9.27945 21.1062 9.52168 21.0057 9.7686 21.0057Z" fill="#333333"/>
<path d="M35.8216 10.6129C36.0685 10.6129 36.3106 10.7134 36.4852 10.8882C36.6597 11.0631 36.7602 11.3055 36.7602 11.5527C36.7602 11.8008 36.6597 12.0424 36.4852 12.2172C36.3106 12.392 36.0685 12.4926 35.8216 12.4926C35.5748 12.4926 35.3326 12.392 35.1581 12.2172C34.9835 12.0424 34.8831 11.8008 34.8831 11.5527C34.8831 11.3055 34.9835 11.0631 35.1581 10.8882C35.3326 10.7134 35.5748 10.6129 35.8216 10.6129Z" fill="#D33234"/>
<path d="M41.6644 10.8882C41.4898 10.7134 41.2476 10.6129 41.0008 10.6129C40.753 10.6129 40.5109 10.7134 40.3373 10.8882C40.1617 11.0631 40.0623 11.3055 40.0623 11.5527C40.0623 11.8008 40.1617 12.0424 40.3373 12.2172C40.5109 12.392 40.753 12.4926 41.0008 12.4926C41.2476 12.4926 41.4898 12.392 41.6644 12.2172C41.8389 12.0424 41.9393 11.8008 41.9393 11.5527C41.9393 11.3055 41.8389 11.0631 41.6644 10.8882Z" fill="#D33234"/>
<path d="M46.1784 10.6129C46.4262 10.6129 46.6674 10.7134 46.842 10.8882C47.0166 11.0631 47.117 11.3055 47.117 11.5527C47.117 11.8008 47.0166 12.0424 46.842 12.2172C46.6674 12.392 46.4262 12.4926 46.1784 12.4926C45.9316 12.4926 45.6895 12.392 45.5149 12.2172C45.3403 12.0424 45.2399 11.8008 45.2399 11.5527C45.2399 11.3055 45.3403 11.0631 45.5149 10.8882C45.6895 10.7134 45.9316 10.6129 46.1784 10.6129Z" fill="#D33234"/>
<path fill-rule="evenodd" clip-rule="evenodd" d="M36.0554 0.854492H45.9445C52.0405 0.854492 57 5.82085 57 11.9253C57 18.0297 52.0406 22.996 45.9446 22.996H37.8437L34.1427 25.6762C33.9797 25.7943 33.7866 25.8545 33.5926 25.8545C33.4468 25.8545 33.3005 25.8205 33.1657 25.7516C32.8517 25.591 32.6542 25.2677 32.6542 24.9146V22.4618C28.1119 20.9985 25 16.7665 25 11.9253C25 5.82085 29.9594 0.854492 36.0554 0.854492ZM37.5398 21.1163H45.9445C51.0054 21.1163 55.1228 16.9932 55.1228 11.9253C55.1228 6.85731 51.0054 2.73419 45.9446 2.73419H36.0555C30.9946 2.73419 26.8772 6.85731 26.8772 11.9253C26.8772 16.151 29.7323 19.8175 33.8205 20.8415C34.2382 20.9461 34.5313 21.3221 34.5313 21.7533V23.0751L36.9898 21.2946C37.1498 21.1787 37.3423 21.1163 37.5398 21.1163Z" fill="#D33234"/>
</svg>
