<svg width="58" height="58" viewBox="0 0 58 58" fill="none" xmlns="http://www.w3.org/2000/svg">
<path d="M44.4545 13.5639C39.552 8.6467 32.3707 6.81092 25.7127 8.77319C25.1869 8.92814 24.886 9.48109 25.0405 10.0086C25.195 10.5358 25.7463 10.8376 26.2721 10.6828C32.233 8.92615 38.6626 10.5693 43.0514 14.9713C46.2559 18.1853 48.0188 22.4587 48.0157 27.0042C48.0153 27.5538 48.4593 27.9996 49.0072 28C49.5548 28 49.9996 27.5548 50 27.0056C50.0036 21.9279 48.0342 17.1542 44.4545 13.5639Z" fill="#333333"/>
<path fill-rule="evenodd" clip-rule="evenodd" d="M46.5909 44.0981L39.6225 37.2812C37.7466 35.4461 34.6946 35.4461 32.8187 37.2812L31.2296 38.8357C30.475 39.574 29.2469 39.574 28.4925 38.8357L19.5456 30.0834C18.791 29.3452 18.791 28.144 19.5456 27.4058L21.1348 25.8512C23.0105 24.0161 23.0105 21.0304 21.1348 19.1953L14.1663 12.3785C13.2577 11.4896 12.0496 11 10.7645 11C9.47949 11 8.27124 11.4896 7.36262 12.3785L5.69525 14.0096C3.31231 16.3409 2 19.4402 2 22.737C2 26.0339 3.31231 29.1332 5.69525 31.4644L27.0809 52.3851C29.4639 54.7162 32.6322 56 36.0022 56C39.3722 56 42.5406 54.7162 44.9235 52.3851L46.5909 50.754C47.4995 49.8651 48 48.6831 48 47.4261C48 46.1689 47.4995 44.9871 46.5909 44.0981ZM45.1705 49.3645L43.5031 50.9956C41.4996 52.9555 38.8358 54.0351 36.0022 54.0351C33.1687 54.0351 30.5048 52.9557 28.5013 50.9956L7.11573 30.0748C5.11217 28.1149 4.00869 25.5089 4.00869 22.737C4.00869 20.2702 4.88336 17.9351 6.48795 16.0694L13.8762 23.297C14.0724 23.4889 14.3294 23.5848 14.5864 23.5848C14.8434 23.5848 15.1006 23.4889 15.2965 23.297C15.6888 22.9133 15.6888 22.2912 15.2965 21.9074L7.87971 14.6518L8.78301 13.7681C9.31235 13.2503 10.016 12.9652 10.7646 12.9652C11.5131 12.9652 12.2168 13.2504 12.746 13.7681L19.7145 20.5849C20.8071 21.6537 20.8071 23.3929 19.7145 24.4617L18.1253 26.0164C17.3804 26.7451 16.9701 27.714 16.9701 28.7447C16.9701 29.7753 17.3804 30.7442 18.1253 31.4731L27.0722 40.2254C27.8171 40.9541 28.8077 41.3555 29.8613 41.3555C30.5588 41.3555 31.2283 41.1786 31.8176 40.8481L39.1899 48.0602C39.3861 48.2521 39.6431 48.348 39.9001 48.348C40.1571 48.348 40.4142 48.252 40.6102 48.0602C41.0024 47.6764 41.0024 47.0544 40.6102 46.6706L33.336 39.5544L34.2393 38.6708C35.3318 37.6019 37.1097 37.602 38.2023 38.6708L45.1707 45.4877C45.7 46.0055 45.9914 46.6938 45.9914 47.4261C45.9914 48.1583 45.6998 48.8467 45.1705 49.3645Z" fill="#333333"/>
<path d="M47.0225 30.7968C47.135 30.2595 47.6627 29.9096 48.2016 30.0206C48.7404 30.131 49.089 30.6517 48.9801 31.1898L48.9772 31.204C48.8787 31.6742 48.4625 32 47.9989 32C47.9324 32 47.8649 31.9933 47.7973 31.9794C47.2583 31.8683 46.9102 31.346 47.0203 30.8076L47.0225 30.7968Z" fill="#333333"/>
<path d="M55.6077 22.7737C54.7087 17.6831 52.3077 13.053 48.6645 9.38381C43.9367 4.62232 37.6507 2 30.9645 2C29.578 2 28.1825 2.1166 26.8167 2.34666C26.284 2.43638 25.9245 2.94397 26.0135 3.48031C26.1026 4.01685 26.6072 4.37868 27.1392 4.28915C28.3988 4.07702 29.6859 3.96948 30.9646 3.96948C37.1285 3.96948 42.9235 6.38686 47.2819 10.7765C53.9745 17.5167 55.8998 27.9011 52.073 36.6167C51.8546 37.1141 52.0779 37.6957 52.5718 37.9156C52.7004 37.9729 52.8347 38 52.9668 38C53.3421 38 53.7 37.7812 53.8616 37.4132C55.8824 32.8104 56.4864 27.7482 55.6077 22.7737Z" fill="#D33234"/>
<path d="M23.949 3.67665C23.7775 3.15727 23.224 2.87775 22.7127 3.05163L22.6663 3.0674C22.1549 3.24159 21.8795 3.80372 22.0509 4.3232C22.188 4.73793 22.5685 5 22.9766 5C23.0795 5 23.1843 4.98334 23.2872 4.94822L23.3337 4.93245C23.845 4.75826 24.1206 4.19603 23.949 3.67665Z" fill="#D33234"/>
<path d="M28.8108 15.1686C29.4698 15.0567 30.1454 15 30.8185 15C37.5352 15 42.9999 20.5897 43 27.4603C43 28.0221 42.963 28.5875 42.89 29.1409C42.8243 29.6385 42.4083 30 41.9306 30C41.8873 30 41.8437 29.9971 41.7997 29.991C41.2692 29.9178 40.897 29.4185 40.9687 28.8756C41.0301 28.4099 41.0613 27.9337 41.0613 27.4602C41.0613 21.683 36.4665 16.983 30.8186 16.983C30.2513 16.983 29.6827 17.0308 29.1282 17.1249C28.6002 17.2147 28.1009 16.8494 28.0132 16.3091C27.9256 15.7689 28.2826 15.2582 28.8108 15.1686Z" fill="#D33234"/>
</svg>
