<svg width="66" height="58" viewBox="0 0 66 58" fill="none" xmlns="http://www.w3.org/2000/svg">
<path d="M60.9995 35.456C58.5763 35.456 59.1257 35.456 56.6583 35.456C56.2532 35.456 55.9245 35.1312 55.9245 34.732C55.9215 29.4849 51.5614 25.2176 46.2047 25.2176H41.3845C41.8952 22.3381 41.8828 22.4493 41.8828 22.3245C41.8828 21.2577 40.9972 20.3914 39.9088 20.3914H24.8303C25.2503 18.5933 25.2523 16.6554 24.7792 14.7874C24.6528 14.2857 24.1356 13.9798 23.6219 14.1037C23.1097 14.227 22.7973 14.7349 22.9233 15.237C25.1933 24.2547 14.9677 31.2713 7.12082 26.266C-1.62409 20.7153 2.51383 7.4789 12.7939 7.4789C16.3269 7.4789 19.5931 9.20999 21.5319 12.1089C21.82 12.542 22.4125 12.6634 22.8548 12.3798C23.2956 12.0968 23.4206 11.5165 23.131 11.0843C21.0142 7.91786 17.5576 5.93038 13.7499 5.64389V1.87191H15.8528C16.3804 1.87191 16.8084 1.45285 16.8084 0.936197C16.8084 0.419055 16.3804 0 15.8528 0H9.73498C9.20739 0 8.77897 0.419055 8.77897 0.936197C8.77897 1.45285 9.20739 1.87191 9.73498 1.87191H11.8379V5.64243C5.47557 6.1217 0.449081 11.3446 0.449081 17.6955C0.449081 21.4621 2.21681 24.8311 4.9812 27.0502C0.272556 47.4994 1.45071 42.2032 0.358339 47.5912C0.146609 48.6308 0.572549 49.6743 1.44178 50.2497C2.31251 50.8232 2.59068 50.6926 7.55024 50.6926C8.20477 55.3158 13.3741 57.9335 17.6141 55.761C18.0817 55.5202 18.2612 54.955 18.0168 54.4966C17.7708 54.0387 17.1931 53.8629 16.7256 54.1023C13.0448 55.997 8.68872 52.866 9.48755 48.8206C9.93481 46.5627 11.9693 44.8539 14.4035 44.8539C18.0743 44.8539 20.5198 48.6264 18.9192 51.8793C18.6906 52.345 18.891 52.9044 19.3665 53.1287C19.8415 53.3521 20.4127 53.1564 20.6423 52.6907C20.9542 52.0541 21.161 51.3855 21.2577 50.6926C37.3512 50.6926 26.3333 50.694 40.3561 50.694C40.8227 53.9887 43.7185 56.5326 47.2093 56.5326C50.6986 56.5326 53.5959 53.9887 54.062 50.694H60.0931C61.5638 50.694 62.8446 49.718 63.2066 48.3224C63.2071 48.3205 65.1608 40.7935 65.1608 40.7916C65.856 38.1078 63.819 35.456 60.9995 35.456ZM7.55024 48.8206H2.92539C2.43548 48.8206 2.14293 48.4006 2.23317 47.9553L2.86291 44.8539H9.63283C8.52806 45.8848 7.7694 47.2702 7.55024 48.8206ZM35.2403 48.8206C33.0685 48.8206 22.9966 48.8206 21.2562 48.8206C21.037 47.2702 20.2789 45.8848 19.1741 44.8539H35.9628L35.2403 48.8206ZM3.27298 42.982L6.67753 28.1947C13.1212 31.8089 21.3916 29.0396 24.2234 22.2633C24.2789 22.2633 39.9336 22.2468 39.9624 22.2934C39.1452 26.9108 39.3773 25.6007 36.2995 42.982C34.5253 42.982 4.63212 42.982 3.27298 42.982ZM52.1247 50.694C51.6775 52.9515 49.642 54.6602 47.2093 54.6602C44.4389 54.6602 42.2016 52.4508 42.2016 49.7564C42.2016 47.0604 44.4424 44.8539 47.2093 44.8539C50.3476 44.8539 52.7232 47.664 52.1247 50.694ZM61.3536 47.8621C61.2068 48.4273 60.6882 48.8216 60.0931 48.8216H54.062C53.5969 45.5265 50.7001 42.982 47.2093 42.982C43.717 42.982 40.8212 45.5265 40.3561 48.8216H37.1826C38.3612 42.3391 37.3829 47.8189 41.0532 27.09H46.2047C50.5077 27.09 54.01 30.5187 54.0124 34.732C54.0124 36.1635 55.199 37.328 56.6583 37.328H58.1003C59.1465 39.312 60.8513 40.9135 62.9116 41.8565C62.9106 41.8599 61.3546 47.8587 61.3536 47.8621ZM63.3702 39.9909C62.1489 39.362 61.0992 38.4433 60.3222 37.328C60.9663 37.328 62.0765 37.1881 62.8932 38.2714C63.2711 38.773 63.4367 39.3849 63.3702 39.9909Z" fill="#333333"/>
<path d="M47.2093 45.9976C45.0949 45.9976 43.3704 47.6811 43.3704 49.7564C43.3704 51.8255 45.0875 53.5158 47.2093 53.5158C48.9958 53.5158 50.5013 52.315 50.9267 50.6941C51.5505 48.3298 49.7223 45.9976 47.2093 45.9976ZM48.8813 50.6941C48.139 51.9585 46.28 51.9595 45.5368 50.6941C44.8009 49.4394 45.7341 47.8695 47.2093 47.8695C48.6884 47.8695 49.6152 49.4428 48.8813 50.6941Z" fill="#333333"/>
<path d="M50.1395 30.4182C49.7324 30.748 49.6759 31.3379 50.0121 31.7366C50.4717 32.28 50.7246 32.9656 50.7246 33.6668C50.7246 33.7542 50.7439 33.8683 50.6557 33.8683H43.0512C43.0259 33.8683 43.0021 33.8518 42.9902 33.8299C43.5129 30.6703 43.4965 30.8184 43.4965 30.695C43.4965 30.5848 43.3993 30.6275 47.3726 30.6275C47.9002 30.6275 48.3286 30.2085 48.3286 29.6913C48.3286 29.1747 47.9002 28.7556 47.3726 28.7556H43.5654C42.5033 28.7556 41.6336 29.5787 41.587 30.6076L41.0832 33.6512C40.9319 34.5598 41.761 35.7402 43.0512 35.7402H50.6557C51.6662 35.7402 52.6366 34.9953 52.6366 33.6668C52.6366 32.531 52.2275 31.4215 51.4852 30.543C51.1486 30.1444 50.5461 30.089 50.1395 30.4182Z" fill="#333333"/>
<path d="M45.5985 38.2947H43.0498C42.5222 38.2947 42.0938 38.7137 42.0938 39.2309C42.0938 39.7475 42.5222 40.1671 43.0498 40.1671H45.5985C46.1266 40.1671 46.5545 39.7475 46.5545 39.2309C46.5545 38.7137 46.1266 38.2947 45.5985 38.2947Z" fill="#333333"/>
<path d="M14.4034 45.9976C12.6164 45.9976 11.1114 47.1994 10.6855 48.8207C10.0652 51.1734 11.8815 53.5158 14.4034 53.5158C16.1905 53.5158 17.6954 52.314 18.1214 50.6926C18.7471 48.3191 16.904 45.9976 14.4034 45.9976ZM14.4034 51.6439C12.9268 51.6439 11.9926 50.0692 12.7314 48.8207C13.7147 47.1411 16.3303 47.836 16.3303 49.7564C16.3303 50.8019 15.4626 51.6439 14.4034 51.6439Z" fill="#333333"/>
<path d="M6.72959 53.8193C6.72959 53.3021 6.30166 52.8831 5.77358 52.8831H2.07746C1.54987 52.8831 1.12195 53.3021 1.12195 53.8193C1.12195 54.3359 1.54987 54.755 2.07746 54.755H5.77358C6.30166 54.755 6.72959 54.3364 6.72959 53.8193Z" fill="#D33234"/>
<path d="M11.5548 32.2477C11.5548 31.7306 11.1269 31.3115 10.5988 31.3115H8.09371C7.56562 31.3115 7.1377 31.7306 7.1377 32.2477C7.1377 32.7649 7.56562 33.1839 8.09371 33.1839H10.5988C11.1269 33.1839 11.5548 32.7649 11.5548 32.2477Z" fill="#333333"/>
<path d="M23.9884 38.9668H21.4834C20.9553 38.9668 20.5273 39.3859 20.5273 39.903C20.5273 40.4197 20.9553 40.8387 21.4834 40.8387H23.9884C24.516 40.8387 24.9444 40.4197 24.9444 39.903C24.9444 39.3859 24.516 38.9668 23.9884 38.9668Z" fill="#333333"/>
<path d="M13.0221 35.3924H22.3382C22.8663 35.3924 23.2942 34.9729 23.2942 34.4562C23.2942 33.9391 22.8663 33.52 22.3382 33.52H13.0221C12.494 33.52 12.066 33.9391 12.066 34.4562C12.066 34.9729 12.494 35.3924 13.0221 35.3924Z" fill="#D33234"/>
<path d="M15.4431 37.1462H9.34603C8.81794 37.1462 8.39001 37.5658 8.39001 38.0824C8.39001 38.5996 8.81794 39.0186 9.34603 39.0186H15.4431C15.9712 39.0186 16.3991 38.5996 16.3991 38.0824C16.3991 37.5658 15.9712 37.1462 15.4431 37.1462Z" fill="#D33234"/>
<path d="M8.44119 56.1282H4.74507C4.21699 56.1282 3.78906 56.5472 3.78906 57.0639C3.78906 57.581 4.21699 58.0001 4.74507 58.0001H8.44119C8.96878 58.0001 9.3967 57.581 9.3967 57.0639C9.3967 56.5472 8.96878 56.1282 8.44119 56.1282Z" fill="#D33234"/>
<path d="M17.593 11.4986C17.1725 11.1864 16.5731 11.2675 16.2537 11.6792L13.6609 15.0288C11.8163 14.4534 9.9375 15.8115 9.9375 17.6961C9.9375 19.2397 11.2193 20.4949 12.7956 20.4949C15.0637 20.4949 16.4307 18.0151 15.1837 16.1606L17.7775 12.8102C18.0963 12.3984 18.0135 11.8108 17.593 11.4986ZM12.7956 18.623C12.2735 18.623 11.849 18.2074 11.849 17.6961C11.849 17.1852 12.2735 16.7691 12.7956 16.7691C13.3173 16.7691 13.7417 17.1852 13.7417 17.6961C13.7417 18.2074 13.3173 18.623 12.7956 18.623Z" fill="#333333"/>
</svg>
