<svg width="60" height="58" viewBox="0 0 60 58" fill="none" xmlns="http://www.w3.org/2000/svg">
<path d="M46.5733 33.8332H48.5476C49.1398 33.8332 49.5346 33.4465 49.5346 32.8665C49.5346 32.2865 49.1398 31.8999 48.5476 31.8999H46.5733C45.981 31.8999 45.5862 32.2865 45.5862 32.8665C45.5862 33.4465 45.981 33.8332 46.5733 33.8332Z" fill="#333333"/>
<path d="M46.5733 43.4999H48.5476C49.1398 43.4999 49.5346 43.1133 49.5346 42.5333C49.5346 41.9533 49.1398 41.5667 48.5476 41.5667H46.5733C45.981 41.5667 45.5862 41.9533 45.5862 42.5333C45.5862 43.1133 45.981 43.4999 46.5733 43.4999Z" fill="#333333"/>
<path d="M46.5733 53.1667H48.5476C49.1398 53.1667 49.5346 52.78 49.5346 52.2C49.5346 51.62 49.1398 51.2334 48.5476 51.2334H46.5733C45.981 51.2334 45.5862 51.62 45.5862 52.2C45.5861 52.78 45.981 53.1667 46.5733 53.1667Z" fill="#333333"/>
<path d="M58.4202 23.1033H53.4846V13.5333C53.4846 12.9533 53.0898 12.5667 52.4975 12.5667H49.5361V9.66672C49.5361 9.08673 49.1413 8.7001 48.5491 8.7001H44.6005C44.0082 8.7001 43.6134 9.08673 43.6134 9.66672V10.6334H40.652C40.0598 10.6334 39.6649 11.02 39.6649 11.6V23.1033H26.7336V22.5233C26.7336 21.2667 25.7465 20.3 24.4632 20.3H23.8709V19.3333H33.7421C34.828 19.3333 35.7164 18.4633 35.7164 17.4V14.5V1.93337C35.7164 0.869998 34.828 0 33.7421 0H8.07696C6.99108 0 6.10267 0.869998 6.10267 1.93337V14.5V17.4C6.10267 18.4633 6.99108 19.3333 8.07696 19.3333H17.9482V20.3H17.2572C15.974 20.3 14.9868 21.2666 14.9868 22.5233V23.1033H1.26581C0.673532 23.1033 0.179932 23.5867 0.179932 24.1667V27.9367C0.179932 28.5167 0.673532 29.0001 1.26581 29.0001H2.15422V57.0334C2.15422 57.6134 2.54903 58 3.1413 58H7.08976C7.68203 58 8.07684 57.6134 8.07684 57.0334V29.0001H37.6905V37.7V47.3667V57.0333C37.6905 57.6133 38.0854 57.9999 38.6776 57.9999H56.4458C57.0381 57.9999 57.4329 57.6133 57.4329 57.0333V47.3667V37.7V29.0001H58.3213C58.9136 29.0001 59.4072 28.5167 59.5059 27.9367V24.1667C59.506 23.5867 59.0125 23.1033 58.4202 23.1033ZM51.5103 14.5001V23.1034H49.536V14.5001H51.5103ZM45.5876 10.6334H47.5619V13.5333V23.1033H45.5876V11.6001V10.6334ZM41.6391 12.5667H43.6134V23.1033H41.6391V12.5667ZM33.7421 1.93337V13.5333H8.07696V1.93337H33.7421ZM8.07696 15.4667H33.7422V17.4001H22.8838H18.9354H8.07696V15.4667ZM19.9224 19.3333H21.8967V20.3H19.9224V19.3333ZM17.0597 22.5233C17.0597 22.33 17.1584 22.2333 17.3559 22.2333H18.9352H22.8837H24.5618C24.7593 22.2333 24.858 22.33 24.858 22.5233V23.1033H17.0597V22.5233ZM6.10267 56.0666H4.12839V29.0001H6.10267V56.0666ZM55.4589 46.4H39.6648V38.6667H55.4588V46.4H55.4589ZM55.4589 56.0666H39.6648V48.3333H55.4588V56.0666H55.4589ZM55.4589 36.7333H39.6648V28.9999H55.4588V36.7333H55.4589ZM57.433 27.0667H56.446H38.6777H7.08976H3.1413H2.15422V25.1333H15.974H25.8452H40.652H44.6005H48.5489H52.4974H57.433V27.0667Z" fill="#333333"/>
<path d="M10.0508 6.76665C10.3469 6.76665 10.5444 6.67002 10.7417 6.47665L12.716 4.54328C13.1108 4.15666 13.1108 3.57666 12.716 3.18992C12.3212 2.80317 11.7289 2.80329 11.334 3.18992L9.35983 5.12328C8.96502 5.50991 8.96502 6.08991 9.35983 6.47665C9.55729 6.67002 9.75464 6.76665 10.0508 6.76665Z" fill="#D33234"/>
<path d="M10.3474 10.3434C10.5448 10.5368 10.7422 10.6334 11.0383 10.6334C11.3345 10.6334 11.5319 10.5368 11.7293 10.3434L16.6649 5.51008C17.0597 5.12345 17.0597 4.54345 16.6649 4.15671C16.2701 3.76997 15.6778 3.77008 15.2829 4.15671L10.3474 8.99019C9.95257 9.37682 9.95257 9.95682 10.3474 10.3434Z" fill="#D33234"/>
</svg>
