<svg width="57" height="58" viewBox="0 0 57 58" fill="none" xmlns="http://www.w3.org/2000/svg">
<path d="M41.8844 22.9685L39.8424 21.861C39.423 21.6331 39.2717 21.1162 39.5039 20.706C39.6621 20.4259 39.9581 20.2679 40.2635 20.2679C40.4054 20.2679 40.55 20.302 40.6833 20.3741L42.7253 21.4822C43.1442 21.7096 43.296 22.2269 43.0638 22.6371C42.8315 23.0477 42.3033 23.196 41.8844 22.9685Z" fill="#D33234"/>
<path d="M41.8846 25.3794L39.8426 24.2718C39.4232 24.0444 39.2714 23.5271 39.5041 23.1165C39.6623 22.8368 39.9583 22.6788 40.2637 22.6788C40.4056 22.6788 40.5502 22.7129 40.6831 22.785L42.7255 23.8931C43.1444 24.1205 43.2962 24.6374 43.064 25.048C42.8317 25.4586 42.3035 25.6069 41.8846 25.3794Z" fill="#D33234"/>
<path d="M56.2803 15.2005C56.3635 15.3332 56.41 15.4894 56.41 15.6456V23.12C56.41 23.5895 56.0214 23.9696 55.542 23.9696C55.063 23.9696 54.6744 23.5895 54.6744 23.12V16.9546L46.3315 20.5986V36.3863L54.6744 40.9127V26.8198C54.6744 26.3503 55.063 25.9702 55.542 25.9702C56.0214 25.9702 56.41 26.3503 56.41 26.8198V42.3548C56.41 42.6579 56.2338 42.9509 55.9627 43.0978L28.6882 57.8951C28.4293 58.035 28.1062 58.035 27.8473 57.8951L0.572895 43.0978C0.297254 42.9486 0.121928 42.6526 0.125543 42.3446V15.6456C0.125543 15.3421 0.301321 15.0496 0.572895 14.9022L12.5899 8.38237C13.0093 8.15536 13.537 8.3036 13.7693 8.71381C14.0016 9.12445 13.8497 9.64174 13.4309 9.86874L2.93482 15.5633L11.0292 19.0985L27.4 10.217V2.29041L16.8718 8.00182C16.453 8.22926 15.9247 8.08102 15.6925 7.67038C15.4602 7.26018 15.612 6.74289 16.0309 6.51544L27.8473 0.104874C28.1049 -0.0349579 28.4307 -0.0349579 28.6882 0.104874L41.0808 6.82874C41.5001 7.05618 41.6515 7.57303 41.4192 7.98367C41.1874 8.39388 40.6592 8.54256 40.2399 8.31511L29.1351 2.29041V10.217L45.506 19.0985L53.6003 15.5633L43.6786 10.1803C43.2593 9.95282 43.1079 9.43597 43.3401 9.02533C43.4983 8.74522 43.7943 8.58725 44.0997 8.58725C44.2416 8.58725 44.3862 8.62177 44.5195 8.69389L55.9627 14.9022C56.091 14.9717 56.2035 15.0784 56.2803 15.2005ZM28.2676 45.2452L43.6736 36.8868L28.2676 28.5287L12.862 36.8868L28.2676 45.2452ZM45.4639 37.8581L29.1351 46.717V55.71L53.7517 42.3548L45.4639 37.8581ZM27.4 46.717L11.0716 37.8581L2.78344 42.3548L27.4 55.71V46.717ZM1.86072 40.9127L10.2036 36.3863V20.5986L1.86072 16.9546V40.9127ZM11.9392 35.4446L18.2369 32.0281L27.4 27.0565V12.1596L11.9392 20.5477V35.4446ZM29.1351 27.0565L44.5963 35.4446V20.5477L29.1351 12.1596V27.0565Z" fill="#333333"/>
</svg>
