<svg width="58" height="58" viewBox="0 0 58 58" fill="none" xmlns="http://www.w3.org/2000/svg">
<path fill-rule="evenodd" clip-rule="evenodd" d="M29.0001 20.8279C33.5059 20.8279 37.1715 24.4938 37.1715 29C37.1715 33.5061 33.5059 37.172 29.0001 37.172C24.4943 37.172 20.8287 33.5061 20.8287 29C20.8287 24.4938 24.4943 20.8279 29.0001 20.8279ZM29.0001 22.8059C25.5849 22.8059 22.8066 25.5844 22.8066 29C22.8066 32.4155 25.5849 35.194 29.0001 35.194C32.4154 35.194 35.1937 32.4151 35.1937 29C35.1937 25.5848 32.4154 22.8059 29.0001 22.8059Z" fill="#333333"/>
<path fill-rule="evenodd" clip-rule="evenodd" d="M25.9081 47C25.3622 47 24.9191 46.5573 24.9191 46.011V44.0936C23.6192 43.7436 22.3761 43.2282 21.2076 42.5552L19.8544 43.909C19.6689 44.0944 19.4175 44.1987 19.1552 44.1987C18.8929 44.1987 18.641 44.094 18.4556 43.9086L14.085 39.5345C13.6987 39.1482 13.6991 38.5219 14.085 38.136L15.437 36.7838C14.7641 35.6156 14.2488 34.3723 13.8988 33.0719H11.9889C11.7262 33.0719 11.4748 32.9676 11.2893 32.7822C11.1039 32.5968 10.9996 32.3449 11 32.0825L11.0035 25.8985C11.0035 25.3526 11.4462 24.9099 11.9924 24.9099H13.8988C14.2488 23.6095 14.7641 22.3667 15.437 21.1984L14.0923 19.8536C13.9069 19.6681 13.8026 19.4163 13.8026 19.1539C13.8026 18.8916 13.9069 18.6401 14.0927 18.4547L18.4664 14.0833C18.8527 13.6974 19.4789 13.6978 19.8648 14.0837L21.208 15.427C22.3761 14.754 23.6192 14.2386 24.9191 13.889V11.989C24.9191 11.4427 25.3622 11 25.9081 11H32.0916C32.6378 11 33.0805 11.4427 33.0805 11.989V13.8886C34.3808 14.2386 35.6239 14.754 36.792 15.427L38.1348 14.0837C38.5211 13.6974 39.1473 13.6974 39.5332 14.0833L43.9073 18.4543C44.0927 18.6397 44.197 18.8916 44.1974 19.1539C44.1974 19.4163 44.0931 19.6681 43.9077 19.8536L42.563 21.1984C43.2359 22.3667 43.7508 23.6099 44.1008 24.9099H46.0111C46.5573 24.9099 47 25.3526 47 25.8989V32.0829C47 32.6292 46.5573 33.0719 46.0111 33.0719H44.1012C43.7512 34.3723 43.2359 35.6156 42.563 36.7838L43.915 38.136C44.3009 38.5219 44.3009 39.1482 43.915 39.5345L39.5444 43.9086C39.359 44.0944 39.1071 44.1987 38.8452 44.1987C38.5825 44.1987 38.3311 44.0944 38.1456 43.909L36.792 42.5552C35.6239 43.2282 34.3808 43.7436 33.0805 44.0936V46.011C33.0805 46.5573 32.6378 47 32.0916 47H25.9081ZM20.3593 40.6066C20.6892 40.277 21.2041 40.2222 21.5954 40.4752C22.983 41.3719 24.5039 42.0024 26.1159 42.3486C26.5713 42.4467 26.897 42.8496 26.897 43.3155V45.022H31.1026V43.3155C31.1026 42.8492 31.4279 42.4467 31.8837 42.3486C33.4958 42.002 35.0166 41.3719 36.4042 40.4752C36.7955 40.2222 37.3105 40.2767 37.6404 40.6066L38.8445 41.8104L41.817 38.8353L40.6141 37.6322C40.2846 37.3027 40.2297 36.7877 40.4827 36.3959C41.3793 35.0086 42.0098 33.4873 42.3559 31.8751C42.454 31.4196 42.8566 31.0939 43.3228 31.0939H45.0221V26.8879H43.3228C42.8566 26.8879 42.4536 26.5626 42.3559 26.1068C42.0094 24.4946 41.3793 22.9736 40.4827 21.5859C40.2297 21.1945 40.2842 20.6796 40.6141 20.3496L41.8093 19.1543L38.8344 16.1815L37.64 17.3756C37.3105 17.7056 36.7955 17.76 36.4042 17.507C35.017 16.6103 33.4958 15.9802 31.8837 15.6337C31.4279 15.5359 31.1026 15.133 31.1026 14.6667V12.978H26.897V14.6671C26.897 15.133 26.5713 15.5359 26.1159 15.6341C24.5035 15.9802 22.9826 16.6107 21.5954 17.5074C21.2037 17.76 20.6892 17.7056 20.3593 17.376L19.1652 16.1815L16.1903 19.1543L17.3855 20.35C17.715 20.6796 17.7699 21.1945 17.5169 21.5859C16.6203 22.9736 15.9898 24.4946 15.6437 26.1068C15.5456 26.5626 15.1431 26.8879 14.6768 26.8879H12.9806L12.9782 31.0939H14.6768C15.1431 31.0939 15.5456 31.4196 15.6437 31.8751C15.9898 33.4876 16.6203 35.0086 17.5169 36.3963C17.7699 36.7877 17.715 37.3027 17.3855 37.6322L16.1826 38.8356L19.1552 41.8108L20.3593 40.6066Z" fill="#333333"/>
<path fill-rule="evenodd" clip-rule="evenodd" d="M10.0971 43.7364C10.718 43.3952 11.4178 43.2135 12.1458 43.2135C13.2852 43.2135 14.3564 43.6571 15.1621 44.4628C15.9679 45.2682 16.4114 46.3397 16.4114 47.4787C16.4114 48.6181 15.9679 49.6897 15.1621 50.4951C14.3564 51.3008 13.2852 51.7448 12.1458 51.7448C11.0064 51.7448 9.93523 51.3008 9.12987 50.4951C8.32411 49.6897 7.88017 48.6185 7.88017 47.4791C7.88017 46.6242 8.13011 45.8077 8.59508 45.1131C4.98365 40.5427 3 34.8418 3 29C3 22.0552 5.7045 15.5259 10.6152 10.6152C15.5259 5.70449 22.0553 3 29.0001 3C30.7417 3 32.4829 3.17337 34.1758 3.51535C34.7257 3.62683 35.0811 4.16241 34.97 4.71228C34.859 5.26214 34.3226 5.61761 33.7735 5.50653C32.2128 5.19113 30.6068 5.03125 29.0001 5.03125C15.7834 5.03125 5.03125 15.7834 5.03125 29C5.03125 34.3355 6.82646 39.5438 10.0971 43.7364ZM12.1458 49.7135C12.7425 49.7135 13.3039 49.481 13.7256 49.0589C14.1477 48.6368 14.3802 48.0758 14.3802 47.4791C14.3802 46.8821 14.1477 46.3211 13.7256 45.899C13.3035 45.4772 12.7425 45.2448 12.1458 45.2448C11.5491 45.2448 10.9878 45.4768 10.566 45.899C10.1439 46.3211 9.91142 46.8821 9.91142 47.4791C9.91142 48.0758 10.1439 48.6368 10.566 49.0589C10.9881 49.481 11.5491 49.7135 12.1458 49.7135Z" fill="#D33234"/>
<path fill-rule="evenodd" clip-rule="evenodd" d="M48.8705 7.50454C50.3309 8.9649 50.5082 11.2294 49.4041 12.8858C53.016 17.4565 55 23.1578 55 29C55 35.9448 52.2955 42.4741 47.3848 47.3848C42.4741 52.2955 35.9447 55 28.9999 55C27.2754 55 25.5504 54.8298 23.8734 54.4946C23.3235 54.3843 22.9669 53.8495 23.0768 53.2992C23.1871 52.7494 23.7222 52.3927 24.2721 52.5026C25.8182 52.812 27.4091 52.9688 28.9999 52.9688C42.2166 52.9688 52.9687 42.2166 52.9687 29C52.9687 23.6645 51.1735 18.4566 47.9029 14.2636C47.282 14.6048 46.5822 14.7865 45.8542 14.7865C44.7148 14.7865 43.6436 14.3429 42.8379 13.5372C42.0321 12.7314 41.5886 11.6603 41.5886 10.5209C41.5886 9.38146 42.0321 8.3103 42.8379 7.50454C43.6436 6.69919 44.7148 6.25525 45.8542 6.25525C46.9936 6.25525 48.0648 6.69919 48.8705 7.50454ZM43.6198 10.5209C43.6198 11.1179 43.8523 11.6789 44.2744 12.101C44.6961 12.5228 45.2571 12.7552 45.8542 12.7552C46.4509 12.7552 47.0123 12.5228 47.4344 12.101C48.3052 11.2298 48.3052 9.81231 47.4344 8.94109C47.0123 8.51898 46.4509 8.28649 45.8542 8.28649C45.2575 8.28649 44.6961 8.51898 44.2744 8.94109C43.8523 9.36321 43.6198 9.92419 43.6198 10.5209Z" fill="#D33234"/>
<path d="M38.3517 6.8413C38.6191 6.8413 38.8809 6.73259 39.0698 6.54375C39.2586 6.35372 39.3673 6.09188 39.3673 5.82448C39.3673 5.55868 39.259 5.29644 39.0698 5.10641C38.8809 4.91756 38.6191 4.80886 38.3517 4.80886C38.0835 4.80886 37.8229 4.91756 37.634 5.10641C37.4448 5.29644 37.3361 5.55749 37.3361 5.82448C37.3361 6.09267 37.4448 6.35372 37.634 6.54375C37.8229 6.73259 38.0835 6.8413 38.3517 6.8413Z" fill="#D33234"/>
<path d="M18.975 51.4749C19.1638 51.286 19.4261 51.1773 19.6931 51.1773C19.9601 51.1773 20.2223 51.286 20.4111 51.4749C20.6 51.6637 20.7087 51.9259 20.7087 52.1929C20.7087 52.4599 20.6 52.7222 20.4111 52.911C20.2223 53.0998 19.9601 53.2086 19.6931 53.2086C19.4261 53.2086 19.1638 53.0998 18.975 52.911C18.7861 52.7222 18.6774 52.4611 18.6774 52.1929C18.6774 51.9259 18.7861 51.6637 18.975 51.4749Z" fill="#D33234"/>
</svg>
