<svg width="58" height="59" viewBox="0 0 58 59" fill="none" xmlns="http://www.w3.org/2000/svg">
<path d="M40.2261 36.2094C40.2261 35.6928 40.6449 35.2739 41.1616 35.2739C41.6782 35.2739 42.097 35.6928 42.097 36.2094V39.8868C42.097 40.4391 42.5448 40.8868 43.097 40.8868H43.968C44.4847 40.8868 44.9035 41.3057 44.9035 41.8223C44.9035 42.339 44.4847 42.7578 43.968 42.7578H41.2261C40.6738 42.7578 40.2261 42.3101 40.2261 41.7578V36.2094Z" fill="#333333"/>
<path fill-rule="evenodd" clip-rule="evenodd" d="M58 41.8219C58 34.2293 52.9457 27.8002 46.0269 25.7063C46.486 25.1563 46.7742 24.4584 46.7742 23.6878C46.7742 22.3846 45.9931 21.2308 44.7836 20.7466L28.0403 14.0493C27.6004 13.8734 27.1441 13.746 26.6846 13.6706L22.4516 12.9649V12.3167C23.5968 11.2885 24.3226 9.80217 24.3226 8.14452V6.27355C24.3226 3.17795 21.8053 0.660645 18.7097 0.660645C15.6141 0.660645 13.0968 3.17795 13.0968 6.27355V8.14452C13.0968 9.80125 13.8226 11.2876 14.9677 12.3167V13.0837L8.46686 15.2506C7.31943 15.633 6.54839 16.7023 6.54839 17.9118V32.9348C6.54839 33.4391 6.67263 33.9114 6.87681 34.3381H1.87097C0.839103 34.3381 0 35.1772 0 36.209V43.6929C0 44.7248 0.839103 45.5639 1.87097 45.5639H11.2258V56.7897H4.67742C4.16077 56.7897 3.74194 57.2085 3.74194 57.7252C3.74194 58.2418 4.16077 58.6606 4.67742 58.6606H53.3226C53.8392 58.6606 54.2581 58.2418 54.2581 57.7252C54.2581 57.2085 53.8392 56.7897 53.3226 56.7897H48.8407C54.2704 53.9914 58 48.3393 58 41.8219ZM56.129 41.8219C56.129 50.0746 49.4139 56.7897 41.1613 56.7897C32.9087 56.7897 26.1935 50.0746 26.1935 41.8219C26.1935 33.5693 32.9087 26.8542 41.1613 26.8542C49.4139 26.8542 56.129 33.5693 56.129 41.8219ZM26.1935 34.1435V21.2413H27.8951L38.4932 25.2153C33.1247 26.0758 28.6008 29.4706 26.1935 34.1435ZM14.9677 6.27355C14.9677 4.20982 16.6459 2.53161 18.7097 2.53161C20.7734 2.53161 22.4516 4.20982 22.4516 6.27355V8.14452C22.4516 10.2082 20.7734 11.8865 18.7097 11.8865C16.6459 11.8865 14.9677 10.2082 14.9677 8.14452V6.27355ZM12.3454 36.209L8.67835 38.6533C7.96669 39.1269 6.99923 39.1269 6.28848 38.6533L2.62237 36.209H12.3454ZM1.87097 37.9567L5.25159 40.21C5.91529 40.6526 6.68679 40.8865 7.48387 40.8865C8.28095 40.8865 9.05245 40.6526 9.71706 40.21L13.0968 37.9567L13.0977 43.6929H1.87097V37.9567ZM13.0968 45.5639C14.1286 45.5639 14.9677 44.7248 14.9677 43.6929V36.209C14.9677 35.1772 14.1286 34.3381 13.0968 34.3381V19.3703H11.2258V32.9348C11.2258 33.7086 10.5964 34.3381 9.82258 34.3381C9.0488 34.3381 8.41935 33.7086 8.41935 32.9348V17.9118C8.41935 17.5085 8.67652 17.1522 9.0593 17.0243L16.8387 14.4321V13.4299C17.4252 13.6387 18.0528 13.7574 18.7097 13.7574C19.3665 13.7574 19.9941 13.6377 20.5806 13.4299V14.5499L26.3776 15.516C26.7051 15.5713 27.0308 15.6613 27.3442 15.7873L44.0874 22.4846C44.5835 22.682 44.9032 23.1552 44.9032 23.6878C44.9032 24.4022 44.3213 24.9832 43.6078 24.9832H43.4374C43.2821 24.9832 43.1286 24.9563 42.9825 24.9001L28.234 19.3703H24.3226V56.7897H19.6452V31.5316H17.7742V56.7897H13.0968V45.5639ZM26.1935 56.7897V49.5004C27.8037 52.6248 30.3575 55.1795 33.4819 56.7897H26.1935Z" fill="#333333"/>
<path d="M0.935484 56.7896C0.41883 56.7896 0 57.2084 0 57.725C0 58.2417 0.41883 58.6605 0.935484 58.6605C1.45214 58.6605 1.87097 58.2417 1.87097 57.725C1.87097 57.2084 1.45214 56.7896 0.935484 56.7896Z" fill="#333333"/>
<path d="M57.0644 56.7896C56.5477 56.7896 56.1289 57.2084 56.1289 57.725C56.1289 58.2417 56.5477 58.6605 57.0644 58.6605C57.581 58.6605 57.9999 58.2417 57.9999 57.725C57.9999 57.2084 57.581 56.7896 57.0644 56.7896Z" fill="#333333"/>
<path d="M33.8637 33.3034L32.6455 31.8833C35.0198 29.8469 38.0433 28.7251 41.1612 28.7251C48.3834 28.7251 54.258 34.5997 54.258 41.8219C54.258 44.9389 53.1362 47.9624 51.1008 50.3376L49.6797 49.1185C51.2213 47.3224 52.1477 45.0924 52.345 42.7574H49.5806V40.8864H52.3395C51.8873 35.4429 47.5402 31.0958 42.0967 30.6436V33.4025H40.2258V30.6381C37.8898 30.8354 35.6607 31.7627 33.8637 33.3034Z" fill="#D33234"/>
<path d="M42.0967 50.2412V53.0057C44.4318 52.8093 46.6618 51.882 48.4587 50.3404L49.677 51.7605C47.3026 53.7968 44.2792 54.9187 41.1612 54.9187C33.9391 54.9187 28.0645 49.044 28.0645 41.8219C28.0645 38.7048 29.1863 35.6814 31.2217 33.3062L32.6428 34.5253C31.1011 36.3214 30.1748 38.5513 29.9774 40.8864H32.7419V42.7574H29.9829C30.4351 48.2008 34.7823 52.548 40.2257 53.0002V50.2412H42.0967Z" fill="#D33234"/>
</svg>
