<svg width="37" height="41" viewBox="0 0 37 41" fill="none" xmlns="http://www.w3.org/2000/svg">
<path fill-rule="evenodd" clip-rule="evenodd" d="M34.7576 5.60608H2.24242C1.6232 5.60608 1.12121 6.10806 1.12121 6.72729V38.1212C1.12121 38.7405 1.6232 39.2424 2.24242 39.2424H34.7576C35.3768 39.2424 35.8788 38.7405 35.8788 38.1212V6.72729C35.8788 6.10806 35.3768 5.60608 34.7576 5.60608ZM2.24242 4.48486C1.00397 4.48486 0 5.48883 0 6.72729V38.1212C0 39.3597 1.00397 40.3637 2.24242 40.3637H34.7576C35.996 40.3637 37 39.3597 37 38.1212V6.72729C37 5.48883 35.996 4.48486 34.7576 4.48486H2.24242Z" fill="#333333"/>
<circle cx="18.5" cy="7.28789" r="2.80303" fill="white"/>
<path fill-rule="evenodd" clip-rule="evenodd" d="M21.0067 4.77553C22.2669 5.61541 22.26 7.60037 22.26 7.60037L22.2669 8.8671L28.8561 23.1479C29.4875 24.5103 29.081 26.1336 27.8848 27.0287L28.4407 28.2319C28.544 28.4383 28.5279 28.6851 28.3988 28.8759C28.2694 29.0669 28.0477 29.1713 27.8199 29.1484C27.5922 29.1258 27.3948 28.9794 27.3053 28.7666L23.254 19.9867C20.1992 21.2053 16.8008 21.2053 13.7463 19.9867L9.69497 28.7666C9.60518 28.9794 9.40782 29.1258 9.18005 29.1484C8.95257 29.1713 8.73054 29.0669 8.60145 28.8759C8.47208 28.6851 8.45602 28.4383 8.55929 28.2319L9.11522 27.0287C7.91844 26.1334 7.51253 24.5091 8.14449 23.1467L14.7331 8.8671L14.74 7.60037C14.74 7.60037 14.7331 5.70037 15.9936 4.77553V2.53346C15.9936 1.13423 17.1157 0 18.5001 0C19.8845 0 21.0067 1.13423 21.0067 2.53346V4.77553ZM27.336 25.8417H27.3377C27.9028 25.2778 28.0563 24.4158 27.7213 23.6883L21.4089 10.0074C21.1315 10.3464 20.7982 10.6346 20.4238 10.8593L27.336 25.8417ZM9.28131 23.6851C8.94483 24.4135 9.09801 25.2772 9.66427 25.8417L16.5762 10.8619C16.2015 10.6363 15.8682 10.3472 15.5911 10.0074L9.28131 23.6851ZM19.2583 11.3246C18.76 11.4278 18.2463 11.4278 17.748 11.3246L14.2801 18.8392C16.9973 19.9015 20.009 19.9015 22.7262 18.8392L19.2583 11.3246ZM18.5001 1.26673C17.8079 1.26673 17.2468 1.83384 17.2468 2.53346V4.02199C18.0567 3.72625 18.9433 3.72625 19.7534 4.02199V2.53346C19.7534 1.83384 19.1923 1.26673 18.5001 1.26673ZM21.0067 7.60037C21.0067 6.20114 19.8845 5.06692 18.5001 5.06692C17.1157 5.06692 15.9936 6.20114 15.9936 7.60037C15.9936 8.9996 17.1157 10.1341 18.5001 10.1341C19.8845 10.1341 21.0067 8.9996 21.0067 7.60037Z" fill="#333333"/>
<path d="M25.7411 31.1732C25.7105 31.1049 25.6657 31.0428 25.6093 30.9905L23.7867 29.3087C23.5484 29.0965 23.1696 29.0994 22.9352 29.3157C22.7008 29.532 22.6974 29.8815 22.9277 30.1014L23.7138 30.8268H13.2821L14.0677 30.1021C14.2979 29.882 14.2946 29.5325 14.0602 29.3162C13.826 29.1001 13.447 29.097 13.2087 29.3095L11.3861 30.991C11.3347 31.0395 11.2935 31.0967 11.2646 31.1593C11.2565 31.1775 11.2493 31.1963 11.2435 31.2152C11.2273 31.2602 11.2173 31.3069 11.2137 31.3543C11.2137 31.3738 11.2101 31.3918 11.2137 31.4103C11.2157 31.4708 11.2284 31.5306 11.2512 31.5876C11.2512 31.5924 11.2512 31.5976 11.2549 31.6019C11.2846 31.6633 11.3258 31.7189 11.3764 31.7669C11.3814 31.7718 11.3831 31.7785 11.3886 31.7836L13.2112 33.4653C13.4495 33.6778 13.8282 33.6747 14.0627 33.4584C14.2971 33.2421 14.3002 32.8926 14.0702 32.6727L13.2821 31.9478H23.7138L22.9283 32.6727C22.7706 32.8133 22.7072 33.0217 22.7628 33.2177C22.8184 33.4138 22.9842 33.567 23.1966 33.618C23.4091 33.6693 23.6349 33.6111 23.7873 33.4653L25.6098 31.7836C25.7836 31.6232 25.8356 31.3823 25.7416 31.1727L25.7411 31.1732Z" fill="#D33234"/>
<path d="M4.0365 11.2121C4.40787 11.2121 4.70935 10.911 4.70935 10.5395V9.19403H6.05474C6.42612 9.19403 6.72728 8.89283 6.72728 8.52111C6.72728 8.1497 6.42612 7.84851 6.05474 7.84851H4.0365C3.66512 7.84851 3.36365 8.1497 3.36365 8.52111V10.5395C3.36365 10.911 3.66512 11.2121 4.0365 11.2121Z" fill="#D33234"/>
<path d="M32.9635 7.84851H30.9456C30.5739 7.84851 30.2727 8.1497 30.2727 8.52111C30.2727 8.89283 30.5739 9.19403 30.9456 9.19403H32.2909V10.5395C32.2909 10.911 32.5921 11.2121 32.9635 11.2121C33.3352 11.2121 33.6363 10.911 33.6363 10.5395V8.52111C33.6363 8.1497 33.3352 7.84851 32.9635 7.84851Z" fill="#D33234"/>
<path d="M6.05474 35.6546H4.70935V34.3092C4.70935 33.9375 4.40787 33.6364 4.0365 33.6364C3.66512 33.6364 3.36365 33.9375 3.36365 34.3092V36.3271C3.36365 36.6988 3.66512 37 4.0365 37H6.05474C6.42612 37 6.72728 36.6988 6.72728 36.3271C6.72728 35.9558 6.42612 35.6546 6.05474 35.6546Z" fill="#D33234"/>
<path d="M32.9635 33.6364C32.5921 33.6364 32.2909 33.9375 32.2909 34.3092V35.6546H30.9456C30.5739 35.6546 30.2727 35.9558 30.2727 36.3271C30.2727 36.6988 30.5739 37 30.9456 37H32.9635C33.3352 37 33.6363 36.6988 33.6363 36.3271V34.3092C33.6363 33.9375 33.3352 33.6364 32.9635 33.6364Z" fill="#D33234"/>
</svg>
