<svg width="57" height="58" viewBox="0 0 57 58" fill="none" xmlns="http://www.w3.org/2000/svg">
<path d="M37.9596 29.9911L39.3387 29.9916L39.3382 31.4252L37.9592 31.4247L37.9596 29.9911Z" fill="#333333"/>
<path d="M37.9594 27.1222L39.3387 27.1225L39.3387 28.556L37.9596 28.556L37.9594 27.1222Z" fill="#333333"/>
<path d="M37.9584 24.2549L39.3377 24.2552L39.3377 25.6888L37.9587 25.6888L37.9584 24.2549Z" fill="#333333"/>
<path d="M37.9594 35.727L39.3387 35.7272L39.3387 37.1608L37.9596 37.1608L37.9594 35.727Z" fill="#333333"/>
<path d="M37.9592 32.8587L39.3384 32.8585L39.3387 34.2923L37.9594 34.2925L37.9592 32.8587Z" fill="#333333"/>
<path d="M24.3831 34.9693C24.2 34.7784 24.1352 34.4972 24.2152 34.2412L25.0618 31.5298L22.8445 29.8541C22.5999 29.6721 22.4968 29.3461 22.5902 29.049C22.6835 28.7514 22.9512 28.5514 23.252 28.5541H25.9938L26.8435 25.8459C26.9359 25.5503 27.2007 25.3503 27.4995 25.3505C27.7984 25.3503 28.0632 25.5503 28.1554 25.8456L29.0055 28.5549L31.7476 28.5541C32.0486 28.5512 32.3165 28.7514 32.4096 29.0488C32.503 29.3463 32.4001 29.6721 32.1555 29.8541L29.9259 31.5273L30.7729 34.2393C30.8646 34.5346 30.7632 34.8579 30.5212 35.0401C30.2793 35.2223 29.9521 35.2218 29.7106 35.0391L27.4922 33.3636L25.2766 35.0421C25.0349 35.2245 24.7077 35.2245 24.466 35.0421C24.4364 35.0203 24.4086 34.9958 24.3831 34.9693ZM26.3627 30.7472C26.5461 30.9379 26.6108 31.2196 26.5308 31.476L26.1846 32.5831L27.089 31.9008C27.3307 31.7184 27.6581 31.7186 27.9001 31.9013L28.8045 32.5831L28.4583 31.476C28.3659 31.1805 28.4668 30.8571 28.7083 30.6745L29.6149 29.9895L28.4968 29.9912C28.1982 29.9907 27.9334 29.7907 27.8415 29.4951L27.4945 28.3873L27.1488 29.4953C27.0564 29.7904 26.7916 29.9905 26.4929 29.9905L25.3718 29.991L26.2784 30.6759C26.3084 30.6972 26.3365 30.721 26.3627 30.7472Z" fill="#D33234"/>
<path d="M48.1861 37.8781L48.1861 32.8585L47.4964 32.8586C46.7532 32.8647 46.064 32.4563 45.6904 31.7881C45.3172 31.1199 45.3172 30.2951 45.6909 29.6269C46.0643 28.959 46.7537 28.5503 47.4969 28.557L48.1865 28.557L48.1861 23.5379C48.1863 22.3499 47.2597 21.3866 46.1167 21.3867L42.6687 21.3869L42.6687 19.2361C42.6687 18.0478 41.7423 17.0848 40.5993 17.0848L10.8242 17.0848C9.68111 17.0848 8.75453 18.0481 8.75476 19.2361L8.75476 24.2556L9.44417 24.2554C10.5763 24.2826 11.4876 25.23 11.5136 26.4067C11.5138 27.5947 10.5872 28.558 9.44441 28.5577L8.75476 28.5577L8.75429 33.5777C8.75452 34.7653 9.68064 35.728 10.823 35.7283L14.2717 35.7278L14.2721 37.8791C14.2721 39.0668 15.1983 40.0296 16.3411 40.0299L46.1171 40.0289C47.2602 40.0289 48.1868 39.0656 48.1865 37.8776L48.1861 37.8781ZM10.8235 34.2929C10.6403 34.2932 10.4648 34.2177 10.3355 34.0832C10.206 33.9486 10.1333 33.7661 10.1336 33.5757L10.1345 29.9193C11.7427 29.5804 12.8986 28.1109 12.8986 26.4052C12.8983 24.6992 11.7422 23.23 10.134 22.8916L10.1336 19.2356C10.1336 18.8395 10.4422 18.5187 10.8232 18.5187L40.5993 18.5187C40.7824 18.5184 40.9579 18.5939 41.0875 18.7286C41.217 18.8633 41.2896 19.0457 41.2894 19.2361L41.2894 21.3869L16.3408 21.3874C15.1985 21.3876 14.2724 22.3504 14.2721 23.5379L14.2717 28.557H14.9613C16.1041 28.5567 17.0307 29.52 17.0305 30.708C17.0307 31.896 16.1041 32.8593 14.9613 32.859L14.2712 32.8586L14.2717 34.2929L10.8235 34.2929ZM46.1167 38.5955L16.3411 38.595C15.9601 38.595 15.6512 38.2739 15.6514 37.8781L15.6514 34.2216C17.2577 33.8807 18.4109 32.4115 18.4102 30.7075C18.4076 29.005 17.2555 27.5385 15.6514 27.1954L15.6514 23.5379C15.6512 23.1421 15.96 22.821 16.3411 22.821L46.1167 22.8205C46.2995 22.8205 46.4755 22.896 46.6048 23.0304C46.7344 23.1651 46.8068 23.3478 46.8068 23.5379L46.8096 27.1914C45.2025 27.5308 44.0477 28.9996 44.0475 30.7045C44.0475 32.4092 45.2022 33.8785 46.8092 34.2181L46.8092 37.8766C46.8092 38.2722 46.5003 38.5933 46.1195 38.5935L46.1167 38.5955Z" fill="#333333"/>
</svg>
