<svg width="58" height="58" viewBox="0 0 58 58" fill="none" xmlns="http://www.w3.org/2000/svg">
<path d="M53.1284 11.8566L29.9134 0.13177C29.7563 0.0482815 29.5773 0.000816598 29.3872 2.36283e-05L29.3857 0L29.3828 2.36283e-05H29.3631C29.173 0.000703316 28.994 0.0482815 28.8369 0.13177L5.62214 11.8566C5.24061 12.0493 5 12.4404 5 12.8678V34.0848C5 38.2201 6.24394 41.7157 8.80286 44.771C11.172 47.5997 14.366 49.6638 17.178 51.3098C22.9026 54.661 28.6235 57.7527 28.8248 57.8615L28.8299 57.8643C28.9951 57.9534 29.1799 58 29.3676 58H29.3829C29.5706 58 29.7554 57.9533 29.9207 57.8643L29.9216 57.8638C30.0227 57.8091 35.7957 54.6916 41.5726 51.3098C42.1126 50.9937 42.2939 50.2998 41.9779 49.7599C41.6619 49.2199 40.9682 49.0384 40.428 49.3546C35.6795 52.1344 30.9324 54.7353 29.3752 55.5827C27.8184 54.7354 23.0721 52.1351 18.3225 49.3547C12.9729 46.2231 7.26563 42.2024 7.26563 34.0849V13.5648L29.3752 2.39808L51.4849 13.5648V34.0849C51.4849 38.2505 50.0876 41.5701 47.0877 44.532C46.6423 44.9715 46.6378 45.6887 47.0773 46.134C47.5169 46.5793 48.2343 46.5837 48.6794 46.1443C52.0917 42.7753 53.7506 38.8306 53.7506 34.0849V12.8679C53.7505 12.4404 53.5099 12.0494 53.1284 11.8566Z" fill="#333333"/>
<path fill-rule="evenodd" clip-rule="evenodd" d="M49.2193 15.6553C49.2193 15.2279 48.9787 14.8369 48.5971 14.6442L29.8859 5.1939C29.5648 5.03168 29.1856 5.03168 28.8645 5.1939L10.1534 14.6441C9.77186 14.8368 9.53125 15.2278 9.53125 15.6552V34.0846C9.53125 37.079 10.4214 39.6094 12.2526 41.8203C13.7803 43.6648 15.938 45.3332 19.4672 47.3991C22.9895 49.4611 26.5024 51.4202 28.8292 52.7005C28.9992 52.7941 29.1873 52.8408 29.3753 52.8408C29.5634 52.8408 29.7514 52.7941 29.9214 52.7005C32.248 51.4202 35.7609 49.4612 39.2836 47.3991C42.8126 45.3332 44.9702 43.6648 46.498 41.8203C48.3292 39.6092 49.2194 37.079 49.2194 34.0846L49.2193 15.6553ZM46.9536 34.0846C46.9536 39.2959 43.8556 42.0973 38.1389 45.4439C34.9031 47.3381 31.6733 49.1459 29.3752 50.4146C27.077 49.1459 23.8471 47.338 20.6116 45.444C14.8948 42.0975 11.7969 39.296 11.7969 34.0847V16.3522L29.3752 7.47426L46.9536 16.3522V34.0846Z" fill="#333333"/>
<path d="M44.6351 46.8857C44.9342 46.8857 45.2253 47.0069 45.4359 47.2176C45.6477 47.4283 45.7689 47.7206 45.7689 48.0185C45.7689 48.3165 45.6477 48.6087 45.4359 48.8194C45.2253 49.0301 44.9342 49.1513 44.6351 49.1513C44.3372 49.1513 44.046 49.0301 43.8342 48.8194C43.6235 48.6087 43.5034 48.3165 43.5034 48.0185C43.5034 47.7206 43.6235 47.4283 43.8342 47.2176C44.046 47.0069 44.3372 46.8857 44.6351 46.8857Z" fill="#333333"/>
<path fill-rule="evenodd" clip-rule="evenodd" d="M34.5928 28.8781L33.0726 28.5449C32.7478 28.4737 32.4917 28.232 32.3895 27.9248C33.7569 26.9861 34.656 25.4102 34.656 23.6274V20.2062C34.656 17.3355 32.3258 15 29.4615 15C26.5972 15 24.2669 17.3355 24.2669 20.2062V23.6274C24.2669 25.4028 25.1588 26.9727 26.5165 27.9128C26.4179 28.2245 26.1592 28.4733 25.8293 28.5458L24.3265 28.8763C23.1046 29.1449 21.9999 29.8308 21.2159 30.8077C20.4319 31.7846 20 33.013 20 34.2668V37.0703C20 37.5838 20.4154 38 20.9276 38H37.9953C38.5076 38 38.9229 37.5838 38.9229 37.0703V34.2694C38.9229 31.6953 37.1018 29.4279 34.5928 28.8781ZM26.1221 20.2062C26.1221 18.3607 27.6201 16.8594 29.4615 16.8594C30.8882 16.8594 32.1081 17.761 32.5855 19.0253L32.5211 19.0899C31.3069 20.3068 29.6925 20.977 27.9754 20.977H26.1221V20.2062ZM26.1221 23.6274V22.8363H27.9754C29.7316 22.8363 31.4032 22.2905 32.8008 21.2821V23.6274C32.8008 25.4729 31.3028 26.9742 29.4615 26.9742C27.6201 26.9742 26.1221 25.4729 26.1221 23.6274ZM31.3909 29.6872C30.2278 30.4829 28.6809 30.4801 27.5204 29.679C27.8183 29.4008 28.0552 29.0597 28.2101 28.6799C28.6111 28.7798 29.03 28.8336 29.4615 28.8336C29.886 28.8336 30.2984 28.7811 30.6936 28.6844C30.8502 29.0662 31.0897 29.4087 31.3909 29.6872ZM21.8552 36.1406V34.2667C21.8552 32.561 23.0617 31.0578 24.724 30.6924L25.6406 30.4909C25.6672 30.5267 25.6957 30.5615 25.7281 30.5939C26.7574 31.6255 28.1095 32.1414 29.4616 32.1414C30.8136 32.1414 32.1657 31.6256 33.195 30.5939C33.2266 30.5623 33.2544 30.5285 33.2804 30.4937L34.1966 30.6945C35.8603 31.0591 37.0678 32.5625 37.0678 34.2694V36.1406H21.8552Z" fill="#D33234"/>
</svg>
