<svg width="58" height="59" viewBox="0 0 58 59" fill="none" xmlns="http://www.w3.org/2000/svg">
<path fill-rule="evenodd" clip-rule="evenodd" d="M6.9855 4.67515L5.5 0.660645L4.0145 4.67515L0 6.16064L4.0145 7.64614L5.5 11.6606L6.9855 7.64614L11 6.16064L6.9855 4.67515ZM5.00764 6.65301L3.67704 6.16064L5.00764 5.66828L5.5 4.33769L5.99236 5.66828L7.32296 6.16064L5.99236 6.65301L5.5 7.9836L5.00764 6.65301Z" fill="#D33234"/>
<path d="M23.1233 12.1849C24.918 11.175 26.9612 10.6411 29.032 10.6411C35.6842 10.6411 41.0961 16.0529 41.0961 22.7051C41.0961 29.3572 35.6844 34.7691 29.0322 34.7691C22.3801 34.7691 16.9683 29.3571 16.9683 22.7051C16.9683 20.9633 17.3316 19.2824 18.0484 17.709C18.2675 17.228 18.8351 17.0156 19.3161 17.2348C19.7972 17.4538 20.0094 18.0216 19.7904 18.5026C19.1878 19.8251 18.8824 21.2391 18.8824 22.7051C18.8824 28.3017 23.4354 32.8548 29.032 32.8548C34.6287 32.8548 39.1818 28.3016 39.1818 22.7051C39.1818 17.1085 34.6286 12.5554 29.032 12.5554C27.2895 12.5554 25.5708 13.0042 24.0621 13.8531C23.6015 14.1124 23.0179 13.949 22.7586 13.4884C22.4992 13.0278 22.6627 12.4441 23.1233 12.1849Z" fill="#D33234"/>
<path d="M20.2056 14.4812C20.5666 14.0954 21.1725 14.0754 21.5583 14.4366C21.9443 14.7978 21.9642 15.4035 21.603 15.7894L21.5845 15.8092C21.3961 16.0105 21.1411 16.1122 20.8856 16.1122C20.6511 16.1122 20.4163 16.0267 20.2317 15.8538C19.8458 15.4925 19.8259 14.8868 20.1871 14.501L20.2056 14.4812Z" fill="#D33234"/>
<path fill-rule="evenodd" clip-rule="evenodd" d="M52.5 36.6606L53.9855 40.6751L58 42.1606L53.9855 43.6461L52.5 47.6606L51.0145 43.6461L47 42.1606L51.0145 40.6751L52.5 36.6606ZM50.677 42.1606L52.0076 42.653L52.5 43.9836L52.9924 42.653L54.323 42.1606L52.9924 41.6683L52.5 40.3377L52.0076 41.6683L50.677 42.1606Z" fill="#D33234"/>
<path d="M35.8382 21.0847C35.7254 20.7382 35.4259 20.4858 35.0654 20.4334L31.4887 19.9147L29.8883 16.6743C29.727 16.3477 29.3945 16.1409 29.0301 16.1409C28.6659 16.141 28.3328 16.348 28.1717 16.6748L26.573 19.9162L22.9967 20.4368C22.6362 20.4892 22.3366 20.7419 22.2242 21.0884C22.1117 21.435 22.2057 21.8153 22.4666 22.0695L25.0553 24.5913L24.4454 28.1535C24.3838 28.5125 24.5315 28.8755 24.8263 29.0895C24.993 29.2106 25.1904 29.2722 25.3888 29.2722C25.5413 29.2722 25.6942 29.2358 25.8343 29.1621L29.0327 27.4795L32.2322 29.1605C32.5547 29.33 32.9455 29.3017 33.2401 29.0874C33.5348 28.8732 33.6823 28.5102 33.6206 28.1512L33.0087 24.5892L35.5959 22.0658C35.8571 21.8116 35.9508 21.4311 35.8382 21.0847ZM31.3123 23.5702C31.0869 23.7901 30.9839 24.107 31.0373 24.4175L31.4061 26.5641L29.4779 25.5511C29.1991 25.4045 28.866 25.4047 28.587 25.5513L26.6596 26.5652L27.0271 24.4185C27.0803 24.1081 26.9772 23.7913 26.7516 23.5714L25.1917 22.0517L27.347 21.7379C27.6587 21.6925 27.9282 21.4966 28.0675 21.2141L29.0309 19.2608L29.9953 21.2135C30.1347 21.4959 30.4042 21.6916 30.716 21.7369L32.8716 22.0495L31.3123 23.5702Z" fill="#333333"/>
<path d="M46.7229 22.1905C47.2836 21.279 47.1427 20.1179 46.3804 19.3669L44.2572 17.2753C44.1801 17.1994 44.1404 17.094 44.1481 16.986L44.3606 14.0007C44.437 12.9282 43.7713 11.9625 42.7419 11.6522L39.91 10.7985C39.8058 10.767 39.7211 10.6917 39.6777 10.5918L38.4939 7.86061C38.0702 6.88329 37.0044 6.32305 35.959 6.52804L33.0688 7.09528C32.9614 7.11643 32.8508 7.08905 32.7657 7.02024L30.4667 5.16418C29.6353 4.49282 28.4287 4.49282 27.5975 5.16408L25.2985 7.02024C25.2133 7.08905 25.1027 7.11623 24.9954 7.09528L22.105 6.52795C21.06 6.32276 19.9939 6.88329 19.5702 7.86042L18.386 10.5919C18.3426 10.6918 18.258 10.7671 18.1537 10.7986L15.3222 11.6523C14.2929 11.9626 13.6273 12.9282 13.7037 14.0006L13.9163 16.986C13.9239 17.094 13.8842 17.1993 13.8071 17.2753L11.6839 19.3668C10.9215 20.1179 10.7806 21.279 11.3415 22.1905L12.9083 24.7365C12.965 24.8285 12.9784 24.9403 12.9454 25.0432L12.0289 27.8933C11.7008 28.9138 12.1154 30.0086 13.0371 30.556L15.5898 32.0715C15.6833 32.1269 15.7473 32.2201 15.7655 32.3271L16.2675 35.2712C16.4488 36.3345 17.3278 37.1147 18.4052 37.1681L21.3508 37.3144C21.46 37.3199 21.5604 37.3729 21.6266 37.4599L22.3324 38.3885V55.7034C22.3324 56.0683 22.5398 56.4015 22.8674 56.5625C23.1949 56.7233 23.5853 56.6841 23.8743 56.4613L29.0322 52.4822L34.1903 56.4614C34.3611 56.5931 34.5673 56.6606 34.7751 56.6606C34.9188 56.6606 35.0633 56.6283 35.1971 56.5625C35.5246 56.4016 35.732 56.0685 35.732 55.7035V52.1132L38.0187 53.8773C38.1895 54.009 38.3957 54.0766 38.6035 54.0766C38.7472 54.0766 38.8917 54.0442 39.0255 53.9785C39.353 53.8175 39.5604 53.4844 39.5604 53.1194V37.1732L39.6591 37.1683C40.7365 37.1148 41.6156 36.3347 41.7968 35.2714L42.2988 32.3271C42.3169 32.2202 42.3809 32.1271 42.4743 32.0717L45.0271 30.5562C45.9488 30.0088 46.3634 28.914 46.0352 27.8935L45.1189 25.0434C45.0858 24.9405 45.0992 24.8288 45.1559 24.7367L46.7229 22.1905ZM33.8177 53.7564L29.9892 50.8029V47.1952C29.9892 46.6666 29.5607 46.2381 29.0321 46.2381C28.5035 46.2381 28.075 46.6666 28.075 47.1952V50.8029L24.2465 53.7564V40.4923C24.5579 40.6416 24.9006 40.7199 25.2465 40.7199C25.5709 40.7199 25.8982 40.6511 26.2049 40.508L28.8758 39.2608C28.9752 39.2143 29.0892 39.2145 29.1884 39.2608L31.8591 40.5079C32.4932 40.804 33.2139 40.78 33.8177 40.4903V53.7564ZM37.6463 51.1722L35.732 49.6955V38.3883L36.4374 37.4601C36.5036 37.3731 36.604 37.3201 36.7132 37.3146L37.6463 37.2683V51.1722ZM45.0925 21.1873L43.5259 23.7333C43.1759 24.3022 43.0923 24.9932 43.2968 25.6292L44.2131 28.4792C44.2662 28.6443 44.1992 28.8214 44.05 28.9099L41.4972 30.4255C40.9202 30.7681 40.5246 31.3441 40.412 32.0054L39.91 34.9494C39.8806 35.1214 39.7385 35.2475 39.5643 35.2562L36.6183 35.4026C35.9435 35.4362 35.3221 35.7638 34.9134 36.3017L33.1196 38.662C33.0151 38.7997 32.8257 38.8464 32.6693 38.7732L29.9984 37.526C29.3843 37.2395 28.6802 37.2395 28.0661 37.526L25.3951 38.7733C25.2387 38.8465 25.0494 38.7995 24.9448 38.6622L24.193 37.6729C24.1257 37.4793 23.9987 37.314 23.8331 37.1994L23.1508 36.3015C22.742 35.7637 22.1206 35.4361 21.4459 35.4025L18.5002 35.2561C18.3261 35.2474 18.1839 35.1213 18.1546 34.9493L17.6528 32.0055C17.5401 31.344 17.1444 30.7681 16.5674 30.4253L14.0144 28.91C13.8652 28.8214 13.7983 28.6444 13.8513 28.4793L14.7678 25.6292C14.9722 24.9932 14.8887 24.3022 14.5386 23.7334L12.9719 21.1874C12.8812 21.0399 12.904 20.852 13.0273 20.7306L15.1504 18.6391C15.627 18.1697 15.8733 17.5175 15.8257 16.85L15.6132 13.8647C15.6008 13.6912 15.7085 13.5351 15.8749 13.4849L18.7064 12.6312C19.3511 12.4369 19.8745 11.971 20.1423 11.3532L21.3265 8.62193C21.3856 8.48565 21.5219 8.39952 21.6666 8.39952C21.6898 8.39952 21.7132 8.40172 21.7366 8.40631L24.6269 8.97364C25.2919 9.10399 25.9743 8.93479 26.5012 8.50958L28.8002 6.65332C28.9345 6.54489 29.1296 6.54469 29.2642 6.65341L31.5633 8.50958C32.0901 8.93479 32.7734 9.1037 33.4375 8.97364L36.3278 8.40641C36.4967 8.3731 36.6691 8.46383 36.7377 8.62193L37.9216 11.3531C38.1894 11.9711 38.713 12.437 39.3576 12.6312L42.1895 13.4849C42.3559 13.5351 42.4636 13.6913 42.4512 13.8647L42.2387 16.8499C42.1911 17.5175 42.4372 18.1695 42.914 18.639L45.0371 20.7305C45.1604 20.852 45.1833 21.0399 45.0925 21.1873Z" fill="#333333"/>
<path d="M29.7086 41.7369C29.5307 41.5588 29.2838 41.4565 29.032 41.4565C28.7803 41.4565 28.5333 41.5588 28.3553 41.7369C28.1773 41.915 28.0749 42.1618 28.0749 42.4136C28.0749 42.6654 28.1772 42.9123 28.3553 43.0902C28.5333 43.2682 28.7802 43.3707 29.032 43.3707C29.2837 43.3707 29.5306 43.2683 29.7086 43.0902C29.8866 42.9123 29.9891 42.6654 29.9891 42.4136C29.9891 42.1618 29.8867 41.9149 29.7086 41.7369Z" fill="#333333"/>
</svg>
