<svg xmlns="http://www.w3.org/2000/svg">
	<symbol viewBox="0 0 32 32" id="icon-verygood">
		<path d="M11.5056 11.0571C10.8129 11.6646 9.9234 11.9995 9.00018 11.9995C8.0766 11.9995 7.18817 11.6661 6.4986 11.0609L5.935 10.5663L4.94531 11.6935L5.50891 12.1881C6.47223 13.0337 7.71204 13.4995 9.00018 13.4995C10.288 13.4995 11.5289 13.0322 12.4948 12.1844L13.0583 11.6897L12.0688 10.5625L11.5056 11.0571Z"/>
		<path d="M9 0C4.03729 0 0 4.03729 0 9C0 13.9627 4.03729 18 9 18C13.9627 18 18 13.9627 18 9C18 4.03729 13.9627 0 9 0ZM9 16.5C4.86456 16.5 1.5 13.1354 1.5 9C1.5 4.86456 4.86456 1.5 9 1.5C13.1354 1.5 16.5 4.86456 16.5 9C16.5 13.1354 13.1354 16.5 9 16.5Z"/>
		<path d="M5.25 6.75H6.75V8.25H5.25V6.75Z"/>
		<path d="M11.25 6.75H12.75V8.25H11.25V6.75Z"/>
	</symbol>
	<symbol viewBox="0 0 32 32" id="icon-good">
		<path d="M5.25 11.25H12.75V12.75H5.25V11.25Z"/>
		<path d="M9 0C4.03729 0 0 4.03729 0 9C0 13.9627 4.03729 18 9 18C13.9627 18 18 13.9627 18 9C18 4.03729 13.9627 0 9 0ZM9 16.5C4.86456 16.5 1.5 13.1354 1.5 9C1.5 4.86456 4.86456 1.5 9 1.5C13.1354 1.5 16.5 4.86456 16.5 9C16.5 13.1354 13.1354 16.5 9 16.5Z"/>
		<path d="M5.25 6.75H6.75V8.25H5.25V6.75Z"/>
		<path d="M11.25 6.75H12.75V8.25H11.25V6.75Z"/>
	</symbol>
	<symbol viewBox="0 0 32 32" id="icon-poor">
		<path d="M9.86719 4.83575L10.5381 3.49414L13.3795 4.91504L12.7088 6.25665L9.86719 4.83575Z"/>
		<path d="M4.62109 4.91486L7.46289 3.49414L8.13379 4.83575L5.29199 6.25665L4.62109 4.91486Z"/>
		<path d="M9 0C4.03729 0 0 4.03729 0 9C0 9.69452 0.079834 10.3834 0.236939 11.0453C0.264771 11.1652 0.296997 11.2894 0.328857 11.4093C0.42334 11.7649 0.546387 12.1185 0.705322 12.4942C0.753296 12.6064 0.805115 12.7185 0.861694 12.8392L0.895569 12.9097C0.936401 12.9955 0.977966 13.0823 1.02191 13.1669C1.06348 13.2469 1.10706 13.325 1.15118 13.4041L1.20264 13.4963C2.00812 14.8947 3.18219 16.0549 4.62781 16.8671C4.71368 16.9136 4.79956 16.9601 4.88928 17.0067L5.18958 17.1533C5.24542 17.181 5.30182 17.2081 5.32544 17.2167C5.41992 17.2597 5.51917 17.3029 5.61072 17.3384C5.84106 17.4315 6.07764 17.517 6.31384 17.5931L6.35925 17.6071C6.46912 17.64 6.57678 17.6719 6.68665 17.6984C6.74744 17.7158 6.81152 17.7308 6.88275 17.7473C6.98895 17.775 7.10028 17.8021 7.17188 17.8136C7.29071 17.8403 7.40955 17.8619 7.50421 17.8759C7.59869 17.8931 7.69794 17.9062 7.76733 17.9149C7.80487 17.9213 7.84277 17.9266 7.88251 17.9299C7.96802 17.9434 8.05133 17.952 8.13629 17.9603C8.26831 17.9722 8.39996 17.9806 8.53455 17.9885C8.68726 17.9958 8.84363 18 9 18C9.15637 18 9.31274 17.9958 9.46802 17.9872C9.60004 17.9793 9.73169 17.9714 9.86627 17.9592C9.9483 17.9513 10.0305 17.9431 10.1157 17.9291C10.1528 17.9266 10.183 17.922 10.2026 17.9187C10.3021 17.9059 10.4009 17.8927 10.4711 17.8797C10.5901 17.8619 10.7089 17.84 10.7937 17.82C10.8997 17.8017 11.0107 17.7746 11.1284 17.7446C11.1896 17.7303 11.2526 17.7155 11.313 17.6981C11.4232 17.6715 11.5323 17.6389 11.6744 17.5961C11.9187 17.5219 12.1628 17.4333 12.3814 17.3412C12.4808 17.3026 12.5797 17.2593 12.642 17.23C12.6978 17.2077 12.7542 17.1806 12.7853 17.1649L13.1193 17.0017C13.2056 16.9567 13.2903 16.9111 13.402 16.8499C14.8174 16.0541 15.9915 14.8942 16.8034 13.4846L16.8488 13.4037C16.8929 13.325 16.9365 13.2469 16.9781 13.1666C17.022 13.0818 17.0636 12.9948 17.1044 12.9093L17.1423 12.8302C17.1945 12.7181 17.2463 12.6061 17.2958 12.4913C17.4536 12.1185 17.5763 11.7645 17.6708 11.4093C17.7026 11.2894 17.7349 11.1652 17.762 11.0482C17.9202 10.3834 18 9.69452 18 9C18 4.03729 13.9627 0 9 0V0ZM16.3021 10.7047C16.2777 10.8094 16.2495 10.9177 16.2213 11.0231C16.145 11.3097 16.0444 11.5988 15.9157 11.9033C15.8738 12.0015 15.828 12.0991 15.7868 12.1886L15.7507 12.264C15.717 12.3345 15.6828 12.4061 15.6469 12.4759C15.6127 12.5418 15.5768 12.6057 15.5403 12.6705L15.4977 12.7471C14.8264 13.9122 13.8475 14.8788 12.6573 15.5479C12.5782 15.5911 12.4984 15.6341 12.4155 15.6773L12.1421 15.8101C12.123 15.8194 12.1042 15.8298 12.0529 15.8513C11.9828 15.8831 11.9092 15.915 11.8178 15.9514C11.6279 16.0312 11.4329 16.1017 11.2068 16.1708C11.1215 16.1962 11.0385 16.222 10.9526 16.242L10.9098 16.2532C10.8701 16.2653 10.8281 16.2746 10.788 16.2839L10.738 16.296C10.6718 16.3132 10.6027 16.3312 10.5022 16.3497C10.4187 16.368 10.335 16.3837 10.227 16.4002C10.1636 16.4119 10.0975 16.4205 10.0051 16.4328L9.9007 16.4449C9.84009 16.4561 9.78223 16.4606 9.72675 16.4659C9.61084 16.4764 9.4953 16.4835 9.38251 16.4899C9.13239 16.5037 8.86578 16.5037 8.62079 16.4899C8.50507 16.4832 8.38953 16.476 8.27655 16.4659C8.21851 16.4603 8.16046 16.4557 8.10004 16.4445L7.99695 16.4324C7.99695 16.4324 7.99493 16.4321 7.99054 16.4313C7.9173 16.422 7.84387 16.4127 7.74939 16.3958C7.66571 16.3834 7.58221 16.3676 7.46429 16.3425C7.39801 16.3308 7.32898 16.3129 7.2627 16.2957L7.21271 16.2836C7.17261 16.2742 7.13068 16.2649 7.09094 16.2528L7.0481 16.2416C6.96222 16.2217 6.87909 16.1959 6.77435 16.1644C6.57037 16.0988 6.36969 16.0259 6.16498 15.9435C6.09192 15.9146 6.01831 15.8828 5.91595 15.837C5.89691 15.8291 5.87769 15.819 5.83392 15.7976L5.58527 15.6766C5.50232 15.6334 5.42285 15.5903 5.33368 15.5422C4.15356 14.8784 3.17468 13.9118 2.50946 12.7575L2.46075 12.6702C2.42432 12.6052 2.38843 12.5414 2.35419 12.4755C2.31793 12.4058 2.28369 12.3342 2.25037 12.2637L2.21887 12.1972C2.1731 12.0991 2.12769 12.0015 2.08685 11.9059C1.95667 11.5988 1.85632 11.3097 1.77979 11.0231C1.75159 10.9182 1.72394 10.8098 1.6983 10.7018C1.56628 10.1505 1.5 9.57788 1.5 9C1.5 4.86456 4.86456 1.5 9 1.5C13.1354 1.5 16.5 4.86456 16.5 9C16.5 9.57788 16.4337 10.1505 16.3021 10.7047Z"/>
		<path d="M9 6C6.51855 6 4.5 8.01855 4.5 10.5C4.5 11.3243 4.72614 12.1313 5.15204 12.8309C5.96246 14.1691 7.43701 15 9 15C10.5626 15 12.0368 14.1694 12.847 12.8317C13.2742 12.1306 13.5 11.3243 13.5 10.5C13.5 8.01855 11.4814 6 9 6ZM9 13.5C8.19708 13.5 7.45203 13.1873 6.89886 12.6401C7.51941 12.2269 8.24963 12 9.00366 12C9.75787 12 10.4865 12.2254 11.1044 12.6363C10.5515 13.1854 9.80511 13.5 9 13.5ZM11.8744 11.3491C11.0246 10.8003 10.0309 10.5 9.00366 10.5C7.97589 10.5 6.9798 10.8023 6.12708 11.3538C6.04504 11.0782 6 10.7913 6 10.5C6 8.84583 7.34583 7.5 9 7.5C10.6542 7.5 12 8.84583 12 10.5C12 10.7895 11.9557 11.075 11.8744 11.3491Z"/>
	</symbol>
	<symbol viewBox="0 0 32 32" id="icon-satisfactory">
		<path d="M9.00348 10.4961C7.71588 10.4961 6.47498 10.9632 5.50891 11.8112L4.94531 12.3057L5.935 13.4329L6.4986 12.9384C7.19073 12.3308 8.08063 11.9961 9.00403 11.9961C9.92798 11.9961 10.8159 12.3293 11.5056 12.9347L12.0692 13.4293L13.0589 12.3024L12.4951 11.8073C11.5314 10.9617 10.2916 10.4961 9.00348 10.4961Z"/>
		<path d="M9 0C4.03729 0 0 4.03729 0 9C0 13.9627 4.03729 18 9 18C13.9623 18 18 13.9627 18 9C18 4.03729 13.9623 0 9 0ZM9 16.5C4.86456 16.5 1.5 13.1354 1.5 9C1.5 4.86456 4.86456 1.5 9 1.5C13.1354 1.5 16.5 4.86456 16.5 9C16.5 13.1354 13.1354 16.5 9 16.5Z"/>
		<path d="M5.25 6.75H6.75V8.25H5.25V6.75Z"/>
		<path d="M11.25 6.75H12.75V8.25H11.25V6.75Z"/>
	</symbol>
	<symbol viewBox="0 0 32 32" id="icon-exsellent">
		<path d="M6.4986 11.8109L5.935 11.3163L4.94531 12.4435L5.50891 12.9381C6.47223 13.7837 7.71204 14.2495 9.00018 14.2495C10.288 14.2495 11.5289 13.7822 12.4948 12.9344L13.0583 12.4397L12.0688 11.3125L11.5052 11.8071C10.8133 12.4146 9.9234 12.7495 9.00018 12.7495C8.0766 12.7495 7.18817 12.4161 6.4986 11.8109V11.8109Z"/>
		<path d="M9 0C6.42828 0 4.00507 1.09058 2.29266 3H0V9.75C0.0368042 10.1887 0.136963 10.623 0.236938 11.0453C0.264771 11.1652 0.296997 11.2894 0.328857 11.4093C0.42334 11.7649 0.546387 12.1185 0.705322 12.4942C0.753296 12.6064 0.805115 12.7185 0.861694 12.8392L0.895569 12.9097C0.936401 12.9955 0.977966 13.0823 1.02191 13.1669C1.06348 13.2469 1.10706 13.325 1.15118 13.4041L1.20264 13.4963C2.00812 14.8947 3.18219 16.0549 4.62781 16.8671C4.71368 16.9136 4.79956 16.9601 4.88928 17.0067L5.18958 17.1533C5.24542 17.181 5.30182 17.2081 5.32544 17.2167C5.41992 17.2597 5.51917 17.3029 5.61072 17.3384C5.84106 17.4315 6.07764 17.517 6.31384 17.5931L6.35925 17.6071C6.46912 17.64 6.57678 17.6719 6.68665 17.6984C6.74744 17.7158 6.81152 17.7308 6.88275 17.7473C6.98895 17.775 7.10028 17.8021 7.17188 17.8136C7.29071 17.8403 7.40955 17.8619 7.50421 17.8759C7.59869 17.8931 7.69794 17.9062 7.76733 17.9149C7.80487 17.9213 7.84277 17.9266 7.88251 17.9299C7.96802 17.9434 8.05133 17.952 8.13629 17.9603C8.26831 17.9722 8.39996 17.9806 8.53455 17.9885C8.68726 17.9958 8.84363 18 9 18C9.15637 18 9.31274 17.9958 9.46802 17.9872C9.60004 17.9793 9.73169 17.9714 9.86627 17.9592C9.94867 17.9513 10.0309 17.9431 10.116 17.9291C10.1532 17.9266 10.184 17.922 10.2056 17.9183C10.3039 17.9055 10.4017 17.8923 10.4711 17.8793C10.5901 17.8616 10.7089 17.8394 10.7941 17.8196C10.9001 17.8013 11.011 17.7742 11.1297 17.7438C11.1903 17.7296 11.2529 17.7145 11.3134 17.6977C11.4236 17.6711 11.5327 17.6385 11.6748 17.5957C11.9194 17.5212 12.1635 17.4329 12.3825 17.3405C12.4812 17.3018 12.5801 17.259 12.6409 17.23C12.6978 17.2073 12.7553 17.1799 12.7844 17.1645L13.1204 17.0006C13.2004 16.959 13.2777 16.9169 13.3544 16.8754L13.403 16.8492C14.8182 16.0534 15.9919 14.8934 16.803 13.485L16.8464 13.407C16.8918 13.3264 16.9365 13.2469 16.9788 13.1647C17.0202 13.0853 17.0596 13.0034 17.0978 12.9225L17.1465 12.8209C17.1971 12.7114 17.2478 12.6022 17.2958 12.4898C17.4536 12.1163 17.5767 11.7627 17.6715 11.406C17.703 11.2872 17.7349 11.1638 17.7623 11.0468C17.8916 10.5033 17.9764 9.94208 18 9.375V3H15.7077C13.9949 1.09058 11.5717 0 9 0V0ZM9 1.5C10.6436 1.5 12.2153 2.0332 13.5029 3H4.49744C5.78467 2.0332 7.35681 1.5 9 1.5ZM16.3024 10.7036C16.2777 10.8094 16.2491 10.9189 16.2217 11.0228C16.1457 11.309 16.0448 11.5975 15.9161 11.9033C15.8749 11.9993 15.8302 12.0952 15.7879 12.1868L15.7451 12.2759C15.7128 12.3428 15.6806 12.4107 15.6465 12.4766C15.6119 12.5431 15.576 12.6079 15.5389 12.6731L15.4977 12.7471C14.8268 13.9122 13.8484 14.8788 12.6784 15.5363L12.6405 15.5568C12.5667 15.5966 12.4924 15.6368 12.4155 15.6769L12.1406 15.8104C12.1223 15.8194 12.1042 15.8295 12.0529 15.8513C11.9824 15.8831 11.9088 15.9153 11.8178 15.9514C11.6283 16.0312 11.4333 16.1017 11.2068 16.1708C11.1215 16.1962 11.0385 16.222 10.9523 16.242L10.9098 16.2532C10.8704 16.2649 10.8289 16.2742 10.7888 16.2836L10.7373 16.2957C10.6714 16.3129 10.6024 16.3308 10.5026 16.3489C10.4187 16.3676 10.3354 16.383 10.227 16.3995C10.1576 16.4123 10.0849 16.4213 10.0129 16.4306L9.9007 16.4445C9.84009 16.4557 9.78223 16.4603 9.72675 16.4656C9.61084 16.476 9.4953 16.4832 9.38251 16.4896C9.13202 16.5033 8.86542 16.5033 8.62079 16.4896C8.50507 16.4828 8.38953 16.4756 8.27655 16.4656C8.21851 16.4599 8.16046 16.4553 8.10004 16.4442L7.99695 16.4321C7.99695 16.4321 7.99493 16.4317 7.99054 16.431C7.9173 16.4216 7.84387 16.4123 7.74939 16.3954C7.66571 16.383 7.58221 16.3672 7.46429 16.3422C7.39801 16.3304 7.32898 16.3125 7.2627 16.2953L7.21271 16.2832C7.17261 16.2739 7.13068 16.2645 7.09094 16.2524L7.0481 16.2413C6.96222 16.2213 6.87909 16.1955 6.77435 16.164C6.57037 16.0984 6.36969 16.0256 6.16498 15.9432C6.09192 15.9142 6.01831 15.8824 5.91595 15.8366C5.89691 15.8287 5.87769 15.8187 5.83392 15.7972L5.58527 15.6762C5.50232 15.633 5.42285 15.59 5.33368 15.5418C4.15356 14.8781 3.17468 13.9114 2.50946 12.7571L2.46075 12.6698C2.42432 12.6048 2.38843 12.5411 2.35419 12.4752C2.31793 12.4054 2.28369 12.3338 2.25037 12.2633L2.21887 12.1968C2.1731 12.0987 2.12769 12.0011 2.08685 11.9055C1.95667 11.5984 1.85632 11.3093 1.77979 11.0228C1.75159 10.9177 1.72394 10.8094 1.6983 10.7014C1.63165 10.4198 1.5813 10.1321 1.54871 9.84155L8.25 10.5881V7.875H9.75V10.6353L16.4824 9.51306C16.455 9.91608 16.3947 10.3147 16.3024 10.7036V10.7036ZM16.5 7.875L16.4896 7.98871L11.25 8.86469V6.375H6.75V8.91193L1.5 8.32947V4.5H16.5V7.875Z"/>
	</symbol>
</svg>

