<svg width="59" height="59" viewBox="0 0 59 59" fill="none" xmlns="http://www.w3.org/2000/svg">
<path d="M6.00244 1.6273C6.00244 1.09343 6.43523 0.660645 6.9691 0.660645H43.6005C44.1344 0.660645 44.5672 1.09343 44.5672 1.6273V16.2533C44.5672 16.7871 44.1344 17.2199 43.6005 17.2199C43.0666 17.2199 42.6339 16.7871 42.6339 16.2533V2.59396H7.93576V48.195H33.8321C34.366 48.195 34.7988 48.6278 34.7988 49.1617C34.7988 49.6956 34.366 50.1284 33.8321 50.1284H6.9691C6.43523 50.1284 6.00244 49.6956 6.00244 49.1617V1.6273Z" fill="#333333"/>
<path fill-rule="evenodd" clip-rule="evenodd" d="M36.5287 41.291C32.8853 39.2461 30.4233 35.3504 30.4233 30.8793C30.4233 24.2855 35.7779 18.9431 42.3794 18.9431C48.9809 18.9431 54.3355 24.2855 54.3355 30.8793C54.3355 35.3503 51.8736 39.246 48.2304 41.2909V57.694C48.2304 58.06 48.0237 58.3946 47.6964 58.5584C47.3691 58.7222 46.9774 58.6872 46.6844 58.4678L42.3795 55.245L38.0746 58.4678C37.7816 58.6872 37.3899 58.7222 37.0626 58.5584C36.7354 58.3946 36.5287 58.06 36.5287 57.694V41.291ZM32.3566 30.8793C32.3566 25.3565 36.8423 20.8765 42.3794 20.8765C47.9165 20.8765 52.4022 25.3565 52.4022 30.8793C52.4022 34.796 50.146 38.1883 46.8588 39.8301L46.8453 39.8364L46.8374 39.8402C46.8285 39.8446 46.8197 39.8491 46.8109 39.8538C45.4749 40.5121 43.9705 40.8821 42.3794 40.8821C40.7893 40.8821 39.2859 40.5126 37.9506 39.8551C37.9332 39.8458 37.9156 39.8371 37.8976 39.8288C34.6117 38.1866 32.3566 34.7951 32.3566 30.8793ZM38.462 42.1599V55.7628L41.8002 53.2637C42.1436 53.0066 42.6154 53.0066 42.9588 53.2637L46.297 55.7628V42.1598C45.0696 42.5846 43.7514 42.8154 42.3794 42.8154C41.0074 42.8154 39.6893 42.5847 38.462 42.1599Z" fill="#333333"/>
<path d="M13.7371 7.41593C13.2033 7.41593 12.7705 7.84872 12.7705 8.38259C12.7705 8.91646 13.2033 9.34925 13.7371 9.34925H36.0548C36.5886 9.34925 37.0214 8.91646 37.0214 8.38259C37.0214 7.84872 36.5886 7.41593 36.0548 7.41593H13.7371Z" fill="#333333"/>
<path d="M12.7705 13.7577C12.7705 13.2239 13.2033 12.7911 13.7371 12.7911H36.0548C36.5886 12.7911 37.0214 13.2239 37.0214 13.7577C37.0214 14.2916 36.5886 14.7244 36.0548 14.7244H13.7371C13.2033 14.7244 12.7705 14.2916 12.7705 13.7577Z" fill="#333333"/>
<path d="M13.7371 18.1653C13.2033 18.1653 12.7705 18.5981 12.7705 19.1319C12.7705 19.6658 13.2033 20.0986 13.7371 20.0986H29.6141C30.148 20.0986 30.5808 19.6658 30.5808 19.1319C30.5808 18.5981 30.148 18.1653 29.6141 18.1653H13.7371Z" fill="#333333"/>
<path d="M12.7705 24.5062C12.7705 23.9723 13.2033 23.5395 13.7371 23.5395H25.7198C26.2536 23.5395 26.6864 23.9723 26.6864 24.5062C26.6864 25.04 26.2536 25.4728 25.7198 25.4728H13.7371C13.2033 25.4728 12.7705 25.04 12.7705 24.5062Z" fill="#333333"/>
<path d="M13.7371 28.9137C13.2033 28.9137 12.7705 29.3465 12.7705 29.8804C12.7705 30.4142 13.2033 30.847 13.7371 30.847H25.7198C26.2536 30.847 26.6864 30.4142 26.6864 29.8804C26.6864 29.3465 26.2536 28.9137 25.7198 28.9137H13.7371Z" fill="#333333"/>
<path d="M48.0058 27.8425C48.3479 27.4327 48.2931 26.8231 47.8832 26.481C47.4734 26.1388 46.8638 26.1937 46.5217 26.6035L41.0936 33.1054L38.1783 30.1954C37.8004 29.8182 37.1884 29.8188 36.8112 30.1966C36.434 30.5745 36.4346 31.1865 36.8124 31.5637L40.4756 35.2202C40.6676 35.4118 40.9313 35.514 41.2023 35.5017C41.4733 35.4894 41.7267 35.3638 41.9005 35.1555L48.0058 27.8425Z" fill="#D33234"/>
<path d="M13.7372 39.664C13.2033 39.664 12.7705 40.0968 12.7705 40.6307C12.7705 41.1645 13.2033 41.5973 13.7372 41.5973H19.7285C20.2624 41.5973 20.6951 41.1645 20.6951 40.6307C20.6951 40.0968 20.2624 39.664 19.7285 39.664H13.7372Z" fill="#D33234"/>
</svg>
