<svg width="59" height="59" viewBox="0 0 59 59" fill="none" xmlns="http://www.w3.org/2000/svg">
<path fill-rule="evenodd" clip-rule="evenodd" d="M29.0018 0.160645C30.3665 0.160645 31.3082 1.2346 32.2411 2.29839C32.7935 2.92851 33.3411 3.55289 33.6763 3.61351C34.0194 3.6759 34.7563 3.26747 35.4888 2.86125C36.7005 2.18909 37.9056 1.52135 39.1395 1.97978C40.3871 2.44353 40.8544 3.74892 41.32 5.04988C41.5957 5.81984 41.8702 6.58714 42.1327 6.74069C42.3956 6.89424 43.2038 6.75308 44.0108 6.61237C45.3657 6.37563 46.7189 6.13933 47.7236 6.98495C48.7229 7.8266 48.7167 9.20058 48.7105 10.5746C48.707 11.3857 48.703 12.1968 48.8994 12.4291C49.0958 12.6618 49.8965 12.7964 50.6977 12.9309C52.0575 13.1597 53.4196 13.3884 54.0859 14.5235C54.7506 15.6558 54.2921 16.9475 53.8319 18.2436C53.5557 19.0211 53.2786 19.8012 53.3903 20.1008C53.502 20.3995 54.211 20.811 54.9235 21.2248C56.1312 21.9257 57.346 22.6306 57.5868 23.9541C57.8236 25.2551 56.9621 26.337 56.0931 27.4291C55.5602 28.0991 55.0223 28.7748 55.0223 29.1606C55.0223 29.547 55.5602 30.2227 56.0931 30.8926C56.9621 31.9843 57.8236 33.0662 57.5868 34.3672C57.346 35.6907 56.1312 36.396 54.9235 37.097C54.211 37.5103 53.502 37.9218 53.3903 38.2209C53.2786 38.5205 53.5557 39.3006 53.8319 40.0781C54.2921 41.3742 54.7506 42.6659 54.0859 43.7978C53.4196 44.9333 52.0575 45.1621 50.6977 45.3904C49.8965 45.5254 49.0958 45.6599 48.8994 45.8922C48.703 46.125 48.707 46.9361 48.7105 47.7472C48.7167 49.1212 48.7229 50.4951 47.7236 51.3368C46.7189 52.1824 45.3657 51.9461 44.0108 51.7094C43.2038 51.5686 42.3956 51.4275 42.1327 51.581C41.8702 51.7346 41.5957 52.5019 41.32 53.2719C40.8544 54.5728 40.3871 55.8782 39.1395 56.3419C37.9056 56.8004 36.7005 56.1322 35.4888 55.4605C34.7563 55.0543 34.0199 54.6458 33.6763 54.7082C33.3411 54.7688 32.7935 55.3932 32.2411 56.0229C31.3082 57.0867 30.3665 58.1606 29.0018 58.1606C27.6375 58.1606 26.6958 57.0867 25.7625 56.0229C25.2105 55.3928 24.663 54.7684 24.3273 54.7078C23.9842 54.6454 23.2477 55.0538 22.5148 55.46C21.3031 56.1322 20.0985 56.7999 18.8646 56.3415C17.6165 55.8778 17.1496 54.5724 16.6836 53.2714C16.4083 52.5019 16.1334 51.7341 15.8709 51.5806C15.6084 51.427 14.8002 51.5682 13.9928 51.7094C12.6379 51.9457 11.2847 52.182 10.28 51.3363C9.28065 50.4947 9.28686 49.1207 9.29307 47.7467C9.29706 46.9356 9.30061 46.1245 9.10419 45.8922C8.90778 45.6594 8.1075 45.5249 7.30588 45.3904C5.94606 45.1621 4.58403 44.9328 3.91764 43.7978C3.25347 42.6655 3.71192 41.3738 4.17214 40.0777C4.44836 39.3002 4.72502 38.5201 4.61329 38.2205C4.502 37.9218 3.79305 37.5103 3.08011 37.0965C1.87281 36.3956 0.657535 35.6907 0.417228 34.3672C0.180468 33.0662 1.04149 31.9838 1.9105 30.8922C2.44388 30.2222 2.98168 29.5465 2.98168 29.1602C2.98168 28.7743 2.44388 28.0986 1.9105 27.4287C1.04149 26.3366 0.180468 25.2551 0.417228 23.9537C0.657535 22.6302 1.87281 21.9252 3.08011 21.2243C3.79305 20.8106 4.502 20.399 4.61329 20.1004C4.72502 19.8008 4.44836 19.0206 4.17214 18.2432C3.71192 16.9471 3.25303 15.6554 3.91764 14.5235C4.58403 13.388 5.94606 13.1592 7.30588 12.9309C8.1075 12.7959 8.90778 12.6614 9.10419 12.4291C9.30061 12.1963 9.29706 11.3852 9.29307 10.5741C9.28686 9.20013 9.28065 7.82571 10.28 6.98495C11.2847 6.13933 12.6379 6.37518 13.9928 6.61192C14.8002 6.75264 15.6084 6.8938 15.8709 6.74025C16.1334 6.58714 16.4083 5.8194 16.6836 5.04944C17.1492 3.74892 17.6169 2.44308 18.8646 1.97934C20.0985 1.5209 21.3031 2.18909 22.5148 2.86081C23.2477 3.26703 23.9842 3.67546 24.3273 3.61307C24.663 3.55244 25.2105 2.92807 25.7625 2.29839C26.6958 1.2346 27.6375 0.160645 29.0018 0.160645V0.160645ZM43.0673 14.7938C42.4404 14.7938 41.9323 15.3009 41.9323 15.9267C41.9323 16.2054 42.0333 16.4608 42.2009 16.6581V16.6586L42.2005 16.6581L42.204 16.6621C42.2271 16.6891 42.2515 16.7148 42.2768 16.7391C45.3294 19.9871 47.1986 24.3559 47.1986 29.1606C47.1986 34.176 45.1622 38.7161 41.8693 42.0026C38.5764 45.2895 34.027 47.3219 29.0018 47.3219C26.8506 47.3219 24.7867 46.9493 22.8713 46.2652C22.8372 46.2511 22.8017 46.2387 22.7658 46.2276L22.7631 46.2263V46.2267C22.6589 46.1953 22.5481 46.1781 22.4337 46.1781C21.8072 46.1781 21.2987 46.6852 21.2987 47.3109C21.2987 47.8242 21.6409 48.2574 22.1096 48.3968C24.263 49.1654 26.5836 49.5845 29.0018 49.5845C34.6526 49.5845 39.7686 47.298 43.4716 43.6022C47.1751 39.906 49.4656 34.8004 49.4656 29.1606C49.4656 23.7639 47.368 18.8565 43.9429 15.2054C43.7346 14.954 43.4198 14.7938 43.0673 14.7938ZM39.6418 11.9184C39.0153 11.9184 38.5068 12.4256 38.5068 13.0513C38.5068 13.6765 39.0153 14.1841 39.6418 14.1841C40.2687 14.1841 40.7768 13.6765 40.7768 13.0513C40.7768 12.4256 40.2687 11.9184 39.6418 11.9184ZM35.9578 9.94753C33.7862 9.16429 31.4443 8.73683 29.0018 8.73683C23.351 8.73683 18.2354 11.0228 14.5319 14.7191C10.8289 18.4149 8.53801 23.5209 8.53801 29.1606C8.53801 34.5459 10.6267 39.444 14.0389 43.0929C14.2473 43.3416 14.5603 43.5 14.9106 43.5C15.5375 43.5 16.0456 42.9929 16.0456 42.3672C16.0456 42.0893 15.9454 41.8349 15.7787 41.638V41.6371L15.7743 41.6322C15.7521 41.6061 15.7286 41.5813 15.7042 41.5579C12.6653 38.3121 10.805 33.9534 10.805 29.1606C10.805 24.1453 12.8418 19.6048 16.1347 16.3187C19.4276 13.0318 23.9771 10.9994 29.0018 10.9994C31.1734 10.9994 33.2559 11.379 35.1868 12.0755H35.1873C35.3238 12.1335 35.4737 12.1654 35.6315 12.1654C36.2584 12.1654 36.7665 11.6582 36.7665 11.0325C36.7665 10.5201 36.4256 10.0874 35.9578 9.94753ZM18.3618 44.1372C17.7353 44.1372 17.2267 44.6443 17.2267 45.27C17.2267 45.8957 17.7353 46.4028 18.3618 46.4028C18.9887 46.4028 19.4968 45.8957 19.4968 45.27C19.4968 44.6443 18.9887 44.1372 18.3618 44.1372ZM22.3938 18.0272C21.0925 18.0272 19.9145 18.5534 19.0614 19.4047C18.2088 20.2561 17.6812 21.4319 17.6812 22.7306C17.6812 24.0289 18.2088 25.2051 19.0614 26.056C19.9145 26.9074 21.0925 27.434 22.3938 27.434C23.6951 27.434 24.8731 26.9074 25.7262 26.056C26.5788 25.2051 27.1064 24.0289 27.1064 22.7306C27.1064 21.4319 26.5788 20.2561 25.7262 19.4047C24.8731 18.5534 23.6951 18.0272 22.3938 18.0272ZM24.1234 21.0044C23.6809 20.5628 23.0695 20.2893 22.3938 20.2893C21.7185 20.2893 21.1067 20.5628 20.6642 21.0044C20.2217 21.446 19.9482 22.0562 19.9482 22.7306C19.9482 23.4045 20.2217 24.0152 20.6642 24.4568C21.1067 24.898 21.7185 25.1715 22.3938 25.1715C23.0695 25.1715 23.6809 24.8984 24.1234 24.4568C24.5659 24.0152 24.8394 23.4045 24.8394 22.7306C24.8394 22.0562 24.5659 21.446 24.1234 21.0044ZM34.6672 18.5396L21.4507 38.5444C21.1085 39.0643 21.253 39.7626 21.774 40.1042C22.2949 40.4458 22.9946 40.3016 23.3368 39.7816L36.5533 19.7769C36.8956 19.2569 36.751 18.5587 36.2301 18.2171C35.7091 17.8754 35.0095 18.0197 34.6672 18.5396ZM35.6102 30.8873C34.3089 30.8873 33.1305 31.4139 32.2779 32.2648C31.4253 33.1162 30.8976 34.2924 30.8976 35.5907C30.8976 36.8894 31.4253 38.0652 32.2779 38.9165C33.1309 39.7675 34.3089 40.2941 35.6102 40.2941C36.9115 40.2941 38.0896 39.7675 38.9422 38.9165C39.7952 38.0652 40.3228 36.8894 40.3228 35.5907C40.3228 34.2919 39.7952 33.1162 38.9422 32.2648C38.0896 31.4139 36.9115 30.8873 35.6102 30.8873ZM37.3394 33.8645C36.8973 33.4233 36.2855 33.1498 35.6102 33.1498C34.9345 33.1498 34.3231 33.4229 33.8806 33.8645C33.4382 34.3061 33.1642 34.9167 33.1642 35.5907C33.1642 36.2651 33.4382 36.8753 33.8806 37.3169C34.3231 37.7585 34.9345 38.0315 35.6102 38.0315C36.2855 38.0315 36.8973 37.7585 37.3394 37.3169C37.7823 36.8753 38.0559 36.2651 38.0559 35.5907C38.0559 34.9167 37.7823 34.3065 37.3394 33.8645ZM30.5412 3.78343C29.9475 3.1064 29.3485 2.42317 29.0022 2.42317C28.6555 2.42317 28.0565 3.1064 27.4629 3.78343C26.6502 4.71004 25.8441 5.62912 24.7259 5.83179C23.5909 6.03755 22.5011 5.43309 21.417 4.83173C20.6615 4.41267 19.91 3.99628 19.6529 4.09186C19.3993 4.18611 19.108 4.99944 18.818 5.80966C18.4052 6.96239 17.9942 8.11157 17.0135 8.68462C16.0261 9.26208 14.8139 9.05057 13.6035 8.83905C12.7678 8.69347 11.9325 8.54744 11.7418 8.70851C11.5441 8.87489 11.5476 9.72052 11.5516 10.5657C11.5574 11.7937 11.5627 13.0216 10.8311 13.8876C10.1018 14.7509 8.89049 14.9545 7.67787 15.158C6.83857 15.2992 5.99705 15.4403 5.86626 15.6638C5.7359 15.8855 6.02055 16.6878 6.30652 17.4922C6.71797 18.6512 7.13075 19.8136 6.72994 20.8871C6.33446 21.9469 5.27702 22.5607 4.21381 23.178C3.45565 23.6178 2.69261 24.0608 2.63985 24.3519C2.5862 24.6471 3.13154 25.3321 3.68177 26.0237C4.4621 27.0039 5.24908 27.9924 5.24908 29.1606C5.24908 30.3293 4.4621 31.3174 3.68177 32.298C3.13154 32.9892 2.5862 33.6742 2.63985 33.9698C2.69261 34.261 3.45565 34.7035 4.21381 35.1438C5.27702 35.7606 6.33446 36.3744 6.72994 37.4342C7.13075 38.5081 6.71797 39.6706 6.30652 40.8295C6.02055 41.634 5.7359 42.4358 5.86626 42.6579C5.99705 42.881 6.83812 43.0226 7.67787 43.1633C8.89093 43.3673 10.1018 43.5704 10.8311 44.4341C11.5627 45.2997 11.5574 46.5276 11.5516 47.756C11.5476 48.6012 11.5441 49.4464 11.7418 49.6132C11.9329 49.7738 12.7678 49.6283 13.6035 49.4822C14.8139 49.2712 16.0261 49.0592 17.0135 49.6367C17.9942 50.2097 18.4057 51.3589 18.818 52.5116C19.108 53.3219 19.3993 54.1356 19.6529 54.2294C19.91 54.325 20.6615 53.9086 21.417 53.4896C22.5011 52.8886 23.5909 52.2842 24.7259 52.4899C25.8445 52.6922 26.6502 53.6113 27.4629 54.5383C28.0565 55.2153 28.6555 55.8986 29.0022 55.8986C29.3485 55.8986 29.9475 55.2153 30.5412 54.5383C31.3539 53.6113 32.1599 52.6922 33.2777 52.4899C34.4127 52.2842 35.5029 52.8886 36.587 53.4896C37.3425 53.9086 38.094 54.325 38.3512 54.2294C38.6048 54.1356 38.8961 53.3219 39.186 52.5116C39.5988 51.3589 40.0098 50.2102 40.9901 49.6367C41.9779 49.0592 43.1897 49.2707 44.4001 49.4822C45.2363 49.6283 46.0711 49.7743 46.2627 49.6132C46.46 49.4464 46.4564 48.6012 46.4524 47.756C46.4467 46.5281 46.4413 45.2997 47.1729 44.4341C47.9022 43.5704 49.1131 43.3673 50.3257 43.1633C51.1655 43.0226 52.007 42.881 52.1378 42.6579C52.2681 42.4358 51.9835 41.634 51.6975 40.8295C51.2861 39.6706 50.8733 38.5081 51.2741 37.4342C51.6691 36.3744 52.727 35.7606 53.7898 35.1438C54.5484 34.7035 55.311 34.261 55.3642 33.9698C55.4178 33.6742 54.8725 32.9892 54.3223 32.298C53.5419 31.3174 52.7549 30.3293 52.7549 29.1606C52.7549 27.9924 53.5419 27.0039 54.3223 26.0237C54.8725 25.3321 55.4178 24.6471 55.3642 24.3519C55.311 24.0608 54.5484 23.6178 53.7898 23.178C52.727 22.5607 51.6691 21.9469 51.2741 20.8871C50.8733 19.8136 51.2861 18.6512 51.6975 17.4922C51.9835 16.6878 52.2681 15.8855 52.1378 15.6638C52.007 15.4403 51.1655 15.2992 50.3257 15.158C49.1131 14.9545 47.9022 14.7509 47.1729 13.8876C46.4413 13.0216 46.4467 11.7937 46.4524 10.5657C46.4564 9.72052 46.46 8.87489 46.2627 8.70851C46.0711 8.54744 45.2363 8.69347 44.4001 8.83905C43.1897 9.05057 41.9779 9.26208 40.9905 8.68462C40.0098 8.11157 39.5984 6.96239 39.186 5.80966C38.8961 4.99944 38.6048 4.18611 38.3512 4.09186C38.094 3.99628 37.3425 4.41267 36.587 4.83173C35.5025 5.43309 34.4127 6.03755 33.2777 5.83179C32.1595 5.62912 31.3539 4.71004 30.5412 3.78343Z" fill="#333333"/>
<path fill-rule="evenodd" clip-rule="evenodd" d="M43.0674 14.7938C42.4404 14.7938 41.9323 15.3009 41.9323 15.9266C41.9323 16.2054 42.0334 16.4607 42.201 16.6581L42.2041 16.6621C42.2272 16.6891 42.2516 16.7147 42.2768 16.7391C45.3294 19.9871 47.1987 24.3559 47.1987 29.1606C47.1987 34.176 45.1623 38.7161 41.8694 42.0026C38.5765 45.2895 34.027 47.3219 29.0019 47.3219C26.8506 47.3219 24.7867 46.9493 22.8714 46.2652C22.8372 46.2511 22.8018 46.2387 22.7659 46.2276L22.7632 46.2263C22.659 46.1949 22.5482 46.178 22.4338 46.178C21.8073 46.178 21.2987 46.6852 21.2987 47.3109C21.2987 47.8242 21.641 48.2574 22.1097 48.3968C24.2631 49.1654 26.5837 49.5844 29.0019 49.5844C34.6526 49.5844 39.7687 47.298 43.4717 43.6022C47.1752 39.906 49.4656 34.8004 49.4656 29.1606C49.4656 23.7638 47.3681 18.8565 43.943 15.2054C43.7346 14.954 43.4198 14.7938 43.0674 14.7938ZM39.6419 11.9184C39.0154 11.9184 38.5069 12.4255 38.5069 13.0512C38.5069 13.6765 39.0154 14.1841 39.6419 14.1841C40.2688 14.1841 40.7769 13.6765 40.7769 13.0512C40.7769 12.4255 40.2688 11.9184 39.6419 11.9184ZM35.9579 9.94751C33.7863 9.16428 31.4444 8.73682 29.0019 8.73682C23.3511 8.73682 18.2355 11.0228 14.532 14.719C10.829 18.4148 8.53809 23.5209 8.53809 29.1606C8.53809 34.5459 10.6268 39.444 14.039 43.0929C14.2474 43.3416 14.5604 43.5 14.9107 43.5C15.5376 43.5 16.0457 42.9929 16.0457 42.3672C16.0457 42.0893 15.9455 41.8349 15.7788 41.6379L15.7743 41.6322C15.7522 41.6061 15.7287 41.5813 15.7043 41.5578C12.6654 38.3121 10.805 33.9534 10.805 29.1606C10.805 24.1453 12.8419 19.6047 16.1348 16.3187C19.4277 13.0318 23.9771 10.9993 29.0019 10.9993C31.1735 10.9993 33.256 11.379 35.1869 12.0755C35.3234 12.1335 35.4738 12.1653 35.6316 12.1653C36.2585 12.1653 36.7666 11.6582 36.7666 11.0325C36.7666 10.5201 36.4257 10.0873 35.9579 9.94751ZM18.3619 44.1372C17.7354 44.1372 17.2268 44.6443 17.2268 45.27C17.2268 45.8957 17.7354 46.4028 18.3619 46.4028C18.9888 46.4028 19.4969 45.8957 19.4969 45.27C19.4969 44.6443 18.9888 44.1372 18.3619 44.1372ZM22.3939 18.0272C21.0926 18.0272 19.9145 18.5533 19.0615 19.4047C18.2089 20.2561 17.6813 21.4318 17.6813 22.7306C17.6813 24.0289 18.2089 25.2051 19.0615 26.056C19.9145 26.9074 21.0926 27.434 22.3939 27.434C23.6952 27.434 24.8732 26.9074 25.7262 26.056C26.5788 25.2051 27.1065 24.0289 27.1065 22.7306C27.1065 21.4318 26.5788 20.2561 25.7262 19.4047C24.8732 18.5533 23.6952 18.0272 22.3939 18.0272ZM24.1235 21.0044C23.681 20.5628 23.0696 20.2893 22.3939 20.2893C21.7186 20.2893 21.1068 20.5628 20.6643 21.0044C20.2218 21.446 19.9482 22.0562 19.9482 22.7306C19.9482 23.4045 20.2218 24.0152 20.6643 24.4568C21.1068 24.898 21.7186 25.1714 22.3939 25.1714C23.0696 25.1714 23.681 24.8984 24.1235 24.4568C24.5659 24.0152 24.8395 23.4045 24.8395 22.7306C24.8395 22.0562 24.5659 21.446 24.1235 21.0044ZM34.6673 18.5396L21.4508 38.5444C21.1085 39.0643 21.2531 39.7626 21.774 40.1042C22.295 40.4458 22.9946 40.3016 23.3369 39.7816L36.5534 19.7769C36.8956 19.2569 36.7511 18.5587 36.2301 18.217C35.7092 17.8754 35.0095 18.0197 34.6673 18.5396ZM35.6103 30.8873C34.309 30.8873 33.1305 31.4139 32.2779 32.2648C31.4253 33.1162 30.8977 34.2924 30.8977 35.5907C30.8977 36.8894 31.4253 38.0652 32.2779 38.9165C33.131 39.7675 34.309 40.2941 35.6103 40.2941C36.9116 40.2941 38.0896 39.7675 38.9422 38.9165C39.7953 38.0652 40.3229 36.8894 40.3229 35.5907C40.3229 34.2919 39.7953 33.1162 38.9422 32.2648C38.0896 31.4139 36.9116 30.8873 35.6103 30.8873ZM37.3395 33.8645C36.8974 33.4233 36.2856 33.1498 35.6103 33.1498C34.9346 33.1498 34.3232 33.4228 33.8807 33.8645C33.4382 34.3061 33.1642 34.9167 33.1642 35.5907C33.1642 36.265 33.4382 36.8753 33.8807 37.3169C34.3232 37.7585 34.9346 38.0315 35.6103 38.0315C36.2856 38.0315 36.8974 37.7585 37.3395 37.3169C37.7824 36.8753 38.0559 36.265 38.0559 35.5907C38.0559 34.9167 37.7824 34.3065 37.3395 33.8645Z" fill="#D33234"/>
</svg>
