<svg width="54" height="55" viewBox="0 0 54 55" fill="none" xmlns="http://www.w3.org/2000/svg">
<path d="M20.7013 18.0281H18.9013V19.8281H20.7013V18.0281Z" fill="#D33234"/>
<path d="M20.7013 21.6282H18.9013V23.4282H20.7013V21.6282Z" fill="#D33234"/>
<path d="M20.7013 25.228H18.9013V27.028H20.7013V25.228Z" fill="#D33234"/>
<path d="M20.7013 28.8281H18.9013V30.6281H20.7013V28.8281Z" fill="#D33234"/>
<path d="M24.3 18.0281H22.5V19.8281H24.3V18.0281Z" fill="#D33234"/>
<path d="M24.3 21.6282H22.5V23.4282H24.3V21.6282Z" fill="#D33234"/>
<path d="M24.3 25.228H22.5V27.028H24.3V25.228Z" fill="#D33234"/>
<path d="M24.3 28.8281H22.5V30.6281H24.3V28.8281Z" fill="#D33234"/>
<path d="M27.8987 18.0281H26.0987V19.8281H27.8987V18.0281Z" fill="#D33234"/>
<path d="M27.8987 21.6282H26.0987V23.4282H27.8987V21.6282Z" fill="#D33234"/>
<path d="M27.8987 25.228H26.0987V27.028H27.8987V25.228Z" fill="#D33234"/>
<path d="M27.8987 28.8281H26.0987V30.6281H27.8987V28.8281Z" fill="#D33234"/>
<path d="M31.5006 18.0281H29.7006V19.8281H31.5006V18.0281Z" fill="#D33234"/>
<path d="M24.3 14.428H22.5V16.228H24.3V14.428Z" fill="#D33234"/>
<path d="M27.8987 14.428H26.0987V16.228H27.8987V14.428Z" fill="#D33234"/>
<path d="M31.5006 14.428H29.7006V16.228H31.5006V14.428Z" fill="#D33234"/>
<path d="M31.5006 21.6282H29.7006V23.4282H31.5006V21.6282Z" fill="#D33234"/>
<path d="M31.5006 25.228H29.7006V27.028H31.5006V25.228Z" fill="#D33234"/>
<path d="M31.5006 28.8281H29.7006V30.6281H31.5006V28.8281Z" fill="#D33234"/>
<path d="M35.0994 18.0281H33.2994V19.8281H35.0994V18.0281Z" fill="#D33234"/>
<path d="M35.0994 21.6282H33.2994V23.4282H35.0994V21.6282Z" fill="#D33234"/>
<path d="M35.0994 25.228H33.2994V27.028H35.0994V25.228Z" fill="#D33234"/>
<path d="M35.0994 28.8281H33.2994V30.6281H35.0994V28.8281Z" fill="#D33234"/>
<path d="M53.101 13.5281C53.1007 13.5281 53.1003 13.5281 53.1 13.5281H39.6V0.928076C39.6003 0.431276 39.1978 0.0284139 38.701 0.0280764C38.7007 0.0280764 38.7003 0.0280764 38.7 0.0280764H15.3C14.8032 0.0277389 14.4003 0.430264 14.4 0.927064C14.4 0.927401 14.4 0.927739 14.4 0.928076V13.5281H0.9C0.4032 13.5277 0.000337712 13.9303 2.12079e-07 14.4271C2.12079e-07 14.4274 2.12079e-07 14.4277 2.12079e-07 14.4281V46.8281C-0.000337288 47.3249 0.402188 47.7277 0.898988 47.7281C0.899325 47.7281 0.899663 47.7281 0.9 47.7281H2.78134C2.72914 48.0253 2.70191 48.3263 2.7 48.6281V53.1281C2.69966 53.6249 3.10219 54.0277 3.59899 54.0281C3.59933 54.0281 3.59966 54.0281 3.6 54.0281H50.4C50.8968 54.0284 51.2997 53.6259 51.3 53.1291C51.3 53.1288 51.3 53.1284 51.3 53.1281V48.6281C51.2982 48.3263 51.271 48.0253 51.2187 47.7281H53.1C53.5968 47.7284 53.9997 47.3259 54 46.8291C54 46.8288 54 46.8284 54 46.8281V14.4281C54.0003 13.9313 53.5978 13.5284 53.101 13.5281ZM38.7 38.7281C38.7 39.7222 37.8942 40.5281 36.9 40.5281C35.9058 40.5281 35.1 39.7222 35.1 38.7281C35.1 37.7339 35.9058 36.9281 36.9 36.9281C37.8936 36.9293 38.6988 37.7345 38.7 38.7281ZM17.1 36.9281C18.0942 36.9281 18.9 37.7339 18.9 38.7281C18.9 39.7222 18.0942 40.5281 17.1 40.5281C16.1058 40.5281 15.3 39.7222 15.3 38.7281C15.3012 37.7345 16.1064 36.9293 17.1 36.9281ZM11.7 52.2281H4.5V48.6281C4.5 46.6399 6.11179 45.0281 8.1 45.0281C10.0882 45.0281 11.7 46.6399 11.7 48.6281V52.2281ZM6.3 41.4281C6.3 40.4339 7.10584 39.6281 8.1 39.6281C9.09416 39.6281 9.9 40.4339 9.9 41.4281C9.9 42.4222 9.09416 43.2281 8.1 43.2281C7.1064 43.2268 6.30124 42.4217 6.3 41.4281ZM11.8363 44.7384C11.4969 44.411 11.1164 44.1293 10.7042 43.9004C12.0769 42.4622 12.0239 40.1834 10.5857 38.8105C9.14749 37.4377 6.86869 37.4908 5.49585 38.929C4.16801 40.3201 4.16801 42.5092 5.49585 43.9003C4.6368 44.377 3.9231 45.0778 3.43058 45.928H1.8V15.3281H14.4V36.3719C13.1641 37.7587 13.2058 39.8638 14.4959 41.2004C13.1459 41.947 12.1785 43.234 11.8363 44.7384ZM20.7 52.2281H13.5V45.9281C13.5 43.9399 15.1118 42.3281 17.1 42.3281C19.0882 42.3281 20.7 43.9399 20.7 45.9281V52.2281ZM31.5 52.2281H22.5V45.9281C22.5 43.4428 24.5148 41.4281 27 41.4281C29.4852 41.4281 31.5 43.4428 31.5 45.9281V52.2281ZM24.3 36.9281C24.3 35.4369 25.5088 34.2281 27 34.2281C28.4912 34.2281 29.7 35.4369 29.7 36.9281C29.7 38.4193 28.4912 39.6281 27 39.6281C25.5095 39.6265 24.3016 38.4186 24.3 36.9281ZM32.4812 42.8338C31.8786 41.7713 30.9819 40.9056 29.899 40.3408C31.7999 38.7397 32.0429 35.9007 30.4419 33.9998C28.8408 32.0989 26.0019 31.8559 24.101 33.4569C22.2001 35.058 21.9571 37.8969 23.5581 39.7978C23.7232 39.9939 23.9048 40.1755 24.101 40.3408C23.0181 40.9056 22.1214 41.7713 21.5188 42.8338C21.0456 42.1588 20.425 41.6002 19.7041 41.2004C21.084 39.7888 21.0583 37.5259 19.6467 36.1461C18.7378 35.2576 17.4255 34.9187 16.2 35.2559V1.82808H37.8V35.2559C37.5067 35.175 37.2042 35.132 36.9 35.1281C34.9171 35.1228 33.3053 36.726 33.3 38.7091C33.2975 39.637 33.6545 40.5299 34.2958 41.2004C33.5749 41.6002 32.9544 42.1588 32.4812 42.8338ZM40.5 48.6281V52.2281H33.3V45.9281C33.3 43.9399 34.9118 42.3281 36.9 42.3281C38.8882 42.3281 40.5 43.9399 40.5 45.9281V48.6281ZM49.5 52.2281H42.3V48.6281C42.3 46.6399 43.9118 45.0281 45.9 45.0281C47.8882 45.0281 49.5 46.6399 49.5 48.6281V52.2281ZM44.1 41.4281C44.1 40.4339 44.9058 39.6281 45.9 39.6281C46.8942 39.6281 47.7 40.4339 47.7 41.4281C47.7 42.4222 46.8942 43.2281 45.9 43.2281C44.9064 43.2268 44.1012 42.4217 44.1 41.4281ZM52.2 45.9281H50.5694C50.0769 45.0779 49.3632 44.3772 48.5041 43.9004C49.8769 42.4622 49.8239 40.1834 48.3857 38.8105C46.9475 37.4378 44.6687 37.4908 43.2958 38.929C41.968 40.3201 41.968 42.5092 43.2958 43.9003C42.8836 44.1292 42.5029 44.4109 42.1636 44.7383C41.8216 43.2339 40.8542 41.9469 39.5042 41.2003C40.7942 39.8637 40.836 37.7585 39.6001 36.3718V15.3281H52.2001V45.9281H52.2Z" fill="#333333"/>
<path d="M44.0994 20.728H42.2994V35.128H44.0994V20.728Z" fill="#D33234"/>
<path d="M49.5006 20.728H47.7006V35.128H49.5006V20.728Z" fill="#D33234"/>
<path d="M6.3 20.728H4.5V35.128H6.3V20.728Z" fill="#D33234"/>
<path d="M11.6981 20.728H9.89807V35.128H11.6981V20.728Z" fill="#D33234"/>
<path d="M32.4016 3.62817C32.4013 3.62817 32.401 3.62817 32.4006 3.62817H21.6006C21.1038 3.62784 20.701 4.03036 20.7006 4.52716C20.7006 4.5275 20.7006 4.52784 20.7006 4.52817V11.7282C20.7003 12.225 21.1028 12.6278 21.5996 12.6282C21.5999 12.6282 21.6003 12.6282 21.6006 12.6282H32.4006C32.8974 12.6285 33.3003 12.226 33.3006 11.7292C33.3006 11.7288 33.3006 11.7285 33.3006 11.7282V4.52817C33.301 4.03137 32.8984 3.62851 32.4016 3.62817ZM31.5006 10.8282H22.5006V5.42817H31.5006V10.8282Z" fill="#333333"/>
</svg>
