<svg width="58" height="59" viewBox="0 0 58 59" fill="none" xmlns="http://www.w3.org/2000/svg">
<path d="M37.0878 7.38493C36.8209 6.95783 36.9507 6.39521 37.3778 6.12829C37.8049 5.86137 38.3675 5.99121 38.6344 6.41829L38.692 6.51035C38.9589 6.93745 38.8291 7.50007 38.402 7.767C37.9749 8.03391 37.4123 7.90407 37.1454 7.47699L37.0878 7.38493Z" fill="#D33234"/>
<path d="M31.2383 9.96587C30.7858 10.2487 30.6482 10.8448 30.931 11.2973C31.2138 11.7498 31.81 11.8873 32.2624 11.6045L35.2632 9.72873C35.7155 9.44599 35.853 8.85013 35.5703 8.39777C35.2876 7.94535 34.6917 7.80779 34.2393 8.09051L31.2383 9.96587Z" fill="#D33234"/>
<path fill-rule="evenodd" clip-rule="evenodd" d="M27.0648 38.5381C27.0648 38.5226 27.062 38.5076 27.0592 38.4924C27.057 38.4804 27.0547 38.4683 27.0539 38.456C27.0506 38.4022 27.0435 38.3489 27.0327 38.2965C27.0261 38.2723 27.0162 38.2501 27.0065 38.2285C27.0022 38.2188 26.9979 38.2093 26.994 38.1997C26.9798 38.1554 26.9614 38.1119 26.9397 38.0704C26.9194 38.0369 26.8972 38.0048 26.8731 37.9737C26.8486 37.9383 26.8222 37.9043 26.7938 37.8722C26.7636 37.8424 26.7316 37.8151 26.6971 37.7901C26.674 37.7679 26.6494 37.7471 26.6239 37.7282L18.8912 32.7192C18.5764 32.5153 18.1719 32.512 17.8538 32.7107L10.121 37.5437C10.1029 37.5551 10.0871 37.5691 10.0712 37.5833C10.0601 37.5931 10.049 37.603 10.037 37.6121C10.0049 37.6353 9.97421 37.6612 9.94542 37.6886C9.91286 37.723 9.88407 37.7603 9.85811 37.7995C9.83545 37.8264 9.81421 37.8552 9.79534 37.8849C9.77079 37.9326 9.75003 37.9817 9.73256 38.0326C9.72869 38.0432 9.72417 38.0535 9.71961 38.0638C9.71252 38.08 9.70535 38.0963 9.70047 38.1138C9.67829 38.1945 9.66649 38.2781 9.66602 38.3621V46.0949C9.66602 46.4281 9.83734 46.7382 10.1201 46.9147L17.8528 51.7477L17.8684 51.7543C17.8707 51.7558 17.8728 51.7575 17.8749 51.7592L17.8768 51.7608C17.881 51.7642 17.8851 51.7676 17.8896 51.7698C17.9383 51.7949 17.9892 51.8156 18.0416 51.8317C18.0521 51.8352 18.0621 51.8397 18.072 51.8441C18.0847 51.8499 18.0975 51.8556 18.111 51.859C18.2752 51.9053 18.4494 51.9053 18.6136 51.859C18.628 51.855 18.642 51.8489 18.6562 51.8428L18.6695 51.8371C18.6757 51.8345 18.6819 51.832 18.6882 51.8298C18.7382 51.8142 18.7869 51.7949 18.8341 51.7717L18.8496 51.7604L18.8638 51.7533L26.5966 47.0964C26.8864 46.9218 27.0638 46.6088 27.0648 46.2709V38.5381ZM17.3988 49.1882L11.5992 45.5634V40.1117L17.3988 43.7364V49.1882ZM18.3748 42.0661L12.4563 38.3621L18.3526 34.6755L24.2712 38.5075L20.4397 40.8154L18.3748 42.0661ZM25.1316 45.7239L19.332 49.2169V43.7411L25.1316 40.2481V45.7239Z" fill="#D33234"/>
<path fill-rule="evenodd" clip-rule="evenodd" d="M53.163 46.0952H29.9646C29.4308 46.0952 28.998 46.528 28.998 47.0618V52.8614C28.998 53.3952 29.4308 53.828 29.9646 53.828H53.163C53.6968 53.828 54.1296 53.3952 54.1296 52.8614V47.0618C54.1296 46.528 53.6968 46.0952 53.163 46.0952ZM52.1964 51.8948H30.9312V48.0284H32.8644V49.9616H34.7976V48.0284H36.7308V49.9616H38.664V48.0284H40.5972V49.9616H42.5304V48.0284H44.4636V49.9616H46.3968V48.0284H48.33V49.9616H50.2632V48.0284H52.1964V51.8948Z" fill="#D33234"/>
<path d="M26.0979 19.0298C25.5641 19.0298 25.1313 19.4625 25.1313 19.9964V22.8962C25.1313 23.43 25.5641 23.8628 26.0979 23.8628C26.6318 23.8628 27.0645 23.43 27.0645 22.8962V19.9964C27.0645 19.4625 26.6318 19.0298 26.0979 19.0298Z" fill="#D33234"/>
<path fill-rule="evenodd" clip-rule="evenodd" d="M57.9241 12.356C57.9392 12.389 57.9524 12.423 57.9637 12.4575C57.9746 12.5075 57.9812 12.559 57.984 12.6099C57.9892 12.6397 57.9934 12.6694 57.9958 12.6991V31.9343C57.9953 32.276 57.8146 32.5922 57.5201 32.7655L40.1213 43.0601C39.8226 43.2366 39.4521 43.2394 39.1509 43.0676C38.8493 42.8959 38.6629 42.5759 38.6629 42.2285V23.5394L23.1974 14.0438V23.8631H21.2642V12.3116C21.2637 12.2267 21.2755 12.1427 21.2977 12.061C21.3076 12.0327 21.3189 12.0044 21.3317 11.977C21.3477 11.927 21.3685 11.8788 21.3925 11.8321C21.4039 11.8123 21.4177 11.7949 21.4317 11.7774C21.4404 11.7664 21.4491 11.7555 21.4572 11.7439C21.4827 11.7052 21.5115 11.6683 21.5431 11.6339C21.571 11.6094 21.5993 11.5858 21.6295 11.5645C21.6602 11.5367 21.6923 11.5107 21.7262 11.4871L39.125 0.803098C39.4398 0.610062 39.8377 0.613365 40.1492 0.812065L57.5479 11.8831C57.5776 11.9057 57.606 11.9293 57.6333 11.9548C57.6645 11.978 57.6947 12.0034 57.723 12.0303C57.7537 12.0639 57.7815 12.1002 57.8061 12.1384C57.8297 12.1667 57.8514 12.197 57.8707 12.2286C57.8915 12.2696 57.9094 12.3121 57.9241 12.356ZM39.6399 21.87L55.1838 12.6732L39.6215 2.77216L24.0785 12.3145L39.6399 21.87ZM40.5971 40.5332L56.0626 31.3826V14.3982L40.5971 23.5502V40.5332Z" fill="#333333"/>
<path fill-rule="evenodd" clip-rule="evenodd" d="M4.83298 56.7273H34.7975V55.7607H36.7307V57.6939C36.7307 58.2277 36.2979 58.6605 35.7641 58.6605H4.83298C2.16493 58.6576 0.00283184 56.4955 0 53.8275V24.8296C0.00283184 22.162 2.16493 19.9999 4.83298 19.9966H6.76618C7.29998 19.9966 7.73278 20.4294 7.73278 20.9632V25.7962H29.9645C29.9739 25.7962 29.9825 25.7985 29.9906 25.8007C29.9991 25.803 30.007 25.8052 30.0145 25.8042C30.1028 25.8094 30.1892 25.8264 30.2727 25.8552L30.2891 25.8609L30.3044 25.8659C30.3232 25.8721 30.3417 25.8781 30.3595 25.8863C30.4653 25.933 30.5616 25.9986 30.6437 26.0793L36.4433 31.8789C36.5244 31.9611 36.59 32.0569 36.6368 32.1621C36.646 32.1826 36.6525 32.2028 36.6591 32.2234L36.6614 32.2307C36.6638 32.2381 36.6662 32.2456 36.6689 32.2532C36.6967 32.3334 36.7132 32.417 36.7179 32.5015C36.7188 32.5111 36.7215 32.5202 36.7242 32.5293C36.7256 32.5337 36.7269 32.538 36.728 32.5425C36.7296 32.5489 36.7307 32.5555 36.7307 32.5623V44.1615H34.7975V33.5289H29.9645C29.4307 33.5289 28.9979 33.0961 28.9979 32.5623V27.7294H7.73278V49.9611C7.73278 50.4949 7.29998 50.9277 6.76618 50.9277H4.83298C3.23111 50.9277 1.93319 52.2261 1.93319 53.8275C1.93319 55.4294 3.23111 56.7273 4.83298 56.7273ZM33.4307 31.5957L30.9311 29.0962V31.5957H33.4307ZM1.93319 24.8296V49.9611C2.76858 49.332 3.78662 48.9926 4.83298 48.9945H5.79958V21.9298H4.83298C3.23111 21.9298 1.93319 23.2282 1.93319 24.8296Z" fill="#333333"/>
<path d="M28.998 39.3284C28.998 38.7946 29.4308 38.3618 29.9646 38.3618H31.8978C32.4317 38.3618 32.8644 38.7946 32.8644 39.3284C32.8644 39.8623 32.4317 40.295 31.8978 40.295H29.9646C29.4308 40.295 28.998 39.8623 28.998 39.3284Z" fill="#333333"/>
<path d="M29.9646 42.228C29.4308 42.228 28.998 42.6608 28.998 43.1946C28.998 43.7285 29.4308 44.1612 29.9646 44.1612H31.8978C32.4317 44.1612 32.8644 43.7285 32.8644 43.1946C32.8644 42.6608 32.4317 42.228 31.8978 42.228H29.9646Z" fill="#333333"/>
<path d="M9.66602 51.894H11.5992V53.8272H9.66602V51.894Z" fill="#333333"/>
<path d="M11.5992 30.6294H9.66602V32.5626H11.5992V30.6294Z" fill="#333333"/>
<path d="M25.1313 51.894H27.0645V53.8272H25.1313V51.894Z" fill="#333333"/>
<path d="M27.0645 30.6294H25.1313V32.5626H27.0645V30.6294Z" fill="#333333"/>
</svg>
