<svg width="58" height="58" viewBox="0 0 58 58" fill="none" xmlns="http://www.w3.org/2000/svg">
<path d="M28.9906 39H28.984C23.4955 39 19 34.5435 19 28.9866C19 27.0893 19.5383 25.2392 20.5587 23.6364C20.844 23.1853 21.4396 23.0469 21.9014 23.3364C22.3601 23.6299 22.4863 24.2295 22.2015 24.6796C21.3813 25.9706 20.9479 27.4604 20.9464 28.9866C20.9485 33.5475 24.6335 37.0515 28.985 37.0551C33.5449 37.051 37.0536 33.366 37.0536 29.015C37.0515 24.4459 33.3584 20.95 29.015 20.9464C27.4527 20.9464 25.9357 21.393 24.6279 22.2349C24.1671 22.5294 23.5716 22.392 23.2821 21.9445C22.9907 21.4923 23.1194 20.8922 23.5741 20.5987C25.1976 19.5545 27.0802 19.0015 29.0165 19C34.508 19 39 23.4621 39 29.015C39 34.5085 34.5415 39 28.9906 39Z" fill="#D33234"/>
<path fill-rule="evenodd" clip-rule="evenodd" d="M10.0809 27.2509C10.1173 26.8511 10.4033 26.5173 10.7928 26.4204L12.5435 25.9812C12.705 25.0989 12.9393 24.2241 13.2392 23.3812L11.9409 22.1243C11.6524 21.8461 11.5716 21.4134 11.7405 21.0496C12.2299 19.9881 12.8197 18.9685 13.4927 18.0193C13.7172 17.7017 14.1268 17.5452 14.5236 17.6579L16.263 18.1542C16.8425 17.4738 17.483 16.8347 18.1634 16.2548L17.6667 14.5169C17.5559 14.1314 17.7021 13.7178 18.0285 13.4859C18.9802 12.8114 19.9998 12.2231 21.0613 11.7342C21.4192 11.5693 21.8495 11.6387 22.136 11.9356L23.393 13.2353C24.2334 12.9355 25.1068 12.7036 25.988 12.5431L26.4262 10.7929C26.5237 10.4035 26.8575 10.1169 27.2572 10.0805C28.4088 9.97317 29.5796 9.97268 30.7607 10.082C31.159 10.1184 31.4932 10.4044 31.5912 10.7939L32.0299 12.5461C32.9087 12.7061 33.7796 12.9404 34.62 13.2393L35.8755 11.941C36.1487 11.6584 36.5938 11.5752 36.9517 11.7391C38.0156 12.2305 39.0362 12.8218 39.9854 13.4963C40.3118 13.7267 40.4566 14.1412 40.3473 14.5257L39.8491 16.2661C40.526 16.8446 41.1626 17.4812 41.7411 18.1581L43.479 17.6618C43.8867 17.5476 44.2899 17.7116 44.5099 18.0232C45.1844 18.9749 45.7757 19.997 46.2661 21.0609C46.4335 21.4252 46.3527 21.856 46.0642 22.1361L44.7645 23.3925C45.0618 24.231 45.2942 25.1004 45.4552 25.9773L47.2074 26.4149C47.5964 26.5134 47.8824 26.8472 47.9193 27.247C48.0276 28.4547 48.0262 29.5821 47.9193 30.7533C47.8824 31.1526 47.5968 31.4864 47.2074 31.5839L45.4552 32.0221C45.2952 32.8994 45.0633 33.7693 44.7645 34.6073L46.0642 35.8637C46.3527 36.1423 46.4335 36.5746 46.2661 36.9389C45.7757 38.0038 45.1844 39.0249 44.5099 39.9766C44.2894 40.2887 43.8862 40.4517 43.479 40.338L41.7411 39.8417C41.1641 40.5182 40.5275 41.1547 39.8491 41.7332L40.3473 43.4726C40.4566 43.8586 40.3118 44.2717 39.9854 44.5035C39.0027 45.2017 37.9984 45.7752 36.9517 46.2597C36.5938 46.4246 36.1487 46.3414 35.8755 46.0588L34.62 44.761C33.7796 45.0594 32.9072 45.2927 32.0299 45.4542L31.5912 47.2059C31.4932 47.5954 31.159 47.8814 30.7597 47.9178C29.5579 48.0291 28.4196 48.0252 27.2582 47.9193C26.8575 47.8839 26.5237 47.5978 26.4262 47.2084L25.988 45.4567C25.1068 45.2952 24.2334 45.0633 23.393 44.7645L22.136 46.0642C21.8628 46.3463 21.4192 46.431 21.0613 46.2661C19.9998 45.7767 18.9787 45.1869 18.03 44.5139C17.7021 44.282 17.5559 43.8684 17.6667 43.483L18.1634 41.745C17.488 41.17 16.8666 40.5487 16.2655 39.8442L14.5236 40.3424C14.1268 40.4542 13.7177 40.2986 13.4927 39.9805C12.8197 39.0303 12.2299 38.0117 11.7405 36.9507C11.5716 36.5864 11.6524 36.1542 11.9409 35.8755L13.2392 34.6191C12.9393 33.7757 12.705 32.9009 12.5435 32.0186L10.7928 31.5799C10.4033 31.483 10.1173 31.1492 10.0809 30.7494C9.97304 29.5678 9.97304 28.4305 10.0809 27.2509ZM14.3129 26.8817C14.2578 27.2632 13.9801 27.5709 13.6074 27.664L11.9148 28.0874C11.8995 28.3911 11.8907 28.6974 11.8907 28.9987C11.8907 29.301 11.8995 29.6077 11.9148 29.9124L13.6074 30.3358C13.9806 30.4294 14.2578 30.7366 14.3134 31.1186C14.4793 32.2845 14.7861 33.4277 15.2208 34.5152C15.3645 34.8731 15.2789 35.2778 15.0012 35.5461L13.7472 36.7587C14.0234 37.2983 14.3297 37.8291 14.661 38.3367L16.3398 37.8566C16.7135 37.7508 17.1025 37.8808 17.3383 38.1742C18.1221 39.1524 18.9137 39.9436 19.8275 40.6649C20.1313 40.9027 20.2583 41.296 20.1524 41.6668L19.6724 43.3456C20.18 43.6754 20.7122 43.9832 21.2528 44.2579L22.4664 43.0039C22.7263 42.7351 23.1483 42.6445 23.4963 42.7834C24.5814 43.2171 25.7222 43.5218 26.888 43.6883C27.2696 43.7424 27.5773 44.0196 27.6703 44.3942L28.0942 46.0854C28.7052 46.1169 29.3167 46.1169 29.9227 46.0844L30.3461 44.3918C30.4397 44.0171 30.7469 43.7399 31.1289 43.6858C32.2908 43.5179 33.4301 43.2132 34.5157 42.7784C34.8834 42.6337 35.2802 42.7253 35.5466 42.999L36.7577 44.253C37.2993 43.9768 37.8325 43.6681 38.342 43.3367L37.8615 41.6564C37.7557 41.2857 37.8832 40.8928 38.1845 40.6545C39.1042 39.9283 39.9377 39.0953 40.6609 38.1766C40.8928 37.8827 41.3024 37.7493 41.6628 37.8527L43.3416 38.3332C43.6745 37.8236 43.9822 37.2909 44.2579 36.7474L43.0039 35.5348C42.7218 35.2616 42.6371 34.8357 42.7947 34.4763C42.7971 34.4689 42.7996 34.4625 42.8035 34.4551C43.4084 32.9228 43.5998 31.6846 43.6724 31.2148C43.6842 31.1389 43.6928 31.083 43.6996 31.0492L43.701 31.0458C43.7729 30.7307 43.9969 30.4786 44.2997 30.3688L44.3022 30.3673C44.3181 30.3622 44.3273 30.3589 44.3366 30.3558C44.3935 30.3368 44.4525 30.3241 46.0844 29.9164C46.1007 29.6087 46.1095 29.3 46.1095 29.0002C46.1095 28.6988 46.1007 28.3902 46.0844 28.0834L44.3928 27.6605C44.0186 27.567 43.7414 27.2593 43.6873 26.8777C43.5209 25.7168 43.2171 24.5786 42.7833 23.4959C42.642 23.1429 42.7302 22.7299 43.0039 22.465L44.2579 21.2524C43.9817 20.7094 43.6745 20.1762 43.3416 19.6671L41.6628 20.1471C41.3024 20.251 40.8913 20.1171 40.6609 19.8237C39.946 18.9163 39.0904 18.0601 38.1845 17.3458C37.893 17.1149 37.7636 16.7343 37.8527 16.3739L37.8615 16.3439L38.342 14.6636C37.834 14.3332 37.3022 14.0245 36.7587 13.7474L35.5461 15.0013C35.2842 15.2711 34.8657 15.3617 34.5152 15.2204C33.4301 14.7871 32.2908 14.4809 31.1289 14.3145C30.7469 14.2589 30.4392 13.9817 30.3461 13.6075L29.9227 11.9159C29.3137 11.8819 28.7052 11.8819 28.0937 11.9149L27.6703 13.6061C27.5773 13.9807 27.2696 14.2579 26.8875 14.3121C25.7246 14.4785 24.5839 14.7822 23.4959 15.2169C23.1182 15.3642 22.7249 15.2637 22.4664 14.9964L21.2528 13.7424C20.7117 14.0171 20.18 14.3244 19.6719 14.6547L20.1524 16.3335C20.2583 16.7043 20.1308 17.0971 19.8285 17.3354C18.9059 18.0626 18.0689 18.8981 17.3417 19.8197C17.1098 20.1136 16.7002 20.2471 16.3398 20.1437L14.661 19.6632C14.3307 20.1703 14.0234 20.7005 13.7472 21.2416L15.0012 22.4537C15.2784 22.7225 15.364 23.1267 15.2208 23.4851C14.7856 24.5726 14.4793 25.7158 14.3129 26.8817Z" fill="#D33234"/>
<path d="M53.9852 14.269C55.2755 16.4541 56.2725 18.798 56.9486 21.238C57.6464 23.7528 58 26.3653 58 29C58 30.9678 57.8018 32.9343 57.411 34.8442C57.0291 36.7067 56.4605 38.5382 55.7211 40.2883C54.9936 42.007 54.094 43.6642 53.0475 45.2138C52.0098 46.7502 50.8181 48.1932 49.5061 49.5061C48.1932 50.8177 46.7502 52.0098 45.2138 53.0475C43.6642 54.094 42.007 54.9936 40.2883 55.7207C38.5382 56.4619 36.7067 57.0291 34.8442 57.411C32.9343 57.8018 30.9678 58 29 58C23.2227 58 17.6422 56.3043 12.8618 53.0962L3.52632 57.7385C3.18338 57.9093 2.80725 58 2.43776 58H2.43422C1.78418 57.9934 1.17485 57.7372 0.718185 57.2805C0.26152 56.8243 0.00663758 56.2149 0 55.5645C0 55.1905 0.0915985 54.81 0.266388 54.4631L3.63164 47.7693C3.77678 47.4803 4.06795 47.3002 4.39186 47.3002C4.52461 47.3002 4.6525 47.3312 4.77242 47.3909C4.97552 47.4932 5.12598 47.6688 5.19722 47.8839C5.26891 48.099 5.25165 48.3291 5.14987 48.5317L1.78418 55.2268C1.72754 55.3423 1.70055 55.4498 1.69922 55.5645C1.69789 55.7481 1.77975 55.9348 1.92136 56.0773C2.06296 56.2189 2.24969 56.3008 2.43201 56.3008H2.43422C2.54883 56.2995 2.65547 56.2733 2.77097 56.2167L12.5517 51.3527C12.8256 51.2168 13.1645 51.2416 13.4159 51.416C18.0038 54.6117 23.3926 56.3008 29 56.3008C36.292 56.3008 43.1478 53.4608 48.3043 48.3043C53.4608 43.1464 56.3008 36.2907 56.3008 29C56.3008 19.2622 51.0513 10.1896 42.6017 5.32333L42.5893 5.31625C38.4749 2.94974 33.776 1.69922 29 1.69922C21.7093 1.69922 14.8536 4.53922 9.69572 9.69572C4.53922 14.8522 1.69922 21.7093 1.69922 29C1.69922 33.1992 2.64601 37.2745 4.46238 40.9826C4.65585 41.3776 4.5317 41.8581 4.16295 42.0977C3.74419 42.3699 3.18112 42.2253 2.96071 41.7771C2.33661 40.5081 1.80632 39.1942 1.37398 37.8439C0.461975 34.9937 0 32.0179 0 29C0 27.0322 0.198242 25.0657 0.588974 23.1558C0.970856 21.2933 1.53815 19.4618 2.27934 17.7113C3.00638 15.993 3.90599 14.3358 4.95251 12.7862C5.99019 11.2498 7.18185 9.80547 8.49388 8.49388C9.80679 7.1823 11.2498 5.99019 12.7862 4.95251C14.3358 3.90599 15.993 3.00638 17.7117 2.27934C19.4618 1.53859 21.2933 0.970856 23.1558 0.588974C25.0657 0.198242 27.0322 0 29 0C31.5785 0 34.1348 0.338959 36.6013 1.0067C38.9935 1.65497 41.2977 2.61211 43.45 3.85023C47.7923 6.35039 51.4354 9.95282 53.9852 14.269Z" fill="#333333"/>
<path fill-rule="evenodd" clip-rule="evenodd" d="M34 29C34 31.7574 31.7574 34 29 34C26.2431 34 24 31.7574 24 29C24 26.2431 26.2431 24 29 24C31.7574 24 34 26.2431 34 29ZM32.2353 29C32.2353 27.2165 30.784 25.7647 29 25.7647C27.216 25.7647 25.7647 27.2165 25.7647 29C25.7647 30.784 27.216 32.2353 29 32.2353C30.784 32.2353 32.2353 30.784 32.2353 29Z" fill="#333333"/>
<path d="M5.72226 43.7012C5.21004 43.7012 4.79199 44.1164 4.79199 44.6286C4.79199 45.1408 5.21004 45.5561 5.72226 45.5561C6.23447 45.5561 6.65252 45.1408 6.65252 44.6286C6.65252 44.1164 6.23447 43.7012 5.72226 43.7012Z" fill="#333333"/>
</svg>
