<svg width="58" height="59" viewBox="0 0 58 59" fill="none" xmlns="http://www.w3.org/2000/svg">
<path d="M5.52342 10.552C5.52342 11.0923 5.08549 11.5303 4.54516 11.5303C4.00482 11.5303 3.56689 11.0923 3.56689 10.552C3.56689 10.0117 4.00482 9.57373 4.54516 9.57373C5.08549 9.57373 5.52342 10.0117 5.52342 10.552Z" fill="#D33234"/>
<path d="M8.45824 11.5303C8.99858 11.5303 9.4365 11.0923 9.4365 10.552C9.4365 10.0117 8.99858 9.57373 8.45824 9.57373C7.9179 9.57373 7.47998 10.0117 7.47998 10.552C7.47998 11.0923 7.9179 11.5303 8.45824 11.5303Z" fill="#D33234"/>
<path d="M12.3713 11.5303C12.9117 11.5303 13.3496 11.0923 13.3496 10.552C13.3496 10.0117 12.9117 9.57373 12.3713 9.57373C11.831 9.57373 11.3931 10.0117 11.3931 10.552C11.3931 11.0923 11.831 11.5303 12.3713 11.5303Z" fill="#D33234"/>
<path fill-rule="evenodd" clip-rule="evenodd" d="M38.1924 22.6606C38.5192 22.6606 38.8136 22.8575 38.9385 23.1591C39.0635 23.4611 38.9944 23.8085 38.7634 24.0394L34.4886 28.3145L38.7634 32.5896C38.9944 32.8205 39.0635 33.1679 38.9385 33.4698C38.8136 33.7715 38.5192 33.9683 38.1924 33.9683H24.4616V42.0453H25.2693C25.7154 42.0453 26.0769 42.4068 26.0769 42.853C26.0769 43.2991 25.7154 43.6606 25.2693 43.6606H18.8077C18.3616 43.6606 18 43.2991 18 42.853C18 42.4068 18.3616 42.0453 18.8077 42.0453H19.6154V23.4683C19.6154 23.0222 19.977 22.6606 20.4231 22.6606H38.1924ZM21.2308 24.276V42.0453H22.8462V24.276H21.2308ZM32.7751 28.8856C32.4596 28.57 32.4596 28.0589 32.7751 27.7434L36.2422 24.276H24.4616V32.353H36.2422L32.7751 28.8856Z" fill="#D33234"/>
<path fill-rule="evenodd" clip-rule="evenodd" d="M33.3956 5.66064H58V53.6606H0V5.66064H24.6044C25.1439 5.66064 25.5812 6.09857 25.5812 6.63891C25.5812 7.17924 25.1439 7.61717 24.6044 7.61717C24.2436 7.61717 23.1053 7.61384 21.5181 7.60919C15.2434 7.59083 1.95359 7.55194 1.95359 7.61717V13.4867H56.0464V7.61717C56.0464 7.55194 42.7566 7.59083 36.4819 7.60919C34.8947 7.61384 33.7564 7.61717 33.3956 7.61717C32.8561 7.61717 32.4188 7.17924 32.4188 6.63891C32.4188 6.09857 32.8561 5.66064 33.3956 5.66064ZM1.95359 51.7041H56.0464V15.4433H1.95359V51.7041Z" fill="#333333"/>
<path d="M29.0437 7.61717C29.584 7.61717 30.022 7.17924 30.022 6.63891C30.022 6.09857 29.584 5.66064 29.0437 5.66064C28.5034 5.66064 28.0654 6.09857 28.0654 6.63891C28.0654 7.17924 28.5034 7.61717 29.0437 7.61717Z" fill="#333333"/>
</svg>
