<svg width="11" height="11" viewBox="0 0 11 11" fill="none" xmlns="http://www.w3.org/2000/svg">
<path d="M7.50862 6.72904C8.53816 6.0925 9.20959 4.95586 9.20959 3.63733C9.20961 1.6368 7.59814 0 5.62859 0C3.65905 0 2.04758 1.6368 2.04758 3.63733C2.04758 4.95586 2.71901 6.09253 3.74854 6.72904C1.95805 7.41105 0.615167 9.00238 0.25708 10.912H1.15234C1.59996 8.82052 3.43524 7.27464 5.62859 7.27464C7.82195 7.27464 9.65723 8.8205 10.1048 10.912H11.0001C10.642 8.95691 9.29914 7.36558 7.50862 6.72904ZM2.94284 3.63733C2.94284 2.13695 4.15144 0.909338 5.62859 0.909338C7.10575 0.909338 8.31435 2.13695 8.31435 3.63733C8.31435 5.13772 7.10575 6.36532 5.62859 6.36532C4.15144 6.36532 2.94284 5.13772 2.94284 3.63733Z" fill="#B5B6B9"/>
</svg>
