<svg width="52" height="44" viewBox="0 0 52 44" fill="none" xmlns="http://www.w3.org/2000/svg">
<path d="M0.866653 38.9996C0.388042 38.9996 0 38.6115 0 38.1329V7.80001C0 7.3214 0.388042 6.93335 0.866653 6.93335H35.5328C35.5848 6.93324 35.6368 6.93779 35.688 6.94722L45.2211 8.68053C45.6332 8.75549 45.9328 9.1145 45.9327 9.53331V16.4665C45.9327 16.9452 45.5446 17.3332 45.066 17.3332H36.3995V19.0665H46.7993C47.1482 19.0664 47.4631 19.2754 47.5984 19.5969L51.9317 29.8884C51.9761 29.995 51.999 30.1092 51.9993 30.2247V38.1329C51.9993 38.6115 51.6112 38.9996 51.1326 38.9996H48.4546C48.2906 39.9678 47.8548 40.8695 47.198 41.5995H51.9993V43.3328H0V41.5995H6.53457C5.87776 40.8695 5.44194 39.9678 5.27792 38.9996H0.866653ZM47.6833 24.2664H46.7993V28.5997H49.5076L47.6833 24.2664ZM43.3327 41.5995C45.2473 41.5995 46.7993 40.0475 46.7993 38.1329C46.7993 36.2184 45.2473 34.6663 43.3327 34.6663C41.4182 34.6663 39.8661 36.2184 39.8661 38.1329C39.8661 40.0475 41.4182 41.5995 43.3327 41.5995ZM44.1942 33.0058C46.3772 33.3729 48.0875 35.0833 48.4546 37.2662H50.2659V33.7996H48.5326V32.0663H50.2659V30.3997L50.2382 30.333H38.9994C38.5208 30.333 38.1328 29.945 38.1328 29.4664V23.3998C38.1328 22.9212 38.5208 22.5331 38.9994 22.5331H46.9536L46.2239 20.7998H36.3995V37.2662H38.2108C38.6866 34.4375 41.3654 32.53 44.1942 33.0058ZM45.066 28.5997V24.2664H39.8661V28.5997H45.066ZM39.4674 41.5995C38.8106 40.8695 38.3748 39.9678 38.2108 38.9996H15.5218C15.3578 39.9678 14.9219 40.8695 14.2651 41.5995H39.4674ZM34.6662 37.2662V35.5329H14.8961C15.2067 36.0685 15.4186 36.6557 15.5218 37.2662H34.6662ZM10.3998 41.5995C12.3144 41.5995 13.8665 40.0475 13.8665 38.1329C13.8665 36.2184 12.3144 34.6663 10.3998 34.6663C8.4853 34.6663 6.93323 36.2184 6.93323 38.1329C6.93323 40.0475 8.4853 41.5995 10.3998 41.5995ZM7.53122 33.7996C9.26908 32.6441 11.5306 32.6441 13.2685 33.7996H34.6662V16.4665C34.6662 15.9879 35.0542 15.5999 35.5328 15.5999H44.1994V10.2561L35.4548 8.66666H1.73331V33.7996H7.53122ZM1.73331 35.5329V37.2662H5.27792C5.38105 36.6557 5.59295 36.0685 5.90365 35.5329H1.73331Z" fill="#333333"/>
<path d="M38.1307 31.2H39.864V32.0666H38.1307V31.2Z" fill="#333333"/>
<path d="M19.9352 0.000244141H20.8018V1.73355H19.9352V0.000244141Z" fill="#D33234"/>
<path d="M22.5315 0.000244141H32.0647V1.73355H22.5315V0.000244141Z" fill="#D33234"/>
<path d="M7.79939 3.46704H16.4659V5.20035H7.79939V3.46704Z" fill="#D33234"/>
<path d="M5.20013 3.46704H6.06679V5.20035H5.20013V3.46704Z" fill="#D33234"/>
<path d="M18.1991 0.000244141H19.0657V1.73355H18.1991V0.000244141Z" fill="#D33234"/>
<path d="M3.46839 3.46704H4.33504V5.20035H3.46839V3.46704Z" fill="#D33234"/>
</svg>
