<svg width="58" height="59" viewBox="0 0 58 59" fill="none" xmlns="http://www.w3.org/2000/svg">
<g clip-path="url(#clip0)">
<path d="M0 0.660645H58V58.6606H0V0.660645Z" fill="white"/>
<path d="M17.3364 36.7345H20.7375C21.7968 36.7345 22.6588 35.8725 22.6588 34.8132V32.9179C22.6588 32.8055 22.7381 32.7086 22.8558 32.6763C23.9395 32.3812 23.4943 30.7417 22.4088 31.0373C21.5557 31.2696 20.9596 32.0431 20.9596 32.9179V34.8132C20.9596 34.9357 20.8601 35.0353 20.7375 35.0353H17.3364C17.2143 35.0353 17.1147 34.9357 17.1147 34.8132V32.9179C17.1147 32.0431 16.5186 31.2696 15.6655 31.0373C14.6256 30.7536 13.6229 30.3368 12.6848 29.7987C11.9254 29.3628 10.9674 29.4863 10.355 30.0987L9.00137 31.4524C8.91464 31.5395 8.77393 31.5391 8.68719 31.4524L6.28218 29.0478C6.22864 28.9938 6.21713 28.9323 6.21713 28.8907C6.21713 28.8487 6.2282 28.7871 6.28218 28.7336L7.6358 27.3795C8.24823 26.7671 8.37169 25.8095 7.93582 25.0502C7.39774 24.1121 6.9809 23.1094 6.69769 22.069C6.46494 21.2159 5.69144 20.6203 4.81705 20.6203H2.92136C2.79878 20.6203 2.69922 20.5207 2.69922 20.3981V16.997C2.69922 16.8749 2.79878 16.7749 2.92136 16.7749H4.81705C5.69144 16.7749 6.46494 16.1793 6.69725 15.3261C6.9809 14.2863 7.39774 13.2835 7.93582 12.345C8.37169 11.5856 8.24823 10.6281 7.6358 10.0156L6.28174 8.66158C6.2282 8.60803 6.21669 8.54653 6.21669 8.50449C6.21669 8.46289 6.2282 8.40138 6.28174 8.34784L8.68719 5.94283C8.74074 5.88884 8.8018 5.87778 8.84384 5.87778C8.88588 5.87778 8.94695 5.88884 9.00093 5.94283L10.3546 7.29645C10.967 7.90888 11.925 8.03233 12.6839 7.59647C13.622 7.05838 14.6252 6.64198 15.6651 6.35834C16.5182 6.12558 17.1143 5.35252 17.1143 4.47769V2.582C17.1143 2.45943 17.2138 2.35986 17.336 2.35986H20.737C20.8596 2.35986 20.9592 2.45943 20.9592 2.582V4.47725C20.9592 5.35208 21.5552 6.12558 22.4084 6.3579C23.4478 6.64154 24.451 7.05838 25.3891 7.59647C26.1484 8.03233 27.1065 7.90888 27.7189 7.29645L29.073 5.94283C29.2394 5.77599 29.3996 5.9464 29.5367 6.09229C29.5734 6.13136 29.6085 6.16867 29.6416 6.19727C30.4368 6.99245 31.6373 5.78972 30.843 4.99587L30.5885 4.74143C29.8376 3.99005 28.622 3.99049 27.8711 4.74098L26.5175 6.09505C26.4449 6.16718 26.3316 6.17824 26.2347 6.12293C25.1714 5.51271 24.0341 5.04012 22.8553 4.71841C22.7376 4.68655 22.6588 4.58965 22.6588 4.47769V2.582C22.6588 1.52264 21.7968 0.660645 20.7375 0.660645H17.3364C16.277 0.660645 15.415 1.52264 15.415 2.582V4.47769C15.415 4.58965 15.3363 4.68655 15.2181 4.71886C14.0388 5.04056 12.9021 5.51271 11.8387 6.12293C11.7418 6.17824 11.6285 6.16718 11.5564 6.09505L10.2028 4.74143C9.83992 4.37813 9.35715 4.17856 8.84384 4.17856C8.33054 4.17856 7.84821 4.37813 7.48535 4.74098L5.08034 7.146C4.71748 7.50885 4.51747 7.99162 4.51747 8.50449C4.51747 9.01779 4.71748 9.50057 5.08034 9.86298L6.4344 11.217C6.50653 11.2892 6.51759 11.4029 6.46228 11.4994C5.85207 12.5631 5.37947 13.7004 5.05821 14.8792C5.02591 14.9969 4.929 15.0757 4.81705 15.0757H2.92136C1.862 15.0757 1 15.9377 1 16.997V20.3981C1 21.4575 1.862 22.3195 2.92136 22.3195H4.81705C4.929 22.3195 5.02591 22.3987 5.05821 22.516C5.37947 23.6952 5.85207 24.8325 6.46184 25.8958C6.51759 25.9923 6.50653 26.106 6.43396 26.1781L5.08034 27.5322C4.71748 27.8946 4.51747 28.3774 4.51747 28.8907C4.51747 29.4036 4.71748 29.8863 5.08034 30.2492L7.48535 32.6542C7.84821 33.017 8.33098 33.2166 8.84384 33.2166C9.35715 33.2166 9.83948 33.017 10.2023 32.6542L11.5564 31.3001C11.6285 31.228 11.7422 31.2169 11.8387 31.2723C12.9021 31.8825 14.0393 32.3551 15.2186 32.6763C15.3358 32.7086 15.415 32.8055 15.415 32.9175V34.8132C15.415 35.873 16.277 36.7345 17.3364 36.7345Z" fill="#D33234"/>
<path d="M21.883 11.2117C16.6773 9.22841 11.0283 13.0795 11.0283 18.6976C11.0283 23.2815 14.8958 26.9631 19.5125 26.6914C20.6369 26.625 20.532 24.9272 19.4125 24.9949C15.7512 25.2095 12.7271 22.2881 12.7271 18.6976C12.7271 14.2836 17.1694 11.2338 21.2776 12.7999C22.329 13.2003 22.9321 11.6122 21.883 11.2117Z" fill="#D33234"/>
<path d="M48.0155 38.389L39.407 36.715V34.5879C41.8244 32.9387 43.1333 30.6031 43.4183 27.9799C44.6732 27.8804 45.6635 26.8277 45.6635 25.5479V23.8018C47.7092 22.9124 47.4331 19.9268 45.2688 19.4232V18.7493C45.2688 12.6901 40.3566 7.77783 34.2978 7.77783H33.3778C27.3186 7.77783 22.4068 12.6901 22.4068 18.7489V19.4232C20.2434 19.9264 19.9655 22.9124 22.0121 23.8018V25.5479C22.0121 26.8277 23.0024 27.8804 24.2574 27.9799C24.5061 30.2686 25.5787 32.3634 27.2708 33.8201C27.5947 34.0993 27.9275 34.3551 28.2687 34.5879V36.715L19.6602 38.389C15.1183 39.2722 11.5783 41.8326 11.5783 46.5567C11.5783 50.5914 11.5785 54.626 11.5781 58.6606H56.0002C56.2523 54.6402 56.0974 50.5824 56.0974 46.5567C56.0974 41.8481 52.579 39.2762 48.0155 38.389ZM40.9438 38.7448C40.3269 39.6417 39.384 41.0108 38.3653 42.4853C37.9502 43.0866 37.2055 43.1632 36.9143 42.9888L35.5722 42.1839C36.8811 41.4109 38.6923 40.0833 39.2419 38.4138L40.9438 38.7448ZM33.8376 41.1931C32.5473 40.5435 29.975 38.9386 29.9679 37.4217C29.9679 37.4195 29.9679 37.4173 29.9679 37.415V35.526C32.4406 36.5924 35.2319 36.5938 37.7077 35.526V37.415C37.7077 38.9346 35.1293 40.5431 33.8376 41.1931ZM24.106 18.7489C24.106 15.2637 26.0389 12.2215 28.8891 10.6382V11.7033C28.8891 12.8264 30.5883 12.8281 30.5883 11.7033V9.90584C31.3507 9.66467 32.1552 9.51997 32.988 9.48546V13.6866C32.988 14.8097 34.6872 14.8114 34.6872 13.6866V9.48546C35.52 9.51997 36.3249 9.66467 37.0874 9.90584V11.7033C37.0874 12.8264 38.7866 12.8281 38.7866 11.7033V10.6382C41.6367 12.2215 43.5696 15.2637 43.5696 18.7489V19.3631H24.106V18.7489ZM22.9316 21.0623H44.744C45.5582 21.0623 45.5573 22.2929 44.744 22.2929H22.9316C22.117 22.2929 22.1179 21.0623 22.9316 21.0623ZM25.9026 27.1197C25.8929 26.6577 25.5154 26.2883 25.053 26.2883C24.9114 26.2533 23.7109 26.5091 23.7109 25.5479V23.9925H43.9643V25.5479C43.9643 26.5073 42.7319 26.2613 42.6222 26.2883C42.1602 26.2883 41.7828 26.6577 41.7726 27.1197C41.727 29.2437 40.8243 31.2164 39.2963 32.5324C36.0515 35.3264 31.6242 35.3269 28.3793 32.5324C26.8509 31.2164 25.9482 29.2437 25.9026 27.1197ZM28.4333 38.4138C28.9833 40.0833 30.7941 41.4109 32.1034 42.1839C30.7582 42.9043 30.8533 43.1198 30.2422 43.0477C29.8621 43.0021 29.521 42.7906 29.3033 42.4755C28.2873 41.0046 27.3474 39.6395 26.7314 38.7448L28.4333 38.4138ZM18.6305 56.9614H13.2771C13.2771 53.4932 13.2771 50.025 13.2771 46.5567C13.2771 44.0106 14.4338 42.2503 16.9711 41.0343C17.0737 41.4865 18.6305 45.712 18.6305 51.6163V56.9614ZM32.988 56.9614H20.3297V51.6163C20.3297 45.2191 18.7146 41.0998 18.5557 40.4024C19.5478 40.0727 18.811 40.3267 24.9127 39.0983C26.6664 41.6467 29.9391 46.4014 31.8685 49.1436C32.6012 50.1848 32.988 51.4079 32.988 52.681V56.9614ZM33.8376 49.1277C33.6686 48.7963 33.4752 48.475 33.2584 48.1661C32.6061 47.2395 31.7596 46.0235 30.8764 44.7487C31.1388 44.6907 31.395 44.5898 31.6353 44.446L33.8376 43.1251L36.0404 44.446C36.2802 44.5898 36.5369 44.6907 36.7993 44.7487C35.916 46.0226 35.0695 47.2386 34.4173 48.1661C34.2 48.475 34.0066 48.7963 33.8376 49.1277ZM54.3981 56.9614H49.0447V53.7559C49.0447 52.6328 47.3455 52.631 47.3455 53.7559V56.9614H34.6872V52.681C34.6872 51.4079 35.0744 50.1848 35.8067 49.1441C36.9042 47.5842 41.4226 41.0639 42.7629 39.0983C48.8615 40.3263 48.1261 40.0723 49.1195 40.4024C48.996 40.925 47.5663 44.8106 47.369 50.3225C47.3282 51.4482 49.0266 51.5035 49.0668 50.3835C49.258 45.0496 50.5665 41.6175 50.7041 41.0343C53.2414 42.2503 54.3981 44.0106 54.3981 46.5563C54.3981 50.0247 54.3981 53.493 54.3981 56.9614Z" fill="#333333"/>
</g>
<defs>
<clipPath id="clip0">
<path d="M0 0.660645H58V58.6606H0V0.660645Z" fill="white"/>
</clipPath>
</defs>
</svg>
