<svg width="25" height="24" viewBox="0 0 25 24" fill="none" xmlns="http://www.w3.org/2000/svg">
<path d="M22.6578 5.25464H18.787V4.11795C18.787 3.90863 18.6214 3.73899 18.4172 3.73899H18.0967V3.20836C18.0967 1.43923 16.692 0 14.9654 0H10.0346C8.30803 0 6.90346 1.43923 6.90346 3.20836V3.73899H6.58283C6.37856 3.73899 6.213 3.90863 6.213 4.11795V5.25483H4.80156C4.59728 5.25483 4.43172 5.42447 4.43172 5.6336C4.43172 5.84291 4.59728 6.01256 4.80156 6.01256H22.6578C23.5415 6.01256 24.2603 6.74937 24.2603 7.65485V10.9895C24.2603 11.7726 23.716 12.4502 22.97 12.6003L14.0438 14.295H10.956L2.03381 12.6009C1.28403 12.4502 0.73967 11.7726 0.73967 10.9895V7.65465C0.73967 6.74918 1.45855 6.01256 2.34222 6.01256H3.08495C3.28922 6.01256 3.45478 5.84291 3.45478 5.6336C3.45478 5.42428 3.28922 5.25464 3.08495 5.25464H2.34222C1.05076 5.25464 0 6.33132 0 7.65465V10.9895C0 11.7841 0.383759 12.5041 0.986099 12.9443V21.6C0.986099 22.9233 2.03686 24 3.32832 24H17.8501C18.0544 24 18.2199 23.8304 18.2199 23.621C18.2199 23.4117 18.0544 23.2421 17.8501 23.2421H3.32832C2.44465 23.2421 1.72577 22.5055 1.72577 21.6V13.3041C1.78146 13.3197 1.83792 13.3338 1.89533 13.3453L10.5522 14.989V18.9686C10.5522 19.1343 10.6573 19.2807 10.8118 19.3301L12.3898 19.8355C12.4256 19.8469 12.4628 19.8527 12.5 19.8527C12.5372 19.8527 12.5744 19.8469 12.6102 19.8355L14.1882 19.3301C14.3427 19.2807 14.4478 19.1343 14.4478 18.9686V14.989L23.1085 13.3447C23.1646 13.3334 23.2197 13.3195 23.2742 13.3045V21.6C23.2742 22.5057 22.5554 23.2421 21.6717 23.2421H19.5801C19.3758 23.2421 19.2102 23.4117 19.2102 23.621C19.2102 23.8304 19.3758 24 19.5801 24H21.6717C22.9631 24 24.0137 22.9233 24.0137 21.6V12.9449C24.6157 12.5051 25 11.7845 25 10.9895V7.65465C25 6.33132 23.9492 5.25464 22.6578 5.25464ZM7.64294 3.20836C7.64294 1.85708 8.71582 0.757922 10.0346 0.757922H14.9654C16.2842 0.757922 17.3571 1.85708 17.3571 3.20836V3.73899H16.5188V3.20836C16.5188 2.33083 15.8218 1.61689 14.9654 1.61689H14.1457C13.9414 1.61689 13.7758 1.78653 13.7758 1.99565C13.7758 2.20497 13.9414 2.37461 14.1457 2.37461H14.9654C15.414 2.37461 15.7791 2.74869 15.7791 3.20836V3.73899H15.4585C15.2542 3.73899 15.0887 3.90863 15.0887 4.11795V5.25483H9.91116V4.11795C9.91116 3.90863 9.7456 3.73899 9.54132 3.73899H9.22089V3.20836C9.22089 2.74869 9.58595 2.37461 10.0346 2.37461H12.426C12.6303 2.37461 12.7958 2.20497 12.7958 1.99565C12.7958 1.78653 12.6303 1.61689 12.426 1.61689H10.0346C9.17816 1.61689 8.48122 2.33083 8.48122 3.20836V3.73899H7.64294V3.20836ZM6.95267 5.25464V4.49671H9.17168V5.25464H6.95267ZM15.8283 5.25464V4.49671H18.0473V5.25464H15.8283ZM11.2919 15.0527H13.7081V16.5179H11.2919V15.0527ZM13.7081 18.6899L12.5 19.0768L11.2919 18.6899V17.2758H13.7081V18.6899Z" fill="#333333"/>
</svg>
