<svg xmlns="http://www.w3.org/2000/svg">
	<symbol viewBox="0 0 32 32" id="social-fb">
		<path d="M31.5 16C31.5 24.5604 24.5604 31.5 16 31.5C7.43959 31.5 0.5 24.5604 0.5 16C0.5 7.43959 7.43959 0.5 16 0.5C24.5604 0.5 31.5 7.43959 31.5 16Z" stroke="#999BA2" fill="none" stroke-miterlimit="10"/>
		<path d="M16.9 24.9V16.3H20L20.5 12.7H17V10.7C17 9.8 17.3 9.2 18.6 9.2H20.6V6.1C20.3 6.1 19.2 6 17.9 6C15.2 6 13.4 7.6 13.4 10.5V12.7H10.5V16.3H13.4V24.9H16.9Z" fill="#999BA2"/>
	</symbol>
	<symbol viewBox="0 0 32 32" id="social-vk">
		<path d="M16 1C24.3 1 31 7.7 31 16C31 24.3 24.3 31 16 31C7.7 31 1 24.3 1 16C1 7.7 7.7 1 16 1ZM16 0C7.2 0 0 7.2 0 16C0 24.8 7.2 32 16 32C24.8 32 32 24.8 32 16C32 7.2 24.8 0 16 0Z" fill="#999BA2"/>
		<path fill-rule="evenodd" clip-rule="evenodd" d="M25.6606 12.6723C25.7546 12.2521 25.6606 12 25.0021 12H22.8385C22.2741 12 21.9919 12.2521 21.8978 12.5042C21.8978 12.5042 20.7689 14.7731 19.1698 16.2857C18.6994 16.7059 18.4172 16.8739 18.135 16.8739C18.0409 16.8739 17.7587 16.7059 17.7587 16.3697V12.6723C17.7587 12.1681 17.5706 12 17.1002 12H13.6196C13.2434 12 13.0552 12.2521 13.0552 12.4202C13.0552 12.8403 13.8078 13.0084 13.9019 14.2689V17.042C13.9019 17.6303 13.8078 17.7143 13.5256 17.7143C12.773 17.7143 10.9857 15.3613 9.85686 12.7563C9.66872 12.2521 9.48058 12 8.91616 12H6.75256C6.09407 12 6 12.2521 6 12.5042C6 13.0084 6.75256 15.4454 9.48058 18.6387C11.2679 20.8235 13.8078 22 16.1595 22C17.5706 22 17.7587 21.7479 17.7587 21.2437V19.563C17.7587 19.0588 17.8528 18.8908 18.3231 18.8908C18.6053 18.8908 19.1698 19.0588 20.4867 20.0672C21.9919 21.3277 22.18 21.916 23.0266 21.916H25.1902C25.8487 21.916 26.1309 21.6639 25.9428 21.1597C25.7546 20.6555 25.0021 19.8992 24.0614 18.9748C23.591 18.4706 22.7444 17.8824 22.5563 17.6303C22.2741 17.2941 22.3681 17.1261 22.5563 16.7899C22.6503 16.958 25.3784 13.7647 25.6606 12.6723Z" fill="#999BA2"/>
	</symbol>
	<symbol viewBox="0 0 32 32" id="social-inst">
		<path d="M16 1C24.3 1 31 7.7 31 16C31 24.3 24.3 31 16 31C7.7 31 1 24.3 1 16C1 7.7 7.7 1 16 1ZM16 0C7.2 0 0 7.2 0 16C0 24.8 7.2 32 16 32C24.8 32 32 24.8 32 16C32 7.2 24.8 0 16 0Z" fill="#999BA2"/>
		<path d="M16.0001 9.5001C18.1001 9.5001 18.4001 9.5001 19.2001 9.5001C20.0001 9.5001 20.4001 9.7001 20.7001 9.8001C21.1001 9.9001 21.3001 10.1001 21.6001 10.4001C21.9001 10.7001 22.0001 10.9001 22.2001 11.3001C22.3001 11.6001 22.4001 12.0001 22.5001 12.8001C22.5001 13.6001 22.5001 13.9001 22.5001 16.0001C22.5001 18.1001 22.5001 18.4001 22.5001 19.2001C22.5001 20.0001 22.3001 20.4001 22.2001 20.7001C22.1001 21.1001 21.9001 21.3001 21.6001 21.6001C21.3001 21.9001 21.1001 22.0001 20.7001 22.2001C20.4001 22.3001 20.0001 22.4001 19.2001 22.5001C18.4001 22.5001 18.1001 22.5001 16.0001 22.5001C13.9001 22.5001 13.6001 22.5001 12.8001 22.5001C12.0001 22.5001 11.6001 22.3001 11.3001 22.2001C10.9001 22.1001 10.7001 21.9001 10.4001 21.6001C10.1001 21.3001 10.0001 21.1001 9.8001 20.7001C9.7001 20.4001 9.6001 20.0001 9.5001 19.2001C9.5001 18.4001 9.5001 18.1001 9.5001 16.0001C9.5001 13.9001 9.5001 13.6001 9.5001 12.8001C9.5001 12.0001 9.7001 11.6001 9.8001 11.3001C9.9001 10.9001 10.1001 10.7001 10.4001 10.4001C10.7001 10.1001 10.9001 10.0001 11.3001 9.8001C11.6001 9.7001 12.0001 9.6001 12.8001 9.5001C13.6001 9.6001 13.9001 9.5001 16.0001 9.5001ZM16.0001 8.1001C13.9001 8.1001 13.6001 8.1001 12.8001 8.1001C12.0001 8.1001 11.4001 8.3001 10.9001 8.5001C10.4001 8.7001 9.9001 9.0001 9.5001 9.4001C9.0001 9.9001 8.7001 10.3001 8.5001 10.8001C8.3001 11.3001 8.2001 11.9001 8.1001 12.7001C8.1001 13.5001 8.1001 13.8001 8.1001 15.9001C8.1001 18.0001 8.1001 18.3001 8.1001 19.1001C8.1001 19.9001 8.3001 20.5001 8.5001 21.0001C8.7001 21.5001 9.0001 22.0001 9.4001 22.4001C9.8001 22.8001 10.3001 23.1001 10.8001 23.3001C11.3001 23.5001 11.9001 23.6001 12.7001 23.7001C13.5001 23.7001 13.8001 23.7001 15.9001 23.7001C18.0001 23.7001 18.3001 23.7001 19.1001 23.7001C19.9001 23.7001 20.5001 23.5001 21.0001 23.3001C21.5001 23.1001 22.0001 22.8001 22.4001 22.4001C22.8001 22.0001 23.1001 21.5001 23.3001 21.0001C23.5001 20.5001 23.6001 19.9001 23.7001 19.1001C23.7001 18.3001 23.7001 18.0001 23.7001 15.9001C23.7001 13.8001 23.7001 13.5001 23.7001 12.7001C23.7001 11.9001 23.5001 11.3001 23.3001 10.8001C23.1001 10.3001 22.8001 9.8001 22.4001 9.4001C22.0001 9.0001 21.5001 8.7001 21.0001 8.5001C20.5001 8.3001 19.9001 8.2001 19.1001 8.1001C18.4001 8.1001 18.1001 8.1001 16.0001 8.1001Z" fill="#999BA2"/>
		<path d="M16 12C13.8 12 12 13.8 12 16C12 18.2 13.8 20 16 20C18.2 20 20 18.2 20 16C20 13.8 18.2 12 16 12ZM16 18.6C14.5 18.6 13.4 17.4 13.4 16C13.4 14.5 14.6 13.4 16 13.4C17.5 13.4 18.6 14.6 18.6 16C18.6 17.5 17.5 18.6 16 18.6Z" fill="#999BA2"/>
		<path d="M21.1999 11.7999C21.1999 12.2999 20.7999 12.6999 20.2999 12.6999C19.7999 12.6999 19.3999 12.2999 19.3999 11.7999C19.3999 11.2999 19.7999 10.8999 20.2999 10.8999C20.6999 10.8999 21.1999 11.2999 21.1999 11.7999Z" fill="#999BA2"/>
	</symbol>
	<symbol viewBox="0 0 32 32" id="social-tw">
		<path d="M23.9865 11.6434C23.5506 12.2945 23.0102 12.857 22.3805 13.3165C22.3855 13.4427 22.3879 13.5692 22.3879 13.6967C22.3879 18.2698 18.8996 23 13.0615 23C11.2767 23 9.53927 22.492 8.03664 21.5308C8.00541 21.5109 7.99205 21.4722 8.00479 21.4374C8.01732 21.4027 8.05287 21.3814 8.08882 21.3853C8.34131 21.4152 8.59874 21.4302 8.85493 21.4302C10.2433 21.4302 11.5578 21.0021 12.6695 20.1897C11.3367 20.0776 10.1914 19.1777 9.77924 17.8946C9.77081 17.8678 9.77698 17.8391 9.79567 17.8177C9.81416 17.7966 9.84272 17.7878 9.87004 17.7925C10.2392 17.8626 10.6146 17.8667 10.9768 17.8085C9.60235 17.3823 8.63613 16.0981 8.63613 14.6359L8.63654 14.5933C8.63716 14.5654 8.65236 14.54 8.67619 14.5265C8.70043 14.5125 8.73043 14.5123 8.75447 14.5258C9.11256 14.7242 9.5099 14.8519 9.91627 14.9005C9.12653 14.2725 8.66263 13.3206 8.66263 12.3023C8.66263 11.7147 8.81877 11.137 9.11338 10.6324C9.12653 10.6101 9.14995 10.5951 9.17604 10.5935C9.20214 10.5908 9.22741 10.6021 9.24364 10.6226C10.8605 12.6005 13.2383 13.8186 15.7812 13.975C15.7384 13.7618 15.7171 13.5425 15.7171 13.321C15.7171 11.4897 17.2109 10 19.0465 10C19.9497 10 20.8214 10.3701 21.4464 11.0165C22.1515 10.8732 22.8222 10.6148 23.4423 10.248C23.4708 10.2312 23.5064 10.2338 23.5323 10.2541C23.558 10.2748 23.5684 10.309 23.5582 10.3404C23.3484 10.996 22.9381 11.5678 22.3879 11.9807C22.9063 11.8908 23.4098 11.7385 23.8881 11.527C23.9204 11.5122 23.9584 11.5215 23.9812 11.5483C24.004 11.5754 24.0064 11.6139 23.9865 11.6434Z" fill="#828282"/>
		<path d="M16 1C24.3 1 31 7.7 31 16C31 24.3 24.3 31 16 31C7.7 31 1 24.3 1 16C1 7.7 7.7 1 16 1ZM16 0C7.2 0 0 7.2 0 16C0 24.8 7.2 32 16 32C24.8 32 32 24.8 32 16C32 7.2 24.8 0 16 0Z" fill="#828282"/>
	</symbol>
	<symbol viewBox="0 0 32 32" id="social-ok">
		<path fill-rule="evenodd" clip-rule="evenodd" d="M16.0179 8.00002C18.3477 8.00567 20.2183 9.83722 20.2067 12.1012C20.1943 14.3127 18.2933 16.1054 15.9672 16.0979C13.6642 16.0903 11.7758 14.256 11.7889 12.0397C11.8026 9.79914 13.6923 7.99332 16.0179 8.00002ZM16 14.2609C17.1835 14.2609 18.1429 13.3265 18.1429 12.1739C18.1429 11.0213 17.1835 10.087 16 10.087C14.8165 10.087 13.8571 11.0213 13.8571 12.1739C13.8571 13.3265 14.8165 14.2609 16 14.2609Z" fill="#828282"/>
		<path d="M20.7374 17.6884C20.2222 18.197 19.602 18.5644 18.913 18.8215C18.2617 19.0634 17.5481 19.186 16.8417 19.2672L16.9035 19.332C16.9708 19.4027 17.013 19.447 17.0649 19.4978C17.4102 19.831 17.7559 20.1638 18.1016 20.4966L18.1022 20.4972C18.7167 21.0886 19.3311 21.6801 19.9426 22.2742C20.2679 22.5903 20.3367 22.9826 20.1571 23.3506C19.9609 23.7534 19.5221 24.0176 19.0914 23.9892C18.8188 23.9708 18.6062 23.8404 18.4176 23.6582C18.1782 23.4267 17.9374 23.1967 17.6965 22.9667C17.2091 22.5013 16.7219 22.0361 16.2477 21.5595C16.0415 21.3519 15.9422 21.3906 15.7597 21.5712C15.0317 22.2913 14.2924 23.0004 13.5483 23.7053C13.2141 24.022 12.8167 24.0787 12.4284 23.8982C12.0164 23.7063 11.7547 23.3023 11.7749 22.8958C11.7889 22.6213 11.9295 22.4116 12.1257 22.2233C12.8914 21.4885 13.6557 20.7521 14.4199 20.0159L14.9675 19.4883C15.0071 19.4504 15.0448 19.4108 15.0901 19.3633C15.1168 19.3353 15.1462 19.3044 15.18 19.2697C13.8889 19.1402 12.7248 18.8351 11.7285 18.0861C11.7035 18.0672 11.6783 18.0485 11.6531 18.0297C11.5538 17.9559 11.4543 17.8819 11.364 17.7988C10.9281 17.3963 10.8843 16.9358 11.2294 16.4606C11.5243 16.0543 12.0203 15.9451 12.5353 16.1784C12.6353 16.2234 12.7302 16.2801 12.8213 16.3406C14.6783 17.5666 17.2298 17.6007 19.094 16.3962C19.2784 16.2608 19.4759 16.1487 19.705 16.093C20.1503 15.9832 20.5645 16.1399 20.8036 16.514C21.0773 16.9402 21.0736 17.357 20.7374 17.6884Z" fill="#828282"/>
		<path d="M16 1C24.3 1 31 7.7 31 16C31 24.3 24.3 31 16 31C7.7 31 1 24.3 1 16C1 7.7 7.7 1 16 1ZM16 0C7.2 0 0 7.2 0 16C0 24.8 7.2 32 16 32C24.8 32 32 24.8 32 16C32 7.2 24.8 0 16 0Z" fill="#828282"/>
	</symbol>

	<symbol viewBox="0 0 32 32" id="social-pn">
		<path d="M17.1958 19.5636C16.234 19.5636 15.3297 19.0272 15.0203 18.418C15.0203 18.418 14.503 20.5352 14.3943 20.9439C14.0088 22.3879 12.8749 23.8331 12.7871 23.9516C12.7252 24.0338 12.5897 24.0081 12.5756 23.8988C12.5511 23.7148 12.2616 21.8925 12.6021 20.4065C12.7726 19.6599 13.7473 15.3986 13.7473 15.3986C13.7473 15.3986 13.4632 14.8119 13.4632 13.9441C13.4632 12.5823 14.2284 11.5653 15.1805 11.5653C15.9903 11.5653 16.3812 12.1929 16.3812 12.9452C16.3812 13.7854 15.8629 15.0419 15.5955 16.2061C15.3721 17.1815 16.0686 17.9765 17.0002 17.9765C18.687 17.9765 19.8229 15.7399 19.8229 13.0902C19.8229 11.0763 18.5097 9.56824 16.119 9.56824C13.4188 9.56824 11.735 11.6474 11.735 13.97C11.735 14.7706 11.9642 15.3358 12.3229 15.7724C12.4873 15.9732 12.5105 16.054 12.4509 16.2846C12.4073 16.454 12.3102 16.8607 12.2694 17.0219C12.2099 17.255 12.0273 17.3384 11.8233 17.2521C10.5798 16.728 10 15.322 10 13.7412C10 11.1307 12.1331 8 16.3633 8C19.7628 8 22 10.5388 22 13.2648C21.9996 16.8699 20.0575 19.5636 17.1958 19.5636Z" fill="#828282"/>
		<path d="M16 1C24.3 1 31 7.7 31 16C31 24.3 24.3 31 16 31C7.7 31 1 24.3 1 16C1 7.7 7.7 1 16 1ZM16 0C7.2 0 0 7.2 0 16C0 24.8 7.2 32 16 32C24.8 32 32 24.8 32 16C32 7.2 24.8 0 16 0Z" fill="#828282"/>
	</symbol>

	<symbol viewBox="0 0 32 32" id="social-ml">
		<path fill-rule="evenodd" clip-rule="evenodd" d="M10.2477 14.0824C10.4122 14.196 10.9079 14.5334 11.7349 15.0945C12.5619 15.6556 13.1955 16.0876 13.6356 16.3905C13.6839 16.4237 13.7867 16.4959 13.9438 16.6072C14.101 16.7185 14.2316 16.8085 14.3355 16.8772C14.4395 16.9458 14.5652 17.0227 14.7128 17.1079C14.8603 17.1931 14.9994 17.2571 15.13 17.2995C15.2606 17.3422 15.3815 17.3634 15.4927 17.3634H15.5073C15.6185 17.3634 15.7395 17.3422 15.8701 17.2995C16.0006 17.2571 16.1398 17.193 16.2872 17.1079C16.4347 17.0226 16.5604 16.9457 16.6644 16.8772C16.7684 16.8085 16.8989 16.7185 17.0561 16.6072C17.2133 16.4958 17.3161 16.4237 17.3645 16.3905C17.8093 16.0876 18.9411 15.3181 20.7595 14.0823C21.1125 13.8409 21.4075 13.5496 21.6444 13.2087C21.8815 12.8679 22 12.5104 22 12.1364C22 11.8239 21.8851 11.5563 21.6553 11.3338C21.4256 11.1112 21.1535 11 20.8392 11H10.1607C9.78829 11 9.50173 11.1231 9.30102 11.3693C9.10034 11.6155 9 11.9233 9 12.2925C9 12.5908 9.13304 12.9141 9.399 13.2621C9.66493 13.6101 9.94794 13.8836 10.2477 14.0824ZM21.2744 14.8423C19.6883 15.8933 18.4839 16.7102 17.6618 17.2926C17.3862 17.4914 17.1626 17.6466 16.9908 17.7578C16.8191 17.869 16.5907 17.9827 16.3053 18.0986C16.02 18.2147 15.7541 18.2726 15.5074 18.2726H15.4927C15.2461 18.2726 14.98 18.2147 14.6947 18.0986C14.4095 17.9827 14.1809 17.869 14.0092 17.7578C13.8376 17.6466 13.6139 17.4914 13.3382 17.2926C12.6853 16.8239 11.4835 16.007 9.73277 14.8423C9.45703 14.6625 9.2128 14.4564 9 14.2244V19.8635C9 20.1762 9.1136 20.4436 9.34094 20.6661C9.56822 20.8887 9.84153 21 10.1607 21H20.8393C21.1585 21 21.4317 20.8887 21.6591 20.6661C21.8864 20.4435 22 20.1762 22 19.8635V14.2244C21.792 14.4516 21.5503 14.6577 21.2744 14.8423Z" fill="#828282"/>
		<path d="M16 1C24.3 1 31 7.7 31 16C31 24.3 24.3 31 16 31C7.7 31 1 24.3 1 16C1 7.7 7.7 1 16 1ZM16 0C7.2 0 0 7.2 0 16C0 24.8 7.2 32 16 32C24.8 32 32 24.8 32 16C32 7.2 24.8 0 16 0Z" fill="#828282"/>
	</symbol>

	<symbol viewBox="0 0 32 32" id="social-google">
		<path d="M16 1C24.3 1 31 7.7 31 16C31 24.3 24.3 31 16 31C7.7 31 1 24.3 1 16C1 7.7 7.7 1 16 1ZM16 0C7.2 0 0 7.2 0 16C0 24.8 7.2 32 16 32C24.8 32 32 24.8 32 16C32 7.2 24.8 0 16 0Z" fill="#828282"/>
		<path d="M23.6 14.4V12H22.4V14.4H20V15.6H22.4V18H23.6V15.6H26V14.4H23.6Z" fill="#828282"/>
		<path d="M12 14.8V17.2H15.3948C14.8992 18.5968 13.5648 19.6 12 19.6C10.0152 19.6 8.4 17.9848 8.4 16C8.4 14.0152 10.0152 12.4 12 12.4C12.8604 12.4 13.6884 12.7084 14.3316 13.2688L15.9084 11.4592C14.8284 10.5184 13.4412 10 12 10C8.6916 10 6 12.6916 6 16C6 19.3084 8.6916 22 12 22C15.3084 22 18 19.3084 18 16V14.8H12Z" fill="#828282"/>
	</symbol>


	<symbol viewBox="0 0 13 12" id="rating-star">
		<path d="M6.5 0L8.6693 3.73549L13 4.58359L10.01 7.74035L10.5172 12L6.5 10.2155L2.48278 12L2.99 7.74035L0 4.58359L4.3307 3.73549L6.5 0Z"/>
	</symbol>
	<symbol viewBox="0 0 11 7" id="small-arrow-down">
		<path d="M9.5 1.5L5.5 5.5L1.5 1.5" stroke="#545863" fill="none" stroke-width="2"/>
	</symbol>
	<symbol viewBox="0 0 10 6" id="city-choose-arrow">
		<path d="M9 0.999994L5 4.99999L1 0.999994" fill="none" stroke="#E5E5E6"/>
	</symbol>
	<symbol viewBox="0 0 17 17" fill="none" id="search-submit">
		<path d="M6.625 12.25C9.7316 12.25 12.25 9.7316 12.25 6.625C12.25 3.5184 9.7316 1 6.625 1C3.5184 1 1 3.5184 1 6.625C1 9.7316 3.5184 12.25 6.625 12.25Z" stroke-width="2" stroke-miterlimit="10"/>
		<path d="M10.375 10.375L16 16" stroke-width="2" stroke-miterlimit="10"/>
	</symbol>
	<symbol viewBox="0 0 17 16" id="basket-delay">
		<path d="M8.5 1.64833L11.0146 4.94334L11.1988 5.18467L11.486 5.28288L15.4129 6.62563L13.0381 9.98973L12.8609 10.2406L12.8552 10.5477L12.7782 14.6617L8.78858 13.4592L8.5 13.3722L8.21142 13.4592L4.22183 14.6617L4.14482 10.5477L4.13908 10.2406L3.96194 9.98973L1.58706 6.62563L5.51397 5.28288L5.80121 5.18467L5.98538 4.94334L8.5 1.64833Z" stroke-width="2"/>
	</symbol>
	<symbol viewBox="0 0 17 16" id="basket-compare">
		<rect y="8" width="2" height="8"/>
		<rect x="15" y="12" width="2" height="4"/>
		<rect x="10" y="4" width="2" height="12"/>
		<rect x="5" width="2" height="16"/>
	</symbol>
	<symbol viewBox="0 0 16 16" fill="none" id="user">
		<circle cx="8" cy="5" r="4" stroke-width="2"/>
		<path d="M15 16C15 12.134 11.866 9 8 9C4.13401 9 1 12.134 1 16" stroke-width="2"/>
	</symbol>
	<symbol  viewBox="0 0 18 20" id="basket">
		<path d="M5.66366 12.8516H15.366C16.4661 12.8516 17.3636 11.9342 17.3636 10.8096V6.63669C17.3636 6.63299 17.3636 6.62559 17.3636 6.62189C17.3636 6.6108 17.3636 6.6034 17.3636 6.5923C17.3636 6.5849 17.3636 6.5775 17.36 6.5701C17.36 6.5627 17.3564 6.55161 17.3564 6.54421C17.3564 6.53681 17.3528 6.52941 17.3528 6.52201C17.3492 6.51461 17.3492 6.50721 17.3455 6.49611C17.3419 6.48872 17.3419 6.48132 17.3383 6.47392C17.3347 6.46652 17.3347 6.45912 17.3311 6.45172C17.3274 6.44432 17.3238 6.43693 17.3202 6.42583C17.3166 6.41843 17.313 6.41103 17.3094 6.40733C17.3057 6.39993 17.3021 6.39253 17.2985 6.38513C17.2949 6.37773 17.2913 6.37404 17.2876 6.36664C17.284 6.35924 17.2768 6.35184 17.2732 6.34444C17.2695 6.33704 17.2659 6.33334 17.2587 6.32594C17.2551 6.31854 17.2478 6.31485 17.2442 6.30745C17.2406 6.30005 17.2334 6.29635 17.2297 6.28895C17.2261 6.28155 17.2189 6.27785 17.2153 6.27415C17.208 6.26675 17.2044 6.26305 17.1972 6.25566C17.1899 6.25196 17.1863 6.24456 17.1791 6.24086C17.1718 6.23716 17.1646 6.22976 17.1574 6.22606C17.1501 6.22236 17.1465 6.21866 17.1393 6.21496C17.132 6.21126 17.1248 6.20756 17.1175 6.20016C17.1103 6.19647 17.1031 6.19277 17.0958 6.18907C17.0886 6.18537 17.0814 6.18167 17.0741 6.17797C17.0669 6.17427 17.0596 6.17057 17.0524 6.16687C17.0452 6.16317 17.0379 6.16317 17.0307 6.15947C17.0235 6.15577 17.0126 6.15207 17.0054 6.15207C16.9981 6.15207 16.9909 6.14837 16.9873 6.14837C16.9764 6.14467 16.9692 6.14467 16.9583 6.14467C16.9547 6.14467 16.9511 6.14097 16.9438 6.14097L4.64674 4.40597V2.65246C4.64674 2.63397 4.64674 2.61547 4.64312 2.60067C4.64312 2.59697 4.64312 2.59327 4.63951 2.58588C4.63951 2.57478 4.63589 2.56368 4.63589 2.55258C4.63227 2.54148 4.63227 2.53408 4.62865 2.52299C4.62865 2.51559 4.62503 2.51189 4.62503 2.50449C4.62141 2.49339 4.61779 2.48229 4.61417 2.47119C4.61417 2.4675 4.61055 2.4601 4.61055 2.4564C4.60693 2.4453 4.60332 2.4379 4.59608 2.4268C4.59246 2.4231 4.59246 2.4157 4.58884 2.412C4.58522 2.40461 4.5816 2.39721 4.57436 2.38981C4.57075 2.38241 4.56713 2.37871 4.56351 2.37131C4.55989 2.36391 4.55627 2.36021 4.55265 2.35281C4.54903 2.34542 4.54179 2.33802 4.53818 2.33062C4.53456 2.32692 4.53094 2.32322 4.52732 2.31952C4.52008 2.31212 4.51284 2.30472 4.50561 2.29732C4.50199 2.29362 4.49837 2.28993 4.49475 2.28623C4.48751 2.27883 4.48027 2.27143 4.46942 2.26403C4.4658 2.26033 4.45856 2.25663 4.45494 2.25293C4.4477 2.24553 4.44046 2.24183 4.43323 2.23443C4.42237 2.22704 4.41151 2.21964 4.40428 2.21594C4.40066 2.21224 4.39704 2.21224 4.39342 2.20854C4.37894 2.20114 4.36085 2.19374 4.34637 2.18634L1.67923 1.03954C1.42952 0.932255 1.14363 1.05064 1.03868 1.30589C0.933728 1.56115 1.04953 1.8534 1.29924 1.96068L3.66602 2.98171V5.24573V5.60457V8.3569V10.817V13.9245C3.66602 14.9603 4.42599 15.8185 5.40672 15.948C5.22939 16.2514 5.12444 16.6065 5.12444 16.9838C5.12444 18.0974 6.01108 19 7.09675 19C8.18243 19 9.06907 18.0937 9.06907 16.9838C9.06907 16.6139 8.97136 16.2625 8.79765 15.9665H13.191C13.0173 16.2662 12.9196 16.6139 12.9196 16.9838C12.9196 18.0974 13.8062 19 14.8919 19C15.9776 19 16.8642 18.0937 16.8642 16.9838C16.8642 15.874 15.9776 14.9677 14.8919 14.9677H5.66366C5.09911 14.9677 4.64312 14.4979 4.64312 13.9245V12.5705C4.93988 12.7481 5.29091 12.8516 5.66366 12.8516ZM8.09558 16.9801C8.09558 17.5424 7.64683 17.9975 7.10037 17.9975C6.55391 17.9975 6.10517 17.5387 6.10517 16.9801C6.10517 16.4215 6.55391 15.9628 7.10037 15.9628C7.64683 15.9628 8.09558 16.4178 8.09558 16.9801ZM15.8907 16.9801C15.8907 17.5424 15.442 17.9975 14.8955 17.9975C14.3491 17.9975 13.9003 17.5387 13.9003 16.9801C13.9003 16.4215 14.3491 15.9628 14.8955 15.9628C15.442 15.9628 15.8907 16.4178 15.8907 16.9801ZM15.366 11.8528H5.66366C5.09911 11.8528 4.64312 11.383 4.64312 10.8096V8.3495V5.59717V5.4122L16.3865 7.06582V10.8059C16.3865 11.3867 15.9269 11.8528 15.366 11.8528Z"/>
	</symbol>
	<symbol viewBox="0 0 20 12" fill="none" id="header-dropdown">
		<path d="M19 1L10 10L1 1" stroke="white" stroke-width="2"/>
	</symbol>
	<symbol viewBox="0 0 73 22" fill="none" id="logo-mobile">
		<path fill-rule="evenodd" clip-rule="evenodd" d="M12.211 2.95248V14.4341H4.78539C5.18143 13.9749 5.47845 13.4172 5.70947 12.7611C5.94049 12.105 6.0725 11.3505 6.17151 10.4648C6.27052 9.57904 6.30352 8.52929 6.30352 7.31551V2.95248H12.211ZM0 14.4669V21.2247H3.10226V17.2882H13.9932V21.2247H17.0624V14.4669H15.5113V0.164078H3.10226V7.38112C3.10226 8.33246 3.06925 9.21819 3.00325 9.90709C2.97024 10.6288 2.83823 11.2849 2.70622 11.8098C2.60721 12.3674 2.4092 12.8595 2.17818 13.286C1.91416 13.7124 1.65014 14.1061 1.32011 14.4669H0Z" fill="white"/>
		<path fill-rule="evenodd" clip-rule="evenodd" d="M22.2968 12.2362C22.2968 13.2203 22.5938 13.9092 23.1548 14.3029C23.7489 14.7293 24.772 14.9262 26.1911 14.9262C26.9832 14.9262 27.6432 14.8605 28.1053 14.6965C28.6003 14.5653 28.9633 14.3029 29.2603 13.942C29.5244 13.5812 29.7554 13.0891 29.8544 12.4658C29.9534 11.8425 30.0194 11.0224 30.0194 10.0054H23.3859V7.54509H30.0854C30.0854 6.52814 30.0524 5.67522 29.9204 5.05193C29.8214 4.46145 29.6234 3.96937 29.3594 3.60852C29.0953 3.24767 28.6993 2.98523 28.2043 2.82121C27.7092 2.65718 27.0492 2.59157 26.2241 2.59157C25.201 2.59157 24.4419 2.68999 23.9139 2.88682C23.3859 3.08365 22.9898 3.41169 22.7918 3.87096C22.5608 4.33023 22.3958 5.01913 22.2968 5.90485H19.1615C19.2935 4.46145 19.5905 3.34608 19.9866 2.49316C20.4156 1.67304 21.0757 1.04975 22.0657 0.62329C23.0558 0.196828 24.4419 0 26.2901 0C28.0722 0 29.4914 0.262438 30.5145 0.787314C31.5375 1.31219 32.2636 2.16511 32.6926 3.37889C33.1217 4.55986 33.3527 6.2001 33.3527 8.33241C33.3527 10.3007 33.2537 11.8753 33.0557 12.9907C32.8576 14.1388 32.5276 15.0574 32.0326 15.6807C31.5375 16.3368 30.8445 16.796 29.9534 17.0585C29.0623 17.3209 27.8412 17.4521 26.2901 17.4521C24.508 17.4521 23.1218 17.2553 22.0657 16.8944C21.0097 16.5664 20.2176 16.0087 19.7556 15.287C19.2935 14.5653 19.0625 13.6468 19.0625 12.5314V11.7113H22.2638V12.2362H22.2968Z" fill="white"/>
		<path fill-rule="evenodd" clip-rule="evenodd" d="M44.0323 12.5643H41.8871C41.095 12.5643 40.501 12.4331 40.0389 12.1707C39.5769 11.9083 39.2469 11.4818 39.0158 10.8913C38.7848 10.3008 38.6858 9.54631 38.6858 8.59497C38.6858 7.64364 38.7848 6.85632 39.0158 6.26584C39.2469 5.67535 39.5769 5.24889 40.0389 4.95365C40.501 4.69121 41.128 4.52719 41.8871 4.52719H44.0653V12.5643H44.0323ZM44.0323 17.2554H47.2995V15.3528H49.3787C50.8968 15.3528 52.1509 15.1231 53.108 14.631C54.0651 14.1718 54.7911 13.4501 55.2532 12.4331C55.7152 11.449 55.9462 10.1368 55.9462 8.59497C55.9462 7.414 55.8142 6.39706 55.5502 5.51133C55.2862 4.6584 54.9232 3.9695 54.3621 3.41182C53.8341 2.85414 53.141 2.42768 52.3489 2.16524C51.5239 1.90281 50.5338 1.73878 49.3787 1.73878H47.2995V0.164154H44.0323V1.77159H42.1511C40.996 1.77159 39.9729 1.90281 39.1479 2.16524C38.2898 2.42768 37.5967 2.82134 37.0357 3.37902C36.4746 3.9367 36.0786 4.6256 35.7816 5.51133C35.5176 6.36425 35.3525 7.414 35.3525 8.62778C35.3525 10.2024 35.5836 11.4818 36.0786 12.4659C36.5406 13.4829 37.2667 14.2046 38.2238 14.6639C39.1809 15.1559 40.435 15.3856 41.9531 15.3856H44.0323V17.2554V17.2554ZM49.4777 4.55999C50.2698 4.55999 50.8968 4.69121 51.3589 4.98645C51.8209 5.24889 52.1509 5.70816 52.3489 6.29864C52.547 6.85632 52.646 7.67644 52.646 8.62778C52.646 10.0712 52.4149 11.0881 51.9199 11.6786C51.4579 12.3019 50.6328 12.5972 49.4777 12.5972H47.2995V4.55999H49.4777Z" fill="white"/>
		<path fill-rule="evenodd" clip-rule="evenodd" d="M61.4446 5.41288C61.5436 4.65837 61.7416 4.10069 62.0056 3.73983C62.2697 3.34618 62.6327 3.11654 63.1277 2.98532C63.6228 2.88691 64.3158 2.8213 65.2729 2.8213C66.197 2.8213 66.923 2.85411 67.4181 2.98532C67.9131 3.08374 68.2762 3.34618 68.5732 3.73983C68.8372 4.10069 69.0352 4.69117 69.1342 5.47849C69.2332 6.2658 69.2992 7.34836 69.2992 8.75896C69.2992 10.1696 69.2662 11.2521 69.1342 11.9738C69.0352 12.7283 68.8702 13.286 68.5732 13.7125C68.3092 14.1061 67.9131 14.3686 67.4181 14.4998C66.923 14.631 66.197 14.6966 65.2729 14.6966C64.3488 14.6966 63.6558 14.631 63.1277 14.4998C62.6327 14.3686 62.2366 14.1061 61.9726 13.7125C61.7086 13.3188 61.5106 12.7611 61.4116 11.9738C61.3126 11.2193 61.2796 10.1368 61.2796 8.72616C61.3126 7.28275 61.3456 6.16738 61.4446 5.41288ZM58.2433 13.0892C58.4413 14.2374 58.8044 15.1559 59.2994 15.7792C59.8274 16.4025 60.5535 16.8617 61.4776 17.1242C62.4017 17.3538 63.6888 17.485 65.2729 17.485C66.791 17.485 68.0121 17.3538 68.9362 17.0914C69.8603 16.8289 70.5864 16.3697 71.1474 15.7464C71.7084 15.1231 72.0715 14.2045 72.3025 13.0236C72.5335 11.8426 72.6325 10.3008 72.6325 8.3653C72.6325 6.69226 72.5335 5.31446 72.3025 4.26471C72.0715 3.18215 71.6754 2.36203 71.1474 1.73874C70.6194 1.11545 69.8603 0.656187 68.9362 0.426553C68.0121 0.131311 66.791 9.15527e-05 65.3059 9.15527e-05C63.7878 9.15527e-05 62.5667 0.131311 61.6426 0.426553C60.7185 0.688991 59.9595 1.14826 59.4314 1.73874C58.8704 2.36203 58.5073 3.18215 58.2763 4.2319C58.0453 5.31446 57.9463 6.65946 57.9463 8.3653C57.9463 10.3664 58.0453 11.941 58.2433 13.0892Z" fill="white"/>
	</symbol>
	<symbol viewBox="0 0 200 32" fill="none" id="logo-desktop">
		<path fill-rule="evenodd" clip-rule="evenodd" d="M46.5271 4.20416V20.5545H35.9528C36.5167 19.9005 36.9397 19.1063 37.2687 18.172C37.5977 17.2377 37.7856 16.1633 37.9266 14.9019C38.0676 13.6406 38.1146 12.1457 38.1146 10.4173V4.20416H46.5271ZM29.1382 20.6012V30.2245H33.5559V24.6187H49.065V30.2245H53.4357V20.6012H51.2268V0.233372H33.5559V10.5107C33.5559 11.8655 33.5089 13.1268 33.4149 14.1078C33.3679 15.1355 33.1799 16.0698 32.9919 16.8173C32.851 17.6114 32.569 18.3121 32.24 18.9194C31.864 19.5267 31.488 20.0873 31.0181 20.6012H29.1382Z" fill="white"/>
		<path fill-rule="evenodd" clip-rule="evenodd" d="M60.3442 17.4248C60.3442 18.8262 60.7672 19.8072 61.5662 20.3678C62.4121 20.9751 63.869 21.2554 65.8899 21.2554C67.0178 21.2554 67.9578 21.162 68.6157 20.9284C69.3207 20.7415 69.8377 20.3678 70.2606 19.854C70.6366 19.3401 70.9656 18.6394 71.1066 17.7518C71.2476 16.8642 71.3416 15.6963 71.3416 14.2481H61.8951V10.7445H71.4356C71.4356 9.29632 71.3886 8.08173 71.2006 7.19414C71.0596 6.35326 70.7776 5.65254 70.4016 5.13867C70.0257 4.6248 69.4617 4.25108 68.7567 4.01751C68.0518 3.78393 67.1118 3.6905 65.9369 3.6905C64.48 3.6905 63.3991 3.83065 62.6471 4.11094C61.8952 4.39123 61.3312 4.85838 61.0492 5.51239C60.7202 6.1664 60.4852 7.14742 60.3442 8.40873H55.8795C56.0675 6.35327 56.4905 4.76495 57.0544 3.55035C57.6654 2.38247 58.6053 1.49489 60.0153 0.887589C61.4252 0.280291 63.3991 0 66.0309 0C68.5687 0 70.5896 0.373722 72.0465 1.12116C73.5034 1.86861 74.5374 3.0832 75.1483 4.81166C75.7593 6.49341 76.0883 8.82917 76.0883 11.8657C76.0883 14.6686 75.9473 16.9109 75.6653 18.4992C75.3833 20.1342 74.9134 21.4423 74.2084 22.3299C73.5034 23.2642 72.5165 23.9182 71.2476 24.2919C69.9787 24.6656 68.2398 24.8525 66.0309 24.8525C63.4931 24.8525 61.5192 24.5722 60.0153 24.0583C58.5114 23.5912 57.3834 22.797 56.7255 21.7693C56.0675 20.7415 55.7385 19.4335 55.7385 17.8452V16.6773H60.2972V17.4248H60.3442Z" fill="white"/>
		<path fill-rule="evenodd" clip-rule="evenodd" d="M91.3153 17.8917H88.2605C87.1326 17.8917 86.2866 17.7048 85.6287 17.3311C84.9707 16.9574 84.5007 16.3501 84.1718 15.5092C83.8428 14.6684 83.7018 13.5939 83.7018 12.2392C83.7018 10.8844 83.8428 9.76327 84.1718 8.9224C84.5007 8.08152 84.9707 7.47423 85.6287 7.05379C86.2866 6.68007 87.1796 6.44649 88.2605 6.44649H91.3623V17.8917H91.3153ZM91.3153 24.572H95.968V21.8625H98.9289C101.091 21.8625 102.877 21.5355 104.24 20.8348C105.602 20.1808 106.636 19.153 107.294 17.7049C107.952 16.3034 108.281 14.4348 108.281 12.2392C108.281 10.5574 108.093 9.10926 107.717 7.84795C107.341 6.63335 106.824 5.65233 106.025 4.85817C105.273 4.06402 104.287 3.45672 103.159 3.083C101.984 2.70928 100.574 2.4757 98.9289 2.4757H95.968V0.233372H91.3153V2.52242H88.6365C86.9916 2.52242 85.5347 2.70928 84.3597 3.083C83.1378 3.45672 82.1509 4.0173 81.3519 4.81146C80.553 5.60562 79.989 6.58664 79.566 7.84795C79.1901 9.06254 78.9551 10.5574 78.9551 12.2859C78.9551 14.5282 79.2841 16.3501 79.989 17.7516C80.647 19.1997 81.6809 20.2275 83.0438 20.8815C84.4067 21.5822 86.1926 21.9092 88.3545 21.9092H91.3153V24.572ZM99.0698 6.49321C100.198 6.49321 101.091 6.68007 101.749 7.1005C102.407 7.47423 102.877 8.12824 103.159 8.96911C103.441 9.76327 103.582 10.9311 103.582 12.2859C103.582 14.3414 103.253 15.7895 102.548 16.6304C101.89 17.518 100.715 17.9384 99.0698 17.9384H95.968V6.49321H99.0698Z" fill="white"/>
		<path fill-rule="evenodd" clip-rule="evenodd" d="M116.224 7.70801C116.365 6.63356 116.647 5.8394 117.023 5.32553C117.399 4.76495 117.916 4.43794 118.621 4.25108C119.326 4.11094 120.313 4.01751 121.676 4.01751C122.991 4.01751 124.025 4.06422 124.73 4.25108C125.435 4.39123 125.952 4.76495 126.375 5.32553C126.751 5.8394 127.033 6.68027 127.174 7.80144C127.315 8.9226 127.409 10.4642 127.409 12.473C127.409 14.4817 127.362 16.0233 127.174 17.051C127.033 18.1255 126.798 18.9197 126.375 19.5269C125.999 20.0875 125.435 20.4613 124.73 20.6481C124.025 20.835 122.991 20.9284 121.676 20.9284C120.36 20.9284 119.373 20.835 118.621 20.6481C117.916 20.4613 117.352 20.0875 116.976 19.5269C116.6 18.9664 116.318 18.1722 116.177 17.051C116.036 15.9766 115.989 14.435 115.989 12.4262C116.036 10.3708 116.083 8.78246 116.224 7.70801ZM111.665 18.6394C111.947 20.2744 112.464 21.5824 113.169 22.47C113.921 23.3576 114.955 24.0116 116.271 24.3853C117.587 24.7123 119.42 24.8992 121.676 24.8992C123.837 24.8992 125.576 24.7123 126.892 24.3386C128.208 23.9649 129.242 23.3109 130.041 22.4233C130.84 21.5357 131.357 20.2277 131.686 18.5459C132.015 16.8642 132.156 14.6686 132.156 11.9124C132.156 9.5299 132.015 7.56786 131.686 6.07297C131.357 4.53137 130.793 3.36349 130.041 2.4759C129.289 1.58832 128.208 0.934304 126.892 0.607297C125.576 0.186861 123.837 0 121.723 0C119.561 0 117.822 0.186861 116.506 0.607297C115.19 0.981019 114.109 1.63503 113.357 2.4759C112.558 3.36349 112.041 4.53137 111.712 6.02626C111.383 7.56786 111.242 9.48318 111.242 11.9124C111.242 14.762 111.383 17.0043 111.665 18.6394Z" fill="white"/>
		<path fill-rule="evenodd" clip-rule="evenodd" d="M142.542 0.233372V7.24065H143.294V0.887384L145.973 7.24065H146.678L149.31 0.793954V7.24065H150.109V0.233372H148.793L146.302 6.25963L143.811 0.233372H142.542Z" fill="white"/>
		<path fill-rule="evenodd" clip-rule="evenodd" d="M152.271 0.9341H156.031V0.233372H151.519V7.24065H156.031V6.53992H152.271V4.0173H155.843V3.31657H152.271V0.9341Z" fill="white"/>
		<path fill-rule="evenodd" clip-rule="evenodd" d="M160.119 3.92387C160.495 3.92387 160.777 3.97059 161.012 4.0173C161.2 4.11073 161.388 4.20416 161.435 4.39102C161.529 4.57788 161.576 4.85818 161.576 5.2319C161.576 5.5589 161.529 5.79248 161.482 5.97934C161.388 6.1662 161.294 6.30635 161.106 6.39978C160.918 6.49321 160.636 6.53992 160.26 6.53992H157.91V3.92387H160.119ZM161.764 0.9341V0.233372H157.111V7.24065H160.26C160.777 7.24065 161.153 7.19394 161.482 7.05379C161.764 6.91364 161.999 6.72678 162.14 6.39978C162.281 6.11949 162.328 5.69905 162.328 5.2319C162.328 4.71803 162.281 4.34431 162.14 4.06402C161.999 3.78373 161.764 3.55015 161.482 3.41001C161.2 3.26986 160.777 3.22314 160.26 3.22314H157.91V0.9341H161.764Z" fill="white"/>
		<path fill-rule="evenodd" clip-rule="evenodd" d="M164.302 0.9341H168.062V0.233372H163.503V7.24065H168.015V6.53992H164.302V4.0173H167.874V3.31657H164.302V0.9341Z" fill="white"/>
		<path fill-rule="evenodd" clip-rule="evenodd" d="M174.641 0.233372H169.66V5.27861C169.66 5.65233 169.613 5.93263 169.566 6.07277C169.519 6.25963 169.425 6.39978 169.284 6.44649C169.143 6.49321 169.002 6.53992 168.767 6.53992H168.579V7.24065H169.096C169.566 7.24065 169.895 7.05379 170.13 6.72678C170.318 6.39978 170.412 5.88591 170.412 5.18518V0.9341H173.795V7.24065H174.594V0.233372H174.641Z" fill="white"/>
		<path fill-rule="evenodd" clip-rule="evenodd" d="M179.059 3.92387C179.435 3.92387 179.717 3.97059 179.952 4.06402C180.14 4.15745 180.281 4.29759 180.375 4.48445C180.469 4.67132 180.516 4.95161 180.516 5.27861C180.516 5.60562 180.469 5.83919 180.422 6.02606C180.328 6.21292 180.234 6.35306 179.999 6.44649C179.811 6.53992 179.529 6.58664 179.153 6.58664H176.85V3.92387H179.059ZM176.051 7.24065H179.2C179.717 7.24065 180.093 7.19394 180.422 7.05379C180.704 6.91364 180.939 6.72678 181.08 6.39978C181.221 6.11949 181.268 5.69905 181.268 5.2319C181.268 4.76475 181.174 4.34431 181.033 4.06402C180.892 3.78373 180.657 3.55015 180.328 3.41001C179.999 3.26986 179.576 3.22314 179.059 3.22314H176.756V0.233372H175.957V7.24065H176.051Z" fill="white"/>
		<path fill-rule="evenodd" clip-rule="evenodd" d="M147.242 17.7518H143.388C143.482 17.565 143.576 17.3781 143.67 17.1912C143.764 17.0044 143.811 16.8175 143.858 16.5839C143.905 16.3971 143.952 16.1635 143.952 15.8832C143.999 15.6029 143.999 15.3226 143.999 14.9489V12.146H147.242V17.7518ZM142.072 17.7518V20.0409H142.777V18.4525H147.806V20.0409H148.511V17.7518H148.041V11.4453H143.247V15.0423C143.247 15.4161 143.247 15.7431 143.2 16.0701C143.153 16.3971 143.059 16.6774 142.965 16.9577C142.871 17.2379 142.73 17.5182 142.542 17.7518H142.072Z" fill="white"/>
		<path fill-rule="evenodd" clip-rule="evenodd" d="M154.949 11.4453H149.968V16.4905C149.968 16.8642 149.921 17.1445 149.874 17.2847C149.827 17.4715 149.733 17.6117 149.592 17.6584C149.451 17.7051 149.31 17.7518 149.075 17.7518H148.887V18.4525H149.404C149.874 18.4525 150.203 18.2657 150.438 17.9387C150.626 17.6117 150.72 17.0978 150.72 16.3971V12.146H154.103V18.4525H154.902V11.4453H154.949Z" fill="white"/>
		<path fill-rule="evenodd" clip-rule="evenodd" d="M158.615 14.9956C158.051 14.9956 157.675 14.9022 157.346 14.6686C157.064 14.435 156.923 14.108 156.923 13.6876C156.923 13.1737 157.017 12.8 157.205 12.5197C157.393 12.2861 157.722 12.146 158.239 12.146H160.73V14.9956H158.615ZM160.73 18.4525H161.529V11.4453H158.38C157.628 11.4453 157.064 11.5854 156.688 11.9124C156.312 12.2394 156.124 12.7533 156.124 13.454C156.124 14.0613 156.265 14.5285 156.547 14.8555C156.829 15.2292 157.205 15.4161 157.675 15.5095L156.03 18.4058H156.97L158.521 15.6029H160.683V18.4525H160.73Z" fill="white"/>
		<path fill-rule="evenodd" clip-rule="evenodd" d="M165.712 16.4906C165.759 16.8643 165.853 17.1446 165.994 17.3314C166.135 17.5183 166.37 17.6584 166.652 17.7519C166.934 17.8453 167.31 17.8453 167.827 17.8453C168.344 17.8453 168.72 17.7986 169.002 17.7519C169.284 17.6584 169.472 17.565 169.613 17.3314C169.754 17.1446 169.848 16.8643 169.895 16.4906C169.942 16.1168 169.989 15.603 169.989 14.949C169.989 14.295 169.942 13.7344 169.895 13.4074C169.848 13.0336 169.754 12.7534 169.613 12.5665C169.472 12.3796 169.237 12.2395 169.002 12.1461C168.72 12.0526 168.344 12.0526 167.827 12.0526C167.31 12.0526 166.934 12.0993 166.652 12.1461C166.37 12.1928 166.182 12.3329 166.041 12.5665C165.9 12.7534 165.806 13.0336 165.759 13.4074C165.712 13.7811 165.665 14.295 165.665 14.949C165.618 15.603 165.665 16.1168 165.712 16.4906ZM164.96 13.1271C165.054 12.6599 165.195 12.3329 165.43 12.0526C165.665 11.819 165.947 11.6322 166.323 11.5388C166.699 11.4453 167.169 11.3986 167.827 11.3986C168.438 11.3986 168.955 11.4453 169.331 11.5388C169.707 11.6322 169.989 11.819 170.224 12.0526C170.459 12.2862 170.6 12.6599 170.694 13.1271C170.787 13.5942 170.834 14.2015 170.834 14.949C170.834 15.6964 170.787 16.3037 170.694 16.7709C170.6 17.238 170.459 17.565 170.224 17.8453C169.989 18.0789 169.707 18.2657 169.331 18.3592C168.955 18.4526 168.438 18.4993 167.827 18.4993C167.216 18.4993 166.699 18.4526 166.323 18.3592C165.947 18.2657 165.665 18.0789 165.43 17.8453C165.195 17.6117 165.054 17.238 164.96 16.7709C164.866 16.3037 164.819 15.6964 164.819 14.949C164.866 14.2015 164.913 13.5942 164.96 13.1271Z" fill="white"/>
		<path fill-rule="evenodd" clip-rule="evenodd" d="M173.983 12.9401C173.56 12.9401 173.231 12.9869 172.996 13.127C172.761 13.2671 172.573 13.454 172.479 13.7343C172.385 14.0146 172.338 14.3883 172.338 14.8087C172.338 15.2759 172.385 15.6029 172.479 15.8832C172.573 16.1635 172.761 16.3503 172.996 16.4905C173.231 16.6306 173.56 16.6774 173.983 16.6774H174.782V12.8934H173.983V12.9401ZM175.628 16.7708H176.427C177.038 16.7708 177.461 16.6306 177.696 16.3036C177.931 16.0233 178.072 15.5095 178.072 14.8555C178.072 14.2014 177.931 13.6876 177.696 13.4073C177.461 13.127 176.991 12.9401 176.427 12.9401H175.628V16.7708ZM175.628 12.2861H176.521C177.085 12.2861 177.508 12.3796 177.837 12.5197C178.166 12.7066 178.448 12.9401 178.636 13.3606C178.824 13.7343 178.918 14.2482 178.918 14.8555C178.918 15.4628 178.824 15.9766 178.636 16.3503C178.448 16.7241 178.213 17.0044 177.837 17.1445C177.508 17.3314 177.038 17.3781 176.521 17.3781H175.628V18.4058H174.829V17.3781H173.936C173.372 17.3781 172.949 17.2847 172.573 17.1445C172.244 16.9576 171.962 16.7241 171.774 16.3503C171.586 15.9766 171.492 15.4628 171.492 14.8555C171.492 14.2482 171.586 13.7343 171.774 13.3606C171.962 12.9869 172.197 12.7066 172.573 12.5664C172.902 12.3796 173.372 12.3328 173.936 12.3328H174.829V11.492H175.628V12.2861Z" fill="white"/>
		<path fill-rule="evenodd" clip-rule="evenodd" d="M179.952 18.4525H181.221L185.216 12.0526V18.4525H186.015V11.4453H184.746L180.751 17.9387V11.4453H179.952V18.4525Z" fill="white"/>
		<path fill-rule="evenodd" clip-rule="evenodd" d="M191.842 17.0044C191.795 17.238 191.701 17.3782 191.513 17.5183C191.372 17.6584 191.184 17.7519 190.902 17.7986C190.62 17.8453 190.291 17.892 189.868 17.892C189.445 17.892 189.116 17.8453 188.834 17.7986C188.599 17.7052 188.364 17.565 188.223 17.3782C188.082 17.1913 187.988 16.911 187.894 16.5373C187.847 16.1636 187.8 15.6964 187.8 15.0424C187.8 14.3884 187.847 13.9212 187.894 13.5475C187.941 13.1738 188.082 12.8935 188.223 12.6599C188.364 12.4731 188.552 12.3329 188.834 12.2395C189.116 12.1461 189.445 12.0993 189.821 12.0993C190.385 12.0993 190.761 12.1461 191.043 12.2395C191.278 12.3329 191.466 12.4731 191.56 12.7066C191.654 12.9402 191.701 13.2672 191.748 13.7344H192.5C192.453 13.3139 192.406 12.9402 192.359 12.6599C192.265 12.3796 192.171 12.1461 191.983 11.9592C191.795 11.7723 191.513 11.6322 191.184 11.5388C190.855 11.4453 190.385 11.3986 189.821 11.3986C189.257 11.3986 188.787 11.4453 188.458 11.5388C188.129 11.6322 187.847 11.819 187.612 12.0993C187.377 12.3796 187.236 12.7066 187.142 13.1738C187.048 13.6409 187.001 14.2482 187.001 14.9957C187.001 15.7431 187.048 16.3504 187.142 16.8176C187.236 17.2847 187.377 17.6584 187.612 17.892C187.847 18.1256 188.129 18.3125 188.458 18.4059C188.787 18.4993 189.257 18.546 189.821 18.546C190.573 18.546 191.137 18.4526 191.513 18.3125C191.889 18.1723 192.171 17.9387 192.359 17.565C192.5 17.238 192.594 16.7241 192.594 16.1168H191.842C191.936 16.4906 191.889 16.7709 191.842 17.0044Z" fill="white"/>
		<path fill-rule="evenodd" clip-rule="evenodd" d="M194.756 16.3504L196.307 12.0526L197.858 16.3504H194.756ZM194.004 18.4525L194.568 17.0044H198.14L198.657 18.4525H199.503L196.871 11.4453H195.743L193.158 18.4525H194.004Z" fill="white"/>
		<path fill-rule="evenodd" clip-rule="evenodd" d="M142.448 29.664H143.67L147.712 23.2641V29.664H148.464V22.6568H147.242L143.2 29.1502V22.6568H142.448V29.664Z" fill="white"/>
		<path fill-rule="evenodd" clip-rule="evenodd" d="M156.876 28.9633H153.022C153.116 28.7764 153.21 28.5896 153.304 28.4027C153.398 28.2159 153.445 28.029 153.492 27.7954C153.539 27.6086 153.586 27.375 153.586 27.0947C153.633 26.8144 153.633 26.5341 153.633 26.1604V23.3575H156.876V28.9633ZM151.707 28.9633V31.2523H152.412V29.664H157.44V31.2523H158.145V28.9633H157.628V22.6568H152.834V26.2538C152.834 26.6275 152.834 26.9546 152.787 27.2816C152.74 27.6086 152.646 27.8889 152.553 28.1691C152.459 28.4494 152.318 28.7297 152.13 28.9633H151.707Z" fill="white"/>
		<path fill-rule="evenodd" clip-rule="evenodd" d="M159.649 27.702C159.696 28.0757 159.79 28.356 159.931 28.5429C160.072 28.7297 160.307 28.8699 160.589 28.9633C160.871 29.0567 161.247 29.0567 161.764 29.0567C162.281 29.0567 162.657 29.01 162.939 28.9633C163.221 28.8699 163.409 28.7764 163.55 28.5429C163.691 28.356 163.785 28.0757 163.832 27.702C163.879 27.3283 163.926 26.8144 163.926 26.1604C163.926 25.5064 163.879 24.9458 163.832 24.6188C163.785 24.2451 163.691 23.9648 163.55 23.7779C163.409 23.5911 163.174 23.4509 162.939 23.3575C162.657 23.2641 162.281 23.2641 161.764 23.2641C161.247 23.2641 160.871 23.3108 160.589 23.3575C160.307 23.4042 160.119 23.5443 159.978 23.7779C159.837 23.9648 159.743 24.2451 159.696 24.6188C159.649 24.9925 159.602 25.5064 159.602 26.1604C159.602 26.8144 159.602 27.3283 159.649 27.702ZM158.944 24.3385C159.038 23.8714 159.179 23.5443 159.414 23.2641C159.649 23.0305 159.931 22.8436 160.307 22.7502C160.683 22.6568 161.153 22.61 161.811 22.61C162.422 22.61 162.939 22.6568 163.315 22.7502C163.691 22.8436 163.973 23.0305 164.208 23.2641C164.443 23.4976 164.584 23.8714 164.678 24.3385C164.772 24.8057 164.819 25.413 164.819 26.1604C164.819 26.9078 164.772 27.5151 164.678 27.9823C164.584 28.4494 164.443 28.7764 164.208 29.0567C163.973 29.2903 163.691 29.4772 163.315 29.5706C162.939 29.664 162.422 29.7108 161.811 29.7108C161.2 29.7108 160.683 29.664 160.307 29.5706C159.931 29.4772 159.649 29.2903 159.414 29.0567C159.179 28.8232 159.038 28.4494 158.944 27.9823C158.85 27.5151 158.803 26.9078 158.803 26.1604C158.803 25.413 158.85 24.8057 158.944 24.3385Z" fill="white"/>
		<path fill-rule="evenodd" clip-rule="evenodd" d="M165.806 22.6568V29.664H166.605V23.3108L169.284 29.664H169.942L172.62 23.2173V29.664H173.372V22.6568H172.103L169.613 28.683L167.122 22.6568H165.806Z" fill="white"/>
		<path fill-rule="evenodd" clip-rule="evenodd" d="M175.957 27.5618L177.508 23.2641L179.059 27.5618H175.957ZM175.205 29.664L175.769 28.2159H179.341L179.858 29.664H180.704L178.072 22.6568H176.944L174.359 29.664H175.205Z" fill="white"/>
		<path d="M137.795 0.140013H136.855V30.1312H137.795V0.140013Z" fill="white"/>
		<path fill-rule="evenodd" clip-rule="evenodd" d="M23.6866 1.07432V23.6845H0.939942V1.07432H23.6866ZM24.6265 0.140013H23.6866H0.939942H0V1.07432V23.6845V24.6188H0.939942H23.6866H24.6265V23.6845V1.07432V0.140013Z" fill="white"/>
		<path fill-rule="evenodd" clip-rule="evenodd" d="M16.0729 15.0422C16.0729 14.9021 16.1199 14.8554 16.1669 14.8087C16.2139 14.762 16.2609 14.7152 16.3079 14.6685C16.3549 14.6218 16.4019 14.6218 16.4019 14.6218L16.9658 14.3882C17.0128 14.3882 17.0128 14.3415 17.0128 14.3415V14.2948L16.9188 14.1079L16.8718 14.0612H16.8248L16.3079 14.2948C16.2139 14.3415 16.1199 14.3882 16.0259 14.4817C15.9319 14.5751 15.8849 14.6685 15.8849 14.7152C15.8379 14.8087 15.8379 14.8554 15.8379 14.9488C15.8379 15.0422 15.8379 15.1357 15.8379 15.2291C15.8379 15.3225 15.8379 15.416 15.8379 15.5094C15.8379 15.6028 15.8849 15.6963 15.9319 15.7897C15.9789 15.8831 16.0259 15.9766 16.1199 16.0233C16.1669 16.07 16.2609 16.1167 16.3079 16.1167C16.3549 16.1167 16.4019 16.1167 16.4489 16.1167C16.5428 16.1167 16.6368 16.1167 16.7308 16.0233C16.8248 15.9766 16.8718 15.8831 16.9658 15.7897C17.0128 15.6963 17.0598 15.5561 17.0598 15.416C17.0598 15.1824 17.0128 15.0422 16.9188 14.9021C16.8248 14.762 16.6838 14.7152 16.5428 14.7152C16.4489 14.7152 16.3549 14.7152 16.3079 14.762C16.1669 14.9488 16.1199 14.9955 16.0729 15.0422ZM16.4019 15.9298C16.3079 15.9298 16.2609 15.8831 16.2609 15.8364C16.2139 15.7897 16.2139 15.743 16.2139 15.6495C16.2139 15.6028 16.2139 15.5094 16.2139 15.4627C16.2139 15.416 16.2139 15.3225 16.2139 15.2758C16.2139 15.2291 16.2609 15.1357 16.2609 15.1357C16.3079 15.089 16.3549 15.089 16.4019 15.089C16.4489 15.089 16.5428 15.1357 16.5428 15.1357C16.5898 15.1824 16.5898 15.2291 16.5898 15.2758C16.5898 15.3225 16.5898 15.416 16.5898 15.4627C16.5898 15.5094 16.5898 15.6028 16.5898 15.6495C16.5898 15.6963 16.5428 15.7897 16.5428 15.7897C16.5428 15.9298 16.4959 15.9298 16.4019 15.9298Z" fill="white"/>
		<path fill-rule="evenodd" clip-rule="evenodd" d="M13.0182 16.1637C13.0652 16.1637 13.0652 16.1637 13.0652 16.1169L13.1122 15.2294C13.1122 15.2761 13.1592 15.3228 13.1592 15.3695C13.1592 15.4162 13.2062 15.4629 13.2062 15.5096L13.3472 15.9301C13.3472 15.9301 13.3472 15.9768 13.3942 15.9768C13.3942 15.9768 13.3942 15.9768 13.4412 15.9768H13.5822C13.5822 15.9768 13.5822 15.9768 13.6292 15.9768C13.6292 15.9768 13.6292 15.9768 13.6761 15.9301L13.8171 15.5096C13.8171 15.4629 13.8641 15.4162 13.8641 15.3695C13.8641 15.3228 13.9111 15.2761 13.9111 15.2294V16.1169V16.1637C13.9111 16.1637 13.9111 16.1637 13.9581 16.1637H14.1461C14.1931 16.1637 14.1931 16.1637 14.1931 16.1637C14.1931 16.1637 14.1931 16.1637 14.1931 16.1169L14.0991 14.8556V14.8089C14.0991 14.8089 14.0991 14.8089 14.0521 14.8089H13.8171C13.8171 14.8089 13.8171 14.8089 13.7701 14.8089C13.7701 14.8089 13.7701 14.8089 13.7231 14.8556L13.5352 15.4162C13.5352 15.4629 13.4882 15.5096 13.4882 15.5564C13.4882 15.6031 13.4412 15.6498 13.4412 15.6965C13.4412 15.6498 13.4412 15.6031 13.3942 15.5564C13.3942 15.5096 13.3472 15.4629 13.3472 15.4162L13.1592 14.8089C13.1592 14.8089 13.1592 14.7622 13.1122 14.7622C13.1122 14.7622 13.1122 14.7622 13.0652 14.7622H12.8302C12.8302 14.7622 12.8302 14.7622 12.7832 14.7622C12.7832 14.7622 12.7832 14.7622 12.7832 14.8089L12.6892 16.0702C12.6892 16.0702 12.6892 16.0702 12.6892 16.1169C12.6892 16.1169 12.6892 16.1169 12.7362 16.1169L13.0182 16.1637Z" fill="white"/>
		<path fill-rule="evenodd" clip-rule="evenodd" d="M15.509 15.5564C15.509 15.6031 15.556 15.5564 15.509 15.5564C15.556 15.5564 15.556 15.5096 15.556 15.4629C15.556 15.4162 15.556 15.3695 15.556 15.3228C15.556 15.2761 15.556 15.2294 15.509 15.1826C15.509 15.0892 15.462 15.0425 15.415 14.9958C15.368 14.9491 15.321 14.8556 15.2741 14.8089C15.1801 14.7622 15.1331 14.7622 14.9921 14.7622C14.8041 14.7622 14.6631 14.8556 14.5221 14.9958C14.4281 15.1359 14.3811 15.3228 14.3811 15.5564C14.3811 15.6031 14.3811 15.6498 14.3811 15.7432C14.3811 15.8367 14.4281 15.8834 14.4751 15.9768C14.5221 16.0702 14.5691 16.1169 14.6631 16.1637C14.7571 16.2104 14.8511 16.2571 14.9921 16.2571C15.0861 16.2571 15.1331 16.2571 15.2271 16.2104C15.321 16.2104 15.368 16.1637 15.415 16.1169C15.415 16.1169 15.415 16.1169 15.462 16.0702C15.462 16.0702 15.462 16.0702 15.462 16.0235L15.415 15.8834C15.415 15.8834 15.415 15.8834 15.368 15.8834H15.321C15.274 15.8834 15.2741 15.9301 15.2271 15.9301C15.1801 15.9301 15.1331 15.9301 15.0391 15.9301C14.9451 15.9301 14.8511 15.8834 14.8041 15.8367C14.7571 15.7899 14.7571 15.6965 14.7571 15.6031L15.509 15.5564ZM14.7571 15.3228C14.7571 15.2294 14.8041 15.1359 14.8041 15.0892C14.8511 15.0425 14.8981 14.9958 14.9921 14.9958C15.0391 14.9958 15.0861 14.9958 15.1331 15.0425C15.1801 15.0892 15.1801 15.0892 15.1801 15.1826V15.2294C15.1801 15.2294 15.1801 15.2761 15.1801 15.3228H14.7571Z" fill="white"/>
		<path fill-rule="evenodd" clip-rule="evenodd" d="M18.329 15.603C18.376 15.603 18.376 15.5563 18.376 15.5096C18.376 15.4629 18.376 15.4162 18.376 15.3694C18.376 15.3227 18.376 15.276 18.329 15.2293C18.329 15.1359 18.282 15.0891 18.235 15.0424C18.188 14.9957 18.141 14.9023 18.094 14.8556C18.047 14.8089 17.953 14.8089 17.812 14.8089C17.624 14.8089 17.483 14.9023 17.389 15.0424C17.295 15.1826 17.248 15.3694 17.248 15.603C17.248 15.6497 17.248 15.6964 17.248 15.7899C17.248 15.8833 17.295 15.93 17.342 16.0235C17.389 16.1169 17.436 16.1636 17.53 16.2103C17.624 16.257 17.718 16.3037 17.859 16.3037C17.953 16.3037 18 16.3037 18.094 16.257C18.188 16.257 18.235 16.2103 18.282 16.1636C18.282 16.1636 18.282 16.1636 18.329 16.1169C18.329 16.1169 18.329 16.1169 18.329 16.0702L18.235 15.8833C18.235 15.8833 18.235 15.8833 18.188 15.8833H18.141C18.094 15.8833 18.094 15.93 18.047 15.93C18 15.93 17.953 15.93 17.859 15.93C17.765 15.93 17.671 15.8833 17.624 15.8366C17.577 15.7899 17.577 15.6964 17.577 15.603H18.329ZM17.577 15.3227C17.577 15.2293 17.624 15.1359 17.624 15.0891C17.671 15.0424 17.718 14.9957 17.812 14.9957C17.859 14.9957 17.906 14.9957 17.953 15.0424C18 15.0891 18 15.0891 18 15.1826V15.2293C18 15.2293 18 15.276 18 15.3227H17.577Z" fill="white"/>
		<path fill-rule="evenodd" clip-rule="evenodd" d="M19.4098 15.0891V16.1169V16.1636C19.4098 16.1636 19.4098 16.1636 19.4568 16.1636H19.7388H19.7858C19.7858 16.1636 19.7858 16.1636 19.7858 16.1169V14.8556V14.8089C19.7858 14.8089 19.7858 14.8089 19.7388 14.8089H18.8928H18.8458C18.8458 14.8089 18.8458 14.8089 18.8458 14.8556V14.9957C18.8458 15.0424 18.8458 15.1359 18.8458 15.2293C18.8458 15.3227 18.8458 15.4162 18.8458 15.5096C18.8458 15.603 18.8458 15.6964 18.8458 15.7432C18.8458 15.7899 18.7988 15.8833 18.7988 15.8833C18.7518 15.93 18.7518 15.93 18.7048 15.93H18.6578C18.6578 15.93 18.6578 15.93 18.6108 15.93C18.6108 15.93 18.6108 15.93 18.6108 15.9767L18.6578 16.1636C18.6578 16.1636 18.6578 16.1636 18.6578 16.2103C18.6578 16.2103 18.6578 16.2103 18.7048 16.2103C18.7518 16.2103 18.7518 16.2103 18.7988 16.2103C18.8458 16.2103 18.8928 16.1636 18.9868 16.1169C19.0338 16.0702 19.0808 16.0235 19.1278 15.93C19.1748 15.8366 19.1748 15.7899 19.1748 15.6497C19.1748 15.5563 19.2218 15.4629 19.2218 15.3694C19.2218 15.276 19.2218 15.1826 19.2218 15.1359V15.0891H19.4098Z" fill="white"/>
		<path fill-rule="evenodd" clip-rule="evenodd" d="M20.5847 16.1637C20.6787 16.1637 20.7257 16.1637 20.8197 16.1637C20.9137 16.1637 20.9607 16.1169 21.0547 16.0702C21.1017 16.0235 21.1487 15.9768 21.1957 15.8834C21.1957 15.8367 21.2427 15.7432 21.2427 15.6965C21.2427 15.6498 21.2427 15.6031 21.1957 15.5096C21.1957 15.4629 21.1487 15.4162 21.1017 15.3695C21.0547 15.3228 20.9607 15.2761 20.9137 15.2761C20.8197 15.2761 20.7727 15.2761 20.6787 15.2761H20.5377V14.8089V14.7622C20.5377 14.7622 20.5377 14.7622 20.4907 14.7622L20.2087 14.8556C20.1617 14.8556 20.1147 14.8556 20.1147 14.8556C20.1147 14.8556 20.1147 14.8556 20.1147 14.9023V16.1637V16.2104C20.1147 16.2104 20.1147 16.2104 20.1617 16.2104L20.5847 16.1637ZM20.4907 15.5564H20.6787C20.6787 15.5564 20.7257 15.5564 20.7727 15.5564C20.8197 15.5564 20.8197 15.5564 20.8667 15.6031C20.9137 15.6031 20.9137 15.6498 20.9137 15.6965C20.9137 15.7899 20.8667 15.8367 20.8197 15.8367C20.7727 15.8367 20.7257 15.8834 20.6787 15.8367H20.5377L20.4907 15.5564Z" fill="white"/>
		<path fill-rule="evenodd" clip-rule="evenodd" d="M5.59265 13.6407L5.92163 14.575H4.51172C5.02869 15.8831 7.94251 15.4626 9.54041 15.5093C7.75452 15.2758 7.37854 14.0145 7.19055 13.6407H5.59265Z" fill="white"/>
		<path fill-rule="evenodd" clip-rule="evenodd" d="M8.88232 9.20301H9.02332C9.11731 9.20301 9.11731 9.24973 9.11731 9.34316C9.11731 9.38987 9.11731 9.43659 9.11731 9.4833H9.2583C9.2113 9.4833 9.2113 9.43659 9.2113 9.34316C9.2113 9.24973 9.16431 9.20301 9.11731 9.20301C9.16431 9.20301 9.2113 9.10958 9.2113 9.06287C9.2113 9.01615 9.16431 8.87601 9.02332 8.87601H8.69434V9.4833H8.83533L8.88232 9.20301ZM8.88232 8.92272H9.02332C9.11731 8.92272 9.11731 8.96944 9.11731 9.01615C9.11731 9.06287 9.07031 9.10958 9.02332 9.10958H8.88232V8.92272Z" fill="white"/>
		<path fill-rule="evenodd" clip-rule="evenodd" d="M8.45959 9.10953C8.45959 8.96938 8.50659 8.82924 8.60059 8.7358C8.69458 8.64237 8.83557 8.59566 8.97656 8.59566C9.11755 8.59566 9.25855 8.64237 9.35254 8.7358C9.44653 8.82924 9.49353 8.96938 9.49353 9.10953C9.49353 9.38982 9.25855 9.62339 8.97656 9.62339C8.69458 9.62339 8.45959 9.38982 8.45959 9.10953ZM8.50659 8.64237C8.3656 8.78252 8.3186 8.92267 8.3186 9.10953C8.3186 9.48325 8.60059 9.76354 8.97656 9.76354C9.35254 9.76354 9.63452 9.48325 9.63452 9.10953C9.63452 8.92267 9.58753 8.78252 9.44653 8.64237C9.30554 8.50223 9.16455 8.45551 8.97656 8.45551C8.78857 8.45551 8.64758 8.54894 8.50659 8.64237Z" fill="white"/>
		<path fill-rule="evenodd" clip-rule="evenodd" d="M9.21143 13.267H5.02869L5.31067 14.2013H4.32373L3.75977 12.3327H4.51172H4.74671L5.63965 9.52983H5.02869L4.74671 8.59552H5.96863H6.29761H6.57959H6.95557H7.28455L8.45948 12.3327H8.92945L9.21143 13.267ZM5.68665 12.286H7.42554L6.57959 9.62326L5.68665 12.286Z" fill="white"/>
		<path fill-rule="evenodd" clip-rule="evenodd" d="M16.1671 9.95026C16.5431 9.15611 17.3421 8.64224 18.282 8.64224C19.5979 8.64224 20.6318 9.71669 20.6318 10.978C20.6318 12.286 19.5509 13.3138 18.282 13.3138C17.1541 13.3138 16.2141 12.5196 15.9791 11.4451C15.6502 11.959 15.0862 12.3327 14.3812 12.3327H14.3342H14.0053V13.3138H13.0653V12.3327H12.7363H12.6893C12.5013 12.3327 12.3134 12.286 12.1254 12.2393C12.1724 12.4262 12.2194 12.613 12.1724 12.7999C12.1724 14.1079 11.0914 15.1356 9.82251 15.1356C8.83557 15.1356 7.98962 14.5283 7.66064 13.6875H8.74158C8.97656 14.0145 9.39954 14.2013 9.82251 14.2013C10.4335 14.2013 10.9504 13.8276 11.1854 13.267H9.63452L9.35254 12.3327H11.1854C10.9974 11.8189 10.4805 11.3984 9.86951 11.3984C9.39954 11.3984 9.02356 11.5853 8.74158 11.9123L8.4126 10.9313C8.78858 10.651 9.30554 10.4641 9.82251 10.4641C10.1985 10.4641 10.5275 10.5576 10.8095 10.6977C10.8095 10.6043 10.8095 10.5576 10.8095 10.4641C10.8095 10.1371 10.9034 9.81012 11.0444 9.52983H10.4805L10.1985 8.59552H12.6893H14.2872H14.4752C15.3682 8.68895 15.9791 9.20282 16.1671 9.95026ZM16.8721 10.978C16.8721 11.7722 17.483 12.3795 18.282 12.3795C19.0809 12.3795 19.6919 11.7722 19.6919 10.978C19.6919 10.1838 19.0809 9.57654 18.282 9.57654C17.53 9.57654 16.8721 10.1838 16.8721 10.978ZM14.0523 9.52983V11.3984H14.3812C14.8982 11.3984 15.3212 10.978 15.3212 10.4641C15.3212 9.95026 14.8982 9.52983 14.3812 9.52983H14.0523ZM13.1123 11.3984V9.52983H12.7833C12.2664 9.52983 11.8434 9.95026 11.8434 10.4641C11.8434 10.978 12.2664 11.3984 12.7833 11.3984H13.1123Z" fill="white"/>
		<path fill-rule="evenodd" clip-rule="evenodd" d="M2.25586 27.9355C2.06787 27.8421 1.83289 27.7954 1.5509 27.7954C1.22193 27.7954 0.986939 27.8421 0.751954 27.9355C0.563965 28.029 0.375977 28.1224 0.281983 28.3093C0.187988 28.4961 0.0939942 28.683 0.0469971 28.9166C0 29.1501 0 29.4304 0 29.7574C0 30.1311 0 30.4114 0.0469971 30.645C0.0939942 30.8786 0.140991 31.1122 0.234986 31.299C0.32898 31.4859 0.469971 31.626 0.704957 31.7195C0.892945 31.8129 1.17493 31.8596 1.50391 31.8596C1.78589 31.8596 2.02088 31.8129 2.20886 31.7195C2.39685 31.626 2.53784 31.4392 2.72583 31.2056V31.8129H3.61878V26.1604H2.67884V28.4027C2.58484 28.1691 2.44385 28.029 2.25586 27.9355ZM2.63184 30.5983C2.58484 30.7852 2.49085 30.9253 2.39685 31.0187C2.25586 31.1122 2.06787 31.1122 1.83289 31.1122C1.5979 31.1122 1.40991 31.0655 1.26892 30.972C1.12793 30.8786 1.08093 30.7384 1.03394 30.5983C0.986939 30.4582 0.939942 30.2713 0.939942 29.991C0.939942 29.5706 0.939942 29.2903 0.986939 29.0567C1.03394 28.8698 1.08093 28.7297 1.22193 28.6363C1.36292 28.5428 1.5509 28.4961 1.78589 28.4961C2.02088 28.4961 2.25586 28.5428 2.34986 28.6363C2.49085 28.7297 2.53784 28.8698 2.58484 29.01C2.63184 29.1968 2.63184 29.3837 2.63184 29.7107C2.67884 30.1311 2.67884 30.4114 2.63184 30.5983Z" fill="white"/>
		<path fill-rule="evenodd" clip-rule="evenodd" d="M5.35767 29.4307C5.35767 29.1971 5.40466 29.0103 5.45166 28.8701C5.49866 28.73 5.59265 28.6365 5.68665 28.5898C5.82764 28.5431 5.96863 28.4964 6.20362 28.4964C6.4386 28.4964 6.57959 28.5431 6.72058 28.5898C6.86158 28.6365 6.95557 28.73 7.00257 28.8701C7.04956 29.0103 7.09656 29.1971 7.09656 29.4307H5.35767ZM7.04956 30.6453C7.04956 30.7854 7.00257 30.9256 6.95557 30.9723C6.90857 31.0657 6.81458 31.1124 6.67359 31.1592C6.5326 31.2059 6.3916 31.2059 6.15662 31.2059C5.92163 31.2059 5.78064 31.1592 5.63965 31.1124C5.49866 31.0657 5.45166 30.9256 5.40466 30.7854C5.35767 30.5986 5.31067 30.365 5.31067 30.038H7.98951V29.8044C7.98951 29.3373 7.94251 28.9635 7.80152 28.6832C7.70752 28.403 7.51954 28.1694 7.23755 28.076C7.00257 27.9358 6.62659 27.8891 6.20362 27.8891C5.78064 27.8891 5.40466 27.9358 5.16968 28.076C4.93469 28.2161 4.7467 28.403 4.60571 28.73C4.51172 29.0103 4.41772 29.4307 4.41772 29.9446C4.41772 30.4584 4.46472 30.8321 4.55872 31.1592C4.65271 31.4394 4.8407 31.673 5.12268 31.8132C5.35767 31.9533 5.73364 32 6.15662 32C6.5326 32 6.86158 31.9533 7.14356 31.9066C7.37854 31.8599 7.61353 31.7197 7.75452 31.5796C7.89551 31.3927 7.98951 31.1592 7.98951 30.8321V30.692H7.04956V30.6453Z" fill="white"/>
		<path fill-rule="evenodd" clip-rule="evenodd" d="M9.91626 27.8421V27.4217C9.91626 27.2815 9.91626 27.1881 9.96326 27.0947C9.96326 27.0012 10.0573 26.9545 10.1043 26.9078C10.1982 26.8611 10.2922 26.8144 10.4332 26.8144C10.4802 26.8144 10.5272 26.8144 10.5742 26.8144C10.6682 26.8144 10.7622 26.8144 10.8562 26.8611V26.1604C10.8562 26.1604 10.8092 26.1604 10.7622 26.1604C10.7152 26.1604 10.7152 26.1604 10.6682 26.1604C10.2922 26.1604 10.0103 26.1604 9.77527 26.2538C9.54029 26.3005 9.3053 26.4406 9.16431 26.6275C9.07031 26.7209 9.02332 26.8611 9.02332 27.0012C9.02332 27.1414 8.97632 27.3282 8.97632 27.5151V27.9355H8.41235V28.683H8.97632V31.9063H9.91626V28.683H10.8562V27.9355H9.91626V27.8421Z" fill="white"/>
		<path fill-rule="evenodd" clip-rule="evenodd" d="M12.3131 29.0103C12.3601 28.8235 12.4541 28.6833 12.5951 28.6366C12.7361 28.5899 12.8771 28.5432 13.1121 28.5432C13.3001 28.5432 13.441 28.5432 13.535 28.5899C13.629 28.6366 13.723 28.6833 13.817 28.7767C13.864 28.8702 13.958 29.0103 13.958 29.1505C14.005 29.3373 14.005 29.5242 14.005 29.8045C14.005 30.1782 13.958 30.4585 13.911 30.6454C13.864 30.8322 13.77 30.9724 13.629 31.0191C13.488 31.0658 13.347 31.1125 13.1121 31.1125C12.8771 31.1125 12.6891 31.0658 12.5951 31.0191C12.4541 30.9724 12.3601 30.8322 12.3131 30.6454C12.2661 30.4585 12.2191 30.1782 12.2191 29.8045C12.2661 29.4775 12.2661 29.1972 12.3131 29.0103ZM11.3732 30.7855C11.4202 31.0191 11.5142 31.2527 11.6552 31.3928C11.7961 31.5329 11.9841 31.6731 12.2191 31.7198C12.4541 31.8132 12.7361 31.8132 13.1121 31.8132C13.488 31.8132 13.77 31.7665 14.005 31.7198C14.24 31.6731 14.428 31.5329 14.569 31.3928C14.71 31.2527 14.804 31.0191 14.851 30.7855C14.898 30.5519 14.9449 30.2249 14.9449 29.8045C14.9449 29.2906 14.898 28.8702 14.757 28.5899C14.663 28.3096 14.475 28.076 14.193 27.9826C13.911 27.8424 13.582 27.7957 13.0651 27.7957C12.5951 27.7957 12.2191 27.8424 11.9371 27.9826C11.7021 28.1227 11.5142 28.3096 11.3732 28.5899C11.2792 28.8702 11.2322 29.2906 11.2322 29.8045C11.3262 30.2249 11.3262 30.5519 11.3732 30.7855Z" fill="white"/>
		<path d="M16.6841 30.7855H15.7441V31.8132H16.6841V30.7855Z" fill="white"/>
		<path fill-rule="evenodd" clip-rule="evenodd" d="M18.611 28.7296C18.752 28.5895 18.8929 28.4961 19.1279 28.4961C19.3629 28.4961 19.5039 28.5428 19.5509 28.6362C19.5979 28.7296 19.6449 28.9165 19.6449 29.1501V29.3369H20.4908V29.0566C20.4908 28.6362 20.3969 28.3092 20.2559 28.0756C20.1149 27.842 19.8329 27.7486 19.4099 27.7486C19.1749 27.7486 18.9869 27.7953 18.799 27.8888C18.611 27.9822 18.47 28.1223 18.376 28.3092L18.423 27.7953H17.53V31.7194H18.47V29.1968C18.423 29.0566 18.517 28.8698 18.611 28.7296Z" fill="white"/>
		<path fill-rule="evenodd" clip-rule="evenodd" d="M22.7465 31.1592C22.5585 31.1592 22.3705 31.1124 22.2765 31.0657C22.1825 31.019 22.0885 30.9256 22.0885 30.8321C22.0415 30.7387 22.0415 30.5519 22.0415 30.3183V27.8891H21.1016V30.5986C21.1016 30.9256 21.1486 31.1592 21.2426 31.3927C21.3365 31.5796 21.4775 31.7197 21.7125 31.8132C21.9005 31.9066 22.1825 31.9533 22.5115 31.9533C23.0754 31.9533 23.4514 31.7197 23.7334 31.2993H23.7804L23.7334 31.9066H24.6264V27.9825H23.6864V30.365C23.6864 30.8321 23.3574 31.1592 22.7465 31.1592Z" fill="white"/>
	</symbol>

	<symbol viewBox="0 0 14 8" fill="none" id="segments-arrow">
		<path d="M13 1L7 7L1 1" stroke="#BDBDBD"/>
	</symbol>

	<symbol viewBox="0 0 15 17" id="header-phone">
		<path d="M14.3774 13.3027L12.2103 10.8407C11.7785 10.3522 11.015 10.3185 10.5086 10.7665L9.27087 11.8609C9.19982 11.8156 9.12631 11.7684 9.04904 11.7183C8.33901 11.2639 7.36727 10.6411 6.37431 9.5123C5.37834 8.38109 4.88238 7.33557 4.51968 6.57232C4.48142 6.49147 4.4448 6.41353 4.40846 6.33942L5.23911 5.60593L5.64755 5.24427C6.15475 4.79561 6.21567 4.03231 5.78505 3.54256L3.61792 1.08028C3.18727 0.59118 2.42344 0.557458 1.91625 1.00612C1.19643 1.64638 0.519071 2.51794 0.34496 3.50459C-0.118878 6.02212 0.892757 8.41269 3.83482 11.7547C7.90168 16.3741 11.4186 16.2641 11.5704 16.2575C11.9014 16.2387 12.2211 16.1797 12.5489 16.0752C13.2227 15.8588 13.7192 15.4563 14.2401 15.0053C14.7463 14.5567 14.8078 13.7931 14.3774 13.3027Z"/>
	</symbol>
	<symbol viewBox="0 0 17 17" id="header-phone-stroke">
		<path d="M15.6637 12.8643L13.3472 10.5423C12.8858 10.0817 12.1217 10.0957 11.6442 10.5744L10.4772 11.7438C10.4034 11.7031 10.3271 11.6606 10.2469 11.6154C9.50987 11.2062 8.50117 10.6452 7.43972 9.58055C6.37513 8.51367 5.8149 7.50113 5.4053 6.76199C5.36207 6.68369 5.32066 6.60819 5.27976 6.53649L6.06304 5.75261L6.44813 5.36617C6.92634 4.88674 6.93953 4.12113 6.4792 3.6592L4.16268 1.33691C3.70235 0.875626 2.93791 0.88962 2.45969 1.36905C1.78122 2.05297 1.15955 2.96508 1.04733 3.96067C0.741451 6.50224 1.90025 8.82504 5.04507 11.977C9.39218 16.3337 12.8954 16.0046 13.0465 15.9885C13.3757 15.9491 13.6911 15.8702 14.0117 15.7455C14.6707 15.4874 15.1411 15.0548 15.6329 14.5722C16.1101 14.0928 16.1238 13.3269 15.6637 12.8643Z"/>
	</symbol>
	<symbol viewBox="0 0 11 16" id="map-mark">
		<path fill-rule="evenodd" clip-rule="evenodd" d="M5.5 16C5.5 16 11 8.76584 11 5.64706C11 2.52827 8.53758 0 5.5 0C2.46242 0 0 2.52827 0 5.64706C0 8.76584 5.5 16 5.5 16ZM5.5 7.52941C6.51256 7.52941 7.33333 6.68665 7.33333 5.64706C7.33333 4.60746 6.51256 3.76471 5.5 3.76471C4.48744 3.76471 3.66667 4.60746 3.66667 5.64706C3.66667 6.68665 4.48744 7.52941 5.5 7.52941Z"/>
	</symbol>
	<symbol viewBox="0 0 13 19" id="map-mark-stroke">
		<path fill-rule="evenodd" clip-rule="evenodd" d="M6.5 17C6.5 17 12 9.76584 12 6.64706C12 3.52827 9.53758 1 6.5 1C3.46242 1 1 3.52827 1 6.64706C1 9.76584 6.5 17 6.5 17ZM6.5 8.52941C7.51256 8.52941 8.33333 7.68665 8.33333 6.64706C8.33333 5.60746 7.51256 4.76471 6.5 4.76471C5.48744 4.76471 4.66667 5.60746 4.66667 6.64706C4.66667 7.68665 5.48744 8.52941 6.5 8.52941Z"/>
	</symbol>
	<symbol  viewBox="0 0 13 24" fill="none" id="arrow-right">
		<path d="M1 1L12 12L1 23" stroke="white"/>
	</symbol>
	<symbol  viewBox="0 0 12 7" fill="none" id="arrow-down">
		<path d="M11 1L6 6L1 1" stroke="#828282"/>
	</symbol>
	<symbol  viewBox="0 0 11 18" fill="none" id="mobile">
		<path d="M9.69603 0H2.23782C1.51864 0 0.933594 0.585347 0.933594 1.30423V16.4602C0.933594 17.1794 1.51864 17.7647 2.23782 17.7647H9.69574C10.4152 17.7647 11.0003 17.1794 11.0003 16.4605V1.30423C11.0003 0.585347 10.4152 0 9.69603 0ZM1.52575 2.36863H10.4081V13.6196H1.52575V2.36863ZM2.23782 0.592157H9.69574C10.0886 0.592157 10.4081 0.911625 10.4081 1.30423V1.77647H1.52575V1.30423C1.52575 0.911625 1.84522 0.592157 2.23782 0.592157ZM9.69603 17.1725H2.23782C1.84522 17.1725 1.52575 16.8531 1.52575 16.4605V14.2118H10.4081V16.4605C10.4081 16.8531 10.0886 17.1725 9.69603 17.1725Z" fill="#828282"/>
		<path d="M5.96703 14.5078C5.31388 14.5078 4.78271 15.039 4.78271 15.6921C4.78271 16.3453 5.31388 16.8764 5.96703 16.8764C6.62018 16.8764 7.15134 16.3453 7.15134 15.6921C7.15134 15.039 6.62018 14.5078 5.96703 14.5078ZM5.96703 16.2843C5.64045 16.2843 5.37487 16.0187 5.37487 15.6921C5.37487 15.3656 5.64045 15.1 5.96703 15.1C6.2936 15.1 6.55919 15.3656 6.55919 15.6921C6.55919 16.0187 6.2936 16.2843 5.96703 16.2843Z" fill="#828282"/>
		<path d="M4.78289 1.48083H5.96721C6.13064 1.48083 6.26329 1.34848 6.26329 1.18475C6.26329 1.02102 6.13064 0.888672 5.96721 0.888672H4.78289C4.61946 0.888672 4.48682 1.02102 4.48682 1.18475C4.48682 1.34848 4.61946 1.48083 4.78289 1.48083Z" fill="#828282"/>
		<path d="M6.85565 1.48083H7.15173C7.31516 1.48083 7.4478 1.34848 7.4478 1.18475C7.4478 1.02102 7.31516 0.888672 7.15173 0.888672H6.85565C6.69221 0.888672 6.55957 1.02102 6.55957 1.18475C6.55957 1.34848 6.69221 1.48083 6.85565 1.48083Z" fill="#828282"/>
	</symbol>
	<symbol  viewBox="0 0 14 11" fill="none" id="mail">
		<path d="M12.2909 0H1.71198C0.767639 0 0 0.767639 0 1.71198V8.94227C0 9.88661 0.767639 10.6542 1.71198 10.6542H12.288C13.2324 10.6542 14 9.88661 14 8.94227V1.71488C14.0029 0.770536 13.2353 0 12.2909 0ZM13.2208 8.94227C13.2208 9.45499 12.8036 9.87212 12.2909 9.87212H1.71198C1.19925 9.87212 0.782122 9.45499 0.782122 8.94227V1.71488C0.782122 1.20215 1.19925 0.785019 1.71198 0.785019H12.288C12.8007 0.785019 13.2179 1.20215 13.2179 1.71488V8.94227H13.2208Z" fill="#828282"/>
		<path d="M8.82952 5.23701L12.2535 2.16646C12.4128 2.02162 12.4273 1.7754 12.2824 1.61318C12.1376 1.45386 11.8914 1.43937 11.7292 1.58421L7.00747 5.82216L6.0863 4.99948C6.0834 4.99658 6.08051 4.99369 6.08051 4.99079C6.06023 4.97051 6.03995 4.95313 6.01678 4.93575L2.26838 1.58131C2.10616 1.43648 1.85994 1.45096 1.7151 1.61318C1.57027 1.7754 1.58475 2.02162 1.74697 2.16646L5.21148 5.26308L1.76145 8.49296C1.60503 8.64069 1.59634 8.88692 1.74407 9.04624C1.82228 9.12735 1.92657 9.1708 2.03085 9.1708C2.12644 9.1708 2.22203 9.13604 2.29735 9.06651L5.79952 5.79029L6.74965 6.63904C6.82497 6.70566 6.91767 6.73753 7.01036 6.73753C7.10306 6.73753 7.19865 6.70277 7.27107 6.63614L8.24727 5.76132L11.7292 9.06941C11.8045 9.14183 11.903 9.17659 11.9986 9.17659C12.1028 9.17659 12.2042 9.13604 12.2824 9.05493C12.4302 8.8985 12.4244 8.64938 12.268 8.50165L8.82952 5.23701Z" fill="#828282"/>
	</symbol>
	<symbol  viewBox="0 0 10 14" fill="none" id="geo">
		<path d="M4.92188 0C2.20795 0 0 2.20795 0 4.92188C0 5.83882 0.253996 6.73367 0.734699 7.51002L4.64171 13.8061C4.71655 13.9267 4.8484 14 4.99021 14C4.9913 14 4.99237 14 4.99346 14C5.1365 13.9989 5.26862 13.9233 5.34209 13.8006L9.14952 7.44352C9.6037 6.68358 9.84375 5.81161 9.84375 4.92188C9.84375 2.20795 7.6358 0 4.92188 0ZM8.44555 7.02237L4.984 12.802L1.43191 7.07782C1.03179 6.43163 0.814844 5.68613 0.814844 4.92188C0.814844 2.66027 2.66027 0.814844 4.92188 0.814844C7.18348 0.814844 9.02617 2.66027 9.02617 4.92188C9.02617 5.66346 8.82353 6.38991 8.44555 7.02237Z" fill="#828282"/>
		<path d="M4.92188 2.46094C3.56491 2.46094 2.46094 3.56491 2.46094 4.92188C2.46094 6.27017 3.54695 7.38281 4.92188 7.38281C6.31375 7.38281 7.38281 6.25535 7.38281 4.92188C7.38281 3.56491 6.27884 2.46094 4.92188 2.46094ZM4.92188 6.56797C4.0125 6.56797 3.27578 5.82879 3.27578 4.92188C3.27578 4.01723 4.01723 3.27578 4.92188 3.27578C5.82652 3.27578 6.56523 4.01723 6.56523 4.92188C6.56523 5.81555 5.84566 6.56797 4.92188 6.56797Z" fill="#828282"/>
	</symbol>
	<symbol viewBox="0 0 52 52" fill="none" id="square-arrow">
		<path d="M13.1429 2H2V50H50V38.8571" stroke="white" stroke-width="4"/>
		<path d="M50 26.8574L50 2.00028L25.1429 2.00028" stroke="white" stroke-width="4"/>
		<path d="M26 26L50 2" stroke="white" stroke-width="4"/>
	</symbol>
	<symbol viewBox="0 0 52 52" fill="none" id="square-arrow-black">
		<path d="M13.1429 2H2V50H50V38.8571" stroke="#333333" stroke-width="4"/>
		<path d="M50 26.8574L50 2.00028L25.1429 2.00028" stroke="#333333" stroke-width="4"/>
		<path d="M26 26L50 2" stroke="#333333" stroke-width="4"/>
	</symbol>
	<symbol viewBox="0 0 26 26" fill="none" id="arrow-down-border">
		<rect x="0.5" y="0.5" width="25" height="25" rx="0.5" stroke="#F3F3F3"/>
		<path d="M17 11L13 15L9 11" stroke="#333333" stroke-width="2"/>
	</symbol>
	<symbol viewBox="0 0 28 15" fill="none" id="arrow-big-gray">
		<path d="M1 14L14 2L27 14" stroke="#545863" stroke-width="2"/>
	</symbol>
	<symbol viewBox="0 0 7 10" fill="none" id="arrow-left-bold">
		<path d="M6.10059 9L1.99975 5L6.10059 1" stroke="#333333" stroke-width="2"/>
	</symbol>
	<symbol viewBox="0 0 6 5" fill="none" id="breadcrumbs-arrow">
			<path d="M2.59808 5L0 0.5L5.19615 0.5L2.59808 5Z" fill="#C4C4C4"/>
	</symbol>
	<symbol viewBox="0 0 31 22" fill="none" id="product-handle-rotate">
		<path d="M24.8841 8.85111C24.5465 8.7545 24.1947 8.94994 24.0983 9.28744C24.0017 9.62494 24.1971 9.97681 24.5345 10.0733C27.4356 10.903 29.2378 12.1064 29.2378 13.214C29.2378 14.0245 28.252 14.9141 26.5332 15.6548C24.6422 16.4696 21.9596 17.0658 18.9766 17.3343L16.373 17.299C16.37 17.299 16.3671 17.299 16.3642 17.299C16.0171 17.299 15.7335 17.5779 15.7288 17.926C15.7241 18.277 16.0048 18.5654 16.3557 18.5701L18.9921 18.6058C18.995 18.6058 18.9979 18.6059 19.0007 18.6059C19.0196 18.6059 19.0384 18.6051 19.0572 18.6034C22.184 18.3246 25.0177 17.692 27.0363 16.8222C29.9065 15.5853 30.509 14.1773 30.509 13.214C30.509 11.4379 28.5113 9.88846 24.8841 8.85111Z" fill="#333333"/>
		<path d="M6.15757 8.12705C5.80659 8.12705 5.52197 8.4116 5.52197 8.76264C5.52197 9.11368 5.80659 9.39823 6.15757 9.39823H8.77119V12.0253H6.15757C5.80659 12.0253 5.52197 12.3099 5.52197 12.6609C5.52197 13.012 5.80659 13.2965 6.15757 13.2965H9.40678C9.75782 13.2965 10.0424 13.012 10.0424 12.6609V4.86435C10.0424 4.51331 9.75782 4.22876 9.40678 4.22876H6.15757C5.80659 4.22876 5.52197 4.51331 5.52197 4.86435C5.52197 5.21539 5.80659 5.49995 6.15757 5.49995H8.77119V8.12705H6.15757Z" fill="#333333"/>
		<path d="M12.0765 13.4238H15.9749C16.3258 13.4238 16.6105 13.1392 16.6105 12.7882V8.8899C16.6105 8.53886 16.3259 8.25431 15.9749 8.25431H12.7121V5.62714H15.3257C15.6768 5.62714 15.9613 5.34259 15.9613 4.99155C15.9613 4.64051 15.6768 4.35596 15.3257 4.35596H12.0765C11.7255 4.35596 11.4409 4.64051 11.4409 4.99155V12.7882C11.4409 13.1392 11.7255 13.4238 12.0765 13.4238ZM12.7121 9.52543H15.3393V12.1525H12.7121V9.52543Z" fill="#333333"/>
		<path d="M18.5038 13.2966H22.4021C22.7531 13.2966 23.0377 13.012 23.0377 12.661V4.86435C23.0377 4.51331 22.7531 4.22876 22.4021 4.22876H18.5038C18.1528 4.22876 17.8682 4.51331 17.8682 4.86435V12.661C17.8682 13.012 18.1528 13.2966 18.5038 13.2966ZM19.1394 5.49995H21.7665V12.0254H19.1394V5.49995Z" fill="#333333"/>
		<path d="M11.6225 14.8774C11.3958 14.6095 10.9947 14.576 10.7268 14.8027C10.4587 15.0294 10.4253 15.4304 10.652 15.6984L12.0735 17.3789C9.07378 17.1502 6.35694 16.6004 4.35933 15.8122C2.39694 15.0378 1.27143 14.0909 1.27143 13.2141C1.27143 12.196 2.78007 11.0988 5.307 10.2792C5.64094 10.1709 5.8238 9.81241 5.7155 9.47847C5.60726 9.14459 5.24866 8.96173 4.91484 9.06997C3.44478 9.54679 2.27904 10.1141 1.44991 10.7559C0.487998 11.5009 0.000244141 12.3278 0.000244141 13.2141C0.000244141 14.6826 1.3463 15.9898 3.89274 16.9946C5.96249 17.8113 8.73768 18.3846 11.7885 18.6318L10.5208 20.0367C10.2857 20.2973 10.3063 20.6992 10.5669 20.9343C10.6884 21.044 10.8407 21.0981 10.9925 21.0981C11.1661 21.0981 11.3391 21.0273 11.4646 20.8882L13.7773 18.3252C13.8827 18.2085 13.941 18.0567 13.941 17.8994V17.8509C13.941 17.7006 13.8878 17.5551 13.7907 17.4404L11.6225 14.8774Z" fill="#333333"/>
		<path d="M24.2428 4.19606H26.841C27.192 4.19606 27.4766 3.9115 27.4766 3.56047V0.961276C27.4766 0.610238 27.192 0.325684 26.841 0.325684H24.2428C23.8918 0.325684 23.6072 0.610238 23.6072 0.961276V3.56047C23.6072 3.9115 23.8918 4.19606 24.2428 4.19606ZM24.8784 1.59687H26.2054V2.92487H24.8784V1.59687Z" fill="#333333"/>
	</symbol>
	<symbol viewBox="0 0 27 26" fill="none" id="product-handle-move">
		<path d="M25.5604 13.5067H1.72635C1.2878 13.5067 0.931885 13.1507 0.931885 12.7122C0.931885 12.2736 1.2878 11.9177 1.72635 11.9177H25.5604C25.9989 11.9177 26.3548 12.2736 26.3548 12.7122C26.3548 13.1507 25.9989 13.5067 25.5604 13.5067Z" fill="#333333"/>
		<path d="M13.6431 25.4237C13.2046 25.4237 12.8486 25.0678 12.8486 24.6292V0.7952C12.8486 0.356652 13.2046 0.000732422 13.6431 0.000732422C14.0816 0.000732422 14.4376 0.356652 14.4376 0.7952V24.6292C14.4376 25.0678 14.0816 25.4237 13.6431 25.4237Z" fill="#333333"/>
		<path d="M17.6154 5.56205C17.4119 5.56205 17.2087 5.48466 17.0539 5.3291L13.6431 1.91925L10.2323 5.3291C9.92172 5.63944 9.41858 5.63944 9.10824 5.3291C8.7979 5.01857 8.7979 4.51543 9.10824 4.20509L13.0806 0.232754C13.3909 -0.0775847 13.8941 -0.0775847 14.2046 0.232754L18.1769 4.20509C18.4873 4.51543 18.4873 5.01857 18.1769 5.3291C18.0221 5.48466 17.8189 5.56205 17.6154 5.56205Z" fill="#333333"/>
		<path d="M13.6436 25.4236C13.4401 25.4236 13.2368 25.3462 13.082 25.1907L9.10971 21.2183C8.79937 20.9078 8.79937 20.4047 9.10971 20.0943C9.42024 19.784 9.92338 19.784 10.2337 20.0943L13.6445 23.5053L17.0555 20.0943C17.3659 19.784 17.869 19.784 18.1794 20.0943C18.4899 20.4047 18.4899 20.9078 18.1794 21.2183L14.207 25.1907C14.0503 25.3462 13.847 25.4236 13.6436 25.4236Z" fill="#333333"/>
		<path d="M5.69849 17.4792C5.49503 17.4792 5.29176 17.4018 5.13697 17.2463L1.16464 13.2739C0.8543 12.9634 0.8543 12.4603 1.16464 12.1499L5.13697 8.17758C5.44751 7.86724 5.95064 7.86724 6.26098 8.17758C6.57132 8.48792 6.57132 8.99105 6.26098 9.30159L2.84997 12.7124L6.26098 16.1234C6.57132 16.4338 6.57132 16.9369 6.26098 17.2472C6.10523 17.4018 5.90196 17.4792 5.69849 17.4792Z" fill="#333333"/>
		<path d="M21.588 17.4791C21.3845 17.4791 21.1812 17.4017 21.0265 17.2462C20.7161 16.9356 20.7161 16.4325 21.0265 16.1221L24.4375 12.7113L21.0265 9.30032C20.7161 8.98998 20.7161 8.48684 21.0265 8.1765C21.337 7.86597 21.8401 7.86597 22.1505 8.1765L26.1228 12.1488C26.4331 12.4592 26.4331 12.9623 26.1228 13.2727L22.1505 17.245C21.9947 17.4017 21.7914 17.4791 21.588 17.4791Z" fill="#333333"/>
	</symbol>
	<symbol viewBox="0 0 26 26" fill="none" id="product-handle-cube">
		<g clip-path="url(#clip0)">
			<path d="M24.4603 5.82331C24.4577 5.81398 24.4526 5.80551 24.4497 5.79619C24.4408 5.76992 24.431 5.74449 24.4171 5.72076C24.4103 5.7089 24.401 5.69873 24.3929 5.68729C24.3793 5.66822 24.3654 5.64958 24.3488 5.63305C24.3378 5.62203 24.3255 5.61314 24.3137 5.60339C24.3022 5.59407 24.2925 5.58347 24.2802 5.57542C24.2734 5.57119 24.2654 5.56907 24.2586 5.56525C24.2522 5.56186 24.2476 5.55636 24.2412 5.55339L13.2243 0.0449153C13.2204 0.0432203 13.2162 0.0440678 13.2124 0.0419492C13.1577 0.0165254 13.0984 0 13.0344 0C12.9704 0 12.9111 0.0165254 12.8569 0.0419492C12.8531 0.0436441 12.8488 0.0427966 12.845 0.0449153L1.82807 5.55339C1.82172 5.55678 1.81706 5.56186 1.8107 5.56525C1.8035 5.56907 1.79587 5.57119 1.78909 5.57542C1.77638 5.58347 1.76706 5.59449 1.75561 5.60339C1.74333 5.61314 1.73146 5.62203 1.72044 5.63263C1.70392 5.64915 1.68994 5.6678 1.67638 5.68686C1.66833 5.69831 1.659 5.70847 1.65222 5.72034C1.63824 5.74407 1.6285 5.76992 1.6196 5.79619C1.61663 5.80551 1.61155 5.81356 1.609 5.82331C1.59926 5.85847 1.59375 5.89492 1.59375 5.9322V19.4915C1.59375 19.4941 1.59502 19.4966 1.59502 19.4992C1.59502 19.5076 1.59799 19.5157 1.59841 19.5237C1.6018 19.5669 1.61197 19.6085 1.62765 19.6475C1.63061 19.6542 1.62934 19.6619 1.63273 19.6686C1.63612 19.6763 1.64206 19.6818 1.64629 19.689C1.65689 19.7085 1.66875 19.7263 1.68231 19.7441C1.69333 19.7589 1.70434 19.7733 1.71706 19.786C1.73146 19.8004 1.74714 19.8131 1.76367 19.8254C1.77892 19.8373 1.79417 19.8487 1.8107 19.8581C1.81706 19.8614 1.82172 19.867 1.82807 19.8699L12.845 25.3784C12.8514 25.3814 12.8582 25.3801 12.8645 25.3831C12.9187 25.4076 12.976 25.4237 13.0344 25.4237C13.0929 25.4237 13.1501 25.4076 13.2043 25.3835C13.2107 25.3805 13.2179 25.3818 13.2238 25.3788L24.2408 19.8703C24.3844 19.7987 24.4751 19.6521 24.4751 19.4915V5.9322C24.4751 5.89492 24.47 5.85847 24.4603 5.82331ZM3.17172 18.9589C3.07383 18.7466 2.82214 18.6538 2.60943 18.7517L2.44121 18.8292V6.59449L12.6107 11.2881V24.3144L2.98909 19.5034C3.18146 19.397 3.26536 19.1619 3.17172 18.9589ZM13.0344 1.27119C13.184 1.27119 13.309 1.18941 13.3844 1.07246L23.0734 5.91695L13.4582 10.3547V10.1695C13.4582 9.93559 13.2683 9.74576 13.0344 9.74576C12.8005 9.74576 12.6107 9.93559 12.6107 10.1695V10.3547L2.99544 5.91695L12.6844 1.07246C12.7599 1.18941 12.8849 1.27119 13.0344 1.27119ZM13.4582 15.0691L14.1514 15.389C14.209 15.4157 14.2692 15.428 14.3285 15.428C14.4887 15.428 14.6421 15.3364 14.7137 15.1814C14.8115 14.9691 14.7187 14.7169 14.5065 14.6191L13.737 14.264C13.6459 14.222 13.5488 14.2212 13.4582 14.2441V11.2881L23.6276 6.59449V18.8292L22.9704 18.5258C22.7582 18.428 22.506 18.5203 22.4082 18.7331C22.3099 18.9453 22.4026 19.197 22.6154 19.2953L23.0734 19.5068L13.4582 24.3144V15.0691Z" fill="#333333"/>
			<path d="M8.94265 16.7191C9.00239 16.7191 9.06256 16.7069 9.11977 16.6802L9.88926 16.3251C10.1015 16.2272 10.1948 15.9751 10.0965 15.7628C9.99858 15.5505 9.74646 15.4577 9.53417 15.5556L8.76468 15.9107C8.55239 16.0085 8.45917 16.2607 8.55748 16.473C8.62909 16.628 8.78248 16.7191 8.94265 16.7191Z" fill="#333333"/>
			<path d="M6.63436 17.7843C6.69368 17.7843 6.75427 17.772 6.81148 17.7453L7.58097 17.3902C7.79326 17.2923 7.88605 17.0402 7.78817 16.8279C7.69029 16.6156 7.4386 16.5224 7.22588 16.6207L6.45639 16.9758C6.2441 17.0737 6.15131 17.3258 6.24919 17.5381C6.3208 17.6932 6.47419 17.7843 6.63436 17.7843Z" fill="#333333"/>
			<path d="M4.3257 18.8499C4.38545 18.8499 4.44562 18.8372 4.50282 18.8105L5.27231 18.4554C5.4846 18.3576 5.57782 18.1054 5.47952 17.8932C5.38164 17.6809 5.12867 17.5881 4.91723 17.686L4.14774 18.041C3.93545 18.1389 3.84223 18.391 3.94053 18.6033C4.01214 18.7588 4.16553 18.8499 4.3257 18.8499Z" fill="#333333"/>
			<path d="M19.1232 16.75L18.3537 16.3949C18.1414 16.2971 17.8893 16.3899 17.7914 16.6021C17.6935 16.8144 17.7863 17.0666 17.9986 17.1644L18.7681 17.5195C18.8257 17.5462 18.8859 17.5585 18.9452 17.5585C19.1054 17.5585 19.2588 17.4674 19.3304 17.3123C19.4283 17.1 19.3359 16.8483 19.1232 16.75Z" fill="#333333"/>
			<path d="M21.4313 17.8157L20.6618 17.4606C20.45 17.3623 20.1974 17.4551 20.0995 17.6678C20.0012 17.8801 20.094 18.1318 20.3067 18.2301L21.0762 18.5852C21.1339 18.6119 21.194 18.6242 21.2534 18.6242C21.4135 18.6242 21.5669 18.5331 21.6381 18.378C21.7368 18.1657 21.6436 17.914 21.4313 17.8157Z" fill="#333333"/>
			<path d="M16.8144 15.6853L16.0449 15.3302C15.8326 15.2315 15.5805 15.3247 15.4826 15.5374C15.3843 15.7497 15.4771 16.0014 15.6898 16.0997L16.4593 16.4548C16.5169 16.4815 16.5771 16.4937 16.6364 16.4937C16.7966 16.4937 16.95 16.4026 17.0212 16.2476C17.1199 16.0349 17.0271 15.7832 16.8144 15.6853Z" fill="#333333"/>
			<path d="M11.2513 15.6534C11.3106 15.6534 11.3712 15.6411 11.4284 15.6144L12.1979 15.2593C12.4102 15.1615 12.503 14.9093 12.4051 14.6971C12.3068 14.4848 12.0555 14.3915 11.8428 14.4899L11.0733 14.8449C10.861 14.9428 10.7683 15.1949 10.8661 15.4072C10.9377 15.5623 11.0911 15.6534 11.2513 15.6534Z" fill="#333333"/>
			<path d="M13.0343 3.81357C13.2682 3.81357 13.4581 3.62374 13.4581 3.38984V2.54238C13.4581 2.30848 13.2682 2.11865 13.0343 2.11865C12.8004 2.11865 12.6106 2.30848 12.6106 2.54238V3.38984C12.6106 3.62374 12.8004 3.81357 13.0343 3.81357Z" fill="#333333"/>
			<path d="M13.0343 6.3558C13.2682 6.3558 13.4581 6.16597 13.4581 5.93207V5.08462C13.4581 4.85072 13.2682 4.66089 13.0343 4.66089C12.8004 4.66089 12.6106 4.85072 12.6106 5.08462V5.93207C12.6106 6.16597 12.8004 6.3558 13.0343 6.3558Z" fill="#333333"/>
			<path d="M13.0343 8.89828C13.2682 8.89828 13.4581 8.70845 13.4581 8.47455V7.6271C13.4581 7.3932 13.2682 7.20337 13.0343 7.20337C12.8004 7.20337 12.6106 7.3932 12.6106 7.6271V8.47455C12.6106 8.70845 12.8004 8.89828 13.0343 8.89828Z" fill="#333333"/>
		</g>
		<defs>
			<clipPath id="clip0">
				<rect width="25.4237" height="25.4237" fill="white" transform="translate(0.32251)"/>
			</clipPath>
		</defs>
	</symbol>
	<symbol viewBox="0 0 21 22" fill="none" id="guarantee">
		<path d="M19.7476 3.49993C18.1452 3.49993 16.8416 2.21951 16.8416 0.645734V0H3.56348V0.645734C3.56348 2.21959 2.2598 3.49993 0.657458 3.49993H0V7.79414C0 10.8799 0.946419 13.8513 2.73706 16.3869C4.5277 18.9224 7.02957 20.8342 9.9722 21.9154L10.2025 22L10.4329 21.9154C13.3756 20.8342 15.8775 18.9224 17.668 16.3869C19.4587 13.8513 20.4051 10.8799 20.4051 7.79414V3.49993H19.7476ZM19.0902 7.79414H19.0902C19.0902 10.6156 18.2248 13.3324 16.5875 15.6508C14.9973 17.9027 12.7933 19.6165 10.2025 20.6188C7.61173 19.6164 5.40771 17.9027 3.81748 15.6508C2.18027 13.3324 1.31492 10.6156 1.31492 7.79414V4.74121C3.11693 4.46321 4.54424 3.06135 4.82729 1.29147H15.5778C15.8608 3.06135 17.2882 4.46321 19.0902 4.74121V7.79414Z" fill="#333333"/>
		<path d="M13.1361 6.06665L8.78409 10.3411L7.26859 8.85262L4.47925 11.5923L8.78409 15.8203L15.9254 8.8063L13.1361 6.06665ZM6.33884 11.5924L7.26863 10.6791L8.78414 12.1676L13.1361 7.89317L14.0659 8.80638L8.78414 13.994L6.33884 11.5924Z" fill="#333333"/>
	</symbol>

	<symbol viewBox="0 0 10 7" fill="none" id="compare-arrow-down">
		<path d="M9 1L5 5.10084L1 1" stroke-width="2"/>
	</symbol>
	<symbol viewBox="0 0 8 14" fill="none" id="compare-arrow-left">
		<path d="M7.284 13.1538L0.999997 6.99996L7.284 0.846116"/>
	</symbol>
	<symbol viewBox="0 0 8 14" fill="none" id="compare-arrow-right">
		<path d="M1 0.846191L7.284 7.00004L1 13.1539"/>
	</symbol>
	<symbol viewBox="0 0 17 17" fill="none" id="compare-close">
		<path d="M15.5 1L1 15.5" stroke-width="2"/>
		<path d="M15.5 15.5L1 0.999999" stroke-width="2"/>
	</symbol>
	<symbol viewBox="0 0 18 13" fill="none" id="compare-table-check">
		<path d="M1 6.5L6.62162 12L17 1" stroke="#333333"/>
	</symbol>
	<symbol viewBox="0 0 16 2" fill="none" id="compare-table-minus">
		<path d="M0 1H15.5" stroke="#333333"/>
	</symbol>

	<symbol viewBox="0 0 20 20" fill="none" id="catalog-view-list">
		<rect width="4" height="4" fill="var(--color)"/>
		<rect y="8" width="4" height="4" fill="var(--color)"/>
		<rect x="8" width="12" height="4" fill="var(--color)"/>
		<rect x="8" y="8" width="12" height="4" fill="var(--color)"/>
		<rect y="16" width="4" height="4" fill="var(--color)"/>
		<rect x="8" y="16" width="12" height="4" fill="var(--color)"/>
	</symbol>

	<symbol viewBox="0 0 20 20" fill="none" id="catalog-view-grid">
		<rect width="8" height="8" fill="var(--color)"/>
		<rect y="12" width="8" height="8" fill="var(--color)"/>
		<rect x="12" width="8" height="8" fill="var(--color)"/>
		<rect x="12" y="12" width="8" height="8" fill="var(--color)"/>
	</symbol>

	<symbol viewBox="0 0 20 20" fill="none" id="catalog-view-stroke">
		<rect y="0" width="20" height="2" fill="var(--color)"/>
		<rect y="6" width="20" height="2" fill="var(--color)"/>
		<rect y="12" width="20" height="2" fill="var(--color)"/>
		<rect y="18" width="20" height="2" fill="var(--color)"/>
	</symbol>

	<symbol viewBox="0 0 18 11" fill="none" id="select-arrow-down">
		<path d="M17 1L9 9L1 1" stroke="#333333" stroke-width="2" />
	</symbol>

	<symbol viewBox="0 0 10 10" fill="none" id="download">
		<path d="M8.00368 5.36779L5.00006 8.33189L1.99644 5.36779L2.54889 4.82262L4.60944 6.85605V-9.15527e-05H5.39069V6.85605L7.45123 4.82262L8.00368 5.36779ZM10.0001 9.09736H6.10352e-05V9.86833H10.0001V9.09736Z" fill="#4F4F4F"/>
	</symbol>

	<symbol viewBox="0 0 18 13" fill="none" id="eye">
		<path d="M11.5972 6.22045C11.5972 7.73791 10.4344 8.96806 9 8.96806C7.5656 8.96806 6.40278 7.73791 6.40278 6.22045C6.40278 4.70298 7.5656 3.47283 9 3.47283C10.4344 3.47283 11.5972 4.70298 11.5972 6.22045Z" fill="white"/>
		<path fill-rule="evenodd" clip-rule="evenodd" d="M0.0362066 6.04885C1.60806 2.47592 5.02982 0 9 0C12.9702 0 16.3919 2.47592 17.9638 6.04885C18.0121 6.15916 18.0121 6.28582 17.9638 6.39409C16.3919 9.96701 12.9702 12.4429 9 12.4429C5.02984 12.4429 1.60806 9.96699 0.0362066 6.39409C-0.0120689 6.28377 -0.0120689 6.15712 0.0362066 6.04885ZM4.94293 6.22249C4.94293 8.59218 6.75809 10.5145 9 10.5145C11.24 10.5145 13.0571 8.59218 13.0571 6.22249C13.0571 3.85279 11.2419 1.93048 9 1.93048C6.76002 1.93048 4.94293 3.85075 4.94293 6.22249Z" fill="white"/>
	</symbol>

	<symbol viewBox="0 0 11 18" fill="none" id="order-step-back">
		<path d="M9.48633 17L1.61467 9L9.48633 1" stroke="#333333" stroke-width="2"/>

	</symbol>

	<symbol viewBox="0 0 16 16" fill="none" id="personal-icon">
		<circle cx="8" cy="8" r="7.5" stroke="#D33234"/>
		<circle cx="8" cy="6" r="2.5" stroke="#D33234"/>
		<path d="M13 13.5C13 10.7386 10.7614 9 8 9C5.23858 9 3 10.7386 3 13.5" stroke="#D33234"/>
	</symbol>

	<symbol viewBox="0 0 16 16" fill="none" id="personal-orders">
		<rect x="0.5" y="9.5" width="6" height="6" stroke="#D33234"/>
		<rect x="9.5" y="9.5" width="6" height="6" stroke="#D33234"/>
		<rect x="2.5" y="9.5" width="2" height="2" stroke="#D33234"/>
		<rect x="11.5" y="9.5" width="2" height="2" stroke="#D33234"/>
		<rect x="0.5" y="0.5" width="6" height="6" stroke="#D33234"/>
		<rect x="9.5" y="0.5" width="6" height="6" stroke="#D33234"/>
		<rect x="2.5" y="0.5" width="2" height="2" stroke="#D33234"/>
		<rect x="11.5" y="0.5" width="2" height="2" stroke="#D33234"/>
	</symbol>

	<symbol viewBox="0 0 16 12" fill="none" id="personal-email">
		<rect x="0.5" y="0.5" width="15" height="11" stroke="#D33234"/>
		<path d="M0.5 0.5H15.5V3.69098L8 7.44098L0.5 3.69098V0.5Z" stroke="#D33234"/>
	</symbol>

	<symbol viewBox="0 0 15 15" fill="none" id="personal-logout">
		<path d="M8 1H1V14H8" stroke="#D33234"/>
		<line x1="6" y1="7.5" x2="14" y2="7.5" stroke="#D33234"/>
		<path d="M11 4L14 7.5L11 11" stroke="#D33234"/>
	</symbol>

	<symbol viewBox="0 0 25 15" fill="none" id="promo">
		<path d="M17.9822 8.43889L18.8306 8.4392L18.8303 9.32119L17.9819 9.32089L17.9822 8.43889Z" fill="#333333"/>
		<path d="M17.982 6.67537L18.8306 6.67553L18.8306 7.55752L17.9822 7.55752L17.982 6.67537Z" fill="#333333"/>
		<path d="M17.982 4.91269L18.8306 4.91284L18.8306 5.79485L17.9822 5.79485L17.982 4.91269Z" fill="#333333"/>
		<path d="M17.982 11.9654L18.8306 11.9656L18.8306 12.8476L17.9822 12.8476L17.982 11.9654Z" fill="#333333"/>
		<path d="M17.9819 10.2024L18.8305 10.2022L18.8306 11.0844L17.982 11.0845L17.9819 10.2024Z" fill="#333333"/>
		<path d="M9.63054 11.4991C9.51795 11.3818 9.47812 11.2089 9.52732 11.0515L10.0478 9.3844L8.68459 8.35414C8.53423 8.24227 8.47083 8.04182 8.52822 7.85918C8.58561 7.67623 8.75018 7.55325 8.93509 7.55493L10.6208 7.55493L11.1432 5.88983C11.2 5.7081 11.3628 5.58512 11.5466 5.58527C11.7303 5.58512 11.8931 5.7081 11.9498 5.88968L12.4725 7.55538L14.1584 7.55493C14.3434 7.5531 14.5082 7.67623 14.5654 7.85903C14.6228 8.04197 14.5595 8.24227 14.4092 8.35414L13.0384 9.38288L13.5591 11.0503C13.6155 11.2318 13.5531 11.4306 13.4044 11.5426C13.2556 11.6547 13.0545 11.6543 12.906 11.542L11.5421 10.5119L10.1799 11.5438C10.0313 11.656 9.83009 11.656 9.68149 11.5438C9.66333 11.5305 9.6462 11.5154 9.63054 11.4991ZM10.8476 8.90329C10.9604 9.02048 11.0002 9.19369 10.951 9.35137L10.7381 10.032L11.2942 9.61255C11.4428 9.50038 11.6441 9.50053 11.7929 9.61286L12.3489 10.032L12.136 9.35137C12.0792 9.16964 12.1413 8.97087 12.2898 8.85854L12.8471 8.4374L12.1598 8.43846C11.9762 8.43816 11.8133 8.31518 11.7568 8.13345L11.5435 7.45234L11.3309 8.1336C11.2741 8.31503 11.1113 8.438 10.9277 8.438L10.2384 8.43831L10.7958 8.85945C10.8143 8.87254 10.8315 8.88715 10.8476 8.90329Z" fill="#D33234"/>
		<path d="M24.2684 13.2877L24.2684 10.2016L23.8444 10.2016C23.3874 10.2054 22.9637 9.9543 22.734 9.54351C22.5046 9.13272 22.5046 8.62559 22.7343 8.2148C22.9639 7.80416 23.3877 7.55287 23.8447 7.55698L24.2686 7.55698L24.2684 4.47126C24.2685 3.74085 23.6988 3.14864 22.9961 3.14864L20.8762 3.14879L20.8762 1.82647C20.8762 1.0959 20.3067 0.503842 19.604 0.503842L1.29805 0.503842C0.595291 0.503842 0.0256193 1.09606 0.0257655 1.82647L0.0257652 4.91249L0.449615 4.91234C1.14564 4.92908 1.70594 5.51156 1.7219 6.23497C1.72204 6.96538 1.15237 7.55759 0.449762 7.55744L0.0257657 7.55744L0.0254728 10.6438C0.0256184 11.3739 0.594997 11.9658 1.29731 11.9659L3.41759 11.9656L3.41788 13.2883C3.41788 14.0185 3.98726 14.6104 4.68987 14.6106L22.9964 14.61C23.6991 14.61 24.2688 14.0178 24.2686 13.2873L24.2684 13.2877ZM1.29761 11.0835C1.18502 11.0836 1.07712 11.0372 0.997618 10.9546C0.917972 10.8718 0.873318 10.7596 0.873465 10.6426L0.874051 8.39455C1.86274 8.18618 2.5734 7.28272 2.5734 6.23405C2.57326 5.18524 1.86245 4.28193 0.873758 4.07387L0.873465 1.82616C0.873465 1.58264 1.06321 1.38539 1.29746 1.38539L19.604 1.38539C19.7165 1.38524 19.8245 1.43166 19.9041 1.51446C19.9837 1.59725 20.0284 1.70942 20.0282 1.82647L20.0282 3.14879L4.68972 3.14909C3.98741 3.14925 3.41803 3.74116 3.41788 4.47126L3.41759 7.55698L3.84158 7.55698C4.54419 7.55683 5.11386 8.14905 5.11372 8.87946C5.11387 9.60987 4.54419 10.2021 3.84158 10.2019L3.41729 10.2016L3.41759 11.0835H1.29761ZM22.9961 13.7287L4.68987 13.7284C4.45562 13.7284 4.26573 13.531 4.26587 13.2877L4.26587 11.0396C5.25339 10.8301 5.96244 9.92675 5.962 8.87915C5.96039 7.83247 5.25207 6.93083 4.26587 6.71988L4.26587 4.47126C4.26573 4.22789 4.45562 4.03049 4.68987 4.03049L22.9961 4.03018C23.1085 4.03018 23.2167 4.07661 23.2962 4.15925C23.3759 4.24205 23.4204 4.35437 23.4204 4.47126L23.4221 6.71744C22.434 6.92611 21.7241 7.82912 21.7239 8.87733C21.7239 9.92538 22.4339 10.8287 23.4218 11.0375L23.4218 13.2867C23.4218 13.53 23.2319 13.7274 22.9978 13.7275L22.9961 13.7287Z" fill="#333333"/>
	</symbol>

	<symbol viewBox="0 0 25 15" fill="none" id="promo-active">
		<path d="M17.9822 8.43889L18.8306 8.4392L18.8303 9.32119L17.9819 9.32089L17.9822 8.43889Z" fill="white"/>
		<path d="M17.982 6.67537L18.8306 6.67553L18.8306 7.55752L17.9822 7.55752L17.982 6.67537Z" fill="white"/>
		<path d="M17.982 4.91269L18.8306 4.91284L18.8306 5.79485L17.9822 5.79485L17.982 4.91269Z" fill="white"/>
		<path d="M17.982 11.9654L18.8306 11.9656L18.8306 12.8476L17.9822 12.8476L17.982 11.9654Z" fill="white"/>
		<path d="M17.9819 10.2024L18.8305 10.2022L18.8306 11.0844L17.982 11.0845L17.9819 10.2024Z" fill="white"/>
		<path d="M9.63054 11.4991C9.51795 11.3818 9.47812 11.2089 9.52732 11.0515L10.0478 9.3844L8.68459 8.35414C8.53423 8.24227 8.47083 8.04182 8.52822 7.85918C8.58561 7.67623 8.75018 7.55325 8.93509 7.55493L10.6208 7.55493L11.1432 5.88983C11.2 5.7081 11.3628 5.58512 11.5466 5.58527C11.7303 5.58512 11.8931 5.7081 11.9498 5.88968L12.4725 7.55538L14.1584 7.55493C14.3434 7.5531 14.5082 7.67623 14.5654 7.85903C14.6228 8.04197 14.5595 8.24227 14.4092 8.35414L13.0384 9.38288L13.5591 11.0503C13.6155 11.2318 13.5531 11.4306 13.4044 11.5426C13.2556 11.6547 13.0545 11.6543 12.906 11.542L11.5421 10.5119L10.1799 11.5438C10.0313 11.656 9.83009 11.656 9.68149 11.5438C9.66333 11.5305 9.6462 11.5154 9.63054 11.4991ZM10.8476 8.90329C10.9604 9.02048 11.0002 9.19369 10.951 9.35137L10.7381 10.032L11.2942 9.61255C11.4428 9.50038 11.6441 9.50053 11.7929 9.61286L12.3489 10.032L12.136 9.35137C12.0792 9.16964 12.1413 8.97087 12.2898 8.85854L12.8471 8.4374L12.1598 8.43846C11.9762 8.43816 11.8133 8.31518 11.7568 8.13345L11.5435 7.45234L11.3309 8.1336C11.2741 8.31503 11.1113 8.438 10.9277 8.438L10.2384 8.43831L10.7958 8.85945C10.8143 8.87254 10.8315 8.88715 10.8476 8.90329Z" fill="white"/>
		<path d="M24.2684 13.2877L24.2684 10.2016L23.8444 10.2016C23.3874 10.2054 22.9637 9.9543 22.734 9.54351C22.5046 9.13272 22.5046 8.62559 22.7343 8.2148C22.9639 7.80416 23.3877 7.55287 23.8447 7.55698L24.2686 7.55698L24.2684 4.47126C24.2685 3.74085 23.6988 3.14864 22.9961 3.14864L20.8762 3.14879L20.8762 1.82647C20.8762 1.0959 20.3067 0.503842 19.604 0.503842L1.29805 0.503842C0.595291 0.503842 0.0256193 1.09606 0.0257655 1.82647L0.0257652 4.91249L0.449615 4.91234C1.14564 4.92908 1.70594 5.51156 1.7219 6.23497C1.72204 6.96538 1.15237 7.55759 0.449762 7.55744L0.0257657 7.55744L0.0254728 10.6438C0.0256184 11.3739 0.594997 11.9658 1.29731 11.9659L3.41759 11.9656L3.41788 13.2883C3.41788 14.0185 3.98726 14.6104 4.68987 14.6106L22.9964 14.61C23.6991 14.61 24.2688 14.0178 24.2686 13.2873L24.2684 13.2877ZM1.29761 11.0835C1.18502 11.0836 1.07712 11.0372 0.997618 10.9546C0.917972 10.8718 0.873318 10.7596 0.873465 10.6426L0.874051 8.39455C1.86274 8.18618 2.5734 7.28272 2.5734 6.23405C2.57326 5.18524 1.86245 4.28193 0.873758 4.07387L0.873465 1.82616C0.873465 1.58264 1.06321 1.38539 1.29746 1.38539L19.604 1.38539C19.7165 1.38524 19.8245 1.43166 19.9041 1.51446C19.9837 1.59725 20.0284 1.70942 20.0282 1.82647L20.0282 3.14879L4.68972 3.14909C3.98741 3.14925 3.41803 3.74116 3.41788 4.47126L3.41759 7.55698L3.84158 7.55698C4.54419 7.55683 5.11386 8.14905 5.11372 8.87946C5.11387 9.60987 4.54419 10.2021 3.84158 10.2019L3.41729 10.2016L3.41759 11.0835H1.29761ZM22.9961 13.7287L4.68987 13.7284C4.45562 13.7284 4.26573 13.531 4.26587 13.2877L4.26587 11.0396C5.25339 10.8301 5.96244 9.92675 5.962 8.87915C5.96039 7.83247 5.25207 6.93083 4.26587 6.71988L4.26587 4.47126C4.26573 4.22789 4.45562 4.03049 4.68987 4.03049L22.9961 4.03018C23.1085 4.03018 23.2167 4.07661 23.2962 4.15925C23.3759 4.24205 23.4204 4.35437 23.4204 4.47126L23.4221 6.71744C22.434 6.92611 21.7241 7.82912 21.7239 8.87733C21.7239 9.92538 22.4339 10.8287 23.4218 11.0375L23.4218 13.2867C23.4218 13.53 23.2319 13.7274 22.9978 13.7275L22.9961 13.7287Z" fill="white"/>
	</symbol>

	<symbol viewBox="0 0 19 19" fill="none" id="male">
		<path d="M13 12C13 8.68629 10.3137 6 7 6C3.68629 6 1 8.68629 1 12C1 15.3137 3.68629 18 7 18C10.3137 18 13 15.3137 13 12Z" stroke-width="2" stroke-miterlimit="10"/>
		<path d="M11 8L17 2" stroke-width="2" stroke-miterlimit="10"/>
		<path d="M18 7V1H12" stroke-width="2"/>
	</symbol>

	<symbol viewBox="0 0 26 28" fill="none" id="female">
		<path d="M8.77689 14.7279C11.12 17.0711 14.919 17.0711 17.2622 14.7279C19.6053 12.3848 19.6053 8.58579 17.2622 6.24264C14.919 3.89949 11.12 3.89949 8.77689 6.24264C6.43375 8.58579 6.43374 12.3848 8.77689 14.7279Z" stroke-width="2" stroke-miterlimit="10"/>
		<path d="M13.0195 16.1421L12.999 27" stroke-width="2" stroke-miterlimit="10"/>
		<path d="M16.4336 23.4314L9.58383 23.4185" stroke-width="2" stroke-miterlimit="10"/>
	</symbol>

	<symbol viewBox="0 0 17 20" id="delete">
		<path d="M10.8864 7.24609C10.6276 7.24609 10.418 7.45577 10.418 7.71448V16.5669C10.418 16.8255 10.6276 17.0353 10.8864 17.0353C11.1451 17.0353 11.3547 16.8255 11.3547 16.5669V7.71448C11.3547 7.45577 11.1451 7.24609 10.8864 7.24609Z" />
		<path d="M5.35901 7.24609C5.1003 7.24609 4.89062 7.45577 4.89062 7.71448V16.5669C4.89062 16.8255 5.1003 17.0353 5.35901 17.0353C5.61772 17.0353 5.82739 16.8255 5.82739 16.5669V7.71448C5.82739 7.45577 5.61772 7.24609 5.35901 7.24609Z" />
		<path d="M1.33028 5.95419V17.4942C1.33028 18.1762 1.58039 18.8168 2.01731 19.2764C2.45221 19.7373 3.05744 19.9989 3.69086 20H12.5528C13.1864 19.9989 13.7916 19.7373 14.2264 19.2764C14.6633 18.8168 14.9134 18.1762 14.9134 17.4942V5.95419C15.7819 5.72366 16.3447 4.8846 16.2285 3.99339C16.1121 3.10236 15.353 2.43583 14.4543 2.43565H12.0562V1.85017C12.059 1.35782 11.8643 0.885049 11.5158 0.537238C11.1672 0.18961 10.6937 -0.00396362 10.2014 6.15416e-05H6.04228C5.54993 -0.00396362 5.07643 0.18961 4.72789 0.537238C4.37934 0.885049 4.18467 1.35782 4.18742 1.85017V2.43565H1.78933C0.890625 2.43583 0.131516 3.10236 0.0151524 3.99339C-0.101028 4.8846 0.461763 5.72366 1.33028 5.95419ZM12.5528 19.0632H3.69086C2.89003 19.0632 2.26705 18.3753 2.26705 17.4942V5.99536H13.9766V17.4942C13.9766 18.3753 13.3536 19.0632 12.5528 19.0632ZM5.12418 1.85017C5.12107 1.60628 5.21694 1.37154 5.39003 1.19938C5.56292 1.02721 5.79821 0.932619 6.04228 0.936827H10.2014C10.4454 0.932619 10.6807 1.02721 10.8536 1.19938C11.0267 1.37136 11.1226 1.60628 11.1195 1.85017V2.43565H5.12418V1.85017ZM1.78933 3.37242H14.4543C14.92 3.37242 15.2974 3.74987 15.2974 4.21551C15.2974 4.68114 14.92 5.05859 14.4543 5.05859H1.78933C1.3237 5.05859 0.946246 4.68114 0.946246 4.21551C0.946246 3.74987 1.3237 3.37242 1.78933 3.37242Z"/>
		<path d="M8.12073 7.24609C7.86202 7.24609 7.65234 7.45577 7.65234 7.71448V16.5669C7.65234 16.8255 7.86202 17.0353 8.12073 17.0353C8.37944 17.0353 8.58911 16.8255 8.58911 16.5669V7.71448C8.58911 7.45577 8.37944 7.24609 8.12073 7.24609Z" />
	</symbol>

	<symbol viewBox="0 0 10 10" id="plus">
		<path d="M5.83333 0H3.5V3.5H0V5.83333H3.5V9.33333H5.83333V5.83333H9.33333V3.5H5.83333V0Z" />
	</symbol>

	<symbol viewBox="0 0 12 16" id="lock">
		<path d="M11.5 7H10V4C10 1.79444 8.20556 0 6 0C3.79444 0 2 1.79444 2 4V7H0.5C0.223875 7 0 7.22387 0 7.5V15.5C0 15.7761 0.223875 16 0.5 16H11.5C11.7761 16 12 15.7761 12 15.5V7.5C12 7.22387 11.7761 7 11.5 7ZM3 4C3 2.34569 4.34572 1 6 1C7.65428 1 9 2.34572 9 4V7H8.5V4C8.5 2.62159 7.37841 1.5 6 1.5C4.62159 1.5 3.5 2.62159 3.5 4V7H3V4ZM4.5 7V4C4.5 3.17284 5.17284 2.5 6 2.5C6.82716 2.5 7.5 3.17284 7.5 4V7H4.5ZM11 15H1V8H11V15Z"/>
	</symbol>

	<symbol viewBox="0 0 51 31" fill="none" id="pay-card">
		<path d="M29.2419 25.1081H43.8629C44.4112 25.1081 44.7767 24.7427 44.7767 24.1944V15.97C44.7767 15.4217 44.4112 15.0562 43.8629 15.0562H29.2419C28.6936 15.0562 28.3281 15.4217 28.3281 15.97V24.1944C28.328 24.7425 28.6936 25.1081 29.2419 25.1081ZM30.1557 16.8838H42.9492V23.2805H30.1557V16.8838Z" fill="#D33234"/>
		<path d="M6.55441 20.9045H11.8783C12.4266 20.9045 12.792 20.539 12.792 19.9907C12.792 19.4424 12.4266 19.0769 11.8783 19.0769H6.55441C6.00612 19.0769 5.64062 19.4424 5.64062 19.9907C5.64062 20.539 6.00612 20.9045 6.55441 20.9045Z" fill="#D33234"/>
		<path d="M15.5349 20.9045H22.8454C23.3937 20.9045 23.7592 20.539 23.7592 19.9907C23.7592 19.4424 23.3937 19.0769 22.8454 19.0769H15.5349C14.9866 19.0769 14.6211 19.4424 14.6211 19.9907C14.6211 20.539 14.9866 20.9045 15.5349 20.9045Z" fill="#D33234"/>
		<path d="M6.55831 24.5598H16.4499C16.9982 24.5598 17.3637 24.1943 17.3637 23.646C17.3637 23.0977 16.9982 22.7322 16.4499 22.7322H6.55831C6.01002 22.7322 5.64453 23.0977 5.64453 23.646C5.64453 24.1943 6.01002 24.5598 6.55831 24.5598Z" fill="#D33234"/>
		<path d="M22.8466 22.7321H20.1052C19.5569 22.7321 19.1914 23.0976 19.1914 23.6459C19.1914 24.1942 19.5569 24.5597 20.1052 24.5597H22.8466C23.3949 24.5597 23.7604 24.1942 23.7604 23.6459C23.7604 23.0976 23.3949 22.7321 22.8466 22.7321Z" fill="#D33234"/>
		<path d="M6.55831 17.3276H16.4494C16.9977 17.3276 17.3632 16.9621 17.3632 16.4139C17.3632 15.8656 16.9977 15.5001 16.4494 15.5001H6.55831C6.01002 15.5001 5.64453 15.8656 5.64453 16.4139C5.64453 16.9621 6.01002 17.3276 6.55831 17.3276Z" fill="#D33234"/>
		<path d="M22.8466 15.5H20.1052C19.5569 15.5 19.1914 15.8655 19.1914 16.4138C19.1914 16.9621 19.5569 17.3276 20.1052 17.3276H22.8466C23.3949 17.3276 23.7604 16.9621 23.7604 16.4138C23.7604 15.8655 23.3949 15.5 22.8466 15.5Z" fill="#D33234"/>
		<rect x="0.5" y="0.5" width="49.0769" height="30" rx="3.5" stroke="#333333"/>
		<rect x="0.5" y="6.46153" width="49.0769" height="4.96154" rx="0.5" stroke="#333333"/>
	</symbol>

	<symbol viewBox="0 0 13 18" fill="none" id="promo-icon">
		<rect x="0.5" y="2.8335" width="9.66667" height="14.3333" rx="0.5"/>
		<path d="M2 1H11C11.5523 1 12 1.44772 12 2V15.6667"/>
	</symbol>

	<symbol viewBox="0 0 20 34" fill="none" id="arrow-more">
		<path d="M2 2L17 17L2 32" stroke="#333333" stroke-width="3"/>
	</symbol>

</svg>

