<svg width="58" height="59" viewBox="0 0 58 59" fill="none" xmlns="http://www.w3.org/2000/svg">
<path fill-rule="evenodd" clip-rule="evenodd" d="M52.4296 28.6423V43.5345C52.4296 45.0538 51.2071 46.2896 49.7044 46.2896L33.2945 46.2896C31.7914 46.2896 30.5688 45.0538 30.5688 43.5345V28.6423C30.5688 27.123 31.7914 25.8872 33.2941 25.8872H49.704C51.2071 25.8872 52.4296 27.123 52.4296 28.6423ZM32.561 28.6423C32.561 28.2336 32.8898 27.9009 33.2941 27.9009H37.2571V35.8625C37.2571 36.2156 37.4403 36.5433 37.7399 36.7254C37.8975 36.8209 38.0753 36.8693 38.2532 36.8693C38.4135 36.8693 38.5742 36.83 38.7205 36.7517L41.499 35.2595L44.278 36.7517C44.5865 36.9173 44.9589 36.9075 45.2581 36.7254C45.5577 36.5433 45.741 36.2156 45.741 35.8625V27.9009H49.704C50.1082 27.9009 50.437 28.2336 50.437 28.6423L50.4374 43.5345C50.4374 43.9431 50.1086 44.2759 49.7044 44.2759L33.2945 44.2759C32.8902 44.2759 32.5614 43.9431 32.5614 43.5345L32.561 28.6423ZM43.7492 27.9009V34.1874L41.9663 33.2305C41.82 33.1522 41.6597 33.1129 41.499 33.1129C41.3387 33.1129 41.178 33.1522 41.0321 33.2305L39.2493 34.1874V27.9009H43.7492Z" fill="#333333"/>
<path fill-rule="evenodd" clip-rule="evenodd" d="M39.8056 5.41473V20.3069C39.8056 21.8263 38.583 23.062 37.0803 23.062L20.6705 23.062C19.1674 23.062 17.9448 21.8263 17.9448 20.3069V5.41473C17.9448 3.89542 19.1674 2.65967 20.6701 2.65967H37.0799C38.583 2.65967 39.8056 3.89542 39.8056 5.41473ZM19.937 5.41473C19.937 5.00609 20.2658 4.67336 20.6701 4.67336H24.633V12.6349C24.633 12.9881 24.8163 13.3157 25.1159 13.4978C25.2735 13.5934 25.4513 13.6418 25.6291 13.6418C25.7895 13.6418 25.9501 13.6024 26.0965 13.5242L28.875 12.032L31.654 13.5242C31.9625 13.6898 32.3349 13.6799 32.6341 13.4978C32.9337 13.3157 33.117 12.9881 33.117 12.6349V4.67336H37.0799C37.4842 4.67336 37.813 5.00609 37.813 5.41473L37.8134 20.3069C37.8134 20.7156 37.4846 21.0483 37.0803 21.0483L20.6705 21.0483C20.2662 21.0483 19.9374 20.7156 19.9374 20.3069L19.937 5.41473ZM31.1252 4.67336V10.9599L29.3423 10.003C29.196 9.9247 29.0357 9.88537 28.875 9.88537C28.7147 9.88537 28.554 9.9247 28.4081 10.003L26.6252 10.9599V4.67336H31.1252Z" fill="#D33234"/>
<path fill-rule="evenodd" clip-rule="evenodd" d="M27.1811 28.6423V43.5345C27.1811 45.0538 25.9585 46.2896 24.4558 46.2896L8.04595 46.2896C6.54286 46.2896 5.32031 45.0538 5.32031 43.5345V28.6423C5.32031 27.123 6.54286 25.8872 8.04556 25.8872H24.4554C25.9585 25.8872 27.1811 27.123 27.1811 28.6423ZM7.3125 28.6423C7.3125 28.2336 7.64129 27.9009 8.04556 27.9009H12.0085V35.8625C12.0085 36.2156 12.1918 36.5433 12.4914 36.7254C12.649 36.8209 12.8268 36.8693 13.0046 36.8693C13.1649 36.8693 13.3256 36.83 13.4719 36.7517L16.2505 35.2595L19.0294 36.7517C19.338 36.9173 19.7104 36.9075 20.0096 36.7254C20.3092 36.5433 20.4925 36.2156 20.4925 35.8625V27.9009H24.4554C24.8597 27.9009 25.1885 28.2336 25.1885 28.6423L25.1889 43.5345C25.1889 43.9431 24.8601 44.2759 24.4558 44.2759L8.04595 44.2759C7.64168 44.2759 7.31289 43.9431 7.31289 43.5345L7.3125 28.6423ZM18.5007 27.9009V34.1874L16.7178 33.2305C16.5715 33.1522 16.4112 33.1129 16.2505 33.1129C16.0902 33.1129 15.9295 33.1522 15.7836 33.2305L14.0007 34.1874V27.9009H18.5007Z" fill="#333333"/>
<path d="M3.375 50.1216C3.375 49.5655 3.82091 49.1147 4.37109 49.1147H53.3789C53.9291 49.1147 54.375 49.5655 54.375 50.1216V55.6541C54.375 56.2103 53.9291 56.661 53.3789 56.661H44.3796C43.8298 56.661 43.3835 56.2103 43.3835 55.6541C43.3835 55.098 43.8298 54.6473 44.3796 54.6473H52.3828V51.1284H5.36719V54.6473H34.3704C34.9206 54.6473 35.3665 55.098 35.3665 55.6541C35.3665 56.2103 34.9206 56.661 34.3704 56.661H4.37109C3.82091 56.661 3.375 56.2103 3.375 55.6541V50.1216Z" fill="#D33234"/>
<path d="M38.4324 55.996C38.5736 56.3899 38.9559 56.6606 39.3747 56.6606C39.8658 56.6606 40.29 56.2898 40.3639 55.8059C40.4273 55.3932 40.2142 54.9723 39.8459 54.7767C39.4904 54.5881 39.0455 54.6319 38.735 54.8893C38.4152 55.1542 38.292 55.6052 38.4324 55.996Z" fill="#D33234"/>
</svg>
