<svg width="58" height="59" viewBox="0 0 58 59" fill="none" xmlns="http://www.w3.org/2000/svg">
<g clip-path="url(#clip0)">
<path fill-rule="evenodd" clip-rule="evenodd" d="M29.3291 29.2462V18.6128H27.3291V30.0746L33.1458 35.8913L34.56 34.4771L29.3291 29.2462Z" fill="#D33234"/>
<path d="M6.88063 11.0283C12.1225 4.91679 19.6325 1.0415 28.3293 1.0415C44.1411 1.0415 56.9483 13.8487 56.9483 29.6606C56.9483 45.4724 44.1411 58.2796 28.3293 58.2796C23.7527 58.2796 19.4155 57.2067 15.5778 55.2878L16.4722 53.499C20.0364 55.2811 24.0678 56.2796 28.3293 56.2796C43.0365 56.2796 54.9483 44.3678 54.9483 29.6606C54.9483 14.9533 43.0365 3.0415 28.3293 3.0415C20.2478 3.0415 13.2681 6.63839 8.37489 12.3582L8.34961 12.3878L7.26769 13.4697H11.7578V15.4697H3.85303V7.56494H5.85303V12.0559L6.88063 11.0283Z" fill="#333333"/>
<path fill-rule="evenodd" clip-rule="evenodd" d="M10.8007 22.4686C6.82635 32.1517 11.4542 43.2233 21.1373 47.1977C30.8205 51.172 41.892 46.5442 45.8664 36.8611C49.8408 27.1779 45.2129 16.1063 35.5298 12.132C25.8467 8.15763 14.7751 12.7855 10.8007 22.4686ZM21.8967 45.3475C13.2355 41.7925 9.09595 31.8893 12.6509 23.228C16.2059 14.5667 26.1091 10.4272 34.7704 13.9822C43.4317 17.5371 47.5712 27.4404 44.0162 36.1017C40.4613 44.7629 30.558 48.9024 21.8967 45.3475Z" fill="#333333"/>
<path d="M9.72607 51.4106C10.6255 52.1816 11.5845 52.9118 12.5896 53.5723L13.6879 51.9009C12.7597 51.2909 11.8682 50.6126 11.0277 49.8921L9.72607 51.4106Z" fill="#333333"/>
<path d="M6.73852 48.4382C5.91888 47.5035 5.17437 46.515 4.49023 45.4888L6.15434 44.3794C6.79592 45.3418 7.48759 46.259 8.24224 47.1195L6.73852 48.4382Z" fill="#333333"/>
<path d="M1.34912 39.4189C1.71335 40.3805 2.36781 41.7578 2.79842 42.619L4.58728 41.7246C4.16171 40.8735 3.54569 39.5718 3.21944 38.7104L1.34912 39.4189Z" fill="#333333"/>
</g>
<defs>
<clipPath id="clip0">
<path d="M0 0.660645H58V58.6606H0V0.660645Z" fill="white"/>
</clipPath>
</defs>
</svg>
