<svg width="58" height="59" viewBox="0 0 58 59" fill="none" xmlns="http://www.w3.org/2000/svg">
<path fill-rule="evenodd" clip-rule="evenodd" d="M33.6026 9.25342C33.3272 8.68198 32.928 8.13596 32.3495 7.75152V4.42241C32.3495 2.34479 30.6783 0.660645 28.6167 0.660645C26.5551 0.660645 24.8839 2.34479 24.8839 4.42241V7.75152C24.324 8.1611 23.9321 8.69949 23.6577 9.25342H6.33939C4.4951 9.25342 3 10.7441 3 12.583V55.3312C3 57.1701 4.4951 58.6608 6.33939 58.6608H50.8939C52.7382 58.6608 54.2333 57.1701 54.2333 55.3312V12.583C54.2333 10.7441 52.7382 9.25342 50.8939 9.25342H33.6026ZM34.1152 10.9182C34.2173 11.5175 34.2158 11.9459 34.2158 11.9459L34.2261 13.8268L44.0386 35.0314C44.9789 37.0544 44.3735 39.4648 42.5922 40.7938L43.4201 42.5804C43.5738 42.8869 43.5499 43.2532 43.3577 43.5365C43.165 43.8202 42.8348 43.9752 42.4956 43.9412C42.1564 43.9076 41.8625 43.6902 41.7292 43.3742L35.6961 30.3376C31.1469 32.147 26.086 32.147 21.5373 30.3376L15.5041 43.3742C15.3704 43.6902 15.0765 43.9076 14.7373 43.9412C14.3986 43.9752 14.0679 43.8202 13.8757 43.5365C13.683 43.2532 13.6591 42.8869 13.8129 42.5804L14.6408 40.7938C12.8585 39.4644 12.2541 37.0527 13.1952 35.0297L23.0068 13.8268L23.0171 11.9459C23.0171 11.9459 23.0155 11.5198 23.1238 10.9182H6.33939C5.41725 10.9182 4.6697 11.6636 4.6697 12.583V55.3312C4.6697 56.2506 5.41725 56.996 6.33939 56.996H50.8939C51.8161 56.996 52.5636 56.2506 52.5636 55.3312V12.583C52.5636 11.6636 51.8161 10.9182 50.8939 10.9182H34.1152ZM41.7775 39.0313H41.775L31.4814 16.7848C32.0389 16.4512 32.5353 16.0233 32.9484 15.52L42.3487 35.8339C42.8476 36.914 42.6191 38.1939 41.7775 39.0313ZM15.4584 39.0313C14.6151 38.1931 14.387 36.9106 14.8881 35.8292L24.2846 15.52C24.6972 16.0246 25.1936 16.4538 25.7515 16.7887L15.4584 39.0313ZM27.4966 17.4758C28.2386 17.6291 29.0037 17.6291 29.7457 17.4758L34.91 28.6337C30.8637 30.211 26.3786 30.211 22.3323 28.6337L27.4966 17.4758ZM26.7503 4.42241C26.7503 3.3836 27.5859 2.54153 28.6167 2.54153C29.6475 2.54153 30.4831 3.3836 30.4831 4.42241V6.63263C29.2767 6.19352 27.9562 6.19352 26.7503 6.63263V4.42241ZM28.6167 8.18418C30.6783 8.18418 32.3495 9.86832 32.3495 11.9459C32.3495 14.0236 30.6783 15.7081 28.6167 15.7081C26.5551 15.7081 24.8839 14.0236 24.8839 11.9459C24.8839 9.86832 26.5551 8.18418 28.6167 8.18418Z" fill="#333333"/>
<path d="M9.01128 19.242C9.56433 19.242 10.0133 18.7948 10.0133 18.2433V16.2454H12.0168C12.5699 16.2454 13.0184 15.7982 13.0184 15.2463C13.0184 14.6948 12.5699 14.2476 12.0168 14.2476H9.01128C8.45823 14.2476 8.00928 14.6948 8.00928 15.2463V18.2433C8.00928 18.7948 8.45823 19.242 9.01128 19.242Z" fill="#D33234"/>
<path d="M39.4001 46.9477C39.3545 46.8463 39.2878 46.7541 39.2038 46.6764L36.4896 44.1793C36.1347 43.8642 35.5707 43.8684 35.2216 44.1896C34.8725 44.5108 34.8675 45.0297 35.2104 45.3562L36.3811 46.4333H20.8463L22.0162 45.3574C22.3591 45.0305 22.3541 44.5115 22.005 44.1903C21.6563 43.8695 21.0919 43.865 20.737 44.1804L18.0228 46.6771C17.9462 46.7492 17.8849 46.8341 17.8418 46.9271C17.8298 46.9541 17.8191 46.9819 17.8104 47.0101C17.7864 47.0768 17.7714 47.1462 17.7661 47.2166C17.7661 47.2264 17.7654 47.236 17.7648 47.2454C17.7637 47.2637 17.7625 47.2816 17.7661 47.2997C17.769 47.3896 17.788 47.4784 17.822 47.563C17.822 47.5702 17.822 47.5778 17.8274 47.5843C17.8717 47.6754 17.933 47.758 18.0083 47.8293C18.0119 47.8328 18.0143 47.8368 18.0168 47.841C18.0195 47.8455 18.0222 47.8501 18.0265 47.8541L20.7407 50.3512C21.0956 50.6666 21.6596 50.662 22.0087 50.3409C22.3578 50.0197 22.3624 49.5008 22.0199 49.1742L20.8463 48.0979H36.3811L35.2112 49.1742C34.9764 49.383 34.882 49.6924 34.9648 49.9835C35.0477 50.2746 35.2945 50.502 35.6109 50.5778C35.9273 50.654 36.2635 50.5676 36.4905 50.3512L39.2046 47.8541C39.4634 47.6159 39.5409 47.2582 39.4009 46.9469L39.4001 46.9477Z" fill="#D33234"/>
<path d="M45.2168 14.2476H48.2219C48.7754 14.2476 49.2239 14.6948 49.2239 15.2463V18.2433C49.2239 18.7948 48.7754 19.242 48.2219 19.242C47.6689 19.242 47.2204 18.7948 47.2204 18.2433V16.2454H45.2168C44.6633 16.2454 44.2148 15.7982 44.2148 15.2463C44.2148 14.6948 44.6633 14.2476 45.2168 14.2476Z" fill="#D33234"/>
<path d="M12.0168 51.6691H10.0133V49.6714C10.0133 49.1195 9.56433 48.6724 9.01128 48.6724C8.45823 48.6724 8.00928 49.1195 8.00928 49.6714V52.6677C8.00928 53.2196 8.45823 53.6668 9.01128 53.6668H12.0168C12.5699 53.6668 13.0184 53.2196 13.0184 52.6677C13.0184 52.1163 12.5699 51.6691 12.0168 51.6691Z" fill="#D33234"/>
<path d="M47.2204 49.6714C47.2204 49.1195 47.6689 48.6724 48.2219 48.6724C48.7754 48.6724 49.2239 49.1195 49.2239 49.6714V52.6677C49.2239 53.2196 48.7754 53.6668 48.2219 53.6668H45.2168C44.6633 53.6668 44.2148 53.2196 44.2148 52.6677C44.2148 52.1163 44.6633 51.6691 45.2168 51.6691H47.2204V49.6714Z" fill="#D33234"/>
</svg>
