<svg width="58" height="58" viewBox="0 0 58 58" fill="none" xmlns="http://www.w3.org/2000/svg">
<path d="M14.1084 11.7983H12.3561C11.8716 11.7983 11.48 12.19 11.48 12.6745C11.48 13.159 11.8716 13.5506 12.3561 13.5506H14.1084C14.5929 13.5506 14.9846 13.159 14.9846 12.6745C14.9846 12.19 14.5929 11.7983 14.1084 11.7983Z" fill="#D33234"/>
<path d="M12.3561 24.1431H14.1084C14.5929 24.1431 14.9846 24.5347 14.9846 25.0192C14.9846 25.5037 14.5929 25.8954 14.1084 25.8954H12.3561C11.8716 25.8954 11.48 25.5037 11.48 25.0192C11.48 24.5347 11.8716 24.1431 12.3561 24.1431Z" fill="#D33234"/>
<path d="M6.80975 49.271H8.56205C9.04656 49.271 9.4382 49.6626 9.4382 50.1471C9.4382 50.6317 9.04656 51.0233 8.56205 51.0233H6.80975C6.32523 51.0233 5.93359 50.6317 5.93359 50.1471C5.93359 49.6626 6.32523 49.271 6.80975 49.271Z" fill="#D33234"/>
<path d="M12.3561 49.271H14.1084C14.5929 49.271 14.9846 49.6626 14.9846 50.1471C14.9846 50.6317 14.5929 51.0233 14.1084 51.0233H12.3561C11.8716 51.0233 11.48 50.6317 11.48 50.1471C11.48 49.6626 11.8716 49.271 12.3561 49.271Z" fill="#D33234"/>
<path d="M30.7476 49.271H28.9953C28.5108 49.271 28.1191 49.6626 28.1191 50.1471C28.1191 50.6317 28.5108 51.0233 28.9953 51.0233H30.7476C31.2321 51.0233 31.6237 50.6317 31.6237 50.1471C31.6237 49.6626 31.2321 49.271 30.7476 49.271Z" fill="#D33234"/>
<path d="M34.5417 51.0233C34.0572 51.0233 33.6655 50.6317 33.6655 50.1471C33.6655 49.6626 34.0572 49.271 34.5417 49.271H36.294C36.7785 49.271 37.1701 49.6626 37.1701 50.1471C37.1701 50.6317 36.7785 51.0233 36.294 51.0233H34.5417Z" fill="#D33234"/>
<path d="M40.0881 51.0233H41.8404C42.3249 51.0233 42.7165 50.6317 42.7165 50.1471C42.7165 49.6626 42.3249 49.271 41.8404 49.271H40.0881C39.6036 49.271 39.2119 49.6626 39.2119 50.1471C39.2119 50.6317 39.6036 51.0233 40.0881 51.0233Z" fill="#D33234"/>
<path d="M23.4489 49.271H25.2012C25.6857 49.271 26.0774 49.6626 26.0774 50.1471C26.0774 50.6317 25.6857 51.0233 25.2012 51.0233H23.4489C22.9644 51.0233 22.5728 50.6317 22.5728 50.1471C22.5728 49.6626 22.9644 49.271 23.4489 49.271Z" fill="#D33234"/>
<path d="M45.6345 51.0233H47.3868C47.8713 51.0233 48.2629 50.6317 48.2629 50.1471C48.2629 49.6626 47.8713 49.271 47.3868 49.271H45.6345C45.1499 49.271 44.7583 49.6626 44.7583 50.1471C44.7583 50.6317 45.1499 51.0233 45.6345 51.0233Z" fill="#D33234"/>
<path d="M52.9331 51.0233H51.1808C50.6963 51.0233 50.3047 50.6317 50.3047 50.1471C50.3047 49.6626 50.6963 49.271 51.1808 49.271H52.9331C53.4177 49.271 53.8093 49.6626 53.8093 50.1471C53.8093 50.6317 53.4177 51.0233 52.9331 51.0233Z" fill="#D33234"/>
<path d="M19.6548 49.271H17.9025C17.418 49.271 17.0264 49.6626 17.0264 50.1471C17.0264 50.6317 17.418 51.0233 17.9025 51.0233H19.6548C20.1393 51.0233 20.531 50.6317 20.531 50.1471C20.531 49.6626 20.1393 49.271 19.6548 49.271Z" fill="#D33234"/>
<path d="M8.56205 24.1431H6.80975C6.32523 24.1431 5.93359 24.5347 5.93359 25.0192C5.93359 25.5037 6.32523 25.8954 6.80975 25.8954H8.56205C9.04656 25.8954 9.4382 25.5037 9.4382 25.0192C9.4382 24.5347 9.04656 24.1431 8.56205 24.1431Z" fill="#D33234"/>
<path d="M28.9953 24.1431H30.7476C31.2321 24.1431 31.6237 24.5347 31.6237 25.0192C31.6237 25.5037 31.2321 25.8954 30.7476 25.8954H28.9953C28.5108 25.8954 28.1191 25.5037 28.1191 25.0192C28.1191 24.5347 28.5108 24.1431 28.9953 24.1431Z" fill="#D33234"/>
<path d="M33.6655 25.0192C33.6655 25.5037 34.0572 25.8954 34.5417 25.8954H36.294C36.7785 25.8954 37.1701 25.5037 37.1701 25.0192C37.1701 24.5347 36.7785 24.1431 36.294 24.1431H34.5417C34.0572 24.1431 33.6655 24.5347 33.6655 25.0192Z" fill="#D33234"/>
<path d="M41.8404 25.8954H40.0881C39.6036 25.8954 39.2119 25.5037 39.2119 25.0192C39.2119 24.5347 39.6036 24.1431 40.0881 24.1431H41.8404C42.3249 24.1431 42.7165 24.5347 42.7165 25.0192C42.7165 25.5037 42.3249 25.8954 41.8404 25.8954Z" fill="#D33234"/>
<path d="M25.2012 24.1431H23.4489C22.9644 24.1431 22.5728 24.5347 22.5728 25.0192C22.5728 25.5037 22.9644 25.8954 23.4489 25.8954H25.2012C25.6857 25.8954 26.0774 25.5037 26.0774 25.0192C26.0774 24.5347 25.6857 24.1431 25.2012 24.1431Z" fill="#D33234"/>
<path d="M47.3868 25.8954H45.6345C45.1499 25.8954 44.7583 25.5037 44.7583 25.0192C44.7583 24.5347 45.1499 24.1431 45.6345 24.1431H47.3868C47.8713 24.1431 48.2629 24.5347 48.2629 25.0192C48.2629 25.5037 47.8713 25.8954 47.3868 25.8954Z" fill="#D33234"/>
<path d="M51.1808 25.8954H52.9331C53.4177 25.8954 53.8093 25.5037 53.8093 25.0192C53.8093 24.5347 53.4177 24.1431 52.9331 24.1431H51.1808C50.6963 24.1431 50.3047 24.5347 50.3047 25.0192C50.3047 25.5037 50.6963 25.8954 51.1808 25.8954Z" fill="#D33234"/>
<path d="M17.9025 24.1431H19.6548C20.1393 24.1431 20.531 24.5347 20.531 25.0192C20.531 25.5037 20.1393 25.8954 19.6548 25.8954H17.9025C17.418 25.8954 17.0264 25.5037 17.0264 25.0192C17.0264 24.5347 17.418 24.1431 17.9025 24.1431Z" fill="#D33234"/>
<path d="M6.80975 11.7983H8.56205C9.04656 11.7983 9.4382 12.19 9.4382 12.6745C9.4382 13.159 9.04656 13.5506 8.56205 13.5506H6.80975C6.32523 13.5506 5.93359 13.159 5.93359 12.6745C5.93359 12.19 6.32523 11.7983 6.80975 11.7983Z" fill="#D33234"/>
<path d="M45.6345 13.5506H47.3868C47.8713 13.5506 48.2629 13.159 48.2629 12.6745C48.2629 12.19 47.8713 11.7983 47.3868 11.7983H45.6345C45.1499 11.7983 44.7583 12.19 44.7583 12.6745C44.7583 13.159 45.1499 13.5506 45.6345 13.5506Z" fill="#D33234"/>
<path d="M52.9331 13.5506H51.1808C50.6963 13.5506 50.3047 13.159 50.3047 12.6745C50.3047 12.19 50.6963 11.7983 51.1808 11.7983H52.9331C53.4177 11.7983 53.8093 12.19 53.8093 12.6745C53.8093 13.159 53.4177 13.5506 52.9331 13.5506Z" fill="#D33234"/>
<path fill-rule="evenodd" clip-rule="evenodd" d="M42.2838 40.0964C40.4768 40.0964 39.0073 38.6269 39.0073 36.8199C39.0073 35.013 40.4768 33.5435 42.2838 33.5435C44.0908 33.5435 45.5603 35.013 45.5603 36.8199C45.5603 38.6269 44.0908 40.0964 42.2838 40.0964ZM43.922 36.8199C43.922 35.9164 43.1873 35.1817 42.2838 35.1817C41.3803 35.1817 40.6456 35.9164 40.6456 36.8199C40.6456 37.7234 41.3803 38.4582 42.2838 38.4582C43.1873 38.4582 43.922 37.7234 43.922 36.8199Z" fill="#333333"/>
<path fill-rule="evenodd" clip-rule="evenodd" d="M33.6922 3.108L38.5754 7.87076H58V55.1829H6.42474C2.88269 55.1829 0 52.3714 0 48.9167V14.88C0 11.0153 3.22405 7.87076 7.18651 7.87076H22.2422L27.1255 3.108C27.5234 2.71986 28.1729 2.71986 28.5709 3.108L30.4088 4.9006L32.2468 3.108C32.6447 2.71986 33.2942 2.71986 33.6922 3.108ZM32.9699 4.88133L17.3285 20.1369H22.1713L32.2827 10.274C32.6717 9.90518 33.2673 9.9043 33.6472 10.2644L43.7685 20.1369H48.6113L32.9699 4.88133ZM24.7117 20.1369H41.229L32.9699 12.0824L24.7117 20.1369ZM29.1386 6.14036L27.8477 4.88133L12.2063 20.1369H14.788L29.1386 6.14036ZM20.4456 9.62306H7.18651C4.21399 9.62306 1.79663 11.9808 1.79663 14.88C1.79663 17.7792 4.21399 20.1369 7.18651 20.1369H9.66586L20.4456 9.62306ZM42.2207 41.1645H56.2034V32.403H42.2207C39.7441 32.403 37.7292 34.3682 37.7292 36.7838C37.7292 39.1993 39.7441 41.1645 42.2207 41.1645ZM42.2207 30.6507H56.2034V21.8918H7.18471C6.9269 21.8918 6.67178 21.8769 6.42025 21.8506C6.37012 21.8454 6.32096 21.8373 6.2718 21.8292C6.23904 21.8238 6.20627 21.8184 6.17321 21.8138C6.00702 21.7911 5.84173 21.7683 5.67914 21.7341C5.61653 21.7211 5.55541 21.7048 5.49434 21.6885C5.46079 21.6796 5.42724 21.6706 5.39348 21.6623C5.38129 21.6591 5.3691 21.656 5.35691 21.6529C5.22539 21.6193 5.09406 21.5857 4.96498 21.5449C4.88215 21.5184 4.80122 21.4883 4.72007 21.4581C4.7044 21.4522 4.68873 21.4464 4.67303 21.4406C4.54187 21.3924 4.41072 21.3433 4.28226 21.2881C4.18524 21.2461 4.09092 21.1996 3.9966 21.1532C3.87443 21.0936 3.75315 21.0323 3.63458 20.9666C3.54115 20.914 3.45042 20.8597 3.35969 20.8036C3.24651 20.7335 3.13422 20.6617 3.02552 20.5855C2.93838 20.5241 2.85215 20.4619 2.7677 20.3971C2.6626 20.3165 2.56019 20.2333 2.45958 20.1474C2.26321 19.9793 2.18141 19.8942 2.12283 19.8334C2.04483 19.7523 2.00801 19.714 1.79663 19.5793V48.9167C1.79663 51.4058 3.87353 53.4306 6.42474 53.4306H56.2034V42.9168H42.2207C38.7541 42.9168 35.9325 40.1648 35.9325 36.7838C35.9325 33.4027 38.7541 30.6507 42.2207 30.6507ZM44.0366 13.1896C46.167 15.2603 48.1488 17.1866 51.1518 20.1369H56.2034V9.62306H40.372C41.7491 10.9662 42.9135 12.0979 44.0366 13.1896Z" fill="#333333"/>
</svg>
