<svg width="58" height="59" viewBox="0 0 58 59" fill="none" xmlns="http://www.w3.org/2000/svg">
<path d="M34.0337 19.1043H18.8636C18.3486 19.1043 17.9312 19.5218 17.9312 20.0368C17.9312 20.5518 18.3486 20.9692 18.8636 20.9692H34.0337C34.5486 20.9692 34.9661 20.5518 34.9661 20.0368C34.9661 19.5218 34.5486 19.1043 34.0337 19.1043Z" fill="#333333"/>
<path d="M13.8372 19.104C14.0944 19.104 14.3469 19.2087 14.5287 19.3906C14.7108 19.5726 14.8155 19.825 14.8155 20.0823C14.8155 20.3396 14.7107 20.592 14.5287 20.7739C14.3469 20.9559 14.0944 21.0606 13.8372 21.0606C13.5799 21.0606 13.3275 20.9559 13.1455 20.7739C12.9635 20.592 12.8589 20.3396 12.8589 20.0823C12.8589 19.825 12.9636 19.5727 13.1455 19.3906C13.3275 19.2086 13.5799 19.104 13.8372 19.104Z" fill="#333333"/>
<path fill-rule="evenodd" clip-rule="evenodd" d="M56.1592 17.7746L31.8422 1.22556C30.116 0.0841547 28.9021 0.0828804 27.175 1.22256L1.84467 17.74C0.689626 18.502 0 19.7933 0 21.1945V57.3554C0 57.9149 0.445739 58.3687 0.9954 58.3687H9.95436V37.0228H48.0456L48.0457 58.3687H57.0046C57.5543 58.3687 58 57.9149 58 57.3554V21.2267C58.0001 19.8274 57.312 18.5368 56.1592 17.7746ZM56.0092 56.3423H50.0365V36.0096C50.0365 35.4501 49.5908 34.9964 49.0411 34.9964H8.95896C8.4093 34.9964 7.96356 35.4501 7.96356 36.0096V56.3423H1.99089V21.1945C1.99089 21.157 1.99241 21.12 1.99429 21.0829H9.10259C9.65225 21.0829 10.098 20.6292 10.098 20.0697C10.098 19.5102 9.65225 19.0565 9.10259 19.0565H3.50966L28.2577 2.92311C29.3264 2.21803 29.6895 2.21867 30.7574 2.92502L54.5313 19.1043H37.9134C37.3984 19.1043 36.981 19.5218 36.981 20.0368C36.981 20.5518 37.3984 20.9692 37.9134 20.9692H55.9938C56.004 21.054 56.0092 21.14 56.0092 21.2268V56.3423Z" fill="#333333"/>
<path fill-rule="evenodd" clip-rule="evenodd" d="M49.0544 25.3687C49.5905 25.3687 50.0253 25.8066 50.0251 26.3469V30.2603C50.0251 30.8005 49.5904 31.2386 49.0543 31.2386H8.97079C8.43472 31.2386 8 30.8005 8 30.2603V26.3469C8 25.8067 8.43472 25.3687 8.97079 25.3687H49.0544ZM9.94167 29.2819H20.6853V27.3252H9.94167V29.2819ZM22.6269 29.2819H34.4059V27.3252H22.6269V29.2819ZM36.3476 29.2819H48.0836V27.3252H36.3476V29.2819Z" fill="#D33234"/>
<path fill-rule="evenodd" clip-rule="evenodd" d="M43.4686 49.7651C43.4697 49.7458 43.4702 49.7262 43.4702 49.7066V42.1616C43.4702 41.6093 43.026 41.1616 42.4779 41.1616H34.9908C34.4427 41.1616 33.9984 41.6093 33.9984 42.1616V48.8237H27.4397C26.8917 48.8237 26.4474 49.2714 26.4474 49.8237V57.3687C26.4474 57.9209 26.8917 58.3687 27.4397 58.3687H34.9268C34.9375 58.3687 34.9482 58.3685 34.9588 58.3682C34.9694 58.3685 34.9801 58.3687 34.9908 58.3687H42.4779C43.026 58.3687 43.4702 57.9209 43.4702 57.3687V49.8237C43.4702 49.8041 43.4697 49.7845 43.4686 49.7651ZM35.9831 56.3687V50.8237H41.4856V56.3687H35.9831ZM28.4321 50.8237V56.3687H33.9345V50.8237H28.4321ZM35.9831 48.7066V43.1616H41.4856V48.7066H35.9831Z" fill="#D33234"/>
</svg>
