<svg width="58" height="59" viewBox="0 0 58 59" fill="none" xmlns="http://www.w3.org/2000/svg">
<path d="M57.0333 5.66064H0.966667C0.839721 5.66064 0.714018 5.6865 0.596735 5.73676C0.479452 5.78701 0.372886 5.86067 0.283122 5.95353C0.193358 6.04639 0.122154 6.15663 0.0735757 6.27796C0.0249974 6.39928 -3.64944e-06 6.52932 3.99565e-10 6.66064V48.6606C-3.64944e-06 48.7919 0.0249974 48.9219 0.0735757 49.0433C0.122154 49.1646 0.193358 49.2748 0.283122 49.3677C0.372886 49.4606 0.479452 49.5342 0.596735 49.5845C0.714018 49.6347 0.839721 49.6606 0.966667 49.6606H21.6342L22.2521 52.8567C22.2896 53.0506 22.3818 53.2287 22.5171 53.3685C22.6525 53.5082 22.8248 53.6033 23.0124 53.6416C23.1999 53.68 23.3943 53.66 23.5709 53.5841C23.7474 53.5082 23.8983 53.3799 24.0043 53.2153L26.2951 49.6606H31.7049L33.9957 53.2153C34.1018 53.3798 34.2526 53.5082 34.4292 53.584C34.6057 53.6599 34.8001 53.6799 34.9876 53.6415C35.1752 53.6032 35.3475 53.5081 35.4828 53.3684C35.6182 53.2287 35.7104 53.0506 35.7479 52.8567L36.3658 49.6606H57.0333C57.1603 49.6606 57.286 49.6347 57.4033 49.5845C57.5205 49.5342 57.6271 49.4606 57.7169 49.3677C57.8066 49.2748 57.8778 49.1646 57.9264 49.0433C57.975 48.9219 58 48.7919 58 48.6606V6.66064C58 6.52932 57.975 6.39928 57.9264 6.27796C57.8778 6.15663 57.8066 6.04639 57.7169 5.95353C57.6271 5.86067 57.5205 5.78701 57.4033 5.73676C57.286 5.6865 57.1603 5.66064 57.0333 5.66064ZM23.6902 50.0972L23.1812 47.4645C23.1564 47.3357 23.1072 47.2132 23.0366 47.1041C22.9659 46.995 22.8752 46.9013 22.7696 46.8285C22.664 46.7556 22.5455 46.705 22.421 46.6796C22.2964 46.6541 22.1682 46.6542 22.0438 46.68L19.4988 47.2065L23.0255 41.7341C24.1215 43.1151 25.6325 44.0774 27.3181 44.4678L23.6902 50.0972ZM29 42.6606C27.8529 42.6606 26.7315 42.3087 25.7777 41.6494C24.8239 40.9901 24.0805 40.0531 23.6415 38.9567C23.2025 37.8603 23.0876 36.6539 23.3114 35.4901C23.5352 34.3262 24.0876 33.2571 24.8988 32.418C25.7099 31.5789 26.7434 31.0074 27.8685 30.7759C28.9936 30.5444 30.1598 30.6632 31.2196 31.1173C32.2794 31.5715 33.1852 32.3405 33.8225 33.3272C34.4598 34.3139 34.8 35.4739 34.8 36.6606C34.7983 38.2513 34.1866 39.7764 33.0993 40.9012C32.012 42.0261 30.5377 42.6588 29 42.6606ZM27.584 47.6606L29 45.4633L30.416 47.6606H27.584ZM34.8188 47.4645L34.3098 50.0972L30.6819 44.4678C32.3675 44.0774 33.8785 43.1152 34.9745 41.7341L38.5012 47.2066L35.9562 46.68C35.7048 46.628 35.4438 46.6815 35.2305 46.8286C35.0172 46.9757 34.8691 47.2044 34.8188 47.4645H34.8188ZM56.0667 47.6606H41.1173L38.5395 43.6606H51.2333C51.3603 43.6606 51.486 43.6347 51.6033 43.5845C51.7205 43.5342 51.8271 43.4606 51.9169 43.3677C52.0066 43.2748 52.0778 43.1646 52.1264 43.0433C52.175 42.922 52.2 42.7919 52.2 42.6606V12.6606C52.2 12.5293 52.175 12.3993 52.1264 12.2779C52.0778 12.1566 52.0066 12.0464 51.9169 11.9535C51.8271 11.8607 51.7205 11.787 51.6033 11.7367C51.486 11.6865 51.3603 11.6606 51.2333 11.6606H45.4333V13.6606H50.2667V41.6606H37.2506L36.0877 39.856C36.2519 39.4692 36.386 39.0695 36.4886 38.6606H43.5V36.6606H36.7333C36.7333 34.5389 35.9186 32.504 34.4683 31.0038C33.018 29.5035 31.051 28.6606 29 28.6606C26.949 28.6606 24.982 29.5035 23.5317 31.0038C22.0814 32.504 21.2667 34.5389 21.2667 36.6606H14.5V38.6606H21.5114C21.614 39.0695 21.7481 39.4692 21.9123 39.856L20.7493 41.6606H7.73333V13.6606H12.5667V11.6606H6.76667C6.63972 11.6606 6.51402 11.6865 6.39674 11.7367C6.27945 11.787 6.17289 11.8607 6.08312 11.9535C5.99336 12.0464 5.92215 12.1566 5.87358 12.2779C5.825 12.3993 5.8 12.5293 5.8 12.6606V42.6606C5.8 42.7919 5.825 42.922 5.87358 43.0433C5.92215 43.1646 5.99336 43.2748 6.08312 43.3677C6.17289 43.4606 6.27945 43.5342 6.39674 43.5845C6.51402 43.6347 6.63972 43.6606 6.76667 43.6606H19.4605L16.8827 47.6606H1.93333V7.66064H56.0667V47.6606Z" fill="#333333"/>
<path fill-rule="evenodd" clip-rule="evenodd" d="M18.4822 19.1347C18.4064 18.989 18.3667 18.8261 18.3667 18.6606V13.6606H14.5V11.6606H21.0386L21.2426 11.5551C23.6512 10.3093 26.3071 9.66064 29 9.66064C31.6929 9.66064 34.3488 10.3093 36.7574 11.5551L36.9614 11.6606H43.5V13.6606H39.6333V18.6606C39.6333 18.8261 39.5936 18.989 39.5178 19.1347C39.442 19.2804 39.3323 19.4044 39.1988 19.4955C39.0653 19.5866 38.9119 19.6419 38.7526 19.6567C38.5933 19.6714 38.4329 19.6449 38.2859 19.5798L34.1847 17.7615C32.5464 17.0352 30.7825 16.6606 29 16.6606C27.2175 16.6606 25.4536 17.0352 23.8153 17.7615L19.7141 19.5798C19.5671 19.6449 19.4067 19.6714 19.2474 19.6567C19.0881 19.6419 18.9347 19.5866 18.8012 19.4955C18.6677 19.4044 18.558 19.2804 18.4822 19.1347ZM35.8928 13.3439C33.7517 12.2397 31.3924 11.6636 29 11.6606C26.6076 11.6636 24.2483 12.2397 22.1072 13.3439L20.3 14.2787V17.1441L23.0537 15.9233C24.9327 15.0902 26.9557 14.6606 29 14.6606C31.0443 14.6606 33.0673 15.0902 34.9463 15.9233L37.7 17.1441V14.2787L35.8928 13.3439Z" fill="#D33234"/>
<path d="M16.4336 23.6606H22.2336V25.6606H16.4336V23.6606Z" fill="#D33234"/>
<path d="M33.8332 23.6606H24.1665V25.6606H33.8332V23.6606Z" fill="#D33234"/>
<path d="M41.5666 23.6606H35.7666V25.6606H41.5666V23.6606Z" fill="#D33234"/>
<path d="M26.1001 19.6606H31.9001V21.6606H26.1001V19.6606Z" fill="#D33234"/>
<path d="M29 35.6608L29.0175 35.6606H28.9825L29 35.6608Z" fill="#D33234"/>
<path d="M29 37.6605C28.7365 37.656 28.4847 37.5512 28.298 37.3678C28.1072 37.1802 28 36.9259 28 36.6606C28 36.3954 28.1072 36.1411 28.298 35.9535C28.4847 35.7701 28.7365 35.6653 29 35.6608C29.2635 35.6653 29.5153 35.7701 29.702 35.9535C29.8928 36.1411 30 36.3954 30 36.6606C30 36.9259 29.8928 37.1802 29.702 37.3678C29.5153 37.5512 29.2635 37.656 29 37.6605Z" fill="#D33234"/>
<path d="M29 37.6605L29.0175 37.6606H28.9825L29 37.6605Z" fill="#D33234"/>
<path d="M45.4336 36.6606H47.3669V38.6606H45.4336V36.6606Z" fill="#D33234"/>
<path d="M12.5666 36.6606H10.6333V38.6606H12.5666V36.6606Z" fill="#D33234"/>
</svg>
