<svg width="38" height="24" viewBox="0 0 38 24" fill="none" xmlns="http://www.w3.org/2000/svg">
<path d="M37.8801 10.7692C37.8801 8.90277 36.362 7.38462 34.4955 7.38462C34.1749 7.38462 33.8666 7.432 33.5724 7.51569V5.97354C33.5724 2.67938 30.893 0 27.5989 0H11.2383C7.94411 0 5.26472 2.67938 5.26472 5.97354V7.51569C4.97057 7.432 4.66226 7.38462 4.34165 7.38462C2.47519 7.38462 0.957031 8.90277 0.957031 10.7692C0.957031 11.8794 1.51272 12.9046 2.40626 13.5305C2.26719 13.9188 2.1878 14.3342 2.1878 14.7692C2.1878 15.76 2.58226 16.6597 3.2198 17.3231C2.62103 17.5342 2.1878 18.0991 2.1878 18.7692C2.1878 19.6172 2.87826 20.3077 3.72626 20.3077H4.64934V22.1538H5.88011V22.7692C5.54042 22.7692 5.26472 23.0449 5.26472 23.3846C5.26472 23.7243 5.54042 24 5.88011 24H7.11088C7.45057 24 7.72626 23.7243 7.72626 23.3846C7.72626 23.0449 7.45057 22.7692 7.11088 22.7692V22.1538H8.34165V20.3077H30.4955V22.1538H31.7263V22.7692C31.3866 22.7692 31.1109 23.0449 31.1109 23.3846C31.1109 23.7243 31.3866 24 31.7263 24H32.957C33.2967 24 33.5724 23.7243 33.5724 23.3846C33.5724 23.0449 33.2967 22.7692 32.957 22.7692V22.1538H34.1878V20.3077H35.1109C35.9589 20.3077 36.6493 19.6172 36.6493 18.7692C36.6493 18.0991 36.2161 17.5342 35.6173 17.3231C36.2549 16.6597 36.6493 15.76 36.6493 14.7692C36.6493 14.3342 36.57 13.9188 36.4309 13.5305C37.3244 12.9046 37.8801 11.8794 37.8801 10.7692ZM6.49549 8.15939V5.97354C6.49549 3.35815 8.62349 1.23077 11.2383 1.23077H27.5989C30.2143 1.23077 32.3416 3.35877 32.3416 5.97354V8.15939C32.3189 8.17846 32.2986 8.2 32.2764 8.21969C32.213 8.27508 32.1496 8.33108 32.0906 8.39077C32.0512 8.43077 32.0155 8.47262 31.978 8.51446C31.938 8.55939 31.8973 8.60369 31.8592 8.65046C31.8229 8.69538 31.789 8.74277 31.7552 8.78954C31.7207 8.83754 31.6863 8.88554 31.6543 8.93539C31.6241 8.98277 31.5952 9.03015 31.5669 9.07877C31.5355 9.13292 31.506 9.18769 31.4776 9.24369C31.4536 9.29046 31.4309 9.33785 31.4087 9.38585C31.381 9.44739 31.3564 9.51015 31.3318 9.57354C31.3146 9.61908 31.2967 9.664 31.282 9.71015C31.2586 9.78092 31.2395 9.85292 31.221 9.92492C31.21 9.96677 31.1976 10.008 31.1884 10.0505C31.1706 10.1317 31.1583 10.2154 31.1466 10.2985C31.1416 10.3342 31.1343 10.3686 31.1306 10.4043C31.1183 10.5255 31.1109 10.6462 31.1109 10.7692C31.1109 10.872 31.1158 10.9742 31.1263 11.0769H7.71088C7.72134 10.9742 7.72626 10.872 7.72626 10.7692C7.72626 10.6462 7.71888 10.5255 7.70595 10.4062C7.70226 10.3705 7.69488 10.3354 7.68995 10.3003C7.67826 10.2166 7.66595 10.1335 7.64811 10.0523C7.63888 10.0098 7.62657 9.96862 7.61549 9.92677C7.59703 9.85415 7.57734 9.78215 7.55457 9.712C7.53919 9.66585 7.52134 9.62092 7.50472 9.57539C7.48072 9.512 7.45549 9.44923 7.4278 9.38769C7.40626 9.33969 7.38288 9.29231 7.35888 9.24554C7.33057 9.18954 7.30103 9.13477 7.26965 9.08062C7.24134 9.032 7.21303 8.984 7.18226 8.93723C7.15026 8.88739 7.1158 8.83938 7.08134 8.79138C7.04749 8.74462 7.01365 8.69723 6.97734 8.65231C6.9398 8.60554 6.89919 8.56123 6.85857 8.51631C6.82165 8.47508 6.78534 8.43262 6.74595 8.39262C6.68688 8.33292 6.62349 8.27692 6.56011 8.22154C6.53857 8.2 6.51826 8.17846 6.49549 8.15939ZM32.7675 12.3077H32.957C33.1023 12.3077 33.242 12.3262 33.3804 12.3508C33.4303 12.36 33.4801 12.3698 33.5287 12.3815C33.6112 12.4012 33.6912 12.4289 33.77 12.4566C33.9041 12.5052 34.034 12.5625 34.1576 12.6338C34.1712 12.6418 34.186 12.6486 34.1995 12.6566C34.5663 12.8775 34.8789 13.1951 35.0973 13.5871L35.2278 13.8209C35.3503 14.1126 35.4186 14.4332 35.4186 14.7692C35.4186 16.1268 34.3146 17.2308 32.957 17.2308H5.88011C4.52257 17.2308 3.41857 16.1268 3.41857 14.7692C3.41857 14.4332 3.48688 14.1126 3.60934 13.8209L3.7398 13.5871C3.95826 13.1951 4.27088 12.8775 4.63765 12.6566C4.65119 12.6486 4.66534 12.6418 4.67949 12.6338C4.80319 12.5625 4.93365 12.5052 5.06719 12.4566C5.14657 12.4289 5.22595 12.4012 5.30842 12.3815C5.35765 12.3692 5.40688 12.3594 5.45672 12.3508C5.59519 12.3262 5.73488 12.3077 5.88011 12.3077H6.06965H7.37611H31.4616H32.7675ZM2.1878 10.7692C2.1878 9.58154 3.15395 8.61539 4.34165 8.61539C4.78534 8.61539 5.19765 8.75077 5.54103 8.98154C5.6758 9.07262 5.79519 9.17969 5.90411 9.29538C5.93919 9.33231 5.96872 9.37354 6.00072 9.41292C6.07088 9.49846 6.13488 9.58831 6.19088 9.68308C6.21919 9.73108 6.24565 9.77908 6.27026 9.82954C6.31949 9.93046 6.35888 10.0363 6.39211 10.144C6.40626 10.1908 6.42411 10.2357 6.43519 10.2831C6.47211 10.4406 6.49549 10.6031 6.49549 10.7692C6.49549 10.8702 6.48319 10.9729 6.46595 11.0769H5.88011C5.74288 11.0769 5.60811 11.0855 5.47457 11.1003C5.45672 11.1022 5.43949 11.1058 5.42226 11.1083C5.30103 11.1237 5.18165 11.144 5.06411 11.1705C5.05919 11.1717 5.05426 11.1729 5.04934 11.1742C4.23272 11.3631 3.51888 11.8209 3.00811 12.4523C2.49919 12.0498 2.1878 11.432 2.1878 10.7692ZM7.11088 20.9231H5.88011V20.3077H7.11088V20.9231ZM32.957 20.9231H31.7263V20.3077H32.957V20.9231ZM35.1109 19.0769H34.1878H30.4955H8.34165H4.64934H3.72626C3.55642 19.0769 3.41857 18.9391 3.41857 18.7692C3.41857 18.5994 3.55642 18.4615 3.72626 18.4615H5.88011H32.957H35.1109C35.2807 18.4615 35.4186 18.5994 35.4186 18.7692C35.4186 18.9391 35.2807 19.0769 35.1109 19.0769ZM35.8284 12.4529C35.3183 11.8215 34.6044 11.3637 33.7872 11.1748C33.7823 11.1735 33.7773 11.1723 33.7724 11.1711C33.6549 11.1446 33.5355 11.1237 33.4143 11.1089C33.3964 11.1065 33.3792 11.1028 33.362 11.1009C33.229 11.0855 33.0943 11.0769 32.957 11.0769H32.3712C32.354 10.9729 32.3416 10.8702 32.3416 10.7692C32.3416 10.6031 32.365 10.4406 32.402 10.2825C32.413 10.2351 32.4309 10.1902 32.445 10.144C32.4783 10.0357 32.5176 9.93046 32.5669 9.82892C32.5915 9.77908 32.618 9.73046 32.6463 9.68308C32.7023 9.58831 32.7663 9.49846 32.8364 9.41292C32.8684 9.37354 32.898 9.33292 32.933 9.296C33.042 9.18031 33.1613 9.07323 33.2961 8.98215C33.6395 8.75077 34.0518 8.61539 34.4955 8.61539C35.6832 8.61539 36.6493 9.58154 36.6493 10.7692C36.6493 11.432 36.338 12.0498 35.8284 12.4529Z" fill="#D33234"/>
<path d="M9.75199 7.20405C9.87199 7.32405 10.0295 7.38436 10.1871 7.38436C10.3446 7.38436 10.5021 7.32405 10.6221 7.20405L11.7255 6.10066L12.8289 7.20405C12.9489 7.32405 13.1065 7.38436 13.264 7.38436C13.4215 7.38436 13.5791 7.32405 13.6991 7.20405C13.9397 6.96343 13.9397 6.57451 13.6991 6.33389L12.9034 5.5382L13.6991 4.74251C13.9397 4.5019 13.9397 4.11297 13.6991 3.87236C13.4585 3.63174 13.0695 3.63174 12.8289 3.87236L11.7255 4.97574L10.6221 3.87236C10.3815 3.63174 9.99261 3.63174 9.75199 3.87236C9.51138 4.11297 9.51138 4.5019 9.75199 4.74251L10.5477 5.5382L9.75199 6.33389C9.51138 6.57451 9.51138 6.96343 9.75199 7.20405Z" fill="#D33234"/>
<path d="M17.752 9.05073C17.872 9.17073 18.0295 9.23104 18.1871 9.23104C18.3446 9.23104 18.5021 9.17073 18.6221 9.05073L19.7255 7.94734L20.8289 9.05073C20.9489 9.17073 21.1065 9.23104 21.264 9.23104C21.4215 9.23104 21.5791 9.17073 21.6991 9.05073C21.9397 8.81011 21.9397 8.42119 21.6991 8.18057L20.9034 7.38488L21.6991 6.58919C21.9397 6.34858 21.9397 5.95965 21.6991 5.71904C21.4585 5.47842 21.0695 5.47842 20.8289 5.71904L19.7255 6.82242L18.6221 5.71904C18.3815 5.47842 17.9926 5.47842 17.752 5.71904C17.5114 5.95965 17.5114 6.34858 17.752 6.58919L18.5477 7.38488L17.752 8.18057C17.5114 8.42119 17.5114 8.81011 17.752 9.05073Z" fill="#D33234"/>
<path d="M25.752 7.20405C25.872 7.32405 26.0295 7.38436 26.1871 7.38436C26.3446 7.38436 26.5021 7.32405 26.6221 7.20405L27.7255 6.10066L28.8289 7.20405C28.9489 7.32405 29.1065 7.38436 29.264 7.38436C29.4215 7.38436 29.5791 7.32405 29.6991 7.20405C29.9397 6.96343 29.9397 6.57451 29.6991 6.33389L28.9034 5.5382L29.6991 4.74251C29.9397 4.5019 29.9397 4.11297 29.6991 3.87236C29.4585 3.63174 29.0695 3.63174 28.8289 3.87236L27.7255 4.97574L26.6221 3.87236C26.3815 3.63174 25.9926 3.63174 25.752 3.87236C25.5114 4.11297 25.5114 4.5019 25.752 4.74251L26.5477 5.5382L25.752 6.33389C25.5114 6.57451 25.5114 6.96343 25.752 7.20405Z" fill="#D33234"/>
</svg>
