<svg width="24" height="38" viewBox="0 0 24 38" fill="none" xmlns="http://www.w3.org/2000/svg">
<path d="M1.96994 37.998C2.62406 37.9939 3.2292 37.6552 3.56839 37.1032C3.90757 36.5512 3.93221 35.865 3.63347 35.2907C13.1815 33.9463 10.8086 33.9401 20.3944 35.2907C20.0187 36.0197 20.1701 36.9055 20.7674 37.4725C21.3646 38.0396 22.2673 38.1547 22.991 37.756C23.7146 37.3573 24.0891 36.5386 23.9135 35.7393C23.7379 34.9399 23.0534 34.3479 22.2274 34.2808L13.8972 30.7743V27.466C13.8972 26.7817 13.3351 26.2269 12.6417 26.2269V24.9879C14.958 24.8768 17.2558 24.5238 19.4967 23.9347C19.9936 23.8223 20.4116 23.493 20.6327 23.0397C20.8538 22.5865 20.8539 22.0586 20.6329 21.6052C21.8759 20.1054 22.5958 18.25 22.6857 16.3144V15.0754C22.6857 14.0489 21.8425 13.2168 20.8024 13.2168H19.5469V8.88007C19.5469 7.8536 18.7038 7.02148 17.6637 7.02148H13.8972V5.70188C14.6598 5.63953 15.4145 5.50467 16.1508 5.29918C16.679 5.13824 17.0384 4.65526 17.0359 4.10968V2.06523C17.0359 1.38092 16.4738 0.826172 15.7804 0.826172H8.24743C7.55404 0.826172 6.99193 1.38092 6.99193 2.06523V4.10968C6.98944 4.65526 7.34884 5.13824 7.87706 5.29918C8.61339 5.50467 9.36809 5.63953 10.1307 5.70188V7.02148H6.36418C5.32409 7.02148 4.48093 7.8536 4.48093 8.88007V13.2168H3.22544C2.18535 13.2168 1.34219 14.0489 1.34219 15.0754C1.34219 16.6428 1.14131 18.7244 3.39493 21.5928C3.17143 22.0459 3.17024 22.575 3.3917 23.029C3.61316 23.483 4.03293 23.8121 4.53115 23.9223C5.89337 24.232 7.07982 24.5418 8.59897 24.7339L7.93356 25.6074H5.73643C5.38974 25.6074 5.10868 25.8848 5.10868 26.2269C5.10868 26.5691 5.38974 26.8465 5.73643 26.8465H8.24743C8.44502 26.8465 8.63108 26.7546 8.74963 26.5986L10.0428 24.9011C10.4759 24.9383 10.9279 24.9569 11.3862 24.9755V26.2145C10.6928 26.2145 10.1307 26.7693 10.1307 27.4536V30.7619L1.80044 34.2808C0.760354 34.327 -0.0448627 35.1966 0.00194129 36.223C0.0487453 37.2495 0.929847 38.0442 1.96994 37.998ZM19.5469 20.7131V16.934H21.38C21.167 18.3313 20.587 19.6491 19.6976 20.7565L19.5469 20.7131ZM20.8024 14.4558C21.1491 14.4558 21.4302 14.7332 21.4302 15.0754V15.6949H19.5469V14.4558H20.8024ZM8.24743 2.06523H15.7804V4.10968C13.303 4.68281 10.7249 4.68281 8.24743 4.10968V2.06523ZM11.3862 5.78242H12.6417V7.02148H11.3862V5.78242ZM5.73643 8.88007C5.73643 8.53791 6.01749 8.26054 6.36418 8.26054H17.6637C18.0104 8.26054 18.2914 8.53791 18.2914 8.88007V20.6511H5.73643V8.88007ZM4.33027 20.7565C3.4409 19.6491 2.86087 18.3313 2.64791 16.934H4.48093V20.7131L4.33027 20.7565ZM2.59769 15.0754C2.59769 14.7332 2.87874 14.4558 3.22544 14.4558H4.48093V15.6949H2.59769V15.0754ZM4.80736 22.7142C4.58588 22.6788 4.43157 22.478 4.45672 22.2579C4.48186 22.0379 4.67761 21.8761 4.90153 21.8902H19.1263C19.3503 21.8761 19.546 22.0379 19.5711 22.2579C19.5963 22.478 19.442 22.6788 19.2205 22.7142C13.1376 24.0957 10.8714 24.0895 4.80736 22.7142ZM22.0579 36.7589C21.7112 36.7589 21.4302 36.4816 21.4302 36.1394C21.4302 35.7973 21.7112 35.5199 22.0579 35.5199C22.4046 35.5199 22.6857 35.7973 22.6857 36.1394C22.6857 36.4816 22.4046 36.7589 22.0579 36.7589ZM11.3862 27.466H12.6417V30.5636H11.3862V27.466ZM10.8903 31.8027H13.1376L17.4502 33.6241C11.6373 32.8063 11.9512 32.8683 6.57762 33.6241L10.8903 31.8027ZM1.96994 35.5199C2.31663 35.5199 2.59769 35.7973 2.59769 36.1394C2.59769 36.4816 2.31663 36.7589 1.96994 36.7589C1.62324 36.7589 1.34219 36.4816 1.34219 36.1394C1.34219 35.7973 1.62324 35.5199 1.96994 35.5199Z" fill="#D33234"/>
</svg>
