<svg width="39" height="38" viewBox="0 0 39 38" fill="none" xmlns="http://www.w3.org/2000/svg">
<path d="M31.6078 6.63655C30.4144 5.44319 28.9079 4.65892 27.2509 4.36843C25.632 4.08476 23.9866 4.28879 22.4926 4.95862C22.1186 5.12635 21.9513 5.5655 22.1191 5.93949C22.2867 6.31348 22.7257 6.48062 23.0999 6.31311C25.6128 5.18632 28.6102 5.73814 30.5582 7.68616C31.8198 8.9478 32.5146 10.6252 32.5146 12.4094C32.5146 14.1936 31.8198 15.871 30.5581 17.1326C27.9537 19.7371 23.716 19.737 21.1116 17.1326C19.1659 15.1869 18.6107 12.2964 19.6972 9.76873C19.859 9.39222 19.685 8.95574 19.3084 8.79387C18.9316 8.63178 18.4953 8.80604 18.3335 9.18263C17.6958 10.6661 17.513 12.2928 17.8049 13.8866C18.1038 15.5192 18.8843 17.0046 20.062 18.1823C21.6536 19.7739 23.7442 20.5697 25.8349 20.5697C27.9256 20.5697 30.0162 19.7739 31.6077 18.1823C33.1498 16.6404 33.999 14.5901 33.999 12.4094C33.999 10.2287 33.1498 8.1786 31.6078 6.63655Z" fill="#333333"/>
<path d="M21.1428 6.61088C20.8546 6.3195 20.3848 6.3169 20.0932 6.60502L20.0618 6.63626C19.7715 6.92557 19.7706 7.39545 20.0599 7.68587C20.2049 7.83141 20.3953 7.90422 20.5857 7.90422C20.7751 7.90422 20.9646 7.83208 21.1094 7.6878L21.137 7.66048C21.4284 7.37229 21.431 6.90234 21.1428 6.61088Z" fill="#333333"/>
<path d="M25.834 0C19.0922 0 13.6073 5.48484 13.6073 12.2266C13.6073 14.2172 14.0969 16.1935 15.0233 17.9418C15.2152 18.304 15.6643 18.442 16.0266 18.2502C16.3887 18.0582 16.5268 17.6091 16.3349 17.2469C15.5216 15.7118 15.0918 13.9759 15.0918 12.2266C15.0917 6.30332 19.9106 1.48438 25.834 1.48438C31.7573 1.48438 36.5762 6.30332 36.5762 12.2266C36.5762 14.7182 35.7038 17.1465 34.1197 19.0638C34.0965 19.092 34.0756 19.1214 34.0572 19.152L27.3865 27.6981C26.9461 27.5346 26.4701 27.445 25.9735 27.445H25.2387C25.2372 27.445 25.2357 27.445 25.2341 27.445H24.1343L22.0188 22.4619C21.4838 21.2015 20.2533 20.3871 18.8841 20.3871H10.2247C8.85547 20.3871 7.62507 21.2015 7.08995 22.4619L4.9745 27.445H4.13189C1.88692 27.4449 0.0605469 29.2714 0.0605469 31.5163V35.3116C0.0605469 35.5087 0.138922 35.6977 0.278379 35.8369C0.417539 35.9758 0.606203 36.0538 0.802734 36.0538C0.803105 36.0538 0.803551 36.0538 0.803922 36.0538L4.40776 36.0482C4.73091 37.1737 5.76901 38 6.99711 38C8.22528 38 9.26338 37.1736 9.58652 36.048H21.4531C21.7763 37.1736 22.8144 38 24.0426 38C25.2705 38 26.3084 37.174 26.6318 36.0487L29.3013 36.0538C29.3018 36.0538 29.3023 36.0538 29.3027 36.0538C29.4993 36.0538 29.6879 35.9758 29.827 35.8369C29.9665 35.6977 30.0449 35.5087 30.0449 35.3116V31.5163C30.0449 30.304 29.5118 29.2146 28.6685 28.4681L35.2837 19.9931C35.298 19.9746 35.3115 19.9557 35.3239 19.9362C37.0893 17.765 38.0605 15.031 38.0605 12.2266C38.0605 5.48484 32.5757 0 25.834 0ZM28.1696 30.1511H26.6486L26.2633 28.946C27.0673 29.036 27.7608 29.4959 28.1696 30.1511ZM15.2966 21.8714H18.8841C19.6565 21.8714 20.3506 22.3308 20.6525 23.0418L22.5217 27.4449H15.2966V21.8714ZM1.54492 31.5163C1.54492 31.2655 1.58151 31.0232 1.64838 30.7937H2.62035C2.94135 30.7937 3.20252 31.0548 3.20252 31.3758C3.20252 31.6968 2.94135 31.958 2.62035 31.958H1.54492V31.5163ZM6.99711 36.5156C6.32995 36.5156 5.78719 35.9729 5.78719 35.3058C5.78719 34.6387 6.32995 34.0959 6.99711 34.0959C7.66426 34.0959 8.20695 34.6387 8.20695 35.3058C8.20695 35.9729 7.66426 36.5156 6.99711 36.5156ZM13.8122 34.5635H9.5866C9.26345 33.4378 8.22535 32.6115 6.99718 32.6115C5.76893 32.6115 4.73076 33.4379 4.40769 34.5637L1.54492 34.5683V33.4423H2.62035C3.75983 33.4423 4.6869 32.5152 4.6869 31.3758C4.6869 30.288 3.84192 29.3945 2.77406 29.3155C3.16905 29.0709 3.63418 28.9292 4.13196 28.9292H13.8122V34.5635ZM13.8122 27.4449H6.58705L8.45632 23.0418C8.75809 22.3308 9.45226 21.8714 10.2247 21.8714H13.8122V27.4449ZM24.0426 36.5156C23.3754 36.5156 22.8327 35.9729 22.8327 35.3058C22.8327 34.6387 23.3755 34.0959 24.0426 34.0959C24.7096 34.0959 25.2525 34.6387 25.2525 35.3058C25.2525 35.9729 24.7097 36.5156 24.0426 36.5156ZM28.5605 34.5679L26.6323 34.5643C26.3093 33.4382 25.271 32.6115 24.0426 32.6115C22.8144 32.6115 21.7763 33.4378 21.4531 34.5635H15.2966V28.9292H23.6431H24.6997L25.3997 31.1193C25.4981 31.4267 25.7839 31.6354 26.1067 31.6354H28.5605V34.5679Z" fill="#333333"/>
<path d="M26.4463 8.11328H24.3044C23.8945 8.11328 23.5623 8.44556 23.5623 8.85547V10.9973V13.1393V16.2094C23.5623 16.6193 23.8945 16.9515 24.3044 16.9515C24.7144 16.9515 25.0466 16.6193 25.0466 16.2094V13.8815H26.4463C28.0366 13.8815 29.3305 12.5876 29.3305 10.9973C29.3305 9.40706 28.0366 8.11328 26.4463 8.11328ZM26.4463 12.3971H25.0466V10.9973V9.59766H26.4463C27.2181 9.59766 27.8461 10.2255 27.8461 10.9973C27.8461 11.7691 27.2182 12.3971 26.4463 12.3971Z" fill="#333333"/>
<path d="M11.6228 30.6289C11.2129 30.6289 10.8806 30.9612 10.8806 31.3711V31.3799C10.8806 31.7898 11.2129 32.122 11.6228 32.122C12.0327 32.122 12.365 31.7898 12.365 31.3799V31.3711C12.365 30.9612 12.0327 30.6289 11.6228 30.6289Z" fill="#333333"/>
</svg>
