<svg width="192" height="200" viewBox="0 0 192 200" fill="none" xmlns="http://www.w3.org/2000/svg">
<path d="M24.7297 110.739C27.2477 105.914 30.4019 98.5001 31.0844 90.6286C32.7013 72.0516 41.5409 60.5695 58.1069 55.5055C60.8038 54.6825 63.4014 53.6139 66.1447 52.4856C66.8869 52.1803 67.6357 51.875 68.3778 51.5697C64.6471 46.5256 64.17 46.7048 58.0737 48.9813C55.2973 50.0034 52.5407 51.0852 49.804 52.2135C35.9614 57.9479 28.0296 68.3946 26.2273 83.2549C24.8423 94.6971 21.602 104.779 16.3208 114.064C8.95886 127.019 4.08845 140.519 1.8421 154.205C0.675858 161.3 0.576462 168.74 0.477066 175.948C0.443934 178.609 0.404175 181.257 0.318032 183.905C0.192131 187.821 0.225263 191.664 0.258395 195.746C0.271647 197.153 0.278274 198.56 0.2849 199.987H6.35468C6.34806 198.633 6.34143 197.305 6.32818 195.991C6.29505 192.148 6.26191 188.525 6.39444 184.848C6.48721 182.12 6.52034 179.385 6.55348 176.644C6.63962 169.43 6.72576 161.977 8.01791 154.802C10.9269 138.621 17.772 124.059 24.7297 110.739Z" fill="black"/>
<path d="M50.9105 95.2543C51.1888 94.7432 51.4671 94.2388 51.7521 93.7344L53.0111 91.5442C59.4917 80.2413 66.1844 68.5668 79.5498 61.7639L79.2715 61.5382C78.145 60.6223 77.224 59.8856 76.3095 59.129C75.7993 58.7108 75.3156 58.2728 74.7722 57.7949L74.4873 57.5427C67.8344 61.6245 60.5917 66.9009 56.0526 74.9184C48.7569 87.7744 39.2215 104.719 30.1235 121.796C27.6717 126.395 25.8296 131.479 24.7892 136.497C21.867 150.634 19.5809 163.556 17.7785 176C16.9635 181.682 16.6653 187.336 16.3538 193.316C16.2412 195.5 16.1285 197.69 15.9894 199.887H22.311L22.3905 198.281C23.5501 168.978 27.6651 131.088 49.3467 97.9489C49.9232 97.0728 50.4135 96.1636 50.9105 95.2543Z" fill="black"/>
<path d="M88.86 71.9053L88.6877 71.7128C88.0052 70.9296 87.4221 70.2726 86.8058 69.6553C86.1299 68.9717 85.4076 68.3213 84.5992 67.5846L84.2812 67.2859C62.9441 88.8496 50.3937 107.977 43.6481 129.169C36.5843 151.39 33.1982 174.553 33.3175 199.94H39.3608C39.7716 142.57 55.5292 101.812 88.86 71.9053Z" fill="black"/>
<path d="M148.451 132.993C162.95 123.09 174.977 117.462 187.454 114.741C189.641 114.263 191.947 113.46 191.947 113.46C191.947 113.46 191.96 111.323 191.947 107.022C174.897 111.157 161.147 117.203 147.239 126.15C130.52 136.908 119.666 152.744 114.06 174.547C112.569 180.348 112.119 186.341 111.642 192.686C111.456 195.102 111.277 197.531 111.032 199.967H117.254L117.34 199.462C117.526 198.434 117.698 197.491 117.764 196.542C117.851 195.367 117.884 194.179 117.923 192.998C117.963 191.485 118.01 189.978 118.155 188.478C120.547 163.43 130.454 145.284 148.451 132.993Z" fill="black"/>
<path d="M79.9541 125.898C80.8155 125.035 81.5842 123.82 82.3131 122.174C87.0443 111.469 94.996 102.774 108.103 93.9735C108.68 93.5886 109.223 93.1439 109.839 92.6395L105.492 88.4382C94.8171 95.6859 84.1817 104.274 77.8138 117.508C76.8728 119.466 75.5542 121.212 74.2819 122.891C73.1885 124.345 72.1548 125.705 71.353 127.192C70.6374 128.506 69.882 129.813 69.1266 131.128C66.6682 135.382 64.1303 139.776 63.123 144.315C60.8568 154.516 59.5382 165.149 58.2659 175.43L57.5966 180.812C57.0135 185.398 56.7484 189.958 56.4701 194.783C56.3707 196.482 56.2713 198.195 56.1587 199.92H61.9502C62.2815 196.615 62.5996 193.33 62.9176 190.051C63.7062 181.887 64.4881 173.817 65.4091 165.766C67.0127 151.716 68.6693 137.194 79.9541 125.898Z" fill="black"/>
<path d="M94.6315 28.2806C92.2526 29.6013 89.8671 30.9221 87.4485 32.2097L90.6093 37.0414C93.2267 35.6941 95.7779 34.2804 98.3025 32.88C104.724 29.3292 110.78 25.9643 117.426 23.8603C130.904 19.5861 144.833 16.0286 158.305 12.584C163.917 11.1504 169.53 9.72347 175.122 8.23677C175.334 8.17704 175.56 8.15049 175.785 8.13058L191.967 6.85627C191.967 6.85627 192.02 1.61966 191.967 1.05552C182.928 0.425001 175.149 1.54666 165.726 4.32093C153.838 7.81201 139.983 11.8009 126.008 14.7875C114.617 17.2233 104.909 22.5993 94.6315 28.2806Z" fill="black"/>
<path d="M131.958 115.093L127.909 110.66C127.903 110.66 127.89 110.666 127.883 110.666C127.134 111.005 126.531 111.39 125.928 111.768L124.742 112.511C113.736 119.301 107.156 129.482 100.185 140.261C98.4153 143.002 96.6394 145.743 94.784 148.431C83.983 164.094 83.4595 181.663 84.1089 199.801H90.2383L90.2317 194.645C90.2251 189.142 90.2118 183.793 90.2648 178.444V177.196C90.2516 175.065 90.2383 172.862 91.0997 170.924C101.722 146.984 111.483 127.664 131.958 115.093Z" fill="black"/>
<path d="M189.528 14.9601L179.43 17.4092C161.439 21.7763 142.839 26.2962 124.596 30.9354C113.636 33.723 103.875 38.4884 95.5659 45.0988L95.9635 45.7493C96.8647 47.1895 97.7062 48.5302 98.5677 49.8709C99.8731 49.1076 101.165 48.3377 102.457 47.5612C105.976 45.444 109.621 43.2537 113.431 41.5547C118.772 39.172 124.656 37.161 130.911 35.5814C146.45 31.6456 162.294 27.8559 177.621 24.1856L188.11 21.6702C189.853 21.2454 191.947 20.575 191.947 20.575L191.967 14.7212C191.96 14.7212 190.429 14.7411 189.528 14.9601Z" fill="black"/>
<path d="M102.775 56.5008C103.253 57.3371 103.683 58.0937 104.154 58.8304C104.664 59.6401 105.214 60.4233 105.79 61.2662L106.029 61.6113C128.327 50.189 152.619 44.8727 176.116 39.7357C181.775 38.5012 186.314 37.5255 191.96 36.2048L191.987 30.0854C187.13 31.1673 183.379 31.9173 178.542 32.9526C151.844 38.6804 126.597 44.0829 102.749 56.461L102.775 56.5008Z" fill="black"/>
<path d="M187.54 140.208C189.681 139.471 191.967 138.403 191.967 138.403C191.967 138.403 191.967 136.299 191.96 132.29C154.329 141.203 140.407 172.988 142.017 199.908H147.404C147.543 198.448 147.656 197.021 147.762 195.614C148.067 191.738 148.345 188.081 149.127 184.463C153.905 162.203 166.833 147.309 187.54 140.208Z" fill="black"/>
<path d="M121.124 85.8037C125.895 83.7993 130.62 81.7418 135.338 79.6777C153.759 71.6336 171.584 63.5365 191.967 59.8596V53.8464C169.397 57.5499 149.922 66.5032 129.911 75.4234C125.908 77.2087 121.906 78.9875 117.877 80.733L121.124 85.8037Z" fill="black"/>
<path d="M134.33 106.803L137.418 111.807C138.339 111.356 139.24 110.891 140.135 110.44C142.905 109.02 145.529 107.686 148.358 106.697C157.211 103.591 166.263 100.577 175.01 97.6704C178.959 96.3563 182.902 95.0422 186.845 93.7147C189.396 92.8586 191.96 91.8298 191.96 91.8298C191.96 91.8298 191.934 89.4007 191.96 85.5247C184.684 88.4184 178.35 90.2104 170.988 92.4404C158.656 96.1904 145.92 100.06 134.33 106.803Z" fill="black"/>
<path d="M176.428 175.582C179.927 172.33 183.538 168.972 187.772 166.782C189.648 165.813 191.993 164.611 191.993 164.611C191.993 164.611 191.96 160.483 191.96 157.357C173.837 166.589 156.999 181.589 159.862 199.907L165.514 199.748C165.6 199.011 165.687 198.268 165.673 197.544C165.514 189.567 168.324 182.93 174.016 177.793C174.831 177.069 175.626 176.326 176.428 175.582Z" fill="black"/>
<path d="M191.954 182.366C191.954 182.366 191.96 178.987 191.954 176.087C182.869 179.598 173.565 189.952 174.182 199.947H179.774C180.629 192.719 184.128 186.978 191.576 182.585C191.708 182.505 191.954 182.366 191.954 182.366Z" fill="black"/>
<path d="M186.864 196.741C187.772 199.409 189.343 200.392 191.96 199.867V189.905C189.621 190.881 187.892 192.248 187.11 193.775C186.613 194.75 186.526 195.746 186.864 196.741Z" fill="black"/>
</svg>
