<svg width="220" height="226" viewBox="0 0 220 226" fill="none" xmlns="http://www.w3.org/2000/svg">
<path d="M120.18 30.8974L116.448 19.2639L126.114 12.2361H114.213L110.376 0.397461L106.539 12.2295L94.394 12.2692L104.139 19.1779L100.473 30.9437L110.376 23.6976L120.18 30.8974Z" fill="black"/>
<path d="M120.18 225.656L116.448 214.022L126.12 207.001L114.213 206.994L110.376 195.162L106.539 206.994L94.394 207.027L104.139 213.936L100.473 225.709L110.376 218.462L120.18 225.656Z" fill="black"/>
<path d="M165.805 209.231L162.073 197.598L171.745 190.577L159.844 190.57L156.001 178.738L152.17 190.563L140.019 190.603L149.763 197.512L146.098 209.284L156.001 202.032L165.805 209.231Z" fill="black"/>
<path d="M168.297 46.3361L164.565 34.696L174.23 27.6748H162.336L158.493 15.8362L154.662 27.6682L142.504 27.7013L152.255 34.6166L148.59 46.3891L158.493 39.1297L168.297 46.3361Z" fill="black"/>
<path d="M200.141 81.7856L196.41 70.1454L206.075 63.1243H194.174L190.337 51.2856L186.5 63.1177L174.349 63.1508L184.094 70.0727L180.434 81.8319L190.337 74.5858L200.141 81.7856Z" fill="black"/>
<path d="M200.141 178.05L196.41 166.417L206.075 159.396L194.174 159.389L190.337 147.557L186.5 159.383L174.349 159.416L184.094 166.331L180.434 178.103L190.337 170.844L200.141 178.05Z" fill="black"/>
<path d="M219.881 112.246L207.98 112.233L204.143 100.407L200.306 112.233L188.155 112.273L197.899 119.181L194.234 130.954L204.15 123.701L213.947 130.901L210.215 119.267L219.881 112.246Z" fill="black"/>
<path d="M70.6718 197.42L80.4165 190.498L68.2653 190.465L64.4281 178.633L60.5909 190.472L48.6969 190.478L58.3559 197.493L54.6241 209.14L64.4215 201.933L74.331 209.186L70.6718 197.42Z" fill="black"/>
<path d="M68.1798 34.5111L77.9178 27.6024L65.7733 27.5693L61.9361 15.7373L58.0989 27.5693L46.1982 27.576L55.8638 34.5971L52.1321 46.2306L61.9295 39.0374L71.8456 46.2902L68.1798 34.5111Z" fill="black"/>
<path d="M40.0006 81.7396L36.3348 69.9672L46.0795 63.0585L33.9283 63.0188L30.0911 51.1868L26.2539 63.0188L14.3533 63.0254L24.0188 70.0466L20.2937 81.6867L30.0911 74.4869L40.0006 81.7396Z" fill="black"/>
<path d="M36.3347 166.231L46.0794 159.316L33.9282 159.283L30.091 147.451L26.2538 159.289H14.3597L24.0187 166.31L20.2936 177.944L30.091 170.751L40.0005 177.997L36.3347 166.231Z" fill="black"/>
<path d="M32.28 112.173L20.1289 112.133L16.2917 100.301L12.4479 112.14L0.547241 112.146L10.2194 119.167L6.48766 130.801L16.2917 123.595L26.1946 130.847L22.5288 119.081L32.28 112.173Z" fill="black"/>
<path d="M103.011 94.0082V86.9805H60.446V145.611H103.572V138.584H68.3314V118.235H100.275V111.214H68.3314V94.0082H103.011Z" fill="black"/>
<path d="M117.622 86.9805V126.149C117.622 137.055 124.38 147.147 140.071 147.147C156.08 147.147 163.563 136.976 163.563 125.018V86.9805H155.677V124.124C155.677 136.803 147.713 140.198 140.467 140.198C133.386 140.198 125.501 136.651 125.501 123.972V86.9871H117.622V86.9805Z" fill="black"/>
</svg>
