<svg width="230" height="177" viewBox="0 0 230 177" fill="none" xmlns="http://www.w3.org/2000/svg">
<path d="M82.1213 0.555921V34.1866L75.2388 22.5791L0.0986328 153.665L113.168 153.652H113.472L116.019 156.221C132.397 172.709 152.207 179.172 174.827 175.411C203.591 170.643 225.941 146.905 229.175 117.704C232.448 88.1454 216.287 60.5271 188.962 48.9791C187.946 48.5487 186.019 47.6217 186.019 47.6217L185.597 47.4231V0.555921C176.708 0.555921 91.0626 0.5493 82.1213 0.555921ZM180.377 52.0846C180.45 64.2219 180.417 77.3656 180.384 90.0856L180.364 97.1507C180.37 97.4752 180.377 97.6937 180.377 98.1638V98.9054L164.342 98.8988C150.359 98.9054 136.416 98.8856 122.46 98.9584C121.391 98.9584 119.569 98.912 119.569 98.912L119.2 98.8988L118.975 98.5942C118.929 98.5346 117.893 97.0647 117.359 96.0449C115.28 92.0522 112.971 88.1587 110.78 84.5036C109.744 82.7688 109.704 81.4312 110.641 79.7361C122.057 59.1366 146.242 46.6748 169.291 49.4029C172.769 49.8068 175.401 50.2571 177.817 50.8596L178.503 51.0186C179.018 51.1311 179.447 51.2371 179.895 51.4026L180.37 51.5748L180.377 52.0846ZM113.056 98.9054H103.633L103.792 98.0314C104.313 95.1312 105.045 92.5554 106.055 89.3506L106.557 87.7482L107.401 89.1983C108.404 90.9331 109.302 92.4627 110.179 93.9658L113.056 98.9054ZM180.219 5.70747V45.7412L179.334 45.5558C164.401 42.5231 151.092 43.5429 138.613 48.6679C125.488 54.0777 115.122 62.8843 106.952 75.591L106.293 76.6174L96.7508 59.9841C94.0387 55.2696 91.3266 50.5551 88.6739 45.8074C88.014 44.6089 87.4003 43.0661 87.3739 42.9999L87.3211 42.7284C87.3211 42.3775 87.3277 7.2238 87.3211 6.4557L87.3145 5.70747H180.219ZM103.079 81.855L102.98 82.153C102.947 82.2523 99.6938 92.1647 98.869 96.1641C98.7238 96.8528 98.4598 98.2962 98.4598 98.2962L98.3477 98.8988H87.3343V54.5214L88.6871 56.5873C89.2612 57.4679 89.7957 58.3949 90.1322 58.9975L92.7849 63.5862C95.8269 68.8503 98.9745 74.2866 101.931 79.7229C102.274 80.3387 102.927 81.5769 102.927 81.5769L103.079 81.855ZM9.32371 148.143L29.4236 113.069L75.3444 32.9617L75.9646 34.1469C77.9905 37.9874 82.0355 45.7015 82.0355 45.7015L82.1213 46.0458L82.1147 104.136H97.602L97.5558 104.924C96.6122 120.372 100.182 134.132 108.47 146.998L109.209 148.136H9.32371V148.143ZM115.821 147.885C115.821 147.885 115.036 146.984 114.845 146.719C106.015 134.92 101.937 121.392 102.716 106.52C102.736 106.116 102.756 105.726 102.921 104.832L103.033 104.223L105.87 104.216C108.668 104.223 111.572 104.203 114.31 104.282L116.105 104.322L116.31 104.699C116.31 104.699 116.679 105.388 116.831 105.646C123.595 117.346 130.385 129.186 137.254 141.177L141.233 148.136H116.046L115.821 147.885ZM186.507 53.8724C203.875 57.9579 222.569 83.7819 224.252 106.017C226.271 132.695 209.227 158.658 183.736 167.756C177.018 170.153 170.208 171.206 163.649 171.206C146.604 171.212 131.177 164.101 122.915 154.977L121.8 153.738H150.478L122.235 104.381H185.451C185.451 96.1376 185.491 87.9005 185.524 79.6964C185.564 71.3003 185.597 62.9307 185.597 54.5942V53.6672L186.507 53.8724Z" fill="black"/>
</svg>
