<svg xmlns="http://www.w3.org/2000/svg">
    <symbol viewBox="0 0 258 180" fill="none" id="pic">
        <ellipse cx="122.5" cy="177" rx="41.5" ry="3" fill="#F3F3F3"/>
        <path fill-rule="evenodd" clip-rule="evenodd" d="M211.521 150.275C212.178 149.796 213.274 148.601 214.205 147.993C213.351 144.324 210.827 136.723 203.642 129.086C194.023 118.859 189.057 120.255 189.044 120.259C187.97 120.523 186.883 119.865 186.619 118.792C186.355 117.718 187.013 116.631 188.086 116.367C188.104 116.362 195.298 114.385 206.559 126.357C214.371 134.665 217.167 143.098 218.129 147.232C218.352 147.273 217.288 146.919 218.795 147.402C220.303 147.885 221.73 152.046 221.046 154.185C220.361 156.323 219.238 158.56 217.717 159.048C214.733 159.625 212.442 156.296 212.022 153.227C211.002 153.608 210.715 153.039 210.536 152.69C210.134 151.921 210.859 150.762 211.516 150.284L211.521 150.275Z" fill="#4F4F4F"/>
        <path fill-rule="evenodd" clip-rule="evenodd" d="M110.476 169.454C110.561 165.692 110.01 157.697 104.959 148.512C104.959 148.512 103.474 143.465 105 143.877C106.069 144.163 106.928 143.823 108.467 146.593C113.965 156.583 114.569 165.45 114.466 169.691C114.672 169.79 114.874 169.897 115.07 170.023C117.549 171.584 119.594 176.55 116.847 177.163C102.597 180.362 94.4099 173.655 110.476 169.454Z" fill="#4F4F4F"/>
        <path fill-rule="evenodd" clip-rule="evenodd" d="M133.309 169.101C133.224 165.338 133.775 157.343 138.826 148.158C138.826 148.158 140.311 143.112 138.785 143.523C137.716 143.81 136.857 143.47 135.318 146.239C129.82 156.229 129.216 165.097 129.319 169.338C129.113 169.436 128.911 169.544 128.715 169.669C126.236 171.23 124.191 176.196 126.938 176.809C141.188 180.008 149.375 173.302 133.309 169.101Z" fill="#4F4F4F"/>
        <path fill-rule="evenodd" clip-rule="evenodd" d="M47.6217 151.639C82.6481 165.768 159.85 161.209 187.11 153.97C214.302 146.754 230.113 26.7943 224.731 19.0589C210.034 -2.06699 26.3259 -8.75551 15.9061 15.2247C8.95808 31.219 30.2047 144.611 47.6217 151.639Z" fill="#E9E9E9"/>
        <path fill-rule="evenodd" clip-rule="evenodd" d="M34.5457 130.147C37.3643 125.91 41.7398 119.816 46.4508 115.056C54.5083 106.922 94.8945 76.2761 83.9333 69.0776C72.9677 61.8745 24.9894 25.5239 26.855 23.3227C28.7206 21.1171 72.2564 51.3921 94.4605 64.9616C116.665 78.531 117.237 83.1525 120.074 81.3406C137.768 71.2787 217.498 29.801 222.357 16.7461C212.304 9.26567 180.458 3.88354 144.653 1.4542L98.4825 0.0180664C57.0495 0.264132 20.3991 4.89912 15.9118 15.2294C15.8805 15.3055 15.8536 15.3949 15.8223 15.4755L14.6367 30.1589C15.5002 55.2218 24.3183 102.435 34.5502 130.156L34.5457 130.147ZM63.3041 149.098C63.3041 149.098 35.7044 145.134 46.9474 128.509C58.1904 111.884 90.7963 77.0412 101.784 81.0498C112.772 85.0584 112.754 91.0177 120.199 91.1474C127.644 91.2727 134.735 81.7925 142.39 81.9356C150.045 82.0788 174.87 126.295 179.434 122.161C183.997 118.027 147.016 76.9561 155.552 70.9879C164.088 65.0197 193.978 38.0688 208.452 46.8064C222.92 55.5439 202.363 143.237 174.727 145.447C147.096 147.658 118.767 150.664 63.3041 149.103V149.098Z" fill="#F3F3F3"/>
        <path d="M112.219 124.017C111.338 123.547 110.976 122.353 111.405 121.355C111.414 121.337 112.935 118.868 118.85 118.483C125.14 118.076 127.892 121.923 127.896 121.946C128.151 123.006 127.592 124.115 126.648 124.424C124.518 125.118 123.959 122.165 118.827 122.5C116.277 122.666 112.913 124.393 112.219 124.022V124.017Z" fill="#4F4F4F"/>
        <path d="M93.6413 127.459C97.0677 126.983 99.5839 124.715 99.2614 122.392C98.9389 120.07 95.8999 118.572 92.4735 119.048C89.0471 119.524 86.531 121.792 86.8534 124.115C87.1759 126.438 90.215 127.935 93.6413 127.459Z" fill="#EB7470"/>
        <path d="M146.021 128.198C142.65 127.422 140.344 124.941 140.869 122.656C141.395 120.371 144.554 119.147 147.925 119.922C151.296 120.698 153.603 123.179 153.077 125.464C152.552 127.75 149.393 128.973 146.021 128.198Z" fill="#EB7470"/>
        <path d="M92.9781 115.353C97.1893 115.666 100.853 112.553 101.161 108.401C101.469 104.249 98.3049 100.63 94.0937 100.318C89.8826 100.005 86.219 103.118 85.911 107.27C85.6029 111.422 88.767 115.041 92.9781 115.353Z" fill="#4F4F4F"/>
        <path d="M146.345 116.335C150.556 116.647 154.22 113.535 154.528 109.383C154.836 105.231 151.672 101.612 147.461 101.299C143.25 100.987 139.586 104.099 139.278 108.251C138.97 112.403 142.134 116.022 146.345 116.335Z" fill="#4F4F4F"/>
        <path d="M96.9884 106.104C97.897 106.172 98.6874 105.5 98.7539 104.604C98.8203 103.709 98.1377 102.928 97.2291 102.86C96.3205 102.793 95.5301 103.464 95.4636 104.36C95.3972 105.256 96.0798 106.037 96.9884 106.104Z" fill="white"/>
        <path d="M150.357 107.11C151.278 107.178 152.08 106.497 152.148 105.588C152.215 104.679 151.523 103.887 150.601 103.818C149.679 103.75 148.877 104.431 148.81 105.34C148.742 106.249 149.435 107.041 150.357 107.11Z" fill="white"/>
        <path d="M93.0899 112.463C94.917 112.599 96.5065 111.249 96.6402 109.447C96.7738 107.646 95.401 106.075 93.5739 105.94C91.7468 105.804 90.1573 107.155 90.0236 108.956C89.89 110.758 91.2628 112.328 93.0899 112.463Z" fill="white"/>
        <path d="M146.461 113.445C148.288 113.58 149.878 112.23 150.011 110.429C150.145 108.627 148.772 107.057 146.945 106.921C145.118 106.786 143.528 108.136 143.395 109.938C143.261 111.739 144.634 113.309 146.461 113.445Z" fill="white"/>
        <path fill-rule="evenodd" clip-rule="evenodd" d="M101.67 128.155C101.63 128.97 101.231 130.54 101.231 131.654C98.7259 135.658 91.4469 142.638 79.8952 137.569C77.5106 137.153 77.0856 136.745 76.3608 138.817C76.0924 139.586 76.495 140.848 79.4165 141.452C92.5206 145.72 97.9162 140.785 102.744 135.354C107.727 136.28 113.503 132.535 112.403 128.549C111.253 125.735 107.213 125.641 104.412 126.97C104.171 125.91 103.54 125.981 103.151 126.017C102.287 126.102 101.715 127.341 101.674 128.155H101.67Z" fill="#4F4F4F"/>
        <path fill-rule="evenodd" clip-rule="evenodd" d="M234.855 72.8802C236.063 73.0681 236.895 74.1597 236.716 75.314C236.537 76.4683 235.41 77.2557 234.202 77.0633C232.994 76.8754 232.162 75.7838 232.341 74.6295C232.52 73.4752 233.647 72.6878 234.855 72.8802ZM237.316 70.245C234.739 69.2563 239.235 61.0914 245.534 57.5928C251.834 54.0942 254.831 48.032 249.239 46.3767C243.651 44.7213 245.521 54.5684 238.922 50.0274C232.323 45.4863 244.425 36.6548 252.688 41.1645C260.951 45.6743 257.596 57.1409 249.158 60.5948C240.72 64.0487 239.459 72.7236 237.316 70.245Z" fill="#D33234"/>
        <path fill-rule="evenodd" clip-rule="evenodd" d="M16.8862 107.441C17.4276 106.77 18.3895 106.645 19.0337 107.164C19.678 107.683 19.7585 108.649 19.2172 109.32C18.6758 109.991 17.7139 110.117 17.0697 109.598C16.4254 109.079 16.3449 108.112 16.8862 107.441ZM16.1436 105.007C14.6314 106.233 11.2223 100.605 11.3073 95.5181C11.3923 90.4313 8.73923 86.4629 5.75512 89.2949C2.77101 92.1313 9.45058 94.4578 4.34583 96.8916C-0.758916 99.3254 -1.88635 88.8072 3.78659 85.3489C9.45953 81.8861 15.2846 87.984 14.4211 94.3638C13.5576 100.744 18.4163 104.573 16.1436 105.012V105.007Z" fill="#D33234"/>
    </symbol>
    <symbol viewBox="0 0 282 232" fill="none" id="pic-active">
        <ellipse rx="69.3931" ry="1.32656" transform="matrix(1.02721 0.0247713 0.164644 0.965687 156.334 200.707)" fill="#F3F3F3"/>
        <path fill-rule="evenodd" clip-rule="evenodd" d="M42.7129 133.747C43.9117 134.455 44.8772 135.645 45.284 137.106C45.5972 138.23 45.5273 139.335 45.1587 140.276C47.6679 143.037 53.4315 148.425 62.6197 151.749C74.9314 156.201 77.8518 152.774 77.8594 152.765C78.5115 152.055 79.6459 152.132 80.3924 152.935C81.139 153.739 81.2144 154.966 80.5623 155.676C80.5493 155.69 76.2934 160.618 61.8848 155.406C51.8872 151.792 45.4995 145.81 42.673 142.697C42.489 142.763 42.2968 142.811 42.0952 142.85C39.5901 143.337 36.9486 141.554 36.2007 138.869C35.7552 137.269 36.0803 135.712 36.9438 134.611C36.6364 134.294 36.3092 133.955 35.9791 133.605C34.7042 132.261 33.3009 130.734 32.4964 129.795C31.7845 128.959 31.7611 127.736 32.4517 127.068C33.1392 126.4 34.2757 126.533 34.9886 127.373C35.7691 128.287 37.1056 129.744 38.3087 131.012L38.3327 131.037C37.9021 129.431 37.4801 127.77 37.2552 126.745C37.0194 125.681 37.6125 124.722 38.5753 124.607C39.537 124.488 40.5073 125.259 40.7399 126.325C40.9999 127.512 41.4883 129.423 41.9464 131.092C42.2445 132.175 42.5244 133.155 42.7117 133.755L42.7129 133.747Z" fill="#4F4F4F"/>
        <path fill-rule="evenodd" clip-rule="evenodd" d="M234.647 78.6682C234.229 79.9072 234.315 81.3744 235.005 82.7165C235.537 83.7482 236.34 84.5414 237.259 85.034C237.254 88.5965 236.595 96.0593 231.953 103.983C225.737 114.602 221.207 113.737 221.193 113.736C220.22 113.584 219.418 114.312 219.405 115.361C219.39 116.406 220.17 117.378 221.146 117.529C221.164 117.533 227.719 118.735 234.995 106.31C240.042 97.688 240.766 89.4111 240.771 85.3924C240.952 85.331 241.134 85.2585 241.308 85.169C243.524 84.0584 244.292 81.156 243.022 78.6915C242.267 77.2247 240.963 76.2396 239.562 75.9189C239.579 75.5002 239.593 75.0521 239.601 74.5906C239.644 72.8237 239.658 70.8437 239.622 69.6635C239.588 68.6126 238.77 67.6813 237.798 67.5813C236.826 67.4813 236.067 68.2561 236.1 69.3069C236.135 70.4577 236.125 72.3443 236.084 74.0106L236.082 74.0406C235.314 72.5728 234.498 71.0771 233.968 70.1712C233.419 69.2319 232.321 68.8559 231.52 69.3348C230.718 69.8137 230.512 70.9669 231.061 71.9062C231.673 72.9555 232.61 74.6836 233.402 76.2136C233.917 77.2078 234.376 78.1089 234.642 78.673L234.647 78.6682Z" fill="#4F4F4F"/>
        <path fill-rule="evenodd" clip-rule="evenodd" d="M192.394 165.694C190.114 162.88 185.731 156.493 183.439 146.692C183.439 146.692 181.379 142.026 180.674 143.19C180.18 144.006 179.446 144.224 180.125 147.185C182.621 157.846 187.487 164.926 190.058 168.096C189.986 168.283 189.928 168.481 189.877 168.685C189.26 171.254 190.646 175.368 192.997 175.106C204.632 173.807 205.096 161.086 192.394 165.694Z" fill="#4F4F4F"/>
        <path fill-rule="evenodd" clip-rule="evenodd" d="M127.503 183.466C128.086 180.088 128.697 172.715 125.658 163.062C125.658 163.062 125.08 158.103 126.318 158.884C127.185 159.431 127.958 159.352 128.888 162.263C132.193 172.765 131.507 180.94 130.849 184.748C131.01 184.888 131.166 185.044 131.317 185.208C133.207 187.282 134.102 191.494 131.857 192.138C120.739 195.328 113.708 184.085 127.503 183.466Z" fill="#4F4F4F"/>
        <path fill-rule="evenodd" clip-rule="evenodd" d="M99.1847 182.265C133.167 187.293 196.287 164.661 216.72 151.359C237.101 138.09 210.761 21.0652 203.702 15.0394C184.427 -1.42151 28.4414 35.87 27.634 60.9904C27.096 77.7423 82.2899 179.769 99.1857 182.269L99.1847 182.265Z" fill="#E9E9E9"/>
        <path fill-rule="evenodd" clip-rule="evenodd" d="M80.9421 165.586C81.9068 160.909 83.5589 154.104 85.9378 148.485C90.0028 138.878 113.734 100.298 102.162 96.0922C90.5951 91.8897 38.3701 68.9198 39.2072 66.3927C40.0444 63.8656 86.5319 82.1449 109.626 89.6975C132.717 97.2543 134.727 101.487 136.506 99.099C148.01 85.3753 201.136 27.1978 200.897 13.6977C190 9.0127 161.531 11.4959 130.718 17.7085L91.5446 27.326C56.8953 37.4098 27.7097 50.5058 27.3633 61.3422C27.3608 61.4185 27.3665 61.5121 27.3692 61.5949L31.2241 75.7606C40.2278 99.2557 63.2164 141.807 80.9463 165.589L80.9421 165.586ZM111.304 176.672C111.304 176.672 86.8602 179.484 90.79 161.089C94.7198 142.694 110.54 101.99 121.076 103.172C131.612 104.35 133.565 109.992 139.846 108.344C146.126 106.696 148.936 96.0403 155.4 94.3566C161.864 92.6728 197.276 128.582 199.737 123.588C202.198 118.593 157.634 88.5457 162.814 80.8741C167.995 73.2025 184.148 40.6072 199.163 45.4321C214.178 50.257 225.914 138.071 203.481 146.729C181.051 155.386 158.298 164.967 111.302 176.676L111.304 176.672Z" fill="#F3F3F3"/>
        <path d="M164.567 122.001C164.451 123.064 163.547 123.713 162.545 123.449C161.546 123.184 160.829 122.106 160.943 121.039C160.945 121.019 161.627 114.502 167.285 112.858C173.301 111.112 177.216 118.06 177.228 118.077C177.798 119.057 177.582 120.256 176.75 120.755C175.918 121.254 174.781 120.862 174.211 119.882C174.205 119.872 171.89 115.779 168.63 116.726C165.012 117.775 164.569 121.985 164.569 121.997L164.567 122.001Z" fill="#4F4F4F"/>
        <path d="M116.464 137.477C116.619 138.565 115.942 139.468 114.954 139.496C113.962 139.525 113.035 138.667 112.88 137.583C112.878 137.564 111.891 130.955 116.69 127.682C121.799 124.199 127.115 129.886 127.133 129.901C127.904 130.698 128.007 131.941 127.368 132.676C126.728 133.415 125.585 133.367 124.818 132.573C124.809 132.563 121.658 129.207 118.899 131.088C115.829 133.181 116.466 137.461 116.469 137.472L116.464 137.477Z" fill="#4F4F4F"/>
        <path d="M126.066 146.901C128.836 145.655 130.223 142.952 129.164 140.863C128.105 138.774 125.002 138.09 122.232 139.336C119.462 140.582 118.075 143.285 119.134 145.374C120.193 147.463 123.296 148.147 126.066 146.901Z" fill="#EB7470"/>
        <path d="M172.651 133.183C169.598 133.253 166.871 131.41 166.56 129.066C166.248 126.723 168.471 124.766 171.523 124.697C174.576 124.627 177.303 126.47 177.615 128.814C177.926 131.157 175.704 133.113 172.651 133.183Z" fill="#EB7470"/>
        <path fill-rule="evenodd" clip-rule="evenodd" d="M146.729 130.65C142.406 131.952 137.992 130.159 139.187 133.504C140.381 136.85 144.855 138.506 149.182 137.207C153.505 135.905 156.045 132.138 154.85 128.793C153.655 125.448 151.056 129.35 146.73 130.653L146.729 130.65Z" fill="#4F4F4F"/>
        <path fill-rule="evenodd" clip-rule="evenodd" d="M143.556 137.162C145.221 137.613 147.138 137.606 149.025 137.026C150.508 136.57 151.786 135.824 152.776 134.904C151.364 133.512 148.84 133.209 146.543 134.306C145.165 134.964 144.127 136.006 143.559 137.162L143.556 137.162Z" fill="#EB7470"/>
    </symbol>
</svg>
