<svg width="282" height="232" viewBox="0 0 282 232" fill="none" xmlns="http://www.w3.org/2000/svg">
<ellipse rx="69.3931" ry="1.32656" transform="matrix(1.02721 0.0247713 0.164644 0.965687 156.334 200.707)" fill="#F3F3F3"/>
<path fill-rule="evenodd" clip-rule="evenodd" d="M42.7129 133.747C43.9117 134.455 44.8772 135.645 45.284 137.106C45.5972 138.23 45.5273 139.335 45.1587 140.276C47.6679 143.037 53.4315 148.425 62.6197 151.749C74.9314 156.201 77.8518 152.774 77.8594 152.765C78.5115 152.055 79.6459 152.132 80.3924 152.935C81.139 153.739 81.2144 154.966 80.5623 155.676C80.5493 155.69 76.2934 160.618 61.8848 155.406C51.8872 151.792 45.4995 145.81 42.673 142.697C42.489 142.763 42.2968 142.811 42.0952 142.85C39.5901 143.337 36.9486 141.554 36.2007 138.869C35.7552 137.269 36.0803 135.712 36.9438 134.611C36.6364 134.294 36.3092 133.955 35.9791 133.605C34.7042 132.261 33.3009 130.734 32.4964 129.795C31.7845 128.959 31.7611 127.736 32.4517 127.068C33.1392 126.4 34.2757 126.533 34.9886 127.373C35.7691 128.287 37.1056 129.744 38.3087 131.012L38.3327 131.037C37.9021 129.431 37.4801 127.77 37.2552 126.745C37.0194 125.681 37.6125 124.722 38.5753 124.607C39.537 124.488 40.5073 125.259 40.7399 126.325C40.9999 127.512 41.4883 129.423 41.9464 131.092C42.2445 132.175 42.5244 133.155 42.7117 133.755L42.7129 133.747Z" fill="#4F4F4F"/>
<path fill-rule="evenodd" clip-rule="evenodd" d="M234.647 78.6682C234.229 79.9072 234.315 81.3744 235.005 82.7165C235.537 83.7482 236.34 84.5414 237.259 85.034C237.254 88.5965 236.595 96.0593 231.953 103.983C225.737 114.602 221.207 113.737 221.193 113.736C220.22 113.584 219.418 114.312 219.405 115.361C219.39 116.406 220.17 117.378 221.146 117.529C221.164 117.533 227.719 118.735 234.995 106.31C240.042 97.688 240.766 89.4111 240.771 85.3924C240.952 85.331 241.134 85.2585 241.308 85.169C243.524 84.0584 244.292 81.156 243.022 78.6915C242.267 77.2247 240.963 76.2396 239.562 75.9189C239.579 75.5002 239.593 75.0521 239.601 74.5906C239.644 72.8237 239.658 70.8437 239.622 69.6635C239.588 68.6126 238.77 67.6813 237.798 67.5813C236.826 67.4813 236.067 68.2561 236.1 69.3069C236.135 70.4577 236.125 72.3443 236.084 74.0106L236.082 74.0406C235.314 72.5728 234.498 71.0771 233.968 70.1712C233.419 69.2319 232.321 68.8559 231.52 69.3348C230.718 69.8137 230.512 70.9669 231.061 71.9062C231.673 72.9555 232.61 74.6836 233.402 76.2136C233.917 77.2078 234.376 78.1089 234.642 78.673L234.647 78.6682Z" fill="#4F4F4F"/>
<path fill-rule="evenodd" clip-rule="evenodd" d="M192.394 165.694C190.114 162.88 185.731 156.493 183.439 146.692C183.439 146.692 181.379 142.026 180.674 143.19C180.18 144.006 179.446 144.224 180.125 147.185C182.621 157.846 187.487 164.926 190.058 168.096C189.986 168.283 189.928 168.481 189.877 168.685C189.26 171.254 190.646 175.368 192.997 175.106C204.632 173.807 205.096 161.086 192.394 165.694Z" fill="#4F4F4F"/>
<path fill-rule="evenodd" clip-rule="evenodd" d="M127.503 183.466C128.086 180.088 128.697 172.715 125.658 163.062C125.658 163.062 125.08 158.103 126.318 158.884C127.185 159.431 127.958 159.352 128.888 162.263C132.193 172.765 131.507 180.94 130.849 184.748C131.01 184.888 131.166 185.044 131.317 185.208C133.207 187.282 134.102 191.494 131.857 192.138C120.739 195.328 113.708 184.085 127.503 183.466Z" fill="#4F4F4F"/>
<path fill-rule="evenodd" clip-rule="evenodd" d="M99.1847 182.265C133.167 187.293 196.287 164.661 216.72 151.359C237.101 138.09 210.761 21.0652 203.702 15.0394C184.427 -1.42151 28.4414 35.87 27.634 60.9904C27.096 77.7423 82.2899 179.769 99.1857 182.269L99.1847 182.265Z" fill="#E9E9E9"/>
<path fill-rule="evenodd" clip-rule="evenodd" d="M80.9421 165.586C81.9068 160.909 83.5589 154.104 85.9378 148.485C90.0028 138.878 113.734 100.298 102.162 96.0922C90.5951 91.8897 38.3701 68.9198 39.2072 66.3927C40.0444 63.8656 86.5319 82.1449 109.626 89.6975C132.717 97.2543 134.727 101.487 136.506 99.099C148.01 85.3753 201.136 27.1978 200.897 13.6977C190 9.0127 161.531 11.4959 130.718 17.7085L91.5446 27.326C56.8953 37.4098 27.7097 50.5058 27.3633 61.3422C27.3608 61.4185 27.3665 61.5121 27.3692 61.5949L31.2241 75.7606C40.2278 99.2557 63.2164 141.807 80.9463 165.589L80.9421 165.586ZM111.304 176.672C111.304 176.672 86.8602 179.484 90.79 161.089C94.7198 142.694 110.54 101.99 121.076 103.172C131.612 104.35 133.565 109.992 139.846 108.344C146.126 106.696 148.936 96.0403 155.4 94.3566C161.864 92.6728 197.276 128.582 199.737 123.588C202.198 118.593 157.634 88.5457 162.814 80.8741C167.995 73.2025 184.148 40.6072 199.163 45.4321C214.178 50.257 225.914 138.071 203.481 146.729C181.051 155.386 158.298 164.967 111.302 176.676L111.304 176.672Z" fill="#F3F3F3"/>
<path d="M164.567 122.001C164.451 123.064 163.547 123.713 162.545 123.449C161.546 123.184 160.829 122.106 160.943 121.039C160.945 121.019 161.627 114.502 167.285 112.858C173.301 111.112 177.216 118.06 177.228 118.077C177.798 119.057 177.582 120.256 176.75 120.755C175.918 121.254 174.781 120.862 174.211 119.882C174.205 119.872 171.89 115.779 168.63 116.726C165.012 117.775 164.569 121.985 164.569 121.997L164.567 122.001Z" fill="#4F4F4F"/>
<path d="M116.464 137.477C116.619 138.565 115.942 139.468 114.954 139.496C113.962 139.525 113.035 138.667 112.88 137.583C112.878 137.564 111.891 130.955 116.69 127.682C121.799 124.199 127.115 129.886 127.133 129.901C127.904 130.698 128.007 131.941 127.368 132.676C126.728 133.415 125.585 133.367 124.818 132.573C124.809 132.563 121.658 129.207 118.899 131.088C115.829 133.181 116.466 137.461 116.469 137.472L116.464 137.477Z" fill="#4F4F4F"/>
<path d="M126.066 146.901C128.836 145.655 130.223 142.952 129.164 140.863C128.105 138.774 125.002 138.09 122.232 139.336C119.462 140.582 118.075 143.285 119.134 145.374C120.193 147.463 123.296 148.147 126.066 146.901Z" fill="#EB7470"/>
<path d="M172.651 133.183C169.598 133.253 166.871 131.41 166.56 129.066C166.248 126.723 168.471 124.766 171.523 124.697C174.576 124.627 177.303 126.47 177.615 128.814C177.926 131.157 175.704 133.113 172.651 133.183Z" fill="#EB7470"/>
<path fill-rule="evenodd" clip-rule="evenodd" d="M146.729 130.65C142.406 131.952 137.992 130.159 139.187 133.504C140.381 136.85 144.855 138.506 149.182 137.207C153.505 135.905 156.045 132.138 154.85 128.793C153.655 125.448 151.056 129.35 146.73 130.653L146.729 130.65Z" fill="#4F4F4F"/>
<path fill-rule="evenodd" clip-rule="evenodd" d="M143.556 137.162C145.221 137.613 147.138 137.606 149.025 137.026C150.508 136.57 151.786 135.824 152.776 134.904C151.364 133.512 148.84 133.209 146.543 134.306C145.165 134.964 144.127 136.006 143.559 137.162L143.556 137.162Z" fill="#EB7470"/>
</svg>
