<svg width="200" height="32" viewBox="0 0 200 32" fill="none" xmlns="http://www.w3.org/2000/svg">
<path fill-rule="evenodd" clip-rule="evenodd" d="M46.5271 4.20419V20.5545H35.9528C36.5167 19.9005 36.9397 19.1063 37.2687 18.172C37.5977 17.2377 37.7856 16.1633 37.9266 14.902C38.0676 13.6407 38.1146 12.1458 38.1146 10.4173V4.20419H46.5271ZM29.1382 20.6012V30.2245H33.5559V24.6187H49.065V30.2245H53.4357V20.6012H51.2268V0.233398H33.5559V10.5107C33.5559 11.8655 33.5089 13.1268 33.4149 14.1078C33.3679 15.1355 33.1799 16.0698 32.9919 16.8173C32.851 17.6114 32.569 18.3122 32.24 18.9195C31.864 19.5268 31.488 20.0874 31.0181 20.6012H29.1382Z" fill="white"/>
<path fill-rule="evenodd" clip-rule="evenodd" d="M60.3442 17.4248C60.3442 18.8262 60.7672 19.8072 61.5662 20.3678C62.4121 20.9751 63.869 21.2554 65.8899 21.2554C67.0178 21.2554 67.9578 21.162 68.6157 20.9284C69.3207 20.7415 69.8377 20.3678 70.2606 19.854C70.6366 19.3401 70.9656 18.6394 71.1066 17.7518C71.2476 16.8642 71.3416 15.6963 71.3416 14.2481H61.8951V10.7445H71.4356C71.4356 9.29632 71.3886 8.08173 71.2006 7.19414C71.0596 6.35326 70.7776 5.65254 70.4016 5.13867C70.0257 4.6248 69.4617 4.25108 68.7567 4.01751C68.0518 3.78393 67.1118 3.6905 65.9369 3.6905C64.48 3.6905 63.3991 3.83065 62.6471 4.11094C61.8952 4.39123 61.3312 4.85838 61.0492 5.51239C60.7202 6.1664 60.4852 7.14742 60.3442 8.40873H55.8795C56.0675 6.35327 56.4905 4.76495 57.0544 3.55035C57.6654 2.38247 58.6053 1.49489 60.0153 0.887589C61.4252 0.280291 63.3991 0 66.0309 0C68.5687 0 70.5896 0.373722 72.0465 1.12116C73.5034 1.86861 74.5374 3.0832 75.1483 4.81166C75.7593 6.49341 76.0883 8.82917 76.0883 11.8657C76.0883 14.6686 75.9473 16.9109 75.6653 18.4992C75.3833 20.1342 74.9134 21.4423 74.2084 22.3299C73.5034 23.2642 72.5165 23.9182 71.2476 24.2919C69.9787 24.6656 68.2398 24.8525 66.0309 24.8525C63.4931 24.8525 61.5192 24.5722 60.0153 24.0583C58.5114 23.5912 57.3834 22.797 56.7255 21.7693C56.0675 20.7415 55.7385 19.4335 55.7385 17.8452V16.6773H60.2972V17.4248H60.3442Z" fill="white"/>
<path fill-rule="evenodd" clip-rule="evenodd" d="M91.3153 17.8917H88.2605C87.1326 17.8917 86.2866 17.7049 85.6287 17.3312C84.9707 16.9574 84.5007 16.3501 84.1718 15.5093C83.8428 14.6684 83.7018 13.5939 83.7018 12.2392C83.7018 10.8845 83.8428 9.7633 84.1718 8.92242C84.5007 8.08155 84.9707 7.47425 85.6287 7.05382C86.2866 6.68009 87.1796 6.44652 88.2605 6.44652H91.3623V17.8917H91.3153ZM91.3153 24.572H95.968V21.8625H98.9289C101.091 21.8625 102.877 21.5355 104.24 20.8348C105.602 20.1808 106.636 19.153 107.294 17.7049C107.952 16.3034 108.281 14.4348 108.281 12.2392C108.281 10.5575 108.093 9.10928 107.717 7.84797C107.341 6.63338 106.824 5.65236 106.025 4.8582C105.273 4.06404 104.287 3.45675 103.159 3.08302C101.984 2.7093 100.574 2.47573 98.9289 2.47573H95.968V0.233398H91.3153V2.52244H88.6365C86.9916 2.52244 85.5347 2.7093 84.3597 3.08302C83.1378 3.45675 82.1509 4.01733 81.3519 4.81149C80.553 5.60564 79.989 6.58666 79.566 7.84797C79.1901 9.06257 78.9551 10.5575 78.9551 12.2859C78.9551 14.5282 79.2841 16.3501 79.989 17.7516C80.647 19.1998 81.6809 20.2275 83.0438 20.8815C84.4067 21.5822 86.1926 21.9092 88.3545 21.9092H91.3153V24.572ZM99.0698 6.49323C100.198 6.49323 101.091 6.68009 101.749 7.10053C102.407 7.47425 102.877 8.12826 103.159 8.96914C103.441 9.7633 103.582 10.9312 103.582 12.2859C103.582 14.3414 103.253 15.7896 102.548 16.6304C101.89 17.518 100.715 17.9385 99.0698 17.9385H95.968V6.49323H99.0698Z" fill="white"/>
<path fill-rule="evenodd" clip-rule="evenodd" d="M116.224 7.70801C116.365 6.63356 116.647 5.8394 117.023 5.32553C117.399 4.76495 117.916 4.43794 118.621 4.25108C119.326 4.11094 120.313 4.01751 121.675 4.01751C122.991 4.01751 124.025 4.06422 124.73 4.25108C125.435 4.39123 125.952 4.76495 126.375 5.32553C126.751 5.8394 127.033 6.68027 127.174 7.80144C127.315 8.9226 127.409 10.4642 127.409 12.473C127.409 14.4817 127.362 16.0233 127.174 17.051C127.033 18.1255 126.798 18.9197 126.375 19.5269C125.999 20.0875 125.435 20.4613 124.73 20.6481C124.025 20.835 122.991 20.9284 121.675 20.9284C120.36 20.9284 119.373 20.835 118.621 20.6481C117.916 20.4613 117.352 20.0875 116.976 19.5269C116.6 18.9664 116.318 18.1722 116.177 17.051C116.036 15.9766 115.989 14.435 115.989 12.4262C116.036 10.3708 116.083 8.78246 116.224 7.70801ZM111.665 18.6394C111.947 20.2744 112.464 21.5824 113.169 22.47C113.921 23.3576 114.955 24.0116 116.271 24.3853C117.587 24.7123 119.42 24.8992 121.675 24.8992C123.837 24.8992 125.576 24.7123 126.892 24.3386C128.208 23.9649 129.242 23.3109 130.041 22.4233C130.84 21.5357 131.357 20.2277 131.686 18.5459C132.015 16.8642 132.156 14.6686 132.156 11.9124C132.156 9.5299 132.015 7.56786 131.686 6.07297C131.357 4.53137 130.793 3.36349 130.041 2.4759C129.289 1.58832 128.208 0.934304 126.892 0.607297C125.576 0.186861 123.837 0 121.722 0C119.561 0 117.822 0.186861 116.506 0.607297C115.19 0.981019 114.109 1.63503 113.357 2.4759C112.558 3.36349 112.041 4.53137 111.712 6.02626C111.383 7.56786 111.242 9.48318 111.242 11.9124C111.242 14.762 111.383 17.0043 111.665 18.6394Z" fill="white"/>
<path fill-rule="evenodd" clip-rule="evenodd" d="M142.542 0.233398V7.24068H143.294V0.887411L145.973 7.24068H146.678L149.31 0.793981V7.24068H150.109V0.233398H148.793L146.302 6.25966L143.811 0.233398H142.542Z" fill="white"/>
<path fill-rule="evenodd" clip-rule="evenodd" d="M152.271 0.934126H156.03V0.233398H151.519V7.24068H156.03V6.53995H152.271V4.01733H155.842V3.3166H152.271V0.934126Z" fill="white"/>
<path fill-rule="evenodd" clip-rule="evenodd" d="M160.119 3.9239C160.495 3.9239 160.777 3.97061 161.012 4.01733C161.2 4.11076 161.388 4.20419 161.435 4.39105C161.529 4.57791 161.576 4.8582 161.576 5.23192C161.576 5.55893 161.529 5.79251 161.482 5.97937C161.388 6.16623 161.294 6.30637 161.106 6.3998C160.918 6.49323 160.636 6.53995 160.26 6.53995H157.91V3.9239H160.119ZM161.764 0.934126V0.233398H157.111V7.24068H160.26C160.777 7.24068 161.153 7.19396 161.482 7.05382C161.764 6.91367 161.999 6.72681 162.14 6.3998C162.281 6.11951 162.328 5.69908 162.328 5.23192C162.328 4.71806 162.281 4.34434 162.14 4.06404C161.999 3.78375 161.764 3.55018 161.482 3.41003C161.2 3.26989 160.777 3.22317 160.26 3.22317H157.91V0.934126H161.764Z" fill="white"/>
<path fill-rule="evenodd" clip-rule="evenodd" d="M164.302 0.934126H168.062V0.233398H163.503V7.24068H168.015V6.53995H164.302V4.01733H167.874V3.3166H164.302V0.934126Z" fill="white"/>
<path fill-rule="evenodd" clip-rule="evenodd" d="M174.641 0.233398H169.66V5.27864C169.66 5.65236 169.613 5.93265 169.566 6.0728C169.519 6.25966 169.425 6.3998 169.284 6.44652C169.143 6.49323 169.002 6.53995 168.767 6.53995H168.579V7.24068H169.096C169.566 7.24068 169.895 7.05382 170.13 6.72681C170.318 6.3998 170.412 5.88594 170.412 5.18521V0.934126H173.795V7.24068H174.594V0.233398H174.641Z" fill="white"/>
<path fill-rule="evenodd" clip-rule="evenodd" d="M179.059 3.9239C179.435 3.9239 179.717 3.97061 179.952 4.06404C180.14 4.15747 180.281 4.29762 180.375 4.48448C180.469 4.67134 180.516 4.95163 180.516 5.27864C180.516 5.60565 180.469 5.83922 180.422 6.02608C180.328 6.21294 180.234 6.35309 179.999 6.44652C179.811 6.53995 179.529 6.58667 179.153 6.58667H176.85V3.9239H179.059ZM176.051 7.24068H179.2C179.717 7.24068 180.093 7.19396 180.422 7.05382C180.704 6.91367 180.939 6.72681 181.08 6.3998C181.221 6.11951 181.268 5.69908 181.268 5.23192C181.268 4.76477 181.174 4.34434 181.033 4.06404C180.892 3.78375 180.657 3.55018 180.328 3.41003C179.999 3.26989 179.576 3.22317 179.059 3.22317H176.756V0.233398H175.957V7.24068H176.051Z" fill="white"/>
<path fill-rule="evenodd" clip-rule="evenodd" d="M147.242 17.7519H143.388C143.482 17.565 143.576 17.3781 143.67 17.1913C143.764 17.0044 143.811 16.8176 143.858 16.584C143.905 16.3971 143.952 16.1635 143.952 15.8833C143.999 15.603 143.999 15.3227 143.999 14.949V12.146H147.242V17.7519ZM142.072 17.7519V20.0409H142.777V18.4526H147.806V20.0409H148.511V17.7519H148.041V11.4453H143.247V15.0424C143.247 15.4161 143.247 15.7431 143.2 16.0701C143.153 16.3971 143.059 16.6774 142.965 16.9577C142.871 17.238 142.73 17.5183 142.542 17.7519H142.072Z" fill="white"/>
<path fill-rule="evenodd" clip-rule="evenodd" d="M154.949 11.4453H149.968V16.4906C149.968 16.8643 149.921 17.1446 149.874 17.2847C149.827 17.4716 149.733 17.6117 149.592 17.6584C149.451 17.7051 149.31 17.7519 149.075 17.7519H148.887V18.4526H149.404C149.874 18.4526 150.203 18.2657 150.438 17.9387C150.626 17.6117 150.72 17.0979 150.72 16.3971V12.146H154.104V18.4526H154.902V11.4453H154.949Z" fill="white"/>
<path fill-rule="evenodd" clip-rule="evenodd" d="M158.615 14.9957C158.051 14.9957 157.675 14.9022 157.346 14.6687C157.064 14.4351 156.923 14.1081 156.923 13.6876C156.923 13.1738 157.017 12.8001 157.205 12.5198C157.393 12.2862 157.722 12.146 158.239 12.146H160.73V14.9957H158.615ZM160.73 18.4526H161.529V11.4453H158.38C157.628 11.4453 157.064 11.5855 156.688 11.9125C156.312 12.2395 156.124 12.7533 156.124 13.4541C156.124 14.0614 156.265 14.5285 156.547 14.8555C156.829 15.2292 157.205 15.4161 157.675 15.5095L156.03 18.4059H156.97L158.521 15.603H160.683V18.4526H160.73Z" fill="white"/>
<path fill-rule="evenodd" clip-rule="evenodd" d="M165.712 16.4904C165.759 16.8641 165.853 17.1444 165.994 17.3313C166.135 17.5181 166.37 17.6583 166.652 17.7517C166.934 17.8451 167.31 17.8451 167.827 17.8451C168.344 17.8451 168.72 17.7984 169.002 17.7517C169.284 17.6583 169.472 17.5648 169.613 17.3313C169.754 17.1444 169.848 16.8641 169.895 16.4904C169.942 16.1167 169.989 15.6028 169.989 14.9488C169.989 14.2948 169.942 13.7342 169.895 13.4072C169.848 13.0335 169.754 12.7532 169.613 12.5663C169.472 12.3795 169.237 12.2393 169.002 12.1459C168.72 12.0524 168.344 12.0524 167.827 12.0524C167.31 12.0524 166.934 12.0992 166.652 12.1459C166.37 12.1926 166.182 12.3327 166.041 12.5663C165.9 12.7532 165.806 13.0335 165.759 13.4072C165.712 13.7809 165.665 14.2948 165.665 14.9488C165.618 15.6028 165.665 16.1167 165.712 16.4904ZM164.96 13.1269C165.054 12.6597 165.195 12.3327 165.43 12.0524C165.665 11.8189 165.947 11.632 166.323 11.5386C166.699 11.4452 167.169 11.3984 167.827 11.3984C168.438 11.3984 168.955 11.4452 169.331 11.5386C169.707 11.632 169.989 11.8189 170.224 12.0524C170.459 12.286 170.6 12.6597 170.694 13.1269C170.787 13.5941 170.834 14.2013 170.834 14.9488C170.834 15.6962 170.787 16.3035 170.694 16.7707C170.6 17.2378 170.459 17.5648 170.224 17.8451C169.989 18.0787 169.707 18.2656 169.331 18.359C168.955 18.4524 168.438 18.4991 167.827 18.4991C167.216 18.4991 166.699 18.4524 166.323 18.359C165.947 18.2656 165.665 18.0787 165.43 17.8451C165.195 17.6116 165.054 17.2378 164.96 16.7707C164.866 16.3035 164.819 15.6962 164.819 14.9488C164.866 14.2013 164.913 13.5941 164.96 13.1269Z" fill="white"/>
<path fill-rule="evenodd" clip-rule="evenodd" d="M173.983 12.9404C173.56 12.9404 173.231 12.9871 172.996 13.1272C172.761 13.2674 172.573 13.4542 172.479 13.7345C172.386 14.0148 172.339 14.3885 172.339 14.809C172.339 15.2761 172.386 15.6031 172.479 15.8834C172.573 16.1637 172.761 16.3506 172.996 16.4907C173.231 16.6309 173.56 16.6776 173.983 16.6776H174.782V12.8936H173.983V12.9404ZM175.628 16.771H176.427C177.038 16.771 177.461 16.6309 177.696 16.3039C177.931 16.0236 178.072 15.5097 178.072 14.8557C178.072 14.2017 177.931 13.6878 177.696 13.4075C177.461 13.1272 176.991 12.9404 176.427 12.9404H175.628V16.771ZM175.628 12.2863H176.521C177.085 12.2863 177.508 12.3798 177.837 12.5199C178.166 12.7068 178.448 12.9404 178.636 13.3608C178.824 13.7345 178.918 14.2484 178.918 14.8557C178.918 15.463 178.824 15.9768 178.636 16.3506C178.448 16.7243 178.213 17.0046 177.837 17.1447C177.508 17.3316 177.038 17.3783 176.521 17.3783H175.628V18.406H174.829V17.3783H173.936C173.372 17.3783 172.949 17.2849 172.573 17.1447C172.245 16.9579 171.963 16.7243 171.775 16.3506C171.587 15.9768 171.493 15.463 171.493 14.8557C171.493 14.2484 171.587 13.7345 171.775 13.3608C171.963 12.9871 172.198 12.7068 172.573 12.5666C172.902 12.3798 173.372 12.3331 173.936 12.3331H174.829V11.4922H175.628V12.2863Z" fill="white"/>
<path fill-rule="evenodd" clip-rule="evenodd" d="M179.952 18.4526H181.221L185.216 12.0526V18.4526H186.015V11.4453H184.746L180.751 17.9387V11.4453H179.952V18.4526Z" fill="white"/>
<path fill-rule="evenodd" clip-rule="evenodd" d="M191.842 17.0043C191.795 17.2378 191.701 17.378 191.513 17.5181C191.372 17.6583 191.184 17.7517 190.902 17.7984C190.62 17.8451 190.291 17.8918 189.868 17.8918C189.445 17.8918 189.116 17.8451 188.834 17.7984C188.599 17.705 188.365 17.5648 188.224 17.378C188.083 17.1911 187.989 16.9108 187.895 16.5371C187.848 16.1634 187.801 15.6962 187.801 15.0422C187.801 14.3882 187.848 13.9211 187.895 13.5473C187.942 13.1736 188.083 12.8933 188.224 12.6597C188.365 12.4729 188.552 12.3327 188.834 12.2393C189.116 12.1459 189.445 12.0992 189.821 12.0992C190.385 12.0992 190.761 12.1459 191.043 12.2393C191.278 12.3327 191.466 12.4729 191.56 12.7065C191.654 12.94 191.701 13.267 191.748 13.7342H192.5C192.453 13.3138 192.406 12.94 192.359 12.6597C192.265 12.3795 192.171 12.1459 191.983 11.959C191.795 11.7722 191.513 11.632 191.184 11.5386C190.855 11.4452 190.385 11.3984 189.821 11.3984C189.257 11.3984 188.787 11.4452 188.458 11.5386C188.13 11.632 187.848 11.8189 187.613 12.0992C187.378 12.3795 187.237 12.7065 187.143 13.1736C187.049 13.6408 187.002 14.2481 187.002 14.9955C187.002 15.7429 187.049 16.3502 187.143 16.8174C187.237 17.2846 187.378 17.6583 187.613 17.8918C187.848 18.1254 188.13 18.3123 188.458 18.4057C188.787 18.4991 189.257 18.5459 189.821 18.5459C190.573 18.5459 191.137 18.4524 191.513 18.3123C191.889 18.1721 192.171 17.9386 192.359 17.5648C192.5 17.2378 192.594 16.724 192.594 16.1167H191.842C191.936 16.4904 191.889 16.7707 191.842 17.0043Z" fill="white"/>
<path fill-rule="evenodd" clip-rule="evenodd" d="M194.756 16.3504L196.307 12.0526L197.858 16.3504H194.756ZM194.004 18.4526L194.568 17.0044H198.14L198.657 18.4526H199.503L196.871 11.4453H195.743L193.158 18.4526H194.004Z" fill="white"/>
<path fill-rule="evenodd" clip-rule="evenodd" d="M142.448 29.664H143.67L147.712 23.264V29.664H148.464V22.6567H147.242L143.2 29.1501V22.6567H142.448V29.664Z" fill="white"/>
<path fill-rule="evenodd" clip-rule="evenodd" d="M156.876 28.9633H153.023C153.117 28.7764 153.211 28.5896 153.305 28.4027C153.399 28.2158 153.446 28.029 153.493 27.7954C153.54 27.6085 153.587 27.375 153.587 27.0947C153.634 26.8144 153.634 26.5341 153.634 26.1604V23.3575H156.876V28.9633ZM151.707 28.9633V31.2523H152.412V29.664H157.44V31.2523H158.145V28.9633H157.628V22.6567H152.835V26.2538C152.835 26.6275 152.835 26.9545 152.788 27.2815C152.741 27.6085 152.647 27.8888 152.553 28.1691C152.459 28.4494 152.318 28.7297 152.13 28.9633H151.707Z" fill="white"/>
<path fill-rule="evenodd" clip-rule="evenodd" d="M159.649 27.7018C159.696 28.0755 159.79 28.3558 159.931 28.5427C160.072 28.7295 160.307 28.8697 160.589 28.9631C160.871 29.0566 161.247 29.0566 161.764 29.0566C162.281 29.0566 162.657 29.0098 162.939 28.9631C163.221 28.8697 163.409 28.7763 163.55 28.5427C163.691 28.3558 163.785 28.0755 163.832 27.7018C163.879 27.3281 163.926 26.8142 163.926 26.1602C163.926 25.5062 163.879 24.9456 163.832 24.6186C163.785 24.2449 163.691 23.9646 163.55 23.7777C163.409 23.5909 163.174 23.4507 162.939 23.3573C162.657 23.2639 162.281 23.2639 161.764 23.2639C161.247 23.2639 160.871 23.3106 160.589 23.3573C160.307 23.404 160.119 23.5442 159.978 23.7777C159.837 23.9646 159.743 24.2449 159.696 24.6186C159.649 24.9923 159.602 25.5062 159.602 26.1602C159.602 26.8142 159.602 27.3281 159.649 27.7018ZM158.944 24.3383C159.038 23.8712 159.179 23.5442 159.414 23.2639C159.649 23.0303 159.931 22.8434 160.307 22.75C160.683 22.6566 161.153 22.6099 161.811 22.6099C162.422 22.6099 162.939 22.6566 163.315 22.75C163.691 22.8434 163.973 23.0303 164.208 23.2639C164.443 23.4975 164.584 23.8712 164.678 24.3383C164.772 24.8055 164.819 25.4128 164.819 26.1602C164.819 26.9077 164.772 27.515 164.678 27.9821C164.584 28.4493 164.443 28.7763 164.208 29.0566C163.973 29.2901 163.691 29.477 163.315 29.5704C162.939 29.6639 162.422 29.7106 161.811 29.7106C161.2 29.7106 160.683 29.6639 160.307 29.5704C159.931 29.477 159.649 29.2901 159.414 29.0566C159.179 28.823 159.038 28.4493 158.944 27.9821C158.85 27.515 158.803 26.9077 158.803 26.1602C158.803 25.4128 158.85 24.8055 158.944 24.3383Z" fill="white"/>
<path fill-rule="evenodd" clip-rule="evenodd" d="M165.806 22.6567V29.664H166.605V23.3108L169.284 29.664H169.942L172.62 23.2173V29.664H173.372V22.6567H172.103L169.613 28.683L167.122 22.6567H165.806Z" fill="white"/>
<path fill-rule="evenodd" clip-rule="evenodd" d="M175.957 27.5618L177.508 23.264L179.059 27.5618H175.957ZM175.205 29.664L175.769 28.2158H179.341L179.858 29.664H180.704L178.072 22.6567H176.944L174.359 29.664H175.205Z" fill="white"/>
<path d="M137.796 0.140137H136.856V30.1313H137.796V0.140137Z" fill="white"/>
<path fill-rule="evenodd" clip-rule="evenodd" d="M23.6866 1.07444V23.6846H0.939942V1.07444H23.6866ZM24.6265 0.140137H23.6866H0.939942H0V1.07444V23.6846V24.6189H0.939942H23.6866H24.6265V23.6846V1.07444V0.140137Z" fill="white"/>
<path fill-rule="evenodd" clip-rule="evenodd" d="M16.073 15.0421C16.073 14.9019 16.12 14.8552 16.167 14.8085C16.214 14.7618 16.261 14.715 16.308 14.6683C16.355 14.6216 16.402 14.6216 16.402 14.6216L16.9659 14.388C17.0129 14.388 17.0129 14.3413 17.0129 14.3413V14.2946L16.9189 14.1078L16.872 14.061H16.825L16.308 14.2946C16.214 14.3413 16.12 14.388 16.026 14.4815C15.932 14.5749 15.885 14.6683 15.885 14.715C15.838 14.8085 15.838 14.8552 15.838 14.9486C15.838 15.0421 15.838 15.1355 15.838 15.2289C15.838 15.3223 15.838 15.4158 15.838 15.5092C15.838 15.6026 15.885 15.6961 15.932 15.7895C15.979 15.8829 16.026 15.9764 16.12 16.0231C16.167 16.0698 16.261 16.1165 16.308 16.1165C16.355 16.1165 16.402 16.1165 16.449 16.1165C16.543 16.1165 16.637 16.1165 16.731 16.0231C16.825 15.9764 16.8719 15.8829 16.9659 15.7895C17.0129 15.6961 17.0599 15.5559 17.0599 15.4158C17.0599 15.1822 17.0129 15.0421 16.9189 14.9019C16.825 14.7618 16.684 14.715 16.543 14.715C16.449 14.715 16.355 14.715 16.308 14.7618C16.167 14.9486 16.12 14.9953 16.073 15.0421ZM16.402 15.9296C16.308 15.9296 16.261 15.8829 16.261 15.8362C16.214 15.7895 16.214 15.7428 16.214 15.6494C16.214 15.6026 16.214 15.5092 16.214 15.4625C16.214 15.4158 16.214 15.3223 16.214 15.2756C16.214 15.2289 16.261 15.1355 16.261 15.1355C16.308 15.0888 16.355 15.0888 16.402 15.0888C16.449 15.0888 16.543 15.1355 16.543 15.1355C16.59 15.1822 16.59 15.2289 16.59 15.2756C16.59 15.3223 16.59 15.4158 16.59 15.4625C16.59 15.5092 16.59 15.6026 16.59 15.6494C16.59 15.6961 16.543 15.7895 16.543 15.7895C16.543 15.9296 16.496 15.9296 16.402 15.9296Z" fill="white"/>
<path fill-rule="evenodd" clip-rule="evenodd" d="M13.0182 16.1637C13.0652 16.1637 13.0652 16.1637 13.0652 16.1169L13.1122 15.2294C13.1122 15.2761 13.1592 15.3228 13.1592 15.3695C13.1592 15.4162 13.2062 15.4629 13.2062 15.5096L13.3472 15.9301C13.3472 15.9301 13.3472 15.9768 13.3942 15.9768C13.3942 15.9768 13.3942 15.9768 13.4412 15.9768H13.5822C13.5822 15.9768 13.5822 15.9768 13.6292 15.9768C13.6292 15.9768 13.6292 15.9768 13.6761 15.9301L13.8171 15.5096C13.8171 15.4629 13.8641 15.4162 13.8641 15.3695C13.8641 15.3228 13.9111 15.2761 13.9111 15.2294V16.1169V16.1637C13.9111 16.1637 13.9111 16.1637 13.9581 16.1637H14.1461C14.1931 16.1637 14.1931 16.1637 14.1931 16.1637C14.1931 16.1637 14.1931 16.1637 14.1931 16.1169L14.0991 14.8556V14.8089C14.0991 14.8089 14.0991 14.8089 14.0521 14.8089H13.8171C13.8171 14.8089 13.8171 14.8089 13.7701 14.8089C13.7701 14.8089 13.7701 14.8089 13.7231 14.8556L13.5352 15.4162C13.5352 15.4629 13.4882 15.5096 13.4882 15.5564C13.4882 15.6031 13.4412 15.6498 13.4412 15.6965C13.4412 15.6498 13.4412 15.6031 13.3942 15.5564C13.3942 15.5096 13.3472 15.4629 13.3472 15.4162L13.1592 14.8089C13.1592 14.8089 13.1592 14.7622 13.1122 14.7622C13.1122 14.7622 13.1122 14.7622 13.0652 14.7622H12.8302C12.8302 14.7622 12.8302 14.7622 12.7832 14.7622C12.7832 14.7622 12.7832 14.7622 12.7832 14.8089L12.6892 16.0702C12.6892 16.0702 12.6892 16.0702 12.6892 16.1169C12.6892 16.1169 12.6892 16.1169 12.7362 16.1169L13.0182 16.1637Z" fill="white"/>
<path fill-rule="evenodd" clip-rule="evenodd" d="M15.509 15.5564C15.509 15.6031 15.556 15.5564 15.509 15.5564C15.556 15.5564 15.556 15.5096 15.556 15.4629C15.556 15.4162 15.556 15.3695 15.556 15.3228C15.556 15.2761 15.556 15.2294 15.509 15.1826C15.509 15.0892 15.462 15.0425 15.415 14.9958C15.368 14.9491 15.321 14.8556 15.2741 14.8089C15.1801 14.7622 15.1331 14.7622 14.9921 14.7622C14.8041 14.7622 14.6631 14.8556 14.5221 14.9958C14.4281 15.1359 14.3811 15.3228 14.3811 15.5564C14.3811 15.6031 14.3811 15.6498 14.3811 15.7432C14.3811 15.8367 14.4281 15.8834 14.4751 15.9768C14.5221 16.0702 14.5691 16.1169 14.6631 16.1637C14.7571 16.2104 14.8511 16.2571 14.9921 16.2571C15.0861 16.2571 15.1331 16.2571 15.2271 16.2104C15.321 16.2104 15.368 16.1637 15.415 16.1169C15.415 16.1169 15.415 16.1169 15.462 16.0702C15.462 16.0702 15.462 16.0702 15.462 16.0235L15.415 15.8834C15.415 15.8834 15.415 15.8834 15.368 15.8834H15.321C15.274 15.8834 15.2741 15.9301 15.2271 15.9301C15.1801 15.9301 15.1331 15.9301 15.0391 15.9301C14.9451 15.9301 14.8511 15.8834 14.8041 15.8367C14.7571 15.7899 14.7571 15.6965 14.7571 15.6031L15.509 15.5564ZM14.7571 15.3228C14.7571 15.2294 14.8041 15.1359 14.8041 15.0892C14.8511 15.0425 14.8981 14.9958 14.9921 14.9958C15.0391 14.9958 15.0861 14.9958 15.1331 15.0425C15.1801 15.0892 15.1801 15.0892 15.1801 15.1826V15.2294C15.1801 15.2294 15.1801 15.2761 15.1801 15.3228H14.7571Z" fill="white"/>
<path fill-rule="evenodd" clip-rule="evenodd" d="M18.3289 15.6032C18.3759 15.6032 18.3759 15.5565 18.3759 15.5098C18.3759 15.4631 18.3759 15.4164 18.3759 15.3697C18.3759 15.3229 18.3759 15.2762 18.3289 15.2295C18.3289 15.1361 18.2819 15.0894 18.2349 15.0427C18.1879 14.9959 18.1409 14.9025 18.0939 14.8558C18.0469 14.8091 17.9529 14.8091 17.8119 14.8091C17.6239 14.8091 17.4829 14.9025 17.3889 15.0427C17.2949 15.1828 17.2479 15.3697 17.2479 15.6032C17.2479 15.65 17.2479 15.6967 17.2479 15.7901C17.2479 15.8835 17.2949 15.9302 17.3419 16.0237C17.3889 16.1171 17.4359 16.1638 17.5299 16.2105C17.6239 16.2573 17.7179 16.304 17.8589 16.304C17.9529 16.304 17.9999 16.304 18.0939 16.2573C18.1879 16.2573 18.2349 16.2105 18.2819 16.1638C18.2819 16.1638 18.2819 16.1638 18.3289 16.1171C18.3289 16.1171 18.3289 16.1171 18.3289 16.0704L18.2349 15.8835C18.2349 15.8835 18.2349 15.8835 18.1879 15.8835H18.1409C18.0939 15.8835 18.0939 15.9302 18.0469 15.9302C17.9999 15.9302 17.9529 15.9302 17.8589 15.9302C17.7649 15.9302 17.6709 15.8835 17.6239 15.8368C17.5769 15.7901 17.5769 15.6967 17.5769 15.6032H18.3289ZM17.5769 15.3229C17.5769 15.2295 17.6239 15.1361 17.6239 15.0894C17.6709 15.0427 17.7179 14.9959 17.8119 14.9959C17.8589 14.9959 17.9059 14.9959 17.9529 15.0427C17.9999 15.0894 17.9999 15.0894 17.9999 15.1828V15.2295C17.9999 15.2295 17.9999 15.2762 17.9999 15.3229H17.5769Z" fill="white"/>
<path fill-rule="evenodd" clip-rule="evenodd" d="M19.4098 15.0894V16.1171V16.1638C19.4098 16.1638 19.4098 16.1638 19.4568 16.1638H19.7388H19.7858C19.7858 16.1638 19.7858 16.1638 19.7858 16.1171V14.8558V14.8091C19.7858 14.8091 19.7858 14.8091 19.7388 14.8091H18.8928H18.8458C18.8458 14.8091 18.8458 14.8091 18.8458 14.8558V14.9959C18.8458 15.0427 18.8458 15.1361 18.8458 15.2295C18.8458 15.3229 18.8458 15.4164 18.8458 15.5098C18.8458 15.6032 18.8458 15.6967 18.8458 15.7434C18.8458 15.7901 18.7988 15.8835 18.7988 15.8835C18.7518 15.9302 18.7518 15.9302 18.7048 15.9302H18.6578C18.6578 15.9302 18.6578 15.9302 18.6108 15.9302C18.6108 15.9302 18.6108 15.9302 18.6108 15.977L18.6578 16.1638C18.6578 16.1638 18.6578 16.1638 18.6578 16.2105C18.6578 16.2105 18.6578 16.2105 18.7048 16.2105C18.7518 16.2105 18.7518 16.2105 18.7988 16.2105C18.8458 16.2105 18.8928 16.1638 18.9868 16.1171C19.0338 16.0704 19.0808 16.0237 19.1278 15.9302C19.1748 15.8368 19.1748 15.7901 19.1748 15.65C19.1748 15.5565 19.2218 15.4631 19.2218 15.3697C19.2218 15.2762 19.2218 15.1828 19.2218 15.1361V15.0894H19.4098Z" fill="white"/>
<path fill-rule="evenodd" clip-rule="evenodd" d="M20.5847 16.1637C20.6787 16.1637 20.7257 16.1637 20.8197 16.1637C20.9137 16.1637 20.9607 16.1169 21.0547 16.0702C21.1017 16.0235 21.1487 15.9768 21.1957 15.8834C21.1957 15.8367 21.2427 15.7432 21.2427 15.6965C21.2427 15.6498 21.2427 15.6031 21.1957 15.5097C21.1957 15.4629 21.1487 15.4162 21.1017 15.3695C21.0547 15.3228 20.9607 15.2761 20.9137 15.2761C20.8197 15.2761 20.7727 15.2761 20.6787 15.2761H20.5377V14.8089V14.7622C20.5377 14.7622 20.5377 14.7622 20.4907 14.7622L20.2087 14.8556C20.1617 14.8556 20.1147 14.8556 20.1147 14.8556C20.1147 14.8556 20.1147 14.8556 20.1147 14.9024V16.1637V16.2104C20.1147 16.2104 20.1147 16.2104 20.1617 16.2104L20.5847 16.1637ZM20.4907 15.5564H20.6787C20.6787 15.5564 20.7257 15.5564 20.7727 15.5564C20.8197 15.5564 20.8197 15.5564 20.8667 15.6031C20.9137 15.6031 20.9137 15.6498 20.9137 15.6965C20.9137 15.7899 20.8667 15.8367 20.8197 15.8367C20.7727 15.8367 20.7257 15.8834 20.6787 15.8367H20.5377L20.4907 15.5564Z" fill="white"/>
<path fill-rule="evenodd" clip-rule="evenodd" d="M5.59265 13.6406L5.92163 14.5749H4.51172C5.02869 15.883 7.94251 15.4625 9.54041 15.5092C7.75452 15.2757 7.37854 14.0143 7.19055 13.6406H5.59265Z" fill="white"/>
<path fill-rule="evenodd" clip-rule="evenodd" d="M8.88245 9.20298H9.02344C9.11743 9.20298 9.11743 9.2497 9.11743 9.34313C9.11743 9.38984 9.11743 9.43656 9.11743 9.48327H9.25842C9.21143 9.48327 9.21143 9.43656 9.21143 9.34313C9.21143 9.2497 9.16443 9.20298 9.11743 9.20298C9.16443 9.20298 9.21143 9.10955 9.21143 9.06284C9.21143 9.01612 9.16443 8.87598 9.02344 8.87598H8.69446V9.48327H8.83545L8.88245 9.20298ZM8.88245 8.92269H9.02344C9.11743 8.92269 9.11743 8.96941 9.11743 9.01612C9.11743 9.06284 9.07043 9.10955 9.02344 9.10955H8.88245V8.92269Z" fill="white"/>
<path fill-rule="evenodd" clip-rule="evenodd" d="M8.45947 9.10958C8.45947 8.96943 8.50647 8.82929 8.60046 8.73586C8.69446 8.64243 8.83545 8.59571 8.97644 8.59571C9.11743 8.59571 9.25842 8.64243 9.35242 8.73586C9.44641 8.82929 9.49341 8.96943 9.49341 9.10958C9.49341 9.38987 9.25842 9.62345 8.97644 9.62345C8.69446 9.62345 8.45947 9.38987 8.45947 9.10958ZM8.50647 8.64243C8.36548 8.78257 8.31848 8.92272 8.31848 9.10958C8.31848 9.4833 8.60046 9.76359 8.97644 9.76359C9.35242 9.76359 9.6344 9.4833 9.6344 9.10958C9.6344 8.92272 9.5874 8.78257 9.44641 8.64243C9.30542 8.50228 9.16443 8.45557 8.97644 8.45557C8.78845 8.45557 8.64746 8.549 8.50647 8.64243Z" fill="white"/>
<path fill-rule="evenodd" clip-rule="evenodd" d="M9.21143 13.2672H5.02869L5.31067 14.2015H4.32373L3.75977 12.3329H4.51172H4.74671L5.63965 9.53001H5.02869L4.74671 8.5957H5.96863H6.29761H6.57959H6.95557H7.28455L8.45948 12.3329H8.92945L9.21143 13.2672ZM5.68665 12.2862H7.42554L6.57959 9.62344L5.68665 12.2862Z" fill="white"/>
<path fill-rule="evenodd" clip-rule="evenodd" d="M16.167 9.95044C16.543 9.15628 17.3419 8.64242 18.2819 8.64242C19.5978 8.64242 20.6317 9.71687 20.6317 10.9782C20.6317 12.2862 19.5508 13.3139 18.2819 13.3139C17.1539 13.3139 16.214 12.5198 15.979 11.4453C15.65 11.9592 15.0861 12.3329 14.3811 12.3329H14.3341H14.0051V13.3139H13.0652V12.3329H12.7362H12.6892C12.5012 12.3329 12.3132 12.2862 12.1252 12.2395C12.1722 12.4263 12.2192 12.6132 12.1722 12.8001C12.1722 14.1081 11.0913 15.1358 9.82239 15.1358C8.83545 15.1358 7.9895 14.5285 7.66052 13.6877H8.74146C8.97644 14.0147 9.39942 14.2015 9.82239 14.2015C10.4334 14.2015 10.9503 13.8278 11.1853 13.2672H9.6344L9.35242 12.3329H11.1853C10.9973 11.819 10.4803 11.3986 9.86939 11.3986C9.39942 11.3986 9.02344 11.5855 8.74146 11.9125L8.41248 10.9315C8.78845 10.6512 9.30542 10.4643 9.82239 10.4643C10.1984 10.4643 10.5273 10.5577 10.8093 10.6979C10.8093 10.6045 10.8093 10.5577 10.8093 10.4643C10.8093 10.1373 10.9033 9.8103 11.0443 9.53001H10.4803L10.1984 8.5957H12.6892H14.2871H14.4751C15.368 8.68913 15.979 9.203 16.167 9.95044ZM16.872 10.9782C16.872 11.7723 17.4829 12.3796 18.2819 12.3796C19.0808 12.3796 19.6918 11.7723 19.6918 10.9782C19.6918 10.184 19.0808 9.57672 18.2819 9.57672C17.5299 9.57672 16.872 10.184 16.872 10.9782ZM14.0521 9.53001V11.3986H14.3811C14.8981 11.3986 15.3211 10.9782 15.3211 10.4643C15.3211 9.95044 14.8981 9.53001 14.3811 9.53001H14.0521ZM13.1122 11.3986V9.53001H12.7832C12.2662 9.53001 11.8433 9.95044 11.8433 10.4643C11.8433 10.9782 12.2662 11.3986 12.7832 11.3986H13.1122Z" fill="white"/>
<path fill-rule="evenodd" clip-rule="evenodd" d="M2.25586 27.9353C2.06787 27.8419 1.83289 27.7952 1.5509 27.7952C1.22193 27.7952 0.986939 27.8419 0.751954 27.9353C0.563965 28.0288 0.375977 28.1222 0.281983 28.3091C0.187988 28.4959 0.0939942 28.6828 0.0469971 28.9164C0 29.1499 0 29.4302 0 29.7572C0 30.1309 0 30.4112 0.0469971 30.6448C0.0939942 30.8784 0.140991 31.112 0.234986 31.2988C0.32898 31.4857 0.469971 31.6258 0.704957 31.7193C0.892945 31.8127 1.17493 31.8594 1.50391 31.8594C1.78589 31.8594 2.02088 31.8127 2.20886 31.7193C2.39685 31.6258 2.53784 31.439 2.72583 31.2054V31.8127H3.61878V26.1602H2.67884V28.4025C2.58484 28.1689 2.44385 28.0288 2.25586 27.9353ZM2.63184 30.5981C2.58484 30.785 2.49085 30.9251 2.39685 31.0185C2.25586 31.112 2.06787 31.112 1.83289 31.112C1.5979 31.112 1.40991 31.0653 1.26892 30.9718C1.12793 30.8784 1.08093 30.7382 1.03394 30.5981C0.986939 30.458 0.939942 30.2711 0.939942 29.9908C0.939942 29.5704 0.939942 29.2901 0.986939 29.0565C1.03394 28.8696 1.08093 28.7295 1.22193 28.6361C1.36292 28.5426 1.5509 28.4959 1.78589 28.4959C2.02088 28.4959 2.25586 28.5426 2.34986 28.6361C2.49085 28.7295 2.53784 28.8696 2.58484 29.0098C2.63184 29.1966 2.63184 29.3835 2.63184 29.7105C2.67884 30.1309 2.67884 30.4112 2.63184 30.5981Z" fill="white"/>
<path fill-rule="evenodd" clip-rule="evenodd" d="M5.35767 29.4308C5.35767 29.1972 5.40466 29.0103 5.45166 28.8702C5.49866 28.73 5.59265 28.6366 5.68665 28.5899C5.82764 28.5432 5.96863 28.4965 6.20362 28.4965C6.4386 28.4965 6.57959 28.5432 6.72058 28.5899C6.86158 28.6366 6.95557 28.73 7.00257 28.8702C7.04956 29.0103 7.09656 29.1972 7.09656 29.4308H5.35767ZM7.04956 30.6454C7.04956 30.7855 7.00257 30.9256 6.95557 30.9724C6.90857 31.0658 6.81458 31.1125 6.67359 31.1592C6.5326 31.2059 6.3916 31.2059 6.15662 31.2059C5.92163 31.2059 5.78064 31.1592 5.63965 31.1125C5.49866 31.0658 5.45166 30.9256 5.40466 30.7855C5.35767 30.5986 5.31067 30.3651 5.31067 30.0381H7.98951V29.8045C7.98951 29.3373 7.94251 28.9636 7.80152 28.6833C7.70752 28.403 7.51954 28.1695 7.23755 28.076C7.00257 27.9359 6.62659 27.8892 6.20362 27.8892C5.78064 27.8892 5.40466 27.9359 5.16968 28.076C4.93469 28.2162 4.7467 28.403 4.60571 28.73C4.51172 29.0103 4.41772 29.4308 4.41772 29.9446C4.41772 30.4585 4.46472 30.8322 4.55872 31.1592C4.65271 31.4395 4.8407 31.6731 5.12268 31.8132C5.35767 31.9534 5.73364 32.0001 6.15662 32.0001C6.5326 32.0001 6.86158 31.9534 7.14356 31.9067C7.37854 31.8599 7.61353 31.7198 7.75452 31.5797C7.89551 31.3928 7.98951 31.1592 7.98951 30.8322V30.6921H7.04956V30.6454Z" fill="white"/>
<path fill-rule="evenodd" clip-rule="evenodd" d="M9.91639 27.8419V27.4215C9.91639 27.2813 9.91639 27.1879 9.96338 27.0945C9.96338 27.001 10.0574 26.9543 10.1044 26.9076C10.1984 26.8609 10.2924 26.8142 10.4334 26.8142C10.4804 26.8142 10.5273 26.8142 10.5743 26.8142C10.6683 26.8142 10.7623 26.8142 10.8563 26.8609V26.1602C10.8563 26.1602 10.8093 26.1602 10.7623 26.1602C10.7153 26.1602 10.7153 26.1602 10.6683 26.1602C10.2924 26.1602 10.0104 26.1602 9.77539 26.2536C9.54041 26.3003 9.30542 26.4404 9.16443 26.6273C9.07044 26.7207 9.02344 26.8609 9.02344 27.001C9.02344 27.1412 8.97644 27.328 8.97644 27.5149V27.9353H8.41248V28.6828H8.97644V31.9061H9.91639V28.6828H10.8563V27.9353H9.91639V27.8419Z" fill="white"/>
<path fill-rule="evenodd" clip-rule="evenodd" d="M12.3132 29.0105C12.3602 28.8236 12.4542 28.6835 12.5952 28.6368C12.7362 28.5901 12.8772 28.5433 13.1122 28.5433C13.3002 28.5433 13.4412 28.5433 13.5352 28.5901C13.6292 28.6368 13.7231 28.6835 13.8171 28.7769C13.8641 28.8703 13.9581 29.0105 13.9581 29.1506C14.0051 29.3375 14.0051 29.5244 14.0051 29.8047C14.0051 30.1784 13.9581 30.4587 13.9111 30.6455C13.8641 30.8324 13.7701 30.9725 13.6292 31.0192C13.4882 31.066 13.3472 31.1127 13.1122 31.1127C12.8772 31.1127 12.6892 31.066 12.5952 31.0192C12.4542 30.9725 12.3602 30.8324 12.3132 30.6455C12.2662 30.4587 12.2192 30.1784 12.2192 29.8047C12.2662 29.4776 12.2662 29.1974 12.3132 29.0105ZM11.3733 30.7857C11.4203 31.0192 11.5143 31.2528 11.6553 31.393C11.7963 31.5331 11.9843 31.6733 12.2192 31.72C12.4542 31.8134 12.7362 31.8134 13.1122 31.8134C13.4882 31.8134 13.7701 31.7667 14.0051 31.72C14.2401 31.6733 14.4281 31.5331 14.5691 31.393C14.7101 31.2528 14.8041 31.0192 14.8511 30.7857C14.8981 30.5521 14.9451 30.2251 14.9451 29.8047C14.9451 29.2908 14.8981 28.8703 14.7571 28.5901C14.6631 28.3098 14.4751 28.0762 14.1931 27.9828C13.9111 27.8426 13.5822 27.7959 13.0652 27.7959C12.5952 27.7959 12.2192 27.8426 11.9373 27.9828C11.7023 28.1229 11.5143 28.3098 11.3733 28.5901C11.2793 28.8703 11.2323 29.2908 11.2323 29.8047C11.3263 30.2251 11.3263 30.5521 11.3733 30.7857Z" fill="white"/>
<path d="M16.684 30.7856H15.744V31.8134H16.684V30.7856Z" fill="white"/>
<path fill-rule="evenodd" clip-rule="evenodd" d="M18.6108 28.7296C18.7518 28.5894 18.8928 28.496 19.1278 28.496C19.3628 28.496 19.5038 28.5427 19.5508 28.6361C19.5978 28.7296 19.6448 28.9164 19.6448 29.15V29.3368H20.4907V29.0566C20.4907 28.6361 20.3967 28.3091 20.2557 28.0755C20.1147 27.842 19.8328 27.7485 19.4098 27.7485C19.1748 27.7485 18.9868 27.7952 18.7988 27.8887C18.6108 27.9821 18.4698 28.1223 18.3759 28.3091L18.4229 27.7952H17.5299V31.7193H18.4698V29.1967C18.4229 29.0566 18.5168 28.8697 18.6108 28.7296Z" fill="white"/>
<path fill-rule="evenodd" clip-rule="evenodd" d="M22.7466 31.1592C22.5586 31.1592 22.3706 31.1125 22.2766 31.0658C22.1826 31.0191 22.0886 30.9256 22.0886 30.8322C22.0416 30.7388 22.0416 30.5519 22.0416 30.3183V27.8892H21.1017V30.5986C21.1017 30.9256 21.1487 31.1592 21.2427 31.3928C21.3367 31.5797 21.4777 31.7198 21.7126 31.8132C21.9006 31.9067 22.1826 31.9534 22.5116 31.9534C23.0756 31.9534 23.4515 31.7198 23.7335 31.2994H23.7805L23.7335 31.9067H24.6265V27.9826H23.6865V30.3651C23.6865 30.8322 23.3575 31.1592 22.7466 31.1592Z" fill="white"/>
</svg>
