<svg width="73" height="22" viewBox="0 0 73 22" fill="none" xmlns="http://www.w3.org/2000/svg">
<path fill-rule="evenodd" clip-rule="evenodd" d="M12.211 2.95247V14.4341H4.78539C5.18143 13.9749 5.47845 13.4172 5.70947 12.7611C5.94049 12.105 6.0725 11.3505 6.17151 10.4648C6.27052 9.57903 6.30352 8.52927 6.30352 7.3155V2.95247H12.211ZM0 14.4669V21.2247H3.10226V17.2881H13.9932V21.2247H17.0624V14.4669H15.5113V0.164062H3.10226V7.38111C3.10226 8.33245 3.06925 9.21817 3.00325 9.90707C2.97024 10.6288 2.83823 11.2849 2.70622 11.8097C2.60721 12.3674 2.4092 12.8595 2.17818 13.286C1.91416 13.7124 1.65014 14.1061 1.32011 14.4669H0Z" fill="white"/>
<path fill-rule="evenodd" clip-rule="evenodd" d="M22.2968 12.2362C22.2968 13.2203 22.5938 13.9092 23.1548 14.3029C23.7489 14.7293 24.772 14.9262 26.1911 14.9262C26.9832 14.9262 27.6432 14.8605 28.1053 14.6965C28.6003 14.5653 28.9633 14.3029 29.2603 13.942C29.5244 13.5812 29.7554 13.0891 29.8544 12.4658C29.9534 11.8425 30.0194 11.0224 30.0194 10.0054H23.3859V7.54509H30.0854C30.0854 6.52814 30.0524 5.67522 29.9204 5.05193C29.8214 4.46145 29.6234 3.96937 29.3594 3.60852C29.0953 3.24767 28.6993 2.98523 28.2043 2.82121C27.7092 2.65718 27.0492 2.59157 26.2241 2.59157C25.201 2.59157 24.4419 2.68999 23.9139 2.88682C23.3859 3.08365 22.9898 3.41169 22.7918 3.87096C22.5608 4.33023 22.3958 5.01913 22.2968 5.90485H19.1615C19.2935 4.46145 19.5905 3.34608 19.9866 2.49316C20.4156 1.67304 21.0757 1.04975 22.0657 0.62329C23.0558 0.196828 24.4419 0 26.2901 0C28.0722 0 29.4914 0.262438 30.5145 0.787314C31.5375 1.31219 32.2636 2.16511 32.6926 3.37889C33.1217 4.55986 33.3527 6.2001 33.3527 8.33241C33.3527 10.3007 33.2537 11.8753 33.0557 12.9907C32.8576 14.1388 32.5276 15.0574 32.0326 15.6807C31.5375 16.3368 30.8445 16.796 29.9534 17.0585C29.0623 17.3209 27.8412 17.4521 26.2901 17.4521C24.508 17.4521 23.1218 17.2553 22.0657 16.8944C21.0097 16.5664 20.2176 16.0087 19.7556 15.287C19.2935 14.5653 19.0625 13.6468 19.0625 12.5314V11.7113H22.2638V12.2362H22.2968Z" fill="white"/>
<path fill-rule="evenodd" clip-rule="evenodd" d="M44.0323 12.5643H41.8871C41.095 12.5643 40.501 12.433 40.0389 12.1706C39.5769 11.9082 39.2469 11.4817 39.0158 10.8912C38.7848 10.3007 38.6858 9.54622 38.6858 8.59488C38.6858 7.64354 38.7848 6.85623 39.0158 6.26575C39.2469 5.67526 39.5769 5.2488 40.0389 4.95356C40.501 4.69112 41.128 4.52709 41.8871 4.52709H44.0653V12.5643H44.0323ZM44.0323 17.2553H47.2995V15.3527H49.3787C50.8968 15.3527 52.1509 15.123 53.108 14.631C54.0651 14.1717 54.7911 13.45 55.2532 12.433C55.7152 11.4489 55.9462 10.1367 55.9462 8.59488C55.9462 7.41391 55.8142 6.39696 55.5502 5.51124C55.2862 4.65831 54.9232 3.96941 54.3621 3.41173C53.8341 2.85405 53.141 2.42759 52.3489 2.16515C51.5239 1.90271 50.5338 1.73869 49.3787 1.73869H47.2995V0.164062H44.0323V1.7715H42.1511C40.996 1.7715 39.9729 1.90271 39.1479 2.16515C38.2898 2.42759 37.5967 2.82125 37.0357 3.37893C36.4746 3.93661 36.0786 4.62551 35.7816 5.51124C35.5176 6.36416 35.3525 7.41391 35.3525 8.62769C35.3525 10.2023 35.5836 11.4817 36.0786 12.4658C36.5406 13.4828 37.2667 14.2045 38.2238 14.6638C39.1809 15.1558 40.435 15.3855 41.9531 15.3855H44.0323V17.2553ZM49.4777 4.5599C50.2698 4.5599 50.8968 4.69112 51.3589 4.98636C51.8209 5.2488 52.1509 5.70806 52.3489 6.29855C52.547 6.85623 52.646 7.67635 52.646 8.62769C52.646 10.0711 52.4149 11.088 51.9199 11.6785C51.4579 12.3018 50.6328 12.5971 49.4777 12.5971H47.2995V4.5599H49.4777Z" fill="white"/>
<path fill-rule="evenodd" clip-rule="evenodd" d="M61.4446 5.41278C61.5436 4.65827 61.7416 4.10059 62.0056 3.73974C62.2697 3.34608 62.6327 3.11645 63.1277 2.98523C63.6228 2.88682 64.3158 2.82121 65.2729 2.82121C66.197 2.82121 66.923 2.85401 67.4181 2.98523C67.9131 3.08365 68.2762 3.34608 68.5732 3.73974C68.8372 4.10059 69.0352 4.69108 69.1342 5.47839C69.2332 6.26571 69.2992 7.34826 69.2992 8.75887C69.2992 10.1695 69.2662 11.252 69.1342 11.9737C69.0352 12.7282 68.8702 13.2859 68.5732 13.7124C68.3092 14.106 67.9131 14.3685 67.4181 14.4997C66.923 14.6309 66.197 14.6965 65.2729 14.6965C64.3488 14.6965 63.6558 14.6309 63.1277 14.4997C62.6327 14.3685 62.2366 14.106 61.9726 13.7124C61.7086 13.3187 61.5106 12.761 61.4116 11.9737C61.3126 11.2192 61.2796 10.1367 61.2796 8.72606C61.3126 7.28265 61.3456 6.16729 61.4446 5.41278ZM58.2433 13.0891C58.4413 14.2373 58.8044 15.1558 59.2994 15.7791C59.8274 16.4024 60.5535 16.8616 61.4776 17.1241C62.4017 17.3537 63.6888 17.4849 65.2729 17.4849C66.791 17.4849 68.0121 17.3537 68.9362 17.0913C69.8603 16.8288 70.5864 16.3696 71.1474 15.7463C71.7084 15.123 72.0715 14.2045 72.3025 13.0235C72.5335 11.8425 72.6325 10.3007 72.6325 8.36521C72.6325 6.69217 72.5335 5.31437 72.3025 4.26462C72.0715 3.18206 71.6754 2.36194 71.1474 1.73865C70.6194 1.11536 69.8603 0.656095 68.9362 0.426462C68.0121 0.131219 66.791 0 65.3059 0C63.7878 0 62.5667 0.131219 61.6426 0.426462C60.7185 0.6889 59.9595 1.14817 59.4314 1.73865C58.8704 2.36194 58.5073 3.18206 58.2763 4.23181C58.0453 5.31437 57.9463 6.65936 57.9463 8.36521C57.9463 10.3663 58.0453 11.9409 58.2433 13.0891Z" fill="white"/>
</svg>
