<svg width="60" height="58" viewBox="0 0 60 58" fill="none" xmlns="http://www.w3.org/2000/svg">
<path d="M27.4812 25.9924C24.2107 27.0797 21.9871 30.04 21.9822 33.3951V33.3953V40.3144C21.9822 40.8278 22.4142 41.2335 22.934 41.2335H37.371C37.8909 41.2335 38.323 40.8278 38.323 40.3144V33.3953V33.395C38.3178 30.04 36.0942 27.0797 32.8241 25.9924C35.0928 24.8552 36.3272 22.3968 35.7945 19.956L35.648 19.988L35.7945 19.956C35.2343 17.3892 32.8763 15.5585 30.1525 15.5585C27.4287 15.5585 25.0711 17.3892 24.5107 19.956L24.6572 19.988L24.5107 19.956C23.9778 22.3968 25.2123 24.8552 27.4812 25.9924ZM36.4191 33.3953V39.3955H23.8863V33.3953C23.8863 30.0867 26.6856 27.3943 30.1525 27.3943C33.619 27.3943 36.4191 30.0867 36.4191 33.3953ZM30.1526 17.3995C32.2904 17.3996 34.0127 19.0594 34.0127 21.0937C34.0127 23.128 32.2904 24.7877 30.1525 24.7877C28.0143 24.7877 26.2923 23.128 26.2923 21.0937C26.2953 19.0602 28.0159 17.4021 30.1526 17.3995Z" fill="#D33234" stroke="#D33234" stroke-width="0.3"/>
<path d="M9.77729 14.166L9.74306 14.2445L10.1404 14.4091C10.4339 14.5798 10.7499 14.7103 11.0803 14.7968L11.5004 14.97L11.5348 14.8897C11.7151 14.92 11.897 14.9376 12.0796 14.9423C12.7584 14.939 13.4243 14.7573 14.0069 14.4147L17.3865 17.7244L18.7352 16.4037L15.3553 13.0942C15.7048 12.5239 15.8909 11.8723 15.8941 11.2069C15.8897 11.028 15.8714 10.8498 15.8404 10.674L15.9224 10.6397L15.7448 10.2281C15.6572 9.90477 15.5239 9.59508 15.3494 9.3071L15.1817 8.91876L15.1016 8.95246C15.0018 8.81634 14.8933 8.68714 14.7769 8.56562C13.2675 7.15326 10.8914 7.15326 9.38245 8.56562C7.89335 10.0242 7.89335 12.3891 9.38245 13.8477C9.50673 13.9623 9.63866 14.0685 9.77729 14.166ZM10.7312 9.88624C11.2096 9.40072 11.919 9.20561 12.5857 9.37694C13.2524 9.54789 13.7733 10.0574 13.9484 10.7107C14.1228 11.3641 13.9236 12.0577 13.428 12.5273C12.6731 13.2334 11.4851 13.2334 10.7312 12.5273C9.98627 11.7976 9.98627 10.6157 10.7312 9.88624Z" fill="#333333"/>
<path d="M50.6192 43.7393L50.655 43.6566L50.1217 43.4364C49.9343 43.3394 49.7383 43.2579 49.5366 43.1939L48.898 42.9308L48.8502 43.0417C48.0045 42.9292 47.1448 43.0876 46.399 43.4941L43.012 40.1765L41.6632 41.4971L45.0431 44.807C44.6934 45.3771 44.5074 46.0291 44.5041 46.6942C44.5095 46.8732 44.5267 47.0515 44.5578 47.2275L44.4754 47.2614L44.6533 47.6725C44.7416 47.9963 44.8743 48.3056 45.0487 48.5932L45.2167 48.9823L45.297 48.9488C45.3967 49.0847 45.5049 49.2135 45.6223 49.3354C46.58 50.3065 47.9982 50.6954 49.3318 50.3544C50.6655 50.0119 51.7075 48.992 52.0557 47.6864C52.4052 46.3802 52.0074 44.9911 51.0161 44.053C50.8919 43.9393 50.7594 43.8343 50.6192 43.7393ZM49.6655 48.015C48.9112 48.7207 47.723 48.7207 46.9685 48.015C46.2234 47.2853 46.2234 46.1027 46.9682 45.3734C47.7135 44.6437 48.9209 44.6437 49.6655 45.3734C50.411 46.1027 50.411 47.2853 49.6655 48.015Z" fill="#333333"/>
<path d="M55.9498 25.215C55.7666 25.2195 55.5838 25.238 55.4031 25.2689L55.3517 25.1497L54.5192 25.4951C54.483 25.5099 54.4465 25.5238 54.4111 25.5401L53.5901 25.879L53.6417 25.9975C52.9677 26.5014 52.4851 27.2123 52.2706 28.0165H47.3672V29.8845H52.2706C52.4851 30.6902 52.9689 31.4022 53.6458 31.9072L53.5937 32.0259L54.4155 32.3647C54.4502 32.3806 54.4867 32.3946 54.523 32.4098L55.3517 32.7515L55.4031 32.6317C56.815 32.8339 58.2232 32.2463 59.0522 31.1092C59.8809 29.9717 59.9914 28.4766 59.3375 27.2346C58.684 25.9926 57.3767 25.2135 55.9498 25.215ZM55.9498 30.818C54.8964 30.818 54.0425 29.982 54.0425 28.9505C54.0425 27.9192 54.8964 27.0826 55.9498 27.0826C57.0031 27.0826 57.8568 27.9192 57.8568 28.9505C57.8568 29.982 57.0031 30.818 55.9498 30.818Z" fill="#333333"/>
<path d="M44.4754 10.6397L44.5578 10.674C44.5267 10.8498 44.5095 11.028 44.5041 11.2069C44.5074 11.8723 44.6934 12.5239 45.0431 13.0942L41.6632 16.4037L43.012 17.7244L46.3915 14.4147C46.9735 14.7573 47.6397 14.939 48.3188 14.9423C48.5016 14.9376 48.6835 14.92 48.8634 14.8897L48.898 14.97L49.3186 14.7968C49.6481 14.7103 49.9643 14.5798 50.2578 14.4091L50.655 14.2445L50.6211 14.166C50.7596 14.0685 50.8919 13.9623 51.0162 13.8477C52.5051 12.3891 52.5051 10.0242 51.0162 8.56562C49.5068 7.15326 47.1307 7.15326 45.6223 8.56562C45.5049 8.68714 45.3967 8.81634 45.297 8.95246L45.2167 8.91876L45.0487 9.30785C44.8743 9.59545 44.7416 9.90477 44.6533 10.2281L44.4754 10.6397ZM46.9705 9.88624C47.4489 9.40072 48.158 9.20561 48.8251 9.37694C49.4917 9.54789 50.0131 10.0574 50.1877 10.7107C50.3624 11.3641 50.1628 12.0577 49.6674 12.5273C48.9127 13.2334 47.7251 13.2334 46.9705 12.5273C46.2259 11.7976 46.2259 10.6157 46.9705 9.88624Z" fill="#333333"/>
<path d="M38.0928 8.02732L38.8328 6.30713L40.4228 6.96322L39.6825 8.6836L38.0928 8.02732Z" fill="#333333"/>
<path d="M34.9297 6.69848L35.6712 4.97754L37.2624 5.63476L36.5211 7.35533L34.9297 6.69848Z" fill="#333333"/>
<path d="M41.2734 9.34164L42.0134 7.62183L43.6029 8.27755L42.8631 9.99698L41.2734 9.34164Z" fill="#333333"/>
<path d="M52.25 35.1416L52.9211 33.584L54.6781 34.3105L54.0075 35.8676L52.25 35.1416Z" fill="#333333"/>
<path d="M49.5703 41.3728L50.2412 39.8142L51.9986 40.5403L51.3273 42.0982L49.5703 41.3728Z" fill="#333333"/>
<path d="M50.9095 38.2569L51.5807 36.7L53.3378 37.4257L52.6671 38.9832L50.9095 38.2569Z" fill="#333333"/>
<path d="M19.9221 50.9397L20.6616 49.2195L22.2515 49.8754L21.5117 51.5954L19.9221 50.9397Z" fill="#333333"/>
<path d="M23.1016 52.2549L23.8415 50.5339L25.4308 51.1906L24.6914 52.9108L23.1016 52.2549Z" fill="#333333"/>
<path d="M16.7726 49.6393L17.5141 47.9182L19.1057 48.5754L18.3644 50.2963L16.7726 49.6393Z" fill="#333333"/>
<path d="M15.9236 47.2614L15.8416 47.2275C15.8725 47.0515 15.8909 46.8732 15.8953 46.6942C15.892 46.0291 15.706 45.3771 15.3565 44.807L18.7364 41.4971L17.3876 40.1765L14.0003 43.4941C13.2546 43.0876 12.3951 42.9292 11.5494 43.0417L11.5016 42.9308L10.863 43.1948C10.6612 43.2579 10.4651 43.3394 10.2779 43.4364L9.74423 43.6566L9.78018 43.7393C9.64002 43.8343 9.5079 43.9393 9.38362 44.053C8.39222 44.9911 7.99375 46.3802 8.34346 47.6864C8.6928 48.992 9.73429 50.0119 11.0679 50.3544C12.4012 50.6954 13.82 50.3065 14.7781 49.3354C14.8945 49.2135 15.0029 49.0847 15.1027 48.9488L15.1829 48.9823L15.3505 48.5938C15.5251 48.3058 15.6584 47.9963 15.746 47.6725L15.9236 47.2614ZM13.4291 48.015C12.6743 48.7207 11.4863 48.7207 10.7324 48.015C9.98725 47.2853 9.98725 46.1027 10.7316 45.3734C11.4767 44.6437 12.6848 44.6437 13.4291 45.3734C14.1743 46.1027 14.1743 47.2853 13.4291 48.015Z" fill="#333333"/>
<path d="M7.0625 20.4751L7.73343 18.918L9.49117 19.6443L8.82005 21.2016L7.0625 20.4751Z" fill="#333333"/>
<path d="M5.71875 23.5915L6.38988 22.0334L8.14762 22.7594L7.47611 24.3176L5.71875 23.5915Z" fill="#333333"/>
<path d="M8.40259 17.3608L9.07315 15.8037L10.8309 16.5295L10.1596 18.0867L8.40259 17.3608Z" fill="#333333"/>
<path d="M5.71924 34.309L7.47641 33.583L8.14811 35.1411L6.39056 35.8672L5.71924 34.309Z" fill="#333333"/>
<path d="M8.40259 40.5407L10.1596 39.8149L10.8309 41.3718L9.07315 42.0978L8.40259 40.5407Z" fill="#333333"/>
<path d="M7.06201 37.4249L8.81899 36.699L9.48974 38.2565L7.73238 38.9824L7.06201 37.4249Z" fill="#333333"/>
<path d="M5.88184 32.406C5.91836 32.3911 5.95412 32.3768 5.98968 32.3609L6.8111 32.022L6.75909 31.9037C7.43347 31.3994 7.91664 30.6885 8.1306 29.8845H13.0346V28.0165H8.1306C7.91568 27.2108 7.43194 26.4984 6.75526 25.9937L6.80689 25.8752L5.98605 25.5363C5.95048 25.5202 5.91416 25.5064 5.8784 25.4916L5.04915 25.1497L4.99752 25.2689C4.81721 25.238 4.63423 25.2195 4.45144 25.215C2.34456 25.215 0.636719 26.8878 0.636719 28.9505C0.636719 31.0135 2.34456 32.686 4.45144 32.686C4.63423 32.6811 4.81721 32.6626 4.99752 32.6317L5.04915 32.7515L5.88184 32.406ZM2.54437 28.9505C2.54437 27.9192 3.39809 27.0826 4.45144 27.0826C5.50479 27.0826 6.3589 27.9192 6.3589 28.9505C6.3589 29.982 5.50479 30.818 4.45144 30.818C3.39809 30.818 2.54437 29.982 2.54437 28.9505Z" fill="#333333"/>
<path d="M41.293 48.5741L42.8836 47.9175L43.6251 49.638L42.0343 50.2952L41.293 48.5741Z" fill="#333333"/>
<path d="M34.9297 51.2028L36.5207 50.5454L37.262 52.2663L35.6708 52.9241L34.9297 51.2028Z" fill="#333333"/>
<path d="M38.1123 49.8883L39.7027 49.2314L40.4444 50.9528L38.8536 51.6093L38.1123 49.8883Z" fill="#333333"/>
<path d="M33.7265 52.7646C33.7116 52.7288 33.6973 52.6934 33.6807 52.6592L33.335 51.8548L33.2139 51.9053C32.699 51.2449 31.973 50.7723 31.1522 50.5626V45.7603H29.2443V50.5626C28.4218 50.7729 27.6944 51.2466 27.1789 51.9091L27.0577 51.8583L26.7114 52.6629C26.6959 52.6972 26.6814 52.7324 26.6661 52.7683L26.3164 53.5798L26.4392 53.63C26.1812 55.0963 26.8361 56.572 28.1063 57.388C29.3764 58.2038 31.0199 58.2038 32.29 57.388C33.5602 56.572 34.2155 55.0963 33.9575 53.63L34.0795 53.5798L33.7265 52.7646ZM30.1982 56.0333C29.1451 56.0333 28.2914 55.1971 28.2914 54.1655C28.2914 53.1338 29.1451 52.2978 30.1982 52.2978C31.2514 52.2978 32.1057 53.1338 32.1057 54.1655C32.1057 55.1971 31.2514 56.0333 30.1982 56.0333Z" fill="#333333"/>
<path d="M49.5664 16.5281L51.3234 15.8018L51.9949 17.3606L50.2373 18.0863L49.5664 16.5281Z" fill="#333333"/>
<path d="M52.2505 22.7594L54.0083 22.0334L54.679 23.5907L52.9215 24.3167L52.2505 22.7594Z" fill="#333333"/>
<path d="M50.91 19.6432L52.6678 18.9175L53.3377 20.4746L51.5806 21.2005L50.91 19.6432Z" fill="#333333"/>
<path d="M26.6698 5.13623C26.685 5.1718 26.6996 5.20757 26.7155 5.24146L27.0615 6.04604L27.1829 5.99548C27.6977 6.65569 28.4237 7.12829 29.2443 7.33819V12.1404H31.1522V7.33819C31.9749 7.12811 32.7023 6.65457 33.2174 5.99174L33.3388 6.04248L33.6849 5.23771C33.7011 5.20364 33.7151 5.16825 33.7308 5.13267L34.0795 4.32098L33.9575 4.2708C33.9893 4.09385 34.0072 3.91504 34.0128 3.73547C34.0128 1.67244 32.3049 0 30.1982 0C28.0919 0 26.3835 1.67244 26.3835 3.73547C26.3891 3.91504 26.4074 4.09385 26.4392 4.2708L26.3164 4.32098L26.6698 5.13623ZM30.1982 1.86792C31.2514 1.86792 32.1057 2.70396 32.1057 3.73547C32.1057 4.7668 31.2514 5.60358 30.1982 5.60358C29.1451 5.60358 28.2914 4.7668 28.2914 3.73547C28.2914 2.70396 29.1451 1.86792 30.1982 1.86792Z" fill="#333333"/>
<path d="M16.7733 8.26147L18.3636 7.60425L19.1047 9.32537L17.5146 9.98203L16.7733 8.26147Z" fill="#333333"/>
<path d="M23.1367 5.63548L24.7267 4.979L25.4682 6.69957L23.8778 7.35679L23.1367 5.63548Z" fill="#333333"/>
<path d="M19.957 6.94871L21.5475 6.29224L22.2888 8.01261L20.6983 8.66983L19.957 6.94871Z" fill="#333333"/>
</svg>
