<svg width="60" height="58" viewBox="0 0 60 58" fill="none" xmlns="http://www.w3.org/2000/svg">
<path d="M59.3828 13.7463C59.1789 13.0038 58.6815 12.3709 58.0009 11.9871C57.3199 11.6015 56.5101 11.4972 55.7505 11.6968C54.9918 11.897 54.3455 12.3836 53.9536 13.0501L53.4601 13.8912C52.9911 13.6273 52.392 13.7826 52.1177 14.2395L49.6104 18.4248L48.7515 17.9415C48.524 17.8126 48.2531 17.7777 47.9995 17.8447C47.7455 17.9122 47.5296 18.0755 47.399 18.2992C47.1315 18.7613 47.2944 19.3485 47.7643 19.6138L48.6232 20.0971L40.2327 34.3361L38.1596 39.7594L37.1725 41.5667C36.5946 42.5513 36.6563 43.7752 37.3306 44.699L35.1096 47.3667L34.4878 45.8398C34.2073 45.1592 33.558 44.6928 32.8114 44.6357C32.0643 44.5781 31.3486 44.9397 30.9634 45.5689L30.6082 46.1584L30.2727 42.2917C30.1956 41.377 29.4722 40.6416 28.5419 40.5312C27.6112 40.4212 26.7301 40.9673 26.4327 41.8377L24.0044 48.9716C23.8347 49.4761 24.1124 50.0199 24.6262 50.1898C24.7226 50.2337 24.8262 50.2601 24.9322 50.2667C25.3564 50.2682 25.7343 50.0034 25.8702 49.6097L28.2884 42.4758L28.634 46.4001C28.7053 47.2374 29.3198 47.9336 30.1556 48.1234C30.9914 48.3131 31.8561 47.9525 32.2962 47.2317L32.6615 46.6417L33.2736 48.1597C33.5334 48.7993 34.121 49.2557 34.8165 49.3572C35.512 49.4587 36.21 49.1901 36.6495 48.6525L38.9496 45.8011C39.2041 45.8662 39.4663 45.8988 39.7295 45.8979C40.7875 45.9059 41.7698 45.3602 42.3057 44.4667L43.2929 42.8525L47.0539 38.3769L55.5331 23.9638L56.392 24.4471C56.621 24.5755 56.7878 24.7874 56.8557 25.0371C56.9242 25.2849 56.8885 25.5492 56.7574 25.7716L52.8089 32.4707C52.66 32.6907 52.6093 32.9607 52.6691 33.2184C52.7289 33.4756 52.8932 33.6979 53.1246 33.8334C53.3521 33.9627 53.623 33.9977 53.8765 33.9306C54.1305 33.8631 54.3465 33.6998 54.4771 33.4761L58.4256 26.7769C58.8194 26.11 58.9259 25.317 58.7215 24.5731C58.5172 23.8302 58.0202 23.1972 57.3396 22.8135L56.4807 22.3302L58.9485 18.1444C59.218 17.6852 59.0594 17.0989 58.5933 16.8299L59.0869 15.9888C59.4913 15.3114 59.5983 14.5024 59.3828 13.7463ZM55.6613 14.0167C55.792 13.793 56.0089 13.6292 56.2638 13.5627C56.5174 13.5013 56.7853 13.5358 57.0138 13.6594C57.2428 13.7873 57.4095 13.9997 57.478 14.249C57.5406 14.4972 57.5054 14.7597 57.3792 14.9834L56.8856 15.8245L55.1678 14.8578L55.6613 14.0167ZM42.2069 41.0065L41.7134 40.7261L40.2524 39.8944L41.6541 36.2213L44.7634 37.9804L42.2069 41.0065ZM39.2456 43.7998C38.8286 43.5152 38.7004 42.9676 38.9496 42.5334L39.4432 41.6928L41.1605 42.6594L40.667 43.4906C40.5286 43.7257 40.2963 43.8928 40.0259 43.9518C39.7555 44.0103 39.4726 43.9556 39.2456 43.7998ZM45.8889 36.3955L42.4735 34.4621L50.3705 21.0638L53.7859 22.9971L45.8889 36.3955ZM54.773 21.3248L51.3576 19.3915L53.3319 16.0468L56.7473 17.9802L54.773 21.3248Z" fill="#D33234"/>
<path d="M15.8305 43.3164L12.3365 46.729L10.2437 44.6796C9.85854 44.3048 9.23677 44.3048 8.85166 44.6796C8.66464 44.8613 8.55957 45.1081 8.55957 45.3659C8.55957 45.6236 8.66464 45.8709 8.85166 46.0521L10.9445 48.1016C11.3146 48.4613 11.815 48.6628 12.3365 48.6623C12.8609 48.6652 13.3655 48.4636 13.7381 48.1016L17.2225 44.6796C17.5579 44.2958 17.5353 43.7242 17.1709 43.3674C16.806 43.0101 16.2223 42.9879 15.8305 43.3164Z" fill="#333333"/>
<path d="M4.20245 45.9166C4.20245 50.4549 7.95912 54.1333 12.593 54.1333C17.2269 54.1333 20.9836 50.4549 20.9836 45.9166C20.9836 45.3828 20.5416 44.9499 19.9965 44.9499C19.4513 44.9499 19.0093 45.3828 19.0093 45.9166C19.0093 49.3868 16.1366 52.1999 12.593 52.1999C9.04939 52.1999 6.1767 49.3868 6.1767 45.9166C6.1767 42.4464 9.04939 39.6333 12.593 39.6333C13.9821 39.6295 15.3341 40.0708 16.4427 40.8902C16.8789 41.2107 17.4978 41.1239 17.8246 40.6967C18.1519 40.2695 18.0637 39.6639 17.6275 39.3435C15.0849 37.4762 11.683 37.176 8.84069 38.5675C5.99788 39.9594 4.20245 42.8047 4.20245 45.9166Z" fill="#333333"/>
<path d="M35.7901 7.73338C36.3353 7.73338 36.7773 7.30103 36.7773 6.76672C36.7773 6.23288 36.3353 5.80005 35.7901 5.80005H10.1249C9.57975 5.80005 9.13776 6.23288 9.13776 6.76672V10.6334C9.13776 11.1677 9.57975 11.6 10.1249 11.6H35.7901C36.3353 11.6 36.7773 11.1677 36.7773 10.6334C36.7773 10.0995 36.3353 9.66672 35.7901 9.66672H11.112V7.73338H35.7901Z" fill="#333333"/>
<path d="M13.0866 13.5334C12.5415 13.5334 12.0995 13.9663 12.0995 14.5001C12.0995 15.0344 12.5415 15.4668 13.0866 15.4668H32.8291C33.3743 15.4668 33.8163 15.0344 33.8163 14.5001C33.8163 13.9663 33.3743 13.5334 32.8291 13.5334H13.0866Z" fill="#333333"/>
<path d="M38.7517 20.3H17.0349C16.4898 20.3 16.0478 20.7329 16.0478 21.2667C16.0478 21.801 16.4898 22.2334 17.0349 22.2334H38.7517C39.2968 22.2334 39.7388 21.801 39.7388 21.2667C39.7388 20.7329 39.2968 20.3 38.7517 20.3Z" fill="#333333"/>
<path d="M28.8804 27.0665C28.8804 26.5327 28.4385 26.0999 27.8933 26.0999H8.15082C7.60569 26.0999 7.1637 26.5327 7.1637 27.0665C7.1637 27.6008 7.60569 28.0332 8.15082 28.0332H27.8933C28.4385 28.0332 28.8804 27.6008 28.8804 27.0665Z" fill="#333333"/>
<path d="M38.7519 26.0999H31.842C31.2969 26.0999 30.8549 26.5327 30.8549 27.0665C30.8549 27.6008 31.2969 28.0332 31.842 28.0332H38.7519C39.2971 28.0332 39.739 27.6008 39.739 27.0665C39.739 26.5327 39.2971 26.0999 38.7519 26.0999Z" fill="#333333"/>
<path d="M18.0221 32.8667C18.5672 32.8667 19.0092 32.4343 19.0092 31.9C19.0092 31.3662 18.5672 30.9333 18.0221 30.9333H8.15082C7.60569 30.9333 7.1637 31.3662 7.1637 31.9C7.1637 32.4343 7.60569 32.8667 8.15082 32.8667H18.0221Z" fill="#333333"/>
<path d="M21.9705 32.8667H28.8803C29.4255 32.8667 29.8675 32.4343 29.8675 31.9C29.8675 31.3662 29.4255 30.9333 28.8803 30.9333H21.9705C21.4253 30.9333 20.9833 31.3662 20.9833 31.9C20.9833 32.4343 21.4253 32.8667 21.9705 32.8667Z" fill="#333333"/>
<path d="M44.6745 44.4667C44.1293 44.4667 43.6874 44.8995 43.6874 45.4333V55.1C43.6874 55.6343 43.2454 56.0667 42.7002 56.0667H3.21522C2.67008 56.0667 2.2281 55.6343 2.2281 55.1V2.9C2.2281 2.36616 2.67008 1.93333 3.21522 1.93333H42.7002C43.2454 1.93333 43.6874 2.36616 43.6874 2.9V21.0543C43.6874 21.5881 44.1293 22.0209 44.6745 22.0209C45.2196 22.0209 45.6616 21.5881 45.6616 21.0543V2.9C45.6616 1.29849 44.3356 0 42.7002 0H3.21522C1.57981 0 0.253845 1.29849 0.253845 2.9V55.1C0.253845 56.702 1.57981 58 3.21522 58H42.7002C44.3356 58 45.6616 56.702 45.6616 55.1V45.4333C45.6616 44.8995 45.2196 44.4667 44.6745 44.4667Z" fill="#333333"/>
</svg>
