<svg width="49" height="28" viewBox="0 0 49 28" fill="none" xmlns="http://www.w3.org/2000/svg">
<path d="M22.0017 6.01312L11.6561 4.01312C11.5818 3.99579 11.5048 3.99579 11.4305 4.01312L1.08491 6.01312C0.862158 6.06634 0.704838 6.268 0.705078 6.50018V9.50018C0.705078 9.7763 0.925663 10.0002 1.19773 10.0002H2.18302V23.0002C1.91096 23.0002 1.69037 23.2241 1.69037 23.5002V25.0002H1.19773C0.925663 25.0002 0.705078 25.2241 0.705078 25.5002V27.5002C0.705078 27.7763 0.925663 28.0002 1.19773 28.0002H21.8889C22.161 28.0002 22.3815 27.7763 22.3815 27.5002V25.5002C22.3815 25.2241 22.161 25.0002 21.8889 25.0002H21.3962V23.5002C21.3962 23.2241 21.1757 23.0002 20.9036 23.0002V10.0002H21.8889C22.161 10.0002 22.3815 9.7763 22.3815 9.50018V6.50018C22.3818 6.268 22.2245 6.06634 22.0017 6.01312ZM3.16831 10.0002H4.15361V23.0002H3.16831V10.0002ZM17.9477 10.0002V23.0002H5.1389V10.0002H17.9477ZM21.3962 27.0002H1.69037V26.0002H21.3962V27.0002ZM2.67567 25.0002V24.0002H20.411V25.0002H2.67567ZM19.9183 23.0002H18.933V10.0002H19.9183V23.0002ZM21.3962 9.00018H1.69037V6.89618L11.5433 5.01361L21.3962 6.89618V9.00018Z" fill="#333333"/>
<path d="M11.0502 16.5H12.0355C12.3076 16.5 12.5281 16.7239 12.5281 17C12.5281 17.2761 12.3076 17.5 12.0355 17.5H11.0502C10.7781 17.5 10.5576 17.2761 10.5576 17H9.57227C9.57227 17.8284 10.234 18.5 11.0502 18.5V19H12.0355V18.5C12.8517 18.5 13.5134 17.8284 13.5134 17C13.5134 16.1716 12.8517 15.5 12.0355 15.5H11.0502C10.7781 15.5 10.5576 15.2761 10.5576 15C10.5576 14.7239 10.7781 14.5 11.0502 14.5H12.0355C12.3076 14.5 12.5281 14.7239 12.5281 15H13.5134C13.5134 14.1716 12.8517 13.5 12.0355 13.5V13H11.0502V13.5C10.234 13.5 9.57227 14.1716 9.57227 15C9.57227 15.8284 10.234 16.5 11.0502 16.5Z" fill="#D33234"/>
<path d="M39.1307 4C38.0425 4 37.1602 4.89551 37.1602 6C37.1602 7.10449 38.0425 8 39.1307 8C40.219 8 41.1013 7.10449 41.1013 6C41.1013 4.89551 40.219 4 39.1307 4ZM39.1307 7C38.5866 7 38.1454 6.55224 38.1454 6C38.1454 5.44775 38.5866 5 39.1307 5C39.6749 5 40.116 5.44775 40.116 6C40.116 6.55224 39.6749 7 39.1307 7Z" fill="#D33234"/>
<path d="M47.9999 0H30.2646C29.7205 0 29.2793 0.447754 29.2793 1V11C29.2793 11.5522 29.7205 12 30.2646 12H47.9999C48.544 12 48.9852 11.5522 48.9852 11V1C48.9852 0.447754 48.544 0 47.9999 0ZM45.5809 11H32.6836C32.4719 9.74365 31.5025 8.75976 30.2646 8.54492V3.45508C31.5025 3.24048 32.4721 2.25635 32.6836 1H45.5809C45.7924 2.25635 46.762 3.24048 47.9999 3.45508V8.54492C46.762 8.75976 45.7926 9.74365 45.5809 11ZM47.9999 2.43701C47.3064 2.25342 46.7649 1.70386 46.584 1H47.9999V2.43701ZM30.2646 1H31.6805C31.4998 1.70386 30.9581 2.25366 30.2646 2.43701V1ZM30.2646 11V9.56299C30.9581 9.74634 31.4998 10.2961 31.6805 11H30.2646ZM47.9999 11H46.584C46.7647 10.2961 47.3064 9.74634 47.9999 9.56299V11Z" fill="#D33234"/>
<path d="M40.1172 15L40.1172 16L41.1025 16L41.1025 15L40.1172 15Z" fill="#333333"/>
<path d="M40.1172 17L40.1172 18L41.1025 18L41.1025 17L40.1172 17Z" fill="#333333"/>
<path d="M40.1172 19L40.1172 20L41.1025 20L41.1025 19L40.1172 19Z" fill="#333333"/>
<path d="M38.1465 19L38.1465 20L39.1318 20L39.1318 19L38.1465 19Z" fill="#333333"/>
<path d="M36.1758 19L36.1758 20L37.1611 20L37.1611 19L36.1758 19Z" fill="#333333"/>
<path d="M34.2051 19L34.2051 20L35.1904 20L35.1904 19L34.2051 19Z" fill="#333333"/>
<path d="M32.2344 19L32.2344 20L33.2197 20L33.2197 19L32.2344 19Z" fill="#333333"/>
<path d="M30.2637 19L30.2637 20L31.249 20L31.249 19L30.2637 19Z" fill="#333333"/>
<path d="M28.293 19L28.293 20L29.2783 20L29.2783 19L28.293 19Z" fill="#333333"/>
<path d="M26.3223 19L26.3223 20L27.3076 20L27.3076 19L26.3223 19Z" fill="#333333"/>
<path d="M24.3516 19L24.3516 20L25.3369 20L25.3369 19L24.3516 19Z" fill="#333333"/>
<path d="M24.3516 5L24.3516 4L23.3663 4L23.3663 5L24.3516 5Z" fill="#333333"/>
<path d="M26.3223 5L26.3223 4L25.337 4L25.337 5L26.3223 5Z" fill="#333333"/>
</svg>
