<svg width="51" height="31" viewBox="0 0 51 31" fill="none" xmlns="http://www.w3.org/2000/svg">
<path d="M29.5175 25.1086H43.9236C44.4638 25.1086 44.8239 24.7431 44.8239 24.1948V15.9704C44.8239 15.4221 44.4638 15.0566 43.9236 15.0566H29.5175C28.9773 15.0566 28.6172 15.4221 28.6172 15.9704V24.1948C28.6171 24.743 28.9773 25.1086 29.5175 25.1086ZM30.4179 16.8842H43.0232V23.2809H30.4179V16.8842Z" fill="#D33234"/>
<path d="M7.16597 20.9047H12.4115C12.9518 20.9047 13.3119 20.5392 13.3119 19.9909C13.3119 19.4426 12.9518 19.0771 12.4115 19.0771H7.16597C6.62574 19.0771 6.26562 19.4426 6.26562 19.9909C6.26562 20.5392 6.62574 20.9047 7.16597 20.9047Z" fill="#D33234"/>
<path d="M16.0117 20.9047H23.2147C23.755 20.9047 24.1151 20.5392 24.1151 19.9909C24.1151 19.4426 23.755 19.0771 23.2147 19.0771H16.0117C15.4714 19.0771 15.1113 19.4426 15.1113 19.9909C15.1113 20.5392 15.4714 20.9047 16.0117 20.9047Z" fill="#D33234"/>
<path d="M7.16792 24.56H16.9141C17.4543 24.56 17.8144 24.1945 17.8144 23.6462C17.8144 23.0979 17.4543 22.7324 16.9141 22.7324H7.16792C6.62769 22.7324 6.26758 23.0979 6.26758 23.6462C6.26758 24.1945 6.62769 24.56 7.16792 24.56Z" fill="#D33234"/>
<path d="M23.2148 22.7324H20.5136C19.9734 22.7324 19.6133 23.0979 19.6133 23.6462C19.6133 24.1945 19.9734 24.56 20.5136 24.56H23.2148C23.755 24.56 24.1151 24.1945 24.1151 23.6462C24.1151 23.0979 23.755 22.7324 23.2148 22.7324Z" fill="#D33234"/>
<path d="M7.16792 17.3276H16.9136C17.4538 17.3276 17.8139 16.9621 17.8139 16.4138C17.8139 15.8655 17.4538 15.5 16.9136 15.5H7.16792C6.62769 15.5 6.26758 15.8655 6.26758 16.4138C6.26758 16.9621 6.62769 17.3276 7.16792 17.3276Z" fill="#D33234"/>
<path d="M23.2148 15.5H20.5136C19.9734 15.5 19.6133 15.8655 19.6133 16.4138C19.6133 16.9621 19.9734 17.3276 20.5136 17.3276H23.2148C23.755 17.3276 24.1151 16.9621 24.1151 16.4138C24.1151 15.8655 23.755 15.5 23.2148 15.5Z" fill="#D33234"/>
<rect x="1.20508" y="0.5" width="48.3405" height="30" rx="3.5" stroke="#333333"/>
<rect x="1.20508" y="6.46191" width="48.3405" height="4.96154" rx="0.5" stroke="#333333"/>
</svg>
