<svg width="49" height="31" viewBox="0 0 49 31" fill="none" xmlns="http://www.w3.org/2000/svg">
<path d="M43.5696 7.55768C42.254 7.5364 41.368 7.24687 40.7647 6.64716C40.106 5.99205 39.7705 4.90156 39.7313 3.34814C39.7276 3.0849 39.5207 2.87081 39.2613 2.86267L7.1497 2.86267C6.88972 2.8705 6.68124 3.08396 6.676 3.34814C6.58595 6.91572 5.67494 7.5148 3.54761 7.54923C3.28609 7.55674 3.0773 7.77271 3.07422 8.03814V20.9345C3.07761 21.1987 3.28732 21.4119 3.54761 21.4153C5.77486 21.4519 6.58471 22.0811 6.67261 25.5983C6.68124 25.8577 6.89373 26.0621 7.1497 26.0571H39.2175C39.4726 26.0618 39.6838 25.8574 39.6912 25.5986C39.7652 22.6645 40.8785 21.4547 43.5696 21.4106C43.6921 21.409 43.8086 21.358 43.8934 21.2685C43.9782 21.1793 44.0242 21.0591 44.0208 20.9352V8.03845C44.0242 7.91388 43.9786 7.79306 43.8937 7.70292C43.8089 7.61246 43.6924 7.5605 43.5696 7.55768ZM43.0734 20.4738C40.3891 20.6635 38.9662 22.1308 38.7657 25.0956H7.60643C7.52718 23.4129 7.24499 22.3762 6.70221 21.6626C6.14555 20.9308 5.28481 20.563 4.02162 20.4738V8.49888C6.78486 8.29699 7.47598 6.70882 7.60674 3.82421H38.8089C38.9131 5.42677 39.3254 6.55232 40.0943 7.31699C40.791 8.00966 41.8102 8.40998 43.0734 8.49982V20.4738Z" fill="#D33234"/>
<path d="M23.274 7C19.5167 6.99969 16.471 10.0909 16.4707 13.9042C16.4707 17.7175 19.5164 20.809 23.2737 20.809C27.0309 20.809 30.0769 17.7178 30.0766 13.9045C30.0723 10.0931 27.0293 7.00438 23.274 7ZM23.274 19.8474C20.0401 19.8474 17.4184 17.1866 17.4181 13.9045C17.4181 10.6224 20.0398 7.96154 23.2737 7.96154C26.5075 7.96123 29.1292 10.622 29.1292 13.9045C29.1255 17.1847 26.5063 19.8434 23.274 19.8471V19.8474Z" fill="#333333"/>
<path d="M48.4892 2.40385H46.657V0.513947C46.6549 0.239759 46.4433 0.014711 46.1735 0H1.16316C0.901334 0 0.705193 0.248523 0.705193 0.513947V28.0011C0.702418 28.1247 0.749911 28.2443 0.836571 28.3313C0.923231 28.4183 1.04135 28.4652 1.16316 28.4612H2.99474V30.3511C2.9969 30.6253 3.20877 30.8503 3.47831 30.865H48.4892C48.7508 30.865 48.9472 30.6165 48.9472 30.3511V2.86427C48.95 2.74032 48.9025 2.62107 48.8158 2.53374C48.7292 2.44673 48.6111 2.39978 48.4892 2.40385ZM1.65259 0.961538H45.7097V27.4996H1.65259V0.961538ZM47.9992 29.9035H3.94214V28.4612H46.1735C46.2981 28.4662 46.4193 28.4202 46.5103 28.3335C46.6009 28.2471 46.654 28.1272 46.657 28.0011V3.36538H47.9992V29.9035Z" fill="#333333"/>
</svg>
