<svg width="33" height="23" viewBox="0 0 33 23" fill="none" xmlns="http://www.w3.org/2000/svg">
<path d="M26.7968 16.3384C25.9959 16.3384 25.2351 16.6521 24.6611 17.2194C24.0871 17.7934 23.7667 18.5409 23.7667 19.3418C23.7667 20.1427 24.0804 20.8902 24.6611 21.4641C25.2417 22.0315 25.9959 22.3451 26.7968 22.3451C28.4387 22.3451 29.7735 20.997 29.7735 19.3418C29.7735 17.6866 28.4387 16.3384 26.7968 16.3384ZM26.7968 21.0103C25.8758 21.0103 25.1016 20.2494 25.1016 19.3418C25.1016 18.4341 25.8758 17.6732 26.7968 17.6732C27.7045 17.6732 28.4387 18.4207 28.4387 19.3418C28.4387 20.2628 27.7045 21.0103 26.7968 21.0103ZM27.571 6.33379C27.4509 6.22033 27.2907 6.16026 27.1238 6.16026H23.7C23.3329 6.16026 23.0326 6.4606 23.0326 6.82768V12.3005C23.0326 12.6676 23.3329 12.9679 23.7 12.9679H29.1328C29.4999 12.9679 29.8002 12.6676 29.8002 12.3005V8.63638C29.8002 8.4495 29.7201 8.2693 29.5799 8.14249L27.571 6.33379ZM28.4654 11.6331H24.3674V7.48843H26.8636L28.4654 8.93005V11.6331ZM10.4985 16.3384C9.69758 16.3384 8.93672 16.6521 8.36274 17.2194C7.78876 17.7934 7.4684 18.5409 7.4684 19.3418C7.4684 20.1427 7.78209 20.8902 8.36274 21.4641C8.94339 22.0315 9.69758 22.3451 10.4985 22.3451C12.1403 22.3451 13.4752 20.997 13.4752 19.3418C13.4752 17.6866 12.1403 16.3384 10.4985 16.3384ZM10.4985 21.0103C9.57744 21.0103 8.80324 20.2494 8.80324 19.3418C8.80324 18.4341 9.57744 17.6732 10.4985 17.6732C11.4062 17.6732 12.1403 18.4207 12.1403 19.3418C12.1403 20.2628 11.4062 21.0103 10.4985 21.0103ZM6.0468 17.1593H4.70529V15.384C4.70529 15.0169 4.40496 14.7166 4.03788 14.7166C3.6708 14.7166 3.37046 15.0169 3.37046 15.384V17.8267C3.37046 18.1938 3.6708 18.4941 4.03788 18.4941H6.0468C6.41388 18.4941 6.71422 18.1938 6.71422 17.8267C6.71422 17.4596 6.41388 17.1593 6.0468 17.1593ZM9.43061 13.5219C9.43061 13.1548 9.13027 12.8545 8.76319 12.8545H0.667418C0.300338 12.8545 0 13.1548 0 13.5219C0 13.889 0.300338 14.1893 0.667418 14.1893H8.76319C9.13027 14.1893 9.43061 13.8956 9.43061 13.5219ZM2.02227 11.1125L10.118 11.1592C10.4851 11.1592 10.7855 10.8656 10.7921 10.4985C10.7988 10.1247 10.4985 9.82439 10.1314 9.82439L2.03562 9.77767C2.02895 9.77767 2.02895 9.77767 2.02895 9.77767C1.66187 9.77767 1.36153 10.0713 1.36153 10.4384C1.35486 10.8122 1.6552 11.1125 2.02227 11.1125ZM3.38381 8.08243H11.4796C11.8467 8.08243 12.147 7.78209 12.147 7.41501C12.147 7.04793 11.8467 6.74759 11.4796 6.74759H3.38381C3.01673 6.74759 2.71639 7.04793 2.71639 7.41501C2.71639 7.78209 3.01673 8.08243 3.38381 8.08243ZM32.5299 7.18141L27.7512 3.22363C27.6311 3.12351 27.4843 3.07012 27.3241 3.07012H21.7044V0.667418C21.7044 0.300338 21.4041 0 21.037 0H4.03788C3.6708 0 3.37046 0.300338 3.37046 0.667418V5.55292C3.37046 5.91999 3.6708 6.22033 4.03788 6.22033C4.40496 6.22033 4.70529 5.91999 4.70529 5.55292V1.33484H20.3763V17.1593H14.9034C14.5364 17.1593 14.236 17.4596 14.236 17.8267C14.236 18.1938 14.5364 18.4941 14.9034 18.4941H23.0526C23.4197 18.4941 23.72 18.1938 23.72 17.8267C23.72 17.4596 23.4197 17.1593 23.0526 17.1593H21.7111V4.40496H27.0905L31.442 8.00901L31.3953 17.146H30.7012C30.3341 17.146 30.0338 17.4463 30.0338 17.8134C30.0338 18.1805 30.3341 18.4808 30.7012 18.4808H32.0561C32.4231 18.4808 32.7235 18.1871 32.7235 17.82L32.7769 7.702C32.7702 7.50177 32.6834 7.30822 32.5299 7.18141Z" fill="#333333"/>
</svg>
