<svg width="32" height="24" viewBox="0 0 32 24" fill="none" xmlns="http://www.w3.org/2000/svg">
<path d="M8.2587 9.83191H3.09961V10.865H8.2587V9.83191Z" fill="#333333"/>
<path d="M10.8414 12.9311H3.09961V13.9642H10.8414V12.9311Z" fill="#333333"/>
<path d="M21.6824 16.0303H3.09961V17.0634H21.6824V16.0303Z" fill="#333333"/>
<path d="M6.19884 19.1233H3.09961V20.1564H6.19884V19.1233Z" fill="#333333"/>
<path d="M11.357 19.1233H8.25781V20.1564H11.357V19.1233Z" fill="#333333"/>
<path d="M16.5231 19.1233H13.4238V20.1564H16.5231V19.1233Z" fill="#333333"/>
<path d="M21.1655 9.31531C20.7876 9.31531 20.4411 9.4224 20.1387 9.59877C19.8238 9.4161 19.471 9.31531 19.0994 9.31531C17.9592 9.31531 17.0332 10.2413 17.0332 11.3815C17.0332 12.5216 17.9592 13.4476 19.0994 13.4476C19.471 13.4476 19.8238 13.3468 20.1387 13.1642C20.4411 13.3405 20.7876 13.4476 21.1655 13.4476C22.3057 13.4476 23.2317 12.5216 23.2317 11.3815C23.2317 10.2413 22.3057 9.31531 21.1655 9.31531ZM19.3639 12.3767C19.2757 12.4019 19.1876 12.4145 19.0994 12.4145C18.5324 12.4145 18.0663 11.9484 18.0663 11.3815C18.0663 10.8145 18.5324 10.3484 19.0994 10.3484C19.1876 10.3484 19.282 10.3673 19.3639 10.3862C19.2001 10.6822 19.0994 11.0161 19.0994 11.3815C19.0994 11.7468 19.2001 12.0807 19.3639 12.3767ZM21.1655 12.4145C20.5986 12.4145 20.1324 11.9484 20.1324 11.3815C20.1324 10.8145 20.5986 10.3484 21.1655 10.3484C21.7325 10.3484 22.1986 10.8145 22.1986 11.3815C22.1986 11.9484 21.7325 12.4145 21.1655 12.4145Z" fill="#333333"/>
<path d="M30.9231 6.92792L9.26621 0.0869242C9.11503 0.0365302 7.90557 -0.360323 7.32604 1.09481L5.54335 6.73264H1.54962C0.692919 6.73894 0 7.43186 0 8.28226V21.706C0 22.5627 0.692919 23.2556 1.54962 23.2556H24.2647C24.8065 23.2556 25.2789 22.9784 25.5561 22.5564C25.5561 22.5564 26.2553 22.7517 26.4128 22.7517C27.0931 22.7517 27.6852 22.317 27.8868 21.6682L31.9309 8.86809C32.0569 8.47754 32.1451 7.25548 30.9231 6.92792ZM7.6851 3.37514L18.3245 6.73264H11.4647L7.06147 5.34051L7.6851 3.37514ZM6.75281 6.32949L8.04415 6.73894H6.62682L6.75281 6.32949ZM24.7813 21.706H24.775C24.775 21.9895 24.5419 22.2225 24.2584 22.2225H1.54962C1.26615 22.2225 1.03308 21.9895 1.03308 21.706V8.28226C1.03308 7.99879 1.26615 7.76572 1.54962 7.76572H24.2647C24.5482 7.76572 24.7813 7.99879 24.7813 8.28226V21.706ZM26.9041 21.3595C26.8222 21.6241 26.5199 21.7816 26.2553 21.6934L25.8081 21.5548V12.3516L29.3923 13.4854L26.9041 21.3595ZM29.701 12.4965L25.8081 11.2681V9.10116L30.3246 10.5248L29.701 12.4965ZM30.9483 8.55943L30.6396 9.54211L25.7829 8.01139C25.6506 7.28698 25.0207 6.73894 24.2647 6.73894H21.7513L7.99376 2.39245L8.30242 1.40977C8.38431 1.1452 8.68038 0.987718 8.95125 1.07591L30.6081 7.9106C31.0428 8.02399 30.9861 8.42714 30.9483 8.55943Z" fill="#333333"/>
</svg>
