<svg width="25" height="29" viewBox="0 0 25 29" fill="none" xmlns="http://www.w3.org/2000/svg">
<path d="M21.467 0H5.60505C3.75173 0.000839079 2.24936 1.503 2.24873 3.35632V4.80625H0.671264C0.30039 4.80625 0 5.10685 0 5.47751C0 5.84817 0.30039 6.14877 0.671264 6.14877H2.24181V10.5523H0.671264C0.30039 10.5523 0 10.8527 0 11.2235C0 11.5942 0.30039 11.8948 0.671264 11.8948H2.24181V16.2983H0.671264C0.30039 16.2983 0 16.5989 0 16.9695C0 17.3404 0.30039 17.6408 0.671264 17.6408H2.24181V22.0443H0.671264C0.30039 22.0443 0 22.3449 0 22.7156C0 23.0862 0.30039 23.3868 0.671264 23.3868H2.24181V24.8368C2.24265 26.6901 3.74481 28.1922 5.59813 28.1931H21.4601C23.3134 28.1922 24.816 26.6901 24.8164 24.8368V3.35632C24.8191 1.50426 23.3191 0.00125862 21.467 0ZM23.4808 24.8368C23.4774 25.9475 22.5777 26.8474 21.467 26.8505H5.60505C4.49432 26.8474 3.59441 25.9475 3.59126 24.8368V23.3868H5.16181C5.53268 23.3868 5.83307 23.0862 5.83307 22.7156C5.83307 22.3449 5.53268 22.0443 5.16181 22.0443H3.59126V17.6408H5.16181C5.53268 17.6408 5.83307 17.3404 5.83307 16.9695C5.83307 16.5989 5.53268 16.2983 5.16181 16.2983H3.59126V11.8948H5.16181C5.53268 11.8948 5.83307 11.5942 5.83307 11.2235C5.83307 10.8527 5.53268 10.5523 5.16181 10.5523H3.59126V6.14877H5.16181C5.53268 6.14877 5.83307 5.84817 5.83307 5.47751C5.83307 5.10685 5.53268 4.80625 5.16181 4.80625H3.59126V3.35632C3.59441 2.24559 4.49432 1.34567 5.60505 1.34253H21.467C22.5777 1.34567 23.4774 2.24559 23.4808 3.35632V24.8368Z" fill="#333333"/>
<path d="M13.533 13.9019C15.3309 13.9019 16.7886 12.4444 16.7886 10.6463C16.7886 8.84811 15.3309 7.39062 13.533 7.39062C11.7348 7.39062 10.2773 8.84811 10.2773 10.6463C10.279 12.4436 11.7355 13.9002 13.533 13.9019ZM13.533 8.72644C14.5894 8.72644 15.4461 9.58314 15.4461 10.6395C15.4461 11.6959 14.5894 12.5526 13.533 12.5526C12.4764 12.5526 11.6199 11.6959 11.6199 10.6395C11.6218 9.58398 12.477 8.72833 13.533 8.72644Z" fill="#333333"/>
<path d="M13.5337 14.9826C10.7413 14.9826 8.55273 17.2448 8.55273 20.1379C8.55378 20.5082 8.85375 20.8081 9.224 20.8092H17.8432C18.2135 20.8081 18.5134 20.5082 18.5145 20.1379C18.5145 17.2448 16.326 14.9826 13.5337 14.9826ZM9.94896 19.4666C10.2378 17.6341 11.681 16.3251 13.5337 16.3251C15.3862 16.3251 16.8363 17.6341 17.1183 19.4666H9.94896Z" fill="#333333"/>
</svg>
