<svg width="72" height="72" viewBox="0 0 72 72" fill="none" xmlns="http://www.w3.org/2000/svg">
<circle cx="36" cy="36" r="35.5" stroke="#BDBDBD"/>
<path d="M46.7968 41.3384C45.9959 41.3384 45.2351 41.6521 44.6611 42.2194C44.0871 42.7934 43.7667 43.5409 43.7667 44.3418C43.7667 45.1427 44.0804 45.8902 44.6611 46.4641C45.2417 47.0315 45.9959 47.3451 46.7968 47.3451C48.4387 47.3451 49.7735 45.997 49.7735 44.3418C49.7735 42.6866 48.4387 41.3384 46.7968 41.3384ZM46.7968 46.0103C45.8758 46.0103 45.1016 45.2494 45.1016 44.3418C45.1016 43.4341 45.8758 42.6732 46.7968 42.6732C47.7045 42.6732 48.4387 43.4207 48.4387 44.3418C48.4387 45.2628 47.7045 46.0103 46.7968 46.0103ZM47.571 31.3338C47.4509 31.2203 47.2907 31.1603 47.1238 31.1603H43.7C43.3329 31.1603 43.0326 31.4606 43.0326 31.8277V37.3005C43.0326 37.6676 43.3329 37.9679 43.7 37.9679H49.1328C49.4999 37.9679 49.8002 37.6676 49.8002 37.3005V33.6364C49.8002 33.4495 49.7201 33.2693 49.5799 33.1425L47.571 31.3338ZM48.4654 36.6331H44.3674V32.4884H46.8636L48.4654 33.93V36.6331ZM30.4985 41.3384C29.6976 41.3384 28.9367 41.6521 28.3627 42.2194C27.7888 42.7934 27.4684 43.5409 27.4684 44.3418C27.4684 45.1427 27.7821 45.8902 28.3627 46.4641C28.9434 47.0315 29.6976 47.3451 30.4985 47.3451C32.1403 47.3451 33.4752 45.997 33.4752 44.3418C33.4752 42.6866 32.1403 41.3384 30.4985 41.3384ZM30.4985 46.0103C29.5774 46.0103 28.8032 45.2494 28.8032 44.3418C28.8032 43.4341 29.5774 42.6732 30.4985 42.6732C31.4062 42.6732 32.1403 43.4207 32.1403 44.3418C32.1403 45.2628 31.4062 46.0103 30.4985 46.0103ZM26.0468 42.1593H24.7053V40.384C24.7053 40.0169 24.405 39.7166 24.0379 39.7166C23.6708 39.7166 23.3705 40.0169 23.3705 40.384V42.8267C23.3705 43.1938 23.6708 43.4941 24.0379 43.4941H26.0468C26.4139 43.4941 26.7142 43.1938 26.7142 42.8267C26.7142 42.4596 26.4139 42.1593 26.0468 42.1593ZM29.4306 38.5219C29.4306 38.1548 29.1303 37.8545 28.7632 37.8545H20.6674C20.3003 37.8545 20 38.1548 20 38.5219C20 38.889 20.3003 39.1893 20.6674 39.1893H28.7632C29.1303 39.1893 29.4306 38.8956 29.4306 38.5219ZM22.0223 36.1125L30.118 36.1592C30.4851 36.1592 30.7855 35.8656 30.7921 35.4985C30.7988 35.1247 30.4985 34.8244 30.1314 34.8244L22.0356 34.7777C22.0289 34.7777 22.0289 34.7777 22.0289 34.7777C21.6619 34.7777 21.3615 35.0713 21.3615 35.4384C21.3549 35.8122 21.6552 36.1125 22.0223 36.1125ZM23.3838 33.0824H31.4796C31.8467 33.0824 32.147 32.7821 32.147 32.415C32.147 32.0479 31.8467 31.7476 31.4796 31.7476H23.3838C23.0167 31.7476 22.7164 32.0479 22.7164 32.415C22.7164 32.7821 23.0167 33.0824 23.3838 33.0824ZM52.5299 32.1814L47.7512 28.2236C47.6311 28.1235 47.4843 28.0701 47.3241 28.0701H41.7044V25.6674C41.7044 25.3003 41.4041 25 41.037 25H24.0379C23.6708 25 23.3705 25.3003 23.3705 25.6674V30.5529C23.3705 30.92 23.6708 31.2203 24.0379 31.2203C24.405 31.2203 24.7053 30.92 24.7053 30.5529V26.3348H40.3763V42.1593H34.9034C34.5364 42.1593 34.236 42.4596 34.236 42.8267C34.236 43.1938 34.5364 43.4941 34.9034 43.4941H43.0526C43.4197 43.4941 43.72 43.1938 43.72 42.8267C43.72 42.4596 43.4197 42.1593 43.0526 42.1593H41.7111V29.405H47.0905L51.442 33.009L51.3953 42.146H50.7012C50.3341 42.146 50.0338 42.4463 50.0338 42.8134C50.0338 43.1805 50.3341 43.4808 50.7012 43.4808H52.0561C52.4231 43.4808 52.7235 43.1871 52.7235 42.82L52.7769 32.702C52.7702 32.5018 52.6834 32.3082 52.5299 32.1814Z" fill="#BDBDBD"/>
</svg>
