<svg width="72" height="72" viewBox="0 0 72 72" fill="none" xmlns="http://www.w3.org/2000/svg">
<circle cx="36" cy="36" r="35.5" stroke="#BDBDBD"/>
<path d="M28.2588 33.8319H23.0997V34.865H28.2588V33.8319Z" fill="#BDBDBD"/>
<path d="M30.8415 36.9312H23.0997V37.9642H30.8415V36.9312Z" fill="#BDBDBD"/>
<path d="M41.6825 40.0304H23.0997V41.0635H41.6825V40.0304Z" fill="#BDBDBD"/>
<path d="M26.199 43.1233H23.0997V44.1564H26.199V43.1233Z" fill="#BDBDBD"/>
<path d="M31.3567 43.1233H28.2574V44.1564H31.3567V43.1233Z" fill="#BDBDBD"/>
<path d="M36.5234 43.1233H33.4241V44.1564H36.5234V43.1233Z" fill="#BDBDBD"/>
<path d="M41.165 33.3153C40.7871 33.3153 40.4406 33.4224 40.1383 33.5988C39.8233 33.4161 39.4705 33.3153 39.0989 33.3153C37.9587 33.3153 37.0327 34.2413 37.0327 35.3815C37.0327 36.5216 37.9587 37.4476 39.0989 37.4476C39.4705 37.4476 39.8233 37.3468 40.1383 37.1642C40.4406 37.3405 40.7871 37.4476 41.165 37.4476C42.3052 37.4476 43.2312 36.5216 43.2312 35.3815C43.2312 34.2413 42.3052 33.3153 41.165 33.3153ZM39.3634 36.3767C39.2753 36.4019 39.1871 36.4145 39.0989 36.4145C38.5319 36.4145 38.0658 35.9484 38.0658 35.3815C38.0658 34.8145 38.5319 34.3484 39.0989 34.3484C39.1871 34.3484 39.2816 34.3673 39.3634 34.3862C39.1997 34.6822 39.0989 35.0161 39.0989 35.3815C39.0989 35.7468 39.1997 36.0807 39.3634 36.3767ZM41.165 36.4145C40.5981 36.4145 40.132 35.9484 40.132 35.3815C40.132 34.8145 40.5981 34.3484 41.165 34.3484C41.732 34.3484 42.1981 34.8145 42.1981 35.3815C42.1981 35.9484 41.732 36.4145 41.165 36.4145Z" fill="#BDBDBD"/>
<path d="M50.9231 30.9279L29.2662 24.0869C29.115 24.0365 27.9056 23.6397 27.326 25.0948L25.5433 30.7326H21.5496C20.6929 30.7389 20 31.4319 20 32.2823V45.706C20 46.5627 20.6929 47.2556 21.5496 47.2556H44.2647C44.8065 47.2556 45.2789 46.9784 45.5561 46.5564C45.5561 46.5564 46.2553 46.7517 46.4128 46.7517C47.0931 46.7517 47.6852 46.317 47.8868 45.6682L51.9309 32.8681C52.0569 32.4775 52.1451 31.2555 50.9231 30.9279ZM27.6851 27.3751L38.3245 30.7326H31.4647L27.0615 29.3405L27.6851 27.3751ZM26.7528 30.3295L28.0442 30.7389H26.6268L26.7528 30.3295ZM44.7813 45.706H44.775C44.775 45.9895 44.5419 46.2225 44.2584 46.2225H21.5496C21.2662 46.2225 21.0331 45.9895 21.0331 45.706V32.2823C21.0331 31.9988 21.2662 31.7657 21.5496 31.7657H44.2647C44.5482 31.7657 44.7813 31.9988 44.7813 32.2823V45.706ZM46.9041 45.3595C46.8222 45.6241 46.5199 45.7816 46.2553 45.6934L45.8081 45.5548V36.3516L49.3923 37.4854L46.9041 45.3595ZM49.701 36.4965L45.8081 35.2681V33.1012L50.3246 34.5248L49.701 36.4965ZM50.9483 32.5594L50.6396 33.5421L45.7829 32.0114C45.6506 31.287 45.0207 30.7389 44.2647 30.7389H41.7513L27.9938 26.3925L28.3024 25.4098C28.3843 25.1452 28.6804 24.9877 28.9512 25.0759L50.6081 31.9106C51.0428 32.024 50.9861 32.4271 50.9483 32.5594Z" fill="#BDBDBD"/>
</svg>
